<svg aria-hidden="true" style="position: absolute; width: 0; height: 0; overflow: hidden;" version="1.1" xmlns="http://www.w3.org/2000/svg" xmlns:xlink="http://www.w3.org/1999/xlink">
<defs>
<symbol id="icon-redis" viewBox="0 0 32 32">
<path fill="#d82c20" style="fill: var(--color1, #d82c20)" d="M31.992 19.12c-0.013 0.305-0.417 0.647-1.247 1.080-1.708 0.889-10.555 4.528-12.437 5.509-1.884 0.981-2.929 0.972-4.417 0.26-1.488-0.711-10.901-4.515-12.597-5.324-0.847-0.405-1.279-0.747-1.293-1.069v3.235c0 0.323 0.445 0.665 1.293 1.071 1.696 0.811 11.111 4.613 12.597 5.324 1.488 0.712 2.533 0.721 4.417-0.261 1.883-0.981 10.729-4.619 12.437-5.509 0.868-0.452 1.252-0.804 1.252-1.123 0-0.301 0.001-3.189 0.001-3.189-0.001-0.001-0.005-0.001-0.007-0.003zM31.991 13.847c-0.015 0.305-0.417 0.645-1.245 1.079-1.708 0.889-10.555 4.528-12.437 5.509-1.884 0.981-2.929 0.972-4.417 0.261s-10.901-4.515-12.597-5.325c-0.847-0.404-1.279-0.747-1.293-1.068v3.235c0 0.323 0.445 0.664 1.293 1.069 1.696 0.811 11.109 4.613 12.597 5.324 1.488 0.712 2.533 0.721 4.417-0.26 1.883-0.981 10.729-4.62 12.437-5.509 0.868-0.453 1.252-0.805 1.252-1.124 0-0.301 0.001-3.189 0.001-3.189-0.001-0.001-0.005 0-0.008-0.001zM31.991 8.377c0.016-0.325-0.409-0.611-1.265-0.925-1.664-0.609-10.457-4.109-12.141-4.727-1.684-0.616-2.369-0.591-4.348 0.119-1.979 0.711-11.341 4.383-13.007 5.035-0.833 0.328-1.241 0.631-1.227 0.953v3.235c0 0.323 0.445 0.664 1.293 1.069 1.696 0.811 11.109 4.615 12.597 5.325s2.533 0.72 4.417-0.261c1.883-0.981 10.729-4.62 12.437-5.509 0.868-0.453 1.252-0.805 1.252-1.124 0-0.3 0.001-3.189 0.001-3.189zM11.459 11.439l7.415-1.139-2.24 3.284zM27.857 8.481l-4.86 1.919-4.383-1.732 4.856-1.92zM14.984 5.304l-0.717-1.323 2.237 0.875 2.109-0.691-0.571 1.367 2.149 0.805-2.772 0.288-0.621 1.493-1.003-1.665-3.201-0.288zM9.46 7.169c2.189 0 3.963 0.688 3.963 1.536s-1.775 1.536-3.963 1.536-3.964-0.689-3.964-1.536c0-0.848 1.775-1.536 3.964-1.536z"></path>
</symbol>
<symbol id="icon-facebook2" viewBox="0 0 32 32">
<path d="M29 0h-26c-1.65 0-3 1.35-3 3v26c0 1.65 1.35 3 3 3h13v-14h-4v-4h4v-2c0-3.306 2.694-6 6-6h4v4h-4c-1.1 0-2 0.9-2 2v2h6l-1 4h-5v14h9c1.65 0 3-1.35 3-3v-26c0-1.65-1.35-3-3-3z"></path>
</symbol>
<symbol id="icon-instagram" viewBox="0 0 32 32">
<path d="M16 2.881c4.275 0 4.781 0.019 6.462 0.094 1.563 0.069 2.406 0.331 2.969 0.55 0.744 0.288 1.281 0.638 1.837 1.194 0.563 0.563 0.906 1.094 1.2 1.838 0.219 0.563 0.481 1.412 0.55 2.969 0.075 1.688 0.094 2.194 0.094 6.463s-0.019 4.781-0.094 6.463c-0.069 1.563-0.331 2.406-0.55 2.969-0.288 0.744-0.637 1.281-1.194 1.837-0.563 0.563-1.094 0.906-1.837 1.2-0.563 0.219-1.413 0.481-2.969 0.55-1.688 0.075-2.194 0.094-6.463 0.094s-4.781-0.019-6.463-0.094c-1.563-0.069-2.406-0.331-2.969-0.55-0.744-0.288-1.281-0.637-1.838-1.194-0.563-0.563-0.906-1.094-1.2-1.837-0.219-0.563-0.481-1.413-0.55-2.969-0.075-1.688-0.094-2.194-0.094-6.463s0.019-4.781 0.094-6.463c0.069-1.563 0.331-2.406 0.55-2.969 0.288-0.744 0.638-1.281 1.194-1.838 0.563-0.563 1.094-0.906 1.838-1.2 0.563-0.219 1.412-0.481 2.969-0.55 1.681-0.075 2.188-0.094 6.463-0.094zM16 0c-4.344 0-4.887 0.019-6.594 0.094-1.7 0.075-2.869 0.35-3.881 0.744-1.056 0.412-1.95 0.956-2.837 1.85-0.894 0.888-1.438 1.781-1.85 2.831-0.394 1.019-0.669 2.181-0.744 3.881-0.075 1.713-0.094 2.256-0.094 6.6s0.019 4.887 0.094 6.594c0.075 1.7 0.35 2.869 0.744 3.881 0.413 1.056 0.956 1.95 1.85 2.837 0.887 0.887 1.781 1.438 2.831 1.844 1.019 0.394 2.181 0.669 3.881 0.744 1.706 0.075 2.25 0.094 6.594 0.094s4.888-0.019 6.594-0.094c1.7-0.075 2.869-0.35 3.881-0.744 1.050-0.406 1.944-0.956 2.831-1.844s1.438-1.781 1.844-2.831c0.394-1.019 0.669-2.181 0.744-3.881 0.075-1.706 0.094-2.25 0.094-6.594s-0.019-4.887-0.094-6.594c-0.075-1.7-0.35-2.869-0.744-3.881-0.394-1.063-0.938-1.956-1.831-2.844-0.887-0.887-1.781-1.438-2.831-1.844-1.019-0.394-2.181-0.669-3.881-0.744-1.712-0.081-2.256-0.1-6.6-0.1v0z"></path>
<path d="M16 7.781c-4.537 0-8.219 3.681-8.219 8.219s3.681 8.219 8.219 8.219 8.219-3.681 8.219-8.219c0-4.537-3.681-8.219-8.219-8.219zM16 21.331c-2.944 0-5.331-2.387-5.331-5.331s2.387-5.331 5.331-5.331c2.944 0 5.331 2.387 5.331 5.331s-2.387 5.331-5.331 5.331z"></path>
<path d="M26.462 7.456c0 1.060-0.859 1.919-1.919 1.919s-1.919-0.859-1.919-1.919c0-1.060 0.859-1.919 1.919-1.919s1.919 0.859 1.919 1.919z"></path>
</symbol>
<symbol id="icon-telegram" viewBox="0 0 32 32">
<path d="M16 0c-8.838 0-16 7.162-16 16s7.162 16 16 16 16-7.163 16-16-7.163-16-16-16zM23.863 10.969l-2.625 12.369c-0.181 0.881-0.712 1.087-1.45 0.681l-4-2.956-1.919 1.869c-0.225 0.219-0.4 0.4-0.8 0.4-0.519 0-0.431-0.194-0.606-0.688l-1.363-4.475-3.956-1.231c-0.856-0.262-0.862-0.85 0.194-1.269l15.412-5.95c0.7-0.319 1.381 0.169 1.113 1.25z"></path>
</symbol>
</defs>
</svg>
