<!-- Generated by IcoMoon.io -->
<svg version="1.1" xmlns="http://www.w3.org/2000/svg" width="32" height="32" viewBox="0 0 32 32">
<title>abbrobotstudio</title>
<path fill="#ff9e0f" d="M32 16.613c0 7.069-5.731 12.8-12.8 12.8s-12.8-5.731-12.8-12.8v0h1.427c0 6.281 5.092 11.373 11.373 11.373s11.373-5.092 11.373-11.373c0-6.281-5.092-11.373-11.373-11.373v0-1.427c7.069 0 12.8 5.731 12.8 12.8v0zM19.2 12.347c-2.356 0-4.267 1.91-4.267 4.267s1.91 4.267 4.267 4.267c2.356 0 4.267-1.91 4.267-4.267v0c0-2.356-1.91-4.267-4.267-4.267v0zM16.533 12.347l-0.8-8.893-3.28 2.56-1.947-1.92c-1.085-0.942-2.512-1.517-4.073-1.517-1.273 0-2.457 0.382-3.443 1.038l0.023-0.014-2.693 1.733c-0.191 0.131-0.315 0.349-0.315 0.596 0 0.145 0.043 0.281 0.117 0.394l-0.002-0.003c0.131 0.191 0.349 0.315 0.596 0.315 0.145 0 0.281-0.043 0.394-0.117l-0.003 0.002 2.667-1.747c0.749-0.497 1.67-0.793 2.659-0.793 1.164 0 2.233 0.41 3.069 1.094l-0.009-0.007 1.827 1.84-3.053 2.427z"></path>
</svg>
