<!-- Generated by IcoMoon.io -->
<svg version="1.1" xmlns="http://www.w3.org/2000/svg" width="32" height="32" viewBox="0 0 32 32">
<title>abstract</title>
<path d="M16 0c12.801 0 16 3.199 16 16s-3.199 16-16 16-16-3.199-16-16 3.199-16 16-16zM13.375 24.752c3.365 0.004 6.139-2.76 6.145-6.127 0-3.361-2.765-6.127-6.127-6.127s-6.127 2.767-6.127 6.127c0 3.355 2.753 6.117 6.108 6.127zM24.5 24.5v-17h-17v2.996h13.997v14.004zM13.375 15.503c1.725 0.001 3.123 1.399 3.123 3.124s-1.399 3.124-3.124 3.124c-0 0-0.001 0-0.001 0h0c-1.725-0.001-3.123-1.399-3.123-3.124s1.399-3.124 3.124-3.124c0 0 0.001 0 0.001 0h-0z"></path>
</svg>
