<!-- Generated by IcoMoon.io -->
<svg version="1.1" xmlns="http://www.w3.org/2000/svg" width="32" height="32" viewBox="0 0 32 32">
<title>accusoft</title>
<path fill="#ff7e4a" d="M24.104 21.793c-0.279-0.348-11.612-14.84-12.007-15.328-0.372-0.488-0.279-0.627-0.209-0.697 0.14-0.163 0.348-0.14 1.161-0.14 0.488 0 5.319-0.023 5.829-0.023 1.045 0 1.208 0.093 1.324 0.116 0.116 0.047 0.395 0.279 0.604 0.511 0.116 0.14 10.265 12.285 10.357 12.401 0.116 0.14 0.279 0.372 0.419 0.58 0.116 0.209 0.14 0.488-0.047 0.604-0.116 0.069-5.736 2.392-5.899 2.439-0.163 0.069-0.464 0.185-0.697 0.14-0.116 0.001-0.464-0.161-0.836-0.603zM29.84 21.515l0.419 0.069c0 0 1.347 0.256 1.487 0.301 0.139 0.024 0.255 0.14 0.255 0.187 0 0.116-0.069 0.163-0.185 0.232-0.093 0.069-6.177 3.808-6.293 3.879-0.116 0.069-0.256 0.14-0.58 0.185-0.604 0.116-1.741-0.209-2.113-0.279-0.348-0.069-15.281-3.391-15.397-3.437-0.14-0.047-0.232-0.047-0.232-0.185-0.023-0.209 0.301-0.279 0.557-0.372s7.269-2.624 7.524-2.74c0.256-0.116 0.557-0.14 0.72-0.14s1.137 0.14 1.579 0.209 1.695 0.256 1.695 0.256l2.856 3.692c0.488 0.58 0.813 0.813 1.231 0.836 0.209 0.023 0.441-0.047 0.604-0.116 0.117-0.045 5.876-2.577 5.876-2.577zM13.537 12.457c0 0 2.461 3.159 2.485 3.181 0.023 0.047 0.047 0.093 0.093 0.116v0.047c-0.093 0.069-4.483 4.133-4.505 4.157l-4.621 1.695c0 0-0.14 0.047-0.209 0.093s-0.163 0.14-0.14 0.348c0 0.069 0.023 1.137 0.047 1.393-0.023 0.023 0 0-0.023 0.023 0 0-5.689 1.812-5.736 1.812-0.279 0.093-0.813 0.279-0.883 0.232-0.116-0.093 0.023-0.232 0.093-0.325 0.069-0.093 11.728-11.565 12.169-12.029 0.625-0.673 1.229-0.743 1.229-0.743z"></path>
</svg>
