<!-- Generated by IcoMoon.io -->
<svg version="1.1" xmlns="http://www.w3.org/2000/svg" width="32" height="32" viewBox="0 0 32 32">
<title>acm</title>
<path fill="#0085ca" d="M9.913 16.333c-0.107 0.033-0.2 0.096-0.269 0.18-0.064 0.096-0.097 0.211-0.093 0.327 0 0.2 0.051 0.336 0.16 0.411 0.103 0.075 0.259 0.109 0.469 0.109 0.116 0 0.232-0.027 0.352-0.080 0.12-0.051 0.232-0.127 0.327-0.22v-0.88c-0.224 0.020-0.404 0.040-0.54 0.060-0.14 0.013-0.276 0.045-0.405 0.093zM16 0l-16 16 16 16 16-16zM16 25.809c-5.416-0.003-9.807-4.392-9.809-9.809 0.003-5.416 4.393-9.808 9.809-9.811 5.417 0.003 9.807 4.393 9.809 9.811-0.003 5.417-4.392 9.807-9.809 9.809zM16 7.169v0.003c-4.872 0-8.827 3.955-8.827 8.827s3.955 8.827 8.827 8.827 8.827-3.955 8.827-8.827c0-4.875-3.952-8.827-8.827-8.829zM12.184 18.164h-1.327v-0.448l-0.243 0.205c-0.189 0.144-0.405 0.251-0.636 0.311-0.109 0.027-0.269 0.047-0.469 0.047-0.349 0.009-0.687-0.129-0.931-0.38-0.249-0.253-0.369-0.568-0.369-0.955 0-0.317 0.061-0.569 0.187-0.765 0.133-0.2 0.32-0.36 0.54-0.464 0.273-0.12 0.564-0.203 0.861-0.24 0.333-0.044 0.688-0.080 1.071-0.104v-0.023c0-0.235-0.088-0.396-0.261-0.484-0.173-0.093-0.429-0.136-0.773-0.136-0.156 0-0.339 0.027-0.547 0.084-0.211 0.059-0.411 0.133-0.611 0.219h-0.116v-1.027c0.129-0.040 0.341-0.083 0.64-0.133 0.289-0.053 0.584-0.080 0.884-0.080 0.733 0 1.267 0.123 1.6 0.368 0.333 0.244 0.5 0.616 0.5 1.116zM16.477 17.941c-0.093 0.037-0.179 0.075-0.267 0.115-0.099 0.040-0.2 0.077-0.307 0.107-0.125 0.032-0.248 0.059-0.36 0.080-0.112 0.019-0.261 0.029-0.448 0.029-0.351 0-0.675-0.044-0.964-0.133-0.28-0.083-0.541-0.22-0.76-0.409-0.217-0.189-0.389-0.427-0.497-0.693-0.12-0.28-0.18-0.609-0.18-0.984-0.011-0.36 0.056-0.713 0.195-1.040 0.12-0.272 0.299-0.512 0.523-0.707 0.22-0.179 0.473-0.311 0.747-0.387 0.293-0.088 0.596-0.128 0.9-0.128 0.493 0 0.976 0.116 1.413 0.34v1.139h-0.169c-0.064-0.057-0.128-0.113-0.196-0.165-0.080-0.064-0.163-0.12-0.251-0.168-0.223-0.127-0.476-0.192-0.733-0.187-0.339 0-0.6 0.115-0.787 0.351-0.184 0.236-0.28 0.552-0.28 0.952 0 0.427 0.1 0.747 0.3 0.953 0.2 0.209 0.463 0.313 0.789 0.313 0.147 0 0.296-0.017 0.44-0.056 0.204-0.057 0.393-0.16 0.553-0.3 0.064-0.053 0.117-0.109 0.164-0.147h0.173zM22.255 18.172v-2.129c0-0.209 0-0.387-0.009-0.529-0.003-0.12-0.027-0.24-0.069-0.351-0.031-0.088-0.093-0.16-0.173-0.2-0.204-0.085-0.433-0.084-0.637 0.003-0.115 0.053-0.224 0.116-0.325 0.187v3.017h-1.324v-2.127c0-0.208-0.004-0.381-0.013-0.528-0.004-0.12-0.027-0.24-0.067-0.352-0.036-0.088-0.101-0.16-0.181-0.2-0.080-0.044-0.193-0.064-0.333-0.064-0.111 0-0.22 0.027-0.32 0.075-0.104 0.053-0.203 0.115-0.304 0.181v3.016h-1.327v-4.251h1.324v0.475c0.192-0.167 0.395-0.311 0.613-0.431 0.197-0.107 0.419-0.16 0.645-0.16 0.243-0.005 0.48 0.060 0.685 0.187 0.204 0.133 0.36 0.325 0.453 0.552 0.253-0.236 0.493-0.419 0.72-0.547s0.453-0.193 0.687-0.193c0.181-0.003 0.36 0.031 0.528 0.1 0.153 0.059 0.293 0.155 0.4 0.28 0.12 0.141 0.213 0.307 0.267 0.485 0.060 0.189 0.088 0.437 0.088 0.737v2.768z"></path>
</svg>
