<!-- Generated by IcoMoon.io -->
<svg version="1.1" xmlns="http://www.w3.org/2000/svg" width="32" height="32" viewBox="0 0 32 32">
<title>adguard</title>
<path fill="#66b574" d="M16 0c-4.641 0-10.099 1.104-14.759 3.504l-0.727 0.372v0.821c0 4.948 0.095 18.151 14.801 26.892l0.684 0.411 0.684-0.411c14.707-8.741 14.8-21.944 14.8-26.893v-0.811l-0.717-0.376c-4.604-2.409-10.125-3.509-14.767-3.509zM16 2.683c3.971 0 8.779 1.017 12.768 2.929-0.011 5.184-0.557 15.391-12.768 23.107-12.211-7.716-12.759-17.923-12.768-23.107 4.048-1.919 8.797-2.929 12.768-2.929zM22.713 10.103c-0.347 0.011-0.645 0.231-0.813 0.399l-7.173 7.44-2.683-3.217c-1.273-1.475-3.016-0.335-3.419-0.067l6.236 7.24 8.513-11.531c-0.168-0.163-0.397-0.264-0.651-0.264-0.004 0-0.008 0-0.011 0h0.001z"></path>
</svg>
