<!-- Generated by IcoMoon.io -->
<svg version="1.1" xmlns="http://www.w3.org/2000/svg" width="32" height="32" viewBox="0 0 32 32">
<title>adobeacrobatreader</title>
<path fill="#ee3f24" d="M31.464 20.491c-0.947-1.013-2.885-1.596-5.632-1.596-1.467 0-3.167 0.147-5.013 0.493-1.043-1.027-2.083-2.227-3.076-3.627-0.707-0.987-1.324-2.027-1.893-3.053 1.084-3.387 1.608-6.147 1.608-8.133 0-2.229-0.804-4.555-3.12-4.555-0.711 0-1.421 0.433-1.8 1.067-1.044 1.877-0.573 5.991 1.223 10.053-0.671 2.027-1.38 3.964-2.267 6.14-0.771 1.835-1.659 3.725-2.564 5.461-5.205 2.112-8.573 4.579-8.889 6.512-0.139 0.729 0.099 1.4 0.609 1.933 0.177 0.147 0.848 0.727 1.973 0.727 3.453 0 7.093-5.707 8.943-9.147 1.42-0.48 2.84-0.916 4.257-1.353 1.557-0.431 3.12-0.777 4.54-1.020 3.647 3.339 6.861 3.867 8.477 3.867 1.989 0 2.699-0.823 2.937-1.496 0.373-0.867 0.093-1.827-0.336-2.32zM29.617 21.896c-0.139 0.725-0.851 1.208-1.848 1.208-0.28 0-0.52-0.049-0.804-0.096-1.813-0.433-3.511-1.355-5.204-2.808 1.667-0.285 3.080-0.333 3.973-0.333 0.987 0 1.84 0.043 2.413 0.192 0.653 0.141 1.693 0.58 1.46 1.84zM19.587 19.62c-1.227 0.253-2.552 0.552-3.925 0.924-1.088 0.297-2.221 0.632-3.36 1.027 0.617-1.203 1.139-2.365 1.611-3.471 0.571-1.36 1.040-2.76 1.513-4.061 0.467 0.813 0.987 1.64 1.507 2.373 0.853 1.16 1.747 2.267 2.64 3.227zM13.387 1.64c0.193-0.387 0.573-0.581 0.904-0.581 0.993 0 1.183 1.157 1.183 2.080 0 1.557-0.472 3.923-1.28 6.623-1.416-3.76-1.513-6.907-0.807-8.121zM8.184 24.169c-2.413 4.057-4.731 6.577-6.151 6.577-0.28 0-0.516-0.1-0.707-0.244-0.285-0.288-0.427-0.629-0.331-1.013 0.284-1.453 2.981-3.484 7.188-5.32z"></path>
</svg>
