<!-- Generated by IcoMoon.io -->
<svg version="1.1" xmlns="http://www.w3.org/2000/svg" width="32" height="32" viewBox="0 0 32 32">
<title>adobeaudition</title>
<path fill="#00e4bb" d="M0 0.4v31.2h32v-31.2zM1.333 1.733h29.333v28.533h-29.333zM8.879 18.4l-1.029 3.817c-0.023 0.108-0.065 0.183-0.193 0.183h-1.911c-0.129 0-0.151-0.043-0.129-0.193l3.692-12.855c0.082-0.308 0.13-0.662 0.13-1.026 0-0.022-0-0.044-0.001-0.066l0 0.003c0-0.087 0.043-0.129 0.107-0.129h2.727c0.085 0 0.129 0.021 0.151 0.129l4.143 13.965c0.021 0.108 0 0.172-0.108 0.172h-2.147c-0.095-0-0.174-0.069-0.192-0.159l-0-0.001-1.073-3.84zM12.507 16.267c-0.365-1.439-1.224-4.572-1.545-6.096h-0.021c-0.279 1.524-0.967 4.079-1.503 6.096zM25.867 20.3c0 0.149 0.021 0.6 0.064 1.331 0 0.085-0.008 0.128-0.093 0.149-1.182 0.519-2.556 0.839-4.001 0.88l-0.015 0c-1.953 0-3.821-0.751-3.821-3.756v-6.865c0-0.108 0.043-0.172 0.151-0.172h2.099c0.108 0 0.151 0.064 0.151 0.172v6.587c0 1.267 0.553 1.953 1.884 1.953 0.008 0 0.018 0 0.028 0 0.463 0 0.906-0.087 1.313-0.245l-0.025 0.008v-8.304c0-0.108 0.043-0.172 0.151-0.172h1.965c0.129 0 0.151 0.064 0.151 0.172z"></path>
</svg>
