<!-- Generated by IcoMoon.io -->
<svg version="1.1" xmlns="http://www.w3.org/2000/svg" width="32" height="32" viewBox="0 0 32 32">
<title>adobelightroomcc</title>
<path fill="#3df0f0" d="M26.333 0.4h-20.667c-3.133 0-5.667 2.533-5.667 5.667v19.867c0 3.133 2.533 5.667 5.667 5.667h20.667c3.133 0 5.667-2.533 5.667-5.667v-19.867c0-3.133-2.533-5.667-5.667-5.667zM30.653 25.413c0 0.007 0 0.015 0 0.023 0 2.667-2.16 4.828-4.826 4.831h-19.654c-2.667 0-4.84-2.173-4.84-4.853v-18.827c0-2.68 2.173-4.853 4.84-4.853h19.64c2.673 0 4.84 2.167 4.84 4.84v0zM8.867 22.173c-0.16 0-0.2-0.067-0.2-0.2v-14.333c0-0.107 0.040-0.173 0.16-0.173h2.107c0.107 0 0.133 0.040 0.133 0.16v12.347h5.493c0.107 0 0.147 0.040 0.12 0.16l-0.333 1.893c-0.027 0.107-0.093 0.16-0.2 0.16h-7.28zM18.867 13.533c0-0.16 0-0.547-0.067-1.293 0-0.107 0.027-0.133 0.107-0.173 0.813-0.333 2.747-0.92 4.907-0.92 0.107 0 0.16 0.027 0.16 0.133v1.92c0 0.107-0.040 0.133-0.16 0.133-0.84-0.040-2.080 0.067-2.547 0.267v8.413c0 0.107-0.040 0.16-0.16 0.16h-2.093c-0.107 0-0.16-0.040-0.16-0.16v-8.48z"></path>
</svg>
