<!-- Generated by IcoMoon.io -->
<svg version="1.1" xmlns="http://www.w3.org/2000/svg" width="32" height="32" viewBox="0 0 32 32">
<title>adobetypekit</title>
<path fill="#87ec00" d="M0 0v32h32v-32zM1.333 1.368h29.333v29.264h-29.333zM9.553 10.644h-3.695c-0.109 0-0.153-0.044-0.132-0.176l0.264-1.847c0.021-0.111 0.065-0.155 0.176-0.155h9.235c0.132 0 0.176 0.044 0.199 0.176l0.176 1.825c0.021 0.132-0.044 0.176-0.155 0.176h-3.672v12.313c0 0.111-0.044 0.176-0.176 0.176h-2.045c-0.131 0-0.175-0.044-0.175-0.176zM19.624 16.999l3.364-4.552c0.088-0.109 0.109-0.153 0.22-0.153h2.243c0.132 0 0.176 0.088 0.088 0.197-0.528 0.681-2.947 3.672-3.739 4.64-0.010 0.019-0.016 0.042-0.016 0.066s0.006 0.047 0.016 0.067l-0-0.001 4.267 5.695c0.044 0.088 0.021 0.176-0.111 0.176h-2.595c-0.132 0-0.176-0.044-0.22-0.132-0.778-1.020-1.934-2.617-3.068-4.23l-0.449-0.674v4.883c0 0.109-0.023 0.153-0.155 0.153h-2.067c-0.155 0-0.176-0.044-0.176-0.176v-14.359c0-0.065 0.021-0.132 0.153-0.132h2.089c0.088 0 0.155 0.044 0.155 0.155z"></path>
</svg>
