<!-- Generated by IcoMoon.io -->
<svg version="1.1" xmlns="http://www.w3.org/2000/svg" width="32" height="32" viewBox="0 0 32 32">
<title>adobedreamweaver</title>
<path fill="#35fa00" d="M0 0.4v31.2h32v-31.2zM1.333 1.733h29.333v28.533h-29.333zM4.167 7.747c0-0.112 0.023-0.156 0.155-0.177 0.507-0.023 1.96-0.067 3.463-0.067 4.467 0 6.688 2.883 6.688 7.107 0 5.873-3.853 7.653-6.82 7.653-1.123 0-2.752-0.021-3.347-0.043-0.087 0-0.131-0.067-0.131-0.176zM6.567 20.107c0.373 0.024 0.704 0.045 1.123 0.045 2.464 0 4.289-1.739 4.312-5.477 0.027-3.653-1.867-5.060-4.217-5.060-0.463 0-0.836 0.027-1.209 0.051zM23.484 22.2c-0.155 0-0.197-0.060-0.22-0.191-0.66-3.673-1.209-6.271-1.453-8.075h-0.021c-0.285 1.635-0.813 4.343-1.693 8.104-0.044 0.133-0.088 0.169-0.197 0.169h-2.156c-0.155 0-0.197-0.021-0.24-0.153l-2.356-10.508c-0.021-0.089 0.024-0.177 0.156-0.177h2.156c0.088 0 0.155 0.031 0.176 0.12 0.836 4.728 1.187 7.179 1.32 8.147h0.088c0.155-1.144 0.616-3.528 1.605-8.104 0.044-0.133 0.044-0.165 0.176-0.165h2.267c0.109 0 0.131 0.053 0.153 0.164 0.771 4.333 1.276 7.067 1.408 8.168h0.067c0.213-1.408 0.507-3.307 1.445-8.192 0.023-0.088 0.044-0.141 0.155-0.141h2.027c0.088 0 0.155 0.044 0.111 0.155l-2.617 10.525c-0.020 0.111-0.040 0.155-0.195 0.155z"></path>
</svg>
