<!-- Generated by IcoMoon.io -->
<svg version="1.1" xmlns="http://www.w3.org/2000/svg" width="32" height="32" viewBox="0 0 32 32">
<title>airplayvideo</title>
<path d="M4.549 1.76c-1.571 0-2.112 0.163-2.708 0.488-0.579 0.311-1.043 0.773-1.346 1.335l-0.009 0.017c-0.324 0.597-0.487 1.137-0.487 2.761v12.183c0 1.571 0.163 2.113 0.487 2.708 0.325 0.596 0.76 1.029 1.355 1.355 0.541 0.325 1.084 0.487 2.708 0.487h3.627l1.517-1.787h-5.685c-0.433 0.055-0.92-0.001-1.355-0.219-0.271-0.107-0.488-0.377-0.651-0.648-0.163-0.433-0.271-0.867-0.216-1.355v-13.211c-0.053-0.433 0-0.92 0.216-1.353 0.108-0.271 0.38-0.487 0.651-0.649 0.433-0.163 0.867-0.272 1.355-0.219h23.823c0.433-0.053 0.92 0.003 1.355 0.219 0.271 0.109 0.485 0.379 0.648 0.649 0.163 0.432 0.271 0.867 0.216 1.353v13.267c0.053 0.432 0 0.92-0.216 1.353-0.108 0.271-0.377 0.487-0.648 0.648-0.433 0.163-0.867 0.271-1.355 0.217h-5.685l1.516 1.788 3.737-0.053c1.624 0 2.164-0.163 2.76-0.488 0.58-0.312 1.043-0.775 1.346-1.337l0.009-0.017c0.324-0.541 0.487-1.084 0.487-2.707v-12.185c0-1.624-0.163-2.164-0.487-2.76-0.312-0.579-0.775-1.042-1.337-1.345l-0.017-0.009c-0.596-0.325-1.136-0.488-2.76-0.488zM15.817 18.024c-0.2 0.009-0.376 0.103-0.492 0.248l-0.001 0.001-9.475 10.883c-0.102 0.11-0.164 0.258-0.164 0.42 0 0.005 0 0.010 0 0.015v-0.001c-0 0.007-0 0.015-0 0.023 0 0.346 0.281 0.627 0.627 0.627 0.009 0 0.017-0 0.026-0l-0.001 0h19.057c0.163 0 0.327-0.053 0.435-0.161 0.271-0.217 0.272-0.652 0.055-0.923l-9.531-10.936c-0.139-0.122-0.321-0.196-0.522-0.196-0.005 0-0.009 0-0.014 0h0.001z"></path>
</svg>
