<!-- Generated by IcoMoon.io -->
<svg version="1.1" xmlns="http://www.w3.org/2000/svg" width="32" height="32" viewBox="0 0 32 32">
<title>airplayaudio</title>
<path d="M15.878 0.245c-3.837 0.030-7.675 1.432-10.727 4.229-6.509 5.966-6.888 16.108-0.922 22.617 0.271 0.325 0.596 0.596 0.922 0.922 0.163 0.108 0.381 0.111 0.544-0.052l0.706-0.815c0.163-0.163 0.163-0.434 0-0.596-5.695-5.261-6.076-14.211-0.76-19.906s14.211-6.073 19.906-0.758c5.695 5.316 6.073 14.208 0.758 19.904-0.271 0.271-0.487 0.543-0.758 0.76-0.163 0.163-0.163 0.434 0 0.596l0.706 0.815c0.163 0.163 0.434 0.161 0.596 0.052 6.509-6.021 6.888-16.108 0.922-22.617-3.199-3.458-7.545-5.185-11.893-5.151zM16.393 4.935c-2.929-0.095-5.898 0.923-8.203 3.065-4.611 4.285-4.881 11.499-0.596 16.109 0.163 0.163 0.325 0.379 0.542 0.542 0.163 0.163 0.434 0.163 0.596 0l0.706-0.813c0.163-0.163 0.163-0.434 0-0.596-1.898-1.79-3.036-4.34-3.036-6.997 0-5.261 4.283-9.547 9.544-9.547s9.547 4.338 9.547 9.599c0 2.603-1.086 5.155-2.984 6.945-0.163 0.163-0.163 0.434 0 0.596l0.706 0.813c0.163 0.163 0.434 0.217 0.596 0.055 4.611-4.339 4.829-11.554 0.544-16.164-2.143-2.305-5.032-3.512-7.961-3.607zM16.039 9.357c-1.763-0.027-3.539 0.622-4.922 1.951-2.766 2.658-2.819 6.997-0.161 9.763l0.161 0.164c0.163 0.163 0.434 0.163 0.597 0l0.706-0.815c0.163-0.163 0.163-0.434 0-0.596-0.922-0.922-1.464-2.222-1.464-3.578 0-0.004-0-0.009-0-0.014 0-2.748 2.228-4.976 4.976-4.976 0.005 0 0.010 0 0.014 0h-0.001c0.004 0 0.009-0 0.014-0 2.748 0 4.976 2.228 4.976 4.976 0 0.005 0 0.010-0 0.014v-0.001c0 1.356-0.542 2.602-1.518 3.578-0.163 0.163-0.163 0.434 0 0.596l0.706 0.815c0.163 0.163 0.434 0.163 0.596 0 2.712-2.658 2.822-6.997 0.164-9.763-1.329-1.383-3.081-2.087-4.844-2.115zM16.047 19.682c-0.183-0.007-0.374 0.060-0.537 0.195l-0.052 0.055-9.547 10.74c-0.217 0.271-0.217 0.651 0.055 0.922 0.109 0.109 0.269 0.164 0.378 0.164h19.148c0.325 0 0.651-0.271 0.651-0.651 0-0.163-0.053-0.326-0.161-0.435l-9.44-10.74c-0.136-0.163-0.312-0.243-0.495-0.25z"></path>
</svg>
