<!-- Generated by IcoMoon.io -->
<svg version="1.1" xmlns="http://www.w3.org/2000/svg" width="32" height="32" viewBox="0 0 32 32">
<title>alliedmodders</title>
<path fill="#1578d3" d="M0.803 1.436c-0.445 0.010-0.803 0.373-0.803 0.82 0 0 0 0 0 0v0 27.487c0 0.453 0.367 0.82 0.82 0.82v0h11.079c0.453 0 0.82-0.367 0.82-0.82v0-2.325l0.863 2.587c0.112 0.328 0.418 0.56 0.778 0.56 0 0 0.001 0 0.001 0h9.027c0.363-0 0.671-0.236 0.778-0.564l0.002-0.006 0.047-0.143c0.056 0.403 0.398 0.711 0.813 0.711 0 0 0 0 0.001 0h6.153c0.453 0 0.82-0.367 0.82-0.82v-18.869c0-0 0-0 0-0.001 0-0.373-0.249-0.688-0.59-0.787l-0.006-0.001-5.743-1.644c-0.068-0.020-0.145-0.032-0.226-0.032-0.348 0-0.645 0.217-0.764 0.522l-0.002 0.006-2.516 6.541v-7.399c0-0.001 0-0.001 0-0.002 0-0.371-0.247-0.685-0.585-0.786l-0.006-0.002-4.513-1.307c-0.069-0.021-0.148-0.033-0.229-0.033-0.453 0-0.82 0.367-0.82 0.819v8.2l-3.745-9.973c-0.093-0.244-0.291-0.429-0.538-0.501l-0.006-0.001-10.667-3.027c-0.067-0.020-0.144-0.031-0.223-0.031-0.006 0-0.013 0-0.019 0l0.001-0zM1.64 3.343l9.224 2.616 5.188 13.817c0.12 0.314 0.418 0.533 0.768 0.533 0.453 0 0.82-0.367 0.82-0.82 0-0 0-0 0-0.001v0-11.627l2.873 0.832v11.203c-0 0.002-0 0.004-0 0.006 0 0.453 0.367 0.82 0.82 0.82 0.348 0 0.646-0.217 0.765-0.524l0.002-0.006 3.832-9.967 4.427 1.264v17.432h-4.512v-1.64h1.64c0 0 0 0 0 0 0.453 0 0.82-0.367 0.82-0.82 0-0 0-0.001 0-0.001v0-9.435c0-0 0-0 0-0 0-0.453-0.367-0.82-0.82-0.82-0.362 0-0.67 0.235-0.778 0.561l-0.002 0.006-3.92 12.149h-7.836l-5.967-17.901c-0.111-0.33-0.418-0.563-0.779-0.563-0.453 0-0.82 0.367-0.82 0.82 0 0.001 0 0.002 0 0.003v-0 14.768c0 0.001 0 0.003 0 0.004 0 0.453 0.367 0.82 0.82 0.82 0 0 0 0 0 0h2.875v2.049h-9.44zM9.027 16.339l2.965 8.899c-0.027-0.004-0.059-0.007-0.092-0.008l-0.001-0h-2.872zM26.667 22.243v3.399h-1.096z"></path>
</svg>
