<!-- Generated by IcoMoon.io -->
<svg version="1.1" xmlns="http://www.w3.org/2000/svg" width="32" height="32" viewBox="0 0 32 32">
<title>amazonalexa</title>
<path fill="#00caff" d="M16 0c-8.84 0-16 7.16-16 16 0 8.12 6.040 14.813 13.867 15.867v-3.2c0-0.009 0-0.021 0-0.032 0-0.928-0.596-1.716-1.425-2.004l-0.015-0.005c-4.473-1.541-7.63-5.715-7.63-10.625 0-0.094 0.001-0.188 0.003-0.282l-0 0.014c0.126-6.066 5.074-10.934 11.158-10.934 0.057 0 0.114 0 0.171 0.001l-0.009-0c6.137 0.064 11.088 5.053 11.088 11.199 0 0.146-0.003 0.29-0.008 0.435l0.001-0.021-0.013 0.093c-0.012 0.208-0.026 0.383-0.044 0.557l0.004-0.050c0 0.093-0.013 0.187-0.027 0.267 0 0.107-0.013 0.213-0.027 0.307l-0.027 0.133c-1.373 9.040-13.133 14.107-13.2 14.147 0.693 0.093 1.413 0.133 2.133 0.133 8.84 0 16-7.16 16-16s-7.16-16-16-16z"></path>
</svg>
