<!-- Generated by IcoMoon.io -->
<svg version="1.1" xmlns="http://www.w3.org/2000/svg" width="32" height="32" viewBox="0 0 32 32">
<title>amd</title>
<path fill="#ed1c24" d="M24.432 12.183l2.079 2.080h3.408v3.409l2.081 2.080v-7.569zM2.667 12.693l-2.667 6.613h1.745l0.493-1.309h2.961l0.544 1.309h1.784l-2.952-6.613zM8.279 12.693v6.607h1.651v-4.123l1.784 2.083h0.251l1.784-2.075v4.121h1.651v-6.613h-1.439l-2.123 2.46-2.121-2.46zM16.656 12.693v6.613h2.743c2.639 0 3.84-1.395 3.84-3.296 0-1.813-1.249-3.317-3.663-3.317zM18.305 13.907h1.056c1.56 0 2.173 0.948 2.173 2.093 0 0.971-0.496 2.096-2.155 2.096h-1.075zM3.659 14.271l1.055 2.576h-2.036zM26.508 14.68l-2.139 2.137v3h2.995l2.139-2.143h-2.995z"></path>
</svg>
