<!-- Generated by IcoMoon.io -->
<svg version="1.1" xmlns="http://www.w3.org/2000/svg" width="32" height="32" viewBox="0 0 32 32">
<title>americanexpress</title>
<path fill="#2e77bc" d="M21.353 19.171c0-0.427-0.18-0.661-0.459-0.829-0.28-0.16-0.619-0.18-1.080-0.18h-2.057v3.76h0.9v-1.369h0.96c0.32 0 0.52 0.032 0.637 0.167 0.16 0.173 0.139 0.507 0.139 0.733v0.467h0.88v-0.74c-0.003-0.333-0.023-0.501-0.144-0.688-0.080-0.107-0.24-0.24-0.44-0.312l0.027-0.011c0.24-0.096 0.64-0.396 0.637-0.997zM20.193 19.713l-0.037-0.003c-0.12 0.071-0.26 0.077-0.44 0.077h-1.080v-0.84h1.099c0.16 0 0.32 0 0.44 0.067 0.131 0.064 0.208 0.196 0.2 0.34 0 0.16-0.060 0.287-0.181 0.359zM27.063 21.116h-1.729v0.8h1.739c0.901 0 1.4-0.371 1.4-1.179 0-0.373-0.088-0.597-0.249-0.776-0.204-0.177-0.523-0.257-0.973-0.276l-0.501-0.020c-0.139 0-0.24 0-0.34-0.040-0.12-0.040-0.2-0.14-0.2-0.28 0-0.12 0.023-0.221 0.12-0.28 0.111-0.061 0.236-0.088 0.363-0.080h1.64v-0.803h-1.8c-0.939 0-1.277 0.583-1.277 1.12 0 1.2 1.035 1.14 1.876 1.16 0.139 0 0.24 0.020 0.3 0.080 0.061 0.040 0.109 0.141 0.109 0.24 0 0.103-0.047 0.2-0.107 0.24-0.080 0.071-0.2 0.093-0.369 0.093zM0 0v13.461l1.080-2.501h2.333l0.3 0.619v-0.619h2.724l0.6 1.36 0.583-1.351h8.669c0.393 0 0.747 0.076 1.008 0.315v-0.307h2.383v0.307c0.409-0.227 0.915-0.307 1.493-0.307h3.475l0.32 0.621v-0.621h2.557l0.339 0.62v-0.621h2.477v5.264h-2.515l-0.48-0.8v0.78h-3.137l-0.341-0.84h-0.777l-0.36 0.819h-1.617c-0.64 0-1.12-0.139-1.44-0.32v0.32h-3.853v-1.179c0-0.16-0.040-0.16-0.14-0.18h-0.14v1.381h-7.451v-0.64l-0.28 0.64h-1.556l-0.269-0.64v0.62h-3.004l-0.341-0.832h-0.772l-0.341 0.832h-1.525v15.799h31.715v-9.477c-0.36 0.18-0.817 0.24-1.297 0.24h-2.297v-0.34c-0.28 0.22-0.76 0.34-1.219 0.34h-7.288v-1.2c0-0.16-0.024-0.16-0.16-0.16h-0.1v1.363h-2.4v-1.421c-0.397 0.181-0.857 0.2-1.237 0.181h-0.285v1.22h-2.907l-0.72-0.823-0.76 0.8h-4.721v-5.24h4.813l0.691 0.803 0.739-0.8h3.216c0.373 0 0.987 0.040 1.256 0.3v-0.32h2.903c0.269 0 0.859 0.060 1.204 0.3v-0.32h4.353v0.32c0.217-0.219 0.677-0.32 1.071-0.32h2.52v0.32c0.259-0.2 0.619-0.32 1.12-0.32h1.568v-17.445zM28.208 19.94c0.005 0.007 0.008 0.016 0.013 0.021 0.013 0.013 0.032 0.013 0.043 0.027zM31.771 17.443h0.087v0.74h-0.087zM31.82 20.040v-0.007c-0.040-0.033-0.061-0.064-0.1-0.093-0.2-0.204-0.52-0.287-1.019-0.3l-0.48-0.016c-0.16 0-0.259-0.009-0.36-0.040-0.12-0.040-0.2-0.14-0.2-0.28 0-0.12 0.040-0.213 0.12-0.272 0.101-0.060 0.2-0.067 0.36-0.067h1.631v-0.784h-1.711c-0.92 0-1.28 0.583-1.28 1.12 0 1.2 1.040 1.14 1.88 1.16 0.139 0 0.24 0.020 0.299 0.080 0.061 0.040 0.101 0.141 0.101 0.24 0 0.093-0.045 0.184-0.12 0.24-0.060 0.075-0.181 0.093-0.36 0.093h-1.717v0.807h1.716c0.56 0 0.979-0.157 1.2-0.48h0.040c0.12-0.179 0.18-0.4 0.18-0.697 0-0.32-0.060-0.52-0.18-0.704zM24.796 18.944v-0.777h-2.98v3.777h2.98v-0.78h-2.093v-0.76h2.044v-0.779h-2.043v-0.68zM18.013 11.716h0.913v3.751h-0.912zM17.501 12.724l-0.009 0.008c0-0.419-0.173-0.667-0.453-0.832-0.289-0.167-0.627-0.18-1.080-0.18h-2.052v3.76h0.899v-1.379h0.96c0.32 0 0.52 0.040 0.649 0.16 0.163 0.181 0.143 0.504 0.143 0.731v0.472h0.903v-0.737c0-0.333-0.021-0.5-0.147-0.688-0.12-0.143-0.269-0.253-0.44-0.316 0.229-0.093 0.629-0.4 0.628-0.999zM16.361 13.252h-0.020c-0.12 0.072-0.26 0.075-0.44 0.075h-1.101v-0.831h1.1c0.16 0 0.32 0.005 0.44 0.067 0.12 0.053 0.2 0.171 0.2 0.333s-0.063 0.293-0.179 0.356zM21.227 12.497h0.843v-0.8h-0.859c-0.619 0-1.072 0.14-1.36 0.44-0.381 0.4-0.483 0.92-0.483 1.48 0 0.683 0.164 1.111 0.48 1.432 0.309 0.317 0.86 0.413 1.293 0.413h1.040l0.34-0.836h1.853l0.349 0.836h1.813v-2.813l1.696 2.813h1.267l0.003 0.003v-3.751h-0.912v2.617l-1.573-2.613h-1.36v3.481l-1.511-3.541h-1.339l-1.257 2.96h-0.4c-0.236 0-0.483-0.040-0.624-0.179-0.167-0.2-0.248-0.48-0.248-0.883 0-0.38 0.107-0.68 0.259-0.84 0.177-0.18 0.363-0.22 0.689-0.22zM23.451 12.353l0.619 1.491v0.003h-1.24zM3.173 14.627l0.339 0.837h1.821v-2.94l1.296 2.94h0.779l1.297-2.936 0.020 2.936h0.92v-3.747h-1.488l-1.076 2.539-1.168-2.54h-1.456v3.551l-1.517-3.551h-1.329l-1.597 3.747h0.96l0.347-0.835zM2.256 12.353l0.613 1.491-0.004 0.003h-1.22zM15.808 18.16h-2.856l-1.133 1.231-1.1-1.229h-3.591v3.76h3.539l1.14-1.243 1.099 1.24h1.736v-1.253h1.117c0.8 0 1.56-0.219 1.56-1.26l-0.008-0.004c0-1.040-0.797-1.24-1.503-1.241zM10.227 21.137l-0.019-0.003h-2.181v-0.743h1.96v-0.765h-1.96v-0.68h2.24l0.977 1.093zM13.749 21.577l-1.373-1.529 1.373-1.477zM15.82 19.9h-1.18v-0.956h1.18c0.32 0 0.56 0.131 0.56 0.459 0 0.324-0.2 0.496-0.56 0.497zM13.289 12.497v-0.781h-2.983v3.751h2.983v-0.773h-2.089v-0.752h2.036v-0.768h-2.036v-0.676z"></path>
</svg>
