<!-- Generated by IcoMoon.io -->
<svg version="1.1" xmlns="http://www.w3.org/2000/svg" width="32" height="32" viewBox="0 0 32 32">
<title>anaconda</title>
<path fill="#42b029" d="M5.827 24.453c-1.2-0.12-2.4-0.347-3.573-0.667l-0.107-0.027 0.027-0.107c0.347-1.133 0.787-2.24 1.307-3.293l0.053-0.107 0.093 0.053c0.787 0.44 1.627 0.84 2.467 1.187l0.080 0.027-0.013 0.080c-0.133 0.893-0.2 1.813-0.227 2.733v0.12zM8.413 8.307v-0.027c-0.693 0.013-1.387 0.053-2.067 0.133 0.080 0.707 0.213 1.4 0.36 2.080 0.48-0.8 1.053-1.533 1.707-2.187zM5.947 25.267v-0.093l-0.093-0.013c-1.013-0.093-2.040-0.267-3.053-0.507l-0.267-0.067 0.147 0.24c0.92 1.387 2.040 2.613 3.333 3.653l0.213 0.173-0.040-0.267c-0.147-1.067-0.227-2.12-0.24-3.12zM10.893 0.933c-1.24 0.427-2.413 1-3.493 1.707 0.813 0.147 1.627 0.333 2.413 0.573 0.32-0.787 0.68-1.533 1.080-2.28zM16.053 0.080c-0.613 0-1.213 0.040-1.813 0.107 0.84 0.587 1.653 1.227 2.413 1.933l0.64 0.587-0.627 0.6c-0.52 0.493-1.013 1.027-1.493 1.6l-0.027 0.027c0 0-0.093 0.107-0.24 0.28 0.373-0.040 0.76-0.067 1.147-0.067 5.987 0 10.853 4.853 10.853 10.853 0 5.987-4.853 10.853-10.853 10.853-2.080 0-4.027-0.587-5.667-1.6-0.813 0.093-1.627 0.133-2.453 0.133-0.387 0-0.76-0.013-1.147-0.027 0.027 1.24 0.147 2.507 0.347 3.84 2.547 1.72 5.613 2.733 8.92 2.733 8.8 0 15.92-7.133 15.92-15.92 0-8.8-7.12-15.933-15.92-15.933zM13.947 3.84c0.32-0.373 0.64-0.733 0.973-1.093-0.747-0.64-1.533-1.213-2.36-1.733-0.507 0.853-0.947 1.747-1.32 2.653 0.72 0.267 1.413 0.573 2.107 0.907 0.307-0.413 0.533-0.653 0.6-0.733zM3.133 12.933l0.067 0.093 0.093-0.067c0.733-0.533 1.507-1.027 2.307-1.467l0.080-0.027-0.027-0.093c-0.24-0.893-0.427-1.827-0.547-2.773l-0.013-0.107-0.107 0.027c-1.173 0.213-2.347 0.533-3.467 0.933l-0.107 0.040 0.040 0.107c0.467 1.147 1.027 2.267 1.68 3.333zM2.947 14.467l-0.093 0.067c-0.853 0.693-1.667 1.467-2.413 2.293l-0.080 0.080 0.080 0.067c0.827 0.72 1.72 1.387 2.653 1.973l0.093 0.067 0.053-0.093c0.413-0.747 0.893-1.48 1.4-2.187l0.053-0.067-0.053-0.067c-0.587-0.653-1.133-1.333-1.64-2.053zM9.2 24.507l0.28-0.013-0.213-0.173c-0.853-0.693-1.587-1.507-2.187-2.44v-0.027l-0.173-0.080-0.027 0.147c-0.107 0.8-0.173 1.627-0.187 2.48v0.107h0.107c0.373 0.027 0.76 0.027 1.133 0.027 0.413 0.013 0.84 0 1.267-0.027zM8.667 6.92c0.173-0.787 0.387-1.56 0.64-2.32-1-0.28-2.027-0.493-3.053-0.64-0.093 1.040-0.107 2.080-0.040 3.107 0.813-0.093 1.64-0.133 2.453-0.147zM10.2 6.867c0.693-0.44 1.44-0.813 2.227-1.093-0.56-0.253-1.12-0.493-1.707-0.707-0.2 0.587-0.373 1.2-0.52 1.8zM2.8 19.8l-0.080-0.053c-0.827-0.52-1.613-1.093-2.36-1.707l-0.213-0.173 0.040 0.28c0.2 1.533 0.627 3.013 1.253 4.427l0.107 0.253 0.093-0.253c0.307-0.907 0.693-1.8 1.12-2.653zM4.84 4.693c-0.947 0.947-1.787 2-2.467 3.16 0.827-0.24 1.653-0.44 2.493-0.587-0.053-0.853-0.067-1.707-0.027-2.573zM5.32 15.867l0.013-0.28c0.040-0.973 0.2-1.92 0.493-2.84l0.080-0.267-0.24 0.133c-0.627 0.36-1.24 0.76-1.827 1.187l-0.093 0.067 0.067 0.093c0.413 0.587 0.853 1.16 1.32 1.707zM5.427 17.493l-0.040-0.267-0.16 0.24c-0.44 0.627-0.853 1.267-1.227 1.933l-0.053 0.093 0.093 0.053c0.667 0.373 1.373 0.72 2.080 1.027l0.253 0.107-0.12-0.253c-0.413-0.933-0.693-1.92-0.827-2.933zM2.32 13.693l0.080-0.067-0.053-0.080c-0.493-0.8-0.947-1.64-1.347-2.493l-0.12-0.24-0.080 0.267c-0.467 1.44-0.72 2.947-0.76 4.467l-0.013 0.28 0.2-0.2c0.653-0.693 1.36-1.36 2.093-1.933z"></path>
</svg>
