<!-- Generated by IcoMoon.io -->
<svg version="1.1" xmlns="http://www.w3.org/2000/svg" width="32" height="32" viewBox="0 0 32 32">
<title>analogue</title>
<path d="M7.291 17.072c-0.128-0.009-0.278-0.013-0.429-0.013-3.789 0-6.86 3.071-6.86 6.86 0 3.638 2.831 6.614 6.411 6.846l0.020 0.001c0.128 0.009 0.278 0.013 0.429 0.013 3.789 0 6.86-3.071 6.86-6.86 0-3.638-2.831-6.614-6.411-6.846l-0.020-0.001zM31.079 20.488l-9.145-15.843c-1.209-2.064-3.416-3.429-5.941-3.429-3.79 0-6.862 3.072-6.862 6.862 0 1.264 0.342 2.449 0.938 3.466l-0.018-0.032 9.147 15.837c1.209 2.066 3.417 3.432 5.944 3.432 1.263 0 2.446-0.341 3.463-0.936l-0.032 0.018c2.064-1.209 3.428-3.415 3.428-5.941 0-1.265-0.342-2.449-0.939-3.466l0.018 0.032z"></path>
</svg>
