<!-- Generated by IcoMoon.io -->
<svg version="1.1" xmlns="http://www.w3.org/2000/svg" width="32" height="32" viewBox="0 0 32 32">
<title>anchor</title>
<path fill="#8940fa" d="M16.447 16.808c-0.228 0.909-0.781 1.681-1.519 2.085l-0.571 0.312 1.040 1.76 0.547-0.301c0.807-0.459 1.457-1.111 1.9-1.895l0.013-0.025c0.461-0.806 0.739-1.769 0.753-2.796l0-0.004v-0.021c-0.014-1.031-0.292-1.994-0.768-2.829l0.015 0.029c-0.456-0.809-1.106-1.46-1.887-1.907l-0.024-0.013-0.547-0.3-1.040 1.76 0.569 0.312c0.761 0.416 1.327 1.227 1.54 2.176h-6.809c-0.32-0.594-0.938-0.991-1.648-0.991-0.002 0-0.004 0-0.005 0h0c-1.027 0-1.861 0.823-1.861 1.836 0 1.012 0.835 1.836 1.861 1.836 0.001 0 0.002 0 0.004 0 0.724 0 1.351-0.412 1.661-1.014l0.005-0.010zM16 32c-7.477 0-13.539-7.164-13.539-16s6.061-16 13.539-16 13.539 7.164 13.539 16-6.061 16-13.539 16zM23.455 17.115c-0.387 3.767-2.489 6.941-5.413 8.503l1.105 1.824c3.795-2.035 6.44-6.356 6.528-11.384-0.088-5.028-2.733-9.349-6.528-11.385l-1.107 1.827c2.925 1.56 5.028 4.733 5.415 8.5l0.031 1.059zM17.252 24.229l0.259-0.143c1.327-0.729 2.455-1.864 3.261-3.28 0.801-1.4 1.283-3.073 1.307-4.857l0-0.007v-0.011c-0.024-1.79-0.506-3.463-1.333-4.913l0.026 0.050c-0.807-1.417-1.935-2.552-3.261-3.28l-0.259-0.144-1.053 1.781 0.271 0.147c0.976 0.555 1.773 1.322 2.347 2.242l0.016 0.028c0.623 0.992 1.017 2.16 1.141 3.38l0.020 0.715-0.020 0.713c-0.126 1.266-0.534 2.415-1.161 3.414l0.019-0.033c-0.59 0.947-1.387 1.714-2.331 2.251l-0.032 0.017-0.271 0.148z"></path>
</svg>
