<!-- Generated by IcoMoon.io -->
<svg version="1.1" xmlns="http://www.w3.org/2000/svg" width="32" height="32" viewBox="0 0 32 32">
<title>android</title>
<path fill="#3ddc84" d="M32 25.333h-32c0.344-3.051 1.396-5.801 2.988-8.158l-0.041 0.064c1.261-1.929 2.896-3.509 4.813-4.669l0.613-0.344-2.693-4.547c-0.062-0.101-0.099-0.223-0.099-0.353 0-0.244 0.129-0.459 0.323-0.579l0.003-0.002c0.098-0.059 0.216-0.094 0.342-0.094 0.246 0 0.461 0.133 0.576 0.331l0.002 0.003 2.773 4.667c1.849-0.76 3.995-1.201 6.244-1.201 0.074 0 0.147 0 0.221 0.001l-0.011-0c0.059-0.001 0.129-0.001 0.198-0.001 2.212 0 4.32 0.441 6.243 1.241l-0.108-0.040 2.76-4.667c0.118-0.199 0.331-0.331 0.576-0.331 0.133 0 0.256 0.039 0.36 0.106l-0.003-0.002c0.191 0.123 0.316 0.334 0.316 0.574 0 0.133-0.038 0.257-0.104 0.362l0.002-0.003-2.693 4.56 0.667 0.373c1.972 1.241 3.594 2.859 4.803 4.765l0.037 0.062c1.464 2.247 2.488 4.913 2.882 7.779l0.011 0.101zM22 19.36c0 0.736 0.597 1.333 1.333 1.333v0c0.736 0 1.333-0.597 1.333-1.333v0c0-0.736-0.597-1.333-1.333-1.333v0c-0.736 0-1.333 0.597-1.333 1.333v0zM7.333 19.36c0 0.736 0.597 1.333 1.333 1.333v0c0.736 0 1.333-0.597 1.333-1.333v0c0-0.736-0.597-1.333-1.333-1.333v0c-0.736 0-1.333 0.597-1.333 1.333v0z"></path>
</svg>
