<!-- Generated by IcoMoon.io -->
<svg version="1.1" xmlns="http://www.w3.org/2000/svg" width="32" height="32" viewBox="0 0 32 32">
<title>angularuniversal</title>
<path fill="#00acc1" d="M20.8 15.040v1.92c0 0.353-0.287 0.64-0.64 0.64v0h-8.32c-0.353 0-0.64-0.287-0.64-0.64v0-1.92c0-0.353 0.287-0.64 0.64-0.64v0h8.32c0.353 0 0.64 0.287 0.64 0.64v0zM16 20.8c-0.884 0-1.6 0.716-1.6 1.6s0.716 1.6 1.6 1.6v0c0.884 0 1.6-0.716 1.6-1.6s-0.716-1.6-1.6-1.6v0zM20.16 9.6h-8.32c-0.353 0-0.64 0.287-0.64 0.64v0 1.92c0 0.353 0.287 0.64 0.64 0.64h8.32c0.353 0 0.64-0.287 0.64-0.64v0-1.92c0-0.353-0.287-0.64-0.64-0.64v0zM30.88 5.328l-2.288 19.648-12.624 7.024-12.608-7.024-2.24-19.648 14.848-5.328zM22.4 8.32c0-1.060-0.86-1.92-1.92-1.92v0h-8.96c-1.060 0-1.92 0.86-1.92 1.92v0 15.36c0 1.060 0.86 1.92 1.92 1.92h8.96c1.060 0 1.92-0.86 1.92-1.92v0z"></path>
</svg>
