<!-- Generated by IcoMoon.io -->
<svg version="1.1" xmlns="http://www.w3.org/2000/svg" width="32" height="32" viewBox="0 0 32 32">
<title>apacherocketmq</title>
<path fill="#d77310" d="M16 32c-2.52-2.34-2.417-4.991-2.417-4.991h4.835c0 0 0.103 2.651-2.417 4.991zM16 2.651c-2.127 2.808-6.257 9.191-6.257 16.388 0 2.083 0.391 3.827 0.785 5.057h10.944c0.395-1.231 0.785-2.975 0.785-5.057 0-7.197-4.131-13.58-6.257-16.388zM23.933 19.039c0 4.741-1.817 7.871-1.817 7.871l-1.944-1.137h-8.344l-1.944 1.137c0 0-1.817-3.129-1.817-7.871 0-10.444 7.931-19.036 7.933-19.039 0.003 0.003 7.933 8.595 7.933 19.039zM25.031 22.152c0 1.817-0.807 3.793-1.363 4.627h3.852l-0.427-2.62zM4.907 24.16l-0.427 2.62h3.852c-0.557-0.833-1.363-2.809-1.363-4.627zM14.489 16.597c-0.205 0-0.372 0.167-0.372 0.372s0.167 0.372 0.372 0.372 0.372-0.167 0.372-0.372-0.167-0.372-0.372-0.372zM15.683 16.597c-0.205 0-0.372 0.167-0.372 0.372s0.167 0.372 0.372 0.372 0.372-0.167 0.372-0.372-0.167-0.372-0.372-0.372zM16.876 16.597c-0.205 0-0.372 0.167-0.372 0.372s0.167 0.372 0.372 0.372 0.372-0.167 0.372-0.372-0.167-0.372-0.372-0.372zM20.953 21.307c0 1.065-0.863 1.928-1.928 1.928s-1.928-0.863-1.928-1.928c0-0.349 0.095-0.676 0.256-0.959l-0.481-0.657c-0.364 0.16-0.767 0.249-1.189 0.249-0.735 0-1.405-0.268-1.924-0.709l-0.537 0.467c0.017 0.079 0.027 0.159 0.027 0.241 0 0.637-0.516 1.153-1.153 1.153s-1.153-0.516-1.153-1.153 0.516-1.153 1.153-1.153c0.139 0 0.269 0.028 0.392 0.073l0.572-0.497c-0.221-0.416-0.348-0.889-0.348-1.393 0-0.675 0.228-1.295 0.607-1.793l-0.601-0.653c-0.044 0.005-0.087 0.013-0.131 0.013-0.541 0-0.98-0.439-0.98-0.98s0.439-0.98 0.98-0.98 0.98 0.439 0.98 0.98c0 0.073-0.009 0.145-0.025 0.215l0.607 0.66c0.449-0.272 0.973-0.432 1.537-0.432 0.531 0 1.028 0.141 1.459 0.384l0.513-0.513c-0.053-0.155-0.084-0.321-0.084-0.495 0-0.843 0.683-1.525 1.525-1.525s1.525 0.683 1.525 1.525-0.683 1.525-1.525 1.525c-0.173 0-0.34-0.031-0.495-0.084l-0.471 0.471c0.329 0.479 0.524 1.057 0.524 1.683 0 0.735-0.268 1.405-0.708 1.923l0.439 0.599c0.201-0.071 0.416-0.112 0.641-0.112 1.063 0.001 1.925 0.865 1.925 1.929zM15.683 19.308c1.292 0 2.339-1.047 2.339-2.339s-1.047-2.339-2.339-2.339-2.339 1.047-2.339 2.339c0 1.291 1.047 2.339 2.339 2.339z"></path>
</svg>
