<!-- Generated by IcoMoon.io -->
<svg version="1.1" xmlns="http://www.w3.org/2000/svg" width="32" height="32" viewBox="0 0 32 32">
<title>apachenetbeanside</title>
<path fill="#1b6ac6" d="M15.984 0c-0.003 0.001-0.004 0.002-0.006 0.003l0.001-0c-0.011 0.002-0.022 0.004-0.031 0.008l0.001-0c-0.003 0.001-0.004 0.002-0.006 0.003l0.001-0c-0.003 0.001-0.004 0.002-0.006 0.003l0.001-0-0.017 0.011-13.729 7.917c-0.004 0.002-0.008 0.004-0.011 0.006l0.001-0-0.005 0.003c-0.001 0.001-0.002 0.002-0.003 0.003l-0 0c-0.003 0.001-0.004 0.002-0.006 0.003l0.001-0c-0.001 0.001-0.002 0.002-0.003 0.003l-0 0c-0.003 0.001-0.004 0.002-0.006 0.003l0.001-0c-0.002 0.002-0.004 0.003-0.005 0.005l-0 0c-0.001 0.001-0.002 0.003-0.004 0.005l-0 0c-0.003 0.001-0.004 0.002-0.006 0.003l0.001-0c-0.001 0.001-0.002 0.003-0.002 0.005l-0 0.001c-0.002 0.002-0.004 0.003-0.005 0.005l-0 0c-0.001 0.001-0.002 0.003-0.002 0.005l-0 0.001c-0.001 0.001-0.002 0.003-0.002 0.005l-0 0.001c-0.002 0.002-0.004 0.003-0.005 0.005l-0 0c-0.001 0.001-0.002 0.003-0.002 0.005l-0 0.001c-0.001 0.001-0.002 0.003-0.002 0.005l-0 0.001c-0 0.001-0 0.002-0 0.003s0 0.002 0 0.003v-0c-0.001 0.002-0.002 0.004-0.002 0.007l-0 0.001c-0.001 0.001-0.002 0.003-0.002 0.005l-0 0.001c-0 0.001-0 0.002-0 0.003s0 0.002 0 0.003v-0c-0.001 0.002-0.002 0.004-0.002 0.007l-0 0.001c-0 0.001-0 0.002-0 0.003s0 0.002 0 0.003v-0c-0 0.001-0 0.002-0 0.003s0 0.002 0 0.003v-0c-0 0.001-0 0.003-0 0.004s0 0.003 0 0.004v-0c-0 0.003-0 0.006-0 0.009s0 0.007 0 0.010l-0-0v15.835c-0 0.002-0 0.004-0 0.007s0 0.005 0 0.007v-0 0.005c-0 0.001-0 0.003-0 0.004s0 0.003 0 0.004v-0c-0 0.001-0 0.002-0 0.003s0 0.002 0 0.003v-0c-0 0.001-0 0.002-0 0.003s0 0.002 0 0.003v-0c0.001 0.003 0.002 0.004 0.003 0.006l-0-0.001c-0 0.001-0 0.003-0 0.004s0 0.003 0 0.004v-0c0.001 0.003 0.002 0.004 0.003 0.006l-0-0.001c0.001 0.004 0.002 0.006 0.003 0.009l-0-0.001c0.002 0.004 0.004 0.008 0.006 0.011l-0-0.001c0.001 0.003 0.002 0.004 0.003 0.006l-0-0.001c0.001 0.003 0.002 0.004 0.003 0.006l-0-0.001c0.001 0.003 0.002 0.004 0.003 0.006l-0-0.001c0.002 0.002 0.003 0.004 0.005 0.005l0 0c0.001 0.003 0.002 0.004 0.003 0.006l-0-0.001c0.002 0.002 0.003 0.004 0.005 0.005l0 0c0.001 0.001 0.002 0.002 0.003 0.003l0 0c0.002 0.002 0.003 0.004 0.004 0.006l-0-0c0.001 0.001 0.003 0.002 0.005 0.002l0.001 0c0.002 0.002 0.003 0.004 0.005 0.005l0 0c0.001 0.001 0.003 0.002 0.005 0.002l0.001 0c0.001 0.001 0.003 0.002 0.005 0.002l0.001 0c0.004 0.003 0.010 0.005 0.015 0.008l0.001 0 13.739 7.923c0.001 0.001 0.002 0.002 0.003 0.003l0 0 0.005 0.003c0.005 0.004 0.011 0.007 0.018 0.010l0.001 0c0.001 0 0.001 0 0.002 0s0.001 0 0.002-0h-0c0.001 0.001 0.003 0.002 0.005 0.002l0.001 0c0.001 0.001 0.003 0.002 0.005 0.002l0.001 0c0.001 0 0.003 0 0.004 0s0.003-0 0.004-0h-0c0.001 0 0.002 0 0.003 0s0.002 0 0.003-0h-0c0.002 0.001 0.004 0.002 0.007 0.002l0.001 0c0.001 0 0.002 0 0.003 0s0.002 0 0.003-0h-0c0.008-0 0.016-0.001 0.024-0.003l-0.001 0c0.005-0.001 0.010-0.002 0.014-0.003l-0.001 0c0.007-0.002 0.013-0.005 0.019-0.008l-0.001 0c0.004-0.002 0.008-0.004 0.011-0.006l-0.001 0 0.008-0.005c0.003-0.002 0.006-0.004 0.008-0.006l-0 0 13.72-7.912c0.008-0.003 0.015-0.007 0.022-0.011l-0 0 0.005-0.003c0.003-0.001 0.005-0.002 0.007-0.003l-0.001 0c0.001-0.001 0.002-0.002 0.003-0.003l0-0c0.002-0.002 0.004-0.003 0.005-0.005l0-0c0.003-0.001 0.004-0.002 0.006-0.003l-0.001 0c0.002-0.002 0.004-0.003 0.005-0.005l0-0c0.002-0.002 0.004-0.003 0.005-0.005l0-0c0.001-0.001 0.002-0.002 0.003-0.003l0-0c0.002-0.002 0.004-0.003 0.005-0.005l0-0c0.001-0.001 0.002-0.003 0.002-0.005l0-0.001c0.001-0.001 0.002-0.003 0.002-0.005l0-0.001c0.002-0.002 0.004-0.003 0.005-0.005l0-0c0.001-0.001 0.002-0.003 0.002-0.005l0-0.001c0.001-0.002 0.002-0.004 0.002-0.007l0-0.001c0-0.001 0-0.002 0-0.003s0-0.002-0-0.003v0c0.001-0.001 0.002-0.003 0.002-0.005l0-0.001c0.001-0.001 0.002-0.003 0.002-0.005l0-0.001c0-0.001 0-0.003 0-0.004s-0-0.003-0-0.004v0c0.001-0.001 0.002-0.003 0.002-0.005l0-0.001c0-0.001 0-0.002 0-0.003s0-0.002-0-0.003v0c0-0.001 0-0.003 0-0.004s-0-0.003-0-0.004v0c0-0.001 0-0.002 0-0.003s0-0.002-0-0.003v0-0.008c0-0.002 0-0.003 0-0.005s-0-0.004-0-0.006v0-15.837c0-0.002 0-0.005 0-0.008s-0-0.006-0-0.008l0 0c0-0.001 0-0.003 0-0.004s-0-0.003-0-0.004v0c0-0.001 0-0.002 0-0.003s0-0.002-0-0.003v0c0-0.001 0-0.003 0-0.004s-0-0.003-0-0.004v0c-0.001-0.003-0.002-0.004-0.003-0.006l0 0.001c0-0.001 0-0.002 0-0.003s0-0.002-0-0.003v0c-0.001-0.003-0.002-0.004-0.003-0.006l0 0.001c0-0 0-0.001 0-0.001s0-0.001 0-0.001v0c-0.001-0.003-0.002-0.004-0.003-0.006l0 0.001c-0.002-0.004-0.004-0.008-0.006-0.011l0 0.001c-0.001-0.001-0.002-0.002-0.003-0.003l-0-0c-0.001-0.004-0.002-0.008-0.003-0.012l0 0.001c-0.001-0.001-0.002-0.002-0.003-0.003l-0-0c-0.002-0.002-0.003-0.004-0.005-0.005l-0-0c-0.001-0.003-0.002-0.004-0.003-0.006l0 0.001c-0.002-0.002-0.003-0.004-0.005-0.005l-0-0c-0.001-0.003-0.002-0.004-0.003-0.006l0 0.001c-0.001-0.001-0.003-0.002-0.005-0.002l-0.001-0c-0.002-0.002-0.003-0.004-0.005-0.005l-0-0c-0.001-0.001-0.003-0.002-0.005-0.002l-0.001-0c-0.001-0.001-0.002-0.002-0.003-0.002l-0-0c-0.006-0.005-0.013-0.009-0.021-0.013l-0.001-0-13.731-7.917c-0.002-0.002-0.005-0.003-0.007-0.005l-0.001-0-0.004-0.003c-0.003-0.002-0.006-0.003-0.010-0.005l-0.001-0c-0.001-0.001-0.003-0.001-0.005-0.002l-0.001-0c-0.004-0.002-0.008-0.004-0.012-0.005l-0.001-0c-0.001-0-0.002-0-0.003-0s-0.002 0-0.003 0h0c-0.001-0.001-0.003-0.002-0.005-0.002l-0.001-0c-0.001-0.001-0.004-0.002-0.006-0.002l-0.001-0c-0.001-0-0.002-0-0.003-0s-0.002 0-0.003 0h0c-0.001-0-0.003-0-0.004-0s-0.003 0-0.004 0h0c-0.001-0-0.002-0-0.003-0s-0.002 0-0.003 0h0c-0.001-0-0.002-0-0.003-0s-0.002 0-0.003 0h0c-0.002-0-0.004-0-0.006-0s-0.004 0-0.006 0h0zM15.875 0.341v5.851l-8.308 4.824-5.083-2.955zM16.124 0.341l13.391 7.72-5.083 2.955-8.307-4.824zM16 6.405l8.185 4.753-8.187 4.692-8.184-4.692zM2.36 8.277l5.084 2.955v9.528l-5.084 2.956zM29.64 8.277v15.439l-5.085-2.955v-9.529zM7.692 11.373l8.183 4.692v9.445l-8.183-4.751zM24.308 11.373v9.387l-8.184 4.751v-9.444zM7.567 20.973l8.307 4.827v5.851l-13.392-7.72zM24.433 20.973l5.084 2.957-13.393 7.72v-5.851l4.156-2.413z"></path>
</svg>
