<!-- Generated by IcoMoon.io -->
<svg version="1.1" xmlns="http://www.w3.org/2000/svg" width="32" height="32" viewBox="0 0 32 32">
<title>apacheopenoffice</title>
<path fill="#0e85cd" d="M16 0c-8.837 0-16 7.163-16 16v0c0.002 1.162 0.123 2.295 0.352 3.388l-0.019-0.108c1.32-0.375 2.837-0.598 4.405-0.613l0.009-0c0.013-0 0.029-0 0.044-0 2.472 0 4.818 0.54 6.926 1.509l-0.103-0.043 1.013-0.667c2.49-1.533 5.507-2.441 8.735-2.441 2.312 0 4.516 0.466 6.522 1.309l-0.111-0.041c0.086 0.041 0.145 0.127 0.147 0.227v0c0 0.002 0 0.004 0 0.007 0 0.067-0.031 0.127-0.080 0.166l-0 0c-0.026 0.010-0.056 0.015-0.087 0.015s-0.061-0.006-0.088-0.016l0.002 0.001h-0.333c-0.177-0.010-0.385-0.015-0.593-0.015s-0.416 0.006-0.622 0.016l0.029-0.001c-0.175-0.006-0.381-0.010-0.587-0.010-4.457 0-8.518 1.695-11.573 4.476l0.014-0.012c-0.559 0.542-1.071 1.126-1.533 1.748l-0.027 0.038-0.147 0.2c-0.024 0.010-0.051 0.016-0.080 0.016s-0.056-0.006-0.081-0.016l0.001 0.001c-0.024 0.009-0.051 0.015-0.080 0.015s-0.056-0.005-0.082-0.015l0.002 0.001c-2.774-2.372-6.403-3.815-10.37-3.815-0.245 0-0.489 0.006-0.731 0.016l0.034-0.001c2.263 6.268 8.16 10.667 15.085 10.667 8.837 0 16-7.163 16-16 0-8.834-7.159-15.995-15.991-16h-0zM28.52 9.573h-0.747c-0.415-0.065-0.895-0.102-1.382-0.102-2.719 0-5.17 1.15-6.893 2.99l-0.005 0.005c-0.080 0.080-0.16 0.093-0.24 0-1.616-1.71-3.863-2.808-6.367-2.919l-0.020-0.001c-0.267-0.026-0.578-0.040-0.891-0.040-0.628 0-1.241 0.058-1.837 0.17l0.061-0.010c-0.096 0-0.173-0.078-0.173-0.173v0c-0.008-0.020-0.012-0.043-0.012-0.067s0.005-0.047 0.013-0.068l-0 0.001c1.3-0.691 2.842-1.097 4.479-1.097 1.755 0 3.401 0.466 4.821 1.282l-0.047-0.025c1.396-0.815 3.074-1.296 4.864-1.296 1.527 0 2.973 0.35 4.261 0.975l-0.058-0.025 0.187 0.107c0.055 0.022 0.094 0.075 0.094 0.137 0 0.004-0 0.007-0 0.010l0-0c0.005 0.018 0.009 0.039 0.009 0.060s-0.003 0.042-0.009 0.062l0-0.002c-0.024 0.018-0.054 0.028-0.086 0.028-0.007 0-0.014-0.001-0.021-0.002l0.001 0z"></path>
</svg>
