<!-- Generated by IcoMoon.io -->
<svg version="1.1" xmlns="http://www.w3.org/2000/svg" width="32" height="32" viewBox="0 0 32 32">
<title>appveyor</title>
<path fill="#00b3e0" d="M16 0c8.8 0 16 7.2 16 16s-7.2 16-16 16-16-7.2-16-16 7.2-16 16-16zM19.92 19.12c1.76-2.24 1.52-5.44-0.72-7.12-2.16-1.68-5.36-1.28-7.2 0.96-1.76 2.24-1.52 5.44 0.72 7.12s5.44 1.28 7.2-0.96zM11.36 29.52c0.96 0.4 3.040 0.8 4.080 0.8l6.96-10.080c2.24-3.36 1.68-7.92-1.44-10.4-2.8-2.24-6.72-2.16-9.52 0l-9.68 7.44c0.24 2.56 0.96 3.84 0.96 3.92l5.52-6c-0.4 2.64 0.56 5.36 2.8 7.040 1.92 1.52 4.24 1.92 6.48 1.44z"></path>
</svg>
