<!-- Generated by IcoMoon.io -->
<svg version="1.1" xmlns="http://www.w3.org/2000/svg" width="32" height="32" viewBox="0 0 32 32">
<title>aral</title>
<path fill="#0063cb" d="M7.191 13.36l-0.64 2.612 1.32 0.001zM12.38 13.469v1.583c0.732-0.003 1.277 0.040 1.639-0.044 0.36-0.083 0.539-0.289 0.539-0.789 0-0.445-0.16-0.625-0.513-0.697-0.352-0.073-0.896-0.037-1.664-0.052zM19.481 13.364l-0.64 2.613h1.32zM15.995 0l-15.995 15.997 16.005 16.003 15.995-15.995zM7.191 11.861c0.488 0 0.808 0.156 1.033 0.393 0.225 0.24 0.356 0.561 0.467 0.893l1.427 4.281c0 0 0.179 0.368 0.192 0.756 0.013 0.387-0.139 0.799-0.8 0.888-0.473-0.072-0.715-0.208-0.876-0.467-0.163-0.259-0.245-0.643-0.407-1.213h-2.033c-0.196 0.624-0.26 1.009-0.393 1.255s-0.339 0.351-0.821 0.423c-0.677-0.072-0.848-0.492-0.848-0.893s0.172-0.784 0.172-0.784l1.353-4.203c0.107-0.328 0.235-0.66 0.464-0.909s0.56-0.42 1.071-0.42zM19.445 11.864c0.488 0 0.809 0.156 1.033 0.393 0.227 0.24 0.356 0.561 0.467 0.893l1.429 4.281c0 0 0.18 0.368 0.193 0.756 0.013 0.387-0.139 0.799-0.8 0.888-0.475-0.072-0.715-0.208-0.877-0.467s-0.248-0.643-0.409-1.213h-2.033c-0.196 0.624-0.257 1.009-0.391 1.255s-0.341 0.351-0.823 0.423c-0.679-0.072-0.847-0.489-0.847-0.891s0.169-0.787 0.169-0.787l1.355-4.203c0.1-0.311 0.227-0.645 0.457-0.899 0.232-0.253 0.565-0.431 1.076-0.431zM23.907 11.867c0.411 0 0.644 0.152 0.773 0.388 0.129 0.237 0.156 0.557 0.156 0.896v4.276c0.287 0.007 1.64 0 1.64 0 0.387 0 0.707 0.027 0.925 0.141s0.336 0.319 0.325 0.672c-0.013 0.481-0.24 0.689-0.541 0.776s-0.679 0.052-0.992 0.052h-2.355c-0.5 0-0.715-0.22-0.805-0.581-0.089-0.36-0.053-0.86-0.053-1.416v-3.92c-0.019-0.339 0.027-0.661 0.168-0.899 0.143-0.236 0.384-0.385 0.759-0.385zM12.38 12.005h1.464c0.339 0 0.68-0.003 1.023 0.112 0.345 0.115 0.693 0.347 1.048 0.817 0.373 0.504 0.467 1.244 0.296 1.885s-0.608 1.185-1.296 1.292c0.249 0.464 1.072 1.711 1.072 1.711s0.088 0.147 0.104 0.355c0.016 0.207-0.040 0.476-0.333 0.719-0.517 0.196-0.844 0.141-1.040 0.040-0.199-0.104-0.267-0.256-0.267-0.256s-0.749-1.285-1.213-2.177h-0.857v1.784c0 0 0.013 0.205-0.085 0.407-0.1 0.2-0.315 0.397-0.771 0.38-0.436 0-0.651-0.207-0.756-0.412s-0.101-0.408-0.101-0.408v-5.105c0-0.445 0.008-0.732 0.227-0.907 0.219-0.173 0.648-0.236 1.487-0.236z"></path>
</svg>
