<!-- Generated by IcoMoon.io -->
<svg version="1.1" xmlns="http://www.w3.org/2000/svg" width="32" height="32" viewBox="0 0 32 32">
<title>archiveofourown</title>
<path fill="#900" d="M24.556 13.177c-0.916 1.488-2.431 2.296-3.987 2.473-5.636 0.645-8.063-5.532-4.625-8.971 3.080-3.080 9.443-1.2 9.34 3.865-0.015 0.815-0.221 1.809-0.728 2.632zM15.944 10.472c0.189 4.795 6.352 4.909 7.583 1.405 1.087-3.099-1.493-5.599-4.253-5.196-2.031 0.295-3.404 1.881-3.329 3.791zM30.831 8.004c0.379-0.175 0.929-0.549 1.116-0.328 0.281 0.335-0.612 0.633-0.997 0.885-1.224 0.8-2.308 1.636-3.303 2.732-1.279 1.412-2.592 3.168-3.4 5.091 0.824 0.043 4.028 0.209 4.8 1.975 0.619 1.416-0.516 2.875-1.76 3.503 0.884 0.552 2.413 1.26 2.327 2.531-0.211 3.124-4.928 2.988-6.904 0.927-0.325-0.385-0.477-0.643-0.333-0.771 0.201-0.179 0.435 0.248 0.901 0.635 0.3 0.249 0.503 0.335 0.763 0.472 1.735 0.911 4.452 0.537 4.637-1.056 0.085-0.739-0.885-1.273-1.623-1.605-0.664-0.299-2.019-0.515-1.992-1.269 0.027-0.739 0.699-0.6 1.373-0.867 0.733-0.289 1.339-1.201 1.337-1.488-0.007-1.207-2.749-1.184-4.295-1.227-0.367 0.808-0.628 1.635-0.923 2.877-0.185 0.777-0.201 2.529-0.997 2.705-0.983 0.219-1.352-0.636-1.94-1.321-0.792-0.92-1.915-2.183-2.589-2.964-4.044 1.336-7.189 2.788-11.008 4.949-1.748 0.989-2.751 2.12-3.393 1.805-0.528-0.259-0.452-0.844-0.196-1.183 0.524-0.695 1.236-1.633 1.861-2.517 0.8-1.132 1.405-2.223 1.831-3.26 0.923-2.251 1.64-6.293 1.967-7.812 0.117-0.549 0.412-0.464 0.429-0.197 0.036 0.559-0.316 2.729-0.387 3.177-0.581 3.708-1.029 5.88-2.679 8.465 2.928-1.811 6.407-4.025 10.123-5.273-3.783-4.347-7.781-8.461-13.343-11.055-0.852-0.484-2.235-0.588-2.235-0.913 0-0.361 1.041-0.080 1.391 0.009 3.177 0.795 6.423 2.855 8.801 4.592 2.86 2.089 6.285 5.289 7.572 6.775 0.876-0.301 3.048-0.609 4.928-0.661 1.003-2.107 3.4-5.357 6.384-7.256 0.551-0.351 1.123-0.792 1.755-1.081zM19.372 18.765c0.564 0.571 0.989 1.245 1.48 1.864 0.232-0.787 0.54-1.621 0.857-2.344-0.825 0.109-1.708 0.271-2.337 0.48z"></path>
</svg>
