<!-- Generated by IcoMoon.io -->
<svg version="1.1" xmlns="http://www.w3.org/2000/svg" width="32" height="32" viewBox="0 0 32 32">
<title>arduino</title>
<path fill="#00979d" d="M31.76 16c-0.082-4.193-3.5-7.561-7.705-7.561-0.047 0-0.095 0-0.142 0.001l0.007-0c-0.387 0-0.8 0.027-1.2 0.067-3.36 0.493-5.6 2.907-6.84 4.76-1.267-1.853-3.52-4.267-6.853-4.76-0.4-0.040-0.8-0.067-1.2-0.067-0.036-0.001-0.079-0.001-0.121-0.001-4.205 0-7.623 3.368-7.705 7.553l-0 0.008c0.082 4.193 3.5 7.561 7.705 7.561 0.043 0 0.085-0 0.128-0.001l-0.006 0c0.4 0 0.8-0.027 1.227-0.080 3.36-0.48 5.6-2.893 6.853-4.747 1.267 1.853 3.507 4.267 6.853 4.76 0.413 0.040 0.8 0.067 1.213 0.067 0.024 0 0.053 0 0.081 0 4.205 0 7.623-3.368 7.705-7.553l0-0.008zM8.64 20.8c-0.267 0.053-0.573 0.053-0.84 0.053-0.032 0.001-0.071 0.001-0.109 0.001-2.725 0-4.944-2.168-5.024-4.874l-0-0.007c0.088-2.714 2.31-4.881 5.037-4.881 0.038 0 0.077 0 0.115 0.001l-0.006-0c0.267 0 0.56 0.027 0.84 0.053 3.16 0.467 5.093 3.56 5.747 4.827-0.667 1.267-2.6 4.4-5.76 4.827zM17.333 16c0.653-1.24 2.587-4.36 5.747-4.827 0.267-0.053 0.56-0.053 0.827-0.053 0.044-0.001 0.096-0.002 0.148-0.002 2.723 0 4.938 2.17 5.011 4.875l0 0.007c-0.088 2.714-2.31 4.881-5.038 4.881-0.038 0-0.077-0-0.115-0.001l0.006 0c-0.267 0-0.56-0.027-0.827-0.053-3.147-0.467-5.093-3.587-5.76-4.827zM5.613 16.787h4.72v-1.547h-4.707zM24.453 16.787h1.587v-1.547h-1.6v-1.587h-1.507v1.6h-1.6v1.533h1.6v1.573h1.533zM32 9.413c0 0.4-0.293 0.68-0.707 0.68-0.008 0-0.017 0.001-0.027 0.001-0.371 0-0.673-0.297-0.68-0.667v-0.001c0-0.373 0.32-0.693 0.707-0.693 0.413 0 0.707 0.293 0.707 0.68zM30.787 9.413c0 0.293 0.213 0.533 0.533 0.533 0.293 0 0.507-0.24 0.507-0.533s-0.213-0.533-0.507-0.533c-0.32-0.027-0.533 0.213-0.533 0.533zM31.187 9.76h-0.133v-0.693l0.267-0.013c0.12 0 0.187 0.013 0.24 0.040s0.080 0.080 0.080 0.147c0 0.080-0.053 0.133-0.147 0.147 0.067 0.027 0.093 0.080 0.12 0.173l0.040 0.173h-0.16c-0.027-0.027-0.027-0.093-0.053-0.173-0.027-0.067-0.053-0.093-0.147-0.093h-0.067zM31.213 9.36h0.080c0.093 0 0.133-0.013 0.133-0.093 0-0.067-0.040-0.093-0.133-0.093h-0.093v0.187z"></path>
</svg>
