<!-- Generated by IcoMoon.io -->
<svg version="1.1" xmlns="http://www.w3.org/2000/svg" width="32" height="32" viewBox="0 0 32 32">
<title>arxiv</title>
<path fill="#b31b1b" d="M27.6 20.539l-2.525-6.623h1.881l1.853 4.776 1.839-4.776h1.28l-2.56 6.623zM21.731 12.8v-1.493h1.787v1.493zM21.731 20.544v-6.628h1.787v6.623zM12.444 20.54l2.861-4.4-2.732-4.531h2.169l1.819 3.005 1.972-3.005h1.493l-2.728 4.208 2.835 4.716h-2.163l-1.933-3.2-2.076 3.2zM7.983 20.54v-6.624h1.784v1.249c0.459-0.933 1.167-1.401 2.113-1.401 0.118 0.002 0.232 0.014 0.343 0.037l-0.012-0.002v1.592c-0.209-0.081-0.451-0.131-0.704-0.136l-0.002-0c-0.716 0-1.291 0.356-1.737 1.067v4.219zM3.945 19.825q-0.885 0.867-1.916 0.867c-0.021 0.001-0.045 0.001-0.069 0.001-0.52 0-0.994-0.202-1.345-0.533l0.001 0.001c-0.335-0.333-0.543-0.793-0.543-1.303 0-0.025 0.001-0.050 0.001-0.074l-0 0.004c-0.001-0.022-0.001-0.048-0.001-0.073 0-0.676 0.347-1.271 0.873-1.617l0.007-0.005q0.876-0.596 2.512-0.597h0.473v-0.604q0-1.029-1.173-1.029c-0.781 0.016-1.509 0.234-2.137 0.602l0.021-0.011v-1.229c0.714-0.288 1.542-0.456 2.409-0.46h0.001q2.604 0 2.601 2.067v2.941c0 0.52 0.164 0.773 0.501 0.773 0.082-0 0.162-0.010 0.239-0.028l-0.007 0.001 0.043 1.001c-0.297 0.099-0.64 0.161-0.995 0.173l-0.006 0c-0.736 0-1.203-0.288-1.413-0.867zM3.945 18.865v-1.347h-0.427c-1.155 0-1.729 0.365-1.729 1.087-0 0.003-0 0.007-0 0.011 0 0.471 0.382 0.853 0.853 0.853 0 0 0 0 0 0v0c0.439 0.005 0.863-0.2 1.303-0.604z"></path>
</svg>
