<!-- Generated by IcoMoon.io -->
<svg version="1.1" xmlns="http://www.w3.org/2000/svg" width="32" height="32" viewBox="0 0 32 32">
<title>asana</title>
<path d="M25.040 16.871c-3.843 0-6.96 3.115-6.96 6.96s3.117 6.96 6.96 6.96 6.96-3.12 6.96-6.96-3.115-6.96-6.96-6.96zM6.96 16.871c-3.84 0-6.96 3.116-6.96 6.96s3.117 6.96 6.96 6.96 6.96-3.117 6.96-6.96-3.115-6.96-6.96-6.96zM22.96 8.171c0 3.844-3.116 6.96-6.96 6.96-3.843 0-6.96-3.116-6.96-6.96 0-3.84 3.117-6.96 6.96-6.96 3.844 0 6.96 3.12 6.96 6.96z"></path>
</svg>
