<!-- Generated by IcoMoon.io -->
<svg version="1.1" xmlns="http://www.w3.org/2000/svg" width="32" height="32" viewBox="0 0 32 32">
<title>asciidoctor</title>
<path fill="#e40046" d="M24.093 0h-16.187c-4.364 0.008-7.899 3.543-7.907 7.906v16.187c0.008 4.364 3.543 7.899 7.906 7.907h16.187c4.364-0.008 7.899-3.543 7.907-7.906v-16.187c-0.008-4.364-3.543-7.899-7.906-7.907h-0.001zM14.28 20.533h-2.533l-2.147 5.173c-0.102 0.245-0.34 0.414-0.617 0.414-0.095 0-0.185-0.020-0.267-0.056l0.004 0.002c-0.246-0.106-0.415-0.346-0.415-0.626 0-0.097 0.020-0.188 0.056-0.272l-0.002 0.004 1.933-4.64h-3.827c-0 0-0 0-0 0-0.368 0-0.667-0.298-0.667-0.667 0-0.005 0-0.009 0-0.014v0.001c0.015-0.371 0.319-0.667 0.693-0.667 0 0 0 0 0.001 0h7.813c0.363 0.007 0.654 0.303 0.654 0.667 0 0.009-0 0.019-0.001 0.028l0-0.001c0 0 0 0 0 0.001 0 0.361-0.293 0.653-0.653 0.653-0.009 0-0.019-0-0.028-0.001l0.001 0zM24.84 26.093c-0.073 0.029-0.158 0.046-0.246 0.046-0.287 0-0.532-0.177-0.632-0.428l-0.002-0.005-7.133-17.333-3.187 7.627h2.093c0.363 0.007 0.654 0.303 0.654 0.667 0 0.009-0 0.019-0.001 0.028l0-0.001c0 0 0 0 0 0.001 0 0.361-0.293 0.653-0.653 0.653-0.009 0-0.019-0-0.028-0.001l0.001 0h-7.813c-0 0-0 0-0 0-0.368 0-0.667-0.298-0.667-0.667 0-0.005 0-0.009 0-0.014v0.001c0.015-0.371 0.319-0.667 0.693-0.667 0 0 0 0 0.001 0h4.267l4-9.693c0.097-0.242 0.329-0.41 0.6-0.413h0c0.002 0 0.004-0 0.006-0 0.282 0 0.524 0.168 0.633 0.409l0.002 0.004 7.787 18.893c0.033 0.078 0.053 0.168 0.053 0.263 0 0.284-0.174 0.527-0.422 0.629l-0.005 0.002z"></path>
</svg>
