<!-- Generated by IcoMoon.io -->
<svg version="1.1" xmlns="http://www.w3.org/2000/svg" width="32" height="32" viewBox="0 0 32 32">
<title>at-and-t</title>
<path fill="#00a8e0" d="M6.177 28.572c2.673 2.092 6.083 3.355 9.788 3.355 0.002 0 0.003 0 0.004 0h-0c4.035 0 7.713-1.497 10.52-3.957 0.035-0.029 0.019-0.049-0.015-0.029-1.26 0.84-4.851 2.677-10.505 2.677-4.913 0-8.019-1.096-9.772-2.075-0.033-0.017-0.045 0.008-0.020 0.029zM17.053 29.388c3.931 0 8.249-1.072 10.832-3.192 0.707-0.579 1.38-1.347 1.983-2.38 0.347-0.595 0.687-1.301 0.963-1.996 0.013-0.033-0.008-0.051-0.033-0.013-2.403 3.536-9.357 5.74-16.539 5.74-5.076 0-10.539-1.623-12.677-4.723-0.021-0.028-0.041-0.016-0.029 0.016 1.992 4.235 8.036 6.547 15.501 6.547zM12.76 22.364c-8.173 0-12.027-3.807-12.727-6.405-0.008-0.037-0.033-0.029-0.033 0.005 0 0.873 0.088 2.003 0.239 2.752 0.071 0.364 0.368 0.936 0.803 1.393 1.98 2.063 6.915 4.953 15.46 4.953 11.643 0 14.305-3.879 14.848-5.155 0.389-0.912 0.591-2.56 0.591-3.944 0-0.336-0.008-0.603-0.021-0.867 0-0.043-0.024-0.045-0.033-0.004-0.581 3.12-10.529 7.271-19.125 7.271zM1.54 9.115c-0.469 0.929-0.987 2.499-1.143 3.309-0.067 0.347-0.039 0.515 0.084 0.773 0.979 2.080 5.933 5.405 17.493 5.405 7.052 0 12.529-1.733 13.417-4.893 0.163-0.583 0.172-1.197-0.039-2.025-0.235-0.925-0.673-2.004-1.045-2.761-0.013-0.025-0.033-0.021-0.029 0.008 0.137 4.147-11.425 6.819-17.26 6.819-6.32 0-11.592-2.517-11.592-5.697 0-0.305 0.064-0.611 0.143-0.928 0.008-0.029-0.017-0.035-0.029-0.009zM26.516 4.024c0.067 0.105 0.101 0.217 0.101 0.368 0 1.773-5.429 4.912-14.071 4.912-6.349 0-7.537-2.356-7.537-3.853 0-0.536 0.205-1.084 0.657-1.64 0.024-0.033 0.004-0.045-0.025-0.021-0.828 0.705-1.565 1.47-2.221 2.301l-0.026 0.034c-0.319 0.401-0.516 0.757-0.516 0.971 0 3.104 7.784 5.355 15.063 5.355 7.755 0 11.216-2.532 11.216-4.756 0-0.795-0.309-1.26-1.101-2.16-0.515-0.585-1-1.061-1.515-1.531-0.025-0.020-0.043-0.004-0.025 0.021zM24.139 2.251c-2.319-1.414-5.125-2.251-8.126-2.251-0.015 0-0.031 0-0.046 0h0.002c-3.016 0-5.88 0.844-8.281 2.317-0.72 0.443-1.127 0.799-1.127 1.256 0 1.347 3.147 2.793 8.731 2.793 5.524 0 9.809-1.587 9.809-3.112 0-0.364-0.319-0.619-0.963-1.004z"></path>
</svg>
