<!-- Generated by IcoMoon.io -->
<svg version="1.1" xmlns="http://www.w3.org/2000/svg" width="32" height="32" viewBox="0 0 32 32">
<title>audi</title>
<path fill="#bb0a30" d="M26.464 10.464c-1.323 0-2.536 0.464-3.488 1.237-0.952-0.773-2.165-1.237-3.488-1.237s-2.536 0.464-3.488 1.237c-0.952-0.773-2.165-1.237-3.488-1.237s-2.536 0.464-3.488 1.237c-0.952-0.773-2.165-1.237-3.488-1.237-3.057 0-5.536 2.479-5.536 5.536s2.479 5.536 5.536 5.536c1.323 0 2.536-0.464 3.488-1.237 0.952 0.773 2.165 1.237 3.488 1.237s2.536-0.464 3.488-1.237c0.952 0.773 2.165 1.237 3.488 1.237s2.536-0.464 3.488-1.237c0.952 0.773 2.165 1.237 3.488 1.237 3.057 0 5.536-2.479 5.536-5.536s-2.479-5.536-5.536-5.536zM22.976 18.488c-0.501-0.701-0.797-1.56-0.797-2.488s0.296-1.787 0.797-2.488c0.501 0.701 0.797 1.56 0.797 2.488s-0.296 1.787-0.797 2.488zM16 18.488c-0.501-0.701-0.797-1.56-0.797-2.488s0.296-1.787 0.797-2.488c0.501 0.701 0.797 1.56 0.797 2.488s-0.296 1.787-0.797 2.488zM9.024 18.488c-0.501-0.701-0.797-1.56-0.797-2.488s0.296-1.787 0.797-2.488c0.501 0.701 0.797 1.56 0.797 2.488s-0.296 1.787-0.797 2.488zM1.251 16c0-2.367 1.919-4.285 4.285-4.285 0.981 0 1.885 0.331 2.608 0.887-0.731 0.937-1.168 2.117-1.168 3.399s0.437 2.461 1.168 3.399c-0.723 0.555-1.627 0.887-2.608 0.887-2.367 0-4.285-1.919-4.285-4.285zM9.904 19.399c0.731-0.937 1.168-2.117 1.168-3.399s-0.437-2.461-1.168-3.399c0.723-0.555 1.627-0.887 2.608-0.887s1.885 0.331 2.608 0.887c-0.732 0.939-1.168 2.117-1.168 3.399s0.437 2.461 1.168 3.399c-0.723 0.555-1.627 0.887-2.608 0.887s-1.885-0.331-2.608-0.887zM16.88 19.399c0.732-0.939 1.168-2.117 1.168-3.399s-0.437-2.461-1.168-3.4c0.723-0.555 1.627-0.887 2.608-0.887s1.885 0.331 2.608 0.887c-0.732 0.939-1.168 2.117-1.168 3.399s0.437 2.461 1.168 3.399c-0.723 0.555-1.627 0.887-2.608 0.887-0.981 0.001-1.885-0.329-2.608-0.885zM26.464 20.285c-0.981 0-1.885-0.331-2.608-0.887 0.731-0.939 1.168-2.117 1.168-3.399s-0.437-2.461-1.168-3.399c0.723-0.555 1.627-0.887 2.608-0.887 2.367 0 4.285 1.919 4.285 4.285s-1.919 4.285-4.285 4.285z"></path>
</svg>
