<!-- Generated by IcoMoon.io -->
<svg version="1.1" xmlns="http://www.w3.org/2000/svg" width="32" height="32" viewBox="0 0 32 32">
<title>audible</title>
<path fill="#f8991c" d="M16.011 23.149l15.989-9.969v2.704l-15.989 10.012-16.011-10.013v-2.701zM16.011 10.645c-3.612 0-6.78 1.817-8.597 4.627 0.148-0.148 0.233-0.233 0.381-0.339 4.499-3.739 10.983-2.893 14.511 1.816l2.344-1.499c-1.859-2.725-5.048-4.605-8.64-4.605zM16.009 15.272c-1.94 0.006-3.658 0.954-4.719 2.411l-0.012 0.017c0.784-0.581 1.77-0.929 2.837-0.929 0.005 0 0.010 0 0.015 0h-0.001c1.732 0 3.273 0.888 4.309 2.387l2.239-1.393c-0.972-1.543-2.704-2.493-4.668-2.493zM5.196 11.216c6.591-5.196 15.905-3.781 20.869 3.125l0.041 0.043 2.429-1.5c-2.71-4.107-7.303-6.78-12.521-6.78-0.001 0-0.003 0-0.004 0h0c-5.196 0-9.821 2.661-12.525 6.78 0.485-0.549 1.099-1.204 1.711-1.668z"></path>
</svg>
