<!-- Generated by IcoMoon.io -->
<svg version="1.1" xmlns="http://www.w3.org/2000/svg" width="32" height="32" viewBox="0 0 32 32">
<title>aurelia</title>
<path fill="#ed2b88" d="M20.955 6.181l-2.968 1.981-3.060-4.585 2.971-1.981zM23.369 19.956l5.075 7.604-6.044 4.033-5.96-8.931 6.044-4.033zM15.756 25.036l1.117 1.675-4.6 3.071-2.004-3 4.601-3.072zM25.884 16.36l1.291-0.86 2.001 3-2.969 1.983-1.117-1.675 1.68-1.12zM25.089 18.808l-0.885-1.327 1.68-1.12 0.885 1.325zM5.056 16.791l-1.004 0.671-3.060-4.585 4.6-3.069 2.145 3.213 0.915 1.372zM15.351 7.939l0.916 1.372-6.045 4.033-5.941-8.904 6.043-4.033zM19.665 7.043l-1.68 1.12-3.060-4.584 2.971-1.983 3.060 4.585zM12.16 27.436l-0.885-1.327 3.596-2.4 0.885 1.327zM25.089 18.808l-0.885-1.327 1.68-1.12 0.885 1.325zM5.056 16.791l-0.915-1.371 3.596-2.4 0.915 1.372zM17.985 8.163l-0.915-1.371 1.68-1.12 0.915 1.371zM23.369 19.956l-6.044 4.033-0.885-1.327 6.044-4.033zM15.351 7.939l0.916 1.372-6.045 4.033-0.915-1.371zM3.343 6.843l1.14 1.711-1.709 1.14-1.141-1.709zM9.503 27.34l1.141 1.711-1.709 1.14-1.141-1.709zM5.005 29.063l-5.005-7.563 26.751-17.892 5.249 7.441z"></path>
</svg>
