<!-- Generated by IcoMoon.io -->
<svg version="1.1" xmlns="http://www.w3.org/2000/svg" width="32" height="32" viewBox="0 0 32 32">
<title>automatic</title>
<path fill="#7d8084" d="M16 9.024v0.003-1.649c-0.647 0.044-1.005 0.391-1.32 0.947l-6.853 13.969h3.285l-1.004-1.28 0.872-1.817 0.007 0.009 5.013-10.173zM14.035 17.497h3.928l-1.963-4.063zM10.977 19.221h0.023l-0.013-0.017zM17.964 17.497v0.003zM28.661 6.755l-10.981-6.344c-0.924-0.533-2.436-0.533-3.36 0l-10.981 6.344c-0.924 0.531-1.68 1.84-1.68 2.909v12.676c0 1.069 0.756 2.376 1.68 2.907l10.981 6.343c0.924 0.533 2.435 0.533 3.36 0l10.98-6.357c0.923-0.52 1.68-1.84 1.68-2.899v-12.672c0-1.067-0.756-2.373-1.679-2.907zM20.573 22.821l-0.916-1.845h-7.333l-0.897 1.845h-4.377l7.195-14.711c0.407-0.809 1.036-1.2 1.756-1.2s1.379 0.437 1.755 1.187l7.195 14.724zM16 9.027v3.299l3.357 6.897h-8.357l1.011 1.253h7.963l0.899 1.8h3.299l-2.277-1.32v0.053l-5.893-11.983z"></path>
</svg>
