<!-- Generated by IcoMoon.io -->
<svg version="1.1" xmlns="http://www.w3.org/2000/svg" width="32" height="32" viewBox="0 0 32 32">
<title>aventrix</title>
<path fill="#09d" d="M16 32c-8.837 0-16-7.163-16-16s7.163-16 16-16 16 7.163 16 16-7.163 16-16 16zM23.161 21.149c-0.307 0.215-0.859 0.429-1.441 0.429-0.613 0-1.073-0.245-1.073-1.135v-6.681c0-4.199-1.871-5.761-5.519-5.761-2.023 0-3.833 0.489-4.875 1.103-0.429 0.705-0.521 1.9-0.307 2.667 1.334-0.836 2.953-1.337 4.687-1.349l0.003-0c2.391 0 3.373 1.073 3.373 3.617v0.797c-0.889-0.367-2.055-0.489-3.065-0.489-3.465 0-6.132 1.471-6.132 5.057 0 3.341 2.299 4.597 4.936 4.597 2.024 0 3.433-0.644 4.323-1.809h0.123c0.245 1.135 1.043 1.809 2.421 1.809h0.012c0.743 0 1.436-0.205 2.029-0.561l-0.017 0.009c0.399-0.552 0.583-1.501 0.521-2.3zM14.423 21.577c-1.655 0-2.943-0.705-2.943-2.299 0-1.625 1.319-2.759 3.863-2.759 0.014-0 0.031-0 0.048-0 0.939 0 1.84 0.169 2.672 0.477l-0.053-0.017v3.004c-0.797 1.165-2.269 1.593-3.587 1.593z"></path>
</svg>
