<!-- Generated by IcoMoon.io -->
<svg version="1.1" xmlns="http://www.w3.org/2000/svg" width="32" height="32" viewBox="0 0 32 32">
<title>baidu</title>
<path fill="#2319dc" d="M5.749 16.867c3.48-0.749 3-4.912 2.901-5.821-0.171-1.4-1.821-3.851-4.059-3.653-2.813 0.248-3.224 4.32-3.224 4.32-0.383 1.88 0.909 5.901 4.381 5.153zM12.209 9.879c1.92 0 3.472-2.213 3.472-4.947 0-2.72-1.547-4.933-3.467-4.933s-3.481 2.201-3.481 4.935 1.56 4.947 3.48 4.947zM20.489 10.207c2.573 0.347 4.216-2.4 4.549-4.48 0.333-2.067-1.333-4.48-3.147-4.893-1.827-0.421-4.080 2.499-4.307 4.4-0.24 2.333 0.333 4.653 2.893 4.983zM30.667 13.712c0-0.995-0.817-3.991-3.88-3.991-3.060 0-3.48 2.827-3.48 4.827 0 1.907 0.157 4.56 3.98 4.48 3.807-0.093 3.391-4.32 3.391-5.32zM26.8 22.427c0 0-3.98-3.080-6.301-6.4-3.147-4.903-7.62-2.907-9.112-0.421-1.493 2.511-3.813 4.083-4.14 4.503-0.333 0.413-4.8 2.827-3.805 7.227 1 4.4 4.48 4.32 4.48 4.32s2.56 0.253 5.547-0.413 5.547 0.16 5.547 0.16 6.943 2.333 8.864-2.147c1.899-4.493-1.080-6.813-1.080-6.813z"></path>
</svg>
