<!-- Generated by IcoMoon.io -->
<svg version="1.1" xmlns="http://www.w3.org/2000/svg" width="32" height="32" viewBox="0 0 32 32">
<title>bamboo</title>
<path fill="#0052cc" d="M28.953 18.191h-6.652c-0.004-0-0.010-0-0.015-0-0.434 0-0.794 0.319-0.858 0.735l-0.001 0.005c-0.393 2.672-2.667 4.701-5.415 4.708h-0.001l1.8 8.229c6.496-0.87 11.523-6.144 12.007-12.681l0.003-0.046c0.003-0.025 0.004-0.054 0.004-0.083 0-0.479-0.389-0.868-0.868-0.868-0.001 0-0.003 0-0.004 0h0zM17.443 17.98l9.6-8.228c0.186-0.159 0.304-0.394 0.304-0.656s-0.117-0.497-0.303-0.655l-0.001-0.001-9.601-8.227c-0.151-0.132-0.349-0.212-0.567-0.212-0.474 0-0.859 0.382-0.864 0.855v16.458c0 0.002-0 0.004-0 0.006 0 0.479 0.389 0.868 0.868 0.868 0.216 0 0.413-0.079 0.565-0.209l-0.001 0.001zM2.303 19.987c0.936 6.814 6.717 12.007 13.713 12.013h0.001v-8.36c-0.003 0-0.006 0-0.009 0-3.011 0-5.453-2.439-5.457-5.449v-0zM2.175 18.057v0.133h8.373c0.005-3.011 2.446-5.449 5.457-5.449 0.002 0 0.005 0 0.007 0h-0l-1.797-8.227c-6.772 0.907-11.953 6.607-12.040 13.534l-0 0.009z"></path>
</svg>
