<!-- Generated by IcoMoon.io -->
<svg version="1.1" xmlns="http://www.w3.org/2000/svg" width="32" height="32" viewBox="0 0 32 32">
<title>bancontact</title>
<path fill="#005498" d="M28.513 13.024h-9.432l-5.724 6.696h-11.281l3.044-3.587h-3.624c-0.823 0-1.496 0.688-1.496 1.533v3.237c0 0.844 0.673 1.533 1.496 1.533h17.244c0.823 0 1.947-0.512 2.499-1.139l7.233-8.228zM27.016 14.729l-1.001 1.14zM30.504 9.563h-17.195c-0.823 0-1.949 0.512-2.501 1.137l-7.32 8.277h9.396l5.824-6.693h11.232l-3.017 3.585h3.581c0.823 0 1.496-0.691 1.496-1.535v-3.237c0-0.844-0.673-1.533-1.496-1.535zM28.011 13.595l-0.632 0.721z"></path>
</svg>
