<!-- Generated by IcoMoon.io -->
<svg version="1.1" xmlns="http://www.w3.org/2000/svg" width="32" height="32" viewBox="0 0 32 32">
<title>bandlab</title>
<path fill="#dc3710" d="M16 0c-8.836 0-16 7.164-16 16s7.164 16 16 16 16-7.164 16-16-7.164-16-16-16zM16.5 3.5c0.667 0 0.667 1 0 1s-0.667-1 0-1zM15 5.5c0 1.333-2 1.333-2 0s2-1.333 2 0zM23.656 23.407c-0.521 0.735-1.096 1.093-2.276 1.093h-10.76c-1.175 0-1.755-0.36-2.276-1.091-0.708-1.008-0.109-2.099-0.109-2.099l4.745-9.224c0 0 0.205-0.612-0.099-0.94-0.301-0.316-1.261-1.376-1.337-1.457-0.104-0.129-0.137-0.229-0.148-0.329-0.016-0.089-0.091-1.131-0.091-1.251s-0.024-0.235 0.184-0.451c0.167-0.159 0.531-0.159 0.531-0.159h7.973c0 0 0.364-0.005 0.531 0.159 0.208 0.216 0.184 0.331 0.184 0.451-0.023 0.42-0.052 0.839-0.091 1.255-0.011 0.096-0.040 0.201-0.155 0.325l-1.351 1.456c-0.035 0.035-0.060 0.079-0.084 0.12h-4.872c-0.115 0-0.18 0.011-0.263 0.099-0.125 0.145-0.041 0.311-0.041 0.311l3.421 6.669c0.183 0.383-0.093 0.823-0.516 0.825-1.636 0-2.58 0.851-2.58 1.885 0 1.039 1.168 1.885 2.609 1.885 1.435 0 2.596-0.836 2.612-1.869 0 0 0.029-0.345-0.145-0.776l-3.451-6.708c0 0-0.065-0.177 0.044-0.331 0.112-0.156 0.292-0.164 0.292-0.164h3.36l4.265 8.219c0.001 0 0.6 1.091-0.108 2.096z"></path>
</svg>
