<!-- Generated by IcoMoon.io -->
<svg version="1.1" xmlns="http://www.w3.org/2000/svg" width="32" height="32" viewBox="0 0 32 32">
<title>basecamp</title>
<path fill="#5ecc62" d="M16 2.667c-8.613 0-15.36 10.96-16 20.213 2.704 4.693 9.22 6.453 16 6.453s13.3-1.76 16-6.453c-0.64-9.256-7.387-20.213-16-20.213zM16.2 27.2c-12.72 0-13.941-5.379-13.941-5.379l0.24-1.301c0 0 3.501-7.56 5.701-7.56s3.12 3.12 4.92 3.12 5.699-6.92 7.099-6.92c1.396 0 3.76 2.6 5.693 5 1.933 2.403 3.837 6.516 3.837 6.516l-0.011 0.045 0.2 1.181c0 0-1.021 5.297-13.739 5.297z"></path>
</svg>
