<!-- Generated by IcoMoon.io -->
<svg version="1.1" xmlns="http://www.w3.org/2000/svg" width="32" height="32" viewBox="0 0 32 32">
<title>bathasu</title>
<path fill="#00a3e0" d="M27.979 29.687c-0.44 0-0.872-0.117-1.257-0.341-1.2-0.693-1.613-2.227-0.92-3.427 2.547-4.4 1.027-10.053-3.387-12.597-1.4-0.805-2.973-1.227-4.6-1.227-0.44 0-0.88-0.12-1.256-0.344-1.2-0.689-1.623-2.224-0.92-3.421 0.44-0.767 1.263-1.24 2.163-1.247 2.485 0 4.951 0.653 7.115 1.903 3.28 1.901 5.627 4.971 6.609 8.64 0.98 3.667 0.48 7.493-1.421 10.8-0.44 0.76-1.28 1.24-2.163 1.24zM12.675 31.433c-5.080 0-9.807-2.728-12.341-7.117-0.691-1.192-0.276-2.725 0.92-3.413 1.164-0.672 2.757-0.235 3.42 0.915 1.643 2.847 4.704 4.609 7.993 4.609 1.603 0 3.196-0.427 4.597-1.235 1.383-0.821 2.544-1.983 3.365-3.387 0.221-0.38 0.523-0.7 0.92-0.92 1.143-0.68 2.747-0.24 3.407 0.901 0.443 0.76 0.443 1.724-0.020 2.504-1.243 2.163-3.045 3.947-5.208 5.209-2.164 1.243-4.627 1.904-7.113 1.904zM13.669 9.251c-1.489 1.379-2.421 3.349-2.421 5.54 0 1.373 0.371 2.657 1.013 3.769 0.363 0.621 0.563 1.32 0.563 2.084 0 1.663-0.981 3.107-2.387 3.767 1.947 0.6 4.107 0.42 6.013-0.683 1.2-0.7 2.124-1.663 2.764-2.763 0.36-0.623 0.893-1.163 1.547-1.525 1.44-0.84 3.187-0.699 4.467 0.181-0.44-1.983-1.68-3.787-3.587-4.867-1.173-0.68-2.48-1.003-3.76-1.003-0.72 0-1.44-0.2-2.080-0.56-1.44-0.84-2.203-2.404-2.063-3.967zM8.643 23.155c-0.885 0-1.715-0.48-2.164-1.253-1.253-2.16-1.907-4.62-1.907-7.112 0.001-7.843 6.375-14.224 14.228-14.224 1.373 0 2.496 1.123 2.496 2.507 0 1.38-1.123 2.501-2.507 2.501-5.083 0-9.213 4.136-9.213 9.216 0 1.613 0.424 3.205 1.235 4.607 0.22 0.373 0.333 0.808 0.333 1.251 0 1.381-1.12 2.504-2.507 2.504z"></path>
</svg>
