<!-- Generated by IcoMoon.io -->
<svg version="1.1" xmlns="http://www.w3.org/2000/svg" width="32" height="32" viewBox="0 0 32 32">
<title>beats</title>
<path fill="#005571" d="M28.733 22.36c0 0.008 0 0.017 0 0.027 0 5.258-4.262 9.52-9.52 9.52-0.009 0-0.019 0-0.028-0h-15.919v-9.547h11.147c4.906-0.018 9.161-2.79 11.3-6.85l0.034-0.070c1.84 1.729 2.987 4.178 2.987 6.896 0 0.009 0 0.017-0 0.026v-0.001zM23.080 13.653c0.552-1.178 0.876-2.557 0.88-4.012v-0.002c0-0.008 0-0.017 0-0.027 0-5.258-4.262-9.52-9.52-9.52-0.014 0-0.028 0-0.042 0h-11.118v19.093h11.133c3.867 0 7.16-2.267 8.667-5.533z"></path>
</svg>
