<!-- Generated by IcoMoon.io -->
<svg version="1.1" xmlns="http://www.w3.org/2000/svg" width="32" height="32" viewBox="0 0 32 32">
<title>beatsbydre</title>
<path fill="#e01f3d" d="M16.013 0c-1.714 0-3.365 0.27-4.913 0.768l0.113-0.032v8.862c1.32-0.999 2.99-1.6 4.799-1.6 4.418 0 8 3.582 8 8s-3.582 8-8 8c-4.418 0-8-3.581-8-7.999v-13.865c-4.824 2.816-8.014 7.968-8.014 13.865 0 8.837 7.163 16 16 16s16-7.163 16-16c0-8.832-7.155-15.992-15.985-16h-0.001zM16.214 11.203c-0.060-0.003-0.13-0.004-0.2-0.004-2.651 0-4.8 2.149-4.8 4.8 0 0 0 0.001 0 0.001v-0c0 2.651 2.149 4.799 4.799 4.799h0c0.005 0 0.010 0 0.015 0 2.651 0 4.8-2.149 4.8-4.8 0-2.586-2.045-4.694-4.605-4.796l-0.009-0z"></path>
</svg>
