<!-- Generated by IcoMoon.io -->
<svg version="1.1" xmlns="http://www.w3.org/2000/svg" width="32" height="32" viewBox="0 0 32 32">
<title>bit</title>
<path fill="#73398d" d="M16 32c-8.836 0-16-7.164-16-16s7.164-16 16-16 16 7.164 16 16-7.164 16-16 16zM14.475 17.427c0-1.723-1.017-2.692-2.477-2.692-0.455 0-0.849 0.096-1.149 0.299v-2.297c0-0.431-0.263-0.647-0.801-0.647s-0.801 0.216-0.801 0.647v6.044c0 0.407 0 0.801 0.551 1.113 0.479 0.275 1.101 0.407 1.771 0.407 1.867 0 2.908-1.125 2.908-2.873zM10.848 18.827v-2.561c0.202-0.15 0.456-0.24 0.73-0.24 0.008 0 0.016 0 0.024 0l-0.001-0c0.741 0 1.232 0.551 1.232 1.508 0 0.945-0.479 1.472-1.256 1.472-0.275 0-0.527-0.060-0.729-0.179zM17.472 13.155c0-0.551-0.395-0.921-0.945-0.921s-0.945 0.371-0.945 0.921 0.395 0.933 0.945 0.933 0.945-0.383 0.945-0.933zM17.328 15.38c0-0.431-0.263-0.647-0.801-0.647s-0.801 0.216-0.801 0.647v4.248c0 0.431 0.263 0.647 0.801 0.647s0.801-0.216 0.801-0.647zM22.181 18.839c-0.096 0-0.18 0.024-0.275 0.048-0.108 0.024-0.24 0.060-0.371 0.060-0.204 0-0.359-0.072-0.443-0.24-0.108-0.204-0.108-0.515-0.108-0.731v-1.795h1.005c0.431 0 0.647-0.216 0.647-0.671s-0.216-0.671-0.647-0.671h-1.005v-1.053c0-0.431-0.263-0.647-0.801-0.647s-0.801 0.216-0.801 0.647v1.053h-0.419c-0.431 0-0.647 0.216-0.647 0.671s0.216 0.671 0.647 0.671h0.419v1.795c0 0.551 0.024 1.065 0.263 1.496 0.263 0.479 0.777 0.825 1.64 0.825 0.467 0 0.921-0.108 1.185-0.263 0.228-0.132 0.287-0.299 0.287-0.467 0-0.263-0.132-0.731-0.576-0.729z"></path>
</svg>
