<!-- Generated by IcoMoon.io -->
<svg version="1.1" xmlns="http://www.w3.org/2000/svg" width="32" height="32" viewBox="0 0 32 32">
<title>bitdefender</title>
<path fill="#ed1c24" d="M2.247 0v0.476l1.643 1.395c1.969 1.605 2.227 1.919 2.227 3.368v26.761h11.528c6.049 0 12.111-2.172 12.111-9.132 0-4.109-2.899-7.277-6.915-7.729v-0.089c3.3-0.993 5.559-3.387 5.559-7.004 0-5.829-4.973-8.043-9.799-8.043zM11.815 4.885h4.699c3.177 0 4.161 0.436 5.125 1.351 0.731 0.695 1.065 1.649 1.068 2.76 0 1.033-0.356 1.955-1.108 2.672-0.94 0.901-2.232 1.348-4.591 1.348h-5.192zM11.815 17.896h5.465c4.608 0 6.78 1.175 6.78 4.52 0 4.204-4.073 4.701-7.008 4.701h-5.239z"></path>
</svg>
