<!-- Generated by IcoMoon.io -->
<svg version="1.1" xmlns="http://www.w3.org/2000/svg" width="32" height="32" viewBox="0 0 32 32">
<title>bitly</title>
<path fill="#ee6123" d="M17.407 28.347c-1.793 0.029-3.1-0.547-3.181-2.113-0.033-0.587-0.024-1.213 0.003-1.589 0.183-2.288 1.777-3.933 3.373-4.253 1.976-0.392 3.273 0.507 3.273 3.080 0 1.737-0.48 4.824-3.453 4.876zM15.897 0c-8.804 0-15.897 7.063-15.897 16.299 0 4.792 2.56 9.416 6.164 12.196 0.693 0.533 1.517 0.489 1.996 0.027 0.396-0.38 0.363-1.312-0.38-1.967-2.88-2.515-4.869-6.347-4.869-10.18 0-6.867 6.107-12.653 12.987-12.653 8.373 0 12.848 6.803 12.848 12.573 0 3.533-1.72 7.787-4.835 10.499 0.020 0 0.657-1.256 0.657-3.712 0-4.173-2.635-6.448-5.707-6.448-2.217 0-3.556 0.797-4.453 1.536 0-1.696 0.060-4.869 0.060-4.869 0-2.096-0.72-3.773-3.293-3.813-1.48-0.020-2.576 0.657-3.253 2.196-0.24 0.581-0.16 1.221 0.339 1.5 0.4 0.24 1.080 0.061 1.395-0.379 0.22-0.28 0.339-0.339 0.539-0.32 0.32 0.040 0.343 0.54 0.343 0.88 0.019 0.257 0.257 3.871 0.117 13.153-0.013 2.547 2.004 5.483 6.813 5.483 2.080 0 3.675-0.58 5.991-1.896 3.533-1.997 8.543-6.427 8.543-13.933-0.063-9.444-7.647-16.171-16.089-16.171z"></path>
</svg>
