<!-- Generated by IcoMoon.io -->
<svg version="1.1" xmlns="http://www.w3.org/2000/svg" width="32" height="32" viewBox="0 0 32 32">
<title>blackberry</title>
<path d="M2.733 4.72l-1.173 5.547h4.373c3.36 0 4.373-1.64 4.373-3.12 0-1.093-0.627-2.427-3.36-2.427h-4.213zM14.053 4.72l-1.173 5.547h4.373c3.413 0 4.373-1.64 4.373-3.12 0-1.093-0.627-2.427-3.36-2.427h-4.213zM24.427 9.64l-1.24 5.547h4.373c3.427 0 4.44-1.56 4.44-3.12 0-1.093-0.627-2.427-3.333-2.427h-4.24zM1.173 13.067l-1.173 5.547h4.373c3.427 0 4.373-1.64 4.373-3.12 0-1.093-0.627-2.427-3.36-2.427h-4.213zM12.573 13.067l-1.24 5.547h4.36c3.427 0 4.453-1.64 4.453-3.12 0-1.093-0.627-2.427-3.36-2.427h-4.227zM22.787 18.307l-1.16 5.533h4.373c3.333 0 4.36-1.56 4.36-3.12 0-1.093-0.627-2.413-3.347-2.413h-4.227zM10.933 21.733l-1.173 5.547h4.373c3.347 0 4.36-1.64 4.36-3.12 0-1.093-0.613-2.427-3.347-2.427z"></path>
</svg>
