<!-- Generated by IcoMoon.io -->
<svg version="1.1" xmlns="http://www.w3.org/2000/svg" width="32" height="32" viewBox="0 0 32 32">
<title>blender</title>
<path fill="#f5792a" d="M16.68 17.619c0.061-1.067 0.584-2.008 1.373-2.675 0.785-0.655 1.804-1.053 2.917-1.053 0.011 0 0.023 0 0.034 0h-0.002c1.133 0 2.175 0.4 2.948 1.053 0.789 0.667 1.311 1.608 1.371 2.673 0.060 1.097-0.38 2.115-1.153 2.871-0.81 0.774-1.91 1.251-3.121 1.251-0.016 0-0.031-0-0.047-0l0.002 0c-0.013 0-0.029 0-0.045 0-1.212 0-2.313-0.477-3.125-1.253l0.002 0.002c-0.773-0.756-1.213-1.773-1.153-2.869zM9.8 19.775c0.008 0.419 0.141 1.229 0.341 1.864 0.46 1.427 1.187 2.656 2.13 3.683l-0.006-0.007c1.020 1.118 2.257 2.020 3.646 2.64l0.070 0.028c1.416 0.64 3.070 1.014 4.812 1.014 0.024 0 0.048-0 0.072-0l-0.004 0c0.007 0 0.015 0 0.024 0 1.757 0 3.425-0.379 4.928-1.060l-0.075 0.030c1.458-0.654 2.694-1.559 3.705-2.671l0.008-0.009c0.935-1.023 1.662-2.253 2.103-3.613l0.020-0.070c0.271-0.832 0.427-1.789 0.427-2.783 0-0.464-0.034-0.92-0.1-1.366l0.006 0.051c-0.203-1.394-0.681-2.646-1.378-3.744l0.023 0.039c-0.672-1.066-1.492-1.967-2.446-2.706l-0.024-0.018h0.003l-10.024-7.696c-0.656-0.504-1.759-0.501-2.48 0.003-0.729 0.509-0.812 1.353-0.164 1.887l-0.001 0.001 4.168 3.391-12.724 0.013c-1.051 0.001-2.060 0.691-2.26 1.563-0.205 0.887 0.507 1.623 1.6 1.627v0.003l6.44-0.013-11.539 8.856c-1.084 0.829-1.433 2.211-0.751 3.084 0.693 0.889 2.167 0.891 3.263 0.005l6.272-5.132c0 0-0.092 0.693-0.085 1.108zM25.92 22.096c-1.293 1.317-3.101 2.064-5.060 2.067-1.96 0.005-3.769-0.736-5.063-2.051-0.595-0.597-1.065-1.318-1.368-2.121l-0.014-0.041c-0.213-0.574-0.336-1.238-0.336-1.93 0-1.013 0.264-1.965 0.727-2.79l-0.015 0.029c0.404-0.718 0.918-1.324 1.526-1.819l0.012-0.009c1.256-1.024 2.855-1.577 4.528-1.58 1.675-0.003 3.273 0.547 4.531 1.567 0.64 0.521 1.16 1.139 1.536 1.823 0.372 0.657 0.62 1.429 0.694 2.253l0.002 0.022c0.013 0.146 0.021 0.315 0.021 0.486 0 0.692-0.125 1.355-0.352 1.968l0.013-0.039c-0.317 0.846-0.786 1.569-1.38 2.168l0-0z"></path>
</svg>
