<!-- Generated by IcoMoon.io -->
<svg version="1.1" xmlns="http://www.w3.org/2000/svg" width="32" height="32" viewBox="0 0 32 32">
<title>blogger</title>
<path fill="#ff5722" d="M29.301 32h-26.6c-1.501 0-2.701-1.2-2.701-2.699v-26.6c0-1.501 1.2-2.701 2.7-2.701h26.7c1.4 0 2.6 1.2 2.6 2.7v26.6c0 1.5-1.2 2.7-2.699 2.7zM16 5.3h-4c-3.7 0-6.7 3-6.7 6.7v8c0 3.699 3 6.699 6.7 6.699h8c3.699 0 6.699-3 6.699-6.699v-5.3c0-0.8-0.6-1.4-1.4-1.4h-1.299c-0.699 0-1.301-0.6-1.301-1.301 0-3.701-3-6.701-6.699-6.699zM20.099 21.3h-8.099c-0.7 0-1.3-0.6-1.3-1.3s0.6-1.301 1.3-1.301h8.099c0.701 0 1.303 0.6 1.303 1.301s-0.6 1.301-1.303 1.3zM16.699 10.7c0.703 0 1.301 0.6 1.301 1.3s-0.6 1.3-1.3 1.3h-4.8c-0.7 0-1.301-0.6-1.301-1.3s0.6-1.3 1.3-1.3z"></path>
</svg>
