<!-- Generated by IcoMoon.io -->
<svg version="1.1" xmlns="http://www.w3.org/2000/svg" width="32" height="32" viewBox="0 0 32 32">
<title>bmcsoftware</title>
<path fill="#fe5000" d="M8.519 31.96c-1.264 0-2.595-0.996-2.595-2.925v-4.523c0-1.795 1.131-3.856 2.727-4.72l6.319-3.725-6.319-3.724c-1.529-0.999-2.727-2.993-2.727-4.789v-4.588c0-1.929 1.331-2.927 2.663-2.927 0.532 0 1.129 0.133 1.661 0.467l14.232 8.444c0.997 0.599 1.529 1.529 1.529 2.46 0 0.999-0.6 1.929-1.529 2.461l-3.392 1.996 3.392 1.996c0.997 0.599 1.596 1.529 1.596 2.46 0 0.997-0.6 1.929-1.596 2.461l-14.233 8.712c-0.597 0.333-1.129 0.465-1.728 0.464zM18.028 17.863l-7.781 4.588c-0.597 0.333-1.196 1.397-1.196 2.061v4.057l13.5-7.98zM9.051 3.497v4.056c0 0.667 0.599 1.729 1.196 2.063l7.781 4.588 4.589-2.727z"></path>
</svg>
