<!-- Generated by IcoMoon.io -->
<svg version="1.1" xmlns="http://www.w3.org/2000/svg" width="32" height="32" viewBox="0 0 32 32">
<title>boeing</title>
<path fill="#1d439c" d="M9.207 23.137c-0.004 0-0.009 0-0.014 0-1.895 0-3.638-0.653-5.015-1.747l0.017 0.013c1.605-3.62 4.872-8.477 9.329-13.221 2.291 1.456 3.788 3.98 3.788 6.853 0 1.253-0.285 2.44-0.793 3.499l0.021-0.049c-1.413-0.653-2.733-1.473-3.851-2.507l2.441 4.584c-1.479 1.586-3.58 2.575-5.913 2.575-0.004 0-0.008 0-0.012 0h0.001zM1.107 15.037c0-0.001 0-0.002 0-0.003 0-4.473 3.627-8.1 8.1-8.1 0 0 0.001 0 0.001 0h-0c1.2 0 2.336 0.261 3.363 0.728-4.391 3.88-7.791 8.391-9.803 12.289-1.037-1.343-1.661-3.051-1.661-4.904 0-0.004 0-0.008 0-0.011v0.001zM17.56 18.92c0.54-1.133 0.856-2.461 0.856-3.864 0-0.007 0-0.013-0-0.020v0.001c0-3.2-1.633-6.020-4.113-7.671 1.499-1.543 3.057-2.998 4.682-4.377l0.096-0.079c-2.12 1.262-3.95 2.572-5.662 4.017l0.062-0.051c-1.237-0.66-2.706-1.047-4.266-1.047-5.086 0-9.209 4.123-9.209 9.209 0 2.3 0.843 4.403 2.237 6.017l-0.010-0.012c-1.765 3.817-2.072 6.881-0.517 7.916 1.664 1.109 5.283-0.903 7.453-4.179 0 0-3.357 3.031-5.203 2.335-1.135-0.429-1.139-2.165-0.203-4.656 1.5 1.114 3.388 1.784 5.432 1.784 0.005 0 0.009 0 0.014 0h-0.001c2.524 0 4.808-1.013 6.471-2.656l0.327 0.616c4.012-0.327 15.995-0.644 15.995-0.644 0-0.575-7.933-0.053-14.443-2.64z"></path>
</svg>
