<!-- Generated by IcoMoon.io -->
<svg version="1.1" xmlns="http://www.w3.org/2000/svg" width="32" height="32" viewBox="0 0 32 32">
<title>boost</title>
<path fill="#f69220" d="M21.091 24.209c0.077-0.060 0.149-0.132 0.217-0.2 0.528-0.546 0.854-1.291 0.854-2.113s-0.326-1.566-0.855-2.114l0.001 0.001-10.403-10.667c-0.072 0.067-0.145 0.132-0.213 0.203-0.529 0.546-0.856 1.292-0.856 2.113s0.326 1.567 0.857 2.114l-0.001-0.001zM28.727 9.011c0.833 0.171 1.551 0.584 2.096 1.162l0.002 0.002c1.568 1.653 1.568 4.333 0 5.987l-7.409 7.796c-0.447 0.46-1.047 0.77-1.717 0.848l-0.013 0.001 4.405 4.527-22.813-5.011c-0.832-0.177-1.548-0.591-2.094-1.169l-0.002-0.002c-1.573-1.649-1.573-4.331 0-5.992l7.403-7.784c0.447-0.466 1.050-0.779 1.724-0.856l0.013-0.001-4.408-4.519z"></path>
</svg>
