<!-- Generated by IcoMoon.io -->
<svg version="1.1" xmlns="http://www.w3.org/2000/svg" width="32" height="32" viewBox="0 0 32 32">
<title>brandfolder</title>
<path fill="#40d1f5" d="M0 31.055h26.135v-3.971h-22.161v-22.165h22.168v14.548h-1.896l3.877 3.879 3.877-3.88h-1.889v-18.52h-30.111zM21.531 17.808c-0.255-0.541-0.576-0.985-0.96-1.329-0.383-0.344-0.799-0.605-1.244-0.777-0.449-0.176-0.855-0.289-1.221-0.339 0.335-0.045 0.661-0.179 0.98-0.395 0.321-0.215 0.607-0.485 0.863-0.812 0.256-0.329 0.46-0.713 0.611-1.151 0.153-0.44 0.228-0.915 0.228-1.425 0-0.864-0.168-1.581-0.503-2.156-0.336-0.576-0.796-1.033-1.377-1.377s-1.264-0.587-2.048-0.729c-0.781-0.144-1.613-0.216-2.491-0.216-1.005 0-1.843 0.024-2.516 0.072-0.669 0.049-1.26 0.111-1.772 0.193v17.244c0.912 0.111 1.724 0.188 2.445 0.228 0.719 0.040 1.443 0.059 2.179 0.059 0.957 0 1.872-0.072 2.743-0.216 0.869-0.143 1.636-0.405 2.297-0.789 0.665-0.384 1.191-0.907 1.583-1.569 0.392-0.664 0.588-1.513 0.588-2.552 0-0.767-0.128-1.42-0.384-1.963zM13.553 9.761c1.213-0.148 2.497-0.072 3.068 0.405 0.507 0.423 0.809 0.799 0.809 1.893 0 1.001-0.476 1.593-0.811 1.808s-0.787 0.491-1.871 0.491-1.196 0-1.196 0zM17.592 21.335c-0.599 0.52-1.485 0.736-2.421 0.736-1.053 0-1.617-0.096-1.617-0.096v-4.983h1.509c0.948 0 1.917 0.168 2.443 0.619 0.679 0.583 0.815 1.193 0.815 2.007 0.001 0.812-0.283 1.331-0.728 1.717z"></path>
</svg>
