<!-- Generated by IcoMoon.io -->
<svg version="1.1" xmlns="http://www.w3.org/2000/svg" width="32" height="32" viewBox="0 0 32 32">
<title>brand-dot-ai</title>
<path fill="#0aa0ff" d="M31.944 15.013c-0.504-8.341-7.405-14.953-15.861-15.005h-0.189c-2.987 0.021-5.781 0.853-8.167 2.299-2.203 1.331-4.057 3.179-5.397 5.377-1.316 2.153-2.129 4.649-2.299 7.32-0.020 0.329-0.031 0.659-0.031 0.996 0 0.333 0.013 0.667 0.033 0.995 0.164 2.671 0.979 5.164 2.297 7.32 1.333 2.197 3.179 4.040 5.365 5.377 2.397 1.432 5.196 2.273 8.173 2.293h0.24c8.457-0.057 15.331-6.653 15.853-14.987 0.019-0.32 0.040-0.661 0.040-0.98s0-0.66-0.021-0.979zM16.003 20.853v5.107c0.128 3.12-0.76 3.64-1.827 3.688-0.045 0-0.088 0.004-0.133 0.005-6.075-0.86-10.877-5.676-11.712-11.764-0.088-0.619-0.133-1.251-0.133-1.893 0-0.64 0.045-1.271 0.133-1.891 0.833-6.080 5.624-10.893 11.693-11.76l0.153 0.013c1.067 0.057 1.953 0.573 1.827 3.685v5.104c-0.013 2.097 1.193 4.096 2.476 4.853-1.283 0.747-2.491 2.5-2.477 4.852z"></path>
</svg>
