<!-- Generated by IcoMoon.io -->
<svg version="1.1" xmlns="http://www.w3.org/2000/svg" width="32" height="32" viewBox="0 0 32 32">
<title>brave</title>
<path fill="#fb542b" d="M28.824 8.037l0.831 2.381c0.023 0.065 0.036 0.139 0.036 0.217 0 0.060-0.008 0.118-0.023 0.173l0.001-0.005-0.033 0.129-0.096 0.365-0.343 1.305-1.041 3.963c-0.817 3.116-1.353 5.168-1.483 5.679-0.703 2.783-1.26 3.749-3.061 5.021-1.579 1.115-4.871 3.352-5.504 3.748-0.097 0.061-0.167 0.108-0.237 0.156l0.021-0.014-0.249 0.171c-0.22 0.158-0.47 0.309-0.732 0.439l-0.032 0.014c-0.3 0.14-0.587 0.219-0.879 0.219s-0.579-0.079-0.879-0.219c-0.294-0.144-0.544-0.295-0.78-0.464l0.016 0.011-0.249-0.171c-0.038-0.027-0.109-0.075-0.18-0.121l-0.036-0.022c-0.633-0.397-3.925-2.633-5.504-3.748-1.801-1.272-2.359-2.239-3.061-5.021-0.129-0.511-0.665-2.563-1.476-5.656l-1.485-5.657-0.033-0.129c-0.014-0.051-0.022-0.109-0.022-0.168 0-0.078 0.013-0.152 0.038-0.222l-0.001 0.005 0.831-2.381-0.623-1.536c-0.031-0.073-0.048-0.159-0.048-0.248 0-0.174 0.067-0.332 0.177-0.45l-0 0 0.163-0.173c0.129-0.137 0.276-0.293 0.439-0.463 0.461-0.484 0.947-0.984 1.436-1.473 0.468-0.469 1.097-0.723 1.832-0.809 0.191-0.021 0.411-0.033 0.635-0.033 0.43 0 0.85 0.045 1.255 0.13l-0.040-0.007 2.415-2.751c0.121-0.138 0.297-0.224 0.493-0.224 0 0 0 0 0 0h9.384c0.189 0 0.368 0.081 0.493 0.224l2.415 2.751c0.365-0.078 0.785-0.123 1.215-0.123 0.224 0 0.445 0.012 0.662 0.036l-0.027-0.002c0.736 0.087 1.364 0.339 1.832 0.809 0.653 0.657 1.303 1.33 1.944 2.011l0.050 0.053c0.217 0.233 0.267 0.505 0.171 0.743zM27.501 8.236c-0.023-0.065-0.037-0.139-0.037-0.217 0-0.090 0.018-0.175 0.050-0.253l-0.002 0.004 0.557-1.375-0.301-0.317c-0.49-0.514-0.952-0.987-1.418-1.456l0.002 0.002c-0.232-0.232-0.589-0.376-1.055-0.431-0.143-0.015-0.308-0.023-0.476-0.023-0.319 0-0.631 0.031-0.932 0.090l0.031-0.005c-0.107 0.019-0.204 0.039-0.288 0.059l-0.092 0.023c-0.053 0.015-0.114 0.024-0.177 0.024-0.196 0-0.372-0.087-0.492-0.224l-0.001-0.001-2.476-2.82h-8.791l-2.476 2.82c-0.121 0.137-0.298 0.224-0.495 0.224-0.062 0-0.122-0.009-0.179-0.025l0.005 0.001c-0.090-0.025-0.219-0.053-0.349-0.077l-0.031-0.005c-0.272-0.054-0.584-0.084-0.904-0.084-0.167 0-0.332 0.008-0.494 0.025l0.020-0.002c-0.465 0.055-0.824 0.199-1.055 0.431-0.564 0.566-1.123 1.143-1.676 1.727l-0.041 0.044 0.557 1.375c0.030 0.074 0.048 0.159 0.048 0.249 0 0.078-0.013 0.152-0.038 0.221l0.001-0.005-0.845 2.427 0.079 0.3 0.343 1.305 1.041 3.964c-1.378-6.306-0.867-4.4-0.36-2.491l1.846 8.182c0.632 2.504 1.035 3.201 2.544 4.268 1.56 1.103 4.836 3.327 5.444 3.709 0.076 0.048 0.156 0.1 0.256 0.169l0.249 0.171c0.255 0.172 0.424 0.276 0.581 0.349 0.14 0.065 0.249 0.095 0.324 0.095s0.183-0.029 0.324-0.095c0.157-0.073 0.328-0.177 0.581-0.349l0.249-0.171c0.101-0.068 0.18-0.121 0.256-0.169 0.608-0.381 3.884-2.607 5.444-3.709 1.509-1.067 1.912-1.764 2.544-4.268 0.131-0.517 0.665-2.567 1.48-5.668l1.468-5.592zM22.615 5.632c0 0 3.437 4.171 3.437 5.061s-0.432 1.127-0.867 1.589l-2.577 2.747c-0.244 0.26-0.751 0.653-0.453 1.363s0.739 1.612 0.249 2.527-1.329 1.527-1.867 1.425-1.8-0.764-2.264-1.065-1.936-1.521-1.936-1.987c0-0.467 1.521-1.303 1.803-1.493s1.563-0.927 1.589-1.215c0.027-0.289 0.016-0.373-0.363-1.088s-1.060-1.667-0.947-2.3 1.212-0.963 1.996-1.26 2.293-0.859 2.483-0.945c0.188-0.088 0.14-0.171-0.432-0.225s-2.192-0.271-2.923-0.065-1.98 0.516-2.080 0.68c-0.101 0.165-0.191 0.171-0.087 0.74s0.639 3.3 0.691 3.785 0.153 0.805-0.368 0.925-1.399 0.327-1.7 0.327-1.179-0.208-1.7-0.327c-0.521-0.12-0.42-0.44-0.368-0.925s0.587-3.216 0.691-3.785 0.015-0.575-0.087-0.74-1.349-0.476-2.080-0.68-2.352 0.012-2.923 0.065c-0.571 0.055-0.62 0.137-0.432 0.225s1.699 0.648 2.483 0.945 1.883 0.627 1.996 1.26-0.568 1.587-0.947 2.3-0.388 0.799-0.363 1.088 1.308 1.025 1.589 1.215c0.281 0.191 1.803 1.027 1.803 1.493s-1.472 1.684-1.936 1.987-1.727 0.965-2.264 1.065c-0.537 0.101-1.377-0.509-1.867-1.425s-0.049-1.817 0.249-2.527-0.209-1.103-0.453-1.363l-2.577-2.747c-0.435-0.463-0.867-0.699-0.867-1.589s3.437-5.061 3.437-5.061 2.9 0.556 3.291 0.556 1.239-0.327 2.020-0.589 1.304-0.264 1.304-0.264 0.521 0.001 1.304 0.264 1.629 0.589 2.020 0.589 3.291-0.556 3.291-0.556zM20.039 21.584c0.213 0.133 0.083 0.385-0.111 0.523s-2.797 2.161-3.051 2.385-0.624 0.593-0.877 0.593-0.624-0.369-0.877-0.593-2.857-2.248-3.051-2.385-0.324-0.389-0.111-0.523 0.879-0.471 1.797-0.948 2.063-0.883 2.241-0.883 1.323 0.405 2.241 0.883 1.584 0.815 1.797 0.948z"></path>
</svg>
