<!-- Generated by IcoMoon.io -->
<svg version="1.1" xmlns="http://www.w3.org/2000/svg" width="32" height="32" viewBox="0 0 32 32">
<title>breaker</title>
<path fill="#003dad" d="M18.075 17.232c0.28 0 0.515 0.023 0.78 0.075 1.391 0.275 2.531 1.285 2.995 2.608 0.135 0.425 0.312 1.063 0.425 1.5l0.148 0.577 0.595-0.012c4.736-0.1 8.608-3.953 8.608-8.728 0.001-7.235-6.032-13.252-15.251-13.252-3.803 0.012-7.408 1.395-10.137 3.62-3.577 2.933-5.863 7.391-5.863 12.381 0.003 1.28 0.157 2.568 0.445 3.757 1.051 4.357 3.88 8.020 7.679 10.171 2.297 1.295 5.045 2.063 7.879 2.071 0.695 0 1.403-0.048 2.072-0.132 4.168-0.54 7.831-2.683 10.353-5.785l0.165-0.203-0.32-1.157-0.617 0.163c-1.915 0.508-3.877 0.771-5.951 0.768-1.657 0-3.237-0.171-4.797-0.5-1.405-0.283-2.548-1.305-2.997-2.64-0.145-0.42-0.211-0.811-0.208-1.277-0.015-1.043 0.343-1.9 0.988-2.633 0.732-0.841 1.809-1.371 3.009-1.371zM16.375 1.5c8.531 0 13.751 5.48 13.751 11.751 0 3.748-2.891 6.825-6.559 7.196-0.097-0.348-0.203-0.715-0.292-0.995-2.321-7.276-7.852-12.909-14.968-15.509 2.313-1.569 5.040-2.452 8.068-2.443zM1.873 16.001c0-4.377 1.94-8.303 5.008-10.964 5.836 1.871 10.619 5.863 13.411 11.161-0.363-0.16-0.745-0.283-1.145-0.363-1.625-0.337-3.348-0.525-5.076-0.525-4.32 0.008-8.46 1.145-12.001 3.1-0.131-0.781-0.196-1.577-0.196-2.409zM16.972 26.623c1.632 0.343 3.368 0.531 5.105 0.531 1.328 0 2.648-0.111 3.931-0.312-2.025 1.803-4.557 3.043-7.359 3.485-1.065-1.251-1.991-2.6-2.763-4.043 0.345 0.145 0.708 0.26 1.085 0.339zM16.86 30.495c-0.16 0.005-0.323 0.008-0.485 0.008-2.433 0.008-4.648-0.565-6.659-1.612 0.577-2.543 1.563-4.9 2.895-7.036 0.045 0.392 0.132 0.783 0.248 1.131 0.893 2.721 2.271 5.284 4.001 7.509zM13.937 17.609c-2.605 2.92-4.573 6.551-5.568 10.485-2.857-1.895-5.003-4.776-5.956-8.156 3.448-2.011 7.376-3.135 11.659-3.128 0.24 0 0.477 0.003 0.715 0.011-0.309 0.232-0.595 0.495-0.849 0.788z"></path>
</svg>
