<!-- Generated by IcoMoon.io -->
<svg version="1.1" xmlns="http://www.w3.org/2000/svg" width="32" height="32" viewBox="0 0 32 32">
<title>broadcom</title>
<path fill="#cc092f" d="M16 0c-8.84 0-16 7.16-16 16 0.007 1.727 0.286 3.386 0.798 4.94l-0.032-0.113c0.365-0.16 0.755-0.347 1.141-0.507 1.827-0.72 3.507-0.48 5.173 0.533 0 0 0.613 0.373 0.8 0.48 0.787 0.507 1.52 0.973 2.227 0.973 0.68 0 1.347-0.187 1.627-1.493 0.44-2.040 1.52-7.067 1.987-9.547 0.28-1.467 0.427-2.253 0.587-2.787 0.267-0.947 0.773-1.453 1.48-1.533 0 0 0.12-0.013 0.213-0.013s0.2 0.013 0.2 0.013c0.72 0.080 1.227 0.587 1.507 1.533 0.147 0.533 0.293 1.32 0.573 2.787 0.467 2.48 1.547 7.507 1.987 9.547 0.28 1.307 0.947 1.493 1.627 1.493 0.707 0 1.44-0.467 2.227-0.973 0.187-0.107 0.8-0.48 0.8-0.48 1.68-1.013 3.347-1.253 5.173-0.533 0.4 0.16 0.787 0.347 1.16 0.52 0.474-1.444 0.747-3.105 0.747-4.831 0-0.003 0-0.007 0-0.010v0c0-8.84-7.16-16-16-16zM16 13.053c-0.533 2.68-1.333 6.56-1.733 8.28-0.48 2.267-2 3.547-4.16 3.547-1.44 0-2.587-0.72-3.6-1.347-0.507-0.333-1.067-0.693-1.667-0.867-0.301-0.107-0.648-0.169-1.009-0.169-0.315 0-0.62 0.047-0.906 0.135l0.022-0.006c-0.488 0.158-0.903 0.334-1.298 0.541l0.045-0.021c2.683 5.288 8.078 8.85 14.306 8.853h0c6.231-0.006 11.628-3.573 14.265-8.775l0.042-0.091c-0.351-0.187-0.766-0.363-1.196-0.504l-0.057-0.016c-0.275-0.089-0.591-0.14-0.919-0.14-0.344 0-0.674 0.056-0.983 0.159l0.022-0.006c-0.613 0.213-1.173 0.573-1.68 0.907-1.013 0.627-2.16 1.347-3.6 1.347-2.16 0-3.667-1.28-4.16-3.547-0.4-1.72-1.733-8.28-1.733-8.28z"></path>
</svg>
