<!-- Generated by IcoMoon.io -->
<svg version="1.1" xmlns="http://www.w3.org/2000/svg" width="32" height="32" viewBox="0 0 32 32">
<title>buddy</title>
<path fill="#1a86fd" d="M28.933 7.076l-11.671-6.739c-0.362-0.212-0.797-0.338-1.261-0.338s-0.899 0.125-1.273 0.344l0.012-0.006-11.675 6.737c-0.759 0.444-1.26 1.256-1.26 2.184 0 0 0 0 0 0v0 13.479c0 0.9 0.48 1.733 1.26 2.183l11.675 6.741c0.361 0.212 0.796 0.337 1.26 0.337s0.898-0.125 1.272-0.344l-0.012 0.006 11.675-6.74c0.78-0.451 1.26-1.283 1.26-2.184v-13.477c0-0.9-0.48-1.733-1.263-2.184zM19 17.412l-5.072 5.072-1.801-1.801 5.072-5.073-5.072-5.073 1.801-1.8 6.873 6.873z"></path>
</svg>
