<!-- Generated by IcoMoon.io -->
<svg version="1.1" xmlns="http://www.w3.org/2000/svg" width="32" height="32" viewBox="0 0 32 32">
<title>buffer</title>
<path fill="#168eea" d="M31.712 24.32c0.383 0.189 0.383 0.356 0 0.499l-15.143 6.964c-0.383 0.193-0.76 0.193-1.139 0l-15.147-6.964c-0.379-0.143-0.379-0.309 0-0.5l3.629-1.64c0.379-0.187 0.76-0.187 1.136 0l10.383 4.764c0.38 0.187 0.76 0.187 1.139 0l10.383-4.765c0.377-0.187 0.757-0.187 1.136 0zM31.712 15.715c0.383 0.191 0.383 0.38 0 0.568l-15.143 6.971c-0.383 0.139-0.76 0.139-1.139 0l-15.147-6.973c-0.379-0.191-0.379-0.379 0-0.568l3.629-1.636c0.379-0.192 0.76-0.192 1.136 0l10.383 4.76c0.38 0.192 0.76 0.192 1.139 0l10.383-4.76c0.377-0.192 0.757-0.192 1.136 0zM0.285 7.68c-0.38-0.191-0.38-0.356 0-0.5l15.147-6.967c0.377-0.187 0.76-0.187 1.136 0l15.144 6.973c0.383 0.143 0.383 0.309 0 0.5l-15.143 6.964c-0.383 0.191-0.76 0.191-1.139 0z"></path>
</svg>
