<!-- Generated by IcoMoon.io -->
<svg version="1.1" xmlns="http://www.w3.org/2000/svg" width="32" height="32" viewBox="0 0 32 32">
<title>cakephp</title>
<path fill="#d33c43" d="M0 18.5v4.993c0 2.756 7.16 4.991 16 4.991v-4.991c-8.84 0-16-2.24-16-4.991zM28.512 21.611l-12.512-3.111v4.993l12.512 3.111c2.181-0.853 3.488-1.933 3.488-3.111v-4.993c0 1.176-1.307 2.256-3.488 3.111zM16 13.511v4.989c-8.836 0-16-2.236-16-4.992v-5.001c0-2.752 7.16-4.991 16-4.991 8.833 0 16 2.24 16 4.992v5c0 1.177-1.307 2.253-3.488 3.112l-12.512-3.113z"></path>
</svg>
