<!-- Generated by IcoMoon.io -->
<svg version="1.1" xmlns="http://www.w3.org/2000/svg" width="32" height="32" viewBox="0 0 32 32">
<title>canva</title>
<path fill="#00c4cc" d="M16 0c-8.836 0-16 7.164-16 16s7.164 16 16 16 16-7.164 16-16-7.164-16-16-16zM9.283 10.24c1.005 0 1.783 0.732 1.873 1.6 0.092 0.777-0.228 1.463-1.096 1.875-0.457 0.228-0.64 0.229-0.732 0.092-0.045-0.092 0-0.183 0.092-0.275 0.823-0.685 0.823-1.235 0.731-2.011-0.045-0.504-0.411-0.824-0.777-0.824-1.6 0-3.885 3.565-3.565 6.172 0.137 1.005 0.732 2.195 2.012 2.195 0.411 0 0.867-0.137 1.28-0.32 0.667-0.352 1.065-0.627 1.463-1.067-0.097-1.18 0.939-2.728 2.468-2.728 0.687 0 1.235 0.273 1.28 0.777 0.091 0.685-0.503 0.776-0.685 0.776s-0.504-0.045-0.504-0.227c-0.045-0.184 0.412-0.093 0.367-0.504-0.047-0.275-0.32-0.365-0.595-0.365-0.96 0-1.508 1.325-1.372 2.148 0.047 0.367 0.229 0.732 0.596 0.732 0.273 0 0.685-0.413 0.823-1.007 0.091-0.411 0.457-0.685 0.777-0.685 0.136 0 0.227 0.045 0.273 0.228v0.184c-0.045 0.183-0.183 0.731-0.136 0.868 0 0.092 0.045 0.228 0.227 0.228 0.123 0 0.581-0.24 1.036-0.612 0.156-0.787 0.337-1.731 0.337-1.809 0.045-0.32 0.183-0.64 0.823-0.64 0.137 0 0.228 0.045 0.273 0.228v0.184l-0.181 0.823c0.593-0.777 1.463-1.325 2.011-1.325 0.229 0 0.412 0.136 0.412 0.365 0 0.137 0 0.365-0.092 0.595-0.183 0.503-0.412 1.28-0.549 1.965 0 0.183 0.047 0.365 0.276 0.365 0.228 0 0.913-0.275 1.461-1.005l0.009-0.005c-0.003-0.091-0.009-0.179-0.009-0.269 0-0.548 0.047-1.005 0.139-1.325 0.091-0.365 0.548-0.685 0.823-0.685 0.137 0 0.273 0.092 0.273 0.228 0 0.047 0 0.137-0.045 0.183-0.183 0.595-0.32 1.143-0.32 1.692 0 0.32 0.045 0.776 0.136 1.051 0 0.045 0.047 0.092 0.093 0.092 0.091 0 0.731-0.593 1.187-1.371-0.411-0.275-0.64-0.732-0.64-1.28 0-0.96 0.595-1.463 1.144-1.463 0.457 0 0.823 0.32 0.823 0.96 0 0.411-0.137 0.867-0.365 1.28h0.136c0.010 0 0.022 0.001 0.033 0.001 0.293 0 0.558-0.123 0.745-0.32l0-0c0.042-0.069 0.103-0.123 0.176-0.155l0.003-0.001c0.447-0.567 1.107-0.987 1.88-0.987 0.64 0 1.232 0.273 1.279 0.776 0.091 0.687-0.504 0.824-0.687 0.824l-0.003-0.003c-0.184 0-0.503-0.047-0.503-0.229s0.412-0.091 0.365-0.501c-0.045-0.275-0.32-0.367-0.595-0.367-0.915 0-1.507 1.188-1.371 2.148 0.045 0.367 0.228 0.777 0.593 0.777 0.275 0 0.687-0.411 0.869-1.005 0.091-0.365 0.457-0.685 0.777-0.685 0.137 0 0.227 0.045 0.273 0.228 0 0.092 0 0.275-0.183 0.869-0.227 0.411-0.228 0.64-0.183 0.823 0.045 0.365 0.228 0.64 0.412 0.777 0.045 0.045 0.091 0.136 0.091 0.136 0 0.092-0.045 0.184-0.183 0.184-0.045 0-0.091 0-0.137-0.047-0.685-0.273-0.96-0.731-1.052-1.188-0.273 0.32-0.593 0.503-0.96 0.503-0.593 0-1.187-0.548-1.28-1.235-0.005-0.057-0.009-0.124-0.009-0.192 0-0.241 0.040-0.473 0.113-0.689l-0.004 0.015c-0.271 0.173-0.563 0.271-0.831 0.271h-0.227c-0.596 0.869-1.236 1.464-1.693 1.737-0.146 0.079-0.317 0.129-0.5 0.139l-0.003 0c-0.091 0-0.228-0.047-0.273-0.139-0.127-0.203-0.208-0.523-0.257-0.889-0.641 0.703-1.527 1.073-1.937 1.073-0.457 0-0.731-0.275-0.776-0.733v-0.501c0.136-1.005 0.503-1.6 0.503-1.783-0.003-0.050-0.042-0.090-0.092-0.093l-0-0c-0.32 0-1.371 1.099-1.555 1.831l-0.137 0.593c-0.091 0.412-0.503 0.687-0.776 0.687-0.137 0-0.229-0.047-0.275-0.229v-0.183l0.061-0.311c-0.58 0.413-1.16 0.677-1.433 0.677-0.411 0-0.64-0.229-0.685-0.549-0.275 0.365-0.593 0.549-1.005 0.549-0.469 0-0.928-0.32-1.149-0.791-0.325 0.367-0.697 0.737-1.136 1.019-0.64 0.412-1.371 0.732-2.24 0.732-0.776 0-1.463-0.412-1.828-0.777-0.549-0.503-0.868-1.28-0.915-2.012-0.273-2.24 1.097-5.12 3.2-6.4 0.504-0.273 1.007-0.457 1.509-0.457zM22.309 14.628c-0.139 0-0.229 0.229-0.229 0.457 0 0.365 0.183 0.777 0.412 1.007 0.086-0.231 0.135-0.498 0.136-0.777v-0c0-0.457-0.183-0.687-0.319-0.687z"></path>
</svg>
