<!-- Generated by IcoMoon.io -->
<svg version="1.1" xmlns="http://www.w3.org/2000/svg" width="32" height="32" viewBox="0 0 32 32">
<title>cashapp</title>
<path fill="#00c244" d="M31.453 4.627c-0.703-1.895-2.171-3.364-4.020-4.051l-0.047-0.015c-1.747-0.56-3.333-0.56-6.56-0.56h-9.68c-3.2 0-4.813 0-6.533 0.533-1.898 0.706-3.367 2.179-4.051 4.033l-0.015 0.047c-0.547 1.733-0.547 3.333-0.547 6.533v9.693c0 3.213 0 4.8 0.533 6.533 0.703 1.895 2.171 3.364 4.020 4.051l0.047 0.015c1.733 0.547 3.333 0.547 6.533 0.547h9.707c3.213 0 4.813 0 6.533-0.533 1.903-0.703 3.377-2.177 4.065-4.033l0.015-0.047c0.547-1.733 0.547-3.333 0.547-6.533v-9.667c0-3.213 0-4.813-0.547-6.547zM23.227 10.8l-1.24 1.24c-0.119 0.111-0.278 0.179-0.454 0.179-0.169 0-0.323-0.063-0.44-0.166l0.001 0.001c-1.151-0.977-2.652-1.571-4.293-1.573h-0c-1.293 0-2.587 0.427-2.587 1.613 0 1.2 1.387 1.6 2.987 2.2 2.8 0.933 5.12 2.107 5.12 4.853 0 2.987-2.32 5.040-6.107 5.267l-0.347 1.6c-0.064 0.299-0.326 0.52-0.64 0.52-0 0-0 0-0 0h-2.387l-0.12-0.013c-0.3-0.069-0.521-0.334-0.521-0.651 0-0.048 0.005-0.095 0.015-0.141l-0.001 0.004 0.373-1.693c-1.499-0.384-2.794-1.112-3.845-2.098l0.005 0.004v-0.013c-0.116-0.116-0.188-0.276-0.188-0.453s0.072-0.337 0.188-0.453l0-0 1.333-1.293c0.117-0.109 0.274-0.177 0.447-0.177s0.33 0.067 0.447 0.177l-0-0c1.213 1.147 2.84 1.787 4.52 1.76 1.733 0 2.893-0.733 2.893-1.893s-1.173-1.467-3.387-2.293c-2.347-0.84-4.573-2.027-4.573-4.8 0-3.227 2.68-4.8 5.853-4.947l0.333-1.64c0.064-0.292 0.32-0.507 0.626-0.507 0.005 0 0.010 0 0.015 0h2.373l0.133 0.013c0.347 0.080 0.573 0.413 0.493 0.76l-0.36 1.827c1.2 0.4 2.333 1.027 3.307 1.853l0.027 0.027c0.253 0.267 0.253 0.667 0 0.907z"></path>
</svg>
