<!-- Generated by IcoMoon.io -->
<svg version="1.1" xmlns="http://www.w3.org/2000/svg" width="32" height="32" viewBox="0 0 32 32">
<title>castro</title>
<path fill="#00b265" d="M16 0c-8.837 0-16 7.164-16 16s7.163 16 16 16c8.836 0 16-7.164 16-16s-7.164-16-16-16zM15.997 18.655c-1.511 0-2.737-1.225-2.737-2.737s1.225-2.737 2.737-2.737v0c1.511 0 2.737 1.225 2.737 2.737s-1.225 2.737-2.737 2.737v0zM22.657 25.125l-2.683-3.721c1.693-1.247 2.78-3.234 2.78-5.473 0-3.744-3.035-6.779-6.779-6.779s-6.779 3.035-6.779 6.779c0 2.249 1.096 4.243 2.783 5.476l0.019 0.013-2.685 3.724c-2.869-2.090-4.712-5.438-4.712-9.216 0-6.278 5.090-11.368 11.368-11.368 0.001 0 0.002 0 0.003 0h-0c6.278 0 11.368 5.090 11.368 11.368v0c0 0.004 0 0.008 0 0.013 0 3.763-1.831 7.097-4.651 9.162l-0.032 0.022z"></path>
</svg>
