<!-- Generated by IcoMoon.io -->
<svg version="1.1" xmlns="http://www.w3.org/2000/svg" width="32" height="32" viewBox="0 0 32 32">
<title>castorama</title>
<path fill="#0078d7" d="M11.88 21.475c-2.839 0-4.879-2.392-4.879-5.688 0-2.864 1.957-5.46 4.651-5.46 3.033 0 4.727 2.476 4.727 2.476l3.919-4.397c-1.213-1.416-3.464-3.843-8.671-3.843-5.851 0-10.945 4.652-10.945 11.275 0 6.355 4.633 11.376 11.021 11.376 5.14 0 7.429-2.689 8.72-4.172l-3.775-3.959c0 0.001-1.887 2.392-4.768 2.392zM24.377 0v13.317h-2.752c-1.414 0-2.56 1.146-2.56 2.56s1.146 2.56 2.56 2.56v0h2.752v13.563h6.94v-32z"></path>
</svg>
