<!-- Generated by IcoMoon.io -->
<svg version="1.1" xmlns="http://www.w3.org/2000/svg" width="32" height="32" viewBox="0 0 32 32">
<title>centos</title>
<path fill="#262577" d="M16.101 0.088l-4.257 4.285h-7.38v7.245l-4.464 4.395 4.465 4.397v7.187h7.165l4.38 4.315 4.38-4.315h7.24v-7.165l4.369-4.397-4.309-4.336v-7.271h-7.277zM16.101 1.087l3.32 3.341h-2.253v8.588l-1.067 1.073-1.080-1.087v-8.629h-2.185zM5.168 5.075h5.977l-2.499 2.515 5.671 5.705v0.872h-1.064l-5.688-5.603-2.397 2.36zM12.137 5.075h2.18v7.22l-4.679-4.707zM17.873 5.132h2.249l2.44 2.456-4.689 4.719zM21.115 5.132h5.872v5.859l-2.44-2.456-5.655 5.689h-1.019v-0.92l5.681-5.716zM24.547 9.532l2.44 2.457v2.235h-7.103zM7.567 9.549l4.687 4.616h-7.085v-2.253zM4.464 12.605v2.263h8.503l1.161 1.144-1.043 1.027h-8.619v2.381l-3.463-3.407zM27.691 12.696l3.317 3.337-3.377 3.4v-2.395h-8.547l-1-1.005 1.1-1.107h8.507zM15.021 14l1.080 1.087 0.248-0.251 0.819-0.824v0.915h1.024l-1.1 1.107 1 1.005h-0.959v1.077l-1.123-1.107-0.988 0.973v-0.943h-0.933l1.041-1.027-0.251-0.248-0.909-0.896h1.051zM5.168 17.743h7.203l-4.804 4.733-2.397-2.363zM13.373 17.743h0.944v0.933l-5.872 5.784 2.469 2.432h-5.747v-5.789l2.397 2.36zM17.837 17.743h0.953l5.756 5.791 0.248-0.249 2.132-2.147v5.755h-5.821l2.471-2.433-5.739-5.652zM19.784 17.743h7.143v2.397l-2.38 2.395zM16.011 17.997l1.123 1.105v8.493h2.255l-3.376 3.327-3.377-3.327h2.387v-8.623zM14.317 19.665v7.227h-2.399l-2.469-2.431zM17.837 19.795l4.736 4.665-2.471 2.433h-2.267z"></path>
</svg>
