<!-- Generated by IcoMoon.io -->
<svg version="1.1" xmlns="http://www.w3.org/2000/svg" width="32" height="32" viewBox="0 0 32 32">
<title>chase</title>
<path fill="#117aca" d="M11.454 31.965q-0.247 0-0.441-0.088t-0.37-0.229-0.247-0.352-0.106-0.458l0.035-7.894h20.864l-9.48 9.022h-10.291zM32 20.547q-0.035 0.247-0.106 0.441t-0.247 0.352-0.37 0.247-0.441 0.088h-7.894l-0.035-20.899 9.057 9.515v10.255zM20.547 0.036q0.211 0 0.441 0.088t0.352 0.229 0.229 0.352 0.071 0.458l0.035 7.894h-20.933l9.551-9.022h10.22zM0.036 11.455q-0.035-0.247 0.071-0.441t0.247-0.352 0.352-0.247 0.423-0.088h7.929l-0.035 20.899-8.987-9.515-0.035-10.255z"></path>
</svg>
