<!-- Generated by IcoMoon.io -->
<svg version="1.1" xmlns="http://www.w3.org/2000/svg" width="32" height="32" viewBox="0 0 32 32">
<title>chef</title>
<path fill="#f09820" d="M16.040 0c-6.787 0-12.613 4.227-14.947 10.2l2.547 1.027c1.977-5.023 6.778-8.516 12.398-8.533h0.002c2.987 0 5.76 1.027 7.947 2.627l1.6-2.187c-2.618-1.957-5.918-3.133-9.493-3.133-0.019 0-0.038 0-0.057 0h0.003zM16.040 3.067c-5.484 0.011-10.17 3.412-12.076 8.219l-0.031 0.088 2.547 0.933c1.498-3.86 5.183-6.547 9.496-6.547 0.023 0 0.045 0 0.068 0l-0.003-0zM20.773 4l-1.013 2.56c3.257 1.229 5.664 4.025 6.323 7.444l0.010 0.063h2.773c-0.739-4.624-3.84-8.381-8.006-10.036l-0.087-0.031zM16.040 6.133c-5.465 0.019-9.887 4.453-9.887 9.92 0 5.479 4.441 9.92 9.92 9.92 4.79 0 8.787-3.395 9.716-7.909l0.011-0.064h-2.773c-0.922 3.048-3.697 5.232-6.984 5.253h-0.002c-0.012 0-0.026 0-0.040 0-3.969 0-7.187-3.218-7.187-7.187 0-0.009 0-0.019 0-0.028v0.001c-0-0.008-0-0.017-0-0.027 0-3.969 3.218-7.187 7.187-7.187 0.014 0 0.028 0 0.042 0h-0.002c0.002 0 0.003 0 0.005 0 3.279 0 6.045 2.191 6.915 5.189l0.013 0.051h2.76c-0.906-4.551-4.869-7.934-9.621-7.934-0.026 0-0.051 0-0.077 0l0.004-0zM29.667 7.587l-2.333 1.453c0.94 1.434 1.607 3.131 1.885 4.956l0.009 0.070h2.773c-0.302-2.438-1.131-4.634-2.37-6.54l0.036 0.060zM15.96 9.107c-3.786 0.075-6.826 3.162-6.826 6.959 0 0.988 0.206 1.928 0.577 2.779l-0.017-0.045 2.627-1.16c-0.22-0.469-0.352-1.018-0.36-1.597l-0-0.003c0-2.187 1.813-4.013 4-4.013zM18.52 9.627l-1.027 2.693c0.88 0.36 1.533 0.933 2.040 1.747h3.067c-0.6-2.056-2.1-3.675-4.034-4.424l-0.046-0.016zM0 16.027c0 2.2 0.44 4.387 1.387 6.493l2.4-1.093c-0.687-1.59-1.088-3.441-1.093-5.385v-0.002zM3.067 16.027c0 5.467 3.347 10.133 8.16 12.040l1.013-2.56c-3.821-1.518-6.475-5.182-6.48-9.466v-0.001zM19.467 18c-0.44 0.8-1.093 1.467-1.973 1.747l1.027 2.707c1.982-0.768 3.484-2.392 4.068-4.406l0.012-0.047zM26.093 18c-0.959 4.755-5.089 8.29-10.050 8.32h-0.003v2.693c0.007 0 0.016 0 0.025 0 6.468 0 11.828-4.743 12.792-10.941l0.009-0.073zM29.227 18c-1.043 6.448-6.544 11.321-13.194 11.373l-0.006 0c-3.64 0-6.987-1.533-9.387-3.933l-1.907 1.893c2.92 2.92 6.933 4.667 11.373 4.667 0.006 0 0.012 0 0.019 0 8.132 0 14.846-6.066 15.866-13.92l0.009-0.080zM13.2 18.88l-2.040 2.040c1.249 1.252 2.973 2.029 4.878 2.040h0.002v-2.92c-0.004 0-0.008 0-0.012 0-1.102 0-2.101-0.443-2.828-1.16l0 0z"></path>
</svg>
