<!-- Generated by IcoMoon.io -->
<svg version="1.1" xmlns="http://www.w3.org/2000/svg" width="32" height="32" viewBox="0 0 32 32">
<title>circle</title>
<path fill="#8669ae" d="M27.717 5.109c-0.135-0.14-0.263-0.284-0.401-0.423-0.137-0.137-0.281-0.269-0.427-0.403-2.83-2.654-6.647-4.284-10.846-4.284-0.015 0-0.031 0-0.046 0h0.002c-0.013-0-0.028-0-0.043-0-4.405 0-8.392 1.791-11.271 4.685l-0.001 0.001c-6.101 6.101-6.232 15.941-0.401 22.205 0.132 0.144 0.263 0.285 0.4 0.427 0.139 0.137 0.28 0.267 0.423 0.4 2.833 2.653 6.653 4.283 10.853 4.283 0.014 0 0.028-0 0.042-0h-0.002c4.275 0 8.293-1.663 11.316-4.683 6.101-6.101 6.231-15.941 0.401-22.208zM5.511 5.511c2.671-2.684 6.367-4.345 10.452-4.345 0.013 0 0.026 0 0.039 0h-0.002c3.767 0 7.32 1.397 10.067 3.944l-1.335 1.336c-2.282-2.101-5.341-3.389-8.7-3.389-0.011 0-0.022 0-0.033 0h0.002c-0.010-0-0.023-0-0.035-0-3.564 0-6.789 1.45-9.118 3.791l-0.001 0.001c-2.342 2.329-3.791 5.554-3.791 9.117 0 0.012 0 0.025 0 0.037v-0.002c0 3.264 1.2 6.337 3.389 8.732l-1.337 1.335c-5.376-5.812-5.243-14.911 0.403-20.556zM23.908 7.268v0.003l-1.353 1.352c-1.726-1.554-4.023-2.504-6.541-2.504-0.005 0-0.010 0-0.015 0h0.001c-0.008-0-0.018-0-0.028-0-2.72 0-5.181 1.107-6.957 2.894l-0 0.001c-1.789 1.778-2.896 4.241-2.896 6.962 0 0.009 0 0.017 0 0.026v-0.001c0 0.004 0 0.009 0 0.014 0 2.517 0.95 4.811 2.511 6.545l-0.008-0.009-1.352 1.355c-1.889-2.070-3.047-4.836-3.047-7.872 0-0.012 0-0.023 0-0.035v0.002c-0-0.010-0-0.021-0-0.033 0-3.242 1.319-6.176 3.45-8.294l0.001-0.001c2.119-2.131 5.053-3.451 8.295-3.451 0.011 0 0.022 0 0.034 0h-0.002c2.951 0 5.735 1.079 7.908 3.045zM24.716 16c0 2.327-0.908 4.516-2.555 6.163s-3.833 2.555-6.161 2.555c-0.002 0-0.004 0-0.006 0-2.198 0-4.205-0.819-5.731-2.169l0.009 0.008-0.001-0.005c-0.147-0.125-0.293-0.251-0.432-0.388-0.13-0.135-0.258-0.276-0.381-0.422l-0.010-0.012c-1.341-1.513-2.16-3.516-2.16-5.71 0-0.006 0-0.013 0-0.019v0.001c0-2.328 0.905-4.516 2.552-6.161 1.567-1.576 3.737-2.552 6.135-2.552 0.009 0 0.017 0 0.026 0h-0.001c2.132 0 4.14 0.768 5.727 2.16 0.148 0.128 0.299 0.253 0.435 0.393 0.139 0.139 0.267 0.285 0.393 0.432 1.342 1.516 2.161 3.521 2.161 5.717 0 0.004 0 0.008 0 0.011v-0.001zM9.445 23.379h0.001c1.727 1.555 4.024 2.505 6.544 2.505 0.003 0 0.007 0 0.010 0h-0.001c0.008 0 0.018 0 0.027 0 2.72 0 5.182-1.108 6.957-2.898l0.001-0.001c1.79-1.777 2.897-4.238 2.897-6.959 0-0.009 0-0.019-0-0.028v0.001c0-0.002 0-0.005 0-0.008 0-2.52-0.949-4.818-2.509-6.556l0.008 0.009 1.351-1.349c1.889 2.071 3.047 4.838 3.047 7.876 0 0.010 0 0.020-0 0.030v-0.002c0 0.010 0 0.023 0 0.035 0 3.242-1.32 6.175-3.451 8.292l-0.001 0.001c-2.117 2.131-5.050 3.451-8.291 3.451-0.013 0-0.025-0-0.038-0h0.002c-0.008 0-0.018 0-0.028 0-3.038 0-5.806-1.157-7.888-3.055l0.009 0.008zM26.489 26.489c-2.668 2.683-6.362 4.344-10.445 4.344-0.016 0-0.032-0-0.047-0h0.002c-0.012 0-0.026 0-0.041 0-3.878 0-7.407-1.5-10.036-3.951l0.009 0.008 1.339-1.335c2.281 2.101 5.339 3.389 8.697 3.389 0.012 0 0.024-0 0.037-0h-0.002c0.010 0 0.023 0 0.035 0 3.564 0 6.789-1.451 9.117-3.794l0.001-0.001c2.342-2.329 3.791-5.553 3.791-9.116 0-0.012-0-0.025-0-0.037v0.002c0-0.009 0-0.021 0-0.032 0-3.359-1.289-6.418-3.399-8.708l0.008 0.009 1.335-1.336c5.375 5.812 5.247 14.909-0.401 20.556z"></path>
</svg>
