<!-- Generated by IcoMoon.io -->
<svg version="1.1" xmlns="http://www.w3.org/2000/svg" width="32" height="32" viewBox="0 0 32 32">
<title>cirrusci</title>
<path d="M29.875 20.636c1.305 1.128 2.125 2.786 2.125 4.635 0 0.001 0 0.002 0 0.003v-0c0 3.375-2.737 6.12-6.103 6.12h-24.413c-0.82 0-1.484-0.664-1.484-1.484s0.664-1.484 1.484-1.484h24.413c1.732-0.008 3.133-1.413 3.133-3.147 0-0.002 0-0.004 0-0.006v0c0-0.002 0-0.003 0-0.005 0-1.733-1.401-3.139-3.133-3.147h-24.414c-0.82 0-1.485-0.665-1.485-1.485s0.665-1.485 1.485-1.485v0h24.413c1.732-0.008 3.133-1.413 3.133-3.147 0-0.002 0-0.004 0-0.006v0c0-0.002 0-0.003 0-0.005 0-1.733-1.401-3.139-3.133-3.147h-24.414c-0.82 0-1.485-0.665-1.485-1.485s0.665-1.485 1.485-1.485v0h24.413c1.728 0 3.133-1.413 3.133-3.152s-1.405-3.152-3.133-3.152c-0.82 0-1.485-0.665-1.485-1.485s0.665-1.485 1.485-1.485v0c3.365 0 6.103 2.747 6.103 6.121 0 1.852-0.827 3.513-2.125 4.636 1.305 1.128 2.125 2.786 2.125 4.635 0 0.001 0 0.002 0 0.003v-0c0 1.852-0.827 3.513-2.125 4.636z"></path>
</svg>
