<!-- Generated by IcoMoon.io -->
<svg version="1.1" xmlns="http://www.w3.org/2000/svg" width="32" height="32" viewBox="0 0 32 32">
<title>cisco</title>
<path fill="#1ba0d7" d="M21.775 24.228v-1.481l-0.029 0.013c-0.333 0.161-0.696 0.253-1.068 0.271-0.036 0.003-0.078 0.005-0.12 0.005-0.36 0-0.692-0.12-0.958-0.323l0.004 0.003c-0.216-0.168-0.379-0.394-0.466-0.654l-0.003-0.010c-0.050-0.149-0.079-0.32-0.079-0.498 0-0.139 0.018-0.274 0.051-0.402l-0.002 0.011c0.069-0.3 0.237-0.568 0.476-0.759 0.213-0.179 0.473-0.291 0.749-0.323 0.082-0.010 0.178-0.015 0.274-0.015 0.417 0 0.809 0.103 1.154 0.286l-0.013-0.006 0.032 0.017v-1.489l-0.068-0.019c-0.347-0.115-0.746-0.181-1.16-0.181-0.066 0-0.132 0.002-0.197 0.005l0.009-0c-0.438 0.011-0.851 0.111-1.223 0.283l0.019-0.008c-0.383 0.176-0.72 0.436-0.985 0.761-0.399 0.5-0.639 1.141-0.639 1.838 0 0.666 0.22 1.281 0.592 1.776l-0.006-0.008c0.393 0.504 0.945 0.86 1.567 1.008 0.655 0.16 1.341 0.136 1.983-0.069l0.109-0.031zM7.115 24.228v-1.481l-0.029 0.013c-0.333 0.161-0.696 0.253-1.068 0.271-0.036 0.003-0.079 0.005-0.121 0.005-0.36 0-0.692-0.121-0.957-0.323l0.004 0.003c-0.216-0.167-0.378-0.393-0.465-0.654l-0.003-0.010c-0.051-0.149-0.080-0.321-0.080-0.5 0-0.138 0.018-0.272 0.050-0.4l-0.002 0.011c0.069-0.3 0.236-0.568 0.476-0.759 0.213-0.179 0.473-0.291 0.749-0.323 0.082-0.010 0.178-0.015 0.274-0.015 0.417 0 0.809 0.103 1.154 0.286l-0.013-0.006 0.032 0.017v-1.489l-0.068-0.019c-0.347-0.115-0.746-0.181-1.16-0.181-0.066 0-0.132 0.002-0.197 0.005l0.009-0c-0.438 0.011-0.851 0.111-1.223 0.283l0.019-0.008c-0.392 0.183-0.722 0.44-0.983 0.757l-0.004 0.005c-0.398 0.5-0.639 1.142-0.639 1.839 0 0.666 0.219 1.28 0.59 1.775l-0.006-0.008c0.387 0.494 0.928 0.852 1.549 1.004l0.019 0.004c0.655 0.16 1.34 0.136 1.983-0.069l0.111-0.031zM12.347 22.999l-0.005 1.276 0.093 0.016c0.293 0.055 0.588 0.092 0.885 0.113 0.26 0.025 0.521 0.029 0.783 0.016 0.249-0.019 0.496-0.065 0.735-0.139 0.28-0.080 0.54-0.217 0.761-0.407 0.196-0.169 0.348-0.383 0.44-0.627l0.004-0.011c0.074-0.186 0.117-0.402 0.117-0.628 0-0.235-0.046-0.459-0.13-0.663l0.004 0.012c-0.090-0.22-0.225-0.405-0.395-0.55l-0.002-0.002c-0.164-0.147-0.358-0.263-0.572-0.336l-0.012-0.004-0.963-0.357c-0.116-0.050-0.207-0.138-0.261-0.248l-0.001-0.003c-0.019-0.040-0.029-0.086-0.029-0.135 0-0.057 0.015-0.111 0.041-0.158l-0.001 0.002c0.050-0.081 0.12-0.145 0.202-0.188l0.003-0.001c0.1-0.049 0.216-0.084 0.338-0.098l0.005-0c0.204-0.029 0.411-0.028 0.613 0.007 0.24 0.027 0.477 0.068 0.711 0.128l0.051 0.011v-1.177l-0.092-0.020c-0.197-0.050-0.443-0.096-0.693-0.126l-0.031-0.003c-0.148-0.020-0.318-0.032-0.492-0.032-0.162 0-0.322 0.010-0.479 0.030l0.019-0.002c-0.4 0.036-0.78 0.191-1.095 0.44-0.213 0.168-0.375 0.391-0.468 0.645-0.139 0.387-0.14 0.811 0 1.199 0.072 0.193 0.187 0.365 0.336 0.508 0.129 0.124 0.276 0.231 0.436 0.315 0.209 0.112 0.432 0.199 0.663 0.26 0.076 0.023 0.152 0.047 0.227 0.072l0.113 0.041 0.032 0.013c0.112 0.040 0.216 0.104 0.301 0.187 0.060 0.056 0.107 0.125 0.135 0.201 0.009 0.033 0.014 0.071 0.014 0.11 0 0.037-0.005 0.073-0.014 0.108l0.001-0.003c-0.037 0.115-0.116 0.208-0.219 0.263l-0.002 0.001c-0.106 0.056-0.23 0.096-0.361 0.114l-0.006 0.001c-0.125 0.021-0.27 0.032-0.417 0.032-0.054 0-0.107-0.002-0.16-0.005l0.007 0c-0.283-0.022-0.537-0.057-0.786-0.106l0.044 0.007c-0.211-0.044-0.34-0.075-0.468-0.108l0.085 0.019zM9.047 24.325h1.4v-5.556h-1.4zM25.263 20.411c0.249-0.204 0.571-0.328 0.922-0.328 0.456 0 0.863 0.209 1.131 0.536l0.002 0.003c0.205 0.249 0.329 0.572 0.329 0.923 0 0.455-0.209 0.862-0.536 1.13l-0.003 0.002-0.023 0.019c-0.244 0.188-0.553 0.302-0.889 0.302-0.807 0-1.461-0.654-1.461-1.461 0-0.451 0.204-0.854 0.526-1.122l0.002-0.002zM23.229 21.549c0.026 1.595 1.325 2.878 2.924 2.878 0.224 0 0.441-0.025 0.651-0.073l-0.020 0.004c1.331-0.259 2.322-1.415 2.322-2.802 0-1.034-0.55-1.94-1.374-2.44l-0.013-0.007c-0.44-0.276-0.974-0.44-1.547-0.44-1.603 0-2.907 1.282-2.942 2.876l-0 0.003zM30.615 14.304c0.017 0.37 0.32 0.663 0.693 0.663s0.676-0.293 0.693-0.661l0-0.002v-1.54c-0.017-0.37-0.32-0.663-0.693-0.663s-0.676 0.293-0.693 0.661l-0 0.002v1.54zM26.823 14.304c0.028 0.361 0.328 0.643 0.694 0.643s0.666-0.282 0.694-0.641l0-0.002v-3.452c-0.023-0.365-0.325-0.652-0.693-0.652s-0.67 0.287-0.693 0.65l-0 0.002v3.452zM22.975 15.695c0.028 0.36 0.328 0.642 0.693 0.642s0.664-0.282 0.692-0.64l0-0.002v-7.468c-0.017-0.37-0.32-0.663-0.693-0.663s-0.676 0.293-0.693 0.661l-0 0.002v7.468zM19.191 14.304c0.023 0.365 0.325 0.652 0.693 0.652s0.67-0.287 0.693-0.65l0-0.002v-3.452c-0.017-0.37-0.32-0.663-0.693-0.663s-0.676 0.293-0.693 0.661l-0 0.002v3.452zM15.325 14.304c0.036 0.354 0.332 0.628 0.693 0.628s0.657-0.274 0.692-0.625l0-0.003v-1.54c-0.017-0.37-0.32-0.663-0.693-0.663s-0.676 0.293-0.693 0.661l-0 0.002v1.54zM11.499 14.304c0.017 0.37 0.32 0.663 0.693 0.663s0.676-0.293 0.693-0.661l0-0.002v-3.452c-0.017-0.37-0.32-0.663-0.693-0.663s-0.676 0.293-0.693 0.661l-0 0.002v3.452zM7.649 15.695c0.017 0.37 0.32 0.663 0.693 0.663s0.676-0.293 0.693-0.661l0-0.002v-7.468c-0.017-0.37-0.32-0.663-0.693-0.663s-0.676 0.293-0.693 0.661l-0 0.002v7.468zM3.835 14.304c0.032 0.357 0.33 0.635 0.693 0.635s0.661-0.278 0.693-0.632l0-0.003v-3.452c-0.017-0.37-0.32-0.663-0.693-0.663s-0.676 0.293-0.693 0.661l-0 0.002v3.452zM0 14.304c0.028 0.36 0.328 0.642 0.693 0.642s0.664-0.282 0.693-0.64l0-0.002v-1.54c-0.017-0.37-0.32-0.663-0.693-0.663s-0.676 0.293-0.693 0.661l-0 0.002v1.54z"></path>
</svg>
