<!-- Generated by IcoMoon.io -->
<svg version="1.1" xmlns="http://www.w3.org/2000/svg" width="32" height="32" viewBox="0 0 32 32">
<title>civicrm</title>
<path fill="#81c459" d="M30.087 12.072c0.331-0.636 0.6-1.5 0.313-2.381-0.333-1.021-1.252-1.7-2.735-2.015l-9.403-2-9.601-5.136c-0.104-0.056-1.039-0.54-2.060-0.54-0.761 0-1.417 0.264-1.899 0.761-0.449 0.465-0.719 1.112-0.804 1.925-0.078-0.005-0.169-0.008-0.261-0.008-0.002 0-0.003 0-0.005 0h0c-1.452 0-2.197 0.608-2.568 1.119-0.573 0.789-0.645 1.857-0.215 3.176l3.532 10.824 0.335 9.377c0.059 1.629 0.959 3.381 2.797 3.383 0.352 0 0.716-0.068 1.093-0.2 0.437 0.741 1.227 1.643 2.485 1.643 0.888 0 1.765-0.476 2.608-1.417l6.813-7.596 9.044-5.711c0.196-0.125 1.925-1.267 1.864-2.972-0.029-0.856-0.483-1.603-1.336-2.232zM9.861 26.888l-3.104-9.512-0.421-11.796 11.101 2.361 9.028 4.829-7.507 8.372zM27.169 10.013c0.727 0.155 0.945 0.372 0.96 0.417 0.028 0.084-0.023 0.261-0.116 0.459l-2.164-1.157zM6.601 2.389c0.359 0 0.809 0.193 0.933 0.257l2.317 1.239-3.591-0.764c0.017-0.431 0.107-0.645 0.16-0.701 0.016-0.015 0.083-0.031 0.18-0.031zM3.121 6.232c-0.26-0.793-0.124-1.031-0.123-1.032 0.025-0.035 0.223-0.132 0.635-0.132 0.111 0 0.212 0.007 0.295 0.015l0.145 4.067zM7.105 27.088l-0.039-1.064 0.685 2.099c-0.070 0.024-0.151 0.040-0.235 0.045l-0.002 0c-0.195 0-0.391-0.667-0.409-1.080zM11.924 28.987c-0.552 0.617-0.827 0.624-0.829 0.624-0.077 0-0.247-0.176-0.401-0.423l2.424-1.531zM28.284 15.255l-1.927 1.217 2.26-2.52c0.332 0.232 0.417 0.397 0.419 0.439 0.008 0.177-0.383 0.624-0.752 0.864z"></path>
</svg>
