<!-- Generated by IcoMoon.io -->
<svg version="1.1" xmlns="http://www.w3.org/2000/svg" width="32" height="32" viewBox="0 0 32 32">
<title>clockify</title>
<path fill="#03a9f4" d="M19.972 10.997l7.251-7.352 2.076 2.103-7.251 7.352zM17.035 18.511c-0.713-0.002-1.357-0.296-1.818-0.769l-0.001-0.001c-0.463-0.477-0.749-1.128-0.749-1.846 0-0 0-0 0-0v0c0-1.443 1.149-2.613 2.567-2.613 1.419 0 2.571 1.171 2.571 2.613 0 0.688-0.268 1.349-0.751 1.847-0.462 0.473-1.106 0.767-1.818 0.769h-0zM29.331 26.104l-2.075 2.105-7.251-7.353 2.077-2.103zM17.112 27.204c1.49-0.001 2.909-0.302 4.2-0.847l-0.071 0.027 3.541 3.593c-2.203 1.272-4.845 2.023-7.662 2.023-0.003 0-0.006 0-0.009 0h0c-8.715 0-15.779-7.164-15.779-16s7.065-16 15.779-16c2.757 0 5.349 0.72 7.604 1.981l-3.481 3.533c-1.218-0.516-2.635-0.817-4.122-0.817h-0c-6.103 0-11.049 5.040-11.049 11.253 0 6.215 4.947 11.253 11.049 11.253z"></path>
</svg>
