<!-- Generated by IcoMoon.io -->
<svg version="1.1" xmlns="http://www.w3.org/2000/svg" width="32" height="32" viewBox="0 0 32 32">
<title>clojure</title>
<path fill="#5881d8" d="M15.337 16.288c-0.159 0.345-0.335 0.732-0.516 1.144-0.643 1.456-1.355 3.227-1.613 4.361-0.095 0.418-0.15 0.899-0.15 1.392 0 0.024 0 0.049 0 0.073l-0-0.004c0 0.219 0.012 0.449 0.029 0.685 0.909 0.333 1.889 0.517 2.915 0.52 0.955-0.002 1.872-0.161 2.728-0.452l-0.060 0.018c-0.201-0.181-0.383-0.373-0.55-0.579l-0.007-0.009c-1.139-1.452-1.772-3.576-2.776-7.149zM11.14 9.084c-2.185 1.549-3.594 4.068-3.597 6.916v0c0.003 2.806 1.371 5.291 3.476 6.829l0.024 0.017c0.52-2.163 1.821-4.143 3.773-8.112-0.116-0.319-0.248-0.667-0.396-1.033-0.541-1.357-1.321-2.931-2.017-3.644-0.365-0.373-0.78-0.696-1.235-0.957l-0.028-0.015zM23.369 25.703c-1.12-0.14-2.044-0.309-2.855-0.595-1.316 0.666-2.869 1.057-4.513 1.057-5.614 0-10.166-4.551-10.167-10.165v-0c0-0.002 0-0.005 0-0.008 0-3.038 1.337-5.764 3.455-7.622l0.012-0.010c-0.53-0.136-1.138-0.215-1.765-0.216h-0.001c-2.981 0.027-6.129 1.677-7.44 6.136-0.123 0.648-0.093 1.139-0.093 1.72 0 8.836 7.164 16 16 16 5.412 0 10.191-2.689 13.087-6.801-1.565 0.391-3.073 0.577-4.361 0.581-0.483 0-0.936-0.027-1.359-0.077zM20.364 22.603c0.099 0.048 0.323 0.129 0.633 0.217 2.108-1.556 3.461-4.030 3.467-6.819v-0.001h-0.003c-0.007-4.67-3.79-8.453-8.459-8.46h-0.001c-0.95 0.001-1.864 0.159-2.716 0.45l0.059-0.018c1.719 1.957 2.544 4.755 3.343 7.816l0.001 0.004c0.001 0.003 0.256 0.849 0.691 1.973 0.435 1.123 1.052 2.513 1.724 3.527 0.443 0.68 0.929 1.168 1.26 1.311zM16.001 0c-0.002 0-0.005 0-0.008 0-5.336 0-10.061 2.617-12.962 6.637l-0.032 0.047c1.512-0.947 3.055-1.289 4.401-1.276 1.859 0.005 3.321 0.581 4.023 0.976 0.169 0.097 0.331 0.203 0.488 0.311 1.204-0.543 2.61-0.859 4.089-0.859 5.614 0 10.165 4.55 10.167 10.164v0c0 0.003 0 0.006 0 0.010 0 2.827-1.157 5.384-3.023 7.223l-0.001 0.001c0.459 0.051 0.945 0.084 1.445 0.081 1.771 0 3.688-0.391 5.123-1.597 0.937-0.789 1.721-1.944 2.156-3.676 0.087-0.669 0.133-1.349 0.133-2.041 0-8.836-7.161-16-15.999-16z"></path>
</svg>
