<!-- Generated by IcoMoon.io -->
<svg version="1.1" xmlns="http://www.w3.org/2000/svg" width="32" height="32" viewBox="0 0 32 32">
<title>cloudbees</title>
<path fill="#1997b5" d="M4.733 8.547c0-1.6 0.973-3.040 2.507-3.733 0.557-0.253 1.208-0.4 1.893-0.4 1.050 0 2.018 0.345 2.799 0.929l-0.012-0.009 3.36-3.133c-1.655-1.368-3.799-2.198-6.137-2.198-1.786 0-3.459 0.484-4.895 1.329l0.045-0.025c-2.567 1.443-4.272 4.149-4.272 7.253 0 0.837 0.124 1.644 0.354 2.405l-0.015-0.059c1.25 3.628 4.634 6.188 8.617 6.188 0.064 0 0.129-0.001 0.193-0.002l-0.010 0h3.44v-4.4h-3.44c-2.44-0.027-4.427-1.88-4.427-4.147zM22.747 14.853h-3.44v4.4h3.44c2.44 0 4.427 1.867 4.427 4.133 0 2.293-1.987 4.133-4.427 4.133s-4.427-1.827-4.427-4.107v-14.88c0-2.107-0.84-4.147-2.347-5.72l-3.36 3.16c0.627 0.707 0.973 1.627 0.973 2.573v14.853c0 4.72 4.107 8.547 9.16 8.547 5.067 0 9.16-3.827 9.16-8.547s-4.093-8.547-9.16-8.547z"></path>
</svg>
