<!-- Generated by IcoMoon.io -->
<svg version="1.1" xmlns="http://www.w3.org/2000/svg" width="32" height="32" viewBox="0 0 32 32">
<title>co-op</title>
<path fill="#00b1e7" d="M31.033 7.020c0-1.136-0.176-2.271-0.48-3.407-0.437-1.355-1.441-2.445-2.708-2.925-1.21-0.436-2.606-0.688-4.061-0.688s-2.851 0.252-4.147 0.715l0.086-0.027c-1.331 0.47-2.339 1.55-2.7 2.896l-0.007 0.030c-0.291 1.015-0.459 2.18-0.459 3.385s0.168 2.37 0.481 3.474l-0.022-0.090c0.435 1.353 1.44 2.445 2.707 2.925 1.101 0.418 2.375 0.661 3.705 0.661 0.125 0 0.25-0.002 0.374-0.006l-0.018 0.001c1.399 0 2.751-0.261 4.061-0.655 1.331-0.47 2.34-1.55 2.701-2.896l0.007-0.030c0.305-1.092 0.48-2.227 0.48-3.363zM26.623 7.020c0 0.524-0.087 1.136-0.261 1.616-0.219 0.699-0.831 1.267-1.573 1.441-0.315 0.062-0.677 0.098-1.047 0.098s-0.732-0.036-1.083-0.104l0.036 0.006c-0.767-0.133-1.375-0.696-1.57-1.428l-0.003-0.014c-0.167-0.496-0.263-1.066-0.263-1.659s0.096-1.164 0.274-1.697l-0.011 0.038c0.217-0.699 0.829-1.267 1.573-1.441 0.315-0.062 0.677-0.098 1.047-0.098s0.732 0.036 1.083 0.104l-0.036-0.006c0.767 0.134 1.374 0.697 1.57 1.428l0.003 0.014c0.173 0.611 0.261 1.179 0.261 1.703zM14.963 25.407c0.291-1.015 0.458-2.18 0.458-3.385s-0.167-2.37-0.48-3.474l0.022 0.090c-0.436-1.355-1.441-2.445-2.707-2.927-1.21-0.436-2.606-0.688-4.061-0.688s-2.851 0.252-4.147 0.715l0.086-0.027c-1.331 0.471-2.34 1.551-2.701 2.897l-0.007 0.030c-0.291 1.015-0.458 2.18-0.458 3.385s0.167 2.37 0.48 3.474l-0.022-0.090c0.437 1.353 1.441 2.445 2.708 2.924 1.21 0.436 2.606 0.688 4.061 0.688s2.851-0.252 4.147-0.715l-0.086 0.027c1.303-0.512 2.294-1.574 2.698-2.892l0.008-0.032zM11.032 22.043c0 0.524-0.088 1.136-0.263 1.616-0.243 0.718-0.829 1.26-1.557 1.438l-0.015 0.003c-0.315 0.062-0.677 0.098-1.048 0.098s-0.733-0.036-1.084-0.104l0.036 0.006c-0.766-0.135-1.372-0.697-1.569-1.428l-0.003-0.014c-0.166-0.496-0.262-1.066-0.262-1.659s0.096-1.164 0.273-1.697l-0.011 0.038c0.243-0.718 0.828-1.261 1.557-1.438l0.015-0.003c0.315-0.063 0.677-0.099 1.048-0.099s0.733 0.036 1.083 0.105l-0.035-0.006c0.766 0.135 1.372 0.697 1.569 1.428l0.003 0.014c0.175 0.568 0.263 1.135 0.263 1.703zM11.032 6.976h4.411c0-1.135-0.175-2.271-0.48-3.361-0.436-1.355-1.441-2.445-2.707-2.925-1.21-0.436-2.606-0.688-4.061-0.688s-2.851 0.252-4.147 0.715l0.086-0.027c-1.355 0.523-2.359 1.615-2.709 2.968-0.291 1.015-0.458 2.18-0.458 3.385s0.167 2.37 0.48 3.474l-0.022-0.090c0.437 1.353 1.441 2.445 2.708 2.925 1.309 0.48 2.664 0.656 4.061 0.656s2.751-0.263 4.061-0.656c1.331-0.47 2.339-1.551 2.7-2.896l0.007-0.030c0.044-0.175 0.087-0.393 0.175-0.568l-4.148-1.921c-0.044 0.261-0.087 0.48-0.175 0.743-0.217 0.699-0.829 1.267-1.572 1.441-0.315 0.062-0.677 0.098-1.048 0.098s-0.733-0.036-1.084-0.104l0.036 0.006c-0.766-0.135-1.372-0.697-1.569-1.428l-0.003-0.014c-0.166-0.496-0.262-1.066-0.262-1.659s0.096-1.164 0.273-1.697l-0.011 0.038c0.219-0.699 0.829-1.267 1.572-1.443 0.315-0.062 0.677-0.098 1.048-0.098s0.733 0.036 1.084 0.104l-0.036-0.006c0.767 0.135 1.373 0.698 1.569 1.429l0.003 0.014c0.131 0.567 0.219 1.091 0.219 1.615zM16.927 18.681c-0.301 1.020-0.476 2.192-0.48 3.405v9.914h4.411v-9.957c0-0.524 0.087-1.136 0.261-1.616 0.217-0.699 0.829-1.267 1.573-1.441 0.315-0.063 0.677-0.099 1.047-0.099s0.732 0.036 1.083 0.105l-0.035-0.006c0.766 0.135 1.373 0.697 1.57 1.428l0.003 0.014c0.166 0.496 0.262 1.066 0.262 1.659s-0.096 1.164-0.273 1.697l0.011-0.038c-0.219 0.697-0.831 1.267-1.528 1.44-0.315 0.063-0.677 0.099-1.048 0.099s-0.733-0.036-1.083-0.105l0.035 0.006c-0.132-0.041-0.305-0.085-0.436-0.131l1.484 4.105c1.399 0 2.751-0.263 4.061-0.655 1.331-0.471 2.339-1.551 2.701-2.896l0.007-0.030c0.291-1.015 0.458-2.18 0.458-3.385s-0.167-2.37-0.48-3.474l0.022 0.090c-0.437-1.355-1.441-2.445-2.708-2.927-1.21-0.436-2.606-0.688-4.061-0.688s-2.851 0.252-4.147 0.715l0.086-0.027c-1.355 0.351-2.359 1.443-2.796 2.797z"></path>
</svg>
