<!-- Generated by IcoMoon.io -->
<svg version="1.1" xmlns="http://www.w3.org/2000/svg" width="32" height="32" viewBox="0 0 32 32">
<title>codacy</title>
<path d="M5.177 13.1c0.806-2.896 2.659-5.267 5.115-6.731l0.052-0.029 0.053-0.028-2.404-4.151c-3.625 2.121-6.303 5.531-7.424 9.585l-0.027 0.112zM13.099 5.192c0.857-0.24 1.84-0.377 2.856-0.377 0.010 0 0.021 0 0.031 0h0.005v-4.793h-0.025c-0.003 0-0.007 0-0.010 0-1.498 0-2.947 0.205-4.323 0.588l0.225-0.054zM18.904 5.196c2.893 0.807 5.261 2.659 6.722 5.115l0.029 0.052 0.028 0.053 4.156-2.399c-2.121-3.624-5.528-6.301-9.581-7.424l-0.112-0.027zM0 16v0.008c0 1.467 0.197 2.887 0.567 4.236l-0.027-0.112 4.635-1.239c-0.24-0.852-0.379-1.831-0.379-2.842 0-0.014 0-0.028 0-0.041v0.002-0.011zM2.14 23.993c0.733 1.255 1.573 2.339 2.535 3.3l3.404-3.387c-0.66-0.661-1.239-1.402-1.722-2.208l-0.029-0.052-0.029-0.053zM7.993 29.84c2.266 1.344 4.995 2.139 7.909 2.139 0.017 0 0.033-0 0.049-0h0.024v-4.793h-0.005c-0.006 0-0.012 0-0.019 0-2.069 0-4.006-0.567-5.663-1.555l0.051 0.028 0.052 0.028zM25.679 21.607c-1.478 2.506-3.833 4.361-6.633 5.159l-0.079 0.019-0.079 0.019 1.241 4.635c4.165-1.147 7.575-3.817 9.661-7.36l0.041-0.075zM31.436 20.295c0.357-1.263 0.564-2.713 0.564-4.212 0-1.449-0.192-2.853-0.553-4.189l0.025 0.112-4.648 1.241c0.233 0.853 0.367 1.832 0.367 2.843 0 1.053-0.145 2.073-0.417 3.040l0.019-0.079z"></path>
</svg>
