<!-- Generated by IcoMoon.io -->
<svg version="1.1" xmlns="http://www.w3.org/2000/svg" width="32" height="32" viewBox="0 0 32 32">
<title>codefactor</title>
<path fill="#f44a6a" d="M7.16 3.533c0 0.004 0 0.009 0 0.013 0 1.935-1.561 3.505-3.492 3.52h-0.001c-1.938-0.008-3.507-1.581-3.507-3.52 0-0.005 0-0.009 0-0.014v0.001c-0-0.004-0-0.009-0-0.013 0-1.939 1.568-3.512 3.506-3.52h0.001c1.933 0.015 3.493 1.585 3.493 3.52 0 0.005 0 0.009-0 0.014v-0.001zM7.16 16c0 0.004 0 0.009 0 0.013 0 1.935-1.561 3.505-3.492 3.52h-0.001c-1.938-0.008-3.507-1.581-3.507-3.52 0-0.005 0-0.009 0-0.014v0.001c-0-0.004-0-0.009-0-0.013 0-1.939 1.568-3.512 3.506-3.52h0.001c1.933 0.015 3.493 1.585 3.493 3.52 0 0.005 0 0.009-0 0.014v-0.001zM7.16 28.467c0 0.004 0 0.009 0 0.013 0 1.935-1.561 3.505-3.492 3.52h-0.001c-1.938-0.008-3.507-1.581-3.507-3.52 0-0.005 0-0.009 0-0.014v0.001c-0-0.004-0-0.009-0-0.013 0-1.939 1.568-3.512 3.506-3.52h0.001c1.933 0.015 3.493 1.585 3.493 3.52 0 0.005 0 0.009-0 0.014v-0.001zM15.080 0c-1.927 0.023-3.48 1.59-3.48 3.52 0 0.005 0 0.010 0 0.014v-0.001c-0 0.004-0 0.009-0 0.014 0 1.925 1.546 3.49 3.464 3.52l0.003 0h13.253c1.938-0.008 3.507-1.581 3.507-3.52 0-0.005 0-0.009-0-0.014v0.001c0-0.004 0-0.009 0-0.013 0-1.935-1.561-3.505-3.492-3.52h-0.001zM11.6 16c-0-0.004-0-0.009-0-0.013 0-1.935 1.561-3.505 3.492-3.52h7.575c1.921 0.030 3.467 1.594 3.467 3.52 0 0.005 0 0.010-0 0.014v-0.001c0 0.004 0 0.009 0 0.014 0 1.925-1.546 3.49-3.464 3.52l-0.003 0h-7.6c-1.921-0.030-3.467-1.594-3.467-3.52 0-0.005 0-0.010 0-0.014v0.001z"></path>
</svg>
