<!-- Generated by IcoMoon.io -->
<svg version="1.1" xmlns="http://www.w3.org/2000/svg" width="32" height="32" viewBox="0 0 32 32">
<title>codeship</title>
<path fill="#3c4858" d="M16.071 0c-1.296 0-3.197 0.54-3.197 1.016v2.823c0.96-0.21 2.072-0.341 3.21-0.362l0.017-0c1.16 0.026 2.273 0.151 3.353 0.367l-0.122-0.020v-2.792c0-0.489-1.967-1.032-3.26-1.031zM16.1 5.049c-2.723 0-6.757 1.116-6.757 1.591v3.46c1.923-1.352 4.142-2.472 6.516-3.247l0.177-0.050c0.016-0.017 3.737 0.999 6.949 3.327l0.004 0.004v-3.493c0-0.493-4.168-1.591-6.889-1.591zM16.133 8.493c-1.017 0.263-2.019 0.74-2.952 1.183-2.137 1.019-3.976 2.252-5.61 3.71l0.023-0.020c1.803 1.837 2.881 4.147 3.539 6.293l0.049 0.151 0.053 0.049-0.069-0.049c-0.017-0.017-2.164-2.215-5.296-2.215-1.656 0-3.573 0.608-5.591 2.444 0.196 0.688 0.427 1.341 0.704 1.997v0.021l0.033 0.063c2.672 6.1 8.933 10.071 15.591 9.875 6.527-0.196 12.464-4.415 14.84-10.479 0.131-0.328 0.245-0.675 0.363-1.003-2.248-1.672-5.776-3.752-7.135-3.489v-0.004c-1.035 0.199-2.248 1.688-3.805 3.18 0.624-2.213 1.743-4.687 3.776-6.819-0.5-0.457-1.040-0.904-1.602-1.322l-0.055-0.039v-0.016c-2.033-1.511-4.397-2.805-6.856-3.511zM16.12 9.689l0.816 4.067-0.196 3.56-0.591 5.279v0.024l-0.067-0.008c-0.008-0.001-0.020-0.011-0.029-0.013v-0.036l-0.657-5.263-0.163-3.539zM17.32 22.789l0.028 0.005c0.001 0.003-0.062 0.028-0.126 0.053l-0.065 0.022c0.053-0.031 0.107-0.048 0.163-0.080z"></path>
</svg>
