<!-- Generated by IcoMoon.io -->
<svg version="1.1" xmlns="http://www.w3.org/2000/svg" width="32" height="32" viewBox="0 0 32 32">
<title>codecademy</title>
<path fill="#1f4056" d="M31.769 26.307h-7.46c-0.125 0-0.227 0.077-0.227 0.229v2.020c0 0.125 0.077 0.227 0.229 0.227h7.459c0.128 0 0.229-0.059 0.229-0.219v-2.020c0-0.14-0.076-0.221-0.231-0.221v-0.019zM21.951 3.287c0.021 0.047 0.040 0.091 0.063 0.16v25.053c0 0.081-0.027 0.128-0.049 0.152-0.041 0.049-0.103 0.080-0.172 0.080-0.003 0-0.006-0-0.009-0h-21.58c-0.051 0-0.1 0-0.129-0.027-0.046-0.044-0.075-0.106-0.075-0.175 0-0.001 0-0.003 0-0.004v0-25.105c0-0.101 0.053-0.179 0.128-0.2h21.656c0.053 0 0.128 0.023 0.153 0.045v0.021zM2.424 26.1c0 0.097 0.051 0.181 0.128 0.204h16.857c0.077-0.025 0.128-0.101 0.128-0.205v-20.227c0-0.097-0.052-0.179-0.131-0.2h-16.853c-0.075 0.027-0.128 0.097-0.128 0.2l-0.004 20.227zM9.323 14.935c0.867 0 1.352 0.236 1.861 0.825 0.077 0.1 0.204 0.125 0.307 0.047l1.379-1.227c0.1-0.059 0.077-0.219 0.027-0.299-0.847-1.019-2.072-1.659-3.653-1.659-2.12 0-3.72 1.060-4.34 2.941-0.22 0.66-0.32 1.501-0.32 2.639 0 1.14 0.1 1.979 0.34 2.64 0.62 1.901 2.22 2.94 4.34 2.94 1.6 0 2.82-0.64 3.66-1.621 0.060-0.099 0.080-0.22-0.020-0.301l-1.383-1.22c-0.097-0.063-0.217-0.063-0.299 0.036-0.52 0.6-1.060 0.92-1.939 0.92-0.941 0-1.66-0.46-1.96-1.38-0.181-0.52-0.221-1.16-0.221-1.977 0-0.82 0.060-1.424 0.24-1.961 0.32-0.879 1.021-1.343 1.981-1.343z"></path>
</svg>
