<!-- Generated by IcoMoon.io -->
<svg version="1.1" xmlns="http://www.w3.org/2000/svg" width="32" height="32" viewBox="0 0 32 32">
<title>coderwall</title>
<path fill="#3e8dcc" d="M28.472 24.944c1.947 0 3.528 1.58 3.528 3.528 0 1.947-1.581 3.528-3.528 3.528s-3.528-1.581-3.528-3.528c0-1.944 1.58-3.528 3.528-3.528zM16 12.472c1.947 0 3.528 1.581 3.528 3.528s-1.581 3.528-3.528 3.528-3.528-1.581-3.528-3.528 1.581-3.528 3.528-3.528zM28.472 12.472c1.947 0 3.528 1.581 3.528 3.528s-1.581 3.528-3.528 3.528-3.528-1.581-3.528-3.528 1.58-3.528 3.528-3.528zM16 0c1.947 0 3.528 1.58 3.528 3.528 0 1.947-1.581 3.528-3.528 3.528s-3.528-1.581-3.528-3.528 1.581-3.528 3.528-3.528zM3.528 0c1.947 0 3.528 1.58 3.528 3.528 0 1.947-1.581 3.528-3.528 3.528s-3.528-1.581-3.528-3.528 1.581-3.528 3.528-3.528zM28.472 0c1.947 0 3.528 1.58 3.528 3.528 0 1.947-1.581 3.528-3.528 3.528s-3.528-1.581-3.528-3.528 1.58-3.528 3.528-3.528z"></path>
</svg>
