<!-- Generated by IcoMoon.io -->
<svg version="1.1" xmlns="http://www.w3.org/2000/svg" width="32" height="32" viewBox="0 0 32 32">
<title>coffeescript</title>
<path d="M6.187 9.96c2.8 0.707 6.373 1.067 10.68 1.067 4.4 0 7.893-0.36 10.68-1.067 2.973-0.693 4.4-1.627 4.4-2.507 0-0.627-0.64-1.24-1.8-1.707 0.267 0.173 0.467 0.467 0.467 0.787 0 0.893-1.347 1.627-4.053 2.24-2.507 0.547-5.707 0.933-9.6 0.933-3.76 0-7.107-0.387-9.52-0.907-2.6-0.64-3.96-1.333-3.96-2.24 0-0.373 0.173-0.693 0.693-1.067-1.627 0.627-2.507 1.16-2.507 1.96 0.093 0.907 1.547 1.813 4.52 2.507zM12.44 7.080c3.027-0.267 3.907-2.213 7.453-2.533 1.747-0.133 2.853 0.213 2.973 0.827 0.107 0.573-0.76 0.96-1.813 1.040-1.453 0.147-2.053-0.373-2.173-0.867-1.080 0.12-1.253 0.573-1.2 0.893 0.12 0.613 1.427 1.227 3.667 1.013 2.533-0.2 3.387-1.2 3.173-2.2-0.267-1.307-2.213-2.4-5.707-2.067-4.48 0.4-4.453 2.48-7.507 2.733-1.253 0.12-1.947-0.173-2.067-0.667-0.080-0.493 0.533-0.733 1.253-0.787 0.667-0.067 1.48 0.053 1.867 0.267 0.28-0.147 0.373-0.293 0.347-0.467-0.133-0.467-1.053-0.667-2.213-0.587-2.267 0.2-2.267 1.213-2.187 1.667 0.227 1.16 1.973 1.933 4.133 1.733zM27.667 12.2c-2.8 0.653-6.373 1.080-10.68 1.080-4.4 0-7.987-0.453-10.773-1.067-2.507-0.64-3.84-1.347-4.307-2.080 0.24 1.64 0.653 3.227 1.187 4.733-0.64 0.4-1.213 0.893-1.733 1.56-0.852 1.032-1.368 2.367-1.368 3.823 0 0.109 0.003 0.217 0.009 0.325l-0.001-0.015c0.103 1.43 0.818 2.674 1.882 3.485l0.012 0.009c1.16 0.907 2.413 1.173 3.84 0.907 0.547-0.093 1.16-0.373 1.72-0.56-1.173 0-2.16-0.373-3.147-1.16-1.058-0.742-1.792-1.884-1.984-3.201l-0.003-0.026c-0.267-1.253 0-2.413 0.707-3.44 0.16-0.2 0.333-0.373 0.52-0.533 0.4 0.973 0.827 1.933 1.307 2.827 1.080 1.64 2.16 3.067 3.24 4.613 0.467 0.907 0.773 1.8 0.987 2.693 0.715 0.979 1.744 1.692 2.937 1.992l0.036 0.008c1.533 0.533 3.133 0.773 4.773 0.68h0.173c0.177 0.008 0.385 0.013 0.594 0.013 1.548 0 3.035-0.259 4.421-0.735l-0.096 0.029c1.179-0.352 2.166-1.049 2.87-1.973l0.010-0.014h0.093c0.173-0.893 0.467-1.787 0.893-2.693 1.067-1.56 2.16-2.973 3.227-4.613 1.39-2.52 2.432-5.45 2.963-8.554l0.023-0.166c-0.573 0.8-1.92 1.507-4.333 2.053z"></path>
</svg>
