<!-- Generated by IcoMoon.io -->
<svg version="1.1" xmlns="http://www.w3.org/2000/svg" width="32" height="32" viewBox="0 0 32 32">
<title>coinbase</title>
<path fill="#0667d0" d="M3.188 18.481c0.119 0.26 0.272 0.493 0.455 0.699-0.361 0.197-0.79 0.314-1.246 0.314-0.013 0-0.026-0-0.040-0l0.002 0c-1.367 0-2.359-0.901-2.359-2.339 0-1.448 1.043-2.349 2.359-2.349 0.468 0 0.837 0.101 1.211 0.3-0.175 0.213-0.317 0.456-0.427 0.721-0.202-0.083-0.437-0.131-0.683-0.131-0.004 0-0.007 0-0.011 0h0.001c-0.809 0-1.437 0.517-1.437 1.459 0 0.891 0.608 1.459 1.479 1.459 0.249 0 0.48-0.045 0.697-0.132zM5.937 14.805c1.347 0 2.319 0.952 2.319 2.349 0 1.387-0.972 2.339-2.319 2.339-1.336 0-2.308-0.952-2.308-2.339 0-1.397 0.972-2.349 2.308-2.349zM5.937 15.665c-0.749 0-1.296 0.577-1.296 1.489 0 0.901 0.547 1.479 1.296 1.479 0.769 0 1.307-0.577 1.307-1.479 0-0.912-0.537-1.489-1.307-1.489zM8.893 19.392v-4.485h1.001v4.485zM8.761 13.529c0.022-0.329 0.295-0.588 0.628-0.588s0.606 0.259 0.628 0.586l0 0.002c-0.001 0.348-0.281 0.631-0.627 0.637h-0.001c-0.347-0.007-0.627-0.289-0.628-0.637v-0zM10.769 15.191c0.609-0.237 1.314-0.378 2.052-0.385l0.003-0c1.144 0 1.873 0.435 1.873 1.701v2.885h-0.992v-2.795c0-0.648-0.405-0.881-0.961-0.881-0.008-0-0.017-0-0.026-0-0.337 0-0.663 0.048-0.97 0.138l0.024-0.006v3.544h-1.003zM15.536 12.507h1.003v2.521c0.212-0.112 0.628-0.223 1.021-0.223 1.296 0 2.268 0.831 2.268 2.268 0 1.448-0.961 2.42-2.621 2.42-0.648 0-1.215-0.131-1.671-0.293zM16.539 18.543c0.192 0.060 0.445 0.091 0.699 0.091 0.92 0 1.579-0.507 1.579-1.54 0-0.871-0.617-1.387-1.376-1.387-0.010-0-0.022-0-0.033-0-0.317 0-0.616 0.079-0.878 0.217l0.010-0.005zM22.723 16.385c0-0.487-0.364-0.709-0.86-0.709-0.479 0.002-0.926 0.137-1.307 0.37l0.011-0.006v-0.871c0.413-0.229 0.905-0.364 1.43-0.364 0.010 0 0.020 0 0.029 0h-0.002c0.983 0 1.68 0.405 1.68 1.529v2.967c-0.461 0.115-0.991 0.181-1.536 0.183h-0.001c-1.164 0-2.015-0.355-2.015-1.368 0-0.911 0.779-1.356 2.075-1.356h0.496zM22.723 17.428h-0.425c-0.699 0-1.153 0.203-1.153 0.659 0 0.465 0.425 0.648 1.032 0.648 0.152 0 0.365-0.021 0.547-0.051zM24.433 18.177c0.415 0.313 0.911 0.507 1.367 0.507 0.445 0 0.739-0.152 0.739-0.507 0-0.365-0.263-0.496-0.84-0.648-0.931-0.213-1.327-0.588-1.327-1.367 0-0.912 0.689-1.357 1.6-1.357 0.507 0 0.911 0.111 1.285 0.344v0.921c-0.395-0.283-0.779-0.456-1.255-0.456-0.436 0-0.668 0.213-0.668 0.507s0.192 0.445 0.708 0.588c1.023 0.223 1.468 0.607 1.468 1.417 0 0.941-0.719 1.367-1.691 1.367-0.527 0-1.052-0.141-1.387-0.364zM28.883 17.377v0.020c0.060 0.8 0.749 1.236 1.447 1.236 0.617 0 1.064-0.143 1.508-0.436v0.881c-0.404 0.284-1.001 0.415-1.579 0.415-1.396 0-2.348-0.891-2.348-2.308 0-1.428 0.931-2.38 2.167-2.38 1.305 0 1.923 0.84 1.923 2.065v0.507zM31.059 16.729c-0.020-0.699-0.364-1.084-1.012-1.084-0.577 0-1.003 0.405-1.133 1.084z"></path>
</svg>
