<!-- Generated by IcoMoon.io -->
<svg version="1.1" xmlns="http://www.w3.org/2000/svg" width="32" height="32" viewBox="0 0 32 32">
<title>compropago</title>
<path fill="#00aaef" d="M25.76 10.371h-0.004c-0.805-0.805-2.011-0.805-2.813 0l-12.657 12.66c-0.6 0.603-1.6 1.007-2.616 1.007-1 0-2-0.404-2.803-1.205-0.8-0.804-1.204-1.807-1.204-2.813 0-1.005 0.4-2.009 1.2-2.813l11.853-11.857c-1.608-1.607-4.020-1.607-5.629 0l-8.84 9.044c-3.017 3.016-3.017 8.040 0 11.253 3.013 3.019 8.037 3.019 11.253 0l12.46-12.459c0.604-0.807 0.604-2.009-0.2-2.816zM29.573 6.363v-0.013c-3.013-3.013-8.037-3.013-11.251 0l-12.253 12.463c-0.8 0.804-0.8 2.009 0 2.813 0.813 0.804 2.016 0.804 2.816 0l0.2-0.2 1.213-1.207 9.245-9.247 1.992-2.007c0.6-0.604 1.607-1.005 2.613-1.005s2.009 0.403 2.811 1.207c0.807 0.813 1.205 1.816 1.205 2.817 0 1-0.4 2.016-1.205 2.813l-11.857 11.853c1.609 1.616 4.019 1.616 5.627 0l9.048-9.035c3.016-3.217 3.016-8.036-0.204-11.253z"></path>
</svg>
