<!-- Generated by IcoMoon.io -->
<svg version="1.1" xmlns="http://www.w3.org/2000/svg" width="32" height="32" viewBox="0 0 32 32">
<title>conda-forge</title>
<path d="M10.941 7.821l0.007 0.528h-1.943l0.008 0.873v0.007l-9.011 0.003v0.281l-0.003 1.117 0.027 0.055c0.283 0.623 0.884 1.201 1.676 1.751 0.792 0.548 1.78 1.061 2.86 1.507 2.16 0.885 4.669 1.493 6.675 1.467 0.995-0.013 1.687 0.304 2.16 0.896 0.455 0.568 0.68 1.456 0.699 2.56l-3.509 2.787 0.011 2.528h16.456l-0.005-2.347-3.507-2.96c0.073-2.684 0.944-4.591 2.369-5.873 1.449-1.305 3.48-1.987 5.827-2.155l0.26-0.020 0.003-2.996zM11.508 8.384l19.928 0.008-0.005 1.943c-2.316 0.207-4.387 0.888-5.899 2.247-1.216 1.096-1.911 2.749-2.255 4.712l-2.156 0.005 0.003 0.563 2.047-0.005c-0.036 0.301-0.151 0.533-0.164 0.853l-1.191-0.004-0.003 0.563 1.327 0.005 2.851 2.403-3.921 0.003c-0.965-0.9-2.069-1.488-3.221-1.544-1.089-0.053-2.184 0.432-3.183 1.387l-3.971-0.032 2.997-2.375v-0.136c0.003-1.257-0.267-2.293-0.853-3.025-0.528-0.661-1.343-0.999-2.321-1.053l-0.011-5.987h0.011zM9.575 8.912h1.368l0.011 5.872c-1.849-0.027-4.167-0.539-6.175-1.364-1.049-0.432-2.009-0.931-2.755-1.448-0.733-0.505-1.241-1.035-1.459-1.492v-0.685l8.448-0.003v2.88h0.563v-2.88h0.005l-0.005-0.58zM18.821 20.697c1 0.049 2.004 0.581 2.907 1.437l-0.003 1.483h-5.793l-0.008-1.6c0.941-0.956 1.924-1.368 2.897-1.32zM11.147 22.049l4.213 0.031 0.008 1.537h-4.213zM26.48 22.239l0.003 1.379h-4.197v-1.377z"></path>
</svg>
