<!-- Generated by IcoMoon.io -->
<svg version="1.1" xmlns="http://www.w3.org/2000/svg" width="32" height="32" viewBox="0 0 32 32">
<title>coronarenderer</title>
<path fill="#e6502a" d="M26.312 15.471c0.104 0.501 0.155 1.013 0.155 1.525 0 1.92-0.749 3.795-2.075 5.185-1.319 1.383-3.144 2.224-5.052 2.321-1.927 0.099-3.847-0.557-5.305-1.82-1.439-1.244-2.368-3.020-2.561-4.912-0.197-1.927 0.364-3.885 1.56-5.409 1.169-1.491 2.891-2.505 4.765-2.793 1.919-0.296 3.912 0.169 5.497 1.293 1.54 1.092 2.635 2.757 3.016 4.609zM32 8v16c0 4.419-3.581 8-8 8h-16c-4.419 0-8-3.581-8-8v-16c0-4.419 3.581-8 8-8h16c4.419 0 8 3.581 8 8zM29.104 12.644c-0.62-1.864-1.699-3.565-3.112-4.929-1.367-1.317-3.039-2.308-4.852-2.869 0.212 0.564 0.319 1.165 0.317 1.768-1.479-1.94-3.745-3.2-6.176-3.419-1.483-0.133-2.993 0.112-4.353 0.717 1.105 0.343 2.073 1.076 2.707 2.044-2.457-0.877-5.248-0.6-7.481 0.748-0.912 0.551-1.721 1.269-2.379 2.108 1.535-0.329 3.167 0.092 4.349 1.124-0.987 0.945-2.339 1.449-3.704 1.385 0.205 0.335 0.449 0.643 0.725 0.919-0.013 0.023-0.028 0.045-0.041 0.068-0.928 0.419-1.717 1.123-2.24 1.995-0.584 0.972-0.817 2.133-0.664 3.256 0.088 0.641 0.301 1.263 0.625 1.823-0.144-1.245 0.912-2.344 2.163-2.248 1.228 0.095 2.101 1.311 1.801 2.507-0.213 0.847-0.976 1.476-1.848 1.523 1.16 2.063 3.149 3.601 5.44 4.195 0.811 0.209 1.651 0.301 2.488 0.275-0.628 0.477-1.372 0.811-2.183 0.948 1.991 1.355 4.367 2.089 6.773 2.104 1.94 0.012 3.873-0.44 5.603-1.321 1.665-0.848 3.127-2.083 4.245-3.579 1.135-1.519 1.907-3.3 2.235-5.168 0.347-1.987 0.197-4.057-0.439-5.972z"></path>
</svg>
