<!-- Generated by IcoMoon.io -->
<svg version="1.1" xmlns="http://www.w3.org/2000/svg" width="32" height="32" viewBox="0 0 32 32">
<title>coursera</title>
<path fill="#2a73cc" d="M31.989 15.741c-0.005-0.142-0.014-0.271-0.026-0.399l0.002 0.027v-0.005c-0.125-1.412-0.601-2.692-1.338-3.78l0.018 0.028c-0.349-0.521-0.729-0.974-1.153-1.383l-0.003-0.002c-0.625-0.598-1.346-1.101-2.137-1.485l-0.050-0.022c-1.167-0.562-2.537-0.891-3.985-0.891-0.029 0-0.059 0-0.088 0l0.004-0c-0.012-0-0.026-0-0.040-0-1.204 0-2.357 0.217-3.422 0.614l0.068-0.022c-0.93 0.329-1.735 0.779-2.447 1.342l0.018-0.014c-0.164 0.134-0.309 0.26-0.449 0.391l0.005-0.005-0.113 0.113-0.156 0.167h0.001l-0.075 0.073-0.035 0.037-0.188 0.196c-0.139 0.156-0.269 0.312-0.395 0.465v-0.003l-0.005-0.004c-0.256 0.311-0.493 0.635-0.667 0.924-0.119 0.187-0.235 0.377-0.345 0.569l-1.529 3.092 0.003 0.001-0.080 0.157-0.168 0.341c-0.335 0.679-0.695 1.356-1.095 1.913-0.896 0.983-1.908 1.464-3.208 1.464-0.091 0-0.185-0.004-0.279-0.011-0.784-0.031-1.456-0.216-2.052-0.569-0.564-0.328-1.016-0.795-1.316-1.355l-0.009-0.018c-0.275-0.492-0.437-1.079-0.437-1.705 0-0.042 0.001-0.085 0.002-0.127l-0 0.006 0.003-0.045c0.041-1.013 0.428-1.803 1.205-2.481 0.189-0.165 0.388-0.304 0.595-0.427 0.028-0.017 0.059-0.032 0.087-0.048 0.579-0.316 1.236-0.473 1.989-0.473l0.235 0.007c1.199 0.045 2.123 0.419 2.86 1.151l2.312-4.151c-0.537-0.36-1.152-0.679-1.803-0.926l-0.063-0.021c-0.025-0.009-0.053-0.021-0.080-0.029-0.083-0.029-0.164-0.060-0.248-0.087-0.669-0.229-1.447-0.393-2.252-0.462l-0.036-0.002c-0.058-0.007-0.079-0.010-0.1-0.012l0.039 0.004c-0.121-0.007-0.245-0.021-0.367-0.027-0.112-0.005-0.251-0.008-0.39-0.009l-0.006-0h-0.073c-0.015-0-0.033-0-0.051-0-1.448 0-2.819 0.33-4.042 0.918l0.056-0.024c-1.375 0.661-2.503 1.646-3.317 2.858l-0.019 0.030c-0.849 1.251-1.355 2.795-1.355 4.457 0 0.018 0 0.036 0 0.054v-0.003c-0.003 2.085 0.757 3.917 2.268 5.457 1.579 1.615 3.628 2.485 6.089 2.588 0.157 0.007 0.313 0.011 0.471 0.011 1.393 0 2.681-0.248 3.837-0.744 0.289-0.124 0.569-0.268 0.856-0.429 0.156-0.089 0.304-0.185 0.451-0.287l0.107-0.073 0.183-0.124c0.219-0.157 0.423-0.328 0.623-0.508l0.069-0.067c0.117-0.111 0.235-0.224 0.345-0.34l0.415-0.469 0.157-0.197 0.075-0.108 0.073-0.105c0.616-1.035 2.62-4.801 2.62-4.801v-0.008l0.12-0.229 0.099-0.18c0.296-0.537 0.509-0.919 0.792-1.32l0.008-0.013c0.657-0.956 1.792-1.636 3.128-1.751 2.24-0.193 4.203 1.279 4.383 3.287 0.18 2.009-1.489 3.795-3.731 3.988-0.117 0.011-0.252 0.017-0.389 0.017-0.34 0-0.671-0.037-0.989-0.108l0.030 0.006-0.012 0.004c-1.643-0.343-2.689-1.54-3.205-2.077l-2.156 3.965c0 0 0.671 0.675 1.129 1.012 0.461 0.337 1.055 0.668 1.528 0.875 1.115 0.496 2.416 0.785 3.784 0.785h0c0.161 0 0.129 0 0.296-0.007 2.459-0.103 4.652-1.045 6.233-2.66 1.497-1.533 2.311-3.284 2.317-5.357v-0.063z"></path>
</svg>
