<!-- Generated by IcoMoon.io -->
<svg version="1.1" xmlns="http://www.w3.org/2000/svg" width="32" height="32" viewBox="0 0 32 32">
<title>coveralls</title>
<path fill="#3f5767" d="M0 16v16h32v-32h-32zM17.593 7.751l1.556 4.687 3.007 0.007c1.651 0.007 3.888 0.025 4.969 0.049l1.963 0.037-3.957 2.869c-2.173 1.575-3.968 2.907-3.987 2.949-0.013 0.044 0.649 2.169 1.475 4.72 0.825 2.556 1.493 4.649 1.488 4.656-0.007 0.013-1.8-1.263-3.981-2.825-2.181-1.569-4-2.863-4.044-2.881-0.037-0.013-1.881 1.263-4.093 2.851-2.207 1.58-4.027 2.868-4.032 2.856-0.005-0.007 0.663-2.1 1.488-4.656 0.825-2.551 1.487-4.676 1.475-4.72-0.019-0.043-1.813-1.373-3.987-2.949l-3.959-2.869 1.963-0.037c1.081-0.024 3.32-0.043 4.969-0.049l3.005-0.007 1.557-4.687c1.935-6.378 2.466-7.936 3.003-9.49l-1.442 4.802c0.007 0 0.707 2.107 1.564 4.688z"></path>
</svg>
