<!-- Generated by IcoMoon.io -->
<svg version="1.1" xmlns="http://www.w3.org/2000/svg" width="32" height="32" viewBox="0 0 32 32">
<title>cpanel</title>
<path fill="#ff6c2c" d="M6.115 12.461c-0.004-0-0.009-0-0.013-0-0.167 0-0.32 0.057-0.442 0.152l0.002-0.001c-0.126 0.099-0.219 0.236-0.261 0.393l-0.001 0.005-1.745 6.528h1.229c0.002 0 0.005 0 0.007 0 0.165 0 0.317-0.057 0.437-0.152l-0.001 0.001c0.126-0.096 0.22-0.229 0.265-0.383l0.001-0.005 1.291-4.805h0.992c0.001 0 0.003 0 0.005 0 0.153 0 0.297 0.038 0.423 0.105l-0.005-0.002c0.128 0.066 0.235 0.155 0.318 0.263l0.002 0.002c0.080 0.106 0.14 0.231 0.171 0.368l0.001 0.007c0.014 0.058 0.021 0.124 0.021 0.192 0 0.087-0.013 0.17-0.036 0.249l0.002-0.006c-0.106 0.406-0.469 0.701-0.901 0.701h-0.513c-0.003-0-0.006-0-0.009-0-0.167 0-0.32 0.057-0.441 0.152l0.002-0.001c-0.126 0.096-0.22 0.229-0.265 0.383l-0.001 0.005-0.32 1.195h1.601c0.002 0 0.004 0 0.006 0 0.895 0 1.684-0.455 2.148-1.147l0.006-0.009c0.151-0.224 0.272-0.484 0.349-0.763l0.004-0.019 0.036-0.133c0.059-0.202 0.093-0.434 0.093-0.673 0-0.19-0.021-0.375-0.062-0.553l0.003 0.017c-0.174-0.785-0.68-1.427-1.36-1.78l-0.015-0.007c-0.334-0.177-0.73-0.28-1.15-0.28-0.008 0-0.017 0-0.025 0h0.001zM30.711 12.461c-0.003-0-0.006-0-0.009-0-0.122 0-0.235 0.041-0.325 0.11l0.001-0.001c-0.092 0.070-0.159 0.171-0.186 0.286l-0.001 0.003-1.779 6.68c0.003 0 0.006 0 0.009 0 0.269 0 0.527-0.047 0.767-0.133l-0.016 0.005c0.253-0.090 0.472-0.21 0.667-0.359l-0.006 0.004c0.2-0.154 0.37-0.333 0.508-0.536l0.005-0.008c0.138-0.203 0.245-0.439 0.309-0.693l0.003-0.015 1.328-4.928c0.009-0.027 0.014-0.058 0.014-0.090 0-0.076-0.028-0.146-0.074-0.2l0 0c-0.061-0.077-0.154-0.127-0.259-0.127-0.003 0-0.005 0-0.008 0h0zM11.175 14.191l-0.177 0.671c-0.016 0.057-0.024 0.123-0.024 0.19 0 0.055 0.006 0.109 0.017 0.161l-0.001-0.005c0.023 0.113 0.070 0.212 0.135 0.296l-0.001-0.002c0.066 0.085 0.148 0.154 0.243 0.203l0.004 0.002c0.095 0.050 0.207 0.080 0.327 0.080 0.003 0 0.007-0 0.010-0h2.875c0.002-0 0.004-0 0.007-0 0.043 0 0.081 0.020 0.105 0.051l0 0c0.016 0.022 0.026 0.049 0.026 0.078 0 0.014-0.002 0.027-0.006 0.040l0-0.001-0.027 0.096-0.432 1.601-0.017 0.073c-0.012 0.058-0.044 0.107-0.089 0.14l-0.001 0c-0.045 0.033-0.101 0.053-0.162 0.053-0.002 0-0.005-0-0.007-0h-1.741c-0.001 0-0.003 0-0.005 0-0.063 0-0.119-0.030-0.155-0.076l-0-0c-0.028-0.032-0.044-0.073-0.044-0.119 0-0.019 0.003-0.038 0.009-0.056l-0 0.001c0.029-0.099 0.095-0.149 0.196-0.149h1.077c0.002 0 0.005 0 0.008 0 0.165 0 0.316-0.056 0.436-0.151l-0.002 0.001c0.126-0.097 0.22-0.231 0.265-0.385l0.001-0.005 0.176-0.664h-2.413c-0.001 0-0.002 0-0.003 0-0.181 0-0.354 0.032-0.514 0.090l0.011-0.003c-0.165 0.059-0.307 0.138-0.434 0.237l0.003-0.003c-0.132 0.103-0.245 0.222-0.338 0.356l-0.003 0.005c-0.092 0.132-0.164 0.286-0.206 0.452l-0.002 0.010-0.037 0.133c-0.034 0.117-0.053 0.251-0.053 0.39 0 0.114 0.013 0.224 0.038 0.331l-0.002-0.010c0.053 0.236 0.151 0.444 0.286 0.623l-0.003-0.004c0.281 0.369 0.72 0.604 1.214 0.604 0.004 0 0.007 0 0.011-0h-0.001l2.876 0.008c0.002 0 0.005 0 0.008 0 0.553 0 1.019-0.375 1.157-0.885l0.002-0.008 0.7-2.6c0.030-0.111 0.047-0.239 0.047-0.37 0-0.112-0.012-0.22-0.036-0.325l0.002 0.010c-0.050-0.227-0.145-0.426-0.276-0.595l0.003 0.003c-0.135-0.172-0.303-0.311-0.494-0.412l-0.008-0.004c-0.188-0.101-0.412-0.16-0.649-0.16-0.005 0-0.010 0-0.015 0h0.001zM2.645 14.204c-0.002 0-0.005 0-0.007 0-0.302 0-0.592 0.052-0.862 0.148l0.018-0.006c-0.282 0.099-0.526 0.232-0.744 0.398l0.006-0.005c-0.447 0.345-0.776 0.823-0.929 1.375l-0.004 0.018-0.036 0.133c-0.056 0.2-0.088 0.43-0.088 0.667 0 0.191 0.021 0.377 0.060 0.557l-0.003-0.017c0.086 0.401 0.254 0.754 0.486 1.054l-0.004-0.006c0.238 0.306 0.535 0.555 0.876 0.732l0.015 0.007c0.334 0.177 0.73 0.28 1.15 0.28 0.008 0 0.017-0 0.025-0h0.617l0.355-1.311c0.009-0.027 0.014-0.058 0.014-0.090 0-0.075-0.027-0.143-0.071-0.197l0 0c-0.059-0.078-0.151-0.128-0.255-0.128-0.003 0-0.006 0-0.009 0h-0.564c-0.002 0-0.005 0-0.007 0-0.152 0-0.296-0.036-0.424-0.101l0.005 0.002c-0.128-0.063-0.235-0.151-0.318-0.258l-0.002-0.002c-0.079-0.106-0.138-0.232-0.168-0.368l-0.001-0.006c-0.014-0.060-0.021-0.129-0.021-0.2 0-0.090 0.013-0.178 0.036-0.26l-0.002 0.007c0.060-0.205 0.18-0.377 0.339-0.501l0.002-0.002c0.15-0.116 0.341-0.187 0.549-0.187 0.004 0 0.008 0 0.012 0h0.929c0.003 0 0.006 0 0.009 0 0.167 0 0.321-0.057 0.443-0.153l-0.002 0.001c0.127-0.098 0.22-0.234 0.264-0.391l0.001-0.005 0.309-1.187zM17.419 14.204l-1.309 4.919c-0.009 0.027-0.014 0.058-0.014 0.090 0 0.076 0.028 0.146 0.074 0.2l-0-0c0.058 0.077 0.15 0.127 0.254 0.127 0.002 0 0.004-0 0.007-0h0.948c0.001 0 0.003 0 0.005 0 0.123 0 0.236-0.040 0.327-0.108l-0.002 0.001c0.093-0.067 0.162-0.164 0.19-0.277l0.001-0.003 0.859-3.213h0.993c0.003-0 0.007-0 0.011-0 0.151 0 0.293 0.037 0.418 0.102l-0.005-0.002c0.127 0.066 0.233 0.156 0.316 0.264l0.002 0.002c0.080 0.105 0.139 0.231 0.171 0.367l0.001 0.007c0.014 0.058 0.022 0.124 0.022 0.192 0 0.087-0.013 0.171-0.037 0.25l0.002-0.006-0.531 2.008c-0.009 0.028-0.013 0.059-0.013 0.092 0 0.179 0.145 0.324 0.324 0.324 0.003 0 0.007-0 0.010-0h0.95c0.001 0 0.003 0 0.004 0 0.121 0 0.233-0.040 0.323-0.108l-0.001 0.001c0.094-0.068 0.162-0.166 0.19-0.281l0.001-0.003 0.443-1.664c0.060-0.205 0.094-0.44 0.094-0.684 0-0.187-0.020-0.369-0.059-0.544l0.003 0.017c-0.085-0.403-0.253-0.757-0.486-1.059l0.005 0.006c-0.238-0.306-0.536-0.555-0.876-0.732l-0.015-0.007c-0.335-0.176-0.731-0.279-1.152-0.279-0.010 0-0.020 0-0.030 0h0.002zM25.143 14.204c-0.003-0-0.008-0-0.012-0-0.229 0-0.449 0.040-0.653 0.112l0.014-0.004c-0.418 0.147-0.762 0.417-0.998 0.766l-0.004 0.007c-0.118 0.174-0.212 0.375-0.27 0.591l-0.003 0.014-0.541 2.007c-0.034 0.114-0.054 0.245-0.054 0.38 0 0.105 0.012 0.208 0.035 0.306l-0.002-0.009c0.050 0.227 0.145 0.427 0.276 0.598l-0.003-0.004c0.134 0.173 0.302 0.314 0.494 0.412l0.008 0.004c0.187 0.097 0.409 0.153 0.644 0.153 0.007 0 0.014-0 0.021-0h3.335c0.002 0 0.005 0 0.007 0 0.165 0 0.317-0.057 0.437-0.152l-0.001 0.001c0.126-0.096 0.22-0.229 0.265-0.383l0.001-0.005 0.28-1.055h-3.664c-0.146-0.002-0.264-0.12-0.264-0.267 0-0.025 0.003-0.049 0.010-0.071l-0 0.002 0.399-1.503c0.029-0.088 0.081-0.161 0.15-0.215l0.001-0.001c0.064-0.053 0.147-0.085 0.238-0.085 0.001 0 0.001 0 0.002 0h1.643c0.112 0.001 0.203 0.092 0.203 0.204 0 0.019-0.003 0.037-0.007 0.055l0-0.001-0.035 0.133c-0.029 0.1-0.095 0.151-0.195 0.151h-1.080c-0.005-0-0.010-0-0.015-0-0.165 0-0.317 0.056-0.438 0.149l0.002-0.001c-0.124 0.096-0.215 0.231-0.254 0.386l-0.001 0.005-0.177 0.653h2.672c0.004 0 0.009 0 0.013 0 0.27 0 0.52-0.091 0.719-0.244l-0.003 0.002c0.208-0.157 0.36-0.379 0.425-0.636l0.002-0.008 0.16-0.6c0.031-0.114 0.049-0.244 0.049-0.378 0-0.108-0.012-0.214-0.034-0.315l0.002 0.010c-0.047-0.226-0.142-0.425-0.273-0.594l0.002 0.003c-0.134-0.172-0.301-0.312-0.492-0.413l-0.008-0.004c-0.188-0.1-0.41-0.159-0.647-0.159-0.006 0-0.012 0-0.018 0h0.001z"></path>
</svg>
