<!-- Generated by IcoMoon.io -->
<svg version="1.1" xmlns="http://www.w3.org/2000/svg" width="32" height="32" viewBox="0 0 32 32">
<title>creativecommons</title>
<path fill="#ef9421" d="M15.977 0c-4.389 0-8.253 1.623-11.237 4.647-3.073 3.112-4.74 7.145-4.74 11.353 0 4.252 1.623 8.197 4.696 11.267 3.073 3.067 7.067 4.733 11.281 4.733 4.213 0 8.296-1.667 11.457-4.777 2.985-2.937 4.565-6.84 4.565-11.223 0-4.34-1.581-8.285-4.611-11.311-3.072-3.067-7.023-4.689-11.412-4.689zM16.021 2.893c3.6 0 6.804 1.36 9.307 3.857 2.457 2.455 3.773 5.699 3.773 9.249 0 3.595-1.272 6.751-3.731 9.163-2.591 2.541-5.925 3.901-9.349 3.901-3.468 0-6.717-1.359-9.219-3.857-2.503-2.5-3.907-5.787-3.907-9.207 0-3.463 1.404-6.751 3.907-9.293 2.459-2.499 5.619-3.813 9.219-3.813zM11.573 11.037c-2.609 0-4.687 1.843-4.687 4.963 0 3.173 1.953 4.963 4.775 4.963 1.811 0 3.355-0.992 4.207-2.499l-1.988-1.011c-0.444 1.064-1.119 1.383-1.971 1.383-1.473 0-2.147-1.223-2.147-2.835 0-1.613 0.568-2.836 2.147-2.836 0.427 0 1.28 0.231 1.776 1.293l2.129-1.117c-0.907-1.648-2.449-2.304-4.241-2.304zM20.816 11.037c-2.609 0-4.685 1.843-4.685 4.963 0 3.173 1.952 4.963 4.773 4.963 1.812 0 3.355-0.992 4.207-2.499l-1.987-1.011c-0.444 1.064-1.12 1.383-1.971 1.383-1.473 0-2.148-1.223-2.148-2.835 0-1.613 0.568-2.836 2.147-2.836 0.427 0 1.28 0.231 1.776 1.293l2.129-1.117c-0.907-1.648-2.449-2.304-4.241-2.304z"></path>
</svg>
