<!-- Generated by IcoMoon.io -->
<svg version="1.1" xmlns="http://www.w3.org/2000/svg" width="32" height="32" viewBox="0 0 32 32">
<title>crunchbase</title>
<path fill="#0288d1" d="M28.8 0h-25.6c-1.764 0.008-3.192 1.436-3.2 3.199v25.601c0.008 1.764 1.436 3.192 3.199 3.2h25.601c1.764-0.008 3.192-1.436 3.2-3.199v-25.601c-0.008-1.764-1.436-3.192-3.199-3.2h-0.001zM9.393 19.287c0.343 0.16 0.744 0.253 1.167 0.253 1.131 0 2.106-0.667 2.553-1.629l0.007-0.017h2.213c-0.543 2.171-2.477 3.753-4.78 3.753-2.717 0-4.92-2.203-4.92-4.92s2.203-4.92 4.92-4.92c2.303 0 4.237 1.582 4.772 3.719l0.007 0.034h-2.213c-0.454-0.98-1.429-1.647-2.56-1.647-1.554 0-2.813 1.26-2.813 2.813 0 1.131 0.667 2.106 1.629 2.553l0.017 0.007zM24.52 20.413c-0.402 0.347-0.87 0.631-1.381 0.829l-0.032 0.011c-0.527 0.21-1.137 0.333-1.776 0.333-1.024 0-1.975-0.314-2.761-0.85l0.017 0.011v0.507h-2.013v-14.093h2v5.48c0.677-0.463 1.497-0.767 2.382-0.839l0.018-0.001h0.36c0.002 0 0.005 0 0.008 0 2.703 0 4.893 2.191 4.893 4.893 0 1.486-0.662 2.817-1.708 3.715l-0.007 0.005zM24.223 16.725c0 0.018 0.001 0.040 0.001 0.061 0 1.549-1.256 2.805-2.805 2.805s-2.805-1.256-2.805-2.805c0-0.021 0-0.043 0.001-0.064l-0 0.003c0.034-1.523 1.277-2.744 2.805-2.744s2.77 1.221 2.805 2.741l0 0.003z"></path>
</svg>
