<!-- Generated by IcoMoon.io -->
<svg version="1.1" xmlns="http://www.w3.org/2000/svg" width="32" height="32" viewBox="0 0 32 32">
<title>crunchyroll</title>
<path fill="#f47521" d="M3.911 17.956c-0.028-0.333-0.044-0.72-0.044-1.111 0-7.769 6.298-14.067 14.067-14.067s14.067 6.298 14.067 14.067c0 0.016-0 0.031-0 0.047v-0.892c0-8.836-7.164-16-16-16s-16 7.164-16 16 7.164 16 16 16h1.067c-7.349-0.536-13.114-6.61-13.156-14.040l-0-0.004zM25.6 18.667c-0.006 0-0.012 0-0.019 0-2.835 0-5.133-2.298-5.133-5.133 0-2.204 1.389-4.084 3.339-4.811l0.035-0.012c-1.437-0.784-3.147-1.246-4.966-1.246-0.067 0-0.134 0.001-0.2 0.002l0.010-0c-6.186 0-11.2 5.014-11.2 11.2s5.014 11.2 11.2 11.2c6.186 0 11.2-5.014 11.2-11.2v0c0.005-0.106 0.007-0.23 0.007-0.355 0-0.63-0.067-1.244-0.195-1.835l0.010 0.057c-0.818 1.293-2.241 2.139-3.861 2.139-0.080 0-0.16-0.002-0.24-0.006l0.011 0z"></path>
</svg>
