<!-- Generated by IcoMoon.io -->
<svg version="1.1" xmlns="http://www.w3.org/2000/svg" width="32" height="32" viewBox="0 0 32 32">
<title>cryengine</title>
<path d="M19.619 19.833c0.395 0 0.773 0.136 1.076 0.384l0.019 0.016-0.199 0.317c-0.245-0.224-0.561-0.347-0.895-0.347-0.732 0-1.327 0.595-1.327 1.327s0.595 1.327 1.327 1.327c0.663 0 1.213-0.488 1.311-1.123l0.003-0.019h-1.136l0.231-0.369h1.288v0.185c0 0.936-0.761 1.697-1.696 1.697-0.936 0-1.696-0.761-1.696-1.697-0.003-0.937 0.759-1.699 1.695-1.699zM1.696 19.833c0.463 0 0.907 0.192 1.224 0.523l0.016 0.017-0.209 0.323c-0.253-0.313-0.627-0.493-1.032-0.493-0.732 0-1.327 0.595-1.327 1.327s0.595 1.327 1.327 1.327c0.383 0 0.745-0.164 0.997-0.452l0.013-0.016 0.281 0.24c-0.32 0.38-0.792 0.597-1.291 0.597-0.935 0-1.696-0.76-1.696-1.696 0-0.935 0.761-1.696 1.696-1.696zM4.949 19.853c0.852 0 1.192 0.4 1.192 0.977 0 0.484-0.245 0.825-0.828 0.941l-0.019 0.004 0.936 1.433h-0.448l-0.884-1.411h-0.637v1.411h-0.364v-3.356zM12.789 22.884v0.325h-2.296v-0.325zM7.432 19.853l0.921 1.532c0.032 0.056 0.051 0.116 0.060 0.153 0.013-0.039 0.025-0.089 0.057-0.145l0.008-0.013 0.917-1.527h0.396l-2.085 3.357h-0.361l0.863-1.4-1.176-1.957zM30.795 22.884v0.325h-2.296v-0.325zM24.713 19.853l2.016 2.78c-0.017-0.079-0.027-0.108-0.028-0.169v-2.611h0.363v3.357h-0.344l-2.020-2.789c0.013 0.044 0.031 0.104 0.032 0.189v2.6h-0.363v-3.357zM22.899 19.853v3.357h-0.363v-3.357zM14.372 19.853l2.016 2.78c-0.017-0.079-0.027-0.108-0.028-0.169v-2.611h0.363v3.357h-0.344l-2.020-2.789c0.013 0.044 0.031 0.104 0.032 0.189v2.6h-0.363v-3.357zM30.795 21.273v0.331h-2.296v-0.331zM12.789 21.273v0.331h-2.296v-0.331zM4.955 20.179h-0.693v1.289h0.689c0.512 0 0.82-0.149 0.82-0.637-0.001-0.489-0.309-0.652-0.816-0.652zM31.609 19.423c0.216 0 0.391 0.173 0.391 0.389s-0.175 0.389-0.391 0.389-0.391-0.173-0.391-0.389c0.001-0.216 0.176-0.389 0.391-0.389zM30.795 19.853v0.325h-2.296v-0.325zM12.789 19.853v0.325h-1.96l0.201-0.325zM31.609 19.488c-0.179 0-0.323 0.144-0.323 0.323s0.144 0.323 0.323 0.323 0.324-0.144 0.324-0.323c0-0.177-0.145-0.323-0.324-0.323zM31.612 19.609c0.1 0 0.144 0.051 0.144 0.121 0 0.053-0.024 0.093-0.079 0.112l-0.008 0.003 0.107 0.164h-0.077l-0.089-0.139c-0.003-0.003-0.004-0.009-0.005-0.015v-0.004h-0.077v0.157h-0.064v-0.401zM31.613 19.671h-0.087v0.121h0.085c0.055 0 0.080-0.015 0.080-0.060 0-0.044-0.025-0.061-0.079-0.061zM14.545 8.8l0.117-0.009c-3.147 0.732-5.015 3.109-5.015 3.419v0.001c0 0.001 0.001-0.012 0.003 0.048v0.008h0.001c0.064 0.337 0.993 1.967 4.588 2.935-4.12-0.327-5.992-2.331-6.084-2.917l-0.001-0.019h-0.001c0-0.061-0.001-0.049-0.001-0.045v0l0.001-0.017c0.049-0.603 2.571-3.083 6.392-3.403l0.117-0.009zM15.853 8.775c4.279 0.223 6.768 2.767 6.791 3.479v-0.001c0-0.003-0.001 0-0.001 0.044v0.008h-0.003c-0.033 0.357-1.393 1.811-3.428 2.48-2.487 0.817-6.488 0.52-6.488-2.597 0-1.463 1.192-2.653 2.656-2.653 1.477 0 2.663 1.196 2.663 2.66 0 0.713-0.308 1.404-0.775 1.892 0.436-0.008 2.023-0.124 3.517-1.356 0.165-0.161 0.271-0.296 0.315-0.379 0.012-0.021 0.029-0.060 0.027-0.096 0.001-0.32-1.717-2.779-5.273-3.48zM15.377 10.677c-0.833 0-1.508 0.675-1.508 1.508s0.675 1.508 1.508 1.508c0.832 0 1.508-0.675 1.508-1.508 0-0.832-0.675-1.508-1.508-1.508zM22.643 12.253c0 0 0 0 0 0z"></path>
</svg>
