<!-- Generated by IcoMoon.io -->
<svg version="1.1" xmlns="http://www.w3.org/2000/svg" width="32" height="32" viewBox="0 0 32 32">
<title>curl</title>
<path d="M29.64 6.269c-0.713 0-1.289-0.577-1.289-1.289 0-0.713 0.577-1.289 1.289-1.289s1.289 0.577 1.289 1.289c0.001 0.712-0.577 1.289-1.289 1.289zM16.829 28.311c-0.713 0-1.289-0.577-1.289-1.289 0-0.713 0.577-1.289 1.289-1.289s1.289 0.577 1.289 1.289c-0.001 0.711-0.577 1.289-1.289 1.289zM29.64 2.619c-1.304 0-2.361 1.057-2.361 2.361 0 0.279 0.071 0.537 0.159 0.785l-11.079 18.988c-1.071 0.224-1.891 1.129-1.891 2.267 0 1.304 1.057 2.361 2.361 2.361 1.303 0 2.36-1.057 2.36-2.361 0-0.263-0.071-0.501-0.148-0.737l11.135-19.051c1.039-0.249 1.827-1.139 1.827-2.253-0.001-1.303-1.059-2.36-2.363-2.36zM19.977 6.269c-0.713 0-1.289-0.577-1.289-1.289 0-0.713 0.577-1.289 1.289-1.289s1.289 0.577 1.289 1.289-0.577 1.289-1.289 1.289zM7.165 28.311c-0.712 0-1.289-0.577-1.289-1.289 0-0.713 0.577-1.289 1.289-1.289 0.713 0 1.289 0.577 1.289 1.289 0 0.711-0.577 1.289-1.289 1.289zM19.977 2.619c-1.305 0-2.361 1.057-2.361 2.361 0 0.279 0.071 0.537 0.159 0.785l-11.079 18.988c-1.072 0.224-1.892 1.129-1.892 2.267 0 1.304 1.057 2.361 2.361 2.361s2.361-1.057 2.361-2.361c0-0.263-0.071-0.501-0.148-0.737l11.135-19.051c1.039-0.249 1.827-1.139 1.827-2.253-0.001-1.303-1.059-2.36-2.363-2.36zM2.332 10.217c0.712 0 1.289 0.577 1.289 1.289s-0.577 1.289-1.289 1.289-1.289-0.576-1.289-1.288 0.577-1.291 1.289-1.291zM2.332 9.177c-1.285 0-2.331 1.045-2.331 2.331s1.045 2.331 2.331 2.331 2.331-1.045 2.331-2.331-1.045-2.331-2.331-2.331zM2.332 18.469c0.712 0 1.289 0.577 1.289 1.289s-0.577 1.289-1.289 1.289-1.289-0.577-1.289-1.289 0.577-1.289 1.289-1.289zM2.332 17.429c-1.285 0-2.331 1.045-2.331 2.331s1.045 2.331 2.331 2.331 2.331-1.045 2.331-2.331-1.045-2.331-2.331-2.331z"></path>
</svg>
