<!-- Generated by IcoMoon.io -->
<svg version="1.1" xmlns="http://www.w3.org/2000/svg" width="32" height="32" viewBox="0 0 32 32">
<title>dailymotion</title>
<path fill="#0066dc" d="M18.757 15.084c-2.339 0-4.139 1.903-4.139 4.147 0 2.337 1.8 4.113 4.34 4.113l-0.021 0.003c2.12 0 3.9-1.747 3.9-4.053 0-2.4-1.781-4.209-4.080-4.209zM0 0v32h32v-32zM27.591 27.743h-4.768v-1.88c-1.467 1.44-2.964 1.96-4.953 1.96-2.029 0-3.776-0.66-5.24-1.98-1.931-1.7-2.931-3.96-2.931-6.581 0-2.4 0.933-4.552 2.68-6.232 1.56-1.528 3.46-2.307 5.58-2.307 2.027 0 3.587 0.684 4.707 2.12v-7.3l4.924-1.019z"></path>
</svg>
