<!-- Generated by IcoMoon.io -->
<svg version="1.1" xmlns="http://www.w3.org/2000/svg" width="32" height="32" viewBox="0 0 32 32">
<title>dashlane</title>
<path fill="#007c97" d="M20.84 13.387c-0.627-0.524-1.151-1.36-1.151-2.197 0-0.313 0.104-0.836 0.209-1.151 0-0.208 0.104-0.208 0.209-0.313 0.941-0.209 1.36-0.209 1.464-0.313 0.209-0.419 0.313-0.941 0.313-0.941l-7.32-2.301c0 0 0.419 1.151 0.732 1.256l3.347 1.464c0 0-1.673 0.417-2.615 0.627l-0.209 0.105c0 0 0.313 0.627 0.941 0.941 0.627-0.209 1.777-0.419 1.777-0.419-1.568 3.137-4.915 5.228-8.471 5.228h-1.253c-0.42 0-0.524 0.315-0.211 0.524 0.627 0.313 1.151 0.94 1.36 1.568 0.104 0.419-0.105 0.733-0.419 0.941-0.627 0.523-2.3 1.673-3.869 2.928-0.202-0.301-0.378-0.646-0.512-1.011l-0.011-0.034c-1.464-3.243-2.196-7.844-2.196-13.909v-0.209l12.549-4.077 12.548 4.077v0.105c0 2.196-0.104 4.288-0.313 6.065v0.209h2.092v-0.105c0.209-1.881 0.313-3.869 0.313-6.065v-1.672l-14.64-4.707-14.64 4.707v1.568c0 6.379 0.731 11.189 2.3 14.745 0.209 0.523 0.523 1.045 0.732 1.464-1.255 0.941-2.301 1.673-2.301 1.673l0.627 1.045 8.053-5.752c4.094-2.815 9.158-4.496 14.614-4.496 0.009 0 0.018 0 0.027 0h2.509c-0.313 1.987-0.837 3.764-1.464 5.228-0.733 1.673-1.673 3.137-2.928 4.601-0.941 1.151-2.092 2.092-3.347 2.928-2.092 1.464-3.973 2.092-4.079 2.196-0.209-0.104-1.987-0.732-4.079-2.196-1.36-0.941-2.509-1.881-3.451-3.032-0.313-0.313-0.627-0.733-0.941-1.151l-0.104-0.104-1.673 1.253 0.104 0.107c0.419 0.521 0.733 0.94 1.047 1.359 1.045 1.255 2.3 2.3 3.66 3.241 2.3 1.569 4.287 2.301 4.6 2.405 0 0 0.419 0.105 0.524 0.209h0.209c0.209 0 0.523-0.209 0.523-0.209 0.419-0.104 2.3-0.836 4.6-2.405 1.373-0.973 2.573-2.039 3.645-3.223l0.017-0.019c1.282-1.472 2.369-3.161 3.19-4.996l0.051-0.128c0.794-1.764 1.381-3.811 1.661-5.955l0.012-0.111h1.779c0.104-0.417 0.208-1.149 0.208-1.149h-6.483c-2.405-0.104-3.243 0-3.869-0.417z"></path>
</svg>
