<!-- Generated by IcoMoon.io -->
<svg version="1.1" xmlns="http://www.w3.org/2000/svg" width="32" height="32" viewBox="0 0 32 32">
<title>datacamp</title>
<path fill="#3ac" d="M18.875 7.439l-0.259 0.359c-0.32-0.329-1.092-0.679-1.147-0.704l0.207-0.548-0.019-0.013c-0.032-0.021-0.067-0.037-0.104-0.049-1.164-0.439-2.233-0.444-3.691-0.023l0.689 1.841h-0.013c-0.965 0.313-1.685 1.184-1.764 1.281l-0.955-0.681c-0.527 0.696-0.9 1.955-0.9 2.921h-1.217c0.009 0.875 0.168 2.392 1.2 3.651l0.909-0.695c0.831 1.221 2.567 2.108 4.020 1.957l-0.021-2.541h0.019v0.035c0.364 0.107 1.124-0.124 1.456-0.385l0.689 0.923c0.724-0.247 1.285-1.651 1.344-1.801l1.097 0.376c0.293-1.017 0.304-2.096 0.031-3.119l-0.001 0.001v-0.012c0.001 0.003 0.001 0.007 0.001 0.009l0.392-0.143c-0.291-1.1-0.995-2.045-1.964-2.64zM16.224 12.344c-0.455 0.189-0.98 0.084-1.327-0.267-0.348-0.353-0.452-0.88-0.264-1.339 0.189-0.459 0.633-0.757 1.127-0.757 0 0 0 0 0 0h0.001c0 0 0 0 0 0 0.673 0.004 1.217 0.553 1.216 1.227-0.001 0.497-0.299 0.947-0.753 1.136zM30.216 4.923l-14.031-4.865c-0.216-0.076-0.451-0.076-0.665 0l-13.732 4.869c-0.447 0.159-0.724 0.603-0.673 1.073l1.937 18.456c0.033 0.331 0.227 0.625 0.516 0.788l11.948 6.631c0.149 0.081 0.317 0.125 0.488 0.125h0.001c0.175 0 0.347-0.045 0.497-0.132l11.652-6.631c0.279-0.159 0.467-0.444 0.507-0.767l2.227-18.456c0.056-0.479-0.221-0.932-0.672-1.092zM22.352 17.223c0 0-0.169 0.192 0.068 0.593 0.239 0.399 0.307 0.399-0.136 0.816 0.341 0.296 0.341 0.541-0.169 0.773 0.012 0.824 0.179 1.561-0.868 1.624-1.047 0.061-2.373-0.643-2.719 1.252-0.345 1.892-0.256 1.184-0.359 1.659h-7.393c0.92-2.536 1.707-5.335 0-6.709-1.705-1.373-4.497-7.144 1.008-10.1 0.62-0.331 1.281-0.58 1.965-0.739l-0.232-0.619 0.072-0.028c0.023-0.009 2.365-0.912 4.391 0.083l0.067 0.033-0.244 0.555c1.305 0.293 2.279 0.776 2.64 1.001 0.819 0.509 1.905 1.32 2.009 2.088 0.103 0.767-0.885 0.381-0.885 0.381 0.613 1.489 0.647 2.557 0.373 3.691v0.001c-0.272 1.131 1.26 2.3 1.227 3.123-0.1 0.381-0.815 0.521-0.815 0.521z"></path>
</svg>
