<!-- Generated by IcoMoon.io -->
<svg version="1.1" xmlns="http://www.w3.org/2000/svg" width="32" height="32" viewBox="0 0 32 32">
<title>dazn</title>
<path fill="#f8f8f5" d="M19.699 11.055l1.029-3.461 1.053 3.461zM24.829 14.079l-2.7-8.171c-0.060-0.18-0.129-0.299-0.205-0.355-0.079-0.055-0.203-0.084-0.373-0.084h-1.493c-0.014-0.001-0.030-0.002-0.046-0.002-0.123 0-0.238 0.034-0.336 0.094l0.003-0.002c-0.080 0.060-0.147 0.176-0.199 0.348l-2.727 8.171c-0.033 0.043-0.051 0.128-0.051 0.256 0 0.199 0.12 0.297 0.36 0.297h1.12c0.101 0 0.185-0.004 0.249-0.013 0.059-0.005 0.113-0.028 0.155-0.064l-0 0c0.044-0.043 0.079-0.094 0.102-0.152l0.001-0.003c0.029-0.068 0.061-0.159 0.096-0.269l0.424-1.428h3.075l0.436 1.401c0.035 0.12 0.068 0.213 0.103 0.284 0.030 0.062 0.069 0.115 0.116 0.16l0 0c0.041 0.037 0.093 0.063 0.152 0.071h0.003c0.060 0.008 0.137 0.013 0.231 0.013h1.196c0.24 0 0.36-0.099 0.36-0.297 0-0.005 0-0.011 0-0.017 0-0.037-0.003-0.072-0.007-0.108l0 0.004c-0.015-0.057-0.032-0.105-0.051-0.152l0.003 0.008zM23.504 17.368h-0.861c-0.224 0-0.372 0.032-0.444 0.096-0.073 0.065-0.109 0.196-0.109 0.393v4.851l-2.547-4.863c-0.101-0.207-0.203-0.337-0.301-0.393-0.099-0.055-0.272-0.084-0.52-0.084h-0.799c-0.223 0-0.371 0.033-0.443 0.097-0.073 0.064-0.109 0.196-0.109 0.392v8.184c0 0.197 0.033 0.328 0.103 0.392s0.213 0.096 0.437 0.096h0.875c0.223 0 0.371-0.032 0.443-0.096 0.073-0.064 0.109-0.195 0.109-0.392v-4.864l2.547 4.876c0.103 0.207 0.203 0.337 0.303 0.393 0.097 0.056 0.272 0.083 0.52 0.083h0.797c0.223 0 0.371-0.032 0.444-0.096 0.072-0.064 0.109-0.195 0.109-0.392v-8.184c0-0.197-0.037-0.328-0.109-0.392-0.073-0.064-0.221-0.097-0.444-0.097zM27.775 16.593l2.22 2.22v11.18h-27.988v-11.18l2.217-2.219c0.152-0.152 0.245-0.362 0.245-0.593s-0.094-0.441-0.245-0.593v0l-2.219-2.22v-11.181h27.988v11.179l-2.22 2.221c-0.151 0.152-0.245 0.361-0.245 0.593s0.094 0.442 0.246 0.594v0zM32 0h-32v14.151l1.849 1.849-1.849 1.849v14.151h32v-14.151l-1.849-1.849 1.849-1.849zM14.227 24.625h-3.613l3.807-5.352c0.045-0.060 0.084-0.128 0.114-0.201l0.002-0.006c0.016-0.050 0.025-0.108 0.025-0.168 0-0.004-0-0.008-0-0.013v0.001-1.029c0-0.197-0.037-0.328-0.109-0.392-0.073-0.064-0.221-0.097-0.445-0.097h-5.497c-0.199 0-0.327 0.037-0.387 0.109-0.060 0.073-0.091 0.225-0.091 0.457v0.773c0 0.229 0.031 0.383 0.091 0.455 0.060 0.073 0.188 0.111 0.387 0.111h3.393l-3.756 5.352c-0.084 0.096-0.137 0.221-0.143 0.359l-0 0.001v1.056c0 0.197 0.036 0.327 0.109 0.392 0.073 0.064 0.223 0.096 0.445 0.096h5.667c0.197 0 0.327-0.036 0.387-0.108 0.060-0.073 0.091-0.227 0.091-0.459v-0.772c0-0.231-0.031-0.383-0.091-0.456s-0.189-0.109-0.385-0.109zM12.544 10.977c0 0.352-0.023 0.645-0.069 0.881-0.048 0.236-0.124 0.427-0.232 0.573-0.105 0.142-0.25 0.249-0.418 0.306l-0.006 0.002c-0.18 0.058-0.387 0.091-0.602 0.091-0.017 0-0.033-0-0.050-0.001l0.002 0h-1.053v-5.56h1.053c0.488 0 0.84 0.147 1.053 0.432 0.213 0.287 0.321 0.761 0.321 1.423zM14.384 7.259c-0.3-0.609-0.711-1.060-1.228-1.351-0.52-0.292-1.173-0.437-1.96-0.437h-2.639c-0.223 0-0.371 0.032-0.444 0.096-0.072 0.065-0.109 0.196-0.109 0.392v8.184c0 0.197 0.037 0.328 0.109 0.393 0.073 0.064 0.221 0.096 0.444 0.096h2.957c1.397 0 2.353-0.596 2.867-1.789 0.12-0.273 0.204-0.551 0.251-0.829 0.046-0.292 0.073-0.629 0.073-0.972 0-0.031-0-0.063-0.001-0.094l0 0.005v-1.737c0-0.489-0.024-0.875-0.072-1.157-0.050-0.305-0.14-0.58-0.265-0.833l0.008 0.017z"></path>
</svg>
