<!-- Generated by IcoMoon.io -->
<svg version="1.1" xmlns="http://www.w3.org/2000/svg" width="32" height="32" viewBox="0 0 32 32">
<title>deepin</title>
<path fill="#007cff" d="M21.472 0.928c-2.299-0.84-4.653-1.067-6.94-0.853-2.651 0.209-3.944 1.029-3.867 0.881-4.335 1.547-8 4.876-9.696 9.543-3.021 8.312 1.259 17.504 9.557 20.531 8.304 3.027 17.481-1.26 20.504-9.572 3.023-8.311-1.257-17.503-9.559-20.529zM11.073 29.527c-0.959-0.358-1.779-0.764-2.551-1.241l0.062 0.035c3.867 0.297 8.915-0.593 12.319-3.779 0 0 6.488-5.184 1.793-13.692 0 0 0.757 3.429-0.208 6.249 0 0-0.92 3.836-5.009 4.949-6.023 1.641-12.885-2.573-15.755-4.617-0.216-2.099-0.024-4.267 0.747-6.384 1.14-3.136 3.284-5.584 5.903-7.227-0.653 4.581-0.136 8.8 0.608 10.567 0.999 2.369 2.733 5.133 6.12 5.487 3.387 0.356 5.253-2.813 5.253-2.813 1.739-2.64 2.011-6.431 1.984-6.523-0.027-0.093-0.463-0.343-0.463-0.343-1.169 4.732-3.097 6.312-3.097 6.312-3.040 2.935-5.193 0.9-5.193 0.9-2.315-2.487-0.693-6.527-0.693-6.527 0.907-2.752 3.547-6.779 6.54-8.827 0.499 0.123 1 0.2 1.493 0.379 1.834 0.682 3.409 1.659 4.749 2.889l-0.010-0.009c-2.188 0.799-5.721 2.487-5.721 2.487-5.601 2.36-5.98 5.928-5.98 5.928-0.58 3.677 2.339 2.12 2.339 2.12 3.003-1.463 4.479-6.021 4.479-6.021-0.937-0.179-1.676 0.107-1.676 0.107-1.199 2.96-3.644 4.176-3.644 4.176-0.963 0.509-1.187-0.391-1.187-0.391-0.163-0.675 0.696-0.789 0.696-0.789 1.333-0.519 2.185-1.919 2.379-2.491 0.192-0.573 0.549-0.619 0.549-0.619 1.011-0.331 2.196-0.583 3.419-0.707l0.073-0.006c2.267-0.279 5.737 0.803 5.737 0.803 0.779 0.313 1.525 0.547 2.188 0.735 1.272 3.179 1.473 6.797 0.213 10.267-2.719 7.48-10.981 11.339-18.455 8.616z"></path>
</svg>
