<!-- Generated by IcoMoon.io -->
<svg version="1.1" xmlns="http://www.w3.org/2000/svg" width="32" height="32" viewBox="0 0 32 32">
<title>deliveroo</title>
<path fill="#00ccbc" d="M22.481 0l-1.503 14.112-2.565-11.899-8.044 1.688 2.565 11.896-11.593 2.429 2.047 9.503 20.388 4.271 4.664-10.325 2.219-20.827zM15.187 18.147c0.005-0 0.011-0 0.017-0 0.149 0 0.291 0.032 0.418 0.091l-0.006-0.003c0.277 0.124 0.747 0.387 0.84 0.789 0.137 0.579 0.005 1.065-0.416 1.445v0.003c-0.42 0.379-0.976 0.344-1.565 0.151-0.588-0.193-0.849-0.896-0.627-1.745 0.165-0.631 0.947-0.725 1.339-0.731zM20.709 18.877c0.596-0.016 1.109 0.248 1.4 0.724 0.289 0.476 0.143 1-0.163 1.524h-0.003c-0.305 0.523-1.107 0.593-1.896 0.213-0.532-0.257-0.529-0.912-0.471-1.311 0.033-0.229 0.125-0.431 0.259-0.598l-0.002 0.002c0.189-0.236 0.508-0.544 0.875-0.555z"></path>
</svg>
