<!-- Generated by IcoMoon.io -->
<svg version="1.1" xmlns="http://www.w3.org/2000/svg" width="32" height="32" viewBox="0 0 32 32">
<title>dell</title>
<path fill="#007db8" d="M23.951 19.467v-7.035h1.629v5.605h2.853v1.427zM10.905 15.083l3.973-3.056c0.375 0.304 0.747 0.611 1.121 0.916l-3.769 2.853 0.815 0.713 3.769-2.955c0.375 0.304 0.747 0.611 1.121 0.917-0.431 0.366-1.658 1.334-2.89 2.295l-0.879 0.66 0.813 0.715 3.773-3.060-0.001-2.648h1.631v5.605h2.955v1.427h-4.483v-2.649c-1.327 1.017-2.649 2.039-3.975 3.056l-3.975-3.056c-0.192 0.972-0.871 1.813-1.749 2.259-0.38 0.196-0.796 0.32-1.22 0.368-0.244 0.029-0.489 0.023-0.735 0.023h-2.513v-7.032h2.899c0.792 0.008 1.518 0.287 2.091 0.748l-0.007-0.005c0.605 0.48 1.037 1.163 1.236 1.907zM6.219 13.86v4.28l1.271-0.001c0.56-0.019 1.054-0.286 1.378-0.694l0.003-0.004c0.315-0.393 0.506-0.897 0.506-1.446 0-0.392-0.097-0.762-0.269-1.085l0.006 0.013c-0.266-0.507-0.731-0.88-1.288-1.018l-0.014-0.003c-0.221-0.053-0.451-0.040-0.676-0.043zM15.76 0h0.449c2.641 0.036 5.117 0.709 7.292 1.872l-0.085-0.042c2.209 1.178 4.049 2.775 5.47 4.699l0.031 0.044c1.883 2.541 3.032 5.725 3.083 9.175l0 0.012v0.48c-0.054 4.152-1.686 7.913-4.322 10.719l0.008-0.008c-2.873 3.063-6.927 4.989-11.432 5.049l-0.011 0h-0.481c-1.995-0.031-3.89-0.423-5.635-1.112l0.108 0.038c-2.231-0.882-4.13-2.166-5.695-3.777l-0.004-0.004c-1.67-1.716-2.962-3.808-3.735-6.137l-0.033-0.113c-0.462-1.385-0.741-2.981-0.768-4.639l-0-0.013v-0.481c0.056-3.184 1.040-6.128 2.692-8.585l-0.036 0.057c1.582-2.364 3.7-4.252 6.188-5.52l0.092-0.043c1.988-1.016 4.33-1.628 6.81-1.669l0.014-0zM15.556 1.64c-3.268 0.096-6.244 1.275-8.6 3.187l0.026-0.021c-1.959 1.586-3.477 3.642-4.392 5.999l-0.033 0.098c-0.586 1.513-0.926 3.264-0.926 5.094 0 2.072 0.435 4.043 1.22 5.825l-0.036-0.093c1.061 2.4 2.675 4.389 4.688 5.867l0.040 0.028c1.791 1.319 3.954 2.238 6.304 2.585l0.078 0.009c1.941 0.279 3.94 0.165 5.835-0.347 2.688-0.741 4.98-2.165 6.759-4.074l0.008-0.009c1.772-1.898 3.037-4.291 3.566-6.949l0.015-0.091c0.167-0.827 0.262-1.778 0.262-2.751 0-1.24-0.155-2.443-0.447-3.592l0.022 0.101c-1.232-4.82-4.782-8.602-9.363-10.139l-0.101-0.029c-1.33-0.449-2.862-0.708-4.454-0.708-0.165 0-0.33 0.003-0.493 0.008l0.024-0.001z"></path>
</svg>
