<!-- Generated by IcoMoon.io -->
<svg version="1.1" xmlns="http://www.w3.org/2000/svg" width="32" height="32" viewBox="0 0 32 32">
<title>devrant</title>
<path fill="#f99a66" d="M15.627 0c-8.317-0.020-13.504 5.395-13.359 13.763-0.099 5.209 1.916 9.336 5.503 11.645 0.884 0.54 1.819 0.983 2.849 1.327l2.899 4.471c0.444 1.131 0.933 1.032 1.131-0.147l0.787-3.587h0.589c3.292 0.097 6.093-0.689 8.304-2.113 3.488-2.311 5.501-6.388 5.404-11.596 0.147-8.499-5.159-13.955-13.708-13.757-0.133-0.003-0.267-0.005-0.399-0.005zM21.721 6.181c0.344 0 0.688 0.123 0.933 0.368h0.001c0.247 0.247 0.393 0.589 0.393 0.983 0 0.197 0 0.393-0.099 0.541l-4.963 12.333c-0.344 0.588-0.836 0.736-1.18 0.736-0.729-0.010-1.316-0.598-1.325-1.326v-0.001c0-0.197 0.049-0.344 0.097-0.541l4.913-12.283c0.097-0.196 0.197-0.344 0.295-0.443 0.237-0.228 0.559-0.368 0.914-0.368 0.007 0 0.014 0 0.020 0h-0.001zM12.608 10c0.417 0 0.835 0.16 1.155 0.479h0.001c0.295 0.295 0.491 0.688 0.441 1.131 0 0.443-0.196 0.785-0.491 1.131-0.296 0.344-0.689 0.492-1.131 0.492-0.443 0-0.787-0.197-1.131-0.493-0.345-0.293-0.493-0.687-0.493-1.129s0.199-0.836 0.493-1.131c0.32-0.32 0.736-0.48 1.155-0.479zM12.608 16.632c0.417 0 0.835 0.16 1.155 0.48h0.001c0.295 0.344 0.491 0.737 0.441 1.131-0.006 0.445-0.193 0.844-0.49 1.13l-0.001 0c-0.295 0.344-0.688 0.491-1.131 0.491-0.445-0.006-0.844-0.193-1.13-0.49l-0-0c-0.345-0.296-0.493-0.688-0.493-1.131s0.199-0.836 0.493-1.131c0.32-0.32 0.736-0.48 1.155-0.48z"></path>
</svg>
