<!-- Generated by IcoMoon.io -->
<svg version="1.1" xmlns="http://www.w3.org/2000/svg" width="32" height="32" viewBox="0 0 32 32">
<title>diaspora</title>
<path d="M20.347 29.195l-3.109-4.341c-0.829-1.16-1.503-2.063-1.539-2.063s-1.341 1.752-3.088 4.151c-1.664 2.285-3.040 4.152-3.060 4.152-0.044 0-5.997-4.192-6.013-4.236-0.008-0.021 1.34-1.997 2.989-4.391 1.653-2.393 3.005-4.387 3.005-4.435 0-0.073-0.544-0.257-4.743-1.66l-4.789-1.599c-0.040-0.024 0.208-0.853 1.057-3.533 0.613-1.928 1.125-3.52 1.14-3.54 0.019-0.021 2.28 0.699 5.029 1.607 2.751 0.907 5.020 1.645 5.051 1.645 0.029 0 0.061-0.040 0.071-0.093 0.013-0.040 0.040-2.381 0.053-5.2 0.027-2.8 0.053-5.12 0.067-5.16 0.027-0.040 0.8-0.040 3.64-0.040 1.979 0 3.617 0.020 3.644 0.040 0.033 0.021 0.087 1.581 0.181 5.040 0.147 5.7 0.147 5.78 0.24 5.78 0.033 0 2.213-0.72 4.84-1.627 2.631-0.88 4.789-1.6 4.807-1.581 0.040 0.059 2.2 7.080 2.18 7.1-0.023 0.021-2.223 0.78-4.88 1.68-3.68 1.24-4.863 1.66-4.863 1.72-0.019 0.040 1.24 1.94 2.861 4.28 1.579 2.32 2.857 4.22 2.857 4.24-0.020 0.061-5.92 4.403-5.977 4.403-0.020 0-0.78-1.021-1.66-2.26z"></path>
</svg>
