<!-- Generated by IcoMoon.io -->
<svg version="1.1" xmlns="http://www.w3.org/2000/svg" width="32" height="32" viewBox="0 0 32 32">
<title>directus</title>
<path d="M25.583 18.545c-0.147-0.034-0.275-0.076-0.396-0.128l0.015 0.006c-0.105-0.047-0.195-0.109-0.271-0.185l-0-0c0.075-0.651 0-1.216 0.063-1.856 0.245-2.483 1.807-1.696 3.208-2.103 0.873-0.245 1.747-0.749 1.967-1.781-0.944-1.101-1.993-2.068-3.144-2.902l-0.052-0.036c-3.8-2.704-8.765-3.787-13.277-3.036 0.699 1.204 1.719 2.154 2.943 2.748l0.041 0.018c0 0-1.223 0-2.271-0.783-0.307 0.123-0.923 0.365-1.217 0.512 1.219 1.173 2.879 1.896 4.707 1.896 1.562 0 3.001-0.527 4.149-1.414l-0.016 0.012c-0.013 0.023-0.247 0.38-0.529 1.867-0.627 3.173-2.435 2.927-4.672 2.128-4.647-1.685-7.204-0.124-9.527-3.32-0.676 0.381-1.093 1.093-1.093 1.869 0 0.799 0.441 1.475 1.080 1.844 0.349-0.464 0.507-0.595 1.115-0.595-0.941 0.533-1.053 1-1.459 2.291-0.491 1.561-0.283 3.16-2.581 3.577-1.217 0.061-1.192 0.885-1.635 2.115-0.553 1.599-1.291 2.237-2.729 3.749 0.591 0.713 1.205 0.8 1.832 0.541 1.291-0.541 2.287-2.213 3.22-3.295 1.045-1.205 3.553-0.689 5.447-1.869 1.303-0.799 1.943-1.88 1.081-3.712 0.535 0.587 0.88 1.355 0.934 2.203l0.001 0.011c2.188-0.284 5.115 2.384 7.781 2.827-0.252-0.316-0.471-0.676-0.639-1.063l-0.012-0.031c-0.307-0.739-0.405-1.413-0.344-2.004 0.245 1.463 1.72 3.343 4.093 3.516 0.603 0.048 1.267-0.025 1.955-0.235 0.824-0.245 1.587-0.565 2.496-0.393 0.676 0.124 1.303 0.467 1.696 1.045 0.591 0.86 1.88 1.045 2.459-0.012-1.303-3.405-4.893-3.627-6.417-4.020z"></path>
</svg>
