<!-- Generated by IcoMoon.io -->
<svg version="1.1" xmlns="http://www.w3.org/2000/svg" width="32" height="32" viewBox="0 0 32 32">
<title>discourse</title>
<path d="M16.137 0c8.751 0 15.863 7.313 15.863 15.996 0 8.68-7.107 15.987-15.867 15.987l-16.133 0.017v-16.28c0-8.68 7.376-15.72 16.137-15.72zM16.292 6.084c-3.457-0.004-6.661 1.803-8.449 4.76-1.773 2.944-1.849 6.609-0.197 9.627l-1.779 5.676 6.392-1.432c3.66 1.633 7.953 0.901 10.848-1.853 2.893-2.739 3.813-6.971 2.316-10.663-1.513-3.704-5.12-6.12-9.12-6.113z"></path>
</svg>
