<!-- Generated by IcoMoon.io -->
<svg version="1.1" xmlns="http://www.w3.org/2000/svg" width="32" height="32" viewBox="0 0 32 32">
<title>disqus</title>
<path fill="#2e9fff" d="M16.584 31.539c-3.804 0-7.28-1.387-9.968-3.688l-6.616 0.907 2.556-6.311c-0.889-1.967-1.389-4.147-1.389-6.447 0-8.581 6.9-15.539 15.42-15.539 8.507 0 15.413 6.957 15.413 15.539 0 8.584-6.901 15.539-15.416 15.539zM25.004 15.956v-0.044c0-4.484-3.164-7.68-8.616-7.68h-5.885v15.541h5.8c5.493 0 8.7-3.333 8.7-7.817zM16.451 19.953h-1.72v-7.9h1.72c2.529 0 4.209 1.44 4.209 3.927v0.040c0 2.512-1.68 3.933-4.209 3.933z"></path>
</svg>
