<!-- Generated by IcoMoon.io -->
<svg version="1.1" xmlns="http://www.w3.org/2000/svg" width="32" height="32" viewBox="0 0 32 32">
<title>disroot</title>
<path fill="#50162d" d="M25.099 8.873q0.123 0.171 0 0.34-0.124 0.043-0.205 0l-0.205-0.297-0.492-0.127q-0.123-0.128 0-0.34 0.123-0.171 0.328-0.128 0.369 0.213 0.575 0.552zM31.085 14.655q0.041 0.127 0.041 0.212l-0.205 0.297v-0.467q0.083-0.043 0.164-0.043zM23.909 8.321l0.204 0.34q-0.164 0.297-0.328 0.383l-0.123 0.169q-0.081-0.212-0.123-0.424-0.041 0-0.083-0.043l-0.164 0.169-0.737-0.169q-0.164-0.213 0.081-0.467 0.247-0.256 0.573-0.128zM22.392 9.215l-0.205-0.128 0.164-0.085zM19.111 7.047l-0.245 0.297-0.247-0.297-0.205-0.043 0.656-0.128zM31.905 13.421q0.164 0.128 0.041 0.637l-0.245 0.723-0.205 0.255-0.041-0.509q0-0.171-0.040-0.297 0-0.128-0.043-0.255l-0.533 0.253q0.041 0.087 0.041 0.213 0.041 0.128 0.083 0.171l-0.573 0.043 0.040 0.169 0.123 0.128-0.204 0.467q-0.041 0.383-0.205 0.427l-0.164-0.256-0.493 0.127q-0.163-0.169-0.163-0.297l-0.124-0.169 0.205-0.255q-0.081-0.171-0.164-0.171l-0.205 0.085-0.204 0.509q-0.288 0-0.369 0.085l0.245 0.34 0.861 0.467 0.041 0.299q0.164 0.043 0.247 0.127 0.123 0.085 0.164 0.128-0.041 0.085-0.083 0.213-0.040 0.084-0.164 0.169l-0.369 0.255 0.041 0.34q-0.328 0.128-0.573 0.425l-0.124 0.467q-0.451 0-0.573 0.085l0.040 0.639-0.123-0.043q-0.164-0.256-0.328-0.128l0.164 0.552q-0.123 0-0.205 0.043l-0.081 0.085 0.164 0.297q0.040 0.171 0.040 0.256-0.245 0.212-0.492 0.253-0.204 0.044-0.328 0.299l0.041 0.509q-0.123 0.299-0.205 0.383-0.409 0-0.615 0.085l-0.247 0.467-0.204-0.084q-0.165-0.043-0.247 0l-0.164 0.34q-0.369 0-0.533 0.169l-0.328 0.299 0.083-0.383q0.123-0.34-0.124-0.383l-0.164 0.127-0.040 0.213-0.411 0.255-0.040 0.467h-0.78l-0.164 0.299q-0.083 0.255-0.411 0.383-0.328 0.127-1.148 0.127t-1.025 0.085q-0.205 0-0.369 0.213-0.123 0.212-0.287 0.297l-0.656 0.212-0.205 0.383-0.287 0.213q-0.205 0.127-0.656 0.127l-0.411 0.213-0.615 0.253-0.452-0.041q-0.245-0.128-0.573-0.128h-0.739l-0.247-0.171-0.492 0.085-0.245 0.34-0.369-0.255-0.287-0.297-0.656-0.043-0.247-0.213 0.369-0.467 0.492-0.68v-0.467l0.573-0.639v-0.723q0-0.34 0.124-0.595l0.451 0.128q0.164-0.171 0.164-0.256-0.245-0.212-0.451-0.552l-0.411-0.595-0.492-0.637-0.328-0.596-0.369-0.595-0.287-0.723-0.615-0.68-2.256-3.315-0.411-0.723-0.409-0.808-0.328-0.212q-0.369-0.467-0.616-1.020l-0.123-0.511-0.369-0.169-1.271 0.255q-0.452 0-0.984 0.171l-0.861 0.34-1.027 0.127-0.573 0.213q-0.369 0.085-0.573-0.085l-0.288-0.34-0.451 0.171-0.369-0.128q0-0.425-0.081-0.511l-0.369-0.509q-0.247-0.171-0.369-0.213l0.040-0.212h0.411q-0.040-0.127-0.040-0.297v-0.213l0.409 0.171q0.205-0.127 0.247-0.213l0.164-0.339 0.328 0.043 0.245-0.723-0.040-0.383 0.205 0.127 0.204 0.213q0.205-0.085 0.247-0.171l0.369-0.467 0.368 0.043-0.123-0.297-0.245-0.299-0.369-0.127q0.245-0.383 1.067-0.553l1.312-0.127 0.451-0.297 1.067-0.213 1.64-0.085 0.573-0.127q0.329-0.128 0.657-0.043l0.656-0.043q0.656-0.169 0.943-0.085l0.533 0.043 0.739 0.043 1.107 0.213 0.984 0.084 0.697-0.297q0.247 0 0.533 0.34l0.411 0.297h0.861l0.287 0.34-0.040 0.213 0.245 0.68 0.164-0.085 0.369-0.425 0.409 0.637-0.492-0.169q-0.287 0-0.328 0.424l0.411 0.085 0.164 0.213 0.245-0.085q0.205-0.085 0.411 0.085 0.245 0.127 0.328 0.297l0.245 0.34h0.533q0-0.128 0.040-0.171 0.043-0.085 0.083-0.127l0.083 0.424h0.164l0.123-0.127 0.124 0.213 0.123-0.341q0.533 0 0.615-0.085 0-0.127-0.081-0.212l-0.164-0.213q0-0.212 0.328-0.169l0.573 0.171 0.411-0.043 0.245 0.213 0.083 0.169q-0.369-0.085-0.493 0.043-0.080 0.084-0.040 0.297l0.287 0.253q0 0.299 0.288 0.639l0.164-0.169 0.040-0.34 0.165 0.212h0.696q0.205 0 0.328 0.467l0.124 0.427 0.164 0.127 0.205-0.213 0.656 0.213 0.123-0.213 0.205-0.084q0.164-0.128 0.205-0.213v-0.212l-0.083-0.213 0.573 0.171q0.165-0.169 0.205-0.255-0.081-0.213-0.164-0.213l-0.409-0.084v-0.213l0.123-0.297 0.123-0.255q0.205 0.127 0.247 0.213l0.205 0.296 0.287-0.041 0.287-0.043 1.027 0.892 0.287-0.043 0.287 0.383 0.247 0.128q-0.124 0.169 0 0.381l0.287-0.127h0.287l0.247 0.425 0.245 0.424q0.328 0 0.493 0.085l0.163 0.765 0.452 0.255 0.368 0.128q0 0.213-0.081 0.34l0.081 0.425 0.124 0.253-0.041 0.299 0.164-0.085q0.164-0.213 0.247-0.255zM21.573 7.133q0.123 0.127 0 0.381-0.041 0.085-0.247 0.128-0.123-0.128 0-0.383 0.040-0.085 0.247-0.127zM29.98 15.037q0.123 0.128 0 0.34l-0.205 0.085-0.040-0.297q0-0.127 0.040-0.169 0.083-0.043 0.205 0.041zM28.257 12.956q0.081 0.084 0.081 0.424-0.164 0.085-0.328 0.043-0.204-0.127-0.081-0.383 0.081-0.213 0.328-0.084zM16.652 7.303l-0.247 0.467 0.123-0.339zM22.311 23.708l-0.164-0.255 0.164-0.128q0.205 0.043 0.164 0.297zM29.16 17.375q-0.247-0.169-0.328-0.339l0.245 0.169zM12.755 24.94l0.204-0.212 0.205-0.128zM30.387 13.933l-0.123 0.253-0.040 0.129-0.041-0.299zM30.592 16.016l-0.081 0.381zM27.68 11.34l0.124 0.171-0.164 0.043-0.164-0.128zM20.34 21.328l-0.164 0.128zM19.48 7.004l-0.040 0.213zM28.215 11.721l-0.081 0.213zM28.051 18.649l0.083 0.127-0.124 0.085zM20.177 7.259l-0.083 0.128zM22.391 22.772l-0.080 0.169zM13.164 13.676l-0.164 0.171zM12.919 25.875l-0.041 0.213zM25.345 9.256l0.080 0.128-0.204-0.085zM18.66 20.816l-0.041 0.171zM28.133 12.189l-0.041 0.169zM27.845 14.187l-0.081 0.128zM28.379 19.456l-0.123 0.085zM2.256 8.832l-0.041 0.212zM29.732 15.929l-0.164 0.085zM29.199 15.632l-0.245 0.043zM20.545 24.727l-0.040 0.128zM28.831 16.524v-0.213zM30.84 13.676q-0.041 0.085-0.041 0.171 0-0.128 0.041-0.171zM2.008 8.024l-0.040 0.169zM25.343 11.721l-0.164 0.043zM24.687 9.172l-0.081 0.127zM14.56 6.749l-0.123 0.043zM18.661 8.449l-0.041 0.169zM18.088 8.407l-0.083 0.085zM12.793 25.577l-0.040 0.169zM27.597 14.952l-0.080-0.085zM17.511 8.152l-0.083-0.085zM30.675 13.549q0-0.34-0.124-0.553-0.081-0.212-0.287-0.381l-0.040 0.552 0.287 0.128q0.040 0.127 0 0.212zM27.475 12.529l-0.080-0.085zM29.115 14.441l-0.204-0.043-0.245-0.383 0.081-0.34-0.369 0.256 0.205 0.253 0.040 0.129-0.491 0.212 0.328 0.043q0.081 0.085 0.164 0.127 0.123 0.043 0.164 0.043zM28.296 13.676l-0.164-0.127-0.288-0.085-0.123-0.213-0.164 0.171-0.123 0.297 0.328 0.128q0.245 0 0.369 0.127zM21.12 9.044l-0.164-0.085-0.245-0.127q-0.164 0-0.164 0.084l0.040 0.256 0.288 0.169zM26.041 18.097l0.083-0.511q0-0.68-0.493-1.445-0.409-0.765-1.067-1.232-0.533-0.511-1.475-0.893l-1.64-0.721-0.616-0.383-0.903-0.34-0.943-0.297-1.517-0.34-0.493-0.085q-0.368 0-0.573 0.085-0.164 0.041-0.123 0.297l0.492 0.977q0.369 0.68 0.697 0.935l0.369 0.255v0.256l0.409 0.509 0.040 0.34q0.165 0.128 0.247 0.128 0.205 0.127 0.533 0.637l0.452 0.552 0.696 1.020 0.616 1.105 0.287 0.849-0.081 0.553 0.164 0.255-0.164 0.255q-0.124 0.128 0 0.256l0.287-0.085 0.492-0.213q0.205 0 0.697-0.253l0.903-0.427 1.271-0.509q0.779-0.34 1.107-0.68l0.164-0.425q0-0.297 0.083-0.424z"></path>
</svg>
