<!-- Generated by IcoMoon.io -->
<svg version="1.1" xmlns="http://www.w3.org/2000/svg" width="32" height="32" viewBox="0 0 32 32">
<title>dlna</title>
<path fill="#48a842" d="M31.005 16.889h-13.647c-1.401 0-2.8 0.652-3.589 1.688v-0.023c-0.788 1.088-2.059 1.804-3.505 1.804-2.395 0-4.332-1.944-4.332-4.335 0-2.393 1.939-4.335 4.332-4.335 1.447 0 2.719 0.715 3.505 1.804v-0.017c0.789 1.035 2.188 1.697 3.589 1.697h13.505c0.248-0.007 1.164-0.127 1.131-1.308-1.179-6.781-7.839-11.983-15.897-11.983-4.961 0-9.396 1.973-12.349 5.071-0.475 0.703 0.019 0.919 0.467 0.979h8.811c1.4 0 2.8-0.664 3.588-1.703v0.024c0.788-1.089 2.061-1.807 3.507-1.807 2.393 0 4.332 1.941 4.332 4.335 0 2.391-1.939 4.336-4.332 4.336-1.445 0-2.719-0.716-3.507-1.807v0.025c-0.788-1.039-2.188-1.688-3.588-1.688l-9.589 0.004c0 0-1.424-0.080-2.292 1.145-0.663 1.069-1.144 3.364-1.144 5.205 0 1.851 0.264 3.532 1.156 5.231 0.752 1.211 2.28 1.132 2.28 1.132l-0.056 0.008h9.644c1.4 0 2.8-0.653 3.588-1.691v0.025c0.788-1.089 2.061-1.807 3.507-1.807 2.393 0 4.332 1.944 4.332 4.335 0 2.393-1.939 4.335-4.332 4.335-1.445 0-2.719-0.716-3.507-1.805v0.024c-0.788-1.039-2.188-1.703-3.588-1.703h-8.805c-0.437 0.056-0.931 0.264-0.505 0.932 2.955 3.116 7.407 5.099 12.384 5.099 8.072 0 14.741-5.215 15.901-12.012-0.005-0.951-0.652-1.169-0.993-1.216z"></path>
</svg>
