<!-- Generated by IcoMoon.io -->
<svg version="1.1" xmlns="http://www.w3.org/2000/svg" width="32" height="32" viewBox="0 0 32 32">
<title>draugiem-dot-lv</title>
<path fill="#f60" d="M10.872 20.128c0.064 0.461 0.187 0.749 0.371 0.924 0.192 0.173 0.453 0.24 0.795 0.28 0.405-0.040 0.68-0.133 0.867-0.4 0.111-0.173 0.187-0.44 0.221-0.813l0.131-1.547v-0.027l-0.027-0.24-0.040-0.227-0.040-0.233-0.043-0.22-0.040-0.232-0.040-0.22-0.040-0.219-0.040-0.227-0.037-0.213-0.080-0.4v-0.184l-0.040-0.181-0.040-0.177-0.020-0.168-0.040-0.155-0.040-0.133-0.040-0.227-0.063-0.223-0.12-0.48-0.017-0.263-0.069-0.271-0.060-0.28-0.071-0.28-0.040-0.28-0.057-0.287-0.040-0.284-0.023-0.323-0.020-0.28-0.013-0.304v-0.536l0.027-0.28 0.047-0.28 0.061-0.28 0.080-0.267 0.12-0.259 0.141-0.248 0.053-0.099c-0.267-0.061-0.587-0.101-0.92-0.101-0.147 0-0.267 0-0.4 0.021-3.107 0.267-1.84 3.781-1.307 5.711 0.373 1.333 0.8 4.453 0.96 5.413zM11.245 8.576c0.12 0.040 0.237 0.060 0.377 0.060 0.64 0 1.053-0.34 1.28-0.86 0.149-0.36 0.216-0.803 0.204-1.26-0.019-0.4-0.099-0.763-0.219-1.080-0.26-0.623-0.72-1.043-1.421-1.043-0.099 0-0.18 0-0.24 0.021-0.9 0.147-1.301 1.040-1.26 2.147 0.020 1.040 0.419 1.907 1.24 2.107zM12.904 13.7c0.112 0.48 0.224 0.92 0.316 1.3 0.38 1.541 0.749 5.124 0.887 6.224 0.131 1.101 0.52 1.32 1.293 1.4 0.768-0.059 1.156-0.299 1.287-1.379 0.129-1.080 0.507-4.664 0.876-6.204 0.091-0.373 0.213-0.813 0.32-1.28 0.344-1.4 0.621-3.053 0-4.133-0.395-0.68-1.153-1.12-2.48-1.12-1.343 0-2.111 0.44-2.496 1.147-0.62 1.080-0.341 2.747 0 4.147zM15.381 7.993h0.020c1.2 0 1.773-1.097 1.773-2.44s-0.56-2.461-1.76-2.461h-0.013c-1.213 0-1.773 1.12-1.773 2.48s0.56 2.453 1.783 2.453zM19.151 8.996c-0.36 0-0.68 0.040-0.94 0.1l0.060 0.1 0.14 0.259 0.1 0.267 0.080 0.28 0.060 0.28 0.040 0.28 0.020 0.307v0.587l-0.020 0.307v0.223l-0.040 0.289-0.040 0.284-0.059 0.284-0.061 0.28-0.059 0.28-0.060 0.275-0.067 0.267-0.067 0.263-0.080 0.26-0.067 0.24-0.040 0.24-0.067 0.224-0.024 0.12-0.040 0.16-0.040 0.183-0.035 0.179-0.020 0.176-0.040 0.16v0.040l-0.080 0.4-0.027 0.217-0.040 0.224-0.027 0.22-0.040 0.22-0.027 0.24-0.017 0.22-0.037 0.48-0.023 0.24v0.019c0.060 0.661 0.1 1.24 0.12 1.56 0.040 0.383 0.1 0.64 0.221 0.821 0.187 0.267 0.467 0.36 0.88 0.4 0.347-0.040 0.6-0.093 0.8-0.293 0.2-0.16 0.307-0.457 0.387-0.92 0.16-0.937 0.587-4.067 0.947-5.404 0.533-1.933 1.8-5.444-1.307-5.712-0.14-0.019-0.26-0.019-0.4-0.019l0.016-0.067zM19.172 8.636c0.12 0 0.24-0.019 0.36-0.040 0.8-0.2 1.2-1.059 1.24-2.080 0.040-1.080-0.36-2-1.267-2.123-0.080-0.021-0.16-0.021-0.24-0.021-0.72 0-1.187 0.44-1.427 1.053-0.12 0.32-0.2 0.693-0.2 1.093-0.027 0.48 0.040 0.92 0.2 1.28 0.213 0.533 0.64 0.88 1.28 0.88zM22.892 10.236c5.72 0.083 9.067 3.603 5.28 8.407-1.76 2.223-4.707 4.423-8.653 5.824l-0.56 0.2c-0.387 0.12-0.747 0.24-1.107 0.341-0.867 0.24-1.68 0.46-2.48 0.62-0.867 0.187-1.707 0.307-2.507 0.4-0.587 0.067-1.147 0.107-1.667 0.107-3.663 0.107-6.424-0.893-7.32-3.040-1.080-2.56 1.097-6.12 5.48-8.84-3.24 1.293-9.12 4.387-9.381 8.76v0.56c0.021 0.467 0.099 0.907 0.26 1.387 0.943 2.96 5.347 4.36 10.947 3.867 0.543-0.040 1.103-0.097 1.667-0.187 0.807-0.109 1.64-0.28 2.48-0.48 0.807-0.173 1.64-0.413 2.487-0.68l0.56-0.173c0.38-0.12 0.743-0.24 1.101-0.38 4.861-1.76 8.467-4.1 10.568-6.803 1.2-1.536 1.82-2.976 1.94-4.24v-0.977c-0.347-3.217-4.080-5.099-9.169-4.58l0.059-0.060z"></path>
</svg>
