<!-- Generated by IcoMoon.io -->
<svg version="1.1" xmlns="http://www.w3.org/2000/svg" width="32" height="32" viewBox="0 0 32 32">
<title>dribbble</title>
<path fill="#ea4c89" d="M16 32c-8.82 0-16-7.18-16-16s7.18-16 16-16 16 7.18 16 16-7.18 16-16 16zM29.493 18.189c-0.467-0.147-4.227-1.271-8.512-0.584 1.787 4.912 2.516 8.912 2.656 9.744 3.067-2.073 5.248-5.36 5.856-9.16zM21.34 28.6c-0.204-1.2-1-5.376-2.92-10.36l-0.088 0.027c-7.72 2.687-10.48 8.033-10.72 8.533 2.307 1.811 5.227 2.888 8.387 2.888 1.893 0 3.693-0.387 5.341-1.088zM5.847 25.16c0.309-0.533 4.060-6.74 11.109-9.020 0.18-0.060 0.36-0.112 0.54-0.16-0.347-0.78-0.72-1.556-1.109-2.32-6.827 2.040-13.445 1.953-14.045 1.94l-0.005 0.416c0 3.511 1.331 6.716 3.511 9.144zM2.62 13.22c0.613 0.011 6.244 0.035 12.636-1.664-2.264-4.024-4.707-7.411-5.067-7.904-3.824 1.8-6.68 5.32-7.569 9.568zM12.8 2.736c0.376 0.507 2.86 3.885 5.096 8 4.86-1.82 6.92-4.587 7.164-4.936-2.413-2.147-5.587-3.448-9.060-3.448-1.1 0-2.173 0.133-3.2 0.384zM26.58 7.38c-0.291 0.387-2.58 3.324-7.632 5.387 0.32 0.653 0.627 1.313 0.907 1.981 0.107 0.24 0.2 0.48 0.293 0.707 4.547-0.573 9.067 0.347 9.52 0.44-0.027-3.227-1.173-6.187-3.088-8.515z"></path>
</svg>
