<!-- Generated by IcoMoon.io -->
<svg version="1.1" xmlns="http://www.w3.org/2000/svg" width="32" height="32" viewBox="0 0 32 32">
<title>drone</title>
<path d="M20.093 18.177c0 2.261-1.833 4.093-4.093 4.093s-4.093-1.833-4.093-4.093v0c0-2.261 1.833-4.093 4.093-4.093s4.093 1.833 4.093 4.093v0zM16 2.475c7.145 0.056 15.269 5.093 16 14.587h-9.675c0 0-1.247-5.244-6.325-5.209s-6.325 5.209-6.325 5.209h-9.675c0.471-9.325 8.459-14.645 16-14.587zM16.067 29.525c-5.328 0.015-10.305-4.007-12.345-10.232h5.953c0 0 1.284 5.185 6.364 5.151s6.288-5.151 6.288-5.151h5.953c-1.327 6.587-6.885 10.219-12.213 10.232z"></path>
</svg>
