<!-- Generated by IcoMoon.io -->
<svg version="1.1" xmlns="http://www.w3.org/2000/svg" width="32" height="32" viewBox="0 0 32 32">
<title>drupal</title>
<path fill="#0678be" d="M27.267 4.736c-2.923-3.060-6.956-4.728-11.267-4.728-8.759 0-15.991 7.229-15.991 15.992s7.231 15.992 15.991 15.992 15.993-7.229 15.993-15.992c0-4.311-1.668-8.344-4.727-11.264zM16 26.429c-4.867 0-8.76-3.893-8.76-8.76 0-4.033 2.78-6.815 5.144-9.179 1.669-1.669 3.2-3.2 3.616-5.007 0.417 1.669 1.947 3.199 3.616 4.867 2.364 2.365 5.145 5.147 5.145 9.179 0 4.867-3.893 8.761-8.761 8.9z"></path>
</svg>
