<!-- Generated by IcoMoon.io -->
<svg version="1.1" xmlns="http://www.w3.org/2000/svg" width="32" height="32" viewBox="0 0 32 32">
<title>dtube</title>
<path fill="#f00" d="M30.133 7.333c-1.196-2.273-2.962-4.107-5.11-5.353l-0.063-0.034c-2.095-1.192-4.602-1.895-7.274-1.895-0.086 0-0.173 0.001-0.259 0.002l0.013-0h-17.2l9.213 5.333h7.987c2.587 0 4.547 0.827 5.893 2.507 1.333 1.667 2 4.107 2 7.347v1.693c-0.013 3.12-0.707 5.52-2.067 7.2s-3.333 2.52-5.893 2.52h-8.227l-9.147 5.28h17.507c2.787 0 5.293-0.653 7.507-1.92s3.933-3.067 5.16-5.36 1.827-4.933 1.827-7.907v-1.467c0-2.96-0.627-5.6-1.867-7.947zM0.173 5.28v21.467l18.587-10.747z"></path>
</svg>
