<!-- Generated by IcoMoon.io -->
<svg version="1.1" xmlns="http://www.w3.org/2000/svg" width="32" height="32" viewBox="0 0 32 32">
<title>duckduckgo</title>
<path fill="#de5833" d="M16 0c-8.836 0-16 7.164-16 16s7.164 16 16 16 16-7.164 16-16-7.164-16-16-16zM16 30.667c-8.1 0-14.667-6.568-14.667-14.667s6.568-14.667 14.667-14.667 14.667 6.567 14.667 14.667-6.567 14.667-14.667 14.667zM29.625 16c0 6.407-4.423 11.777-10.381 13.233-0.36-0.695-0.707-1.356-0.999-1.917 0.86 0.332 2.573 0.957 2.944 0.82 0.501-0.192 0.376-4.199-0.187-4.327-0.451-0.1-2.176 1.116-2.855 1.612l0.045 0.208c0.104 0.529 0.192 1.324 0.040 1.663-0.001 0.005-0.003 0.013-0.005 0.017-0.020 0.047-0.051 0.087-0.090 0.117l-0.001 0c-0.379 0.251-1.441 0.379-2.004 0.251-0.034-0.008-0.062-0.017-0.090-0.028l0.005 0.002c-0.925 0.528-2.68 1.479-3 1.295-0.439-0.251-0.503-3.568-0.439-4.384 0.047-0.613 2.204 0.381 3.256 0.905 0.232-0.217 0.803-0.363 1.307-0.413-0.76-1.852-1.32-3.969-0.977-5.473 0 0.003 0.003 0.003 0.003 0.003 0.475 0.331 3.64 1.4 5.213 1.369 1.573-0.032 4.152-0.991 3.871-1.764-0.283-0.773-2.847 0.68-5.523 0.432-1.981-0.184-2.331-1.072-1.893-1.72 0.552-0.815 1.557 0.155 3.215-0.341 1.66-0.495 3.983-1.38 4.843-1.863 1.992-1.111-0.833-1.569-1.5-1.263-0.632 0.293-2.831 0.849-3.852 1.093 0.571-2.021-0.804-5.532-2.343-7.067-0.501-0.501-1.268-0.816-2.137-0.981-0.333-0.459-0.872-0.895-1.633-1.303-1.035-0.552-2.263-0.877-3.568-0.877-0.433 0-0.857 0.036-1.271 0.104l0.045-0.006-0.032 0.005-0.045 0.005 0.005 0.003c-0.197 0.037-0.316 0.107-0.476 0.131 0.197 0.021 0.94 0.368 1.409 0.557-0.232 0.091-0.549 0.144-0.795 0.245-0.102 0.015-0.193 0.041-0.279 0.077l0.007-0.003c-0.231 0.107-0.404 0.5-0.4 0.687 1.12-0.115 2.776-0.035 3.988 0.328-0.859 0.12-1.647 0.344-2.215 0.643-0.021 0.011-0.040 0.024-0.064 0.037-0.072 0.027-0.141 0.056-0.203 0.088-1.823 0.96-2.628 3.207-2.148 5.899 0.431 2.432 2.22 10.784 3.053 14.752-5.297-1.867-9.096-6.915-9.096-12.852 0-7.525 6.1-13.625 13.625-13.625s13.625 6.1 13.625 13.625zM12.127 12.775c-0.558 0-1.011 0.453-1.011 1.011s0.453 1.011 1.011 1.011v0c0.558 0 1.011-0.453 1.011-1.011s-0.453-1.011-1.011-1.011v0zM12.577 13.711c-0.144 0-0.261-0.117-0.261-0.261s0.117-0.261 0.261-0.261v0c0.144 0 0.261 0.117 0.261 0.261s-0.117 0.261-0.261 0.261v0zM18.876 12.32c-0.010-0-0.022-0.001-0.034-0.001-0.479 0-0.867 0.388-0.867 0.867s0.388 0.867 0.867 0.867c0.012 0 0.024-0 0.036-0.001l-0.002 0c0.464-0.019 0.833-0.399 0.833-0.866s-0.369-0.847-0.831-0.866l-0.002-0zM19.263 13.121c-0.124 0-0.224-0.1-0.224-0.224s0.1-0.224 0.224-0.224v0c0.124 0 0.224 0.1 0.224 0.224s-0.1 0.224-0.224 0.224v0zM12.417 10.861c0 0-0.761-0.347-1.5 0.12-0.739 0.464-0.712 0.939-0.712 0.939s-0.392-0.875 0.653-1.304c1.048-0.427 1.56 0.245 1.559 0.245zM19.399 10.792c0 0-0.547-0.312-0.973-0.307-0.872 0.011-1.108 0.395-1.108 0.395s0.147-0.917 1.26-0.733c0.369 0.069 0.67 0.312 0.818 0.638l0.003 0.007z"></path>
</svg>
