<!-- Generated by IcoMoon.io -->
<svg version="1.1" xmlns="http://www.w3.org/2000/svg" width="32" height="32" viewBox="0 0 32 32">
<title>dunked</title>
<path fill="#2da9d7" d="M18.388 0v26.355c0.045 3.043 2.523 5.493 5.573 5.493 0.001 0 0.002 0 0.003 0h5.573v-26.352c-0.044-3.045-2.522-5.496-5.573-5.496-0.001 0-0.001 0-0.002 0h0zM8.435 19.907c-0 0-0 0-0 0-3.247 0-5.889 2.592-5.97 5.819l-0 0.008v0.295c0.050 3.26 2.704 5.883 5.971 5.883s5.921-2.623 5.971-5.878l0-0.005v-0.285c-0.076-3.239-2.72-5.836-5.97-5.836-0.001 0-0.001 0-0.002 0h0z"></path>
</svg>
