<!-- Generated by IcoMoon.io -->
<svg version="1.1" xmlns="http://www.w3.org/2000/svg" width="32" height="32" viewBox="0 0 32 32">
<title>duolingo</title>
<path fill="#58cc02" d="M9.6 3.825c-1.804 0.006-3.264 1.469-3.267 3.273v4.156l-4.899-1.217c-0.085-0.022-0.183-0.035-0.283-0.035-0.014 0-0.028 0-0.042 0.001l0.002-0c-0.619 0.022-1.112 0.529-1.112 1.151 0 0.026 0.001 0.052 0.003 0.078l-0-0.003c0.289 3.777 2.933 6.864 6.453 7.813l0.061 0.014c0.9 4.488 4.798 7.826 9.48 7.852h0.003c4.681-0.030 8.575-3.366 9.464-7.788l0.010-0.062c3.586-0.96 6.233-4.049 6.521-7.798l0.002-0.030c0.002-0.023 0.002-0.049 0.002-0.075 0-0.622-0.492-1.128-1.108-1.151l-0.002-0c-0.011-0-0.025-0.001-0.038-0.001-0.102 0-0.202 0.013-0.296 0.038l0.008-0.002-4.897 1.217v-4.156c-0.002-1.805-1.463-3.267-3.266-3.273h-0.001c-0.463 0.012-0.901 0.105-1.306 0.265l0.026-0.009c-2.493 1.063-4.152 1.584-5.108 1.6-0.956-0.016-2.616-0.537-5.109-1.6-0.385-0.154-0.831-0.247-1.298-0.256l-0.004-0zM20.447 5.703c0.007-0.001 0.016-0.001 0.024-0.001s0.017 0 0.025 0.001l-0.001-0c0.087 0.011 0.169 0.067 0.235 0.169 0.027 0.048 0.058 0.11 0.087 0.174l0.007 0.016c0.011 0.022 0.027 0.061 0.043 0.1l0.006 0.018c0.010 0.023 0.026 0.064 0.041 0.105l0.006 0.018c0.009 0.023 0.022 0.065 0.034 0.107l0.005 0.018c0.008 0.023 0.019 0.064 0.030 0.106l0.004 0.018c0.006 0.025 0.015 0.069 0.023 0.112l0.002 0.016c0.006 0.028 0.013 0.072 0.019 0.116l0.001 0.013c0.004 0.029 0.009 0.071 0.013 0.114l0.001 0.010c0.003 0.038 0.006 0.085 0.007 0.133l0 0.003c0.001 0.031 0.002 0.068 0.002 0.105s-0.001 0.073-0.002 0.11l0-0.005c0.001 0 0.003 0 0.005 0s0.003 0 0.005 0h-0l0.631-0.701c0.004-0.005 0.009-0.009 0.013-0.013l0-0c0.004-0.004 0.008-0.008 0.013-0.012l0-0c0.005-0.004 0.010-0.009 0.015-0.013l0.001-0.001c0.003-0.002 0.006-0.005 0.009-0.008l0.001-0c0.004-0.003 0.009-0.006 0.015-0.010l0.001-0.001c0.003-0.002 0.007-0.005 0.011-0.007l0.001-0.001c0.003-0.002 0.008-0.005 0.013-0.007l0.002-0.001c0.003-0.001 0.007-0.004 0.011-0.006l0.002-0.001c0.003-0.001 0.008-0.004 0.013-0.006l0.002-0.001c0.003-0.002 0.009-0.004 0.015-0.006l0.002-0.001c0.002-0.001 0.007-0.002 0.011-0.003l0.002-0.001c0.003-0.001 0.009-0.003 0.015-0.005l0.002-0.001c0.003-0.001 0.009-0.002 0.015-0.004l0.002-0c0.003-0.001 0.008-0.002 0.013-0.002l0.002-0c0.005-0.001 0.013-0.002 0.020-0.003l0.001-0c0.001-0 0.003-0 0.005-0s0.003 0 0.005 0h-0c0.004-0 0.009-0 0.013-0s0.009 0 0.014 0l-0.001-0c0.001 0 0.002-0 0.003-0s0.002 0 0.003 0h-0c0.009 0.001 0.017 0.002 0.025 0.003l-0.002-0c0.002-0 0.004-0 0.007-0s0.005 0 0.007 0h-0c0.007 0.002 0.012 0.003 0.017 0.005l-0.002-0.001c0.008 0.002 0.014 0.003 0.020 0.005l-0.002-0.001c0.008 0.002 0.014 0.004 0.020 0.006l-0.002-0.001c0.007 0.002 0.011 0.003 0.016 0.005l-0.002-0.001c0.007 0.003 0.012 0.005 0.017 0.008l-0.002-0.001c0.008 0.003 0.014 0.006 0.019 0.009l-0.002-0.001c0 0 0 0 0.001 0s0 0 0.001 0h-0c0.004 0.002 0.005 0.003 0.007 0.004l-0.002-0.001c0.009 0.005 0.016 0.009 0.022 0.014l-0.001-0.001c0.006 0.003 0.009 0.004 0.012 0.006l-0.002-0.001c0.007 0.004 0.012 0.008 0.017 0.011l-0.001-0.001c0.005 0.004 0.009 0.009 0.013 0.013l0 0c0.004 0.003 0.007 0.005 0.010 0.007l-0.001-0.001c0.005 0.005 0.010 0.010 0.015 0.014l0 0c0.003 0.003 0.006 0.007 0.009 0.010l0 0c0.002 0.003 0.005 0.006 0.008 0.009l0 0.001c0.004 0.005 0.008 0.011 0.013 0.017l0.001 0.001c0.001 0.001 0.002 0.003 0.003 0.005l0.001 0.002c0.004 0.006 0.008 0.013 0.012 0.021l0.001 0.002c0.022 0.038 0.048 0.091 0.073 0.145l0.007 0.016c0.012 0.023 0.030 0.061 0.047 0.101l0.006 0.017c0.011 0.024 0.026 0.065 0.041 0.107l0.006 0.018c0.009 0.021 0.022 0.060 0.035 0.099l0.005 0.018c0.008 0.025 0.019 0.068 0.030 0.112l0.004 0.018c0.007 0.024 0.017 0.066 0.025 0.109l0.003 0.017c0.006 0.028 0.013 0.072 0.020 0.117l0.002 0.014c0.008 0.045 0.015 0.105 0.021 0.166l0.001 0.010c0.104 0.058 0.187 0.111 0.268 0.167l-0.012-0.008c0.061 0.041 0.109 0.076 0.155 0.112l-0.009-0.006c0.059 0.042 0.107 0.079 0.154 0.116l-0.007-0.006c0.050 0.042 0.093 0.080 0.136 0.12l-0.002-0.002c0.048 0.043 0.092 0.085 0.135 0.127l-0-0c0.041 0.041 0.081 0.084 0.12 0.127l0.003 0.003c0.038 0.041 0.077 0.086 0.115 0.132l0.005 0.006c0.032 0.039 0.067 0.086 0.102 0.134l0.007 0.010c0.030 0.039 0.065 0.087 0.099 0.137l0.008 0.012c0.024 0.035 0.054 0.085 0.084 0.135l0.009 0.017c0.022 0.035 0.052 0.088 0.081 0.141l0.009 0.019c0.018 0.033 0.044 0.086 0.069 0.14l0.009 0.023c0.016 0.031 0.040 0.085 0.063 0.14l0.009 0.024c0.014 0.033 0.036 0.091 0.056 0.149l0.008 0.025c0.012 0.030 0.031 0.086 0.049 0.142l0.007 0.026c0.011 0.034 0.026 0.095 0.041 0.156l0.005 0.024c0.010 0.032 0.023 0.091 0.036 0.15l0.004 0.024c0.008 0.039 0.017 0.1 0.025 0.162l0.002 0.018c0.007 0.042 0.014 0.104 0.020 0.167l0.001 0.015c0.009 0.089 0.014 0.193 0.015 0.299v2.345c-0 0.112-0.006 0.222-0.016 0.33l0.001-0.014c-0.008 0.077-0.016 0.137-0.025 0.197l0.003-0.021c-0.010 0.080-0.019 0.141-0.030 0.202l0.003-0.022c-0.016 0.085-0.030 0.146-0.045 0.206l0.005-0.025c-0.019 0.082-0.034 0.139-0.050 0.195l0.006-0.026c-0.025 0.086-0.045 0.145-0.067 0.204l0.008-0.025c-0.027 0.080-0.047 0.135-0.069 0.188l0.009-0.024c-0.033 0.079-0.059 0.135-0.085 0.189l0.009-0.021c-0.034 0.076-0.060 0.128-0.087 0.18l0.009-0.020c-0.038 0.071-0.068 0.122-0.1 0.173l0.009-0.016c-0.039 0.069-0.070 0.119-0.102 0.169l0.009-0.014c-0.041 0.060-0.075 0.108-0.111 0.154l0.007-0.009c-0.043 0.059-0.079 0.107-0.117 0.153l0.005-0.007c-0.043 0.051-0.082 0.095-0.122 0.138l0.002-0.002c-0.041 0.047-0.081 0.089-0.121 0.13l0.001-0.001c-0.043 0.042-0.088 0.084-0.135 0.124l-0.004 0.004c-0.040 0.037-0.082 0.075-0.125 0.112l-0.005 0.004c-0.038 0.031-0.085 0.066-0.132 0.101l-0.011 0.007c-0.039 0.030-0.088 0.066-0.138 0.1l-0.012 0.008c-0.035 0.024-0.084 0.054-0.134 0.084l-0.017 0.009c-0.035 0.022-0.088 0.052-0.141 0.081l-0.019 0.009c-0.031 0.017-0.083 0.043-0.136 0.067l-0.023 0.009c-0.034 0.018-0.090 0.044-0.146 0.068l-0.023 0.009c-0.029 0.013-0.084 0.033-0.139 0.052l-0.025 0.008c-0.033 0.013-0.092 0.033-0.152 0.052l-0.026 0.007c-0.033 0.010-0.092 0.026-0.152 0.039l-0.024 0.005c-0.033 0.010-0.091 0.023-0.15 0.036l-0.024 0.004c-0.041 0.008-0.105 0.017-0.169 0.025l-0.017 0.002c-0.038 0.007-0.096 0.015-0.156 0.021l-0.016 0.001c-0.094 0.009-0.204 0.014-0.315 0.015h-0.281c-0.115-0-0.228-0.006-0.34-0.017l0.015 0.001c-0.077-0.008-0.138-0.016-0.199-0.025l0.020 0.003c-0.079-0.010-0.139-0.019-0.199-0.030l0.022 0.003c-0.085-0.017-0.146-0.032-0.207-0.048l0.025 0.006c-0.082-0.018-0.139-0.033-0.195-0.049l0.026 0.006c-0.084-0.026-0.142-0.047-0.2-0.068l0.025 0.008c-0.082-0.027-0.137-0.048-0.192-0.070l0.024 0.009c-0.079-0.033-0.133-0.058-0.187-0.084l0.021 0.009c-0.076-0.034-0.129-0.061-0.181-0.088l0.020 0.009c-0.071-0.038-0.122-0.068-0.173-0.1l0.016 0.009c-0.068-0.039-0.119-0.071-0.168-0.103l0.014 0.008c-0.059-0.041-0.105-0.076-0.151-0.111l0.008 0.006c-0.059-0.042-0.107-0.079-0.154-0.116l0.007 0.006c-0.051-0.043-0.095-0.082-0.138-0.122l0.002 0.002c-0.047-0.042-0.090-0.082-0.131-0.123l0 0c-0.041-0.042-0.082-0.087-0.122-0.132l-0.003-0.004c-0.037-0.040-0.076-0.084-0.113-0.128l-0.005-0.005c-0.031-0.039-0.066-0.086-0.101-0.134l-0.008-0.011c-0.030-0.038-0.065-0.086-0.099-0.135l-0.008-0.012c-0.022-0.034-0.052-0.085-0.081-0.135l-0.009-0.018c-0.003-0.005-0.016-0.026-0.028-0.047l-0.009-0.017v1.307c-0.001 0.035-0.003 0.069-0.006 0.103l0-0.005c-0.002 0.027-0.003 0.050-0.006 0.073l0.001-0.006c-0.004 0.032-0.008 0.056-0.012 0.080l0.001-0.008c0 0 0 0.001 0 0.001s0 0.001 0 0.001v-0c-0.005 0.028-0.009 0.047-0.014 0.065l0.002-0.009c-0.008 0.038-0.016 0.066-0.024 0.094l0.002-0.010c-0.007 0.025-0.011 0.040-0.016 0.055l0.003-0.010c-0.013 0.039-0.024 0.068-0.035 0.096l0.003-0.009c-0.008 0.023-0.014 0.037-0.019 0.050l0.003-0.009c-0.017 0.038-0.032 0.068-0.048 0.096l0.004-0.007c-0.011 0.023-0.019 0.038-0.028 0.052l0.004-0.007c-0.014 0.024-0.025 0.041-0.037 0.058l0.003-0.005c-0.017 0.026-0.031 0.047-0.045 0.067l0.003-0.004c-0.015 0.020-0.027 0.036-0.039 0.052l0.002-0.003c-0.017 0.022-0.032 0.040-0.047 0.058l0.002-0.002c-0.016 0.018-0.031 0.035-0.047 0.051l0-0c-0.016 0.016-0.032 0.032-0.048 0.047l-0.001 0.001c-0.016 0.014-0.033 0.029-0.051 0.043l-0.003 0.002c-0.014 0.012-0.031 0.026-0.048 0.039l-0.003 0.002c-0.016 0.012-0.035 0.026-0.054 0.040l-0.005 0.003c-0.013 0.009-0.031 0.021-0.049 0.033l-0.006 0.003c-0.014 0.009-0.034 0.020-0.054 0.031l-0.007 0.004c-0.013 0.008-0.032 0.018-0.052 0.028l-0.008 0.004c-0.012 0.006-0.033 0.015-0.053 0.023l-0.009 0.003c-0.013 0.006-0.035 0.015-0.057 0.024l-0.009 0.003c-0.011 0.005-0.032 0.012-0.053 0.019l-0.010 0.003c-0.012 0.004-0.034 0.011-0.056 0.017l-0.010 0.002c-0.014 0.004-0.037 0.009-0.060 0.014l-0.009 0.002c-0.013 0.003-0.036 0.007-0.059 0.011l-0.008 0.001c-0.016 0.003-0.040 0.005-0.064 0.008l-0.005 0c-0.016 0.002-0.039 0.004-0.062 0.005l-0.004 0c-0.011 0-0.023 0-0.035 0s-0.025-0-0.037-0l0.002 0c-0.010 0-0.022 0-0.035 0s-0.024-0-0.036-0l0.002 0c-0.027-0.002-0.050-0.003-0.073-0.006l0.006 0.001c-0.029-0.003-0.052-0.006-0.075-0.009l0.007 0.001c-0.032-0.005-0.055-0.010-0.079-0.015l0.009 0.002c-0.031-0.006-0.054-0.011-0.076-0.017l0.009 0.002c-0.032-0.008-0.054-0.014-0.076-0.021l0.010 0.003c-0.031-0.009-0.052-0.017-0.072-0.024l0.009 0.003c-0.032-0.012-0.054-0.021-0.075-0.030l0.009 0.003c-0.030-0.012-0.050-0.021-0.070-0.030l0.008 0.004c-0.028-0.014-0.048-0.024-0.068-0.036l0.007 0.004c-0.028-0.015-0.048-0.026-0.067-0.038l0.006 0.003c-0.023-0.015-0.040-0.027-0.057-0.039l0.004 0.003c-0.025-0.017-0.044-0.031-0.063-0.045l0.003 0.003c-0.020-0.015-0.036-0.029-0.052-0.043l0.002 0.002c-0.020-0.016-0.038-0.031-0.055-0.046l0.001 0.001c-0.017-0.016-0.032-0.031-0.047-0.047l-0.001-0.001c-0.015-0.016-0.030-0.032-0.045-0.049l-0.001-0.002c-0.014-0.016-0.030-0.035-0.044-0.053l-0.002-0.003c-0.010-0.013-0.023-0.029-0.035-0.045l-0.003-0.004c-0.012-0.016-0.026-0.037-0.039-0.057l-0.003-0.005c-0.005-0.007-0.013-0.020-0.021-0.034l-0.004-0.006c-0.019-0.031-0.039-0.069-0.058-0.108l-0.004-0.008c0.002 0.005 0.001 0.003-0-0l-0.004-0.008c-0.013-0.028-0.029-0.065-0.042-0.102l-0.003-0.010c0.001 0.003-0.002-0.004-0.004-0.010l-0.003-0.010c-0.008-0.022-0.018-0.055-0.027-0.088l-0.002-0.010c-0.002-0.005-0.005-0.019-0.009-0.033l-0.002-0.009c-0.004-0.018-0.009-0.045-0.014-0.072l-0.001-0.008c-0.002-0.011-0.006-0.030-0.008-0.050l-0.001-0.007c-0.001-0.009-0.003-0.025-0.004-0.041l-0-0.005c-0-0.003-0.001-0.012-0.002-0.021l-0-0.005c0-0 0-0.001 0-0.001s0-0.001 0-0.001v0c-0.002-0.026-0.004-0.058-0.004-0.090v-1.306c-0.021 0.038-0.032 0.058-0.044 0.078l0.009-0.017c-0.039 0.069-0.070 0.119-0.102 0.169l0.009-0.014c-0.041 0.059-0.074 0.106-0.109 0.151l0.006-0.009c-0.043 0.061-0.080 0.11-0.118 0.158l0.006-0.008c-0.041 0.048-0.078 0.090-0.117 0.132l0.002-0.002c-0.044 0.051-0.085 0.096-0.128 0.14l0.001-0.001c-0.041 0.040-0.085 0.080-0.129 0.119l-0.004 0.004c-0.041 0.039-0.084 0.078-0.129 0.116l-0.005 0.004c-0.040 0.032-0.087 0.068-0.136 0.103l-0.011 0.007c-0.038 0.030-0.085 0.064-0.132 0.098l-0.012 0.008c-0.035 0.024-0.085 0.054-0.135 0.084l-0.017 0.009c-0.036 0.023-0.088 0.053-0.141 0.083l-0.019 0.009c-0.032 0.018-0.084 0.043-0.138 0.068l-0.022 0.009c-0.032 0.017-0.087 0.042-0.142 0.066l-0.024 0.009c-0.032 0.014-0.089 0.035-0.147 0.055l-0.025 0.008c-0.031 0.013-0.088 0.033-0.145 0.052l-0.026 0.007c-0.031 0.010-0.088 0.025-0.145 0.038l-0.024 0.005c-0.036 0.011-0.097 0.025-0.159 0.038l-0.024 0.004c-0.036 0.007-0.095 0.017-0.155 0.025l-0.018 0.002c-0.042 0.007-0.104 0.015-0.167 0.021l-0.015 0.001c-0.097 0.010-0.211 0.016-0.326 0.016h-0.281c-0.112-0.001-0.222-0.007-0.331-0.017l0.015 0.001c-0.075-0.007-0.134-0.015-0.193-0.024l0.020 0.003c-0.081-0.009-0.145-0.019-0.208-0.030l0.022 0.003c-0.082-0.017-0.139-0.031-0.196-0.046l0.025 0.006c-0.084-0.018-0.144-0.034-0.203-0.050l0.025 0.006c-0.085-0.025-0.143-0.045-0.201-0.067l0.025 0.008c-0.080-0.027-0.135-0.047-0.188-0.069l0.024 0.009c-0.080-0.034-0.137-0.059-0.192-0.087l0.021 0.009c-0.076-0.033-0.129-0.059-0.18-0.085l0.020 0.009c-0.071-0.039-0.123-0.069-0.174-0.101l0.015 0.009c-0.067-0.039-0.116-0.069-0.165-0.101l0.014 0.009c-0.063-0.042-0.112-0.077-0.16-0.113l0.009 0.007c-0.057-0.042-0.103-0.078-0.148-0.114l0.006 0.005c-0.049-0.041-0.092-0.079-0.134-0.118l0.002 0.002c-0.050-0.044-0.094-0.086-0.138-0.129l0.001 0.001c-0.039-0.040-0.079-0.083-0.117-0.126l-0.003-0.004c-0.038-0.041-0.077-0.085-0.116-0.131l-0.004-0.005c-0.033-0.040-0.069-0.088-0.105-0.136l-0.007-0.010c-0.029-0.037-0.063-0.085-0.096-0.133l-0.008-0.012c-0.024-0.036-0.055-0.086-0.085-0.138l-0.009-0.017c-0.022-0.035-0.052-0.086-0.081-0.139l-0.009-0.019c-0.018-0.032-0.043-0.084-0.068-0.138l-0.009-0.022c-0.017-0.033-0.042-0.088-0.066-0.144l-0.009-0.024c-0.013-0.030-0.033-0.085-0.052-0.14l-0.008-0.025c-0.014-0.033-0.034-0.092-0.053-0.152l-0.007-0.026c-0.010-0.031-0.025-0.088-0.038-0.145l-0.005-0.024c-0.010-0.035-0.024-0.097-0.036-0.158l-0.004-0.023c-0.008-0.039-0.017-0.1-0.025-0.162l-0.002-0.018c-0.007-0.039-0.015-0.099-0.021-0.16l-0.001-0.016c-0.009-0.094-0.015-0.204-0.016-0.316v-2.344c0.001-0.108 0.007-0.214 0.017-0.318l-0.001 0.015c0.007-0.077 0.015-0.139 0.024-0.2l-0.002 0.020c0.010-0.079 0.019-0.139 0.030-0.198l-0.003 0.022c0.016-0.085 0.030-0.146 0.045-0.206l-0.005 0.025c0.020-0.084 0.036-0.142 0.053-0.199l-0.007 0.026c0.024-0.084 0.044-0.141 0.064-0.197l-0.008 0.025c0.028-0.083 0.049-0.139 0.071-0.195l-0.009 0.024c0.033-0.080 0.058-0.135 0.084-0.19l-0.009 0.022c0.034-0.075 0.060-0.127 0.087-0.179l-0.010 0.020c0.039-0.074 0.070-0.127 0.102-0.18l-0.009 0.016c0.038-0.066 0.069-0.114 0.1-0.161l-0.008 0.013c0.042-0.063 0.078-0.113 0.115-0.161l-0.007 0.009c0.041-0.057 0.076-0.103 0.112-0.149l-0.006 0.007c0.043-0.051 0.083-0.096 0.123-0.14l-0.002 0.002c0.043-0.048 0.083-0.092 0.125-0.134l-0.001 0.001c0.040-0.039 0.083-0.079 0.126-0.117l0.004-0.003c0.043-0.040 0.089-0.080 0.136-0.119l0.006-0.005c0.038-0.031 0.083-0.066 0.129-0.1l0.010-0.007c0.039-0.029 0.089-0.065 0.139-0.098l0.013-0.008c0.069-0.048 0.152-0.1 0.238-0.149l0.018-0.009c0.006-0.071 0.014-0.132 0.023-0.192l-0.002 0.015c0.008-0.057 0.015-0.099 0.023-0.142l-0.003 0.016c0.011-0.060 0.021-0.103 0.032-0.146l-0.004 0.018c0.014-0.060 0.026-0.101 0.038-0.142l-0.005 0.018c0.017-0.061 0.031-0.102 0.046-0.144l-0.006 0.018c0.020-0.059 0.035-0.099 0.052-0.139l-0.006 0.017c0.023-0.056 0.041-0.096 0.060-0.134l-0.007 0.015c0.031-0.069 0.057-0.12 0.084-0.171l-0.007 0.014c0.005-0.010 0.009-0.018 0.014-0.025l-0.001 0.001c0.002-0.003 0.004-0.005 0.006-0.007l-0 0.001c0.005-0.007 0.009-0.012 0.014-0.018l-0 0.001c0.003-0.004 0.006-0.007 0.008-0.010l-0 0c0.003-0.004 0.006-0.008 0.010-0.011l-0 0c0.005-0.005 0.009-0.010 0.013-0.015l-0 0c0.003-0.002 0.006-0.005 0.009-0.008l0.001-0c0.004-0.004 0.009-0.008 0.014-0.011l0.001-0.001c0.004-0.003 0.009-0.006 0.015-0.010l0.001-0.001c0.002-0.002 0.006-0.004 0.009-0.006l0.001-0.001c0.005-0.003 0.012-0.007 0.020-0.011l0.002-0.001c0.001-0 0.003-0.002 0.006-0.003l0.002-0.001c0.004-0.002 0.009-0.005 0.015-0.007l0.002-0.001c0.003-0.001 0.008-0.004 0.013-0.006l0.002-0.001c0.002-0.001 0.007-0.002 0.011-0.003l0.002-0.001c0.003-0.001 0.009-0.003 0.015-0.005l0.002-0.001c0.003-0.001 0.009-0.002 0.015-0.004l0.002-0c0.003-0.001 0.008-0.002 0.013-0.002l0.002-0c0.003-0 0.008-0.001 0.012-0.001l0.001-0c0.006-0.001 0.014-0.002 0.021-0.003l0.001-0c0.001 0 0.003-0 0.004-0s0.003 0 0.004 0h-0c0.004-0 0.008-0 0.013-0s0.009 0 0.013 0l-0.001-0c0.001-0 0.003-0 0.005-0s0.003 0 0.005 0h-0c0.009 0.001 0.016 0.003 0.024 0.004l-0.002-0c0.007 0.001 0.011 0.002 0.016 0.003l-0.002-0c0.008 0.002 0.015 0.003 0.021 0.005l-0.002-0c0.008 0.002 0.013 0.004 0.018 0.006l-0.002-0.001c0.007 0.002 0.012 0.003 0.017 0.005l-0.002-0.001c0.008 0.003 0.014 0.005 0.020 0.008l-0.002-0.001c0.006 0.003 0.011 0.005 0.015 0.008l-0.002-0.001c0.006 0.003 0.011 0.005 0.015 0.008l-0.002-0.001c0.007 0.003 0.013 0.006 0.018 0.009l-0.002-0.001c0.005 0.003 0.009 0.006 0.013 0.009l-0.001-0.001c0.007 0.004 0.012 0.008 0.017 0.011l-0.001-0.001c0.004 0.003 0.007 0.005 0.010 0.007l-0.001-0.001c0.006 0.005 0.011 0.009 0.016 0.014l-0-0c0.005 0.004 0.009 0.009 0.013 0.013l0 0c0.005 0.004 0.009 0.009 0.013 0.013l0 0v-0.007l0.628 0.697c0.002 0 0.004 0 0.007 0s0.005 0 0.007 0h-0c-0.002-0.036-0.003-0.078-0.003-0.12 0-0.030 0.001-0.061 0.002-0.091l-0 0.004c0.002-0.052 0.005-0.1 0.009-0.147l-0.001 0.010c0.004-0.052 0.008-0.094 0.013-0.137l-0.001 0.013c0.007-0.058 0.014-0.102 0.022-0.145l-0.002 0.016c0.011-0.059 0.020-0.102 0.030-0.144l-0.004 0.018c0.013-0.060 0.024-0.102 0.037-0.144l-0.005 0.018c0.017-0.061 0.031-0.102 0.046-0.144l-0.006 0.018c0.020-0.059 0.035-0.1 0.052-0.14l-0.006 0.017c0.021-0.056 0.038-0.095 0.055-0.132l-0.007 0.016c0.035-0.080 0.067-0.142 0.1-0.203l-0.007 0.013c0.113-0.18 0.285-0.217 0.427-0.111 0.020 0.015 0.040 0.033 0.059 0.053l2.373 2.587v-0.003c0.039 0.041 0.079 0.079 0.121 0.117l0.002 0.002c0.029 0.028 0.060 0.055 0.091 0.082l0.003 0.003c0.028 0.024 0.061 0.050 0.095 0.075l0.006 0.005c0.027 0.021 0.061 0.046 0.096 0.070l0.008 0.005c0.025 0.017 0.060 0.039 0.095 0.060l0.012 0.006c0.026 0.017 0.062 0.039 0.099 0.060l0.013 0.007c0.023 0.013 0.060 0.032 0.098 0.051l0.015 0.007c0.023 0.012 0.061 0.030 0.1 0.047l0.017 0.006c0.023 0.011 0.064 0.027 0.105 0.042l0.018 0.006c0.021 0.009 0.061 0.022 0.1 0.035l0.018 0.005c0.024 0.008 0.066 0.020 0.109 0.031l0.018 0.004c0.022 0.007 0.063 0.017 0.104 0.026l0.017 0.003c0.027 0.006 0.071 0.013 0.116 0.020l0.014 0.002c0.027 0.005 0.070 0.011 0.113 0.016l0.012 0.001c0.034 0.003 0.079 0.006 0.123 0.008l0.005 0c0.037 0.002 0.082 0.004 0.127 0.004h0.001c0.046-0 0.091-0.002 0.136-0.004l-0.007 0c0.049-0.002 0.094-0.005 0.138-0.009l-0.010 0.001c0.055-0.006 0.098-0.012 0.14-0.019l-0.015 0.002c0.058-0.008 0.102-0.015 0.146-0.024l-0.016 0.003c0.058-0.012 0.098-0.023 0.138-0.034l-0.018 0.004c0.061-0.014 0.104-0.025 0.146-0.038l-0.018 0.005c0.058-0.018 0.097-0.032 0.136-0.047l-0.018 0.006c0.059-0.021 0.099-0.037 0.139-0.054l-0.017 0.006c0.055-0.023 0.093-0.041 0.131-0.060l-0.015 0.007c0.053-0.025 0.090-0.044 0.127-0.064l-0.013 0.007c0.050-0.028 0.086-0.050 0.122-0.073l-0.010 0.006c0.047-0.028 0.082-0.050 0.116-0.073l-0.009 0.006c0.042-0.030 0.076-0.055 0.109-0.081l-0.005 0.004c0.040-0.030 0.072-0.056 0.104-0.082l-0.004 0.003c0.036-0.030 0.067-0.058 0.097-0.087l-0.001 0.001c0.043-0.039 0.083-0.078 0.122-0.118l0.001 0.001 2.373-2.587c0.018-0.020 0.037-0.037 0.058-0.053l0.001-0.001c0.040-0.031 0.089-0.052 0.143-0.057l0.001-0zM20.473 5.927c-1.084 0.989-1.892 2.285-3.1 3.144-1.243 0.743-2.947 0.259-3.764-0.893-0.683-0.747-1.343-1.56-2.084-2.223-0.432 0.344-0.219 0.993-0.443 1.437-0.277 0.275-0.56-0.241-0.701-0.421-0.112-0.227-0.423-0.377-0.515-0.064-0.217 0.371-0.053 0.987-0.555 1.143-1.225 0.787-1.703 2.343-1.532 3.723-0.040 1.309-0.088 2.821 0.931 3.812 1.475 1.573 4.387 1.397 5.565-0.427 0.077-0.187 0.193-0.401 0.348-0.56v-0.56c0-0.001 0-0.003 0-0.004s0-0.003 0-0.004v0l-0.467-0.079c-0.032-0.006-0.057-0.034-0.057-0.068 0-0.003 0-0.006 0.001-0.010l-0 0c0.165-0.908 0.948-1.588 1.89-1.592h0c0.002 0 0.005-0 0.008-0 0.946 0 1.733 0.681 1.897 1.58l0.002 0.012c0 0.003 0.001 0.006 0.001 0.009 0 0.034-0.025 0.063-0.058 0.068l-0 0-0.467 0.080c0 0 0 0 0 0.001s0 0 0 0.001v-0 0.507l0.009 0.001c0.779 2.045 3.637 2.756 5.356 1.504 0.915-0.66 1.504-1.722 1.504-2.923 0-0.161-0.011-0.32-0.031-0.476l0.002 0.018c0.019-1.377 0.173-2.975-0.871-4.056-0.288-0.36-0.805-0.532-1.016-0.929-0.073-0.333-0.055-0.784-0.381-0.981-0.413 0.172-0.508 0.741-0.971 0.845-0.267-0.507-0.073-1.196-0.503-1.616zM11.229 8.624c1.469 0.001 2.659 1.191 2.659 2.66v0 1.6c-0.011 0.448-0.13 0.866-0.334 1.231l0.007-0.014c-0.12-0.063-0.479-0.21-0.84-0.352l-0.246-0.085c0.016-0.016 0.031-0.032 0.046-0.048l0.001-0.001c0.006-0.007 0.013-0.015 0.020-0.022l0.001-0.002c0.021-0.023 0.042-0.048 0.062-0.074l0.002-0.003c0.003-0.004 0.008-0.011 0.013-0.019l0.003-0.004c0.016-0.022 0.034-0.048 0.050-0.075l0.003-0.005c0.003-0.004 0.009-0.013 0.014-0.022l0.003-0.005c0.012-0.020 0.026-0.047 0.039-0.075l0.003-0.008c0.002-0.003 0.007-0.012 0.011-0.022l0.003-0.007c0.008-0.018 0.019-0.044 0.029-0.071l0.003-0.009c0.003-0.005 0.008-0.019 0.013-0.033l0.003-0.009c0.006-0.017 0.014-0.042 0.021-0.069l0.002-0.009c0.002-0.006 0.006-0.020 0.010-0.035l0.002-0.009c0.004-0.016 0.008-0.040 0.012-0.065l0.001-0.007c0.002-0.011 0.006-0.031 0.009-0.051l0.001-0.007c0.004-0.031 0.008-0.069 0.009-0.107l0-0.003v-1.377c-0-0.038-0.002-0.075-0.006-0.112l0 0.005c-0.002-0.026-0.005-0.048-0.007-0.069l0.001 0.007c-0.003-0.028-0.007-0.049-0.010-0.070l0.001 0.008c-0.005-0.029-0.010-0.050-0.015-0.071l0.002 0.009c-0.007-0.029-0.012-0.049-0.018-0.069l0.002 0.009c-0.009-0.030-0.016-0.051-0.024-0.071l0.003 0.009c-0.009-0.028-0.016-0.046-0.023-0.065l0.003 0.009c-0.011-0.029-0.020-0.050-0.030-0.070l0.003 0.008c-0.012-0.025-0.021-0.043-0.030-0.060l0.003 0.007c-0.014-0.025-0.025-0.043-0.036-0.061l0.003 0.005c-0.013-0.024-0.024-0.041-0.035-0.058l0.003 0.005c-0.014-0.020-0.026-0.035-0.038-0.051l0.002 0.003c-0.015-0.021-0.028-0.038-0.042-0.054l0.002 0.002c-0.014-0.017-0.027-0.032-0.041-0.046l0.001 0.001c-0.015-0.017-0.030-0.033-0.044-0.048l0 0c-0.014-0.014-0.030-0.028-0.045-0.041l-0.002-0.001c-0.014-0.013-0.029-0.027-0.045-0.040l-0.002-0.002c-0.014-0.011-0.030-0.024-0.047-0.036l-0.004-0.002c-0.014-0.010-0.030-0.023-0.048-0.035l-0.004-0.003c-0.012-0.009-0.030-0.020-0.048-0.030l-0.006-0.003c-0.012-0.007-0.029-0.018-0.047-0.027l-0.007-0.003c-0.011-0.006-0.030-0.015-0.049-0.023l-0.008-0.003c-0.012-0.006-0.032-0.015-0.053-0.024l-0.008-0.003c-0.011-0.005-0.029-0.013-0.049-0.020l-0.009-0.003c-0.010-0.004-0.029-0.010-0.048-0.016l-0.009-0.002c-0.013-0.004-0.035-0.009-0.057-0.014l-0.008-0.002c-0.012-0.003-0.032-0.008-0.053-0.012l-0.008-0.001c-0.012-0.003-0.032-0.007-0.053-0.010l-0.007-0.001c-0.015-0.002-0.037-0.005-0.059-0.008l-0.005-0c-0.032-0.003-0.069-0.005-0.106-0.005h-0.001c-0.030 0.001-0.058 0.003-0.085 0.006l0.005-0c-0.027 0.002-0.050 0.004-0.073 0.007l0.006-0.001c-0.027 0.004-0.046 0.007-0.065 0.011l0.008-0.001c-0.031 0.005-0.054 0.010-0.077 0.015l0.009-0.002c-0.029 0.007-0.049 0.012-0.069 0.018l0.009-0.002c-0.030 0.008-0.051 0.014-0.072 0.021l0.009-0.003c-0.029 0.010-0.050 0.019-0.070 0.027l0.008-0.003c-0.033 0.013-0.057 0.023-0.081 0.034l0.008-0.003c0.019 0.017 0.036 0.035 0.053 0.053l0.001 0.001c0.010 0.010 0.019 0.020 0.028 0.031l0.001 0.001c0.007 0.008 0.014 0.016 0.022 0.025l0.001 0.001c0.007 0.009 0.015 0.020 0.022 0.031l0.002 0.003c0.006 0.008 0.014 0.020 0.021 0.031l0.002 0.003c0.004 0.006 0.010 0.016 0.015 0.026l0.002 0.004c0.005 0.009 0.012 0.021 0.019 0.033l0.002 0.004c0.003 0.006 0.008 0.018 0.013 0.029l0.002 0.005c0.004 0.008 0.010 0.021 0.015 0.035l0.002 0.005c0.002 0.005 0.006 0.016 0.009 0.028l0.001 0.006c0.003 0.008 0.008 0.022 0.012 0.036l0.001 0.006c0.002 0.008 0.006 0.021 0.008 0.035l0.001 0.005c0.002 0.008 0.005 0.021 0.007 0.034l0.001 0.005c0.002 0.012 0.004 0.029 0.005 0.047l0 0.003c0.001 0.006 0.002 0.015 0.002 0.025l0 0.003c0 0.008 0 0.018 0 0.027s-0 0.019-0.001 0.029l0-0.001c0 0.004 0 0.009 0 0.013s-0 0.009-0 0.014v-0.001c-0.001 0.016-0.002 0.029-0.003 0.043l0-0.003c-0.001 0.017-0.003 0.031-0.004 0.045l0-0.004c-0.002 0.015-0.004 0.026-0.006 0.037l0.001-0.005c-0.004 0.020-0.007 0.036-0.010 0.051l0.001-0.005c-0.005 0.018-0.008 0.031-0.012 0.043l0.002-0.006c-0.006 0.019-0.010 0.032-0.015 0.046l0.002-0.006c-0.007 0.019-0.012 0.032-0.018 0.045l0.002-0.005c-0.006 0.016-0.011 0.027-0.015 0.037l0.002-0.005c-0.009 0.018-0.016 0.031-0.023 0.044l0.002-0.004c-0.008 0.015-0.013 0.025-0.019 0.036l0.002-0.004c-0.010 0.017-0.019 0.030-0.028 0.042l0.002-0.002c-0.007 0.011-0.012 0.019-0.018 0.027l0.002-0.003c-0.012 0.016-0.024 0.030-0.035 0.044l0.001-0.001c-0.007 0.008-0.012 0.014-0.018 0.021l0.001-0.001c-0.009 0.009-0.017 0.018-0.026 0.026l-0 0c-0.011 0.011-0.021 0.021-0.032 0.032l-0 0c-0.007 0.005-0.016 0.012-0.024 0.018l-0.002 0.002c-0.010 0.009-0.021 0.018-0.032 0.027l-0.002 0.001c-0.009 0.007-0.021 0.014-0.033 0.022l-0.003 0.002c-0.007 0.005-0.018 0.012-0.028 0.018l-0.004 0.002c-0.006 0.003-0.016 0.009-0.026 0.014l-0.005 0.002c-0.009 0.005-0.022 0.012-0.035 0.019l-0.005 0.002c-0.010 0.004-0.025 0.010-0.040 0.016l-0.006 0.002c-0.004 0.002-0.012 0.005-0.021 0.009l-0.005 0.002c-0.011 0.004-0.028 0.009-0.045 0.013l-0.006 0.001c-0.003 0.001-0.012 0.004-0.021 0.007l-0.006 0.001c-0.010 0.002-0.025 0.005-0.041 0.007l-0.004 0.001c-0.006 0.002-0.018 0.004-0.030 0.006l-0.005 0.001c-0.015 0.002-0.033 0.003-0.052 0.004l-0.002 0c-0.004 0.001-0.012 0.002-0.021 0.002l-0.003 0c-0.007 0-0.015 0-0.023 0s-0.016-0-0.025-0l0.001 0c-0.006 0-0.012 0-0.019 0s-0.013-0-0.020-0l0.001 0c-0.018-0.002-0.032-0.005-0.046-0.007l0.005 0.001c-0.015-0.001-0.027-0.003-0.039-0.005l0.004 0.001c-0.030-0.005-0.056-0.011-0.080-0.017l0.006 0.001v1.145c0.002 0.026 0.003 0.048 0.006 0.070l-0.001-0.006c0.003 0.033 0.006 0.062 0.010 0.090l-0.001-0.007c-0.445-0.142-1.043-0.295-1.651-0.42l-0.13-0.022v-1.211c-0-0.004-0-0.009-0-0.013 0-1.463 1.186-2.649 2.649-2.649 0.003 0 0.007 0 0.010 0h-0.001zM20.771 8.624c0 0 0.001 0 0.001 0 1.469 0 2.66 1.191 2.66 2.66v0 1.212c-0.567 0.113-1.16 0.26-1.781 0.444 0.004-0.023 0.007-0.053 0.009-0.084l0-0.004c0.002-0.015 0.004-0.036 0.005-0.058l0-0.004v-1.377c-0-0.038-0.002-0.076-0.006-0.113l0 0.005c-0.003-0.027-0.006-0.048-0.009-0.069l0.001 0.007c-0.003-0.028-0.007-0.049-0.010-0.070l0.001 0.008c-0.005-0.029-0.010-0.050-0.015-0.070l0.002 0.009c-0.007-0.030-0.012-0.052-0.018-0.073l0.002 0.009c-0.008-0.027-0.015-0.045-0.022-0.063l0.003 0.009c-0.010-0.030-0.018-0.052-0.027-0.072l0.003 0.008c-0.011-0.027-0.020-0.046-0.029-0.065l0.003 0.008c-0.012-0.027-0.021-0.045-0.030-0.063l0.003 0.007c-0.013-0.024-0.024-0.041-0.035-0.058l0.003 0.005c-0.014-0.025-0.025-0.043-0.036-0.061l0.003 0.005c-0.015-0.022-0.027-0.038-0.040-0.055l0.002 0.003c-0.014-0.019-0.026-0.035-0.039-0.050l0.002 0.002c-0.015-0.019-0.029-0.035-0.044-0.050l0.001 0.001c-0.015-0.017-0.029-0.032-0.043-0.047l0 0c-0.015-0.014-0.031-0.029-0.047-0.043l-0.002-0.001c-0.014-0.013-0.028-0.026-0.042-0.039l-0.002-0.001c-0.014-0.012-0.032-0.025-0.050-0.037l-0.004-0.003c-0.012-0.009-0.029-0.021-0.045-0.032l-0.005-0.003c-0.013-0.009-0.032-0.020-0.050-0.031l-0.006-0.003c-0.012-0.007-0.029-0.018-0.047-0.027l-0.007-0.003c-0.011-0.006-0.029-0.015-0.048-0.023l-0.008-0.003c-0.012-0.006-0.032-0.015-0.053-0.024l-0.008-0.003c-0.009-0.004-0.027-0.012-0.045-0.018l-0.009-0.003c-0.012-0.005-0.034-0.011-0.055-0.018l-0.009-0.002c-0.011-0.004-0.032-0.009-0.053-0.014l-0.009-0.002c-0.012-0.003-0.033-0.008-0.055-0.012l-0.008-0.001c-0.014-0.003-0.035-0.006-0.056-0.009l-0.006-0.001c-0.013-0.002-0.034-0.005-0.054-0.007l-0.006-0.001c-0.032-0.003-0.070-0.005-0.108-0.005h-0c-0.029 0.001-0.055 0.003-0.081 0.006l0.005-0c-0.025 0.002-0.045 0.004-0.066 0.006l0.006-0.001c-0.030 0.004-0.054 0.008-0.077 0.012l0.008-0.001c-0.027 0.004-0.047 0.008-0.067 0.012l0.008-0.001c-0.029 0.007-0.050 0.012-0.070 0.018l0.009-0.002c-0.030 0.008-0.051 0.014-0.072 0.021l0.009-0.003c-0.028 0.010-0.047 0.017-0.066 0.024l0.009-0.003c-0.029 0.011-0.049 0.019-0.068 0.027l0.008-0.003c-0.028 0.013-0.047 0.023-0.067 0.034l0.007-0.003c-0.029 0.013-0.050 0.024-0.071 0.035l0.007-0.003c0.018 0.019 0.036 0.038 0.052 0.058l0.001 0.002c0.014 0.019 0.029 0.041 0.042 0.063l0.002 0.004c0.012 0.019 0.026 0.042 0.038 0.065l0.002 0.004c0.010 0.019 0.021 0.043 0.030 0.068l0.002 0.005c0.008 0.019 0.016 0.045 0.023 0.070l0.001 0.006c0.002 0.006 0.004 0.017 0.006 0.028l0.001 0.005c0.003 0.010 0.006 0.025 0.009 0.040l0.001 0.005c0.002 0.014 0.005 0.034 0.006 0.053l0 0.003c0.001 0.004 0.002 0.011 0.002 0.019l0 0.004c0 0 0 0 0 0.001s0 0 0 0.001v-0c0.001 0.012 0.001 0.026 0.001 0.040s-0 0.028-0.001 0.042l0-0.002c-0.001 0.029-0.003 0.057-0.007 0.084l0-0.004c-0.002 0.015-0.004 0.025-0.006 0.034l0.001-0.005c-0.003 0.021-0.007 0.037-0.010 0.053l0.001-0.005c-0.008 0.031-0.015 0.057-0.024 0.082l0.002-0.006c0 0 0 0 0 0.001s0 0 0 0.001v-0c-0.011 0.030-0.021 0.055-0.033 0.078l0.002-0.005c-0.013 0.029-0.026 0.052-0.039 0.074l0.002-0.004c-0.015 0.026-0.030 0.048-0.046 0.069l0.002-0.002c-0.017 0.023-0.034 0.043-0.052 0.062l0-0c-0.018 0.020-0.036 0.038-0.055 0.055l-0.001 0.001c-0.019 0.017-0.038 0.034-0.059 0.049l-0.002 0.001c-0.019 0.014-0.041 0.029-0.063 0.042l-0.004 0.002c-0 0-0 0-0.001 0s-0 0-0.001 0h0c-0.019 0.011-0.042 0.023-0.066 0.034l-0.005 0.002c-0.019 0.009-0.043 0.020-0.068 0.029l-0.006 0.002c-0.020 0.007-0.046 0.014-0.072 0.020l-0.005 0.001c-0.009 0.002-0.023 0.005-0.038 0.007l-0.005 0.001c-0.034 0.007-0.074 0.012-0.114 0.013l-0.002 0c-0.012 0.001-0.026 0.001-0.040 0.001s-0.028-0-0.042-0.001l0.002 0v1.117c0.002 0.042 0.005 0.080 0.010 0.118l-0.001-0.006c0.004 0.026 0.007 0.045 0.011 0.064l-0.001-0.008c0.005 0.032 0.010 0.056 0.015 0.080l-0.002-0.008c0.007 0.023 0.011 0.037 0.016 0.052l-0.003-0.009c0.008 0.036 0.016 0.063 0.024 0.089l-0.002-0.009c0.008 0.022 0.013 0.034 0.018 0.047l-0.003-0.008c0.013 0.036 0.024 0.062 0.037 0.088l-0.003-0.008c0.008 0.018 0.012 0.027 0.017 0.037l-0.003-0.008c0.017 0.035 0.032 0.063 0.049 0.090l-0.003-0.006c0.008 0.014 0.013 0.021 0.018 0.029l-0.003-0.005c0.020 0.034 0.038 0.061 0.057 0.088l-0.003-0.004c0.006 0.007 0.010 0.013 0.015 0.018l-0.002-0.002c0.024 0.031 0.047 0.059 0.070 0.085l-0.001-0.001c0.004 0.004 0.007 0.007 0.011 0.011l0 0c0.019 0.022 0.038 0.042 0.057 0.061v0c-0.357 0.137-0.72 0.284-1.087 0.44-0.198-0.352-0.318-0.772-0.329-1.218l-0-0.003v-1.6c-0-0.004-0-0.008-0-0.012 0-1.462 1.186-2.648 2.648-2.648 0.003 0 0.007 0 0.010 0h-0zM16.047 12.427c-0.051 0-0.103 0-0.153 0.004-0.799 0.056-1.45 0.625-1.63 1.377l-0.002 0.012 1.735 0.264 0.917-0.144 0.804-0.184c-0.173-0.753-0.907-1.311-1.671-1.329zM17.193 14.005c-0.112-0.007-0.012 0.189-0.032 0.285 0.013 0.604 0.033 1.216-0.032 1.816-0.191 0.739-1.189 1.115-1.8 0.636-0.449-0.313-0.567-0.912-0.495-1.424-0.001-0.427-0.027-0.855 0.019-1.28-0.215-0.115-0.080 0.141-0.115 0.259 0.013 0.812-0.065 1.635 0.060 2.439 0.248 0.797 1.369 1.14 2 0.573 0.413-0.333 0.532-0.913 0.467-1.423-0.005-0.621 0.016-1.244-0.012-1.865-0.017-0.008-0.038-0.014-0.059-0.016l-0.001-0zM17.001 14.067c-0.033 0.004-0.063 0.010-0.092 0.018l0.004-0.001c-0.034 0.013-0.084 0.030-0.135 0.044l-0.015 0.004-0.040 0.011c-0.025 0.008-0.064 0.017-0.102 0.025l-0.011 0.002-0.037 0.008c-0.106 0.022-0.23 0.036-0.357 0.040l-0.003 0-0.047 0.003c-0.029 0.001-0.064 0.001-0.099 0.001s-0.069-0-0.104-0.001l0.005 0h-0.021c-0.087-0.004-0.166-0.010-0.244-0.019l0.016 0.001c-0.008 0-0.016 0-0.023-0.003-0.165-0.018-0.292-0.036-0.418-0.057l0.046 0.006-0.096-0.013-0.243-0.044c-0.030 0.088-0.047 0.19-0.047 0.295 0 0.001 0 0.002 0 0.002v-0 1.449c0.006 0.554 0.477 1.001 1.059 1.007h0.001c0 0 0 0 0 0 0.585 0 1.059-0.45 1.059-1.005 0-0 0-0.001 0-0.001v0-1.452c-0.001-0.115-0.022-0.225-0.060-0.327l0.002 0.007zM17.055 15.889c-0.003 0.021-0.005 0.037-0.008 0.053l0.001-0.006c0.002-0.010 0.004-0.025 0.006-0.041l0.001-0.005zM17.037 15.999c-0.004 0.021-0.007 0.034-0.011 0.047l0.002-0.007c0.002-0.006 0.005-0.019 0.008-0.033l0.001-0.007zM17.011 16.099c-0.006 0.021-0.011 0.034-0.016 0.047l0.002-0.007c0.002-0.006 0.007-0.019 0.011-0.032l0.002-0.008zM16.973 16.204c-0.007 0.016-0.011 0.026-0.016 0.036l0.003-0.006c0.002-0.003 0.006-0.013 0.011-0.023l0.003-0.007zM16.927 16.299c-0.008 0.014-0.013 0.022-0.019 0.031l0.003-0.004c0.003-0.004 0.008-0.013 0.013-0.022l0.003-0.005zM16.868 16.392c-0.007 0.009-0.011 0.016-0.015 0.022l0.002-0.003c0.002-0.003 0.007-0.009 0.011-0.015l0.002-0.003zM16.801 16.477c-0.004 0.005-0.009 0.009-0.013 0.013l-0 0c0.005-0.004 0.009-0.009 0.013-0.013l0-0zM16.731 16.552c-0.003 0.003-0.005 0.005-0.008 0.008l-0 0c0.003-0.003 0.005-0.005 0.008-0.008l0-0zM12.643 20.045c0.003-0 0.006-0 0.009-0s0.007 0 0.010 0l-0-0h2.431c0.002-0 0.005-0 0.008-0 0.103 0 0.187 0.084 0.187 0.187 0 0.020-0.003 0.038-0.009 0.056l0-0.001c-0.187 0.56-0.764 0.945-1.408 0.949-0.011 0-0.024 0-0.037 0-0.621 0-1.15-0.391-1.355-0.94l-0.003-0.010c-0.008-0.019-0.013-0.042-0.013-0.065 0-0.097 0.079-0.176 0.176-0.176 0.002 0 0.003 0 0.005 0h-0zM16.913 20.045c0.001-0 0.002-0 0.003-0s0.002 0 0.003 0h2.432c0.002-0 0.005-0 0.007-0 0.103 0 0.187 0.084 0.187 0.187 0 0.019-0.003 0.037-0.008 0.053l0-0.001c-0.187 0.557-0.763 0.947-1.413 0.947-0.010 0-0.022 0-0.034 0-0.619 0-1.147-0.388-1.353-0.934l-0.003-0.010c-0.004-0.015-0.006-0.032-0.006-0.049 0-0.104 0.082-0.188 0.185-0.192h0zM14.78 22.109c0.001-0 0.002-0 0.003-0s0.002 0 0.004 0h2.432c0.002-0 0.005-0 0.007-0 0.103 0 0.187 0.084 0.187 0.187 0 0.020-0.003 0.039-0.009 0.057l0-0.001c-0.18 0.564-0.757 0.948-1.408 0.948-0.011 0-0.024 0-0.037 0-0.62 0-1.149-0.39-1.355-0.938l-0.003-0.010c-0.005-0.017-0.009-0.036-0.009-0.056 0-0.103 0.084-0.187 0.187-0.187 0 0 0 0 0.001 0h-0zM5.933 24.315c-0.348 0.009-0.66 0.161-0.879 0.398l-0.001 0.001v-0.003c-0.208 0.224-0.336 0.525-0.336 0.856 0 0.358 0.15 0.681 0.39 0.911l1.451 1.36c0.22 0.198 0.513 0.319 0.834 0.319 0.691 0 1.251-0.56 1.251-1.251 0-0.349-0.143-0.664-0.373-0.891l-0-0-1.451-1.359c-0.222-0.212-0.524-0.342-0.855-0.342-0.011 0-0.022 0-0.033 0l0.002-0zM26.087 24.315c-0.014-0.001-0.031-0.001-0.048-0.001-0.332 0-0.634 0.13-0.856 0.343l0-0-1.452 1.359c-0.243 0.229-0.395 0.553-0.395 0.912 0 0.691 0.56 1.251 1.251 1.251 0.332 0 0.633-0.129 0.857-0.34l-0.001 0.001 1.449-1.359c0.241-0.23 0.391-0.553 0.391-0.912 0-0.33-0.127-0.631-0.336-0.856l0.001 0.001c-0.217-0.234-0.521-0.385-0.86-0.399l-0.002-0z"></path>
</svg>
