<!-- Generated by IcoMoon.io -->
<svg version="1.1" xmlns="http://www.w3.org/2000/svg" width="32" height="32" viewBox="0 0 32 32">
<title>dynatrace</title>
<path fill="#1496ff" d="M12.497 0c-0.413 0.008-1.24 0.12-2.028 0.872-1.163 1.099-6.965 6.608-9.296 8.821-1.053 1.005-0.96 2.127-0.96 2.219v0.503c0.089-0.389 0.249-0.665 0.569-1.1 0.661-0.821 1.733-1.051 2.169-1.096 0 0 0.001 0 0.001 0s0.001 0 0.001 0h-0c2.507-0.362 5.513-0.625 8.56-0.728l0.143-0.004c5.78-0.183 9.596 0.3 9.596 0.3l8.112-7.724c0 0-4.251-0.8-9.093-1.369-1.955-0.26-4.547-0.504-7.16-0.667l-0.357-0.018c-0.028 0-0.12-0.011-0.257-0.008zM30.577 3.344l-8.088 7.72c0 0 0.296 3.84-0.183 9.597-0.252 3.267-0.779 6.488-1.167 8.659-0.069 0.435-0.341 1.485-1.233 2.125-0.387 0.264-0.655 0.393-0.997 0.484 2.061-0.68 1.455-9.396 1.455-9.396-5.78 0.183-9.619-0.296-9.619-0.296l-8.112 7.723c0 0 4.296 0.845 9.14 1.393 2.741 0.32 6.444 0.572 6.969 0.617 0.031 0 0.060-0.009 0.091-0.016-0.017 0.004-0.029 0.012-0.047 0.016 0.184 0 0.345 0.020 0.505 0.020 0.113 0 1.233 0.14 2.284-0.864 2.331-2.217 8.111-7.747 9.253-8.844 1.051-1.005 0.96-2.125 0.96-2.24-0.006-2.664-0.106-5.293-0.297-7.897l0.021 0.358c-0.32-4.867-0.935-9.161-0.936-9.16zM5.141 11.073c-2.308 0.003-4.677 0.277-4.928 1.361 0.023 1.621 0.067 4.183 0.273 7.040 0.32 4.867 0.937 9.181 0.937 9.181l8.109-7.72c-0.023 0.023-0.319-3.84 0.161-9.597h-0.001c0 0-2.245-0.269-4.552-0.265z"></path>
</svg>
