<!-- Generated by IcoMoon.io -->
<svg version="1.1" xmlns="http://www.w3.org/2000/svg" width="32" height="32" viewBox="0 0 32 32">
<title>eclipseide</title>
<path fill="#2c2255" d="M14.811 0.032c-0.365 0.005-0.805 0.016-0.983 0.031-4.859 0.419-9.204 3.295-11.724 7.751-1.148 2.020-1.896 4.406-2.074 6.95l-0.003 0.053c-0.053 0.689-0.027 2.327 0.047 2.944 0.408 3.576 1.804 6.747 4.093 9.287 2.616 2.897 6.115 4.623 9.916 4.884 0.56 0.043 1.391 0.053 1.36 0.016-0.125-0.039-0.277-0.073-0.433-0.097l-0.018-0.002c-2.232-0.44-4.517-1.507-6.369-2.976-1.254-1.011-2.333-2.168-3.231-3.461l-0.036-0.054c-1.678-2.441-2.725-5.432-2.844-8.661l-0.001-0.030c-0.010-0.219-0.016-0.475-0.016-0.733 0-1.774 0.279-3.482 0.796-5.084l-0.033 0.117c1.047-3.363 3.16-6.301 5.967-8.304 1.599-1.171 3.496-2.041 5.552-2.483l0.097-0.017 0.591-0.131zM16.777 0.712c-2.584 0.155-5.036 1.020-7.044 2.488-2.5 1.827-4.408 4.325-5.44 7.128-0.193 0.529-0.376 1.093-0.376 1.172 0 0.016 5.104 0.032 13.747 0.032 11.285 0 13.755-0.011 13.755-0.048 0-0.063-0.204-0.7-0.377-1.171-0.204-0.56-0.768-1.747-1.093-2.296-0.533-0.911-1.213-1.831-1.965-2.656-2.201-2.427-4.791-3.912-7.76-4.445-1.047-0.188-2.4-0.267-3.445-0.204zM31.773 13.293c-0.027 0-6.389 0-14.145 0.005l-14.099 0.011-0.015 0.079c-0.048 0.213-0.179 1.443-0.179 1.657 0 0.037 2.38 0.043 14.329 0.043h14.335v-0.1c0-0.136-0.093-1.056-0.141-1.407-0.027-0.213-0.053-0.288-0.085-0.288zM17.676 16.808c-12.493-0.005-14.308 0-14.324 0.047-0.027 0.053 0.032 0.743 0.1 1.297 0.027 0.209 0.047 0.397 0.047 0.419 0 0.036 2.849 0.047 14.167 0.047h14.165l0.032-0.251c0.057-0.435 0.136-1.293 0.125-1.423l-0.011-0.125zM17.68 20.432c-11.844 0-13.763 0.005-13.763 0.047 0 0.027 0.072 0.277 0.161 0.56 0.63 1.921 1.572 3.581 2.779 5.010l-0.018-0.022c0.376 0.456 1.26 1.381 1.637 1.716 2.091 1.867 4.329 2.955 6.907 3.373 0.807 0.125 1.183 0.151 2.333 0.147 1.213 0 1.731-0.043 2.699-0.236 2.813-0.555 5.219-1.935 7.373-4.227 1.689-1.797 2.808-3.68 3.504-5.881l0.156-0.487z"></path>
</svg>
