<!-- Generated by IcoMoon.io -->
<svg version="1.1" xmlns="http://www.w3.org/2000/svg" width="32" height="32" viewBox="0 0 32 32">
<title>elementary</title>
<path fill="#64baff" d="M16 0c-8.837 0-16 7.163-16 16s7.163 16 16 16v0c8.837 0 16-7.163 16-16s-7.163-16-16-16v0zM16 1.333c0.002 0 0.004 0 0.006 0 6.681 0 12.318 4.467 14.089 10.576l0.026 0.104c-1.567 3.185-3.655 5.878-6.183 8.081l-0.030 0.026c-1.253 1.080-2.613 2.040-4.107 2.72-1.507 0.667-3.16 1.067-4.8 0.96-1.311-0.073-2.522-0.44-3.589-1.035l0.042 0.022c2.955-1.616 5.462-3.655 7.544-6.072l0.029-0.035c1.416-1.524 2.482-3.393 3.058-5.467l0.022-0.093c0.24-1.053 0.267-2.133 0.053-3.2-0.229-1.097-0.736-2.051-1.444-2.817l0.004 0.004c-0.709-0.742-1.611-1.295-2.626-1.577l-0.041-0.010c-0.536-0.147-1.152-0.232-1.788-0.232-0.467 0-0.922 0.046-1.364 0.133l0.044-0.007c-2.125 0.482-3.949 1.56-5.341 3.048l-0.005 0.006c-2.43 2.369-3.937 5.674-3.937 9.331 0 0.231 0.006 0.46 0.018 0.688l-0.001-0.032c0.195 2.367 1.146 4.481 2.61 6.131l-0.009-0.011c-1.363 0.495-2.965 0.892-4.622 1.119l-0.125 0.014c-1.373-2.191-2.188-4.854-2.188-7.707 0-8.096 6.56-14.66 14.654-14.667h0.001zM16.093 4.293c1.027 0 2.067 0.32 2.893 0.933 0.733 0.56 1.293 1.36 1.6 2.24 0.307 0.867 0.4 1.827 0.28 2.747-0.316 1.931-1.12 3.634-2.28 5.030l0.014-0.017c-2.216 2.85-5.071 5.102-8.355 6.559l-0.138 0.055c-0.64-0.56-1.2-1.227-1.6-1.973-0.664-1.209-1.055-2.649-1.055-4.181 0-0.345 0.020-0.686 0.058-1.020l-0.004 0.041c0.16-1.76 0.773-3.467 1.6-5.053 0.891-1.907 2.272-3.459 3.983-4.534l0.044-0.026c0.907-0.493 1.933-0.8 2.96-0.8zM30.533 14.027c0.084 0.59 0.132 1.271 0.132 1.963 0 8.1-6.566 14.667-14.667 14.667-4.539 0-8.596-2.061-11.286-5.299l-0.019-0.024c1.855-0.425 3.47-0.975 5.007-1.667l-0.167 0.067c0.68 0.533 1.44 0.947 2.227 1.253 1.058 0.386 2.279 0.609 3.553 0.609 1.329 0 2.601-0.243 3.774-0.687l-0.073 0.024c2.41-0.917 4.47-2.253 6.19-3.936l-0.003 0.003c2.11-1.98 3.889-4.281 5.264-6.832l0.070-0.142z"></path>
</svg>
