<!-- Generated by IcoMoon.io -->
<svg version="1.1" xmlns="http://www.w3.org/2000/svg" width="32" height="32" viewBox="0 0 32 32">
<title>ember-dot-js</title>
<path fill="#e04e39" d="M0 0v32h32v-32zM16.387 5.84c2.213-0.040 3.773 0.56 5.12 2.467 3 7.44-8 11.2-8 11.2s-0.307 1.973 2.693 1.893c3.707 0 7.6-2.867 9.080-4.080 0.152-0.127 0.349-0.205 0.564-0.205 0.25 0 0.475 0.104 0.635 0.271l0 0 1.12 1.16c0.15 0.158 0.243 0.372 0.243 0.607 0 0.229-0.087 0.437-0.23 0.594l0.001-0.001c-0.96 1.067-3.227 3.28-6.627 4.707 0 0-5.68 2.627-9.507 0.133-1.775-1.082-2.987-2.935-3.172-5.082l-0.002-0.025c0 0-2.773-0.147-4.56-0.84-1.773-0.693 0.013-2.8 0.013-2.8s0.56-0.867 1.6 0 2.987 0.48 2.987 0.48c0.173-1.373 0.467-3.173 1.307-5.080 1.787-4 4.507-5.347 6.733-5.4zM16.827 9.573c-1.467 0.093-3.733 2.373-3.84 6.573 0 0 1 0.307 3.213-1.213 2.227-1.52 2.667-3.96 1.48-5.080-0.194-0.177-0.453-0.286-0.737-0.286-0.041 0-0.081 0.002-0.121 0.007l0.005-0z"></path>
</svg>
