<!-- Generated by IcoMoon.io -->
<svg version="1.1" xmlns="http://www.w3.org/2000/svg" width="32" height="32" viewBox="0 0 32 32">
<title>emlakjet</title>
<path fill="#0ae524" d="M20.867 21.473v-0.32c-0.097-1.329-0.731-2.492-1.682-3.289l-0.007-0.006c-0.965-0.884-2.253-1.287-3.54-1.205-2.493 0.16-4.504 2.329-4.504 4.82 0 1.045 0.16 2.089 0.563 3.295h-5.629v-15.507l9.893-6.831 9.976 6.829v15.589h-5.631c0.24-0.884 0.563-2.251 0.563-3.376zM27.625 7.815l-11.023-7.633c-0.401-0.241-0.884-0.241-1.207 0l-11.1 7.632c-0.323 0.16-0.483 0.481-0.483 0.884v17.276c0 0.643 0.483 1.125 1.125 1.125h8.288c0.008 0 0.018 0 0.027 0 0.607 0 1.099-0.492 1.099-1.099 0-0.009-0-0.019-0-0.028l0 0.001c0-0.080 0-0.24-0.080-0.32l-0.080-0.243c-0.403-0.964-0.885-2.169-0.885-3.373v-0.243c-0.080-0.723 0.16-1.445 0.643-1.928 0.458-0.532 1.107-0.889 1.839-0.963l0.012-0.001c0.724-0.080 1.368 0.16 1.931 0.643s0.885 1.125 0.965 1.848v0.24c0.080 1.608-0.965 3.939-1.127 4.18l-1.528 2.893-0.24-0.483c-0.163-0.241-0.403-0.483-0.644-0.563-0.243-0.080-0.564-0.080-0.805 0.080-0.24 0.16-0.483 0.401-0.563 0.643s-0.080 0.563 0.080 0.804l1.207 2.249c0.161 0.321 0.564 0.563 0.965 0.563 0.403 0 0.805-0.24 0.965-0.563l2.413-4.5h7.643c0.008 0 0.017 0 0.027 0 0.607 0 1.099-0.492 1.099-1.099 0-0.009-0-0.018-0-0.027l0 0.001v-17.115c-0.080-0.403-0.24-0.724-0.563-0.884z"></path>
</svg>
