<!-- Generated by IcoMoon.io -->
<svg version="1.1" xmlns="http://www.w3.org/2000/svg" width="32" height="32" viewBox="0 0 32 32">
<title>empirekred</title>
<path fill="#72be50" d="M31.995 6.247c0-2.773-2.232-5.032-4.969-5.032h-22.065c-2.74-0.001-4.967 2.257-4.967 5.039v10.048c0 0.448 0.060 0.889 0.18 1.329 0.040 0.179 0.093 0.352 0.16 0.52 0.333 0.831 0.871 1.56 1.564 2.124 0.68 0.699 1.56 1.46 2.62 2.28l0.14 0.099 0.58 0.44 0.693 0.529c1.587 1.216 4.273 3.271 8.22 6.28 0.644 0.488 1.384 0.901 1.844 0.901 0.457 0 1.203-0.413 1.844-0.901 3.947-3.009 6.629-5.064 8.219-6.28l1.296-0.987h-0.003l0.147-0.113c1.064-0.816 1.951-1.587 2.624-2.28 0.685-0.557 1.211-1.28 1.533-2.101 0.221-0.587 0.336-1.208 0.339-1.835v-9.533h-0.004l0.004-0.004zM26.475 14.569c-0.124-0.023-0.251-0.043-0.377-0.060-0.14 0-0.301-0.020-0.44-0.020-0.371-0.008-0.741 0.067-1.080 0.219-0.285 0.133-0.533 0.331-0.72 0.581-0.18 0.261-0.307 0.553-0.381 0.861-0.080 0.339-0.12 0.699-0.12 1.080v3.84h-6.703l-4.979-7.444-2.075 2.1v5.3h-3.627v-16.493h3.621v6.84l6.44-6.836h4.528l-6.44 6.513 6.888 9.724v-8.239h2.216v1.576h0.031c0.112-0.26 0.26-0.507 0.44-0.729 0.192-0.224 0.4-0.416 0.644-0.573 0.24-0.141 0.5-0.28 0.773-0.36s0.56-0.12 0.853-0.12c0.152 0 0.32 0.040 0.507 0.080z"></path>
</svg>
