<!-- Generated by IcoMoon.io -->
<svg version="1.1" xmlns="http://www.w3.org/2000/svg" width="32" height="32" viewBox="0 0 32 32">
<title>epel</title>
<path fill="#fc0000" d="M0.936 3.148c-1.584 0.147-1.173 0.205 2.64 0.381 7.569 0.323 12.057 1.525 15.137 3.991 1.643 1.349 2.916 4.195 2.916 4.195s-4.852 1.115-10.396 2.2c-5.545 1.085-9.947 2.053-9.769 2.112 0.469 0.147 6.952-0.645 13.759-1.701l6.493-0.979c0.104-0.016 0.048 0.525 0.048 0.685 0 1.467-1.496 3.931-3.725 6.132-3.667 3.579-8.831 6.248-15.431 7.949-1.819 0.469-2.933 0.851-2.523 0.851 1.584 0.059 7.656-1.731 10.413-3.021 3.58-1.701 5.868-3.344 8.655-6.219 1.973-2.456 3.992-3.728 4.075-6.689l4.080-0.675c2.172-0.352 4.137-0.733 4.373-0.821 0.321-0.117 0.38-0.469 0.263-1.349-0.205-1.613-1.467-2.875-4.019-4.049-3.872-1.789-7.84-2.137-9.923-0.907-0.231 0.135-0.501 0.556-0.712 0.648 8.893 2.869 7.849 2.48 6.804 2.091l-9.957-3.241c-4.048-1.379-9.007-1.965-13.201-1.584zM26.312 6.845c2.171 0.645 5.573 2.685 5.056 2.787l-4.088 0.801-4.515 1.029c-0.859-1.913-1.988-2.976-3.504-4.407l0.177-0.436c0.429-1.061 3.381-0.803 6.873 0.225z"></path>
</svg>
