<!-- Generated by IcoMoon.io -->
<svg version="1.1" xmlns="http://www.w3.org/2000/svg" width="32" height="32" viewBox="0 0 32 32">
<title>epicgames</title>
<path d="M4.717 0c-1.829 0-2.504 0.675-2.504 2.504v22.087c0 0.207 0.009 0.399 0.025 0.575 0.045 0.403 0.049 0.791 0.423 1.229 0.035 0.051 0.413 0.328 0.413 0.328 0.201 0.101 0.343 0.171 0.573 0.267l11.112 4.656c0.575 0.263 0.817 0.368 1.235 0.353h0.005c0.423 0.015 0.665-0.091 1.24-0.353l11.111-4.656c0.232-0.096 0.368-0.165 0.575-0.267 0 0 0.379-0.283 0.413-0.328 0.373-0.439 0.377-0.827 0.423-1.229 0.016-0.176 0.027-0.368 0.027-0.573v-22.089c-0.001-1.828-0.677-2.503-2.507-2.503zM22.525 4.147h0.907c1.512 0 2.248 0.736 2.248 2.263v2.505h-1.829v-2.404c0-0.489-0.227-0.716-0.7-0.716h-0.312c-0.489 0-0.716 0.227-0.716 0.716v7.751c0 0.488 0.227 0.715 0.716 0.715h0.347c0.469 0 0.696-0.227 0.696-0.715v-2.773h1.835v2.859c0 1.527-0.752 2.277-2.268 2.277h-0.923c-1.521 0-2.267-0.756-2.267-2.277v-7.921c0-1.523 0.745-2.279 2.267-2.279zM6.275 4.248h4.152v1.703h-2.288v3.472h2.203v1.699h-2.203v3.699h2.319v1.699h-4.183zM11.364 4.248h2.928c1.516 0 2.267 0.756 2.267 2.283v3.26c0 1.527-0.751 2.279-2.267 2.279h-1.059v4.449h-1.869zM17.401 4.248h1.864v12.271h-1.864zM13.228 5.901v4.52h0.772c0.468 0 0.695-0.227 0.695-0.72v-3.080c0-0.493-0.227-0.72-0.695-0.72zM8.088 19.44h0.277l0.061 0.009h0.1l0.051 0.016h0.051l0.051 0.015 0.049 0.011 0.045 0.009 0.045 0.011 0.045 0.009 0.051 0.016 0.040 0.009 0.040 0.016 0.051 0.015 0.040 0.020 0.052 0.020 0.045 0.020 0.040 0.027 0.051 0.019 0.035 0.027 0.051 0.024 0.040 0.027 0.045 0.024 0.040 0.031 0.040 0.025 0.040 0.029 0.041 0.031 0.040 0.035 0.040 0.031-0.029 0.040-0.036 0.036-0.029 0.040-0.036 0.040-0.029 0.036-0.031 0.035-0.036 0.040-0.029 0.040-0.031 0.036-0.035 0.040-0.031 0.040-0.036 0.040-0.029 0.036-0.031 0.040-0.035 0.040-0.031 0.041-0.035 0.035-0.031 0.040-0.040-0.029-0.040-0.035-0.040-0.027-0.047-0.029-0.035-0.025-0.045-0.025-0.040-0.025-0.047-0.025-0.080-0.040-0.040-0.015-0.045-0.016-0.051-0.013-0.040-0.011-0.101-0.021-0.051-0.004h-0.055l-0.061-0.011h-0.1l-0.051 0.005h-0.051l-0.051 0.015-0.045 0.011-0.045 0.015-0.049 0.015-0.040 0.020-0.051 0.021-0.076 0.051-0.040 0.024-0.036 0.031-0.035 0.031-0.036 0.029-0.029 0.036-0.040 0.035-0.051 0.076-0.031 0.040-0.020 0.045-0.027 0.040-0.024 0.045-0.015 0.045-0.021 0.045-0.013 0.051-0.007 0.051-0.015 0.045-0.011 0.056v0.049l-0.009 0.051v0.12l0.005 0.052 0.004 0.045 0.005 0.049 0.011 0.051 0.015 0.040 0.005 0.051 0.015 0.040 0.016 0.040 0.020 0.052 0.025 0.049 0.020 0.040 0.025 0.040 0.029 0.041 0.031 0.040 0.025 0.036 0.040 0.035 0.031 0.036 0.035 0.029 0.080 0.061 0.041 0.025 0.040 0.024 0.045 0.021 0.051 0.020 0.040 0.020 0.051 0.015 0.051 0.016 0.051 0.009 0.049 0.011 0.051 0.005 0.061 0.004h0.165l0.061-0.009h0.049l0.051-0.016 0.051-0.009 0.051-0.016 0.045-0.009 0.045-0.020 0.040-0.020 0.051-0.021 0.031-0.020 0.040-0.025v-0.463h-0.736v-0.747h1.663v1.664l-0.035 0.029-0.040 0.031-0.036 0.025-0.040 0.031-0.040 0.024-0.040 0.031-0.040 0.025-0.041 0.025-0.051 0.025-0.045 0.025-0.040 0.025-0.051 0.020-0.040 0.025-0.152 0.060-0.045 0.020-0.045 0.015-0.045 0.016-0.049 0.015-0.045 0.015-0.051 0.016-0.045 0.009-0.101 0.021-0.051 0.009-0.049 0.005-0.101 0.011-0.060 0.004-0.051 0.005-0.056 0.005h-0.261l-0.056-0.011h-0.051l-0.049-0.009h-0.051l-0.051-0.016-0.051-0.009-0.051-0.011-0.049-0.009-0.040-0.016-0.051-0.009-0.051-0.016-0.045-0.020-0.045-0.015-0.051-0.020-0.045-0.020-0.051-0.020-0.040-0.021-0.051-0.024-0.035-0.027-0.051-0.024-0.036-0.027-0.040-0.024-0.080-0.061-0.045-0.029-0.031-0.031-0.040-0.031-0.036-0.035-0.035-0.031-0.036-0.035-0.029-0.036-0.036-0.035-0.029-0.040-0.031-0.036-0.025-0.040-0.031-0.040-0.025-0.040-0.024-0.040-0.027-0.047-0.024-0.040-0.040-0.091-0.021-0.045-0.020-0.045-0.015-0.040-0.020-0.045-0.011-0.045-0.015-0.045-0.011-0.051-0.015-0.045-0.011-0.051-0.004-0.045-0.011-0.051-0.005-0.045-0.004-0.051-0.005-0.049-0.005-0.051v-0.277l0.011-0.051v-0.055l0.013-0.051v-0.051l0.016-0.051 0.016-0.049 0.009-0.051 0.015-0.045 0.016-0.051 0.015-0.045 0.020-0.051 0.020-0.045 0.021-0.045 0.040-0.091 0.025-0.045 0.025-0.040 0.024-0.040 0.027-0.040 0.024-0.040 0.031-0.041 0.031-0.040 0.029-0.040 0.036-0.036 0.029-0.035 0.031-0.036 0.040-0.035 0.031-0.036 0.040-0.031 0.036-0.035 0.040-0.031 0.040-0.029 0.040-0.027 0.040-0.029 0.040-0.025 0.041-0.025 0.045-0.025 0.051-0.025 0.040-0.024 0.051-0.021 0.045-0.020 0.051-0.025 0.040-0.013 0.051-0.016 0.045-0.020 0.045-0.011 0.045-0.015 0.051-0.011 0.045-0.015 0.049-0.011h0.051l0.051-0.015h0.051l0.051-0.011h0.049zM24.073 19.449h0.276l0.061 0.011h0.1l0.051 0.015h0.060l0.051 0.016 0.045 0.009 0.051 0.011 0.051 0.009 0.045 0.011 0.051 0.015 0.049 0.016 0.040 0.009 0.051 0.020 0.051 0.016 0.040 0.020 0.101 0.040 0.045 0.027 0.036 0.019 0.049 0.027 0.045 0.024 0.040 0.025 0.047 0.031 0.040 0.024 0.080 0.061 0.040 0.029-0.029 0.040-0.025 0.041-0.031 0.040-0.029 0.040-0.031 0.045-0.025 0.040-0.031 0.040-0.029 0.041-0.027 0.040-0.029 0.040-0.031 0.040-0.029 0.041-0.027 0.045-0.029 0.040-0.035 0.040-0.027 0.040-0.029 0.041-0.040-0.031-0.045-0.025-0.040-0.024-0.040-0.031-0.047-0.020-0.040-0.027-0.051-0.019-0.035-0.020-0.051-0.021-0.040-0.020-0.040-0.015-0.045-0.020-0.051-0.015-0.051-0.016-0.051-0.015-0.055-0.011-0.051-0.009-0.051-0.011-0.051-0.005-0.049-0.005-0.045-0.004h-0.112l-0.055 0.009-0.051 0.011-0.051 0.009-0.040 0.021-0.035 0.020-0.045 0.040-0.031 0.045-0.020 0.045v0.125l0.025 0.056 0.020 0.031 0.035 0.035 0.051 0.027 0.040 0.024 0.101 0.040 0.065 0.020 0.040 0.011 0.040 0.015 0.051 0.011 0.040 0.015 0.051 0.011 0.056 0.015 0.055 0.015 0.056 0.016 0.056 0.009 0.049 0.016 0.056 0.015 0.051 0.011 0.049 0.015 0.051 0.015 0.051 0.016 0.051 0.015 0.045 0.015 0.051 0.016 0.049 0.020 0.051 0.025 0.051 0.020 0.101 0.051 0.040 0.025 0.040 0.024 0.045 0.031 0.036 0.027 0.045 0.035 0.111 0.111 0.025 0.040 0.035 0.051 0.025 0.035 0.020 0.051 0.025 0.035 0.015 0.051 0.016 0.040 0.009 0.051 0.011 0.051 0.009 0.051 0.005 0.051 0.005 0.049v0.127l-0.005 0.055-0.005 0.051-0.004 0.056-0.011 0.051-0.015 0.049-0.011 0.051-0.015 0.051-0.020 0.045-0.020 0.040-0.021 0.045-0.024 0.040-0.031 0.040-0.027 0.040-0.024 0.041-0.035 0.036-0.031 0.035-0.036 0.031-0.040 0.035-0.035 0.031-0.040 0.031-0.040 0.024-0.041 0.031-0.091 0.045-0.051 0.027-0.051 0.019-0.049 0.020-0.051 0.016-0.051 0.015-0.040 0.015-0.101 0.021-0.040 0.009-0.051 0.011h-0.051l-0.049 0.009h-0.051l-0.051 0.011h-0.373l-0.049-0.005-0.051-0.005-0.056-0.004-0.051-0.011-0.049-0.005-0.051-0.009-0.051-0.011-0.056-0.015-0.049-0.011-0.051-0.015-0.051-0.011-0.051-0.015-0.049-0.016-0.051-0.020-0.045-0.015-0.051-0.015-0.051-0.021-0.040-0.020-0.051-0.020-0.040-0.025-0.051-0.020-0.045-0.025-0.035-0.025-0.051-0.025-0.036-0.024-0.045-0.027-0.040-0.029-0.040-0.031-0.040-0.029-0.040-0.031-0.036-0.031-0.040-0.035 0.029-0.040 0.036-0.036 0.031-0.040 0.035-0.040 0.031-0.036 0.029-0.040 0.036-0.040 0.031-0.036 0.035-0.040 0.031-0.035 0.035-0.040 0.031-0.040 0.029-0.036 0.036-0.040 0.031-0.040 0.035-0.036 0.036-0.040 0.035 0.029 0.051 0.031 0.035 0.031 0.051 0.029 0.040 0.027 0.045 0.029 0.040 0.025 0.047 0.020 0.040 0.025 0.045 0.020 0.051 0.020 0.040 0.020 0.051 0.015 0.040 0.021 0.051 0.013 0.049 0.016 0.051 0.016 0.051 0.009 0.051 0.011 0.051 0.009h0.055l0.051 0.016h0.277l0.051-0.011 0.049-0.011 0.040-0.009 0.040-0.015 0.036-0.021 0.045-0.029 0.027-0.036 0.024-0.040 0.015-0.051v-0.116l-0.020-0.049-0.029-0.040-0.031-0.031-0.045-0.031-0.036-0.020-0.049-0.020-0.051-0.020-0.060-0.027-0.036-0.009-0.040-0.011-0.051-0.013-0.040-0.011-0.051-0.016-0.051-0.009-0.055-0.016-0.051-0.009-0.056-0.016-0.049-0.009-0.051-0.016-0.051-0.009-0.051-0.016-0.051-0.013-0.049-0.011-0.045-0.016-0.045-0.015-0.045-0.016-0.051-0.020-0.056-0.020-0.051-0.020-0.049-0.020-0.101-0.051-0.035-0.025-0.051-0.025-0.036-0.029-0.045-0.027-0.029-0.029-0.036-0.035-0.040-0.036-0.031-0.035-0.029-0.036-0.027-0.035-0.024-0.040-0.027-0.045-0.019-0.036-0.016-0.040-0.015-0.045-0.015-0.040-0.011-0.051-0.009-0.045v-0.051l-0.011-0.051v-0.216l0.011-0.101 0.009-0.040 0.011-0.051 0.015-0.040 0.011-0.051 0.020-0.040 0.020-0.051 0.045-0.091 0.025-0.040 0.035-0.040 0.027-0.040 0.040-0.040 0.035-0.036 0.031-0.040 0.045-0.036 0.029-0.025 0.045-0.031 0.040-0.029 0.040-0.027 0.051-0.024 0.040-0.020 0.052-0.025 0.040-0.020 0.051-0.016 0.049-0.020 0.051-0.015 0.036-0.011 0.049-0.009 0.040-0.011 0.051-0.009 0.051-0.011 0.101-0.011 0.051-0.004zM11.757 19.485h0.943l0.060 0.136 0.015 0.051 0.040 0.091 0.021 0.045 0.020 0.045 0.015 0.045 0.025 0.049 0.020 0.045 0.020 0.047 0.011 0.045 0.020 0.045 0.025 0.045 0.020 0.049 0.020 0.045 0.015 0.045 0.020 0.045 0.027 0.045 0.013 0.045 0.021 0.051 0.015 0.051 0.020 0.040 0.027 0.051 0.019 0.040 0.020 0.051 0.016 0.051 0.015 0.040 0.045 0.091 0.020 0.051 0.015 0.040 0.021 0.051 0.025 0.051 0.020 0.045 0.029 0.091 0.020 0.045 0.027 0.045 0.019 0.049 0.021 0.047 0.013 0.045 0.021 0.045 0.040 0.091 0.020 0.049 0.016 0.045 0.020 0.045 0.025 0.045 0.040 0.091 0.011 0.051 0.020 0.045 0.025 0.045 0.020 0.045 0.015 0.045 0.020 0.045 0.020 0.051 0.027 0.051 0.013 0.040 0.021 0.051 0.015 0.040 0.020 0.051 0.045 0.091 0.015 0.051 0.021 0.040 0.015 0.051 0.025 0.040 0.020 0.051 0.015 0.051 0.020 0.040 0.021 0.051 0.024 0.040 0.021 0.051 0.013 0.049 0.016 0.040 0.020 0.051 0.027 0.040h-1.044l-0.027-0.044-0.013-0.045-0.021-0.045-0.020-0.051-0.015-0.045-0.040-0.091-0.016-0.045-0.040-0.091-0.015-0.045-0.020-0.051-0.020-0.045-0.016-0.045-0.020-0.045h-1.447l-0.020 0.051-0.015 0.040-0.020 0.051-0.025 0.049-0.011 0.040-0.020 0.052-0.020 0.040-0.015 0.051-0.020 0.040-0.020 0.051-0.016 0.040-0.020 0.051-0.020 0.049-0.020 0.040-0.015 0.051h-1.033l0.020-0.049 0.040-0.091 0.016-0.051 0.013-0.045 0.027-0.045 0.040-0.091 0.015-0.045 0.020-0.051 0.027-0.045 0.019-0.045 0.016-0.045 0.015-0.045 0.020-0.045 0.027-0.051 0.019-0.045 0.020-0.045 0.016-0.045 0.040-0.091 0.040-0.101 0.016-0.040 0.020-0.051 0.025-0.040 0.020-0.051 0.015-0.049 0.015-0.040 0.020-0.051 0.027-0.040 0.019-0.051 0.021-0.040 0.013-0.051 0.021-0.051 0.025-0.040 0.015-0.051 0.020-0.040 0.016-0.051 0.020-0.051 0.025-0.040 0.020-0.051 0.015-0.040 0.020-0.051 0.016-0.040 0.025-0.051 0.020-0.051 0.020-0.045 0.015-0.045 0.020-0.045 0.027-0.045 0.019-0.045 0.011-0.051 0.040-0.091 0.025-0.045 0.020-0.045 0.015-0.045 0.021-0.051 0.020-0.049 0.020-0.040 0.020-0.051 0.015-0.040 0.040-0.101 0.027-0.040 0.019-0.051 0.016-0.040 0.015-0.051 0.020-0.040 0.027-0.051 0.019-0.051 0.016-0.040 0.020-0.051 0.045-0.091 0.015-0.051 0.015-0.040 0.021-0.051zM14.68 19.511h1.033l0.029 0.040 0.027 0.045 0.029 0.040 0.025 0.045 0.025 0.040 0.025 0.045 0.024 0.040 0.031 0.047 0.051 0.080 0.025 0.045 0.025 0.040 0.035 0.045 0.020 0.040 0.027 0.047 0.029 0.040 0.031 0.040 0.020 0.045 0.029 0.040 0.027 0.045 0.019 0.040 0.036 0.047 0.025 0.040 0.025 0.045 0.025 0.040 0.024 0.040 0.031 0.045 0.025 0.040 0.025 0.047 0.025 0.040 0.025 0.045 0.029 0.040 0.027 0.045 0.024 0.040 0.031-0.040 0.020-0.051 0.031-0.035 0.029-0.051 0.027-0.035 0.019-0.051 0.036-0.036 0.025-0.049 0.020-0.036 0.031-0.040 0.029-0.051 0.027-0.035 0.024-0.051 0.025-0.036 0.031-0.049 0.024-0.036 0.027-0.051 0.024-0.035 0.027-0.040 0.029-0.051 0.025-0.036 0.025-0.049 0.029-0.036 0.027-0.051 0.024-0.035 0.031-0.040 0.025-0.051 0.029-0.036 0.027-0.049 0.024-0.036 0.027-0.051 0.029-0.035 0.025-0.051 0.025-0.035h1.043v3.719h-0.979v-2.187l-0.024 0.035-0.031 0.051-0.025 0.035-0.031 0.040-0.025 0.051-0.029 0.036-0.027 0.040-0.029 0.051-0.025 0.035-0.025 0.040-0.035 0.040-0.025 0.052-0.031 0.035-0.025 0.040-0.024 0.051-0.031 0.035-0.025 0.040-0.031 0.051-0.025 0.036-0.029 0.040-0.027 0.051-0.024 0.035-0.031 0.040-0.025 0.051-0.029 0.036-0.031 0.040-0.025 0.040-0.025 0.051-0.031 0.036-0.029 0.040-0.020 0.051-0.036 0.035-0.025 0.040-0.029 0.051-0.027 0.036h-0.019l-0.031-0.045-0.025-0.040-0.031-0.047-0.025-0.040-0.029-0.045-0.027-0.040-0.029-0.045-0.025-0.040-0.029-0.045-0.027-0.040-0.035-0.047-0.020-0.040-0.031-0.045-0.029-0.040-0.027-0.045-0.029-0.040-0.025-0.051-0.029-0.040-0.027-0.045-0.029-0.040-0.025-0.047-0.031-0.040-0.024-0.045-0.031-0.040-0.025-0.045-0.031-0.040-0.025-0.045-0.029-0.040-0.027-0.047-0.029-0.040-0.025-0.045-0.035-0.040-0.020-0.045-0.031-0.040v2.192h-0.967v-3.68zM19.307 19.511h2.932v0.84h-1.96v0.596h1.763v0.791h-1.761v0.64h1.985v0.841h-2.953zM12.216 20.649l-0.020 0.051-0.016 0.040-0.020 0.051-0.020 0.049-0.015 0.045-0.020 0.045-0.021 0.051-0.020 0.051-0.015 0.040-0.020 0.051-0.020 0.040-0.016 0.051-0.020 0.051-0.020 0.040-0.015 0.051-0.020 0.040-0.020 0.051-0.021 0.051-0.013 0.040-0.021 0.051-0.020 0.051-0.015 0.040-0.021 0.051h0.857l-0.020-0.051-0.016-0.045-0.020-0.051-0.020-0.045-0.015-0.045-0.020-0.045-0.020-0.051-0.016-0.045-0.040-0.091-0.015-0.045-0.020-0.051-0.016-0.045-0.040-0.091-0.015-0.045-0.020-0.049-0.020-0.051-0.016-0.040-0.040-0.101-0.015-0.045zM10.683 27.613h10.684l-5.453 1.8z"></path>
</svg>
