<!-- Generated by IcoMoon.io -->
<svg version="1.1" xmlns="http://www.w3.org/2000/svg" width="32" height="32" viewBox="0 0 32 32">
<title>epson</title>
<path fill="#039" d="M22.155 18.553c-1.372 0-1.904-1.269-1.904-2.553 0-1.3 0.531-2.569 1.904-2.569s1.905 1.269 1.905 2.569c0 1.284-0.532 2.553-1.905 2.553zM22.155 12.147c-2.169 0-3.423 1.624-3.423 3.853s1.253 3.853 3.423 3.853c2.171 0 3.424-1.624 3.424-3.853s-1.253-3.853-3.424-3.853zM0 12.355h5.447v1.299h-3.925v1.609h3.66v1.269h-3.66v1.801h3.925v1.3h-5.447zM8.973 16.147h-1.372v-2.495h1.372c0.945 0 1.58 0.415 1.58 1.255 0 0.828-0.635 1.24-1.58 1.24zM6.083 19.632h1.52v-2.185h1.371c1.845 0 3.085-0.916 3.085-2.539 0-1.639-1.241-2.553-3.085-2.553h-2.891zM27.691 12.355h-1.549v7.277h1.491v-2.953c0-0.797-0.029-1.52-0.059-2.14 0.177 0.356 0.708 1.447 0.944 1.861l1.933 3.233h1.549v-7.279h-1.475v2.877c0 0.799 0.029 1.595 0.059 2.229-0.177-0.368-0.708-1.461-0.96-1.875zM13.787 17.225c0 0.973 0.811 1.359 1.668 1.359 0.561 0 1.491-0.163 1.491-0.916 0-0.797-1.123-0.945-2.199-1.225-1.137-0.309-2.229-0.724-2.229-2.081 0-1.507 1.417-2.215 2.745-2.215 1.536 0 2.939 0.664 2.939 2.361h-1.507c-0.059-0.885-0.739-1.107-1.505-1.107-0.517 0-1.167 0.205-1.167 0.825 0 0.561 0.369 0.649 2.215 1.123 0.531 0.147 2.213 0.472 2.213 2.127 0 1.357-1.063 2.361-3.056 2.361-1.623 0-3.143-0.797-3.129-2.612z"></path>
</svg>
