<!-- Generated by IcoMoon.io -->
<svg version="1.1" xmlns="http://www.w3.org/2000/svg" width="32" height="32" viewBox="0 0 32 32">
<title>etsy</title>
<path fill="#f16521" d="M11.419 3.26c0-0.433 0.044-0.693 0.787-0.693h9.953c1.733 0 2.693 1.48 3.387 4.257l0.56 2.221h1.693c0.307-6.304 0.573-9.045 0.573-9.045s-4.261 0.48-6.787 0.48h-12.732l-6.819-0.219v1.827l2.3 0.435c1.613 0.32 2 0.661 2.133 2.141 0 0 0.147 4.36 0.147 11.52 0 7.18-0.12 11.48-0.12 11.48 0 1.297-0.52 1.777-2.12 2.097l-2.296 0.44v1.799l6.84-0.22h11.4c2.58 0 8.52 0.22 8.52 0.22 0.14-1.56 1-8.64 1.14-9.419h-1.6l-1.712 3.88c-1.34 3.040-3.301 3.26-5.48 3.26h-6.541c-2.173 0-3.22-0.853-3.22-2.733v-9.921c0 0 4.827 0 6.387 0.128 1.216 0.085 1.951 0.433 2.347 2.131l0.52 2.26h1.88l-0.12-5.704 0.256-5.74h-1.855l-0.6 2.52c-0.377 1.659-0.64 1.96-2.339 2.133-2.221 0.227-6.42 0.187-6.42 0.187v-11.715z"></path>
</svg>
