<!-- Generated by IcoMoon.io -->
<svg version="1.1" xmlns="http://www.w3.org/2000/svg" width="32" height="32" viewBox="0 0 32 32">
<title>eventstore</title>
<path fill="#5ab552" d="M7.713 4.552c0.571-0.335 1.165-0.631 1.785-0.888 1.308-0.561 2.66-0.879 4.048-1.020l1.503 1.699-0.7 1.759c-1.36 0.26-2.639 0.76-3.839 1.48l-0.26 0.16-0.237-2.316-2.3-0.88zM7.060 4.965l2.385 0.92 0.251 2.28c-1.292 0.951-2.3 2.164-3.019 3.64-0.068 0.132-0.128 0.264-0.185 0.4l-1.68-2.039-2.739 0.579c0.681-1.472 1.601-2.788 2.751-3.947 0.687-0.696 1.427-1.305 2.223-1.835zM22.769 21.035c0.26-0.432 0.472-0.869 0.64-1.32l2.584 3.133 4.34-0.935c-0.249 0.684-0.543 1.353-0.883 2.009-0.895 1.721-2.071 3.212-3.531 4.48-1.483 1.283-3.159 2.22-5.028 2.809-0.036 0.012-0.075 0.021-0.111 0.035l-3.215-2.719 0.839-3.7 0.068-0.028c1.839-0.8 3.276-2.039 4.299-3.78zM28.204 6.407c0.265 0.364 0.512 0.747 0.751 1.139 0.988 1.664 1.672 3.443 2.052 5.339 0.361 1.88 0.42 3.772 0.16 5.669-0.14 0.912-0.34 1.8-0.619 2.669l-4.34 0.932-2.6-3.143c0.301-1.156 0.34-2.36 0.080-3.612-0.3-1.485-0.96-2.753-1.939-3.8l4.679-0.56 1.741-4.635zM1.784 11.445l2.8-0.592 1.648 2.012c-0.521 1.445-0.64 2.947-0.38 4.507 0.060 0.445 0.159 0.875 0.28 1.292l-2.96-0.673-2.12 2.508c-0.257-1.111-0.377-2.247-0.377-3.405 0.004-1.935 0.36-3.8 1.076-5.599l0.021-0.052zM6.373 19.357c0.425 1.125 1.051 2.152 1.879 3.088 0.62 0.719 1.32 1.3 2.084 1.759l-2.933 1.681 0.16 3.819c-0.968-0.601-1.86-1.32-2.667-2.14-1.361-1.4-2.4-2.999-3.12-4.8-0.199-0.5-0.36-1-0.5-1.5l2.18-2.559 2.96 0.679zM10.976 24.553c0.631 0.315 1.305 0.555 2.024 0.72 1.609 0.373 3.18 0.311 4.705-0.188l-0.833 3.676 3.183 2.693c-1.591 0.417-3.219 0.593-4.879 0.535-1.94-0.061-3.804-0.472-5.587-1.233-0.48-0.204-0.94-0.429-1.388-0.68l-0.159-3.843zM27.753 5.819l-1.751 4.648-4.819 0.58c-0.14-0.121-0.284-0.241-0.436-0.34-1.58-1.2-3.36-1.901-5.339-2.1-0.461-0.039-0.9-0.039-1.32-0.039l1.68-4.301-3.636-4.14c1.103-0.12 2.183-0.139 3.279-0.12 0.653 0.020 1.3 0.068 1.945 0.151 0.907 0.119 1.801 0.319 2.687 0.56 1.873 0.533 3.58 1.379 5.123 2.573 0.972 0.745 1.835 1.588 2.587 2.528z"></path>
</svg>
