<!-- Generated by IcoMoon.io -->
<svg version="1.1" xmlns="http://www.w3.org/2000/svg" width="32" height="32" viewBox="0 0 32 32">
<title>eventbrite</title>
<path fill="#f05537" d="M14 7.733c3.6-0.8 7.067 0.667 9.067 3.333l-15.6 3.6c0.533-3.333 3.067-6.133 6.533-6.933zM23.2 20.8c-1.2 1.733-3.067 3.067-5.2 3.467-3.6 0.8-7.067-0.667-9.067-3.467l15.6-3.467 2.533-0.533 4.933-1.067c0-1.067-0.133-2.133-0.4-3.067-2-8.667-10.533-13.867-19.2-11.867s-14 10.4-12 18.8 10.533 13.733 19.2 11.733c5.067-1.2 9.067-4.533 10.933-8.8 0.133-0.133-7.333-1.733-7.333-1.733z"></path>
</svg>
