<!-- Generated by IcoMoon.io -->
<svg version="1.1" xmlns="http://www.w3.org/2000/svg" width="32" height="32" viewBox="0 0 32 32">
<title>everplaces</title>
<path fill="#fa4b32" d="M14.452 31.963c-8.105-0.779-14.452-7.62-14.452-15.925 0-8.831 7.169-16 16-16s16 7.169 16 16c0 8.307-6.347 15.145-14.452 15.924v-9.395c2.96-0.7 5.16-3.361 5.16-6.529 0-3.704-3.004-6.711-6.708-6.711s-6.709 3.007-6.709 6.711c0 3.169 2.204 5.829 5.16 6.529zM13.935 12.423c0.856 0 1.549 0.695 1.549 1.549s-0.695 1.549-1.549 1.549-1.547-0.695-1.547-1.549 0.693-1.548 1.547-1.549z"></path>
</svg>
