<!-- Generated by IcoMoon.io -->
<svg version="1.1" xmlns="http://www.w3.org/2000/svg" width="32" height="32" viewBox="0 0 32 32">
<title>evernote</title>
<path fill="#00a82d" d="M10.256 7.26c0 0.319-0.027 0.849-0.341 1.193-0.343 0.32-0.869 0.345-1.184 0.345h-3.368c-0.973 0-1.553 0-1.947 0.053-0.212 0.027-0.475 0.133-0.607 0.187-0.053 0.025-0.053 0-0.027-0.027l7.684-7.881c0.027-0.027 0.053-0.027 0.027 0.027-0.053 0.132-0.157 0.397-0.184 0.609-0.053 0.397-0.053 0.981-0.053 1.963zM17.387 31.085c-0.893-0.584-1.368-1.353-1.552-1.831-0.181-0.432-0.287-0.933-0.289-1.459v-0.001c0.002-2.209 1.791-4 4-4.005h0c0.657 0 1.184 0.531 1.184 1.193 0 0.002 0 0.005 0 0.008 0 0.44-0.242 0.823-0.599 1.024l-0.006 0.003c-0.132 0.080-0.316 0.133-0.448 0.16-0.131 0.027-0.631 0.080-0.867 0.291-0.264 0.213-0.475 0.557-0.475 0.929 0 0.397 0.157 0.769 0.421 1.035 0.473 0.477 1.105 0.743 1.789 0.743 1.789-0.007 3.236-1.458 3.236-3.248 0-0.005 0-0.010-0-0.015v0.001c0-1.619-1.079-3.052-2.5-3.688-0.211-0.107-0.552-0.187-0.868-0.267-0.195-0.044-0.463-0.090-0.735-0.126l-0.055-0.006c-1.105-0.133-3.868-1.008-4.053-3.475 0 0-0.815 3.713-2.447 4.721-0.157 0.080-0.368 0.16-0.605 0.213-0.236 0.053-0.499 0.080-0.579 0.080-2.657 0.159-5.473-0.691-7.42-2.707 0 0-1.316-1.088-2-4.139-0.157-0.744-0.473-2.071-0.657-3.317-0.080-0.451-0.107-0.796-0.132-1.115 0-1.3 0.789-2.175 1.789-2.307h5.368c0.92 0 1.448-0.24 1.789-0.559 0.448-0.424 0.553-1.035 0.553-1.751v-5.597c0.129-0.983 1-1.805 2.288-1.805h0.632c0.263 0 0.579 0.027 0.868 0.053 0.211 0.027 0.395 0.080 0.711 0.16 1.605 0.397 1.947 2.043 1.947 2.043s3.027 0.531 4.553 0.796c1.447 0.265 5.027 0.504 5.709 4.139 1.605 8.649 0.632 17.033 0.553 17.033-1.132 8.172-7.868 7.773-7.868 7.773-0.033 0.001-0.072 0.001-0.111 0.001-1.17 0-2.255-0.368-3.144-0.994l0.017 0.012zM23.44 13.707c-0.869-0.080-1.605 0.267-1.869 0.929-0.053 0.133-0.105 0.292-0.079 0.371 0.027 0.080 0.080 0.107 0.132 0.133 0.316 0.16 0.841 0.239 1.605 0.319 0.763 0.080 1.289 0.133 1.631 0.080 0.053 0 0.107-0.027 0.159-0.107 0.053-0.080 0.027-0.24 0.027-0.372-0.080-0.716-0.737-1.247-1.605-1.353z"></path>
</svg>
