<!-- Generated by IcoMoon.io -->
<svg version="1.1" xmlns="http://www.w3.org/2000/svg" width="32" height="32" viewBox="0 0 32 32">
<title>evry</title>
<path fill="#063a54" d="M0.591 17.225c0.136 0.34 0.151 0.568 0.096 0.923-0.041 0.269-0.091 0.539-0.144 0.807-0.047 0.232-0.156 0.733 0.004 0.925 0.156 0.185 0.467 0.175 0.829 0.131 0.403-0.049 2.413-0.456 4.529-1.329 0.287-0.124 0.58-0.273 0.829-0.46 0.575-0.432 0.667-1.34 0.667-1.34 0.015-0.173 0.012-0.421-0.219-0.551-0.168-0.093-0.401-0.035-0.749 0.057-0.577 0.155-2.003 0.692-2.497 0.837-0.2 0.059-0.596 0.152-0.748-0.036-0.253-0.312 0.109-1.292 0.327-1.837s0.559-0.984 1.607-1.28c0.385-0.109 1.016-0.305 1.272-0.391 0.281-0.095 0.652-0.276 0.809-0.9 0.18-0.712-0.371-0.821-0.873-0.957-0.719-0.196-1.171-0.22-0.855-0.905 0.129-0.28 0.249-0.404 0.529-0.477 0.285-0.075 2.705-0.451 3.668-0.623 0.54-0.096 0.723-0.381 0.948-0.841 0.487-0.995-0.124-1.059-0.616-1.015-1.115 0.101-2.904 0.42-3.671 0.529-0.408 0.059-0.136-0.627-0.613-0.659-0.939-0.065-1.736 0.324-2.055 0.567-0.301 0.229-0.445 0.937-0.445 0.937l-0.929 3.157c-0.080 0.364-0.195 0.724-0.457 0.879-0.639 0.377-1.943 0.403-1.827 1.787 0 0 0.025 0.68 0.584 2.065zM9.015 11.327c0.372-0.063 0.872-0.153 1.008 0.781 0.041 0.283 0.043 3.548 0.043 3.548s0.359-0.336 1.459-2.035c0.835-1.287 1.756-2.948 2.103-3.531 0.203-0.341 0.577-0.696 1.224-0.22 0.721 0.531 0.737 0.913 0.42 1.457-0.325 0.559-1.2 1.981-2.436 3.696-1.123 1.557-1.66 2.175-2.132 2.688s-1.101 1.107-1.759 1.016c-0.872-0.121-0.805-1.597-0.84-2.020s-0.205-3.776-0.088-4.559c0.045-0.304 0.033-0.661 0.999-0.823zM20.808 11.413c0.403 0.215-0.060 1.14-0.835 1.703-0.499 0.363-1.352 0.905-2.229 0.905 0.391-0.659 0.84-1.227 1.354-1.729l0.002-0.002c0.627-0.615 1.357-1.065 1.708-0.877zM31.701 11.209c0.388-0.497 0.465-0.795-0.177-1.415-0.577-0.556-0.964-0.228-1.245 0.060-0.047 0.056-1.355 1.335-2.732 2.893-1.072 1.213-1.999 2.341-1.999 2.341s-0.033-0.76 0.083-1.715c0.065-0.544 0.248-1.601 0.301-1.937 0.272-1.699-0.791-1.767-1.187-1.791-0.416-0.025-0.615 0.193-0.739 0.711-0.113 0.475-0.733 3.081-0.487 5.767 0.044 0.484 0.14 0.983 0.149 1.015l-0.251 0.343c-2.332-0.647-3.928-2.219-3.928-2.219s0.765-0.22 1.605-0.724c0.668-0.4 1.953-1.391 1.817-3.137-0.116-1.483-1.695-2.16-2.276-2.039-0.529 0.111-1.455 0.744-2.329 1.52-0.059-0.405-0.069-0.852-0.491-0.901-0.309-0.036-0.668 0.109-0.928 0.243-0.286 0.138-0.515 0.355-0.664 0.623l-0.004 0.008-0.981 2.22c-0.032 0.079-0.096 0.096-0.147 0.107-0.525 0.12-0.695 0.495-0.732 0.599 0 0-0.22 0.463 0.168 0.881-0.195 0.513-0.711 1.709-0.711 1.709-0.64 1.468-0.599 1.977-0.369 2.289 0.116 0.159 0.524 0.388 1.016 0.468 0.371 0.061 0.655-0.159 0.964-0.643 0.457-0.716 1.376-2.604 1.376-2.604s1.827 1.965 5.495 3.257c0 0-1.94 2.631-2.22 4.085 0 0-0.144 0.953 1.163 0.951 0.328 0 0.823-0.077 1.181-0.295 0.143-0.081 0.249-0.213 0.296-0.37l0.001-0.004c0.005-0.020 0.008-0.042 0.008-0.065 0-0.051-0.013-0.099-0.036-0.14l0.001 0.001c-0.036-0.063-0.092-0.097-0.135-0.139-0.067-0.065-0.057-0.151-0.021-0.249 0.719-2.059 3.643-5.559 4.263-6.317 1.644-2.009 4.683-5.139 4.901-5.387z"></path>
</svg>
