<!-- Generated by IcoMoon.io -->
<svg version="1.1" xmlns="http://www.w3.org/2000/svg" width="32" height="32" viewBox="0 0 32 32">
<title>exercism</title>
<path fill="#009cab" d="M5.8 2.213c-1.279 0-2.248 0.397-2.908 1.191-0.661 0.793-0.992 1.952-0.992 3.473v4.632c0 1.073-0.115 1.899-0.345 2.477s-0.657 1.12-1.28 1.624c-0.184 0.151-0.275 0.275-0.275 0.371s0.091 0.22 0.273 0.369c0.635 0.515 1.064 1.059 1.289 1.633 0.227 0.573 0.337 1.396 0.337 2.468v4.616c0 1.533 0.333 2.697 1 3.491s1.632 1.189 2.899 1.189h1.176c0.505 0 0.824-0.024 0.96-0.072 0.133-0.048 0.2-0.169 0.2-0.361 0-0.268-0.177-0.445-0.532-0.531l-0.644-0.145c-1.417-0.321-2.127-1.72-2.127-4.197v-4.391c0-1.663-0.403-2.836-1.208-3.523l-0.307-0.257c-0.149-0.128-0.224-0.225-0.224-0.289 0-0.075 0.075-0.172 0.225-0.289l0.307-0.257c0.804-0.687 1.207-1.86 1.207-3.523v-4.391c0-1.48 0.18-2.507 0.54-3.080s1.109-1.016 2.247-1.327c0.344-0.097 0.516-0.253 0.516-0.467 0-0.289-0.387-0.435-1.16-0.435zM25.025 2.252c-0.773 0-1.16 0.144-1.16 0.433 0 0.215 0.171 0.371 0.515 0.467 1.139 0.311 1.888 0.753 2.248 1.327s0.54 1.6 0.54 3.080v4.392c0 1.661 0.403 2.835 1.208 3.521l0.305 0.257c0.151 0.119 0.227 0.215 0.227 0.289 0 0.065-0.076 0.161-0.227 0.289l-0.307 0.257c-0.804 0.687-1.207 1.861-1.207 3.523v4.391c0 2.477-0.709 3.876-2.127 4.199l-0.645 0.144c-0.355 0.085-0.531 0.263-0.531 0.531 0 0.193 0.067 0.313 0.2 0.363 0.136 0.048 0.455 0.072 0.96 0.072h1.176c1.267 0 2.233-0.397 2.899-1.191 0.667-0.793 1-1.956 1-3.489v-4.616c0-1.073 0.112-1.896 0.337-2.469 0.227-0.573 0.655-1.117 1.289-1.632 0.183-0.151 0.273-0.273 0.273-0.371 0-0.096-0.091-0.22-0.273-0.369-0.624-0.504-1.051-1.045-1.281-1.624-0.231-0.58-0.347-1.405-0.347-2.477v-4.632c0-1.523-0.329-2.68-0.991-3.475-0.66-0.793-1.629-1.189-2.907-1.189zM10.244 12.98c-1.941 0-3.52 1.481-3.52 3.304h1.36c0-1.117 0.969-2.027 2.16-2.027 1.189 0 2.159 0.909 2.159 2.027h1.36c0-1.823-1.577-3.304-3.519-3.304zM21.452 12.98c-1.941 0-3.519 1.481-3.519 3.304h1.36c0-1.117 0.969-2.027 2.16-2.027 1.189 0 2.16 0.909 2.16 2.027h1.36c0-1.823-1.58-3.304-3.521-3.304zM12.947 19.147v0.748c0 1.703 1.416 3.088 3.155 3.088 1.74 0 3.156-1.385 3.156-3.088v-0.747h-1.245v0.747c0 1.169-1.013 1.901-1.911 1.901s-1.973-0.364-1.973-1.901v-0.747z"></path>
</svg>
