<!-- Generated by IcoMoon.io -->
<svg version="1.1" xmlns="http://www.w3.org/2000/svg" width="32" height="32" viewBox="0 0 32 32">
<title>expo</title>
<path d="M24.293 15.547c0.079 0.006 0.171 0.009 0.264 0.009 1.896 0 3.478-1.344 3.845-3.132l0.004-0.025c-0.466-0.711-1.259-1.175-2.16-1.175-0 0-0.001 0-0.001 0h0c-0.018-0-0.038-0.001-0.059-0.001-1.423 0-2.576 1.153-2.576 2.576 0 0.675 0.26 1.29 0.685 1.749l-0.002-0.002zM15.112 4.696l5.361-3.103-1.707-0.963-7.391 4.28 0.588 0.331 1.12 0.627zM21.16 1.307c0.090 0.029 0.16 0.098 0.189 0.186l0.001 0.002 2.484 7.593c0.010 0.028 0.016 0.061 0.016 0.095 0 0.105-0.056 0.198-0.14 0.249l-0.001 0.001c-1.504 0.897-2.495 2.515-2.495 4.364 0 0.473 0.065 0.931 0.186 1.365l-0.009-0.036c0.607 2.167 2.565 3.729 4.887 3.729 0.181 0 0.359-0.009 0.535-0.028l-0.022 0.002c0.136-0.011 0.267 0.073 0.308 0.203l2.563 7.803c0.009 0.027 0.014 0.059 0.014 0.091 0 0.106-0.055 0.199-0.138 0.252l-0.001 0.001-7.859 4.771c-0.037 0.021-0.080 0.035-0.127 0.039l-0.001 0c-0.014 0.002-0.029 0.004-0.046 0.004-0.059 0-0.115-0.018-0.161-0.048l0.001 0.001-2.765-1.797c-0.048-0.032-0.085-0.076-0.109-0.127l-0.001-0.002-5.395-12.896-8.22 4.876c-0.015 0.010-0.033 0.020-0.051 0.027l-0.002 0.001c-0.033 0.015-0.072 0.024-0.113 0.024-0.055 0-0.106-0.016-0.149-0.043l0.001 0.001-1.859-1.093c-0.088-0.050-0.146-0.144-0.146-0.251 0-0.048 0.012-0.093 0.032-0.132l-0.001 0.002 7.953-15.749c0.030-0.058 0.077-0.104 0.134-0.131l0.002-0.001 7.957-4.608c0.043-0.026 0.095-0.042 0.151-0.042 0.052 0 0.101 0.014 0.143 0.037l-0.001-0.001zM12.84 6.407l-1.933-1.089-7.693 15.229 1.396 0.823 6.629-9.015c0.053-0.074 0.139-0.122 0.236-0.122 0.013 0 0.025 0.001 0.038 0.002l-0.001-0c0.105 0.011 0.195 0.080 0.235 0.177l7.228 17.295 1.933 1.252-7.737-23.56zM26.245 16.964c-0 0-0.001 0-0.001 0-1.747 0-3.164-1.417-3.164-3.164s1.417-3.164 3.164-3.164c0.873 0 1.663 0.354 2.236 0.925l-0-0c0.572 0.572 0.925 1.362 0.925 2.234 0 0 0 0 0 0v-0c0 0.002 0 0.005 0 0.008 0 1.745-1.415 3.16-3.16 3.16 0 0 0 0 0 0v0z"></path>
</svg>
