<!-- Generated by IcoMoon.io -->
<svg version="1.1" xmlns="http://www.w3.org/2000/svg" width="32" height="32" viewBox="0 0 32 32">
<title>eyeem</title>
<path d="M4.897 12.241v-1.387h-4.897v7.631h4.907v-1.397h-3.325v-1.837h2.877v-1.356h-2.877v-1.655zM7.78 21.087l3.376-7.876h-1.653l-1.203 3.143-1.213-3.143h-1.645l2.061 4.805-1.347 3.071zM16.613 16.323v-0.592c0-1.643-1-2.621-2.52-2.621-1.572 0-2.684 1.040-2.684 2.744 0 1.693 1.112 2.744 2.724 2.744 1.235 0 2.245-0.715 2.428-1.713l-1.499-0.072c-0.113 0.367-0.449 0.581-0.969 0.581-0.673 0-1.072-0.419-1.103-1.071zM14.083 14.272c0.673 0 1 0.419 1.031 1.061h-2.123c0.041-0.673 0.46-1.061 1.092-1.061zM22.72 12.24v-1.387h-4.896v7.631h4.907v-1.397h-3.327v-1.837h2.877v-1.356h-2.877v-1.653zM30 13.107c-0.796 0-1.316 0.357-1.621 0.837-0.347-0.541-0.929-0.836-1.653-0.836s-1.152 0.275-1.387 0.643v-0.541h-1.408v5.275h1.489v-2.928c0-0.632 0.357-1.061 0.948-1.061 0.541 0 0.857 0.377 0.857 1.051v2.939h1.489v-3.111c0.061-0.531 0.388-0.877 0.919-0.877 0.571 0 0.877 0.377 0.877 1.051v2.939h1.489v-3.235c0-1.336-0.796-2.141-2-2.144z"></path>
</svg>
