<!-- Generated by IcoMoon.io -->
<svg version="1.1" xmlns="http://www.w3.org/2000/svg" width="32" height="32" viewBox="0 0 32 32">
<title>f-secure</title>
<path fill="#00baff" d="M31.907 3.92c-4.78-1.755-10.299-2.77-16.056-2.77-4.848 0-9.527 0.72-13.937 2.058l0.339-0.089c-1.311 0.323-2.267 1.489-2.267 2.878 0 0.281 0.039 0.552 0.112 0.81l-0.005-0.021c0.533 2.133 1.307 4.587 2.24 6.813 0.013 0.053 0.040 0.027 0.040-0.027-0.133-1.040 0.667-2.36 2.24-2.84 3.327-1.095 7.156-1.727 11.132-1.727 4.318 0 8.463 0.745 12.311 2.113l-0.257-0.080c1.147 0.4 2.427-0.227 2.8-1.413 0.933-3 1.307-5.040 1.4-5.547 0.013-0.093-0.067-0.133-0.093-0.16zM8.867 10.52c-1.147 0.24-2.733 0.613-3.92 1.013-2.373 0.813-2.267 3.707-1 4.627 0.093-0.533 0.667-1.267 1.307-1.507 2.373-0.933 4.92-1.493 7.493-1.72-1.307-0.533-2.587-1.293-3.867-2.413zM27.773 16.307c-3.513-1.689-7.638-2.676-11.993-2.676-3.572 0-6.988 0.664-10.133 1.874l0.193-0.065c-1.133 0.427-1.84 1.8-1.133 3.107 1.364 2.448 2.754 4.54 4.287 6.516l-0.086-0.116c-0.227-0.773 0.173-2.213 1.693-2.68 4.2-1.293 8.613-0.747 11.547 0.44 0.827 0.333 2 0.133 2.653-0.853 0.992-1.492 2.007-3.247 2.918-5.063l0.135-0.297c0.040-0.080 0-0.147-0.080-0.187zM20.96 26.667c-1.281-0.655-2.379-1.456-3.334-2.401l0.001 0.001c-0.453-0.453-1.12-1.107-1.827-1.88-1.6 0-3.16 0.16-4.827 0.693-1.547 0.48-1.693 2.267-1.013 3.2 1.147 1.427 1.947 2.2 3.227 3.52 0.659 0.648 1.563 1.047 2.56 1.047 0.984 0 1.877-0.389 2.534-1.022l-0.001 0.001c1-1 1.613-1.667 2.747-2.947 0.067-0.067 0.040-0.187-0.067-0.213z"></path>
</svg>
