<!-- Generated by IcoMoon.io -->
<svg version="1.1" xmlns="http://www.w3.org/2000/svg" width="32" height="32" viewBox="0 0 32 32">
<title>fandango</title>
<path fill="#ff7300" d="M18.219 9.275l-7.485 2.053 1.52 5.632 7.487-2.053 1.527 5.627-7.487 1.987 1.457 5.632-7.487 1.987-1.857-6.752c1.128-1.327 1.592-3.181 1.128-4.971-0.531-1.789-1.856-3.18-3.445-3.776l-1.856-6.956 15.040-3.977zM27.693 9.011l-2.451-8.944-25.243 6.691 2.451 9.011c1.457 0.267 2.783 1.391 3.18 2.981 0.464 1.591-0.133 3.18-1.259 4.24l2.384 8.944 25.244-6.757-2.387-8.944c-1.523-0.267-2.781-1.391-3.245-2.981-0.397-1.591 0.133-3.247 1.325-4.24z"></path>
</svg>
