<!-- Generated by IcoMoon.io -->
<svg version="1.1" xmlns="http://www.w3.org/2000/svg" width="32" height="32" viewBox="0 0 32 32">
<title>favro</title>
<path fill="#512da8" d="M15.448 2.207c-4.875 0.002-8.826 3.953-8.828 8.828v1.030c1.906 0.968 3.423 2.468 4.387 4.304l0.026 0.055v-5.388c0-0.003 0-0.007 0-0.011 0-2.432 1.971-4.403 4.403-4.403 0.004 0 0.008 0 0.011 0h-0.001c1.213 0 2.207-0.993 2.207-2.207s-0.993-2.207-2.205-2.208zM2.207 12.137c-1.213 0-2.207 0.993-2.207 2.207s0.993 2.207 2.207 2.207c0.003 0 0.007 0 0.011 0 2.432 0 4.403 1.971 4.403 4.403 0 0.004 0 0.008 0 0.011v-0.001 6.621c0 1.213 0.993 2.207 2.207 2.207s2.207-0.993 2.207-2.207v-6.621c-0.002-4.874-3.953-8.824-8.826-8.827h-0zM23.172 12.137c-4.873 0-8.828 3.955-8.828 8.828s3.955 8.828 8.828 8.828c0.003 0 0.007 0 0.010 0 1.705 0 3.296-0.486 4.643-1.327l-0.037 0.022c0.349 0.772 1.121 1.305 2.004 1.305 1.217-0.004 2.203-0.989 2.207-2.206v-13.242c-0.004-1.217-0.989-2.203-2.206-2.207h-0c-0.901 0-1.655 0.533-2.004 1.305-1.309-0.82-2.9-1.307-4.604-1.307-0.004 0-0.008 0-0.012 0h0.001zM23.172 16.552c2.445 0 4.413 1.968 4.413 4.413s-1.968 4.413-4.413 4.413c-2.447 0-4.413-1.968-4.413-4.413s1.968-4.413 4.413-4.413z"></path>
</svg>
