<!-- Generated by IcoMoon.io -->
<svg version="1.1" xmlns="http://www.w3.org/2000/svg" width="32" height="32" viewBox="0 0 32 32">
<title>fedora</title>
<path fill="#294172" d="M16 0c-8.833 0-15.993 7.157-16 15.989v12.381c0.005 2.005 1.631 3.629 3.637 3.629 0 0 0 0 0 0h12.369c8.833-0.004 15.993-7.165 15.993-16 0-8.836-7.164-16-16-16zM22.127 7.436c-0.505 0-0.688-0.097-1.429-0.097 0 0 0 0 0 0-2.187 0-3.96 1.771-3.964 3.957v3.444c0 0.309 0.251 0.56 0.56 0.56h2.604c0.971 0 1.755 0.773 1.755 1.747 0 0.979-0.792 1.749-1.773 1.749h-3.144v3.98c0 4.147-3.362 7.509-7.509 7.509-0 0-0.001 0-0.001 0h0c-0.011 0-0.024 0-0.038 0-0.577 0-1.135-0.082-1.663-0.235l0.042 0.010c-0.849-0.221-1.543-0.919-1.543-1.728 0-0.979 0.711-1.691 1.773-1.691 0.504 0 0.688 0.096 1.428 0.096 2.187 0 3.96-1.771 3.964-3.957v-3.444c-0.001-0.309-0.251-0.559-0.56-0.559 0 0 0 0 0 0h-2.604c-0.969 0-1.753-0.773-1.753-1.747 0-0.979 0.792-1.749 1.773-1.749h3.143v-3.98c0-4.147 3.362-7.509 7.509-7.509v0c0.629 0 1.076 0.071 1.659 0.223 0.849 0.223 1.544 0.92 1.544 1.728 0 0.98-0.711 1.692-1.772 1.692z"></path>
</svg>
