<!-- Generated by IcoMoon.io -->
<svg version="1.1" xmlns="http://www.w3.org/2000/svg" width="32" height="32" viewBox="0 0 32 32">
<title>feedly</title>
<path fill="#2bb24c" d="M18.48 2.652c-0.632-0.644-1.511-1.043-2.484-1.043s-1.852 0.399-2.483 1.043l-0.001 0.001-12.488 12.717c-0.633 0.654-1.024 1.546-1.024 2.53s0.39 1.876 1.024 2.531l-0.001-0.001 8.912 9.077c0.613 0.549 1.427 0.884 2.32 0.885h7.484c0.978-0.001 1.862-0.404 2.495-1.054l0.001-0.001 8.739-8.9c0.634-0.654 1.025-1.546 1.025-2.53s-0.391-1.877-1.026-2.531l0.001 0.001zM18.133 25.881l-1.247 1.267c-0.090 0.094-0.217 0.152-0.357 0.152 0 0 0 0 0 0h-1.067c-0.127-0.001-0.242-0.050-0.33-0.128l0 0-1.272-1.293c-0.090-0.093-0.146-0.221-0.146-0.361s0.056-0.268 0.146-0.361l-0 0 1.783-1.813c0.090-0.092 0.215-0.15 0.354-0.15s0.264 0.057 0.354 0.15l0 0 1.783 1.815c0.091 0.093 0.147 0.221 0.147 0.361s-0.056 0.269-0.148 0.363l0-0zM18.133 18.267l-4.983 5.077c-0.090 0.091-0.216 0.148-0.355 0.148-0.001 0-0.002 0-0.003 0h-1.065c-0.001 0-0.002 0-0.003 0-0.127 0-0.242-0.047-0.331-0.125l0.001 0-1.268-1.293c-0.091-0.094-0.147-0.222-0.147-0.363s0.056-0.269 0.147-0.363l-0 0 5.519-5.619c0.090-0.092 0.215-0.149 0.354-0.149s0.264 0.057 0.354 0.149l0 0 1.783 1.816c0.090 0.093 0.146 0.219 0.146 0.359 0 0.141-0.057 0.268-0.148 0.361l0-0zM18.133 10.657l-8.72 8.88c-0.090 0.093-0.216 0.151-0.356 0.151-0 0-0.001 0-0.001 0h-1.067c-0.001 0-0.001 0-0.002 0-0.127 0-0.243-0.048-0.331-0.126l0 0-1.271-1.296c-0.090-0.093-0.146-0.22-0.146-0.36s0.056-0.267 0.146-0.36l-0 0 9.257-9.427c0.090-0.092 0.215-0.149 0.354-0.149s0.264 0.057 0.354 0.149l0 0 1.783 1.813c0.091 0.093 0.147 0.221 0.147 0.361s-0.056 0.269-0.148 0.363l0-0z"></path>
</svg>
