<!-- Generated by IcoMoon.io -->
<svg version="1.1" xmlns="http://www.w3.org/2000/svg" width="32" height="32" viewBox="0 0 32 32">
<title>filezilla</title>
<path fill="#bf0000" d="M32.003 2.48v-1.412c-0.283 0-0.559-0.116-0.757-0.315-0.197-0.197-0.312-0.475-0.312-0.756h-1.415c-0.028 0.592-0.533 1.048-1.125 1.020-0.551-0.028-0.991-0.469-1.019-1.020h-1.415c-0.036 0.592-0.544 1.043-1.137 1.007-0.54-0.033-0.972-0.467-1.007-1.007h-1.412c-0.031 0.592-0.533 1.048-1.127 1.020-0.551-0.028-0.991-0.469-1.020-1.020h-1.413c-0.029 0.592-0.532 1.048-1.125 1.020-0.551-0.028-0.991-0.469-1.020-1.020h-1.412c-0.036 0.592-0.544 1.043-1.137 1.007-0.54-0.033-0.972-0.467-1.007-1.007h-1.413c-0.015 0.592-0.511 1.055-1.101 1.032-0.563-0.019-1.015-0.471-1.035-1.032h-1.413c-0.028 0.592-0.533 1.048-1.125 1.020-0.551-0.029-0.992-0.469-1.019-1.020h-1.413c-0.021 0.592-0.519 1.055-1.109 1.032-0.563-0.019-1.013-0.471-1.033-1.032h-1.413c0 0.281-0.115 0.559-0.313 0.756-0.199 0.199-0.475 0.315-0.757 0.315v1.412c0.592 0.023 1.053 0.519 1.032 1.109-0.017 0.563-0.469 1.015-1.032 1.033v1.415c0.592 0.021 1.053 0.517 1.032 1.109-0.017 0.563-0.469 1.013-1.032 1.033v1.412c0.592 0 1.072 0.481 1.072 1.073s-0.48 1.072-1.072 1.072v1.412c0.592 0 1.072 0.479 1.072 1.072s-0.479 1.072-1.072 1.072v1.413c0.592 0.021 1.053 0.519 1.032 1.109-0.019 0.563-0.471 1.013-1.032 1.033v1.415c0.592 0 1.072 0.479 1.072 1.071 0 0.593-0.479 1.073-1.072 1.073v1.415c0.592 0.021 1.053 0.516 1.032 1.107-0.019 0.563-0.471 1.016-1.032 1.033v1.415c0.592 0 1.072 0.479 1.072 1.073 0 0.591-0.479 1.071-1.072 1.071v1.415c0.589 0.003 1.069 0.479 1.071 1.071h1.413c0.036-0.591 0.547-1.041 1.139-1.005 0.541 0.033 0.972 0.464 1.005 1.005h1.415c0.028-0.591 0.533-1.047 1.125-1.019 0.551 0.028 0.991 0.469 1.019 1.019h1.412c0.031-0.591 0.533-1.047 1.127-1.019 0.551 0.028 0.991 0.469 1.019 1.019h1.413c0.023-0.591 0.519-1.055 1.109-1.033 0.563 0.021 1.015 0.472 1.033 1.033h1.415c0.028-0.591 0.533-1.047 1.125-1.019 0.551 0.028 0.991 0.469 1.019 1.019h1.412c0.031-0.591 0.533-1.047 1.127-1.019 0.551 0.028 0.991 0.469 1.020 1.019h1.412c0.031-0.591 0.533-1.047 1.127-1.019 0.551 0.028 0.991 0.469 1.020 1.019h1.413c0.021-0.591 0.517-1.055 1.108-1.033 0.563 0.021 1.015 0.472 1.033 1.033h1.407c0-0.281 0.115-0.557 0.313-0.757 0.197-0.197 0.473-0.312 0.756-0.312v-1.415c-0.592-0.036-1.041-0.544-1.007-1.136 0.033-0.541 0.467-0.973 1.007-1.005v-1.415c-0.592-0.031-1.048-0.533-1.019-1.125 0.028-0.552 0.468-0.992 1.019-1.019v-1.415c-0.592-0.036-1.041-0.547-1.007-1.139 0.033-0.541 0.467-0.972 1.007-1.005v-1.415c-0.592-0.028-1.048-0.533-1.019-1.125 0.028-0.549 0.468-0.989 1.019-1.019v-1.411c-0.592-0.036-1.041-0.547-1.007-1.139 0.033-0.541 0.467-0.972 1.007-1.005v-1.413c-0.592-0.028-1.048-0.533-1.019-1.125 0.028-0.551 0.468-0.991 1.019-1.019v-1.413c-0.592-0.036-1.041-0.544-1.007-1.137 0.033-0.54 0.467-0.972 1.007-1.005v-1.413c-0.592-0.029-1.048-0.533-1.020-1.125 0.028-0.551 0.468-0.991 1.020-1.019zM26.579 15.597l-8.539 8.301c0.773 0.12 1.52 0.3 2.323 0.3 1.953 0 4.197-0.593 5.716-1.221l-0.779 3.661c-2.235 1.073-3.601 1.161-4.937 1.161-1.46 0-2.859-0.476-4.287-0.476-0.804 0-1.965 0.060-2.679 0.533l-1.548-2.737 8.809-8.721h-10.137l-1.935 9.077h-4.227l4.407-20.773h13.987l-0.893 4.195h-9.732l-0.833 3.9h15.969l-0.685 2.8z"></path>
</svg>
