<!-- Generated by IcoMoon.io -->
<svg version="1.1" xmlns="http://www.w3.org/2000/svg" width="32" height="32" viewBox="0 0 32 32">
<title>fitbit</title>
<path fill="#00b0b9" d="M17.731 2.433c0 1.301-1.080 2.38-2.381 2.38-1.296 0-2.379-1.080-2.379-2.38 0-1.297 1.084-2.38 2.379-2.38 1.301 0 2.381 1.084 2.381 2.38zM15.349 6.757c-1.403 0-2.484 1.080-2.484 2.488 0 1.404 1.080 2.487 2.487 2.487 1.404 0 2.487-1.081 2.487-2.487s-1.1-2.488-2.5-2.488zM15.349 13.463c-1.403 0-2.593 1.188-2.593 2.593s1.192 2.593 2.596 2.593 2.595-1.188 2.595-2.593-1.192-2.593-2.595-2.593zM15.349 20.272c-1.403 0-2.484 1.080-2.484 2.485s1.080 2.488 2.487 2.488c1.404 0 2.487-1.081 2.487-2.488 0-1.296-1.1-2.485-2.5-2.485zM15.349 27.193c-1.296 0-2.379 1.079-2.379 2.379 0 1.293 1.084 2.375 2.379 2.375 1.303 0 2.381-1.079 2.381-2.379 0-1.297-1.080-2.375-2.381-2.375zM21.947 6.431c-1.515 0-2.811 1.303-2.811 2.815s1.297 2.809 2.811 2.809 2.808-1.3 2.808-2.809c0-1.513-1.296-2.812-2.808-2.812zM21.947 13.137c-1.621 0-2.92 1.297-2.92 2.92 0 1.621 1.3 2.916 2.92 2.916s2.919-1.295 2.919-2.919c0-1.621-1.299-2.917-2.919-2.917zM21.947 19.948c-1.515 0-2.811 1.301-2.811 2.809 0 1.513 1.297 2.812 2.811 2.812s2.808-1.301 2.808-2.812-1.295-2.809-2.808-2.809zM28.755 12.811c-1.728 0-3.24 1.407-3.24 3.245 0 1.729 1.401 3.244 3.24 3.244 1.841 0 3.245-1.42 3.245-3.259-0.109-1.843-1.513-3.241-3.245-3.241zM8.648 7.083c-1.189 0-2.16 0.973-2.16 2.164 0 1.188 0.972 2.16 2.16 2.16 1.191 0 2.159-0.972 2.159-2.16 0-1.191-0.969-2.16-2.159-2.16zM8.648 13.785c-1.297 0-2.271 0.972-2.271 2.271 0 1.3 0.961 2.271 2.26 2.271s2.26-0.973 2.26-2.271c0-1.3-0.98-2.271-2.28-2.271zM8.648 20.595c-1.189 0-2.16 0.975-2.16 2.16 0 1.193 0.972 2.164 2.16 2.164 1.191 0 2.159-0.98 2.159-2.18s-0.969-2.16-2.159-2.16zM1.948 14.111c-1.084 0-1.948 0.861-1.948 1.945 0 1.080 0.864 1.945 1.947 1.945 1.080 0 1.945-0.864 1.945-1.945s-0.864-1.945-1.944-1.945z"></path>
</svg>
