<!-- Generated by IcoMoon.io -->
<svg version="1.1" xmlns="http://www.w3.org/2000/svg" width="32" height="32" viewBox="0 0 32 32">
<title>fiverr</title>
<path fill="#1dbf73" d="M18.185 15.904h-1.272c0.080-0.344 0.288-0.656 0.712-0.656 0.328 0 0.56 0.304 0.56 0.656zM32.001 16c0 8.836-7.164 16-16 16s-16-7.164-16-16 7.164-16 16-16 16 7.164 16 16zM8.289 13.040c0 0.397 0.323 0.72 0.72 0.72s0.72-0.323 0.72-0.72-0.323-0.72-0.72-0.72-0.72 0.323-0.72 0.72zM10.313 17.6h-0.56v-3.368h-3.288v-0.216c0-0.424 0.424-0.432 0.64-0.432 0.248 0 0.36 0.024 0.36 0.024v-1.168c0 0-0.224-0.032-0.528-0.032-0.688 0-1.96 0.192-1.96 1.648v0.184h-0.6v1.080h0.6v2.28h-0.56v1.080h2.704v-1.080h-0.656v-2.28h1.8v2.28h-0.56v1.080h2.608zM14.865 15.312h0.496v-1.080h-2.36v1.080h0.4l-0.512 1.6c-0.096 0.264-0.12 0.584-0.12 0.584h-0.032c0 0-0.024-0.32-0.12-0.584l-0.512-1.6h0.4v-1.080h-2.36v1.080h0.496l1.232 3.36h1.76zM19.729 16.272c0-1.232-0.744-2.144-2.064-2.144-1.432 0-2.312 1.016-2.312 2.32 0 1.184 0.856 2.328 2.44 2.328 1.2 0 1.912-0.624 1.912-0.624l-0.544-1.032c0 0-0.592 0.424-1.248 0.424-0.472 0-0.92-0.248-1.032-0.816h2.816c-0.008-0.008 0.032-0.312 0.032-0.456zM23.697 14.176c0 0-0.088-0.016-0.176-0.016-0.68-0.008-1.24 0.488-1.424 1.096v0h-0.016c0 0 0.016-0.088 0.016-0.224v-0.232c0-0.408-0.224-0.568-0.632-0.568h-1.4v1.080h0.416c0.12 0 0.192 0.072 0.192 0.192v2.096h-0.6v1.080h2.696v-1.080h-0.6v-0.648c0-0.808 0.4-1.336 1.224-1.336 0.184 0 0.304 0.024 0.304 0.024zM27.641 15.64v-1.464c0 0-0.088-0.016-0.176-0.016-0.672-0.008-1.232 0.488-1.424 1.096v0h-0.016c0 0 0.016-0.088 0.016-0.224v-0.232c0-0.408-0.224-0.568-0.632-0.568h-1.4v1.080h0.416c0.12 0 0.192 0.072 0.192 0.192v2.096h-0.6v1.080h2.696v-1.080h-0.6v-0.648c0-0.808 0.4-1.336 1.224-1.336 0.184 0 0.304 0.024 0.304 0.024z"></path>
</svg>
