<!-- Generated by IcoMoon.io -->
<svg version="1.1" xmlns="http://www.w3.org/2000/svg" width="32" height="32" viewBox="0 0 32 32">
<title>flattr</title>
<path d="M2.541 16c0-7.424 6.035-13.459 13.459-13.459 0.064 0 5.337 0 7.273 0.003l-3.9 3.901 1.792 1.792 8.039-8.237h-13.204c-8.836 0-16 7.164-16 16v12.441l2.547-2.345v-0.128c-0.003-0.325-0.005-9.872-0.005-9.968zM32 3.557l-2.547 2.347v0.128l0.004 9.968c0 7.424-6.037 13.459-13.457 13.459-0.064 0-5.337 0-7.273-0.003l3.9-3.901-1.792-1.792-8.039 8.237h13.204c8.836 0 16-7.164 16-16z"></path>
</svg>
