<!-- Generated by IcoMoon.io -->
<svg version="1.1" xmlns="http://www.w3.org/2000/svg" width="32" height="32" viewBox="0 0 32 32">
<title>floatplane</title>
<path fill="#00aeef" d="M23.931 26.883c-2.413 2.036-5.437 3.155-8.621 3.155-3.576 0-6.92-1.396-9.451-3.911-2.529-2.529-3.911-5.888-3.911-9.451 0-3.199 1.12-6.223 3.155-8.621l-1.221-1.556c-2.413 2.704-3.881 6.281-3.881 10.192 0 8.461 6.848 15.309 15.309 15.309 3.911 0 7.488-1.468 10.192-3.881zM11.108 3.984c1.337-0.436 2.748-0.669 4.201-0.669 3.576 0 6.92 1.396 9.451 3.911 2.529 2.529 3.911 5.888 3.911 9.451 0 1.453-0.232 2.864-0.669 4.201l1.512 1.512c0.712-1.759 1.105-3.693 1.105-5.713 0-8.461-6.848-15.309-15.309-15.309-2.021 0-3.955 0.392-5.713 1.105zM12.911 8.592l-8.316-8.592-1.293 2.021c-0.117 0.188-0.103 0.436 0.043 0.611l7.211 9.261zM10.207 19.947l-3.344-2.515-0.611 1.032c-0.073 0.116-0.059 0.261 0.044 0.364l2.82 3.053zM16.211 12.009l-0.771-0.8 0.204-0.815c0.087-0.364 0.116-0.655 0.087-0.829-0.116-0.524-0.364-0.916-0.364-0.916l-7.299 7.821c0 0 0.495 0.48 1.207-0.073 0.32-0.247 1.585-1.28 2.937-2.399l1.236 1.585zM23.335 19.017l0.204-0.815c0.073-0.276 0.116-0.509 0.087-0.669-0.087-0.524-0.291-0.916-0.291-0.916l-7.821 7.299c0 0 0.48 0.495 1.221 0 0.364-0.247 1.904-1.323 3.445-2.428l9.188 7.153c0.175 0.145 0.421 0.16 0.611 0.044l2.021-1.295zM12.081 21.852c1.177-0.901 2.82-2.167 4.289-3.3l1.657 1.293 2.719-3.3-0.901-0.872 0.291-1.032c0.145-0.524 0.204-0.931 0.16-1.177-0.145-0.756-0.48-1.308-0.48-1.308l-10.759 10.759c0 0 0.335 0.276 1.032 0l3.039 2.805c0.101 0.087 0.247 0.101 0.364 0.044l1.032-0.611z"></path>
</svg>
