<!-- Generated by IcoMoon.io -->
<svg version="1.1" xmlns="http://www.w3.org/2000/svg" width="32" height="32" viewBox="0 0 32 32">
<title>fnac</title>
<path fill="#e1a925" d="M1.709 20.989h1.903v-5.569h3.344v5.564h1.904v-3.901c0.096-0.66 0.512-1.588 2.003-1.709 0 0 2.171-0.389 2.44 1.709v3.907h1.903v-4.713c-0.439-3.343-4.785-2.32-4.785-2.32-1.024 0.295-1.415 0.735-1.585 0.976v-0.951h-5.249c-0.145-1.831 1.587-1.804 1.587-1.804 1.711-0.051 1.784 1.145 1.784 1.145h1.904c0-2.148-2.735-2.417-2.735-2.417-2.685-0.22-3.612 0.757-3.612 0.757-0.855 0.783-0.831 2.028-0.805 2.32h-1.708v1.417h1.708v5.588zM21.209 19.107c-0.487 0.636-1.048 0.831-1.732 0.855-0.587 0.024-1.856 0.148-1.881-0.901-0.024-1.003 1.539-0.953 2.565-1.028 0 0 1.047 0 1.244-0.315 0 0 0.025-0.024 0.025 0 0.023 0.023 0.195 0.827-0.221 1.389zM21.185 14.005c-2.099-0.389-3.32 0-3.341 0-2.052 0.513-2.077 2.297-2.077 2.297h1.953c0 0 0.025-1.393 2.097-1.221 0 0 1.515 0.072 1.587 0.805 0 0 0.488 0.877-1.587 1-2.097 0.123-4.588 0.099-4.319 2.221 0 0-0.051 2.027 3.368 1.979 0 0 1.831 0.047 2.585-0.953v0.024l0.076 0.781h1.903l-0.048-4.197c0.145-2.368-2.197-2.736-2.197-2.736zM30.047 18.719c-0.295 0.656-0.881 1.024-1.931 1.024 0 0-2.367 0.172-2.439-2.175v-0.071c0.072-2.319 2.439-2.173 2.439-2.173 1.079 0 1.637 0.367 1.931 1.028h1.927c-0.020-0.289-0.093-0.572-0.22-0.832-0.464-0.805-1.561-1.732-4.124-1.563-0.709 0.049-1.245 0.123-1.709 0.319-0.855 0.343-2.247 1.293-2.221 3.149v0.219c-0.025 1.855 1.368 2.807 2.221 3.148 0.463 0.195 1.028 0.268 1.709 0.317 1.707 0.096 2.759-0.268 3.416-0.757 0.928-0.732 0.955-1.636 0.955-1.636h-1.953z"></path>
</svg>
