<!-- Generated by IcoMoon.io -->
<svg version="1.1" xmlns="http://www.w3.org/2000/svg" width="32" height="32" viewBox="0 0 32 32">
<title>formstack</title>
<path fill="#21b573" d="M25.333 5.38h1.867c0.441 0 0.8 0.359 0.8 0.8v19.64c0 0.441-0.359 0.8-0.8 0.8h-1.867zM29.333 8.035h1.867c0.441 0 0.8 0.359 0.8 0.8v14.329c0 0.441-0.359 0.8-0.8 0.8h-1.867zM0.8 2.725h22.4c0.441 0 0.8 0.359 0.8 0.8v24.949c0 0.441-0.359 0.8-0.8 0.8h-22.4c-0.441 0-0.8-0.359-0.8-0.8v-24.949c0-0.441 0.359-0.8 0.8-0.8zM5.6 6.973c-0.147 0-0.267 0.12-0.267 0.267v9.8c0 0.060 0.020 0.119 0.059 0.167 0.092 0.115 0.26 0.135 0.375 0.043l12.304-9.8c0.064-0.051 0.1-0.128 0.1-0.208 0-0.147-0.12-0.267-0.267-0.267zM5.333 22.913c0 0.053 0.016 0.107 0.047 0.151 0.083 0.121 0.249 0.152 0.371 0.069l10.101-6.912c0.072-0.049 0.116-0.132 0.116-0.22 0-0.147-0.12-0.267-0.267-0.267h-6.515c-0.060 0-0.117 0.020-0.164 0.056l-3.587 2.803c-0.065 0.051-0.103 0.128-0.103 0.211zM5.448 24.456c-0.072 0.049-0.115 0.132-0.115 0.219v0.116c0 0.141 0.115 0.256 0.256 0.256h3.744c0.147 0 0.267-0.12 0.267-0.267v-2.696c0-0.055-0.016-0.108-0.048-0.152-0.084-0.121-0.251-0.151-0.371-0.067z"></path>
</svg>
