<!-- Generated by IcoMoon.io -->
<svg version="1.1" xmlns="http://www.w3.org/2000/svg" width="32" height="32" viewBox="0 0 32 32">
<title>fossa</title>
<path fill="#90a1b8" d="M4.992 17.088c0 0-0.044-0.123 0.079-0.219 0.157-0.113 0.359-0.227 0.472-0.096l0.019 0.019c0.088 0.096 0.192 0.131 0.297 0.131 0.227 0 0.463-0.157 0.568-0.227 0.253-0.175 0.428-0.323 0.463-0.777v-0.017c0-0.009 0-0.14 0.113-0.165 0.044-0.009 0.088 0.017 0.123 0.044 0.088 0.079 0.192 0.271 0.175 0.551-0.035 0.411-0.236 0.777-0.595 1.092-0.027 0.027-0.052 0.044-0.079 0.069-0.219 0.175-0.428 0.332-0.62 0.463-0.271 0.148-0.516-0.079-0.637-0.227-0.052-0.069-0.096-0.131-0.165-0.236l-0.017-0.035c-0.072-0.125-0.141-0.248-0.195-0.369v0 0zM4.119 19.735c0.027 0.017 0.052 0.035 0.079 0.052 0.035 0.027 0.069 0.044 0.113 0.061 0.096 0.044 0.192 0.027 0.359-0.017 0.044-0.009 0.088-0.017 0.131-0.027-0.209-0.192-0.367-0.419-0.48-0.673-0.009 0.203-0.061 0.412-0.201 0.604v0zM6.6 4.263c0-0.008-0.009-0.008 0 0-0.105-0.131-0.192-0.261-0.263-0.392 0.027 0.236 0.069 0.472 0.113 0.681 0.017 0.079 0.027 0.148 0.044 0.219 0.079-0.088 0.157-0.165 0.227-0.244-0.043-0.176-0.121-0.264-0.121-0.264v0zM2.817 17.769c0.009-0.017 0.009-0.044 0.009-0.079v-0.027c-0.009-0.096 0-0.192 0.009-0.305 0.009-0.14 0.035-0.271 0.069-0.411v0c0-0.009 0-0.017 0.009-0.027 0.009-0.027 0.017-0.088 0.009-0.105v0c-0.105-0.079-0.227-0.148-0.315-0.192 0.017 0.201 0.009 0.419 0 0.541v0.061c-0.009 0.131-0.017 0.28 0.184 0.497-0.003 0.019 0.015 0.028 0.024 0.045v0zM22.255 8.709c0.105 0 0.209-0.009 0.315-0.027 0.165-0.052 0.28-0.079 0.297-0.088 0.917-0.271 1.677-0.856 2.027-1.564 0.244-0.637 0.219-1.127 0.192-1.476-0.009-0.079-0.009-0.157-0.009-0.236-0.009-0.612 0.751-1.677 0.908-1.896 0.551-0.908 0.733-1.687 0.551-2.245-0.165-0.497-0.576-0.664-0.585-0.673v0h-0.009c-0.157-0.069-0.315-0.131-0.48-0.175-0.261-0.067-0.54-0.103-0.829-0.103-1.144 0-2.393 0.585-3.328 1.572 0 0.009-0.009 0.017-0.017 0.027-0.341 0.445-0.883 1.355-0.647 2.428 0.165 0.733 0.568 1.311 1.232 1.773 0.088 0.061 0.131 0.157 0.113 0.263s-0.079 0.184-0.175 0.219c-0.009 0-0.839 0.315-1.013 0.848-0.069 0.209-0.027 0.437 0.14 0.691 0.027 0.008 0.507 0.663 1.319 0.663v0 0zM4.040 15.044c0.123 0 0.288-0.069 0.559-0.236 0.376-0.227 0.751-0.376 1.127-0.437h0.017c0.123-0.027 0.209-0.131 0.209-0.263v-0.027c-0.009-0.096-0.069-0.184-0.165-0.219-0.009 0-0.017-0.009-0.027-0.009-0.096-0.035-0.201-0.052-0.315-0.052h-0.007c-0.148 0-0.236 0.027-0.332 0.061-0.079 0.027-0.148 0.044-0.236 0.044h-0.053c-0.079-0.009-0.157-0.035-0.209-0.061-0.061-0.027-0.113-0.044-0.175-0.044-0.027 0-0.044 0-0.069 0.009-0.165 0.035-0.341 0.184-0.401 0.244 0 0-0.009 0.009-0.017 0.009h-0.009c-0.105 0.088-0.219 0.184-0.332 0.271l-0.052 0.052c0 0-0.009 0.009-0.009 0.017l-0.017 0.027c-0.017 0.035-0.027 0.079-0.027 0.113 0 0.069 0.027 0.14 0.079 0.192 0.009 0.009 0.017 0.017 0.027 0.027v0c0.009 0.009 0.017 0.017 0.027 0.027 0.192 0.176 0.279 0.255 0.409 0.255v0 0zM16.9 30.899c0.009 0 0.017-0.009 0.027-0.009 1.311-0.524 2.595-1.188 3.817-1.983l0.052-0.035c0.069-0.052 0.123-0.131 0.123-0.219v0-0.027c0-0.017 0-0.027-0.009-0.044 0-0.009-0.009-0.017-0.009-0.027l-0.009-0.017c-0.28-0.777-0.673-2.472-0.175-5.032 0.131-0.655 0.201-1.284 0.209-1.869v-0.063c-0.016-0.136-0.129-0.241-0.26-0.241-0.088 0-0.165 0.044-0.209 0.105l-0.009 0.017v0.009l-0.017 0.017c-0.14 0.263-0.315 0.533-0.516 0.821-2.088 2.996-3.66 5.512-3.364 8.377 0.017 0.14 0.131 0.236 0.263 0.236 0.027 0 0.061-0.009 0.088-0.019v0zM13.004 31.983l0.044-0.009c0.489-0.069 1.485-0.253 2.76-0.673v0l0.017-0.009h0.009c0.009 0 0.017-0.009 0.027-0.009v0c0.096-0.044 0.157-0.14 0.157-0.244v0-0.017l-0.009-0.035c-0.428-3.145 1.232-5.819 3.433-8.98 1.407-2.019 1.031-2.996 0.62-3.556-0.401-0.48-0.917-0.716-1.547-0.716-0.288 0-0.603 0.052-0.935 0.157-0.288 0.096-0.585 0.184-0.891 0.263-0.305 0.069-0.629 0.131-0.961 0.184-0.219 0.035-0.437 0.061-0.647 0.088-1.083 0.14-2.115 0.271-3.32 0.9l-0.017 0.017h-0.017c-0.096 0.044-0.184 0.096-0.28 0.14v0h-0.008c-0.009 0.009-0.027 0.009-0.035 0.017h-0.009c-0.027 0.017-0.044 0.035-0.061 0.061 0 0-0.009 0.009-0.009 0.017v0.009l-0.017 0.017c-0.017 0.035-0.027 0.079-0.027 0.113 0 0.079 0.035 0.157 0.096 0.209h0.063v0.044c0.812 0.507 1.397 1.756 1.485 3.18 0.113 1.825-0.052 3.512-0.201 4.988v0.017c-0.157 1.537-0.28 2.743-0.044 3.608v0.019c0 0.017 0.009 0.044 0.017 0.061 0.044 0.093 0.14 0.155 0.245 0.155 0.044-0.017 0.052-0.017 0.061-0.017v0zM5.631 5.635c0.009-0.009 0.009-0.009 0.017-0.017v0-0.009c0.123-0.148 0.236-0.288 0.349-0.411 0.009-0.009 0.009-0.009 0.017-0.017 0.035-0.044 0.061-0.105 0.061-0.165v-0.053c-0.017-0.104-0.035-0.217-0.061-0.313-0.113-0.568-0.244-1.267 0-1.843 0-0.305 0.052-0.62 0.088-0.9v-0.019c0.027-0.165 0.052-0.332 0.069-0.497 0.052-0.524-0.044-0.961-0.263-1.197-0.121-0.131-0.271-0.192-0.453-0.192h-0.027c-0.087 0-0.209 0-0.34 0.123-0.088 0.104-0.157 0.305-0.211 0.559-0.069 0.367-0.069 0.777-0.052 1.013 0.088 0.883 0.069 0.996 0 1.188-0.035 0.088-0.079 0.209-0.096 0.708-0.017 0.376 0.14 0.9 0.297 1.397v0.009c0.052 0.165 0.104 0.34 0.148 0.515v0c0 0.009 0.009 0.027 0.009 0.035v0.009c0.044 0.105 0.14 0.175 0.253 0.175 0.069-0.008 0.139-0.044 0.192-0.096v0zM5.953 8.753c0-0.009 0.009-0.027 0.009-0.035v0-0.009c0.044-0.315 0.079-0.733 0.104-1.363 0.009-0.184 0.035-0.384 0.069-0.585v0l0.027-0.113c0-0.017 0.009-0.035 0.009-0.052v-0.027c-0.017-0.14-0.131-0.244-0.263-0.244-0.079 0-0.157 0.035-0.201 0.096 0 0-0.009 0.009-0.009 0.017v0.009c-0.095 0.121-0.156 0.2-0.173 0.217l-0.008 0.009c-0.088 0.096-0.167 0.219-0.236 0.357-0.165 0.323-0.244 0.647-0.253 0.673v0.009c-0.036 0.139-0.071 0.288-0.105 0.445 0 0.096 0.027 0.184 0.079 0.271 0.096 0.175 0.28 0.332 0.559 0.489l0.009 0.009c0.009 0.009 0.017 0.009 0.027 0.017 0.035 0.017 0.069 0.027 0.113 0.027 0.104-0.019 0.219-0.097 0.244-0.22v0zM7.237 3.896v0l0.017-0.017c0.245-0.209 0.516-0.393 0.821-0.559h0.009c0.088-0.044 0.131-0.14 0.131-0.236v-0.027c-0.009-0.052-0.027-0.105-0.061-0.148-0.288-0.341-0.515-0.804-0.707-1.215l-0.019-0.035c-0.060-0.123-0.121-0.245-0.175-0.359v0 0l-0.027-0.052c-0.043-0.088-0.139-0.148-0.235-0.148-0.088 0-0.165 0.044-0.209 0.105 0 0-0.009 0.009-0.009 0.017v0.009l-0.017 0.016c-0.017 0.035-0.027 0.061-0.027 0.096l-0.008 0.088c-0.017 0.183-0.044 0.357-0.071 0.524-0.043 0.305-0.087 0.593-0.087 0.873 0.008 0.376 0.096 0.681 0.288 0.969v0.009c0 0.009 0.009 0.009 0.017 0.017 0.052 0.069 0.131 0.105 0.219 0.105 0.044 0.025 0.105-0.001 0.148-0.036v0zM7.316 13.987v0c0.332-0.9 0.969-1.791 1.485-2.516 0.209-0.297 0.42-0.577 0.559-0.813 1.119-1.817 1.729-3.52 1.739-3.539 0-0.009 0.009-0.017 0.009-0.027 0.516-1.153 1.153-1.957 1.948-2.464 0.699-0.445 1.511-0.681 2.629-0.76h0.017c0.401-0.027 0.725-0.131 0.961-0.323v-0.007h0.009l0.017-0.017h0.009c0.017-0.017 0.044-0.035 0.052-0.052 0.035-0.044 0.061-0.105 0.061-0.165v-0.028c-0.009-0.123-0.113-0.227-0.236-0.236l-0.079-0.009c-0.323-0.035-0.673-0.052-1.048-0.052-0.769 0-1.633 0.079-2.489 0.227-0.272 0.044-0.56 0.071-0.892 0.071-0.263 0-0.516-0.017-0.769-0.027-0.244-0.009-0.497-0.027-0.743-0.027-0.105 0-0.192 0-0.28 0.009-0.261 0.009-0.524 0.053-0.795 0.123v0l-0.069 0.017h-0.009c-0.996 0.288-1.86 1.171-2.384 2.403 0 0 0 0.009-0.009 0.009-0.227 0.533-0.359 1.092-0.384 1.572-0.061 1.223-0.131 1.756-0.323 2.253v0.017l-0.019 0.017c-0.087 0.219-0.192 0.428-0.323 0.7l-0.027 0.061c-0.184 0.357-0.428 0.777-0.672 1.188l-0.071 0.113c-0.035 0.052-0.061 0.104-0.096 0.157-0.209 0.357-0.419 0.724-0.551 1.004v0.017l-0.017 0.017c0 0.009-0.009 0.017-0.009 0.017v0c-0.008 0.027-0.016 0.061-0.016 0.088 0 0.113 0.069 0.209 0.165 0.244 0.009 0 0.017 0.009 0.027 0.009l0.017 0.009c0.035 0.017 0.069 0.027 0.105 0.044 0.017 0.009 0.044 0.017 0.052 0.017 0.017 0 0.044-0.009 0.061-0.017h0.009c0.105-0.035 0.263-0.079 0.507-0.079h0.009c0.288 0 0.551 0.079 0.777 0.219 0.175 0.113 0.411 0.332 0.637 0.595 0.052 0.061 0.123 0.096 0.209 0.096 0.095 0.016 0.192-0.055 0.235-0.159v0zM8.076 16.791v0c0.017 0 0.027-0.009 0.035-0.009h0.009c0.576-0.14 1.048-0.305 1.345-1.004 0.323-0.751 0.541-1.66 0.751-2.543l0.069-0.28c0.349-1.441 0.699-2.7 1.451-3.564l0.009-0.009c0.027-0.035 0.061-0.069 0.088-0.096v0c0.009-0.009 0.009-0.009 0.017-0.017 0.009-0.009 0.009-0.009 0.017-0.017 0.34-0.323 0.839-0.497 1.407-0.497 0.28 0 0.568 0.044 0.865 0.123v0h0.009c0.052 0.017 0.105 0.027 0.157 0.044 0.271 0.079 0.585 0.175 0.917 0.175v0c0.297 0 0.568-0.069 0.839-0.227v0h0.009c0.017-0.009 2.044-1.119 3.128-4.473v-0.009c0.009-0.017 0.009-0.044 0.017-0.061v0l0.017-0.044v-0.008l0.009-0.017c0.009-0.027 0.017-0.044 0.027-0.069l0.017-0.044c0.009-0.027 0.009-0.044 0.009-0.069v-0.027c-0.017-0.14-0.131-0.236-0.263-0.236-0.052 0-0.096 0.017-0.14 0.044l-0.017 0.009c-0.725 0.48-1.459 0.524-2.272 0.533-0.305 0-0.576 0.009-0.829 0.027h-0.017c-1.739 0.123-3.111 0.655-4.115 2.892-0.047 0.111-0.667 1.815-1.785 3.632-0.148 0.244-0.359 0.533-0.568 0.829l-0.044 0.017c-0.787 1.092-1.852 2.595-1.564 3.739v0.017c0.079 0.28 0.105 0.551 0.088 0.804v0 0.019c0 0.044-0.009 0.079-0.017 0.123v0 0.036c0 0.148 0.123 0.271 0.271 0.271 0.017-0.011 0.035-0.011 0.052-0.011v0zM20.088 9.784v0l0.017-0.009h0.019c0.244-0.157 0.516-0.305 0.821-0.455v0c0.009 0 0.017-0.009 0.035-0.017 0.088-0.044 0.131-0.14 0.131-0.236v-0.025c-0.009-0.069-0.044-0.14-0.105-0.184v0c-0.305-0.219-0.48-0.455-0.516-0.507-0.263-0.401-0.332-0.795-0.209-1.171 0.096-0.288 0.305-0.559 0.629-0.795h0.009c0.009 0 0.009-0.009 0.017-0.009v0c0.061-0.052 0.096-0.123 0.096-0.201v-0.024c-0.009-0.069-0.035-0.123-0.088-0.175l-0.069-0.061 0.009-0.009c-0.305-0.332-0.524-0.691-0.664-1.083v0l-0.027-0.105c-0.035-0.113-0.14-0.192-0.253-0.192-0.088 0-0.165 0.044-0.209 0.105-0.009 0.009-0.017 0.027-0.027 0.044-0.009 0.009-0.009 0.027-0.017 0.035 0 0.009 0 0.009-0.009 0.017v0.019c-0.227 0.891-0.14 1.879-0.061 2.927v0.009c0.052 0.612 0.105 1.249 0.088 1.869v0.036c0 0.148 0.123 0.263 0.271 0.263 0.027-0.031 0.079-0.048 0.113-0.065v0zM6.767 21.552c0.969 0 1.468-0.411 2.219-1.023l0.035-0.027c0.105-0.088 0.209-0.175 0.323-0.263h0.009c0.044-0.035 0.079-0.061 0.123-0.096l0.009-0.009h0.009c0.455-0.359 1.109-0.829 2.061-1.301 0.585-0.305 1.161-0.524 1.817-0.681 0.568-0.14 1.101-0.209 1.677-0.28l0.035-0.009c0.201-0.027 0.411-0.052 0.62-0.088 0.62-0.088 1.215-0.227 1.756-0.419 2.184-0.76 3.573-2.297 3.905-4.333 0.26-1.613 0.68-2.356 1.317-3.107 0.052-0.061 0.113-0.131 0.192-0.219 0.044-0.052 0.069-0.113 0.069-0.184v-0.027c-0.017-0.14-0.131-0.244-0.263-0.244-0.035 0-0.061 0.009-0.096 0.017l-0.123 0.044v-0.009c-0.865 0.288-2.629 0.987-3.040 1.965-0.009 0.035-0.027 0.061-0.035 0.096-0.184 0.463-0.437 0.873-0.777 1.24-1.083 1.171-2.149 1.451-3.188 1.721-0.996 0.263-1.931 0.507-2.857 1.572l-0.009 0.009c-0.009 0.009-0.568 0.595-1.529 2.272-0.541 0.952-1.459 1.695-2.595 2.088-0.533 0.192-1.101 0.288-1.643 0.288-0.48 0-0.944-0.079-1.319-0.236v0h-0.024l-0.017-0.017c-0.105-0.044-0.209-0.069-0.315-0.069-0.113 0-0.219 0.027-0.315 0.044-0.096 0.027-0.209 0.052-0.323 0.052h-0.088c-0.079 0.009-0.148 0.044-0.192 0.105 0 0-0.009 0.009-0.009 0.017v0.009l-0.017 0.017c-0.017 0.035-0.027 0.079-0.027 0.113 0 0.079 0.035 0.157 0.096 0.209l0.011 0.008c0.061 0.052 0.131 0.096 0.201 0.14 0.611 0.393 1.388 0.585 2.288 0.595h0.027v0.017zM18.079 3.355c-0.148-0.069-0.315-0.14-0.497-0.192-0.027-0.009-0.052-0.017-0.088-0.027-0.017 0.061-0.079 0.192-0.079 0.192-0.017 0.044-0.035 0.096-0.035 0.148 0 0.201 0.157 0.359 0.359 0.359 0.027 0 0.044 0 0.069-0.009 0.017 0 0.027-0.009 0.044-0.009 0.201-0.052 0.393-0.131 0.585-0.236-0.105-0.077-0.219-0.156-0.359-0.225v0zM21.713 28.244v0c0.009-0.009 0.017-0.017 0.027-0.017l0.017-0.009c0.445-0.323 0.891-0.673 1.311-1.031 1.765-1.493 3.285-3.224 4.525-5.145v-0.009c0.009-0.009 0.017-0.027 0.027-0.035 0.017-0.035 0.035-0.079 0.035-0.123v-0.025c-0.009-0.088-0.061-0.165-0.14-0.209h-0.009c-0.263-0.131-0.516-0.305-0.743-0.533-0.935-0.917-1.52-2.525-1.729-4.769l-0.017-0.148c-0.069-0.787-0.219-2.42-0.996-3.643v0c-0.341-0.497-0.673-1.023-0.969-1.564l-0.009-0.017c-0.052-0.079-0.131-0.123-0.227-0.123-0.088 0-0.165 0.044-0.209 0.105v0c0 0.009-0.009 0.009-0.009 0.017l-0.017 0.027c-0.315 0.551-0.524 1.205-0.681 2.123-0.253 1.555-1.075 2.865-2.359 3.792-0.009 0-0.009 0.009-0.017 0.009l-0.009 0.009c-0.017 0.017-0.035 0.027-0.052 0.052 0 0-0.009 0.009-0.009 0.017v0.009l-0.017 0.017c-0.017 0.035-0.027 0.079-0.027 0.113 0 0.105 0.061 0.201 0.165 0.244l0.052 0.027c0.341 0.157 0.647 0.384 0.9 0.691 0.944 1.119 1.215 3.136 0.743 5.529-0.341 1.729-0.236 3.032-0.088 3.817 0.044 0.227 0.096 0.445 0.157 0.647 0 0.009 0 0.009 0.009 0.017 0.035 0.113 0.14 0.184 0.253 0.184 0.027-0.012 0.071-0.021 0.115-0.047v0zM28.169 21.089l0.019-0.035c0.812-1.424 1.267-2.595 1.468-3.171 0-0.009 0.009-0.017 0.009-0.017 0.009-0.027 0.009-0.052 0.009-0.079v-0.028c-0.009-0.088-0.061-0.165-0.14-0.209-1.284-0.612-2.507-1.52-3.635-2.681 0 0-0.027-0.027-0.035-0.035-0.044-0.044-0.113-0.061-0.175-0.061-0.088 0-0.165 0.044-0.209 0.105 0 0-0.009 0.009-0.009 0.017v0.009l-0.017 0.017c-0.017 0.035-0.027 0.079-0.027 0.113v0.036l0.009 0.027c0.061 0.411 0.096 0.777 0.123 1.040l0.017 0.148c0.131 1.441 0.507 3.372 1.537 4.403 0.209 0.209 0.437 0.376 0.664 0.48l0.079 0.035c0.035 0.017 0.069 0.017 0.105 0.017 0.076-0.019 0.155-0.063 0.207-0.132v0zM3.953 19.019v0-0.036c-0.017-0.14-0.113-0.263-0.253-0.305-0.009 0-0.017 0-0.027-0.009-0.096-0.027-0.201-0.061-0.315-0.113h-0.008c-0.131-0.061-0.271-0.14-0.411-0.227-0.061-0.035-0.131-0.088-0.209-0.148l-0.009-0.009c-0.044-0.027-0.096-0.052-0.148-0.052-0.079 0-0.157 0.044-0.201 0.105v0c-0.009 0.009-0.009 0.017-0.017 0.027v0c-0.017 0.035-0.027 0.079-0.027 0.123 0 0.027 0 0.044 0.009 0.061 0 0.009 0 0.009 0.009 0.017 0.009 0.027 0.017 0.061 0.027 0.088 0.131 0.367 0.341 0.681 0.595 0.891v0c0.201 0.165 0.411 0.253 0.585 0.244 0.017 0 0.035-0.009 0.052-0.009 0.079-0.017 0.148-0.052 0.201-0.123 0.129-0.157 0.155-0.349 0.147-0.524v0zM6.784 15.183v-0.017c-0.009-0.105-0.079-0.192-0.184-0.227h-0.009c-0.131-0.035-0.28-0.052-0.445-0.052-0.052 0-0.113 0-0.165 0.009-0.349 0.027-0.716 0.157-1.092 0.384-0.349 0.219-0.629 0.315-0.865 0.315-0.315 0-0.524-0.184-0.769-0.419-0.105-0.105-0.219-0.157-0.349-0.157-0.088 0-0.175 0.027-0.271 0.069-0.017 0.009-0.069 0.052-0.113 0.088-0.017 0.017-0.027 0.035-0.044 0.052v0l-0.009 0.009c0 0-0.009 0.009-0.009 0.017v0.009l-0.017 0.017c-0.017 0.035-0.027 0.079-0.027 0.113 0 0.14 0.105 0.253 0.236 0.263h0.017c0.131 0.009 0.263 0.069 0.393 0.165 0.524 0.393 0.419 0.725 0.332 1.057-0.017 0.052-0.027 0.105-0.044 0.165l-0.009 0.027c-0.027 0.113-0.044 0.219-0.052 0.323-0.007 0.095-0.007 0.183-0.007 0.261 0.017 0.315 0.157 0.411 0.28 0.48 0.017 0.009 0.035 0.017 0.052 0.027s0.044 0.017 0.069 0.017c0.069 0 0.131-0.044 0.157-0.105 0-0.009 0.009-0.017 0.009-0.027s0.009-0.017 0.017-0.027v-0.008c0-0.009 0.009-0.009 0.009-0.017l0.017-0.017c0.009-0.009 0.017-0.017 0.027-0.017 0.009-0.009 0.017-0.009 0.027-0.017 0.009 0 0.009-0.009 0.017-0.009 0.009 0 0.009-0.009 0.017-0.009h0.009c0.009 0 0.009-0.009 0.017-0.009v0h0.14c0.009 0 0.017 0 0.027 0.009h0.009l0.017 0.009c0.009 0 0.017 0.009 0.035 0.017 0.009 0 0.009 0.009 0.017 0.009 0.009 0.009 0.017 0.009 0.027 0.017l0.035 0.035c0.009 0.009 0.017 0.017 0.017 0.027v0c0 0.009 0.009 0.009 0.009 0.017v0.009c0 0.009 0.009 0.009 0.009 0.017l0.009 0.009c0 0.009 0.009 0.009 0.009 0.017 0.027 0.079 0.069 0.131 0.14 0.175 0.079 0.044 0.175 0.069 0.297 0.069 0.069 0 0.148-0.009 0.227-0.027 0.088-0.027 0.131-0.069 0.131-0.096 0.009-0.035-0.017-0.096-0.061-0.148l-0.009-0.009c-0.017-0.017-0.027-0.035-0.044-0.061-0.052-0.079-0.105-0.14-0.175-0.244l-0.027-0.044c-0.096-0.14-0.175-0.28-0.236-0.428l-0.027-0.061c-0.175-0.437-0.165-0.856 0.027-1.153 0.148-0.227 0.384-0.349 0.673-0.359h0.009c0.349 0 0.48 0.297 0.541 0.497v0c0.027 0.096 0.113 0.157 0.219 0.157 0.044 0 0.079-0.009 0.105-0.027 0.009-0.009 0.017-0.009 0.027-0.017s0.017-0.009 0.027-0.017c0.192-0.131 0.244-0.165 0.263-0.428 0-0.148 0.061-0.349 0.219-0.48 0.009-0.009 0.017-0.009 0.027-0.017 0.061-0.052 0.096-0.123 0.096-0.201-0.032 0.001-0.032 0.001-0.032-0.008v0zM19.057 7.696c-0.009-0.157-0.027-0.315-0.035-0.472v-0.017c-0.017-0.14-0.131-0.244-0.263-0.244-0.088 0-0.165 0.044-0.209 0.105 0 0-0.009 0.009-0.009 0.017v0.008l-0.017 0.017c-0.865 1.336-1.773 1.965-2.079 2.157-0.079 0.359-0.384 1.372-1.511 2.115-0.027 0.017-0.052 0.035-0.079 0.052-0.017 0.009-0.035 0.017-0.052 0.035-1.161 0.708-2.385 0.568-2.385 0.568v0c-1.153-0.165-1.476 0.576-1.599 1.040l-0.069 0.28c-0.219 0.908-0.437 1.843-0.787 2.639-0.437 1.013-1.205 1.197-1.879 1.355-0.393 0.096-0.76 0.184-1.057 0.419-0.027 0.027-0.052 0.052-0.088 0.069-0.219 0.175-0.428 0.332-0.629 0.463l-0.061 0.044c-0.393 0.253-0.76 0.419-1.083 0.489l-0.044 0.009c-0.009 0-0.017 0-0.027 0.009h-0.016c-0.123 0.027-0.201 0.14-0.201 0.263 0 0.052 0.017 0.105 0.044 0.148v0c0.009 0.009 0.017 0.017 0.027 0.035 0 0 0 0.009 0.009 0.009 0.165 0.209 0.393 0.376 0.681 0.497l0.017 0.009c0.323 0.131 0.708 0.201 1.119 0.201 1.232 0 2.935-0.655 3.765-2.105 0.969-1.687 1.547-2.315 1.608-2.376 1.031-1.188 2.096-1.468 3.128-1.739 1.004-0.263 1.948-0.507 2.927-1.564 0.297-0.315 0.516-0.664 0.664-1.065 0.009-0.035 0.027-0.069 0.035-0.096 0.347-1.024 0.251-2.221 0.155-3.375v0zM4.625 11.732c0-0.009 0-0.027-0.009-0.035v-0.008c-0.060-0.123-0.131-0.289-0.183-0.499v-0.017c-0.027-0.069-0.096-0.131-0.175-0.131-0.061 0-0.113 0.027-0.148 0.069v0c0 0.009-0.009 0.017-0.009 0.017v0c0 0 0 0.009-0.009 0.009-0.008 0.008-0.008 0.025-0.008 0.035-0.087 0.263-0.175 0.497-0.271 0.708-0.061 0.131-0.123 0.244-0.184 0.357v0 0c0 0 0 0.009-0.009 0.009v0c0 0 0 0 0 0.009v0c0 0.009-0.009 0.017-0.009 0.035s0 0.027 0.009 0.044c0 0 0 0.009 0.009 0.009 0.017 0.017 0.027 0.035 0.044 0.061v0c0.061 0.103 0.167 0.208 0.288 0.208 0.131 0 0.263-0.113 0.323-0.227 0-0.009 0.009-0.009 0.009-0.017 0.096-0.184 0.211-0.385 0.324-0.577 0-0.009 0.009-0.017 0.009-0.017v0c0.009-0.017 0.009-0.027 0.009-0.044-0.011 0.009-0.011 0.009-0.011 0v0 0zM3.499 12.868c0-0.009-0.009-0.009-0.009-0.017 0 0 0-0.009-0.009-0.009-0.027-0.035-0.069-0.061-0.113-0.061s-0.088 0.017-0.113 0.052v0c0 0 0 0.009-0.009 0.009 0 0 0 0 0 0.009v0c0 0 0 0.009-0.009 0.009v0c-0.219 0.437-0.263 0.804-0.28 1.092v0.017c0 0.079 0.061 0.14 0.14 0.14 0.027 0 0.052-0.009 0.079-0.027l0.009-0.009c0.035-0.027 0.069-0.052 0.096-0.079l0.009-0.009c0.044-0.035 0.14-0.113 0.244-0.227 0 0 0 0 0.009-0.009v0l0.009-0.009c0.228-0.208 0.132-0.531-0.052-0.872v0z"></path>
</svg>
