<!-- Generated by IcoMoon.io -->
<svg version="1.1" xmlns="http://www.w3.org/2000/svg" width="32" height="32" viewBox="0 0 32 32">
<title>fossilscm</title>
<path fill="#548294" d="M16.761 0c-0.932 0.029-2.721 0.74-4.611 1.892-2.199 1.335-3.807 2.825-3.937 3.585-0.011 0.012-0.025 0.019-0.035 0.031-0.751 0.995 0.271 3.036 2.281 4.552 1.877 1.417 3.944 1.863 4.823 1.109 0.691-0.12 1.636-2.368 2.169-5.253 0.511-2.739 0.467-5.083-0.060-5.619-0.008-0.027 0.001-0.064-0.013-0.088-0.092-0.151-0.307-0.217-0.617-0.209zM13.725 3.915c-0.219 0.257-0.439 0.511-0.656 0.807-0.289 0.395-0.537 0.783-0.757 1.155-0.343-0.206-0.742-0.4-1.158-0.559l-0.052-0.017c0.933-0.399 1.714-0.807 2.462-1.265l-0.082 0.047c0.089-0.053 0.157-0.112 0.244-0.167zM14.941 5.36c-0.005 0.032-0.013 0.057-0.020 0.088-0.13 0.662-0.237 1.475-0.298 2.301l-0.004 0.072c-0.273-0.327-0.558-0.62-0.864-0.891l-0.008-0.007c0.287-0.321 0.581-0.676 0.869-1.068 0.124-0.169 0.213-0.328 0.325-0.495zM10.755 10.696c-0.547-0.1-1.291 1.52-1.661 3.608-0.368 2.088-0.219 3.863 0.328 3.959s1.296-1.521 1.664-3.609 0.219-3.861-0.331-3.957zM3.341 14.307c-0.096 0.043-0.035 0.419 0.137 0.833 0.176 0.416 0.396 0.719 0.493 0.68 0.099-0.041 0.033-0.415-0.139-0.831-0.173-0.416-0.393-0.72-0.492-0.683zM2.539 14.981c-0.047-0.007-0.081 0-0.101 0.024-0.083 0.089 0.111 0.397 0.429 0.683 0.32 0.287 0.644 0.443 0.727 0.353 0.080-0.093-0.112-0.397-0.432-0.684-0.24-0.213-0.481-0.356-0.623-0.376zM2.24 15.893c-0.157 0-0.263 0.027-0.273 0.077-0.023 0.103 0.329 0.273 0.783 0.376 0.457 0.104 0.848 0.104 0.871 0.003 0.023-0.107-0.331-0.272-0.784-0.379-0.177-0.044-0.382-0.072-0.592-0.077l-0.004-0zM3.968 16.085c-0.335 0.089-0.313 1.272 0.048 2.64 0.36 1.373 0.927 2.413 1.26 2.327 0.333-0.089 0.312-1.272-0.049-2.64-0.361-1.373-0.925-2.416-1.259-2.327zM17.827 16.333c-0.096-0.041-0.316 0.264-0.492 0.68-0.173 0.415-0.237 0.787-0.137 0.827 0.096 0.043 0.32-0.263 0.492-0.68 0.173-0.413 0.237-0.788 0.137-0.827zM18.64 17.005c-0.14 0.020-0.38 0.16-0.617 0.375-0.317 0.284-0.509 0.593-0.431 0.683 0.077 0.085 0.405-0.076 0.721-0.36 0.317-0.284 0.507-0.591 0.427-0.677-0.019-0.021-0.053-0.027-0.1-0.020zM8.473 17.796c-0.453 0.047-1.147 0.492-1.768 1.177-0.828 0.915-1.219 1.916-0.869 2.229 0.348 0.316 1.304-0.167 2.135-1.080 0.828-0.919 1.216-1.916 0.867-2.232-0.087-0.079-0.213-0.109-0.364-0.095zM18.94 17.919c-0.159 0-0.368 0.024-0.595 0.076-0.457 0.103-0.809 0.269-0.787 0.375 0.023 0.103 0.413 0.103 0.869 0 0.453-0.103 0.809-0.269 0.784-0.373-0.011-0.049-0.116-0.076-0.272-0.077zM10.767 18.143c-0.004-0-0.010-0.001-0.015-0.001-0.044 0-0.085 0.014-0.118 0.038l0.001-0c-0.28 0.217 0.191 1.304 1.057 2.427 0.863 1.121 1.795 1.857 2.076 1.64 0.28-0.213-0.197-1.303-1.060-2.424-0.756-0.983-1.563-1.668-1.941-1.68zM16.843 18.2c-0.356-0.040-1.124 0.48-1.849 1.28-0.827 0.913-1.288 1.848-1.023 2.084 0.261 0.24 1.148-0.309 1.976-1.223 0.828-0.915 1.285-1.847 1.024-2.087-0.034-0.030-0.079-0.050-0.127-0.055l-0.001-0zM9.372 18.377c-0.515 0.109-0.64 1.6-0.273 3.323 0.364 1.723 1.087 3.033 1.6 2.924 0.516-0.108 0.641-1.6 0.277-3.32-0.368-1.723-1.087-3.039-1.604-2.927zM29.969 21.656c-0.173-0.073-0.64 0.628-1.040 1.565-0.396 0.94-0.576 1.764-0.4 1.837 0.173 0.075 0.64-0.627 1.036-1.564 0.396-0.94 0.577-1.765 0.404-1.839zM17.299 22.205c-0.093 0.041-0.032 0.413 0.14 0.828 0.176 0.416 0.397 0.723 0.489 0.685 0.096-0.041 0.036-0.413-0.14-0.828-0.173-0.416-0.393-0.724-0.489-0.685zM16.499 22.88c-0.047-0.007-0.083 0-0.104 0.023-0.080 0.093 0.116 0.396 0.432 0.68 0.317 0.284 0.641 0.44 0.721 0.352 0.080-0.089-0.111-0.396-0.427-0.68-0.237-0.211-0.48-0.355-0.623-0.375zM16.2 23.788c-0.157 0-0.26 0.025-0.271 0.076-0.023 0.105 0.327 0.272 0.78 0.377 0.457 0.103 0.848 0.103 0.871 0 0.021-0.103-0.328-0.272-0.781-0.375-0.178-0.045-0.384-0.073-0.595-0.079l-0.004-0zM18.027 24.068c-0.347 0-0.635 1-0.635 2.233s0.287 2.235 0.636 2.235c0.347 0 0.637-1 0.637-2.235s-0.289-2.235-0.639-2.233zM11.127 24.512c-0.067 0.002-0.128 0.024-0.178 0.061l0.001-0.001c-0.392 0.288 0.053 1.56 0.992 2.84 0.937 1.283 2.019 2.085 2.409 1.8 0.393-0.287-0.047-1.561-0.987-2.84-0.823-1.123-1.753-1.88-2.237-1.86zM28.487 25.208c-0.14-0.125-0.801 0.396-1.473 1.164-0.671 0.767-1.099 1.492-0.957 1.617 0.144 0.124 0.804-0.397 1.476-1.164 0.672-0.768 1.1-1.493 0.955-1.617zM13.801 25.799c-0.151-0.007-0.259 0.025-0.307 0.099-0.192 0.297 0.613 1.167 1.804 1.937 1.187 0.773 2.307 1.163 2.5 0.865 0.195-0.297-0.613-1.169-1.8-1.943-0.889-0.579-1.744-0.939-2.197-0.959zM11.64 27.268c-0.355 0-0.64 1-0.64 2.233 0 1.235 0.285 2.235 0.64 2.235s0.643-1 0.643-2.235c0-1.233-0.288-2.233-0.643-2.233zM6.781 27.348c-0.096 0.041-0.035 0.417 0.137 0.833 0.176 0.416 0.396 0.719 0.493 0.68 0.099-0.041 0.033-0.416-0.139-0.831-0.173-0.416-0.393-0.72-0.492-0.683zM25.843 27.984c-0.491-0.053-1.503 0.169-2.613 0.604-1.476 0.579-2.572 1.312-2.444 1.637 0.128 0.323 1.432 0.124 2.908-0.456 1.48-0.579 2.576-1.313 2.448-1.64-0.032-0.080-0.136-0.128-0.299-0.145zM5.979 28.023c-0.047-0.007-0.081 0-0.101 0.024-0.083 0.089 0.109 0.397 0.429 0.681 0.32 0.288 0.644 0.444 0.727 0.355 0.080-0.093-0.112-0.397-0.432-0.685-0.24-0.213-0.483-0.356-0.623-0.375zM5.681 28.936c-0.157 0-0.261 0.025-0.273 0.076-0.021 0.107 0.331 0.272 0.784 0.377 0.457 0.103 0.848 0.103 0.871 0 0.021-0.103-0.331-0.272-0.784-0.375-0.178-0.045-0.383-0.073-0.594-0.079l-0.003-0zM7.401 28.999c-0.152-0.007-0.259 0.025-0.308 0.1-0.192 0.297 0.615 1.167 1.804 1.937 1.187 0.773 2.308 1.161 2.5 0.864 0.196-0.297-0.613-1.169-1.8-1.943-0.888-0.577-1.743-0.939-2.196-0.959zM16.239 29.119c-1.153-0.048-1.991 0.108-2.036 0.427-0.061 0.423 1.307 0.973 3.052 1.227 1.748 0.253 3.22 0.116 3.28-0.309 0.061-0.423-1.307-0.973-3.056-1.227-0.353-0.055-0.78-0.097-1.214-0.116l-0.026-0.001z"></path>
</svg>
