<!-- Generated by IcoMoon.io -->
<svg version="1.1" xmlns="http://www.w3.org/2000/svg" width="32" height="32" viewBox="0 0 32 32">
<title>foursquare</title>
<path fill="#f94877" d="M23.636 4.62l-0.713 3.732c-0.085 0.404-0.593 0.831-1.068 0.831h-6.641c-0.749 0-1.284 0.521-1.284 1.26v0.819c0 0.759 0.54 1.28 1.288 1.28h5.64c0.527 0 1.047 0.581 0.929 1.14l-0.713 3.68c-0.068 0.32-0.419 0.84-1.047 0.84h-4.609c-0.84 0-1.091 0.121-1.652 0.801-0.56 0.699-5.608 6.759-5.608 6.759-0.049 0.060-0.099 0.039-0.099-0.020v-21.181c0-0.479 0.415-1.040 1.035-1.040h13.699c0.5 0 0.973 0.475 0.844 1.095zM24.237 19.26c0.193-0.771 2.328-11.712 3.041-15.18zM24.648 0h-17.071c-2.353 0-3.044 1.771-3.044 2.885v27.12c0 1.253 0.672 1.721 1.052 1.873 0.379 0.156 1.425 0.285 2.055-0.437 0 0 8.059-9.352 8.195-9.489 0.22-0.209 0.22-0.209 0.42-0.209h5.219c2.2 0 2.541-1.56 2.781-2.48 0.2-0.759 2.339-11.699 3.039-15.18 0.54-2.643-0.14-4.083-2.64-4.083z"></path>
</svg>
