<!-- Generated by IcoMoon.io -->
<svg version="1.1" xmlns="http://www.w3.org/2000/svg" width="32" height="32" viewBox="0 0 32 32">
<title>freecodecamp</title>
<path fill="#006400" d="M31.956 16.423c0 3.333-1.139 6.291-3.464 8.908-0.847 0.972-1.524 1.435-1.984 1.435-0.161 0-0.341-0.044-0.461-0.167-0.123-0.128-0.2-0.297-0.2-0.467 0-0.251 0.3-0.633 0.899-1.185 2.419-2.315 3.636-5.193 3.636-8.608 0-3.795-1.257-6.869-3.755-9.248-0.499-0.456-0.76-0.836-0.76-1.136 0-0.16 0.081-0.341 0.219-0.46 0.14-0.12 0.3-0.199 0.461-0.199 0.557 0 1.399 0.679 2.456 2.036 1.997 2.537 2.997 5.593 2.997 9.128zM0 15.576c0-3.332 1.139-6.292 3.464-8.908 0.847-0.972 1.524-1.435 1.987-1.435 0.159 0 0.339 0.044 0.459 0.167 0.12 0.127 0.2 0.252 0.2 0.419 0 0.251-0.3 0.636-0.899 1.224-2.375 2.325-3.615 5.193-3.615 8.616 0 3.796 1.268 6.877 3.761 9.247 0.507 0.459 0.759 0.844 0.759 1.139 0 0.169-0.081 0.341-0.213 0.464-0.132 0.125-0.3 0.213-0.469 0.213-0.581 0-1.377-0.68-2.437-2.024-2.017-2.492-2.996-5.533-2.996-9.121zM23.599 24.735h-14.645c-0.467 0-0.891-0.383-0.891-0.888 0-0.511 0.38-0.891 0.891-0.891h14.645c0.464 0 0.891 0.38 0.891 0.891-0.008 0.513-0.383 0.888-0.891 0.888zM15.599 12.843c0.263-0.033 0.459 0.82 0.481 0.999 0.061 0.471-0.095 0.924-0.308 1.337-0.796 1.553-2.637 2.805-2.149 4.767 0.221 0.847 0.659 1.435 2.019 2.159-0.46 0.159-1.099-0.148-1.459-0.401-1.599-1.088-2.617-2.875-2.517-4.825 0.040-0.619 0.16-1.227 0.319-1.824 0.5-1.708 1.519-3.201 2.117-4.863 0.3-0.799 0.52-1.765 0.281-2.604-0.12-0.412-0.34-0.799-0.62-1.132-0.081-0.101-0.539-0.62-0.719-0.56 0.8-0.3 1.519-0.021 2.216 0.399 0.539 0.32 0.96 0.78 1.279 1.3 0.599 0.959 0.839 2.056 0.959 3.175 0.041 0.46-0.020 1.579 0.52 1.8 0.559 0.239 0.999-0.7 1.119-1.080 0.26-0.86-0.080-1.679-0.419-2.477 0.081 0.161 0.38 0.34 0.519 0.461l0.48 0.459c0.58 0.599 0.939 1.339 1.179 2.139 0.219 0.719 0.32 1.457 0.36 2.177 0.099 1.497-0.24 3.037-0.839 4.415-0.26 0.617-0.599 1.197-1.039 1.697-0.425 0.497-0.997 0.817-1.457 1.276 1.077-1.079 1.651-2.836 1.497-4.175-0.080-0.737-0.319-1.417-0.879-2.096 0 0 0.060 0.477 0.116 0.777 0.1 0.66-0.34 1.36-0.859 1.279-0.38-0.039-0.181-0.857-0.14-1.117 0.14-0.779-0.040-1.539-0.325-2.257-0.279-0.679-0.8-1.219-1.597-1.097z"></path>
</svg>
