<!-- Generated by IcoMoon.io -->
<svg version="1.1" xmlns="http://www.w3.org/2000/svg" width="32" height="32" viewBox="0 0 32 32">
<title>fujitsu</title>
<path fill="#f00" d="M22.080 4c-3.213 0-6.027 1.653-7.84 3.96v5.053c2.427-6.733 7.84-6.24 7.84-6.24 3.92 0 7.040 3.067 7.040 6.827 0 3.787-3.12 6.84-7.040 6.84-0.007 0-0.015 0-0.023 0-1.92 0-3.662-0.763-4.939-2.002l0.002 0.002-3.413-3.733c-1.453-1.411-3.438-2.28-5.626-2.28-0.014 0-0.029 0-0.043 0h0.002c-4.44 0-8.040 3.48-8.040 7.787 0 4.32 3.6 7.787 8.040 7.787 2.493 0 4.733-1.080 6.2-2.813v-4.040c-2.4 4.573-6.2 4.080-6.2 4.080-2.84 0-5.147-2.24-5.147-5.013 0-2.747 2.307-4.987 5.147-4.987 1.413 0 2.693 0.56 3.627 1.44l3.413 3.747c1.799 1.749 4.257 2.827 6.967 2.827 0.011 0 0.023-0 0.034-0h-0.002c5.48 0 9.92-4.32 9.92-9.64s-4.44-9.6-9.92-9.6z"></path>
</svg>
