<!-- Generated by IcoMoon.io -->
<svg version="1.1" xmlns="http://www.w3.org/2000/svg" width="32" height="32" viewBox="0 0 32 32">
<title>fujifilm</title>
<path fill="#ed1a3a" d="M0.645 13.337c-0.644 0-0.645 0.317-0.645 0.711v4.439h1.048c0.22 0.004 0.32-0.076 0.324-0.276v-2.075h1.925c0.045 0 0.073-0.024 0.073-0.069v-0.52h-1.997v-1.307c0-0.231 0.115-0.34 0.344-0.34h1.696c0.049 0 0.065-0.032 0.065-0.067v-0.496zM11.308 13.337c-0.148 0-0.263 0.069-0.263 0.28v3.539c0 0.503-0.191 0.843-0.764 0.924-0.387 0.055-0.904 0.040-1.129 0.032v0.432c0 0.040 0.019 0.069 0.065 0.080 0.033 0.008 0.277 0.039 0.827 0.039 0.963 0 1.405-0.208 1.66-0.389 0.487-0.351 0.66-0.767 0.66-1.589v-3.347zM4.468 13.337c-0.197 0-0.259 0.093-0.259 0.265v3.544c0 0.717 0.347 1.155 1.085 1.377 0.617 0.187 1.613 0.183 2.268 0.004 0.493-0.133 1.049-0.497 1.049-1.383v-3.808h-1.027c-0.229 0-0.292 0.097-0.292 0.261v3.664c0 0.392-0.084 0.591-0.305 0.715-0.323 0.18-0.86 0.177-1.177-0.005-0.236-0.137-0.284-0.373-0.284-0.711v-3.924zM16.879 13.337c-0.644 0-0.644 0.319-0.644 0.711v1.327c0 0.027-0.013 0.039-0.024 0.051l-0.903 0.711h0.927v2.351h1.048c0.219 0.004 0.32-0.076 0.323-0.276v-2.075h1.925c0.045 0 0.073-0.024 0.073-0.069v-0.52h-1.999v-1.307c0-0.231 0.116-0.34 0.344-0.34h1.699c0.048 0 0.067-0.032 0.067-0.067v-0.496zM21.813 13.337h-1.024c-0.233 0-0.296 0.109-0.296 0.271v4.88h1.044c0.184 0 0.276-0.056 0.276-0.272zM24.376 13.337h-1.013c-0.231-0.004-0.305 0.088-0.305 0.284v4.144c0 0.344 0.101 0.721 0.788 0.721h2.224c0.059 0 0.087-0.036 0.087-0.088v-0.468h-1.373c-0.273-0.013-0.407-0.153-0.407-0.424zM32 13.337h-1.525c-0.26 0-0.408 0.123-0.467 0.355l-0.84 3.551h-0.024l-0.867-3.904h-1.187c-0.229 0-0.301 0.117-0.301 0.299v4.849h0.501c0.080 0 0.115-0.040 0.115-0.123v-4.065h0.079l1.072 4.188h0.703c0.265 0 0.364-0.108 0.429-0.371l0.963-3.817h0.077v4.188h0.937c0.229 0 0.335-0.089 0.335-0.316zM13.856 13.339c-0.231 0-0.293 0.112-0.293 0.273v2.493l1.24-0.973c0.048-0.037 0.075-0.067 0.077-0.147v-1.647zM13.563 16.136v2.351h1.041c0.184 0 0.277-0.053 0.277-0.271v-2.080z"></path>
</svg>
