<!-- Generated by IcoMoon.io -->
<svg version="1.1" xmlns="http://www.w3.org/2000/svg" width="32" height="32" viewBox="0 0 32 32">
<title>furaffinity</title>
<path fill="#faaf3a" d="M22.428 6.844l-0.347 2.656 3.247 0.956 0.041 2.869 2.975 0.055-0.075 3.007 2.895-0.188c0.004-1.012 0.067-6.727 0.835-9.355zM15.141 24.32c0.075-0.284 0-1.208 0-1.528l-0.065-1.951c-2.695-0.113-5.6 0.429-5.6 2.916 0 0.537 0.225 1.024 0.568 1.399h4.416c0.331-0.189 0.579-0.447 0.681-0.836zM27.185 17.421l0.069-2.996-2.936-0.053-0.047-3.233-3.369-1.148 0.451-3.147h-12.573c-5.091 0-8.78 4.336-8.78 9.089v9.221h5.488c-0.023-0.216-0.036-0.467-0.036-0.721 0-0.1 0.002-0.2 0.006-0.299l-0 0.014c0.197-4.887 5.599-5.725 9.655-5.605v-1.408c-0.067-1.136-0.987-2.14-3.653-2.14-1.777 0-3.887 0.228-5.252 0.721l0.363-3.179c1.304-0.369 2.773-0.727 5.937-0.727 6.096 0 6.769 2.705 6.72 5.844l-0.028 7.499h3.433c4.404 0 8.028-3.589 8.483-7.887z"></path>
</svg>
