<!-- Generated by IcoMoon.io -->
<svg version="1.1" xmlns="http://www.w3.org/2000/svg" width="32" height="32" viewBox="0 0 32 32">
<title>furrynetwork</title>
<path fill="#2e75b4" d="M21.213 0c-4.16 0-8.293 0-12.413 0.040 0 0.067-0.080 0.067-0.12 0.107-1.917 0.818-3.543 1.978-4.871 3.417l-0.009 0.010c-1.12 1.16-2.027 2.533-2.747 4-0.267 0.507-0.507 1.053-0.733 1.6-0.027 0.107-0.067 0.267-0.173 0.333v8.293c0.067 0.107 0.067 0.267 0.107 0.4 0.75 2.679 2.367 4.906 4.523 6.415l0.037 0.025c0.040 0.040 0.067 0.12 0.147 0.080-0.040-0.040-0.040-0.080-0.080-0.107-0.32-0.48-0.613-0.92-0.893-1.387-1.105-1.794-1.76-3.967-1.76-6.293 0-0.399 0.019-0.794 0.057-1.183l-0.004 0.049c0.279-2.284 1.092-4.335 2.309-6.084l-0.029 0.044c1.437-2.102 3.036-3.93 4.827-5.55l0.026-0.024c1.249-1.133 2.681-2.097 4.241-2.835l0.106-0.045c1.444-0.682 3.137-1.080 4.923-1.080 0.341 0 0.68 0.015 1.014 0.043l-0.044-0.003c0.933 0.080 1.853 0.227 2.76 0.36l0.253 0.040c0.107 0.040 0.173 0.040 0.28 0.040-0.507-0.213-1.013-0.44-1.52-0.587-0.067-0.027-0.133-0.027-0.213-0.12zM19 0.88c-0.573 0.027-1.12 0.067-1.693 0.173-0.987 0.187-1.92 0.48-2.867 0.773-0.736 0.232-1.372 0.512-1.969 0.852l0.049-0.026c-0.027 0-0.107 0-0.107 0.080h0.067c1.153-0.201 2.551-0.358 3.97-0.436l0.096-0.004c0.68-0.040 1.413 0 2.093 0.107 1.013 0.147 1.96 0.52 2.827 1.027 2.548 1.463 4.562 3.606 5.829 6.182l0.038 0.085c1.008 2.116 1.668 4.581 1.837 7.18l0.003 0.060c0.080 0.867 0.080 1.787 0.040 2.693l-0.107 1.52c-0.040 0.44-0.107 0.88-0.187 1.32-0.077 0.586-0.203 1.113-0.377 1.617l0.017-0.057c-0.565 1.39-1.26 2.59-2.094 3.677l0.027-0.037c-0.653 0.88-1.4 1.68-2.133 2.48-0.107 0.107-0.173 0.173-0.253 0.293 0.080 0 0.080-0.040 0.107-0.040 1.168-0.681 2.175-1.39 3.116-2.176l-0.036 0.029c1.873-1.562 3.333-3.557 4.232-5.835l0.034-0.098 0.227-0.547h0.040v7.827c0 0.027 0-12.227 0.027-20 0 0.027 0 0.067-0.027 0.093l-0.040-0.12c-0.534-1.391-1.218-2.593-2.051-3.673l0.025 0.033c-1.12-1.445-2.506-2.627-4.092-3.486l-0.068-0.034c-1.778-0.971-3.894-1.541-6.143-1.541-0.161 0-0.321 0.003-0.48 0.009l0.023-0.001zM31.84 9.6l0.013-0.027v-7.24zM14.507 5.16c-0.533-0.053-1.067 0.12-1.587 0.56-0.359 0.323-0.641 0.725-0.819 1.179l-0.007 0.021c-0.44 1.067-0.507 2.107-0.293 3.2 0.147 0.84 0.533 1.573 1.227 2.107 0.693 0.587 1.493 0.667 2.213 0.267 0.44-0.267 0.76-0.587 1.013-1.027 0.44-0.76 0.613-1.6 0.613-2.467 0-0.4-0.027-0.773-0.107-1.173-0.104-0.719-0.399-1.355-0.831-1.873l0.005 0.006c-0.351-0.424-0.849-0.717-1.415-0.799l-0.012-0.001zM21.333 6.867c-0.919 0.035-1.733 0.455-2.29 1.103l-0.003 0.004c-0.4 0.36-0.613 0.84-0.867 1.307-0.319 0.566-0.507 1.243-0.507 1.964 0 0.027 0 0.054 0.001 0.080l-0-0.004c0 0.507 0.067 0.987 0.28 1.467 0.373 0.867 1.067 1.333 1.92 1.333 0.627 0 1.133-0.213 1.6-0.573 1.083-0.804 1.825-2.015 1.998-3.402l0.002-0.024c0.067-0.613 0-1.24-0.227-1.867-0.213-0.533-0.533-1-1.093-1.227-0.24-0.101-0.52-0.16-0.813-0.16-0 0-0 0-0 0v0zM8.507 10.080c-0.587 0.040-1.12 0.267-1.48 0.8-0.48 0.667-0.627 1.427-0.667 2.187-0.027 0.8 0.16 1.533 0.52 2.227 0.293 0.573 0.68 1.093 1.227 1.467 0.693 0.453 1.56 0.453 2.173 0.027 0.36-0.267 0.613-0.627 0.8-1.027 0.36-0.84 0.427-1.733 0.213-2.653-0.193-0.995-0.699-1.848-1.409-2.476l-0.005-0.004c-0.4-0.32-0.827-0.533-1.373-0.547zM24.32 13.6c-0.025-0.001-0.055-0.001-0.085-0.001-0.407 0-0.791 0.099-1.129 0.275l0.014-0.006c-1.119 0.529-1.977 1.456-2.403 2.594l-0.011 0.032c-0.162 0.374-0.257 0.809-0.257 1.267 0 0.299 0.040 0.588 0.116 0.862l-0.005-0.023c0.187 0.667 0.533 1.133 1.2 1.32 0.253 0.067 0.533 0.107 0.8 0.107 0.427 0 0.72-0.040 1.067-0.227 0.707-0.32 1.24-0.8 1.707-1.373 0.571-0.67 0.919-1.546 0.919-2.502 0-0.275-0.029-0.544-0.083-0.803l0.004 0.025c-0.101-0.768-0.691-1.372-1.443-1.492l-0.010-0.001c-0.116-0.027-0.254-0.046-0.394-0.053l-0.006-0zM14.84 15.8c-0.107 0-0.293 0-0.467 0.040-0.736 0.032-1.42 0.225-2.026 0.546l0.026-0.013c-0.8 0.453-1.467 1.027-2.093 1.68-0.688 0.717-1.301 1.517-1.819 2.379l-0.034 0.061c-0.28 0.507-0.467 1.067-0.427 1.64 0.040 0.333 0.040 0.627 0.187 0.907 0.4 0.52 0.933 0.88 1.587 1.027 0.613 0.107 1.227 0.040 1.84-0.040 0.693-0.067 1.333-0.133 2-0.107 1.040 0.067 2 0.4 2.827 1.053 0.32 0.267 0.613 0.547 0.973 0.8 0.68 0.48 1.413 0.693 2.24 0.507 0.693-0.133 1.16-0.573 1.307-1.267 0.133-0.587 0.107-1.133 0.027-1.72-0.125-0.766-0.297-1.439-0.52-2.089l0.026 0.089c-0.35-1.149-0.803-2.147-1.366-3.072l0.033 0.059c-0.4-0.667-0.88-1.24-1.533-1.68-0.757-0.502-1.687-0.801-2.687-0.801-0.035 0-0.070 0-0.105 0.001l0.005-0zM0.147 19.52v2.84c0.133 0.173 0.213 0.4 0.293 0.613 0.756 2.148 1.849 4.001 3.231 5.594l-0.018-0.021c1.373 1.502 3.086 2.67 5.018 3.385l0.089 0.029c0.040 0 0.067 0.040 0.107 0.040h10.68c0.040-0.040 0.040-0.040 0.067-0.040 1.012-0.316 1.891-0.723 2.702-1.228l-0.049 0.028c2.46-1.558 4.403-3.732 5.641-6.309l0.039-0.091c0.573-1.347 0.867-2.773 0.933-4.267 0.016-0.048 0.025-0.103 0.025-0.16s-0.009-0.112-0.026-0.164l0.001 0.004c-0.027 0.027-0.067 0.067-0.067 0.107l-0.293 0.933c-0.53 1.662-1.385 3.090-2.499 4.272l0.005-0.006c-1.046 1.085-2.312 1.949-3.728 2.521l-0.072 0.026c-1.267 0.52-2.6 0.733-3.987 0.8-1.013 0.040-1.987 0-2.96-0.067-1.553-0.121-2.966-0.329-4.346-0.625l0.213 0.038c-1.892-0.427-3.561-1.052-5.113-1.867l0.113 0.054c-1.749-0.929-3.215-2.165-4.378-3.65l-0.022-0.030c-0.65-0.79-1.19-1.702-1.577-2.692l-0.023-0.068z"></path>
</svg>
