<!-- Generated by IcoMoon.io -->
<svg version="1.1" xmlns="http://www.w3.org/2000/svg" width="32" height="32" viewBox="0 0 32 32">
<title>gauges</title>
<path fill="#2fa66a" d="M16.8 16.847l-1.5-0.071c-1.26-0.044-1.596-0.111-1.596-0.58 0-0.18 0.133-0.424 0.404-0.56 0.223 0.048 0.449 0.071 0.676 0.071 3.22 0 4.84-1.56 4.84-3.973 0-0.4-0.099-0.76-0.3-0.98h1.28v-2.68h-3.804c-0.629-0.153-1.189-0.267-1.953-0.267-3.391 0-5.072 1.965-5.072 4.24 0 1.427 0.675 2.453 1.68 2.989-0.779 0.312-1.363 1.16-1.363 2.053 0 0.781 0.429 1.405 1.080 1.716-0.853 0.448-1.62 1.54-1.62 2.587 0 2.213 1.8 3.301 4.853 3.301 3.831 0 6.26-2.139 6.26-4.547h-0.024c0-2.232-1.437-3.213-3.841-3.3zM14.851 10.473c1.193 0 1.789 0.64 1.789 1.591 0 0.947-0.667 1.52-1.767 1.52-1.191 0-1.789-0.593-1.789-1.564 0-0.907 0.644-1.547 1.767-1.547zM17.528 20.545c0 0.84-0.816 1.484-2.427 1.484-1.259 0-2-0.54-2-1.336 0-0.471 0.301-0.944 0.8-1.329 0.12 0.020 0.301 0 0.44 0.020l1.8 0.043c1.061 0.044 1.44 0.517 1.44 1.12zM23.516 14.472v0.003c-1.32 0-2.432 1.112-2.432 2.46 0 1.347 1.112 2.431 2.432 2.431 1.347 0 2.461-1.085 2.461-2.432s-1.116-2.461-2.461-2.461zM16 0c-8.836 0-16 7.164-16 16s7.164 16 16 16 16-7.164 16-16-7.164-16-16-16zM16 29.78c-7.609 0-13.78-6.169-13.78-13.78 0-7.609 6.171-13.78 13.78-13.78 7.611 0 13.78 6.171 13.78 13.78 0 7.611-6.169 13.78-13.78 13.78z"></path>
</svg>
