<!-- Generated by IcoMoon.io -->
<svg version="1.1" xmlns="http://www.w3.org/2000/svg" width="32" height="32" viewBox="0 0 32 32">
<title>genius</title>
<path fill="#ffff64" d="M17.196 1.647c-0.48 0.001-0.963 0.017-1.44 0.023-0.291-0.037-0.495 0.3-0.469 0.555-0.047 1.349 0.031 2.7-0.021 4.048-0.049 1.121-0.74 2.128-1.632 2.773-0.667 0.46-1.491 0.58-2.228 0.884 0.161 1.040 0.579 2.075 1.409 2.76 1.585 1.404 4.299 1.147 5.56-0.568 1.26-1.428 0.604-3.431 0.804-5.139 0.381-0.64 1.249-0.176 1.756-0.653-0.453-1.665-1.080-3.372-2.3-4.629-0.38-0.035-0.822-0.054-1.268-0.054-0.060 0-0.12 0-0.18 0.001l0.009-0zM3.303 1.655c-2.596 2.335-3.817 6.075-3.097 9.493 0.512 2.736 2.243 5.191 4.6 6.663 0.179-0.307 0.307-0.635 0.12-0.973-1.267-3.752-0.184-8.159 2.648-10.92 0.019-1.315 0.057-2.635-0.004-3.948l-0.251-0.285c-1.337-0.068-2.677 0-4.016-0.029zM27.143 1.728l-0.273 0.475c0.353 1.251 0.8 2.483 0.96 3.779 0.773 4.728-0.536 9.751-3.485 13.52-2.421 3.137-5.921 5.432-9.779 6.364-3.547 0.88-7.352 0.6-10.752-0.724-0.091 0.105-0.276 0.316-0.367 0.424 3.552 3.505 8.724 5.292 13.679 4.664 4.1-0.436 7.993-2.487 10.697-5.593 2.58-2.916 4.111-6.76 4.167-10.656 0.163-4.512-1.609-9.092-4.847-12.252z"></path>
</svg>
