<!-- Generated by IcoMoon.io -->
<svg version="1.1" xmlns="http://www.w3.org/2000/svg" width="32" height="32" viewBox="0 0 32 32">
<title>gentoo</title>
<path fill="#54487a" d="M13.275 0.129c-0.591 0.003-1.167 0.059-1.726 0.163l0.060-0.009c-5.745 1.051-9.788 6.024-10.132 9.299-0.167 1.607 0.7 2.811 1.177 3.341 1.292 1.435 3.867 2.531 5.521 3.44-2.393 2.040-3.491 3.036-4.572 4.171-1.619 1.699-2.756 3.568-2.76 4.907 0 0.431-0.071 1.807 0.491 2.893 0.211 0.408 0.811 1.769 2.619 2.789 1.156 0.653 2.803 0.893 4.413 0.663 4.989-0.712 11.671-4.943 16.437-8.883 3.039-2.512 5.26-4.945 5.901-6.143 0.517-0.967 0.575-2.701 0.275-3.791-0.853-3.091-7.787-9.423-13.455-11.971-1.223-0.55-2.65-0.87-4.153-0.87-0.034 0-0.068 0-0.102 0.001l0.005-0zM13.265 0.219c0.034-0 0.074-0.001 0.114-0.001 1.569 0 3.051 0.369 4.365 1.025l-0.057-0.026c4.577 2.249 12.311 8.573 12.881 11.752 0.707 3.931-13.136 14.572-21.556 16.232-3.267 0.641-6.052 0.817-7.323-2.633-1.101-2.991 1.035-5.179 4.18-8.053 1.307-1.193 2.347-2.085 3.913-3.408 0.087-0.091-7.547-2.723-7.789-5.744-0.252-3.105 4.665-8.837 10.96-9.133 0.104-0.005 0.207-0.009 0.311-0.011zM13.117 0.907c-0.242 0.004-0.474 0.019-0.703 0.044l0.034-0.003c-3.092 0.325-3.684 0.724-6.485 2.843-0.939 0.711-2.667 2.439-3.108 4.488-0.169 0.781 0.031 1.455 0.592 1.928 1.8 1.513 4.813 2.741 7.287 3.929 0.724 0.347 0.245 0.977-0.923 1.989-2.947 2.551-6.931 5.656-7.209 8.023-0.131 1.115 0.251 2.629 1.604 3.405 1.581 0.905 4.863 0.315 7.055-0.501 3.203-1.193 7.409-3.825 10.749-6.412 3.472-2.691 6.701-6.107 6.861-6.664 0.196-0.684 0.176-1.317-0.203-2.044-0.593-1.14-1.388-1.988-2.241-2.937-2.291-2.413-4.712-4.535-7.611-6.16-1.897-1.064-3.587-1.96-5.699-1.928zM14.539 5.699c0.723 0 1.556 0.228 2.451 0.661 2.233 1.080 4.527 3.916-0.020 5.548-1.236 0.444-5.159-1.091-5.039-3.184 0.119-2.077 1.129-3.027 2.608-3.025zM14.916 7.507c-0.42-0.003-0.761 0.104-0.919 0.347-0.736 1.14-0.4 1.948 0.281 2.464 0.253-0.605 2.851 0.056 2.84 0.624 0.027-0.013 0.053-0.027 0.073-0.043 2.253-1.696-0.624-3.381-2.276-3.392z"></path>
</svg>
