<!-- Generated by IcoMoon.io -->
<svg version="1.1" xmlns="http://www.w3.org/2000/svg" width="32" height="32" viewBox="0 0 32 32">
<title>geocaching</title>
<path fill="#00874d" d="M17.653 0.004v3.096c1.72 0.213 3.917 0.829 5.969 2.393l-1.581 2.144-0.021-0.020c0 0-1.639-1.401-4.36-1.84v8.559h8.44c-0.16-1.219-0.581-2.68-1.539-4.159l2.26-1.5c0 0 1.68 2.28 2.040 5.659h3.139v-14.336h-14.347zM23.433 30.941l-0.8 0.129-1.741-10.727 0.465-0.075 8.74-0.020-7.54 5.419 0.841 5.272zM17.651 17.652v14.348h14.344v-14.345l-14.344-0.005zM8.607 26.656l1.579-2.14h0.025c0 0 1.551 1.316 4.137 1.789v-8.655h-8.228c0.145 1.244 0.56 2.768 1.565 4.313l-2.245 1.492c0 0-1.728-2.348-2.039-5.807h-3.401v14.347h14.347v-2.975c-1.685-0.239-3.78-0.863-5.74-2.36zM6.636 2.624c-0.225 0-0.412 0.14-0.412 0.312s0.185 0.309 0.412 0.309 0.411-0.139 0.413-0.309c-0.001-0.172-0.188-0.312-0.413-0.312zM6.675 3.48c-0.669 0-1.208-0.54-1.208-1.2s0.539-1.195 1.208-1.195c0.667 0 1.207 0.539 1.207 1.199s-0.54 1.196-1.199 1.196zM4.893 3.56l-1.383 0.699c-0.125-0.151-0.22-0.273-0.32-0.412l-1.747 0.652-0.368-0.579 4.316-0.893-0.825 0.308c0.105 0.080 0.195 0.145 0.325 0.228zM2.235 1.020c0.504 0.767 1.099 1.396 1.867 1.976l-1.34 0.24c-0.501-0.716-0.941-1.412-1.343-2.265l0.812 0.047zM0 0v14.345h3.209c-0.136-1.311-0.28-5.073 1.975-8.195 0 0-0.5-0.479-1.173-1.268l-1.471 1.259-0.636-0.54 3.825-2.18-0.451 0.381c0.539 0.32 1.080 0.56 1.62 0.74 0 0 1.86-1.040 3.699-3.54l0.44 0.021c-0.34 1.12-1.4 3.040-3.059 4.58 0 0 4.399 1.92 5.399 5.181-0.28-0.16-1.86-0.5-2.639-0.32-0.14-0.22-1.62-3.241-3.861-3.2 0 0-0.5 0.6-0.979 2.16-0.419 1.38-0.24 4.28-0.181 4.96h8.6v-14.385z"></path>
</svg>
