<!-- Generated by IcoMoon.io -->
<svg version="1.1" xmlns="http://www.w3.org/2000/svg" width="32" height="32" viewBox="0 0 32 32">
<title>glassdoor</title>
<path fill="#0caa41" d="M22.859 27.429h-18.285c0 2.524 2.044 4.571 4.568 4.571h13.715c2.524 0 4.571-2.047 4.571-4.571v-18.773c0-0.093-0.072-0.167-0.165-0.167h-4.24c-0.089 0-0.164 0.075-0.164 0.168zM22.859 0c2.523 0 4.569 2.047 4.569 4.573h-18.284v18.771c0 0.091-0.075 0.167-0.167 0.167h-4.239c-0.093 0-0.167-0.076-0.167-0.167v-18.773c0.001-2.523 2.045-4.571 4.569-4.571h13.716z"></path>
</svg>
