<!-- Generated by IcoMoon.io -->
<svg version="1.1" xmlns="http://www.w3.org/2000/svg" width="32" height="32" viewBox="0 0 32 32">
<title>glitch</title>
<path fill="#33f" d="M31.733 16.76c-0.387-0.2-4.533 1.867-5.427 1.693-2.24-0.4-1.827-0.667-4.84-1.36-1.2-0.267-1.027-0.107-1.293-0.307-0.173-0.133-0.347-0.16-0.6-0.4 4-0.72 6.027-1.693 6.733-1.84 0.76-0.147 5.16 1.96 5.427 1.467s-0.96-1.573-0.4-3.027c0.587-1.467-0.693-2.427 0.013-3.587 0.72-1.16 0.573-2.933 0.4-3.027-0.4-0.2-4.533 1.867-5.44 1.693-2.24-0.413-1.827-0.68-4.84-1.36-1.2-0.267-1.027-0.12-1.293-0.32s-0.52-0.133-1.040-0.973-6.507-2.133-6.907-2.133c-0.827 0-2.373 2.133-2.373 2.133s-0.6 0-2.4 0.093-3.373 0.893-5.493 2.56c-2.133 1.667-1.827 3.347-1.827 3.347s1.973 0.667 1.973 1.040c0 0.36-1.733 0.8-1.733 0.8 1.12 1.413 4.587 2.747 5.467 2.747h0.693c-1.44 0.28-2.827 1.067-4.587 2.44-2.12 1.693-1.813 3.373-1.813 3.373s1.973 0.667 1.973 1.027-1.733 0.8-1.733 0.8c1.12 1.427 4.587 2.76 5.467 2.76 0.84 0 1.427 0.027 2.493-0.173 0.080 0.173 0.907 1.933 2.6 2.293 1.787 0.387 2.773 0.080 2.773 0.080s0.093-0.787-0.32-1.573c1.547 0.16 3.307 0.2 5.027-0.067 4.76-0.72 7.12-1.867 7.893-2.013 0.76-0.16 5.16 1.947 5.427 1.467 0.267-0.507-0.96-1.587-0.387-3.040 0.573-1.467-0.707-2.413 0-3.587 0.72-1.16 0.573-2.933 0.387-3.027zM4.613 11.827c-0.105-0.002-0.206-0.016-0.302-0.042l0.009 0.002h-0.053c-0.047-0.022-0.073-0.035-0.099-0.049l0.019 0.009-0.053-0.013-0.080-0.040h-0.053c-0.026-0.014-0.048-0.027-0.069-0.042l0.003 0.002-0.067-0.053-0.067-0.040-0.053-0.040c-0.026-0.020-0.048-0.037-0.069-0.055l0.002 0.002-0.040-0.040c-0.022-0.024-0.044-0.050-0.064-0.077l-0.002-0.003-0.027-0.027c-0.030-0.032-0.060-0.067-0.090-0.102l-0.003-0.004-0.027-0.027c-0.015-0.026-0.033-0.061-0.049-0.097l-0.004-0.009-0.080-0.12c-0.011-0.030-0.020-0.052-0.029-0.073l0.003 0.007-0.027-0.080-0.027-0.053c-0.004-0.019-0.008-0.050-0.012-0.082l-0.001-0.011-0.013-0.067c-0.008-0.019-0.017-0.046-0.025-0.073l-0.002-0.007v-0.067c0.093 0.573 0.56 1.013 1.107 1.013 0.627 0 1.147-0.573 1.147-1.293s-0.507-1.307-1.147-1.307c-0.627 0-1.133 0.573-1.147 1.28 0-0.933 0.667-1.693 1.493-1.693s1.48 0.747 1.48 1.68-0.667 1.693-1.48 1.693zM3.613 10.56c0-0.2 0.133-0.36 0.32-0.36s0.307 0.16 0.307 0.36-0.133 0.347-0.307 0.347-0.32-0.16-0.32-0.347zM4.613 22.213c-0.022 0.001-0.048 0.002-0.073 0.002s-0.051-0.001-0.077-0.002l0.003 0-0.053-0.013c-0.037-0.004-0.069-0.009-0.101-0.015l0.007 0.001-0.053-0.013-0.080-0.027-0.053-0.027c-0.033-0.009-0.059-0.018-0.085-0.029l0.005 0.002-0.053-0.027c-0.027-0.015-0.049-0.028-0.070-0.042l0.004 0.002-0.053-0.027-0.067-0.053-0.053-0.040c-0.025-0.018-0.047-0.036-0.068-0.054l0.001 0.001-0.040-0.040c-0.033-0.030-0.063-0.060-0.092-0.092l-0.001-0.001c-0.030-0.035-0.060-0.074-0.089-0.114l-0.004-0.006-0.027-0.027c-0.015-0.024-0.033-0.054-0.049-0.085l-0.004-0.008-0.027-0.053c-0.015-0.020-0.032-0.046-0.049-0.073l-0.004-0.007-0.027-0.053-0.027-0.093-0.027-0.053c0.003 0.017-0.006-0.014-0.015-0.046l-0.012-0.048-0.013-0.053c-0.008-0.023-0.018-0.055-0.025-0.087l-0.001-0.007v-0.067c0.093 0.573 0.56 1.013 1.107 1.013 0.627 0 1.147-0.573 1.147-1.293s-0.507-1.293-1.147-1.293c-0.627 0-1.133 0.56-1.147 1.267 0-0.933 0.667-1.693 1.493-1.693s1.48 0.76 1.48 1.68-0.667 1.693-1.48 1.693zM3.613 20.947c0-0.187 0.133-0.347 0.32-0.347s0.307 0.16 0.307 0.347-0.133 0.347-0.307 0.347-0.32-0.147-0.32-0.347zM10.387 13.613v-0.040l0.040-0.080 0.080-0.293c0.138-0.408 0.303-1.002 0.446-1.604l0.034-0.17c0.16-0.707 0.227-1.28 0.2-1.6-0.015-0.142-0.033-0.265-0.058-0.386l0.004 0.026c-0.075-0.412-0.168-0.766-0.283-1.109l0.016 0.056c-0.101-0.299-0.187-0.52-0.28-0.737l0.027 0.070-0.080-0.173-0.027-0.067c-0.12-0.267 0.053-0.573 0.32-0.56h0.187l0.533 0.040 2.107 0.107 1.147 0.080c3.894 0.263 7.493 1.278 10.736 2.9l-0.163-0.074 0.893 0.4c0.173 0.080 0.267 0.307 0.187 0.507-0.067 0.187-0.267 0.293-0.44 0.213l-0.893-0.4c-3.017-1.522-6.543-2.522-10.273-2.782l-0.087-0.005-1.147-0.067-0.507-0.027-1.6-0.093h-0.16c0.164 0.425 0.32 0.947 0.439 1.483l0.014 0.077 0.067 0.427c0.040 0.453-0.040 1.080-0.227 1.88l-0.2 0.827c-0.168 0.644-0.301 1.084-0.443 1.52l0.057-0.2-0.027 0.080c-0.001 0.006-0.001 0.013-0.001 0.020s0 0.014 0.001 0.021l-0-0.001c-0.067 0.187-0.267 0.293-0.44 0.213-0.173-0.067-0.267-0.293-0.2-0.48zM8.387 7.267c0.056-0.063 0.138-0.103 0.229-0.103 0.103 0 0.194 0.051 0.25 0.129l0.001 0.001c0.195 0.242 0.38 0.512 0.544 0.796l0.016 0.030c0.293 0.533 0.493 1.067 0.547 1.613 0.027 0.307 0 0.653-0.053 1.027-0.074 0.431-0.166 0.803-0.283 1.165l0.016-0.059c-0.121 0.389-0.235 0.694-0.361 0.993l0.027-0.073c-0.080 0.187-0.28 0.267-0.453 0.173s-0.24-0.32-0.16-0.52l0.027-0.053 0.067-0.173c0.054-0.126 0.126-0.325 0.193-0.527l0.021-0.073c0.092-0.275 0.175-0.612 0.234-0.957l0.006-0.043c0.053-0.307 0.067-0.573 0.053-0.8-0.069-0.485-0.229-0.922-0.462-1.309l0.009 0.016c-0.144-0.255-0.289-0.473-0.449-0.679l0.009 0.012-0.040-0.040c-0.058-0.072-0.093-0.165-0.093-0.265 0-0.108 0.040-0.207 0.106-0.282l-0 0zM9.92 21.133c-0.072 0.439-0.164 0.821-0.283 1.192l0.016-0.058c-0.122 0.384-0.235 0.685-0.361 0.979l0.027-0.072c-0.080 0.187-0.28 0.267-0.453 0.173s-0.24-0.32-0.16-0.52l0.027-0.053 0.067-0.173c0.054-0.126 0.126-0.325 0.193-0.527l0.021-0.073c0.092-0.275 0.175-0.612 0.234-0.957l0.006-0.043c0.053-0.307 0.067-0.573 0.040-0.8-0.066-0.479-0.222-0.912-0.449-1.296l0.009 0.016c-0.144-0.255-0.289-0.473-0.449-0.679l0.009 0.012-0.040-0.053c-0.051-0.069-0.081-0.156-0.081-0.25 0-0.109 0.041-0.208 0.108-0.284l-0 0c0.057-0.066 0.14-0.108 0.233-0.108s0.177 0.042 0.233 0.107l0 0c0.196 0.245 0.381 0.52 0.544 0.809l0.016 0.031c0.293 0.533 0.493 1.080 0.547 1.613 0.027 0.307 0 0.653-0.053 1.013zM26.453 21.293c-0.067 0.187-0.267 0.293-0.44 0.213l-0.893-0.4c-3.017-1.522-6.543-2.522-10.273-2.782l-0.087-0.005-1.133-0.067h-0.067l-0.453-0.027c2.542 0.106 1.93 0.072 1.318 0.039l-3.078-0.133 0.040 0.080c0.216 0.551 0.385 1.195 0.475 1.863l0.005 0.044c0.040 0.453-0.040 1.080-0.227 1.88l-0.2 0.827c-0.168 0.648-0.3 1.094-0.443 1.534l0.056-0.201-0.027 0.067c-0.001 0.006-0.001 0.013-0.001 0.020s0 0.014 0.001 0.021l-0-0.001c-0.067 0.2-0.267 0.293-0.44 0.227-0.173-0.080-0.267-0.307-0.2-0.507v-0.027l0.040-0.080 0.080-0.293c0.138-0.408 0.303-1.002 0.446-1.604l0.034-0.17c0.16-0.707 0.227-1.28 0.2-1.6-0.015-0.142-0.033-0.265-0.058-0.386l0.004 0.026c-0.075-0.412-0.168-0.766-0.283-1.109l0.016 0.056c-0.102-0.294-0.188-0.51-0.28-0.722l0.027 0.069-0.053-0.12-0.053-0.133c-0.12-0.267 0.053-0.573 0.32-0.56h0.187l0.533 0.040 2.12 0.107 1.133 0.080c3.894 0.261 7.493 1.276 10.736 2.9l-0.162-0.074 0.893 0.4c0.173 0.080 0.267 0.307 0.187 0.507z"></path>
</svg>
