<!-- Generated by IcoMoon.io -->
<svg version="1.1" xmlns="http://www.w3.org/2000/svg" width="32" height="32" viewBox="0 0 32 32">
<title>gnuicecat</title>
<path fill="#002f5b" d="M13.915-0.073c-0.488 0.008-0.992 0.040-1.519 0.1-6.395 0.723-10.149 6.048-10.367 12.505-1.497 2.935-1.937 6.388-0.965 9.765 1.861 6.471 8.288 10.38 14.892 9.605l1.212-0.143c6.608 0.436 8.017-1.365 9.599-5.757 0.167-0.363 0.408-1.027 0.759-2.099 0.009-0.051 0.021-0.103 0.028-0.128 1.052-2.869 1.207-6.109 0.32-9.188-0.107-0.369-0.228-0.731-0.364-1.083-0.040-0.253-0.032-0.56 0.012-0.8 0.387-0.633 0.867-1.111 1.439-1.467l0.364-2.501c0.383-0.431 0.236-0.801 0.253-1.415 0.223-0.105 0.345-0.285 0.439-0.573 0.103-0.317 0.597-0.917 1.151-1.383 0.085-0.252 0.299-0.765 0.296-1.193-2.651 0.303-4.316 0.812-5.647-0.816l-0.711-0.277c-0.32-0.496-0.896-0.78-1.308-1.268l-0.467 1.617c-0.575-0.356-3.665-3.595-9.416-3.503zM14.103 0.988c3.46 0.049 6.631 1.796 8.295 3.047l-1.268 0.473-0.799-0.509-0.36 1.051v0.435l-0.979 2.356-0.107-0.036 0.505-2.103 0.763-2.027-0.256-0.217-1.123 1.229c-0.239 1.308-0.12 3.152-0.723 3.916 0.188-1.536 0.455-2.879 0.471-4.675l-0.652-0.217c-0.151 0.795-0.353 1.704-0.509 2.209l0.217-2.28-0.832 0.54v1.304l-0.217-0.723-0.075-1.304-0.288-0.039-0.217 0.833c0.037 0.363-0.020 0.724 0.288 1.087l0.075 2.755 0.179 0.328-0.324 1.557 0.036-1.521-0.107-0.107-0.219-2.684-0.364-1.451-0.58-0.36-0.217-0.616-0.616-0.039 1.379 4.931 0.107 1.483c-0.157-0.703-0.151-1.469-0.759-1.992 0.060-0.737-0.048-1.46-0.944-2.103l-1.304-2.679c-0.045-0.317-0.489-0.369-0.799-0.509-0.093 0.427-0.175 0.857 0.111 1.379 0.652 1.036 1.304 2.079 1.956 2.644l0.036 1.268c-0.215-1.169-0.804-1.8-1.016-1.629-0.007-0.953-1.056-1.309-1.664-1.92l-0.075-1.051-0.36-0.075c0.225 0.711-0.292 0.761 0.723 2.173l0.036 0.509c-0.387-0.263-0.772-0.753-1.157-1.304l-0.471-0.833c0.049 0.571-0.233 0.699 0.179 1.703 0.608 0.528 1.155 1.303 1.849 1.485 0 0 0.145 0.253 0 0.253s-0.435-0.111-0.435-0.111c-0.4-0.183-0.781-0.347-1.557-0.905l-0.797-2.355-0.364-0.071 0.075 1.268 0.324 0.143 0.036 0.833c0.141 0.495 0.304 0.691 0.545 0.616-0.136 0.167-0.295 0.203-0.616 0.183-0.269-0.504-0.433-0.996-0.98-1.593l-0.36-1.051-0.217 0.217c-0.079 0.395-0.113 0.813 0 1.304-0.353-0.209-0.877-0.791-1.5-1.093 2.045-2.373 5.205-3.283 7.688-3.328 0.112-0.003 0.224-0.005 0.335-0.004zM24.196 3.913l0.691 0.228 2.024 1.155 2.868 0.025c-0.823 0.323-1.836 0.701-2.483 0.897l-0.82-0.025c-0.648-0.552-1.168-0.817-1.749-1.168-0.704 0.737-1.119 1.38-1.351 2.32l0.203-1.589 0.695-1.564zM6.052 4.355l0.731 1.457 0.036 0.324-0.4-0.143-0.36-0.833-0.399 0.289-0.289-0.172c0.208-0.328 0.437-0.636 0.681-0.923zM10.755 7.44c2.156-0.049 2.497 1.741 2.843 3.399v2.972c0.248 0.024 0.757 1.517 0.652 1.992-0.060 0.272 0.652 1.9 0.603 1.907 0.384 0.371 0.313 0.331 0.62 0.567 0.423 0.325 0.805 1.515 0.571 1.689-0.224 0.165 0.295 0.536 0.417 0.801 0.757 0.676 1.319 1.355 1.308 2.031l0.36 0.652 0.688 0.107 0.181 0.256 0.869 0.107c0.5-0.108 0.427-0.648 0.581-1.016 0.029-0.372-0.077-0.8-0.616-1.268 0.028-0.563 0.099-1.117-0.435-1.775 0.076-0.672-0.415-1.229-0.799-1.809-0.047-0.499-0.263-1.18-0.428-1.841-0.081-0.327-0.12-0.664-0.185-0.987-0.243-2.236 0.077-2.488 0.179-3.695 0.827-1.243 1.26-1.839 1.995-2.103l0.94 1.161c0.464 0.844 0.265 1.925 1.415 2.137l0.028 0.028c0.587-0.529 1.364-0.512 1.996-0.528l-0.076 0.251c-0.761-0.080-1.384-0.099-1.899 0.288l0.513 0.499c0.551-0.715 1.309-0.667 2.056-0.695l0.008 0.276c-0.807-0.107-1.579 0.028-1.996 0.483l0.164 0.157h0.007c0.621-0.485 1.365-0.512 2.069-0.52l-0.139 0.245c-0.707 0.057-1.193 0.009-1.699 0.307 0.391 0.041 0.784 0.076 1.176 0.115l0.147 0.324 0.905 0.075c0.159 0.040 0.288 0.057 0.403 0.060 0.111 0.295 0.211 0.593 0.299 0.901 0.672 2.335 0.669 4.784 0.079 7.044-1.812 4.864-3.739 6.167-7.656 5.904-4.089-0.275-7.391-4.819-10.3-11.044-0.635-1.727-2.188-2.821-3.091-1.899-4.107 4.084 0.527 11.347 2.805 13.1 1.276 0.923 2.565 1.66 3.837 2.231-4.517-0.752-8.379-3.893-9.684-8.429-1.576-5.469 1.025-11.193 5.993-13.932 0.005-0.001 0.013-0.005 0.017-0.007 0.929-0.347 1.673-0.503 2.277-0.517zM24.413 10.167c0.392 0.060 1.12 0.488 1.519 0.887 0.12 0.325-0.181 0.472-0.16 0.663 0.011 0.032 0.005 0.043 0.004 0.043-0.001-0.015-0.003-0.028-0.004-0.043-0.032-0.096-0.561-0.747-1.359-1.549zM26.824 13.081c-0.003 0.337-0.111 0.455-0.256 0.635-0.148 0.012-0.52-0.1-0.684-0.335 0.247-0.284 0.625-0.281 0.94-0.3zM23.036 13.311c-0.079 0.095-0.115 0.209-0.208 0.408 0.121-0.187 0.195-0.268 0.276-0.327zM23.225 13.545c-0.3 0.084-0.516 0.559-0.817 1.231 0.321-0.396 0.543-0.957 0.995-1.136zM7.401 17.435l0.071 1.411-2.209 1.268-0.036-1.051c0.923 0.239 1.535-0.748 2.175-1.628zM8.381 20.441l0.324 0.833-2.789 1.521-0.399-0.944c2.793-1.021 2.313-1.013 2.864-1.411zM9.393 22.361l0.364 0.616c-1.051 0.519-1.917 1.219-2.679 2.027l-0.581-1.157c1.053-0.319 2.044-0.763 2.896-1.485zM10.736 24.1l0.616 0.581c-0.483 1.081-1.48 1.753-2.429 2.461l-0.976-1.123c0.959-0.625 2.175-1.123 2.789-1.92zM12.793 26.109c0.097 0.577-0.296 1.435-1.621 2.701-0.516-0.232-1.049-0.449-1.379-0.869 2.147-1.088 2.699-1.673 2.857-1.961 0.056-0.008 0.149 0.043 0.143 0.129zM14.143 27c0.049 0.511-0.055 1.108 0.253 1.447l0.288 0.075c-0.152 0.628-0.455 1.097-0.435 1.725-1.145-0.277-1.272-0.396-1.703-0.675 1.331-2.069 1.585-2.556 1.596-2.572zM16.024 28.048l1.415 1.632c-0.143 0.78-0.131 1.245 0.399 1.449-0.8-0.044-1.584-0.053-2.244-0.46 0.573-0.852 0.564-1.615 0.431-2.621zM23.14 28.683c0.411 0.625 0.465 0.943 0.876 1.087-0.541 0.525-0.785 0.628-1.421 0.869 0.2-0.405 0.001-0.973-0.179-1.664-0.133-0.256 0.535-0.235 0.724-0.292zM19.141 29.063c2.387 0.712 1.577 1.165 2.309 1.877-0.629 0.132-1.207 0.273-2.212 0.217 0.741-0.549 0.403-1.163-0.097-2.095z"></path>
</svg>
