<!-- Generated by IcoMoon.io -->
<svg version="1.1" xmlns="http://www.w3.org/2000/svg" width="32" height="32" viewBox="0 0 32 32">
<title>gnuprivacyguard</title>
<path fill="#0093dd" d="M3.957 15.444h1.699v-5.093c0-0.001 0-0.003 0-0.004 0-5.714 4.632-10.347 10.347-10.347 0.001 0 0.003 0 0.004 0h-0c0.001 0 0.002 0 0.003 0 5.714 0 10.347 4.632 10.347 10.347 0 0.001 0 0.003 0 0.004v-0 5.044c-0.024 0.013-0.049 0.037-0.075 0.049l-0.013 0.013-0.011 0.012h-0.013l-0.025 0.025h-0.037l-0.024 0.024h-0.027l-0.024 0.013h-0.013l-0.012 0.013-0.012 0.012h-0.013l-0.012 0.012-0.012 0.013-0.013 0.012-0.012 0.012-0.037 0.025-0.025 0.013-0.037 0.024-0.024 0.013-0.027 0.012-0.036 0.024-0.025 0.013-0.013 0.012-0.036 0.025-0.027 0.013-0.061 0.036-0.025 0.013-0.051 0.025h-0.011l-0.076 0.036h-0.025c-0.024 0.013-0.049 0.027-0.087 0.051h-0.013l-0.012 0.013-0.037 0.024-0.024 0.013-0.039 0.024-0.024 0.013h-0.013l-0.037 0.024-0.024 0.013-0.027 0.012c-0.024 0.013-0.061 0.025-0.087 0.037l-0.024 0.013-0.027 0.012-0.049 0.024-0.049 0.027-0.063 0.024-0.063 0.025-0.025 0.012-0.049 0.025-0.025 0.013c-2.060 0.985-5.356 2.021-11.611 2.471-4.483 0.325-7.204 2.297-8.965 4.669zM10.413 15.444h11.161v-5.093c0-0.001 0-0.002 0-0.003 0-3.081-2.498-5.579-5.579-5.579-0.001 0-0.002 0-0.003 0h0c-0 0-0.001 0-0.001 0-3.081 0-5.579 2.498-5.579 5.579 0 0.001 0 0.002 0 0.003v-0zM28.043 17.392v14.608h-20.613c2.272-1.261 3.957-1.136 6.767-1.049 3.82 0.125 8.040-1.473 10.113-3.595 2.072-2.123-0.187-0.5-2.535 0.099-2.347 0.6-6.893 0.663-9.939-0.137 9.564 0.125 13.297-2.959 15.407-5.743 2.111-2.772-0.911-0.487-2.871 0.475-1.96 0.96-5.381 1.636-9.152 1.136 5.693-0.013 10.027-2.859 12.823-5.793z"></path>
</svg>
