<!-- Generated by IcoMoon.io -->
<svg version="1.1" xmlns="http://www.w3.org/2000/svg" width="32" height="32" viewBox="0 0 32 32">
<title>gnusocial</title>
<path fill="#a22430" d="M5.623 0c-2.324 0-4.209 1.884-4.209 4.208v16.819c0 2.325 1.885 4.211 4.209 4.211h12.489c-0.023 4.76-6.437 6.763-6.437 6.763s10.851-0.051 12.407-6.763h2.293c2.325 0 4.209-1.885 4.209-4.209v-16.819c0-2.325-1.885-4.209-4.208-4.209zM11.659 3.373c0.097-0.017 0.176-0.004 0.232 0.045 0.447 0.4-0.741 0.791-0.645 2.751 0.043 0.861-0.213 1.528 1.435 1.528 1.101 0 0.644-0.979 2.031-0.979 0.875 0 1.147 0.58 1.245 1.023 0.096-0.44 0.365-1.024 1.24-1.024 1.387 0 0.933 0.977 2.033 0.977 1.649 0 1.392-0.667 1.435-1.528 0.096-1.96-1.093-2.352-0.645-2.751 0.056-0.049 0.133-0.056 0.229-0.027 0.667 0.191 2.143 2.077 2.184 2.873 0.051 0.947 0.053 2.433-1.353 3.209 1.587 1.556 1.803 3.627 1.803 3.627l-2.727-0.045c0 0-0.619-2.824-3.92-2.68-3.299 0.144-3.728 0.717-3.728 4.208 0 3.489 1.529 4.689 3.873 4.78 3.68 0.144 3.347-1.911 3.347-1.911l-1.72 0.096-0.957-2.583h5.88c0 2.821-1.196 7.219-6.789 6.933-5.595-0.288-6.837-4.687-6.885-7.653-0.024-1.633 0.251-3.469 1.6-4.765-1.403-0.773-1.377-2.267-1.377-3.219 0-1.173 1.507-2.779 2.181-2.887z"></path>
</svg>
