<!-- Generated by IcoMoon.io -->
<svg version="1.1" xmlns="http://www.w3.org/2000/svg" width="32" height="32" viewBox="0 0 32 32">
<title>godotengine</title>
<path fill="#478cbf" d="M12.745 0.919c-1.461 0.325-2.908 0.777-4.264 1.46 0.031 1.197 0.108 2.344 0.265 3.509-0.527 0.337-1.080 0.627-1.571 1.021-0.5 0.384-1.011 0.752-1.463 1.201-0.904-0.597-1.861-1.159-2.847-1.655-1.063 1.143-2.056 2.376-2.867 3.757 0.611 0.988 1.248 1.913 1.936 2.792h0.019v8.475c0.016 0 0.031 0 0.047 0.004l5.195 0.501c0.272 0.027 0.485 0.245 0.504 0.519l0.16 2.293 4.532 0.323 0.312-2.116c0.040-0.275 0.276-0.477 0.553-0.477h5.481c0.277 0 0.513 0.203 0.553 0.477l0.312 2.116 4.532-0.323 0.16-2.293c0.019-0.273 0.232-0.492 0.504-0.519l5.193-0.501c0.016 0 0.031-0.004 0.047-0.004v-0.676h0.003v-7.797h0.019c0.688-0.879 1.325-1.804 1.936-2.792-0.811-1.381-1.805-2.615-2.868-3.759-0.985 0.496-1.943 1.057-2.847 1.655-0.452-0.449-0.961-0.817-1.461-1.201-0.492-0.395-1.045-0.684-1.571-1.021 0.156-1.165 0.233-2.312 0.265-3.509-1.356-0.683-2.801-1.135-4.264-1.46-0.584 0.981-1.117 2.044-1.583 3.083-0.552-0.092-1.105-0.125-1.661-0.132h-0.021c-0.556 0.007-1.109 0.040-1.661 0.132-0.465-1.039-0.999-2.101-1.584-3.083zM8.635 13.325c1.729 0 3.132 1.401 3.132 3.131s-1.403 3.131-3.132 3.131c-1.728 0-3.131-1.401-3.131-3.131s1.401-3.131 3.131-3.131zM23.365 13.325c1.728 0 3.131 1.401 3.131 3.131s-1.401 3.131-3.131 3.131-3.132-1.401-3.132-3.131 1.401-3.131 3.132-3.131zM8.935 14.565c-1.148 0-2.079 0.931-2.079 2.079s0.931 2.077 2.079 2.077 2.079-0.931 2.079-2.077-0.929-2.079-2.079-2.079zM23.064 14.565c-1.148 0-2.077 0.931-2.077 2.079s0.929 2.077 2.077 2.077 2.079-0.931 2.079-2.077-0.929-2.079-2.079-2.079zM16 15.169c0.556 0 1.009 0.411 1.009 0.916v2.883c0 0.505-0.452 0.916-1.009 0.916s-1.008-0.411-1.008-0.916v-2.883c0-0.505 0.452-0.916 1.008-0.916zM1.947 22.601c0.003 0.503 0.008 1.052 0.008 1.161 0 4.935 6.259 7.305 14.035 7.333h0.019c7.776-0.027 14.033-2.399 14.033-7.333 0-0.112 0.007-0.66 0.009-1.161l-4.669 0.451-0.161 2.305c-0.020 0.277-0.24 0.5-0.519 0.52l-5.575 0.395c-0.275 0-0.512-0.201-0.553-0.477l-0.317-2.152h-4.515l-0.317 2.152c-0.043 0.289-0.301 0.497-0.593 0.476l-5.535-0.395c-0.277-0.020-0.5-0.241-0.519-0.519l-0.16-2.305z"></path>
</svg>
