<!-- Generated by IcoMoon.io -->
<svg version="1.1" xmlns="http://www.w3.org/2000/svg" width="32" height="32" viewBox="0 0 32 32">
<title>gog-dot-com</title>
<path fill="#86328a" d="M9.533 20.32h-3.72c-0.295 0-0.533 0.239-0.533 0.533v0 2.667c0 0.28 0.24 0.533 0.533 0.533h3.733v1.76h-4.667c-0.747 0-1.36-0.613-1.36-1.373v-4.52c0-0.747 0.613-1.36 1.373-1.36h4.64zM10.88 15.387c0 0.773-0.627 1.4-1.4 1.4h-5.973v-1.8h5.040c0.295 0 0.533-0.239 0.533-0.533v0-5.933c0-0.295-0.239-0.533-0.533-0.533v0h-2.693c-0.004-0-0.009-0-0.013-0-0.295 0-0.533 0.239-0.533 0.533 0 0 0 0 0 0v0 2.693c0 0.307 0.24 0.533 0.533 0.533h2.16v1.8h-3.093c-0.773 0-1.4-0.613-1.4-1.387v-4.587c0-0.76 0.627-1.387 1.4-1.387h4.56c0.773 0 1.4 0.627 1.4 1.387zM28.48 25.813h-1.76v-5.493h-1.24c-0.295 0-0.533 0.239-0.533 0.533v4.96h-1.773v-5.493h-1.24c-0.295 0-0.533 0.239-0.533 0.533v4.96h-1.773v-5.893c0-0.747 0.613-1.36 1.373-1.36h7.48zM28.493 15.387c0 0.773-0.627 1.4-1.4 1.4h-5.973v-1.8h5.040c0.295 0 0.533-0.239 0.533-0.533v0-5.933c0-0.295-0.239-0.533-0.533-0.533v0h-2.707c-0.295 0-0.533 0.239-0.533 0.533v0 2.693c0 0.307 0.24 0.533 0.533 0.533h2.16v1.8h-3.080c-0.773 0-1.4-0.613-1.4-1.387v-4.587c0-0.76 0.627-1.387 1.4-1.387h4.573c0.773 0 1.4 0.627 1.4 1.387zM18.293 6.187h-4.587c-0.773 0-1.387 0.627-1.387 1.387v4.587c0 0.773 0.613 1.387 1.387 1.387h4.587c0.76 0 1.387-0.613 1.387-1.387v-4.587c0-0.76-0.627-1.387-1.387-1.387zM17.893 8.52v2.693c0 0.295-0.239 0.533-0.533 0.533v0h-2.707c-0.295 0-0.533-0.239-0.533-0.533v0-2.68c0-0.293 0.227-0.533 0.533-0.533h2.68c0.307 0 0.533 0.24 0.56 0.52zM16.84 18.56h-4.52c-0.76 0-1.373 0.613-1.373 1.36v4.52c0 0.76 0.613 1.373 1.373 1.373h4.52c0.76 0 1.373-0.613 1.373-1.373v-4.52c0-0.747-0.613-1.36-1.373-1.36zM16.44 20.853v2.667c0 0.295-0.239 0.533-0.533 0.533v0-0.013h-2.653c-0.295 0-0.533-0.239-0.533-0.533v0-2.653c0-0.293 0.24-0.533 0.533-0.533h2.667c0.293 0 0.533 0.24 0.52 0.533zM31.32 1.467c-0.421-0.428-1.006-0.693-1.653-0.693h-27.333c-0.004-0-0.009-0-0.013-0-1.281 0-2.32 1.039-2.32 2.32 0 0.005 0 0.009 0 0.014v-0.001 25.787c-0 0.004-0 0.009-0 0.013 0 1.281 1.039 2.32 2.32 2.32 0.005 0 0.009 0 0.014-0h27.333c0.004 0 0.009 0 0.013 0 1.281 0 2.32-1.039 2.32-2.32 0-0.005 0-0.009-0-0.014v0.001-25.787c0-0.64-0.267-1.227-0.68-1.653zM31.32 28.893c0 0.004 0 0.009 0 0.013 0 0.906-0.734 1.64-1.64 1.64-0.005 0-0.009-0-0.014-0h-27.333c-0.008 0-0.017 0-0.027 0-0.906 0-1.64-0.734-1.64-1.64 0-0.005 0-0.010 0-0.014v0.001-25.787c-0-0.004-0-0.009-0-0.013 0-0.906 0.734-1.64 1.64-1.64 0.005 0 0.009 0 0.014 0h27.333c0.913 0 1.653 0.74 1.653 1.653v0z"></path>
</svg>
