<!-- Generated by IcoMoon.io -->
<svg version="1.1" xmlns="http://www.w3.org/2000/svg" width="32" height="32" viewBox="0 0 32 32">
<title>goodreads</title>
<path fill="#630" d="M26.033 21.303v-20.649h-2.745v3.875h-0.085c-0.281-0.607-0.641-1.188-1.123-1.743-0.48-0.549-1.023-1.036-1.643-1.459-0.621-0.419-1.283-0.748-2.025-0.981-0.737-0.225-1.52-0.345-2.361-0.345-1.613 0-3.067 0.3-4.328 0.893-1.263 0.596-2.324 1.409-3.18 2.44s-1.511 2.235-1.96 3.615c-0.448 1.383-0.675 2.839-0.675 4.377 0 1.599 0.188 3.101 0.567 4.509 0.381 1.409 0.983 2.635 1.824 3.683 0.841 1.040 1.883 1.863 3.167 2.444 1.281 0.581 2.825 0.881 4.628 0.881 1.664 0 3.107-0.42 4.349-1.261s2.184-1.964 2.825-3.367h0.081v3.045c0 2.725-0.561 4.809-1.685 6.273-1.12 1.441-2.965 2.184-5.528 2.184-0.763 0-1.504-0.081-2.225-0.241-0.723-0.16-1.381-0.42-1.983-0.76-0.583-0.361-1.103-0.801-1.524-1.384-0.421-0.58-0.701-1.281-0.843-2.124h-2.809c0.089 1.183 0.42 2.205 0.983 3.067 0.565 0.861 1.281 1.563 2.136 2.124 0.855 0.541 1.823 0.941 2.896 1.203 1.081 0.259 2.185 0.4 3.325 0.4 1.844 0 3.388-0.26 4.648-0.74 1.263-0.501 2.285-1.203 3.068-2.144 0.801-0.944 1.361-2.065 1.724-3.408 0.36-1.343 0.56-2.845 0.56-4.489zM16.055 20.56c-1.273 0-2.379-0.252-3.305-0.761-0.929-0.507-1.703-1.176-2.309-2.004-0.623-0.828-1.063-1.776-1.363-2.852s-0.443-2.177-0.443-3.312c0-1.161 0.14-2.3 0.401-3.417 0.28-1.12 0.72-2.116 1.323-2.987 0.601-0.869 1.383-1.576 2.304-2.112s2.044-0.807 3.347-0.807 2.404 0.279 3.327 0.828c0.901 0.553 1.663 1.279 2.244 2.179 0.581 0.903 1.001 1.905 1.263 3.007 0.26 1.101 0.38 2.208 0.38 3.309 0 1.136-0.16 2.237-0.46 3.312-0.301 1.076-0.763 2.024-1.384 2.852-0.62 0.828-1.361 1.497-2.264 2.004-0.901 0.509-1.944 0.761-3.145 0.761z"></path>
</svg>
