<!-- Generated by IcoMoon.io -->
<svg version="1.1" xmlns="http://www.w3.org/2000/svg" width="32" height="32" viewBox="0 0 32 32">
<title>googlehangoutschat</title>
<path fill="#00897b" d="M16 0c-0.002 0-0.005 0-0.008 0-7.627 0-13.809 6.183-13.809 13.809 0 0.003 0 0.006 0 0.008v-0c0 7.236 6.599 13.091 13.817 13.091v5.091c8.4-4.255 13.817-11.111 13.817-18.183 0-0.002 0-0.003 0-0.005 0-7.627-6.183-13.811-13.811-13.811-0.002 0-0.005 0-0.007 0h0zM16.036 5.636c1.164 0 2.219 0.201 3.2 0.62s1.819 0.963 2.527 1.672c0.709 0.709 1.253 1.527 1.653 2.473s0.601 1.945 0.601 3c0 0.6-0.073 1.147-0.2 1.656s-0.328 0.963-0.601 1.344-0.6 0.691-1 0.909-0.853 0.328-1.38 0.328c-0.509 0-0.98-0.128-1.38-0.383s-0.729-0.619-0.967-1.109c-0.303 0.459-0.699 0.832-1.163 1.1l-0.017 0.009c-0.473 0.255-1.020 0.383-1.656 0.383-0.006 0-0.013 0-0.020 0-1.087 0-2.071-0.445-2.778-1.164l-0.001-0c-0.356-0.367-0.645-0.801-0.845-1.282l-0.010-0.027c-0.196-0.486-0.309-1.050-0.309-1.64 0-0.012 0-0.024 0-0.036v0.002c0-0.6 0.109-1.163 0.309-1.672 0.219-0.509 0.491-0.945 0.855-1.309 0.345-0.364 0.765-0.655 1.237-0.855s0.964-0.309 1.473-0.309 0.98 0.109 1.38 0.309 0.745 0.473 1.019 0.8h0.128v-0.817h1.727v5.109c0 0.327 0.091 0.619 0.273 0.891s0.473 0.416 0.855 0.416c0.255 0 0.472-0.072 0.653-0.235s0.309-0.381 0.419-0.636 0.181-0.565 0.219-0.875c0.034-0.288 0.054-0.623 0.055-0.963v-0.001c0-0.819-0.164-1.601-0.473-2.347-0.333-0.753-0.772-1.397-1.308-1.947l0.001 0.001c-0.564-0.564-1.219-0.999-1.981-1.325s-1.583-0.489-2.492-0.489c-0.873 0-1.689 0.163-2.453 0.472s-1.419 0.747-1.981 1.292c-0.564 0.545-1.001 1.2-1.328 1.945-0.327 0.764-0.489 1.581-0.489 2.473s0.163 1.709 0.489 2.473 0.781 1.4 1.364 1.945c1.136 1.091 2.681 1.762 4.383 1.763h0c1 0 1.872-0.219 2.653-0.636l0.636 1.599c-0.944 0.436-2.049 0.691-3.213 0.691-0.021 0-0.042-0-0.063-0l0.003 0c-1.164 0-2.219-0.199-3.219-0.617-0.981-0.419-1.835-0.965-2.544-1.675s-1.275-1.527-1.675-2.473c-0.4-0.945-0.599-1.961-0.599-3.033s0.199-2.073 0.599-3.036c0.806-1.903 2.302-3.382 4.168-4.146l0.051-0.018c0.964-0.419 2.036-0.62 3.216-0.62zM15.781 11.2c-0.291 0-0.581 0.055-0.855 0.164s-0.509 0.253-0.727 0.453c-0.216 0.203-0.384 0.453-0.488 0.735l-0.004 0.013c-0.127 0.291-0.18 0.616-0.18 0.979s0.053 0.691 0.18 0.981 0.292 0.545 0.492 0.745c0.219 0.2 0.455 0.365 0.727 0.456 0.253 0.104 0.547 0.165 0.855 0.165s0.602-0.060 0.87-0.17l-0.015 0.006c0.273-0.109 0.509-0.256 0.727-0.456s0.383-0.436 0.492-0.727c0.127-0.291 0.18-0.619 0.18-1s-0.053-0.709-0.18-1c-0.123-0.282-0.289-0.523-0.492-0.727v0c-0.415-0.382-0.971-0.616-1.581-0.617h-0z"></path>
</svg>
