<!-- Generated by IcoMoon.io -->
<svg version="1.1" xmlns="http://www.w3.org/2000/svg" width="32" height="32" viewBox="0 0 32 32">
<title>googlepay</title>
<path fill="#5f6368" d="M32 13.333l-4.179 9.333h-1.291l1.551-3.267-2.748-6.067h1.36l1.987 4.653h0.027l1.931-4.653zM14.644 16.221v3.779h-1.311v-9.333h3.476c0.025-0.001 0.053-0.001 0.082-0.001 0.831 0 1.59 0.306 2.171 0.812l-0.004-0.003c0.611 0.503 0.953 1.22 0.941 1.971 0 0.009 0 0.020 0 0.030 0 0.788-0.366 1.49-0.937 1.946l-0.005 0.004c-0.607 0.531-1.357 0.795-2.249 0.795zM14.641 11.816v3.259h2.197c0.487 0.013 0.957-0.163 1.297-0.483 0.336-0.3 0.527-0.711 0.527-1.141 0-0.429-0.191-0.84-0.527-1.14-0.321-0.307-0.757-0.496-1.237-0.496-0.021 0-0.043 0-0.064 0.001l0.003-0zM22.629 13.333c0.836 0 1.496 0.232 1.98 0.696 0.483 0.464 0.724 1.101 0.724 1.909v3.857h-1.081v-0.869h-0.049c-0.468 0.716-1.091 1.073-1.867 1.073-0.664 0-1.219-0.204-1.667-0.613-0.412-0.366-0.67-0.898-0.67-1.489 0-0.015 0-0.031 0.001-0.046l-0 0.002c0-0.647 0.236-1.161 0.707-1.544s1.1-0.573 1.887-0.575c0.671 0 1.224 0.128 1.657 0.383v-0.268c0-0.004 0-0.009 0-0.014 0-0.408-0.18-0.775-0.465-1.024l-0.002-0.001c-0.28-0.266-0.66-0.429-1.078-0.429-0.005 0-0.009 0-0.014 0h0.001c-0.632 0-1.132 0.277-1.499 0.831l-0.996-0.651c0.547-0.817 1.357-1.227 2.431-1.227zM21.167 17.88c-0 0.003-0 0.006-0 0.009 0 0.308 0.147 0.582 0.374 0.756l0.002 0.002c0.249 0.204 0.56 0.312 0.879 0.307 0.476-0.001 0.933-0.2 1.271-0.549 0.346-0.32 0.563-0.777 0.563-1.284 0-0.002 0-0.004 0-0.005v0c-0.353-0.293-0.844-0.439-1.475-0.439-0.46 0-0.843 0.116-1.149 0.347-0.309 0.232-0.464 0.516-0.464 0.857zM5.441 10.667c0.020-0 0.043-0 0.067-0 1.379 0 2.635 0.528 3.577 1.393l-0.004-0.003-1.552 1.523c-0.532-0.496-1.248-0.8-2.035-0.8-0.019 0-0.037 0-0.056 0.001l0.003-0c-1.411 0.009-2.607 0.916-3.048 2.177l-0.007 0.023c-0.108 0.304-0.171 0.656-0.171 1.021s0.063 0.717 0.178 1.043l-0.007-0.022c0.447 1.284 1.644 2.191 3.054 2.2h0.001c0.735 0 1.364-0.184 1.853-0.508 0.572-0.373 0.964-0.96 1.085-1.623h-2.939v-2.053h5.132c0.063 0.359 0.093 0.72 0.093 1.084 0 1.623-0.592 2.996-1.619 3.924-0.901 0.816-2.139 1.288-3.607 1.288-0.007 0-0.014 0-0.022 0-2.093 0-3.91-1.179-4.825-2.909l-0.014-0.030c-0.365-0.696-0.579-1.52-0.579-2.395s0.214-1.699 0.593-2.424l-0.014 0.029c0.929-1.76 2.746-2.939 4.839-2.939 0.008 0 0.016 0 0.024 0h-0.001z"></path>
</svg>
