<!-- Generated by IcoMoon.io -->
<svg version="1.1" xmlns="http://www.w3.org/2000/svg" width="32" height="32" viewBox="0 0 32 32">
<title>googlesearchconsole</title>
<path fill="#458cf5" d="M11.397 1.541l-2.288 2.288v2.243h2.288zM11.397 6.072v0.047h-2.288v-0.047h-4.595l-4.515 4.387v4.769h3.768v-3.308c0-0.7 0.572-1.272 1.272-1.272h21.968c0.7 0 1.272 0.573 1.272 1.272v3.307h3.672v-4.768l-4.515-4.387h-4.371v0.047h-2.289v-0.047zM20.777 6.072h2.289v-2.243l-2.289-2.288zM11.572 1.584v2.203h9.031v-2.203zM26.867 11.011c-0.001 0-0.003 0-0.004 0-0.061 0-0.12 0.005-0.178 0.014l0.006-0.001-0.724 0.003c-6.955 0.019-13.909-0.011-20.864 0.013-0.58-0.084-1.059 0.581-0.955 1.177v3.019h23.749c-0.021-1.184 0.060-2.376-0.045-3.555-0.139-0.456-0.569-0.669-0.985-0.671zM6.304 11.856c0.507 0 0.919 0.417 0.919 0.931v0c-0.001 0.513-0.412 0.929-0.919 0.929 0 0 0 0 0 0v0c-0.506-0.001-0.917-0.416-0.917-0.929v-0c0 0 0 0 0 0 0-0.514 0.411-0.93 0.917-0.931h0zM9.149 11.856c0.507 0 0.919 0.417 0.919 0.931v0c-0.001 0.513-0.412 0.929-0.919 0.929 0 0 0 0 0 0v0c-0.506-0.001-0.917-0.416-0.917-0.929v-0c0 0 0 0 0 0 0-0.514 0.411-0.93 0.917-0.931h0zM0.048 15.527v12.208c0 1.4 1.144 2.544 2.543 2.544h1.177v-14.752zM28.28 15.527v14.752h1.176c1.4 0 2.544-1.144 2.544-2.544v-12.208zM5.409 17.511v9.133h8.183v-9.133zM23.067 17.539v5.036l-2.277 1.303-2.277-1.303v-5.011c-1.812 0.88-3.040 2.707-3.040 4.82s1.227 3.94 3.008 4.806l0.032 0.014v3.255h4.609v-3.256c1.811-0.88 3.038-2.707 3.038-4.819 0-2.134-1.251-3.975-3.060-4.831l-0.032-0.014zM5.409 28.552v1.907h10.567v-1.907z"></path>
</svg>
