<!-- Generated by IcoMoon.io -->
<svg version="1.1" xmlns="http://www.w3.org/2000/svg" width="32" height="32" viewBox="0 0 32 32">
<title>googlekeep</title>
<path fill="#fb0" d="M26.66 10.66c0-5.86-4.799-10.66-10.66-10.66s-10.66 4.8-10.66 10.66c0 3.4 1.6 6.52 4.259 8.54v10.639h2.161v2.161h8.479v-2.16h2.161v-10.64c2.681-2 4.26-5.16 4.26-8.54zM11.74 27.699v-2.1h8.521v2.1zM11.74 23.44v-2.1h8.521v2.1zM20.74 17.759l-0.479 0.32v1.121h-8.521v-1.12l-0.46-0.32c-2.4-1.599-3.8-4.24-3.8-7.099 0-4.7 3.8-8.521 8.52-8.521s8.52 3.801 8.52 8.521c0 2.86-1.4 5.52-3.8 7.099z"></path>
</svg>
