<!-- Generated by IcoMoon.io -->
<svg version="1.1" xmlns="http://www.w3.org/2000/svg" width="32" height="32" viewBox="0 0 32 32">
<title>gov-dot-uk</title>
<path fill="#005ea5" d="M3.2 17.375c0.348-0.853-0.053-1.832-0.909-2.184-0.841-0.349-1.816 0.065-2.164 0.917-0.355 0.849 0.051 1.817 0.891 2.164 0.843 0.356 1.824-0.049 2.164-0.897zM4.325 13.049c0.341-0.848-0.060-1.827-0.921-2.185-0.841-0.344-1.823 0.071-2.185 0.916-0.36 0.851 0.040 1.825 0.883 2.172 0.861 0.355 1.823-0.052 2.185-0.903zM5.911 11.589c0.86 0.352 1.823-0.055 2.183-0.9 0.341-0.852-0.060-1.833-0.901-2.185-0.843-0.347-1.824 0.065-2.185 0.915-0.361 0.851 0.061 1.823 0.904 2.168zM10.119 12.991c0.861 0.341 1.824-0.060 2.187-0.901 0.34-0.861-0.061-1.844-0.921-2.185-0.845-0.361-1.827 0.061-2.168 0.901-0.36 0.843 0.060 1.824 0.903 2.167zM28.8 17.341c0.361 0.841 1.324 1.244 2.185 0.881 0.843-0.36 1.244-1.323 0.881-2.185-0.361-0.861-1.344-1.263-2.185-0.901-0.861 0.341-1.26 1.323-0.901 2.185zM29.783 13.895c0.841-0.343 1.241-1.324 0.901-2.187-0.361-0.843-1.344-1.261-2.185-0.903-0.861 0.361-1.263 1.323-0.901 2.185 0.341 0.843 1.324 1.244 2.165 0.904zM26.056 11.589c0.841-0.347 1.243-1.323 0.896-2.175-0.36-0.861-1.335-1.263-2.185-0.915-0.843 0.361-1.249 1.323-0.893 2.185 0.36 0.841 1.343 1.243 2.184 0.901zM21.508 12.731c0.841-0.361 1.243-1.343 0.903-2.185-0.361-0.861-1.324-1.263-2.187-0.921-0.841 0.361-1.243 1.344-0.881 2.185 0.361 0.843 1.324 1.243 2.187 0.883zM12.567 6.58l0.124 3.199 2.336-1.231c0.047 0.052 0.105 0.104 0.16 0.143-0.241 0.957-0.828 2.552-1.195 3.433-0.447 1.083 0.068 2.325 1.149 2.771 1.083 0.441 2.329-0.080 2.777-1.163 0.321-0.76 0.161-1.584-0.32-2.164-0.521-0.904-1.041-2.044-1.323-2.927 0.081-0.060 0.14-0.14 0.2-0.2l2.527 1.303 0.12-3.187-2.625 0.843c-0.021-0.041-0.041-0.081-0.060-0.1l1.021-2.908-3.107-0.099 0.943 2.864c-0.081 0.041-0.14 0.101-0.2 0.183zM28.428 18.725c0.213 1.177 0.251 1.712-0.020 2.479-0.38-0.381-0.72-1.076-0.999-2.125l-1.163 3.72c0.693-0.461 1.22-0.753 1.819-0.761-1.087 2.284-2.425 2.861-3.281 2.695-1.049-0.211-1.533-1.156-1.349-1.955 0.233-1.123 1.403-1.403 1.931-0.089 1.056-2.088-0.693-2.771-1.824-2.165 1.751-1.707 1.957-3.235 0.568-5.115-1.952 1.475-1.987 2.947-1.135 5.029-1.123-1.313-2.907-0.621-2.284 1.484 0.836-1.265 1.909-0.461 1.731 0.753-0.145 1.061-1.551 1.884-3.281 1.723-2.485-0.22-2.605-1.943-2.644-3.367 0.601-0.099 1.703 0.481 2.644 1.805l0.381-3.949c-1.023 1.043-1.965 1.261-2.987 1.283 0.361-1.041 1.945-2.787 1.945-2.787l-4.972-0.060c0 0 1.584 1.764 1.924 2.825-1.024-0.019-1.945-0.219-2.967-1.281l0.34 3.948c0.941-1.321 2.045-1.883 2.645-1.784-0.060 1.404-0.2 3.128-2.687 3.348-1.724 0.14-3.127-0.701-3.265-1.764-0.161-1.201 0.921-2.004 1.743-0.721 0.641-2.104-1.141-2.805-2.265-1.503 0.883-2.085 0.863-3.568-1.081-5.052-1.404 1.864-1.203 3.388 0.54 5.133-1.123-0.623-2.887 0.039-1.844 2.143 0.54-1.323 1.704-1.021 1.944 0.101 0.16 0.801-0.32 1.744-1.361 1.943-0.861 0.161-2.185-0.42-3.268-2.725 0.601 0.021 1.123 0.321 1.805 0.783l-1.145-3.711c-0.279 1.041-0.64 1.727-1.021 2.104-0.248-0.76-0.221-1.303 0.019-2.479l-2.404 0.817c1.229 1.685 2.476 4.028 3.453 8.139 3.033-0.501 8.209-0.804 11.345-0.804 3.127 0.020 8.305 0.38 11.325 0.921 1.023-4.108 2.284-6.433 3.528-8.097l-2.364-0.861z"></path>
</svg>
