<!-- Generated by IcoMoon.io -->
<svg version="1.1" xmlns="http://www.w3.org/2000/svg" width="32" height="32" viewBox="0 0 32 32">
<title>gravatar</title>
<path fill="#1e8cbe" d="M16 0c-1.768 0-3.2 1.432-3.2 3.2v11.2c0 1.765 1.432 3.197 3.2 3.197s3.2-1.432 3.2-3.197v-7.453c3.727 1.32 6.399 4.872 6.399 9.052 0 5.3-4.3 9.599-9.599 9.599s-9.599-4.297-9.599-9.597c0-2.652 1.073-5.052 2.811-6.788 1.251-1.251 1.251-3.277 0-4.528s-3.277-1.251-4.528 0c-2.892 2.897-4.684 6.897-4.684 11.316 0 8.836 7.164 16 16 16s16-7.164 16-16-7.164-16-16-16z"></path>
</svg>
