<!-- Generated by IcoMoon.io -->
<svg version="1.1" xmlns="http://www.w3.org/2000/svg" width="32" height="32" viewBox="0 0 32 32">
<title>grav</title>
<path d="M16 0c-8.836 0-16 7.164-16 16s7.164 16 16 16 16-7.164 16-16-7.164-16-16-16zM24.652 18.62c-1.668-1.1-2.62-2.031-3.452-3.703-0.569 1.145-1.895 2.847-4.131 4.185-1.12 3.48-6.431 10.14-8.151 9.18-0.508-0.26-0.603-0.64-0.489-1.020 0.124-0.939 2.088-3.12 2.088-3.12s0.039 0.46 0.659 1.42c-0.839-2.581 1.361-5.74 1.941-6.841 0.919-0.279 0.979-1.46 0.979-1.46 0.061-1.819-0.759-3.12-1.54-3.92 0.561 0.7 0.741 1.741 0.76 2.7v0.34c-0.039 0.801-0.28 1.88-0.78 1.88v0.021c-0.52-0.021-1.18 0.099-1.759 0.28l-1.281 0.319c0 0 0.68-0.020 1.040 0.301-0.419 0.68-1.34 1.5-2.361 1.979-1.479 0.7-1.919-0.68-1.159-1.56 0.18-0.22 0.38-0.4 0.539-0.539-0.12-0.12-0.18-0.28-0.199-0.48-0.1-0.46-0.060-1.040 0.6-1.98 0.12-0.199 0.28-0.4 0.46-0.599l0.020-0.021 0.021-0.020v-0.020c0.039-0.061 0.099-0.101 0.139-0.16 0.76-0.78 1.98-1.6 3.881-2.32 2.259-3.32 3.079-3.941 3.079-3.941 0.241-0.239 0.681-0.559 0.82-0.639-1.16-2.020-1.399-4.861-1.099-5.62-0.040 0.040-0.061 0.080-0.081 0.14 0.12-0.26 0.18-0.34 0.3-0.48 0.32-0.36 1.38-0.56 1.781 0.24 0.2 0.42 0.24 0.98 0.24 1.38-0.86-0.039-1.62 0.92-1.62 0.92s0.699-0.32 1.581-0.34c0 0 0.239 0.219 0.519 0.599-0.379 0.741-1.039 2.3-0.56 3.961 0.081 0.32 0.2 0.6 0.341 0.839 0.020 0.021 0.020 0.021 0.020 0.041l0.040 0.039c0.78 1.181 2.199 1.301 2.199 1.301-0.66-0.32-1.22-0.861-1.559-1.5-0.181-0.34-0.303-0.64-0.361-0.861-0.38-1.44 0.18-2.3 0.5-2.86 0.72-1.12 2.059-1.801 3.479-1.64 2 0.22 3.441 2.040 3.199 4.040-0.139 1.22-0.879 2.241-1.879 2.78 0.241 0.659-0.020 1.44-0.020 1.44 0.599 0.76 0.639 1.2 0.62 1.62-0.78-0.12-1.521 0.401-1.521 0.401s1.481-0.341 2.341 0.419c0.56 0.599 0.939 1.16 1.159 1.56 0.32 0.58 1.8 0.62 1.639 1.64-0.18 1.039-1.319 1.039-3.080-0.12zM18.22 12.473c-0.293-0.292-0.765-0.292-1.060 0l-0.62 0.624c-0.296 0.28-0.296 0.76 0 1.061l0.68 0.68c0.296 0.3 0.769 0.28 1.060 0l0.627-0.621c0.295-0.3 0.295-0.78 0-1.059l-0.687-0.7zM15.28 12.225c-0.187 0.187-0.187 0.491 0 0.681 0.188 0.184 0.491 0.184 0.68 0 0.187-0.191 0.187-0.495 0-0.681-0.189-0.188-0.492-0.188-0.68 0zM16.972 11.889c0.189-0.185 0.189-0.488 0-0.68-0.188-0.184-0.489-0.184-0.68 0-0.185 0.192-0.185 0.495 0 0.68 0.189 0.189 0.492 0.189 0.68 0zM24.152 10.151c0.788-1.508-0.329-2.388-1.1-3.109-1.232-1.16-2.461-1.66-3.867-0.039-1.403 1.599-0.511 3.479 0.773 4.379 1.28 0.92 3.38 0.301 4.18-1.22zM22.025 9.533c-0.496-0.593 0.429-1.669 1.009-1.027 1.067 1.187-0.516 1.621-1.009 1.027z"></path>
</svg>
