<!-- Generated by IcoMoon.io -->
<svg version="1.1" xmlns="http://www.w3.org/2000/svg" width="32" height="32" viewBox="0 0 32 32">
<title>greenkeeper</title>
<path fill="#00c775" d="M16.053 30.063c-0 0-0.001 0-0.001 0-1.624 0-2.941-1.317-2.941-2.941 0-0.436 0.095-0.849 0.265-1.221l-0.008 0.018-3.599-2.4c-0.535 0.559-1.288 0.906-2.121 0.906-1.621 0-2.935-1.314-2.935-2.935s1.314-2.935 2.935-2.935c1.621 0 2.935 1.314 2.935 2.935 0 0.432-0.093 0.843-0.261 1.212l0.008-0.018 3.603 2.4c0.109-0.113 0.229-0.219 0.356-0.315l-5.773-11.545c-0.261 0.084-0.56 0.132-0.871 0.132-1.627 0-2.945-1.319-2.945-2.945s1.319-2.945 2.945-2.945c1.627 0 2.945 1.319 2.945 2.945 0 0.96-0.46 1.813-1.171 2.351l-0.007 0.005 5.773 11.545c0.103-0.032 0.208-0.059 0.313-0.079v-5.504c-1.369-0.27-2.387-1.46-2.387-2.889s1.018-2.619 2.369-2.886l0.019-0.003v-5.187c-1.367-0.271-2.384-1.461-2.384-2.888 0-1.624 1.317-2.941 2.941-2.941s2.941 1.317 2.941 2.941c0 1.466-1.072 2.681-2.475 2.905l-0.017 0.002v5.155c1.421 0.224 2.494 1.44 2.494 2.906s-1.073 2.682-2.477 2.904l-0.017 0.002v5.463c0.109 0.017 0.219 0.040 0.325 0.069l5.76-11.517c-0.714-0.541-1.17-1.39-1.17-2.345 0-1.621 1.314-2.936 2.936-2.936s2.936 1.315 2.936 2.936c0 1.621-1.314 2.936-2.936 2.936-0.311 0-0.61-0.048-0.891-0.138l0.021 0.006-5.745 11.489c0.133 0.093 0.259 0.197 0.373 0.311l3.488-2.368c-0.186-0.375-0.294-0.817-0.294-1.284 0-1.627 1.319-2.945 2.945-2.945s2.945 1.319 2.945 2.945c0 1.627-1.319 2.945-2.945 2.945-0.804 0-1.533-0.322-2.065-0.845l0 0-3.487 2.369c0.185 0.374 0.292 0.814 0.292 1.279 0 1.624-1.316 2.941-2.94 2.941h-0zM16 32c-8.836 0-16-7.163-16-16 0-4.418 1.791-8.418 4.687-11.313v0c6.248-6.248 16.379-6.248 22.627 0s6.249 16.379 0 22.627c-2.879 2.895-6.866 4.687-11.27 4.687-0.015 0-0.030-0-0.045-0h0.002zM16 1.007c-8.28 0-14.993 6.713-14.993 14.993 0 3.976 1.58 7.791 4.392 10.601 5.835 5.876 15.327 5.911 21.203 0.076s5.909-15.328 0.076-21.204c-2.706-2.758-6.471-4.467-10.636-4.467-0.014 0-0.029 0-0.043 0h0.002z"></path>
</svg>
