<!-- Generated by IcoMoon.io -->
<svg version="1.1" xmlns="http://www.w3.org/2000/svg" width="32" height="32" viewBox="0 0 32 32">
<title>groupon</title>
<path fill="#53a318" d="M4.421 27.112c3.069 3.203 6.984 4.888 11.595 4.888 5.317 0 10.319-2.6 13.304-6.884 1.804-2.6 2.68-5.544 2.68-9.007 0-0.645-0.043-1.341-0.084-2.039h-17.789v6.147h8.916c-1.54 2.683-4.125 4.16-7.027 4.16-4.305 0-8.167-3.765-8.167-8.663 0-4.42 3.599-8.092 8.167-8.092 2.459 0 4.473 0.999 6.415 2.985h8.693c-2.5-6.583-8.345-10.608-15.013-10.608-4.431 0-8.293 1.56-11.373 4.545-3.071 2.984-4.737 6.884-4.737 11.127-0.011 4.556 1.477 8.361 4.421 11.44z"></path>
</svg>
