<!-- Generated by IcoMoon.io -->
<svg version="1.1" xmlns="http://www.w3.org/2000/svg" width="32" height="32" viewBox="0 0 32 32">
<title>gumroad</title>
<path fill="#36a9ae" d="M21.101 20.092c0.749 0 1.357 0.608 1.357 1.357s-0.608 1.357-1.357 1.357c-0 0-0 0-0.001 0h0c-0.749-0-1.357-0.608-1.357-1.357s0.608-1.357 1.357-1.357c0 0 0 0 0.001 0h-0zM28.436 1.48c0 0 0 0 0.001 0 0.75 0 1.357 0.608 1.357 1.357s-0.607 1.357-1.357 1.357h-0c-0 0-0 0-0.001 0-0.75 0-1.357-0.608-1.357-1.357s0.607-1.357 1.357-1.357h0zM4.429 4.143h21.488c0.483 0.918 1.429 1.534 2.52 1.535h0c1.565 0 2.839-1.273 2.839-2.84-0.002-1.567-1.273-2.837-2.84-2.837h-0c-1.187 0-2.205 0.733-2.627 1.772h-21.381c-2.076 0-3.704 1.575-3.704 3.587v22.875c0 2.041 1.697 3.767 3.705 3.767h22.873c2.013 0 3.651-1.689 3.651-3.767v-13.569c0-2.043-1.637-3.707-3.651-3.707h-13.569c-2.071 0-3.821 1.699-3.821 3.707v4.264c0 1.979 1.715 3.588 3.821 3.588h4.739c0.434 1.047 1.447 1.77 2.629 1.772h0c1.565 0 2.839-1.275 2.839-2.84s-1.273-2.839-2.84-2.839c-1.090 0.002-2.037 0.618-2.511 1.52l-0.007 0.016h-4.848c-0.697 0-1.451-0.465-1.451-1.217v-4.264c0-0.699 0.692-1.333 1.451-1.333h13.569c0.717 0 1.28 0.585 1.28 1.333v13.569c0 0.756-0.587 1.396-1.28 1.396h-22.873c-0.711 0-1.333-0.653-1.333-1.396v-22.873c0-0.693 0.573-1.216 1.333-1.216z"></path>
</svg>
