<!-- Generated by IcoMoon.io -->
<svg version="1.1" xmlns="http://www.w3.org/2000/svg" width="32" height="32" viewBox="0 0 32 32">
<title>gumtree</title>
<path fill="#72ef36" d="M25.105 8.693c-0.252-0.169-0.42-0.42-0.42-0.76-0.421-4.472-4.136-7.933-8.693-7.933s-8.271 3.459-8.693 7.932c0 0.34-0.168 0.589-0.419 0.76-2.281 1.603-3.713 4.22-3.713 7.171 0 4.051 2.783 7.431 6.496 8.441 0.676 0.169 1.267 0.252 1.52 0.081 0.505-0.251 1.013-2.443 0.76-2.951-0.171-0.252-0.76-0.505-1.352-0.675-2.195-0.591-3.797-2.615-3.797-4.976 0-1.353 0.505-2.533 1.352-3.467 0.336-0.42 0.84-0.756 1.264-1.009 0.928-0.507 1.52-1.523 1.52-2.619 0-0.6 0.084-1.101 0.252-1.601 0.675-2.043 2.615-3.545 4.893-3.545 2.281 0 4.221 1.503 4.896 3.545 0.168 0.5 0.252 1.001 0.252 1.601 0 1.083 0.508 2.104 1.523 2.604 0.505 0.24 0.925 0.581 1.261 1.003 0.845 0.92 1.352 2.101 1.352 3.464 0 2.864-2.279 5.148-5.147 5.148-3.291 0-5.908 2.684-5.908 5.888v3.364c0 0.661 0.085 1.341 0.253 1.523 0.42 0.421 2.616 0.421 3.037 0 0.181-0.181 0.26-0.841 0.26-1.523v-3.444c0-1.261 1.021-2.284 2.284-2.284 4.807 0 8.693-3.887 8.693-8.693 0-2.884-1.421-5.488-3.707-7.089z"></path>
</svg>
