<!-- Generated by IcoMoon.io -->
<svg version="1.1" xmlns="http://www.w3.org/2000/svg" width="32" height="32" viewBox="0 0 32 32">
<title>gutenberg</title>
<path d="M19.252 15.144c-0.112-0.076-0.265-0.045-0.341 0.068-0.445 0.671-1.391 0.707-1.44 0.707-0.009 0-0.013 0-0.023 0-1.165 0-1.611 0.995-1.628 1.035-0.053 0.125 0.004 0.269 0.125 0.324 0.032 0.013 0.068 0.023 0.099 0.023 0.095 0 0.184-0.053 0.225-0.148 0.004-0.009 0.311-0.693 1.097-0.737v1.273c-0.032 0.275-0.161 0.491-0.392 0.652-0.239 0.167-0.557 0.252-0.949 0.252-0.468 0-0.851-0.161-1.133-0.481-0.288-0.32-0.432-0.773-0.432-1.359l0.004-1.404c0.023-0.517 0.161-0.927 0.428-1.219 0.288-0.32 0.665-0.481 1.133-0.481 0.392 0 0.711 0.085 0.949 0.252s0.373 0.396 0.396 0.693v0c0 0.009 0 0.023 0 0.032 0 0.171 0.14 0.311 0.311 0.311s0.311-0.14 0.311-0.311c0-0.009 0-0.023 0-0.032v0c-0.045-0.445-0.248-0.796-0.612-1.061-0.364-0.268-0.817-0.399-1.367-0.399-0.652 0-1.179 0.216-1.579 0.643-0.377 0.4-0.576 0.927-0.599 1.575v0 0c0 0.045-0.004 0.089-0.004 0.135l0.004 1.264h-0.004c0 0.715 0.203 1.287 0.603 1.713s0.927 0.643 1.579 0.643c0.549 0 1.003-0.131 1.368-0.396 0.333-0.243 0.531-0.563 0.599-0.959l0.013-1.412c0.409-0.099 0.967-0.324 1.319-0.855 0.088-0.111 0.057-0.264-0.060-0.34zM23.584 0.681h3.451c0.153 0 0.279-0.125 0.279-0.279s-0.125-0.279-0.279-0.279h-3.451c-0.153 0-0.279 0.125-0.279 0.279s0.125 0.279 0.279 0.279zM5.1 0.681h3.451c0.153 0 0.279-0.125 0.279-0.279s-0.127-0.279-0.279-0.279h-3.451c-0.153 0-0.279 0.125-0.279 0.279s0.121 0.279 0.279 0.279zM27.211 2.921c0.155 0 0.279 0.125 0.279 0.279 0 0.155-0.125 0.279-0.279 0.279-0.155 0-0.279-0.125-0.279-0.279-0.001-0.153 0.124-0.279 0.279-0.279zM15.987 2.044c0.155 0 0.279 0.125 0.279 0.279s-0.125 0.279-0.279 0.279-0.279-0.125-0.279-0.279 0.124-0.279 0.279-0.279zM10.813 3.205c0.004 0 0.009 0 0.013 0 1.048 0 1.516-0.657 1.872-1.268 0.117-0.203 0.549-0.877 1.16-1.052 0.756-0.22 1.561 0.131 1.876 0.819 0.045 0.099 0.144 0.157 0.243 0.161 0.004 0 0.009 0 0.013 0s0.009 0 0.017 0c0.099-0.004 0.197-0.063 0.243-0.161 0.315-0.688 1.12-1.039 1.876-0.819 0.612 0.18 1.044 0.851 1.16 1.052 0.356 0.616 0.823 1.268 1.885 1.268v0c0.639 0 1.395-0.477 1.605-1.391 0.176-0.756-0.148-1.44-0.855-1.785-0.14-0.068-0.305-0.013-0.373 0.125-0.068 0.14-0.013 0.305 0.125 0.373 0.671 0.333 0.612 0.923 0.557 1.16-0.108 0.468-0.521 0.963-1.067 0.963-0.697 0-1.031-0.351-1.404-0.995-0.184-0.315-0.697-1.080-1.484-1.309-0.859-0.252-1.768 0.049-2.289 0.711-0.521-0.661-1.431-0.963-2.289-0.711-0.787 0.229-1.3 0.995-1.484 1.309-0.373 0.643-0.707 0.995-1.391 0.995-0.004 0-0.009 0-0.009 0-0.593-0.004-0.972-0.419-1.080-0.828-0.053-0.193-0.167-0.855 0.589-1.304 0.131-0.076 0.176-0.248 0.095-0.383-0.079-0.129-0.244-0.175-0.38-0.093-0.868 0.517-1.003 1.336-0.841 1.929 0.199 0.733 0.851 1.228 1.616 1.233zM15.995 29.467h0.005zM4.664 2.921c0.155 0 0.279 0.125 0.279 0.279 0 0.155-0.125 0.279-0.279 0.279s-0.28-0.124-0.28-0.279c0-0.153 0.125-0.279 0.28-0.279zM3.881 0.128c0.155 0 0.279 0.125 0.279 0.279s-0.125 0.279-0.279 0.279-0.28-0.124-0.28-0.279 0.125-0.279 0.28-0.279zM28.2 0.128c0.155 0 0.279 0.125 0.279 0.279s-0.125 0.279-0.279 0.279-0.279-0.125-0.279-0.279 0.124-0.279 0.279-0.279zM29.693 18c0.155 0 0.279 0.125 0.279 0.279 0 0.155-0.125 0.279-0.279 0.279-0.155 0-0.279-0.125-0.279-0.279s0.124-0.279 0.279-0.279zM28.573 24.38c0.155 0 0.279 0.125 0.279 0.279 0 0.155-0.125 0.279-0.279 0.279s-0.279-0.125-0.279-0.279c0-0.155 0.124-0.279 0.279-0.279zM26.783 25.176c0.155 0 0.279 0.125 0.279 0.279 0 0.155-0.125 0.279-0.279 0.279-0.155 0-0.279-0.125-0.279-0.279 0-0.155 0.125-0.279 0.279-0.279zM10.232 1.451c0 0.413 0.337 0.751 0.751 0.751s0.751-0.337 0.751-0.751-0.336-0.752-0.749-0.752c-0.413-0.004-0.752 0.333-0.752 0.752zM10.984 1.252c0.108 0 0.197 0.089 0.197 0.197s-0.089 0.197-0.197 0.197-0.197-0.089-0.197-0.197c-0.001-0.107 0.089-0.197 0.197-0.197zM21.105 2.201c0.413 0 0.751-0.337 0.751-0.751s-0.337-0.751-0.751-0.751-0.751 0.337-0.751 0.751 0.337 0.751 0.751 0.751zM21.105 1.252c0.108 0 0.197 0.089 0.197 0.197s-0.089 0.197-0.197 0.197-0.197-0.089-0.197-0.197c0-0.107 0.089-0.197 0.197-0.197zM16.747 1.919c-0.144 0.053-0.216 0.212-0.161 0.356 0.053 0.144 0.212 0.216 0.356 0.167 0.045-0.017 1.124-0.377 1.952 0.909 0.053 0.081 0.144 0.125 0.233 0.125 0.049 0 0.104-0.013 0.148-0.045 0.131-0.081 0.167-0.256 0.085-0.383-0.864-1.336-2.087-1.323-2.613-1.129zM15.244 1.919c-0.040-0.013-0.409-0.144-0.913-0.068-0.468 0.068-1.139 0.333-1.696 1.201-0.081 0.131-0.045 0.301 0.085 0.383 0.045 0.032 0.099 0.045 0.148 0.045 0.089 0 0.18-0.045 0.233-0.125 0.823-1.287 1.903-0.927 1.952-0.909 0.144 0.053 0.301-0.023 0.356-0.167s-0.021-0.307-0.165-0.36zM28.043 2.679l1.355-1.539v2.217c0 0.153 0.125 0.279 0.279 0.279s0.279-0.125 0.279-0.279v-2.951c0-0.117-0.072-0.22-0.18-0.261s-0.229-0.009-0.305 0.076l-1.84 2.092c-0.104 0.117-0.089 0.292 0.027 0.392 0.108 0.104 0.283 0.091 0.387-0.027zM2.356 3.641c0.153 0 0.279-0.125 0.279-0.279v-2.219l1.355 1.539c0.103 0.117 0.279 0.127 0.391 0.028 0.117-0.104 0.125-0.279 0.027-0.392l-1.84-2.096c-0.076-0.085-0.197-0.117-0.305-0.077-0.108 0.041-0.18 0.144-0.18 0.261v2.956c0 0.152 0.121 0.279 0.275 0.279zM21.996 3.916c-0.131-0.009-0.252 0.081-0.284 0.207-0.032 0.131 0.032 0.265 0.148 0.32 0.441 0.207 0.841 0.288 1.201 0.288 0.688 0 1.237-0.301 1.62-0.616 0.612-0.504 0.927-1.139 0.94-1.165 0.063-0.131 0.017-0.288-0.108-0.36-0.284-0.167-0.773-0.269-1.52 0.184-0.373 0.229-0.661 0.504-0.711 0.553-0.684 0.603-1.255 0.589-1.287 0.589zM23.656 3.74c0.004-0.004 0.009-0.009 0.013-0.013 0.212-0.212 0.809-0.701 1.277-0.724-0.135 0.193-0.337 0.455-0.612 0.684-0.405 0.333-0.837 0.495-1.296 0.485 0.191-0.099 0.401-0.243 0.617-0.432zM6.611 2.588c-0.125 0.072-0.171 0.231-0.107 0.36 0.013 0.027 0.328 0.661 0.94 1.165 0.383 0.315 0.927 0.616 1.62 0.616 0.364 0 0.765-0.081 1.201-0.288 0.121-0.059 0.18-0.189 0.148-0.32-0.032-0.129-0.149-0.215-0.284-0.211-0.023 0-0.599 0.017-1.283-0.585-0.049-0.048-0.337-0.323-0.711-0.552-0.747-0.451-1.241-0.347-1.525-0.185zM8.473 3.74c0.212 0.189 0.423 0.328 0.616 0.432-0.972 0.009-1.615-0.733-1.908-1.169 0.468 0.023 1.067 0.513 1.277 0.724 0.007 0.004 0.011 0.009 0.015 0.013zM30.021 26.345c-0.279-0.233-0.585-0.369-0.868-0.445 0.108-0.081 0.212-0.176 0.301-0.279 0.688-0.809 0.693-2.001 0.009-2.776-0.104-0.117-0.279-0.125-0.392-0.023-0.117 0.104-0.125 0.279-0.023 0.392 0.5 0.567 0.491 1.444-0.017 2.047-0.413 0.485-1.201 0.603-1.435 0.629-0.707 0.076-1.499 0.239-1.925 1.205-0.068 0.148-0.108 0.315-0.117 0.495-0.099-0.032-0.207-0.049-0.315-0.049-0.563 0-1.021 0.459-1.021 1.021 0 0.387 0.216 0.724 0.535 0.895-0.095 0.085-0.184 0.18-0.265 0.288-0.945-1.273-2.456-2.073-4.12-2.073-0.239 0-0.477 0.017-0.707 0.049 1.368-0.419 2.64-1.071 3.801-1.935v0c1.499-1.12 2.744-2.583 3.599-4.224 0.9-1.728 1.355-3.595 1.355-5.537 0-0.013 0-0.023 0-0.036 0-0.004 0-0.004 0-0.009s0-0.009 0-0.013c-0.009-1.579-0.36-3-0.859-4.224 0.184 0.036 0.36 0.049 0.517 0.049 1.165 0 1.677-0.801 1.732-0.895v0c0.252-0.423 0.292-0.936 0.148-1.399 0.004-0.013 0.004-0.032 0.004-0.049v-5.071c0-0.153-0.125-0.279-0.279-0.279s-0.279 0.125-0.279 0.279v4.26c-0.472-0.409-1.156-0.455-1.44-0.455-0.549 0.004-0.891-0.081-1.143-0.513-0.212-0.364-0.089-0.743 0.121-0.959 0.265-0.269 0.643-0.305 1.012-0.104 0.135 0.072 0.305 0.027 0.377-0.108s0.027-0.305-0.108-0.377c-0.585-0.324-1.241-0.243-1.677 0.197-0.432 0.441-0.513 1.093-0.207 1.624 0.4 0.688 1.008 0.787 1.605 0.787 0.009 0 0.013 0 0.023 0 0.18 0 0.76 0.027 1.093 0.341 0.432 0.409 0.544 1.052 0.261 1.529 0 0-0.004 0.004-0.004 0.009-0.023 0.040-0.557 0.949-2.051 0.472-0.449-0.953-0.972-1.764-1.457-2.411l-0.221 0.169 0.22-0.171-0.089-0.117c-0.959-1.605 0.148-3.316 0.724-4.040l0.324-0.369c0.099-0.117 0.089-0.292-0.027-0.392-0.112-0.095-0.275-0.089-0.377 0.013v0c-0.009 0.009-0.059 0.059-0.135 0.144-0.5 0.508-2.452 2.308-4.345 1.368l-0.053-0.036-0.027-0.017c-1.696-0.913-3.369-1.44-4.967-1.575-0.207-0.472-0.481-0.832-0.828-0.832-0.351 0-0.625 0.364-0.837 0.845-2.236 0.099-5.016 1.543-5.133 1.601-1.904 0.96-3.865-0.849-4.365-1.357-0.076-0.085-0.131-0.135-0.135-0.144v0c-0.104-0.104-0.265-0.108-0.377-0.013-0.117 0.099-0.125 0.275-0.027 0.392v0 0 0l0.347 0.392c0.201 0.251 0.457 0.615 0.673 1.051 0.54 1.093 0.549 2.087 0.032 2.96-0.644 0.801-1.165 1.643-1.565 2.529-1.507 0.491-2.047-0.428-2.069-0.468 0-0.004-0.004-0.004-0.004-0.009-0.284-0.477-0.172-1.12 0.26-1.529 0.333-0.315 0.913-0.341 1.093-0.341h0.004c0.603 0 1.224-0.095 1.624-0.787 0.307-0.532 0.225-1.189-0.207-1.625-0.436-0.445-1.093-0.521-1.677-0.197-0.136 0.072-0.185 0.243-0.108 0.377 0.072 0.135 0.243 0.184 0.377 0.108 0.373-0.203 0.751-0.167 1.012 0.104 0.212 0.216 0.329 0.593 0.121 0.957-0.247 0.428-0.584 0.513-1.124 0.513-0.004 0-0.009 0-0.017 0-0.248 0-0.823 0.036-1.283 0.333v-4.063c0-0.153-0.125-0.279-0.279-0.279s-0.279 0.125-0.279 0.279v4.679c-0.307 0.548-0.324 1.219-0.009 1.759 0.031 0.059 0.224 0.383 0.656 0.625 0.248 0.139 0.603 0.269 1.076 0.269 0.171 0 0.36-0.017 0.563-0.059-0.485 1.304-0.729 2.708-0.737 4.237 0 0.004 0 0.004 0 0.009v0.004c0 0.013 0 0.027 0 0.036 0 2.763 0.972 5.475 2.735 7.639 1.561 1.916 3.684 3.337 6.037 4.063-0.248-0.036-0.5-0.053-0.751-0.053-1.651 0-3.149 0.787-4.093 2.043-0.076-0.099-0.161-0.193-0.256-0.275 0.297-0.18 0.5-0.504 0.5-0.877 0-0.563-0.459-1.021-1.021-1.021-0.104 0-0.203 0.017-0.297 0.045-0.013-0.176-0.053-0.341-0.117-0.491-0.432-0.967-1.219-1.129-1.925-1.205-0.233-0.027-1.021-0.144-1.435-0.629-0.521-0.589-0.531-1.467-0.032-2.033 0.104-0.117 0.089-0.292-0.023-0.392-0.117-0.104-0.292-0.089-0.392 0.023-0.679 0.773-0.675 1.965 0.009 2.776 0.089 0.108 0.193 0.197 0.301 0.279-0.284 0.076-0.589 0.216-0.868 0.445-0.661 0.544-0.999 1.453-1.008 2.691-0.023 0.112 0.027 0.229 0.125 0.292 0.045 0.027 0.095 0.040 0.144 0.040 0.017 0 0.040-0.004 0.059-0.009h0.004c0.009 0 0.013-0.004 0.023-0.009 0.013-0.004 0.032-0.009 0.045-0.017 0.004 0 0.004-0.004 0.009-0.004 0.045-0.027 0.085-0.063 0.112-0.108 0.108-0.14 0.553-0.315 0.923-0.392 1.444-0.315 1.745-1.291 1.7-1.759-0.013-0.153-0.148-0.265-0.301-0.252s-0.265 0.148-0.252 0.301c0 0.004 0.004 0.085-0.023 0.207-0.068 0.279-0.315 0.76-1.241 0.963-0.004 0-0.004 0-0.009 0-0.108 0.023-0.432 0.099-0.733 0.239 0.081-0.801 0.337-1.385 0.773-1.749 0.671-0.557 1.556-0.4 1.565-0.396 0.032 0.004 0.059 0.004 0.085 0 0.148 0.032 0.275 0.049 0.369 0.059 0.743 0.081 1.196 0.243 1.48 0.877 0.22 0.5-0.063 1.075-0.445 1.363-0.193 0.148-0.711 0.441-1.291-0.036-0.117-0.099-0.292-0.081-0.392 0.036-0.099 0.117-0.081 0.292 0.036 0.392 0.261 0.216 0.553 0.341 0.855 0.377-0.387 0.315-0.648 0.711-0.765 0.917-0.377 0.652-0.684 1.003-1.192 1.008v-1.948c0-0.153-0.125-0.279-0.279-0.279s-0.279 0.125-0.279 0.279v2.259c0 0.112 0.068 0.207 0.161 0.252 0.049 0.036 0.108 0.063 0.171 0.063h6.477c0.099 0 0.18-0.049 0.233-0.125 0.036-0.036 0.068-0.081 0.081-0.135 0.256-0.995 1.152-1.687 2.177-1.687 0.917 0 1.732 0.557 2.079 1.391h-0.592c-0.243-0.599-0.828-0.999-1.489-0.999-0.724 0-1.363 0.491-1.556 1.188-0.040 0.148 0.049 0.301 0.193 0.341 0.148 0.040 0.301-0.049 0.341-0.193 0.125-0.459 0.544-0.779 1.017-0.779 0.351 0 0.665 0.171 0.859 0.441h-0.163c-0.153 0-0.279 0.125-0.279 0.279s0.125 0.279 0.279 0.279h0.563c0.009-0.001 0.023 0.003 0.032 0.003 0.013 0 0.027 0 0.036-0.004h1.116c0.153 0 0.279-0.125 0.279-0.279 0-0.013 0-0.027-0.004-0.040 0.004-0.036 0.004-0.076-0.004-0.117-0.328-1.219-1.444-2.069-2.708-2.069-1.224 0-2.299 0.792-2.672 1.948h-1.453c0.117-0.373 0.275-0.72 0.472-1.044 0.013-0.017 0.023-0.036 0.036-0.053 0.823-1.291 2.263-2.119 3.86-2.119 0.945 0 1.853 0.288 2.623 0.828 0.023 0.013 0.045 0.027 0.068 0.032 0.117 0.14 0.233 0.288 0.347 0.441 0.027 0.036 0.049 0.072 0.076 0.108-0.027 0.571 0.284 1.169 0.927 1.781 0.023 0.068 0.045 0.125 0.059 0.171v0.059c0 0.153 0.125 0.279 0.279 0.279 0.131 0 0.233-0.085 0.265-0.207v0c0-0.004 0.040-0.14 0.121-0.364 0.58-0.567 0.868-1.12 0.864-1.656 0.036-0.053 0.076-0.112 0.117-0.167 0.125-0.171 0.256-0.337 0.392-0.495 0.765-0.531 1.66-0.809 2.596-0.809 2.016 0 3.779 1.313 4.364 3.216h-1.453c-0.369-1.156-1.444-1.948-2.672-1.948-1.264 0-2.375 0.851-2.708 2.069-0.013 0.045-0.013 0.089 0 0.135 0 0.009 0 0.013 0 0.023 0 0.153 0.125 0.279 0.279 0.279h2.439c0.153 0 0.279-0.125 0.279-0.279s-0.125-0.279-0.279-0.279h-0.887c0.193-0.269 0.508-0.441 0.859-0.441 0.481 0 0.9 0.324 1.021 0.792 0.032 0.125 0.144 0.207 0.269 0.207 0.023 0 0.045-0.004 0.068-0.009 0.148-0.036 0.239-0.189 0.203-0.337-0.184-0.711-0.823-1.211-1.561-1.211-0.657 0-1.241 0.4-1.489 0.999h-0.563c0.341-0.832 1.16-1.391 2.079-1.391 1.025 0 1.921 0.693 2.177 1.687 0.004 0.023 0.017 0.045 0.027 0.068 0.036 0.112 0.14 0.193 0.265 0.193h6.6c0.153 0 0.279-0.125 0.279-0.279 0-0.004 0-0.013 0-0.017s0-0.013 0-0.017v-0.053c0.004-0.027 0.004-0.053 0.004-0.081 0-0.004 0-0.009-0.004-0.013v-2.109c0-0.153-0.125-0.279-0.279-0.279s-0.279 0.125-0.279 0.279v1.889c-0.468-0.036-0.76-0.383-1.12-1.003-0.117-0.197-0.36-0.571-0.72-0.877 0.248-0.053 0.485-0.171 0.707-0.356 0.117-0.099 0.135-0.275 0.036-0.392s-0.275-0.135-0.392-0.036c-0.576 0.477-1.093 0.184-1.291 0.036-0.383-0.288-0.665-0.868-0.445-1.363 0.284-0.635 0.737-0.801 1.48-0.877 0.095-0.009 0.22-0.027 0.369-0.059 0.027 0.004 0.059 0.004 0.089 0 0.009 0 0.887-0.161 1.561 0.396 0.441 0.364 0.701 0.949 0.779 1.755-0.305-0.144-0.635-0.22-0.737-0.243-0.004 0-0.004 0-0.009 0-0.923-0.203-1.175-0.679-1.241-0.959-0.027-0.117-0.027-0.197-0.023-0.207 0.013-0.153-0.099-0.288-0.252-0.301s-0.288 0.099-0.301 0.252c-0.045 0.472 0.256 1.444 1.705 1.759 0.373 0.081 0.845 0.265 0.931 0.405 0 0 0 0.004 0.004 0.004 0.013 0.017 0.027 0.036 0.040 0.049 0.004 0.004 0.009 0.004 0.013 0.009 0.013 0.009 0.027 0.023 0.040 0.027 0.004 0.004 0.013 0.009 0.017 0.009 0.013 0.009 0.027 0.013 0.040 0.017 0.004 0 0.013 0.004 0.017 0.004 0.017 0.004 0.040 0.009 0.063 0.009v0c0.017 0 0.032 0 0.049-0.004 0.004 0 0.009 0 0.013-0.004 0.013-0.004 0.027-0.009 0.045-0.013h0.004c0.013-0.004 0.023-0.013 0.036-0.017l0.004-0.004c0.009-0.004 0.017-0.013 0.023-0.017 0.004-0.004 0.013-0.009 0.017-0.017 0.004-0.004 0.013-0.013 0.017-0.017 0.004-0.009 0.013-0.013 0.017-0.023s0.009-0.013 0.013-0.023 0.009-0.013 0.013-0.023 0.004-0.017 0.009-0.027c0.004-0.009 0.004-0.017 0.009-0.027 0-0.009 0.004-0.017 0.004-0.023 0-0.009 0.004-0.017 0.004-0.032v-0.011c-0.001-1.272-0.343-2.195-1.013-2.748zM6.679 31.433h-2.928c0.248-0.252 0.423-0.553 0.557-0.787 0.117-0.203 0.549-0.877 1.16-1.052 0.72-0.212 1.395 0.036 1.728 0.607-0.22 0.381-0.396 0.796-0.517 1.232zM6.755 29.017c-0.256 0-0.464-0.207-0.464-0.464s0.207-0.464 0.464-0.464c0.256 0 0.464 0.207 0.464 0.464s-0.212 0.464-0.464 0.464zM23.247 25.504v0l0.040 0.049zM23.256 25.225c-2.627-0.305-4.525 0.823-5.659 1.821-0.491 0.432-0.877 0.877-1.169 1.255-0.053-0.036-0.104-0.072-0.148-0.095v-0.792c2.128-2.137 4.243-2.776 5.645-2.933 0.931-0.104 1.683-0.017 2.132 0.068-0.257 0.24-0.523 0.464-0.801 0.676zM26.553 21.303c-0.269 0.517-0.58 1.012-0.923 1.489-0.356-0.112-0.801-0.216-1.336-0.265 1.192-1.512 1.948-3.316 2.191-5.219 0.387-0.045 0.923-0.212 1.332-0.477-0.108 1.561-0.531 3.064-1.264 4.472zM24.66 16.283l0.324-0.013c0.108 0.481 0.472 0.868 0.949 0.999-0.252 1.925-1.052 3.743-2.331 5.227-0.616 0-1.332 0.072-2.141 0.248 1.889-1.539 3.121-3.856 3.199-6.46zM19.373 23.389c-0.18 0.072-0.305 0.131-0.369 0.157-0.747 0.297-1.548 0.491-2.384 0.553l7.463-7.463c-0.224 3.005-2.096 5.552-4.709 6.752zM27.844 15.981c-0.009 0.252-0.697 0.661-1.304 0.76-0.085 0.013-0.171 0.023-0.252 0.023-0.108 0-0.212-0.023-0.305-0.063-0.284-0.121-0.481-0.4-0.481-0.724s0.197-0.603 0.481-0.724c0.095-0.040 0.197-0.063 0.305-0.063 0.081 0 0.167 0.009 0.252 0.023 0.607 0.099 1.291 0.508 1.304 0.756 0 0.003 0 0.007 0 0.012zM25.24 8.864l0.117 0.157c1.021 1.363 2.217 3.473 2.447 6.1-0.405-0.261-0.936-0.428-1.319-0.472-0.288-2.276-1.3-4.332-2.799-5.92 0.063-0.131 0.099-0.279 0.099-0.432 0-0.207-0.063-0.4-0.167-0.557l1.277-1.457c-0.241 0.925-0.124 1.803 0.344 2.581zM21.511 5.711l0.059 0.040 0.031 0.019c0.445 0.225 0.923 0.337 1.417 0.337 0.521 0 1.067-0.125 1.615-0.377l-1.44 1.641c-0.131-0.063-0.275-0.095-0.432-0.095-0.203 0-0.387 0.059-0.544 0.157-1.417-1.035-3.095-1.723-4.921-1.948-0.045-0.328-0.135-0.796-0.269-1.255 1.444 0.161 2.951 0.657 4.485 1.48zM23.229 8.297c0 0.203-0.135 0.377-0.32 0.441-0.045 0.013-0.095 0.023-0.144 0.023-0.013 0-0.032 0-0.045 0-0.207-0.017-0.373-0.176-0.409-0.373-0.004-0.027-0.009-0.059-0.009-0.085 0-0.032 0.004-0.059 0.009-0.089 0.040-0.203 0.212-0.36 0.423-0.373 0.009 0 0.023 0 0.032 0s0.017 0 0.027 0c0.207 0.013 0.383 0.161 0.428 0.36 0.004 0.027 0.009 0.049 0.009 0.076-0.005 0.003 0 0.012 0 0.021zM17.317 6.052c1.673 0.22 3.221 0.859 4.531 1.804-0.068 0.135-0.104 0.284-0.104 0.445 0 0.203 0.059 0.387 0.161 0.549l-2.24 2.555c-0.104 0.117-0.089 0.292 0.027 0.392 0.053 0.045 0.117 0.068 0.184 0.068 0.076 0 0.153-0.032 0.212-0.095l2.236-2.551c0.135 0.068 0.284 0.104 0.445 0.104 0.207 0 0.396-0.063 0.553-0.167 1.395 1.493 2.335 3.409 2.613 5.533-0.481 0.135-0.855 0.531-0.953 1.025l-0.32 0.013c-0.068-2.056-0.864-4.017-2.253-5.543-0.104-0.112-0.279-0.121-0.392-0.017-0.112 0.104-0.121 0.279-0.017 0.392 1.224 1.34 1.952 3.041 2.092 4.84l-2.992-2.983c-0.108-0.108-0.284-0.108-0.392 0s-0.108 0.284 0 0.392l3.212 3.212-7.917 7.917-7.917-7.917 3.185-3.185c0.108-0.108 0.108-0.284 0-0.392s-0.284-0.108-0.392 0l-2.953 2.955c0.157-2.047 1.075-3.887 2.475-5.227l1.395 1.592c0.053 0.063 0.131 0.095 0.212 0.095 0.063 0 0.131-0.023 0.184-0.068 0.117-0.104 0.125-0.279 0.027-0.392l-1.4-1.596c1.26-1.052 2.839-1.732 4.571-1.863l-2.375 2.353c-0.108 0.108-0.108 0.284 0 0.392 0.053 0.053 0.125 0.081 0.197 0.081s0.14-0.027 0.197-0.081l2.609-2.583 2.533 2.533c0.108 0.108 0.284 0.108 0.392 0s0.108-0.284 0-0.392l-2.303-2.303c1.427 0.108 2.784 0.585 3.968 1.399 0.125 0.085 0.301 0.053 0.387-0.072s0.053-0.301-0.072-0.387c-1.368-0.94-2.96-1.463-4.624-1.512v-0.199c0.52-0.125 0.939-0.571 1.019-1.12zM9.189 9.395c0.157 0 0.305-0.036 0.436-0.099l0.4 0.459c-1.588 1.516-2.6 3.625-2.681 5.969l-0.225-0.013c-0.108-0.527-0.517-0.94-1.044-1.048 0.275-2.083 1.192-3.963 2.541-5.439 0.168 0.108 0.361 0.171 0.573 0.171zM8.725 8.379c0-0.023 0-0.040 0.004-0.063 0-0.013 0.004-0.023 0.004-0.036 0.040-0.197 0.212-0.351 0.419-0.364 0.009 0 0.017 0 0.023 0s0.004 0 0.009 0c0.212 0 0.392 0.144 0.445 0.341 0.009 0.040 0.017 0.081 0.017 0.121 0 0.032-0.004 0.063-0.009 0.095-0.040 0.197-0.212 0.351-0.419 0.364-0.013 0-0.023 0-0.036 0-0.059 0-0.117-0.013-0.167-0.032-0.164-0.063-0.291-0.233-0.291-0.427zM7.115 16.268l0.229 0.013c0.076 2.609 1.313 4.931 3.208 6.469-0.815-0.18-1.529-0.252-2.151-0.256-1.268-1.48-2.073-3.288-2.325-5.205 0.517-0.108 0.927-0.508 1.039-1.021zM7.92 16.637l7.463 7.463c-3.976-0.301-7.161-3.485-7.463-7.463zM15.24 5.436c0.121-0.841 0.535-1.965 0.751-2.056 0.248 0.095 0.629 1.26 0.747 2.051 0.023 0.159 0.036 0.303 0.036 0.42 0 0.049-0.004 0.095-0.013 0.14-0.068 0.364-0.387 0.643-0.773 0.643s-0.707-0.279-0.773-0.643c-0.009-0.045-0.013-0.095-0.013-0.14 0.004-0.123 0.017-0.261 0.040-0.415zM15.725 7.168v0.193c-2.007 0.063-3.841 0.815-5.281 2.020l-0.396-0.455c0.104-0.157 0.167-0.351 0.167-0.553 0-0.171-0.045-0.333-0.117-0.472 1.319-0.967 2.879-1.62 4.575-1.849 0.077 0.559 0.504 1.008 1.053 1.116zM8.856 6.107c0.495 0 0.972-0.112 1.421-0.337 0.027-0.013 2.596-1.349 4.673-1.529-0.135 0.455-0.225 0.927-0.269 1.251-1.848 0.229-3.553 0.944-4.98 2.005-0.152-0.089-0.324-0.139-0.512-0.139-0.157 0-0.305 0.036-0.436 0.099l-1.512-1.723c0.553 0.247 1.093 0.373 1.615 0.373zM6.611 8.891l0.023-0.032c0.468-0.773 0.585-1.656 0.351-2.583l1.349 1.543c-0.103 0.159-0.165 0.352-0.165 0.555 0 0.148 0.032 0.288 0.089 0.419-1.471 1.584-2.461 3.617-2.744 5.867-0.4 0.063-0.931 0.233-1.332 0.491 0.159-2.376 0.955-4.432 2.429-6.259zM4.16 15.972c0.009-0.261 0.733-0.621 1.304-0.737 0.125-0.027 0.243-0.040 0.341-0.040 0.076 0 0.144 0.009 0.216 0.032 0.328 0.095 0.571 0.396 0.571 0.756s-0.243 0.661-0.571 0.756c-0.068 0.017-0.14 0.032-0.216 0.032-0.104 0-0.22-0.013-0.341-0.040-0.571-0.121-1.296-0.481-1.304-0.743 0-0.012 0-0.012 0-0.016zM4.187 16.8c0.4 0.261 0.936 0.432 1.332 0.495 0.239 1.908 0.995 3.716 2.191 5.227-0.535 0.049-0.981 0.148-1.34 0.261-1.292-1.772-2.039-3.82-2.183-5.983zM6.769 23.304c-0.013-0.017-0.027-0.032-0.040-0.049 1.355-0.373 2.835-0.176 3.873 0.072 1.255 0.301 2.173 0.737 2.181 0.743l0.004-0.009c0.995 0.396 2.079 0.616 3.212 0.616 1.129 0 2.209-0.216 3.199-0.612v0c0 0 0.009-0.004 0.027-0.013 0.117-0.049 0.239-0.099 0.351-0.153 0.383-0.157 1.025-0.392 1.8-0.576 1.048-0.252 2.533-0.449 3.887-0.072-0.233 0.288-0.477 0.563-0.737 0.828-0.377-0.104-1.34-0.301-2.64-0.161-1.412 0.153-3.491 0.756-5.615 2.717v-0.491c0-0.153-0.125-0.279-0.279-0.279s-0.279 0.125-0.279 0.279v0.464c-2.109-1.939-4.179-2.537-5.583-2.691-1.332-0.144-2.308 0.072-2.663 0.171-0.236-0.243-0.475-0.508-0.699-0.783zM7.952 24.555c0.449-0.089 1.211-0.18 2.159-0.072 2.497 0.279 4.413 1.705 5.615 2.901v0.815c-0.040 0.023-0.085 0.049-0.135 0.085-0.292-0.373-0.675-0.809-1.156-1.232-1.133-1.003-3.041-2.137-5.677-1.821v0.004c-0.279-0.216-0.549-0.441-0.805-0.68zM14.939 28.964c-0.527-0.675-1.103-1.183-1.677-1.565l0.004-0.013c-0.013-0.004-0.027-0.009-0.040-0.009-0.959-0.625-1.921-0.9-2.695-1.012-0.364-0.189-0.724-0.4-1.071-0.629 1.696-0.049 3.235 0.527 4.593 1.719 0.468 0.409 0.837 0.832 1.116 1.196-0.087 0.093-0.164 0.197-0.231 0.315zM16.283 30.651c-0.068 0.081-0.14 0.161-0.22 0.243-0.017 0.017-0.040 0.040-0.063 0.059l-0.008 0.008v-0.009c-0.009-0.009-0.023-0.017-0.032-0.032-0.089-0.085-0.167-0.171-0.239-0.256-0.328-0.392-0.472-0.756-0.423-1.088 0.004-0.027 0.009-0.053 0.017-0.081 0.036-0.144 0.104-0.269 0.184-0.377 0.068-0.089 0.144-0.167 0.22-0.233 0.068-0.059 0.135-0.108 0.193-0.148 0.027-0.017 0.049-0.032 0.072-0.045 0 0 0.004 0 0.004-0.004h0.004c0.032 0.017 0.063 0.040 0.104 0.068 0.053 0.036 0.117 0.085 0.18 0.14 0.081 0.072 0.161 0.157 0.229 0.252 0.081 0.117 0.148 0.248 0.176 0.396 0 0.009 0.004 0.023 0.009 0.032 0.051 0.325-0.089 0.685-0.409 1.077zM17.381 28.621c-0.009 0.009-0.017 0.017-0.023 0.027-0.104 0.117-0.197 0.233-0.284 0.347-0.068-0.117-0.144-0.225-0.225-0.32 0.279-0.364 0.657-0.801 1.133-1.219 1.349-1.188 2.884-1.764 4.567-1.723-0.351 0.229-0.711 0.445-1.080 0.635-1.925 0.292-3.243 1.291-4.088 2.253zM25.231 28.091c0.256 0 0.464 0.207 0.464 0.464s-0.207 0.464-0.464 0.464-0.464-0.207-0.464-0.464c0.001-0.252 0.208-0.464 0.464-0.464zM26.635 29.535c0.612 0.18 1.044 0.851 1.16 1.052 0.144 0.252 0.337 0.585 0.621 0.845h-3.109c-0.117-0.423-0.284-0.823-0.495-1.192 0.343-0.611 1.107-0.916 1.823-0.705zM2.932 9.993c0 0.455 0.369 0.828 0.828 0.828s0.827-0.369 0.827-0.828c0-0.455-0.369-0.828-0.828-0.828s-0.827 0.373-0.827 0.828zM4.029 9.993c0 0.148-0.121 0.269-0.269 0.269s-0.269-0.121-0.269-0.269 0.121-0.269 0.269-0.269c0.148-0.001 0.269 0.121 0.269 0.269zM28.983 9.993c0-0.455-0.369-0.828-0.828-0.828-0.455 0-0.828 0.369-0.828 0.828 0 0.455 0.369 0.828 0.828 0.828s0.828-0.369 0.828-0.828zM27.885 9.993c0-0.148 0.121-0.269 0.269-0.269s0.269 0.121 0.269 0.269-0.121 0.269-0.269 0.269c-0.148 0.005-0.269-0.116-0.269-0.269zM29.779 12.053c-0.104-0.040-0.225-0.017-0.305 0.063-0.364 0.373-0.963 0.36-0.972 0.36-0.004 0-0.009 0-0.009 0-0.148 0-0.269 0.117-0.279 0.265-0.004 0.153 0.112 0.284 0.265 0.288 0.027 0 0.468 0.013 0.917-0.193v4.539c0 0.153 0.125 0.279 0.279 0.279s0.279-0.125 0.279-0.279v-5.065c-0.004-0.112-0.071-0.216-0.175-0.256zM2.307 17.655c0.153 0 0.279-0.125 0.279-0.279v-4.54c0.449 0.207 0.891 0.193 0.917 0.193 0.153-0.004 0.275-0.135 0.265-0.288-0.004-0.152-0.135-0.273-0.288-0.265-0.004 0-0.607 0.013-0.972-0.36-0.080-0.080-0.197-0.103-0.305-0.063-0.104 0.040-0.171 0.144-0.171 0.256v5.069c-0.005 0.155 0.121 0.276 0.275 0.276zM29.999 22.283c0-0.153-0.125-0.279-0.279-0.279h-1.8c-0.153 0-0.279 0.125-0.279 0.279s0.125 0.279 0.279 0.279h1.8c0.153 0.001 0.279-0.121 0.279-0.279zM28.132 23.349c0.153 0 0.279-0.125 0.279-0.279s-0.125-0.279-0.279-0.279h-0.693c-0.153 0-0.279 0.125-0.279 0.279s0.125 0.279 0.279 0.279zM28.807 23.863c0-0.153-0.125-0.279-0.279-0.279h-1.719c-0.153 0-0.279 0.125-0.279 0.279s0.125 0.279 0.279 0.279h1.719c0.153 0 0.279-0.121 0.279-0.279zM27.719 24.659c0-0.153-0.125-0.279-0.279-0.279h-1.345c-0.153 0-0.279 0.125-0.279 0.279s0.125 0.279 0.279 0.279h1.345c0.152 0 0.279-0.125 0.279-0.279zM25.221 25.176c-0.153 0-0.279 0.125-0.279 0.279s0.125 0.279 0.279 0.279h0.765c0.153 0 0.279-0.125 0.279-0.279s-0.125-0.279-0.279-0.279zM29.72 20.416h-1.003c-0.153 0-0.279 0.125-0.279 0.279s0.125 0.279 0.279 0.279h1.003c0.153 0 0.279-0.125 0.279-0.279 0-0.152-0.125-0.279-0.279-0.279zM29.72 21.212h-1.399c-0.153 0-0.279 0.125-0.279 0.279s0.125 0.279 0.279 0.279h1.399c0.153 0 0.279-0.125 0.279-0.279s-0.125-0.279-0.279-0.279zM29.72 18.828h-0.445c-0.153 0-0.279 0.125-0.279 0.279s0.125 0.279 0.279 0.279h0.445c0.153 0 0.279-0.125 0.279-0.279 0-0.152-0.125-0.279-0.279-0.279zM29.72 19.624h-0.684c-0.153 0-0.279 0.125-0.279 0.279s0.125 0.279 0.279 0.279h0.684c0.153 0 0.279-0.125 0.279-0.279 0-0.152-0.125-0.279-0.279-0.279zM2.297 18.015c0.155 0 0.279 0.125 0.279 0.279 0 0.155-0.125 0.279-0.279 0.279-0.155 0-0.279-0.125-0.279-0.279 0-0.155 0.124-0.279 0.279-0.279zM3.421 24.388c0.155 0 0.279 0.125 0.279 0.279 0 0.155-0.125 0.279-0.279 0.279-0.155 0-0.279-0.125-0.279-0.279s0.125-0.279 0.279-0.279zM5.212 25.185c0.155 0 0.279 0.125 0.279 0.279 0 0.155-0.125 0.279-0.279 0.279s-0.279-0.125-0.279-0.279c0-0.155 0.125-0.279 0.279-0.279zM2.271 22.571h1.8c0.153 0 0.279-0.125 0.279-0.279s-0.127-0.279-0.28-0.279h-1.8c-0.153 0-0.279 0.125-0.279 0.279 0 0.157 0.127 0.279 0.28 0.279zM4.551 22.805h-0.693c-0.153 0-0.279 0.125-0.279 0.279s0.125 0.279 0.279 0.279h0.693c0.153 0 0.279-0.125 0.279-0.279s-0.125-0.279-0.279-0.279zM5.181 23.597h-1.719c-0.153 0-0.279 0.125-0.279 0.279s0.125 0.279 0.279 0.279h1.719c0.153 0 0.279-0.125 0.279-0.279 0-0.157-0.127-0.279-0.279-0.279zM5.896 24.388h-1.345c-0.153 0-0.279 0.125-0.279 0.279s0.125 0.279 0.279 0.279h1.345c0.153 0 0.279-0.125 0.279-0.279 0-0.152-0.125-0.279-0.279-0.279zM5.725 25.464c0 0.153 0.125 0.279 0.279 0.279h0.765c0.153 0 0.279-0.125 0.279-0.279s-0.125-0.279-0.279-0.279h-0.765c-0.153 0-0.279 0.125-0.279 0.279zM2.271 20.983h1.003c0.153 0 0.279-0.125 0.279-0.279s-0.125-0.279-0.279-0.279h-1.003c-0.153 0-0.279 0.125-0.279 0.279-0.001 0.153 0.125 0.279 0.279 0.279zM2.271 21.78h1.399c0.153 0 0.279-0.125 0.279-0.279s-0.125-0.279-0.279-0.279h-1.399c-0.153 0-0.279 0.125-0.279 0.279s0.125 0.279 0.279 0.279zM2.271 19.395h0.445c0.153 0 0.279-0.125 0.279-0.279s-0.125-0.279-0.279-0.279h-0.445c-0.153 0-0.279 0.125-0.279 0.279s0.125 0.279 0.279 0.279zM2.271 20.187h0.684c0.153 0 0.279-0.125 0.279-0.279s-0.125-0.279-0.279-0.279h-0.684c-0.153 0-0.279 0.125-0.279 0.279-0.001 0.157 0.125 0.279 0.279 0.279zM15.995 30.956v0c0.004-0.004 0-0.004 0-0.009zM28.645 5.567c0.004 0 0.004 0 0 0 0.125 0 0.239-0.085 0.269-0.212 0.099-0.396 0.059-0.733-0.131-1.012-0.301-0.449-0.855-0.535-0.917-0.544-0.144-0.017-0.279 0.072-0.311 0.216-0.104 0.472-0.045 0.851 0.18 1.129 0.333 0.404 0.855 0.419 0.909 0.423zM28.331 4.657c0.053 0.085 0.085 0.184 0.085 0.301-0.081-0.032-0.171-0.081-0.233-0.161-0.072-0.089-0.108-0.207-0.108-0.356 0.089 0.045 0.188 0.117 0.256 0.216zM26.837 1.545c-0.301-0.449-0.855-0.535-0.917-0.544-0.144-0.017-0.279 0.072-0.311 0.216-0.104 0.472-0.045 0.851 0.18 1.129 0.324 0.405 0.845 0.419 0.904 0.419v0c0.125 0 0.239-0.085 0.269-0.212 0.104-0.388 0.063-0.729-0.125-1.008zM26.229 1.999c-0.072-0.089-0.108-0.207-0.108-0.356 0.095 0.045 0.193 0.117 0.256 0.216 0.053 0.085 0.085 0.184 0.085 0.301-0.080-0.031-0.171-0.080-0.233-0.161zM4.177 3.799c-0.063 0.009-0.612 0.095-0.917 0.544-0.184 0.279-0.229 0.616-0.131 1.012 0.032 0.121 0.144 0.212 0.271 0.212v0c0.059 0 0.58-0.013 0.904-0.419 0.224-0.279 0.283-0.661 0.18-1.129-0.028-0.144-0.163-0.237-0.307-0.22zM3.876 4.797c-0.063 0.081-0.153 0.131-0.239 0.161 0-0.117 0.032-0.22 0.085-0.301 0.068-0.099 0.167-0.171 0.256-0.216 0.001 0.149-0.035 0.267-0.103 0.356zM6.085 1c-0.063 0.009-0.612 0.095-0.919 0.545-0.184 0.279-0.229 0.616-0.129 1.012 0.031 0.121 0.144 0.211 0.269 0.211v0c0.059 0 0.58-0.013 0.904-0.419 0.225-0.279 0.284-0.661 0.18-1.129-0.031-0.143-0.161-0.237-0.305-0.22zM5.779 1.999c-0.063 0.081-0.152 0.131-0.237 0.163 0-0.117 0.032-0.22 0.085-0.301 0.067-0.099 0.165-0.171 0.256-0.216 0 0.148-0.032 0.265-0.104 0.355zM24.772 14.083c0.017 0.144 0.135 0.248 0.275 0.248 0.009 0 0.023 0 0.032 0 0.153-0.017 0.261-0.157 0.243-0.311-0.279-2.429-1.939-4.148-2.011-4.22-0.108-0.108-0.284-0.112-0.392-0.004s-0.112 0.284-0.004 0.392c0.017 0.016 1.601 1.659 1.857 3.895zM6.957 14.325c0.009 0 0.023 0 0.032 0 0.14 0 0.261-0.104 0.275-0.248 0.256-2.235 1.84-3.877 1.853-3.891 0.108-0.108 0.104-0.288-0.004-0.392-0.109-0.108-0.289-0.108-0.392 0.005-0.072 0.072-1.728 1.791-2.011 4.22-0.013 0.152 0.095 0.287 0.247 0.305z"></path>
</svg>
