<!-- Generated by IcoMoon.io -->
<svg version="1.1" xmlns="http://www.w3.org/2000/svg" width="32" height="32" viewBox="0 0 32 32">
<title>habr</title>
<path fill="#77a2b6" d="M0 0v32h32v-32zM9.367 5.333h2.177c1.625 0 2.187 0.039 2.224 0.151 0.025 0.088 0.037 1.825 0.037 3.863l-0.011 3.711 0.635-0.563c0.876-0.775 1.616-1.049 3.016-1.099 0.925-0.025 1.297 0.012 1.947 0.237 1.413 0.475 2.413 1.449 2.939 2.888 0.2 0.561 0.227 1.151 0.263 5.713l0.040 5.099h-4.451v-4.161c0-4.1-0.013-4.151-0.289-4.651-0.387-0.663-0.812-0.963-1.475-1.037-1.137-0.124-1.924 0.263-2.373 1.187-0.213 0.427-0.239 0.875-0.251 4.475-0.013 2.2-0.040 4.040-0.040 4.089-0.011 0.063-1 0.099-2.2 0.099h-2.187v-10z"></path>
</svg>
