<!-- Generated by IcoMoon.io -->
<svg version="1.1" xmlns="http://www.w3.org/2000/svg" width="32" height="32" viewBox="0 0 32 32">
<title>hackster</title>
<path fill="#1bacf7" d="M24.567 13.799c0.349 0 0.64 0.279 0.64 0.639v2.873c0 0.427 0.347 0.776 0.773 0.776h5.68c0.393 0 0.473 0.568 0.091 0.672l-11.424 3.291c-0.331 0.097-0.679-0.091-0.775-0.423-0.017-0.057-0.028-0.117-0.025-0.177v-3.003c-0.003-0.153-0.125-0.279-0.279-0.28h-12.525c-0.152-0.001-0.276-0.124-0.279-0.276v-3.373c0.001-0.471-0.373-0.857-0.845-0.867l-5.331-0.093c-0.313-0.013-0.371-0.453-0.069-0.544l11.68-3.372c0.148-0.039 0.3 0.049 0.339 0.195 0.005 0.021 0.009 0.044 0.009 0.071v3.255c0 0.347 0.289 0.637 0.639 0.637zM11.717 6.057c0.407-0.069 0.5 0.464 0.5 0.464s0.033 1.263 0 1.784c-0.036 0.52-0.511 0.5-0.511 0.5h-4.635c0 0-0.42-0.151-0.476-0.696-0.071-0.544 0.579-0.848 0.579-0.848s4.139-1.135 4.54-1.204zM19.564 4.585c0 0-0.060-0.615 0.628-0.88 0.683-0.255 4.357-1.205 4.357-1.205s0.683-0.267 0.729 0.628c0.047 0.891 0 8.237 0 8.237s0.024 0.601-0.625 0.648c-0.651 0.047-4.3 0-4.3 0s-0.789 0.071-0.789-0.556zM19.668 23.695c0.033-0.521 0.511-0.5 0.5-0.512h4.633c0 0 0.407 0.151 0.476 0.696 0.071 0.544-0.581 0.847-0.581 0.847s-4.136 1.135-4.541 1.203c-0.407 0.083-0.487-0.452-0.487-0.452s-0.033-1.26 0-1.781zM12.311 27.415c0 0 0.068 0.615-0.628 0.88-0.684 0.253-4.357 1.204-4.357 1.204s-0.685 0.268-0.729-0.627c-0.047-0.891 0-8.237 0-8.237s-0.024-0.601 0.625-0.648 4.3 0 4.3 0 0.705-0.071 0.789 0.556c0.079 0.613 0 1.053 0 1.053z"></path>
</svg>
