<!-- Generated by IcoMoon.io -->
<svg version="1.1" xmlns="http://www.w3.org/2000/svg" width="32" height="32" viewBox="0 0 32 32">
<title>hackerone</title>
<path fill="#494649" d="M9.609 0c-0.645 0-1.17 0.136-1.576 0.4-0.406 0.267-0.612 0.617-0.612 1.040v29.079c0 0.369 0.211 0.704 0.634 1.015 0.42 0.311 0.937 0.467 1.555 0.467 0.59 0 1.107-0.155 1.557-0.467 0.447-0.308 0.674-0.646 0.674-1.015v-29.077c0-0.425-0.216-0.769-0.652-1.042-0.436-0.265-0.962-0.4-1.579-0.4zM22.307 11.549c-0.645 0-1.162 0.131-1.558 0.401l-5.919 3.71c-0.265 0.248-0.379 0.625-0.33 1.14 0.046 0.51 0.281 0.996 0.698 1.454 0.419 0.461 0.888 0.75 1.425 0.873 0.528 0.12 0.93 0.055 1.195-0.191l2.34-1.46v13.042c0 0.369 0.203 0.704 0.614 1.015 0.401 0.311 0.916 0.467 1.534 0.467s1.151-0.155 1.598-0.467c0.449-0.311 0.674-0.646 0.674-1.015v-17.534c0-0.426-0.22-0.769-0.653-1.034-0.434-0.27-0.972-0.401-1.619-0.401z"></path>
</svg>
