<!-- Generated by IcoMoon.io -->
<svg version="1.1" xmlns="http://www.w3.org/2000/svg" width="32" height="32" viewBox="0 0 32 32">
<title>hackerearth</title>
<path fill="#323754" d="M27.977 0.003h-15.3v8.659h0.147c0.894-1.14 2.271-1.865 3.817-1.865 0.327 0 0.647 0.032 0.956 0.094l-0.031-0.005-0.031-0.005c2.621 0.192 5.213 1.781 5.36 6.877v10.072c-0.008 0.208-0.175 0.374-0.382 0.383l-0.001 0h-2.813c-0.211 0-0.383-0.171-0.383-0.383v0-9.763c0-2.371-0.78-4.152-3.121-4.152h-0.051c-1.919 0-3.474 1.556-3.474 3.475 0 0.082 0.003 0.163 0.008 0.243l-0.001-0.011v-0.011 10.22c0 0.211-0.171 0.383-0.383 0.383v0h-2.797c-0.211 0-0.383-0.171-0.383-0.383v0-23.825l-4.948-0.001c-1.097 0-1.991 0.869-2.031 1.957v27.983c0.040 1.143 0.973 2.055 2.12 2.061h23.723c1.049-0.031 1.888-0.889 1.888-1.943 0-0.043-0.001-0.087-0.004-0.129l0 0.006v0.005-27.979c0.002-0.036 0.004-0.077 0.004-0.119 0-1.016-0.824-1.84-1.84-1.84v0l-0.051 0.001zM24.591 27.98h-17.184v-1.767h17.184z"></path>
</svg>
