<!-- Generated by IcoMoon.io -->
<svg version="1.1" xmlns="http://www.w3.org/2000/svg" width="32" height="32" viewBox="0 0 32 32">
<title>hackhands</title>
<path fill="#00acbd" d="M7.067 23.507h8.467c0.667 0 1.187-0.533 1.187-1.2s-0.533-1.187-1.2-1.187h-8.453c-0.667 0-1.187 0.533-1.187 1.187 0 0.667 0.533 1.2 1.187 1.2zM22.107 18.36c0-0.667-0.533-1.2-1.2-1.2h-12.187c-0.667 0-1.187 0.533-1.187 1.2s0.533 1.2 1.2 1.2h12.2c0.667 0 1.2-0.533 1.173-1.2zM24.587 14.4c-0.022-0.644-0.542-1.159-1.185-1.173l-0.001-0h-14.693c-0.667 0-1.187 0.52-1.187 1.187s0.533 1.187 1.2 1.187h14.68c0.667 0 1.187-0.533 1.187-1.2zM7.52 10.427c0 0.667 0.533 1.187 1.2 1.187h12.667c0.653 0 1.173-0.533 1.173-1.2 0-0.653-0.533-1.173-1.187-1.173h-12.667c-0.667 0-1.187 0.52-1.187 1.187zM10.56 5.28h-3.493c-0.667 0-1.187 0.533-1.187 1.2s0.533 1.187 1.2 1.187h3.52c0.667 0 1.2-0.533 1.2-1.2-0.029-0.662-0.573-1.187-1.239-1.187-0 0-0.001 0-0.001 0h0zM30.493 27.733c0-0.004 0-0.009 0-0.013 0-0.685-0.555-1.24-1.24-1.24-0.005 0-0.009 0-0.014 0h-22.973c-1.267 0-2.307-1.067-2.307-2.32v-19.4c0-1.267 1.040-2.307 2.307-2.307h19.4c1.267 0 2.32 1.013 2.32 2.307v15.733c0 0.667 0.56 1.227 1.2 1.227 0.68 0 1.24-0.56 1.24-1.227v-15.733c0-2.627-2.133-4.76-4.76-4.76h-19.4c-2.629 0-4.76 2.131-4.76 4.76v0 19.4c0 2.627 2.133 4.76 4.76 4.76h20.933l3.293 3.080z"></path>
</svg>
