<!-- Generated by IcoMoon.io -->
<svg version="1.1" xmlns="http://www.w3.org/2000/svg" width="32" height="32" viewBox="0 0 32 32">
<title>hackaday</title>
<path d="M0 5.499c0-0.272 0.028-0.535 0.080-0.793l2.608 2.312 2.859-3.173-2.552-2.271c0.345-0.096 0.707-0.152 1.083-0.152 2.241 0.003 4.058 1.811 4.077 4.048v0.030c0 0.203-0.016 0.405-0.044 0.6l3.18 2.816c-1.145 0.889-2.056 2.025-2.661 3.331l-0.023 0.055-3.297-2.919c-0.368 0.122-0.792 0.193-1.232 0.193h-0c-2.251-0.002-4.076-1.826-4.077-4.077v-0zM27.923 22.424c-0.408 0-0.801 0.060-1.173 0.172l-3.077-2.725c-0.533 1.427-1.362 2.637-2.418 3.602l-0.007 0.006 2.657 2.353c-0.036 0.201-0.058 0.432-0.059 0.668v0.001c0.002 2.251 1.828 4.076 4.080 4.076 0.416 0 0.817-0.062 1.196-0.178l-0.029 0.008-2.656-2.36 2.853-3.153 2.641 2.347c0.045-0.241 0.069-0.485 0.069-0.739v-0.035c-0.019-2.237-1.836-4.043-4.076-4.043-0.001 0-0.001 0-0.002 0h0zM23.393 12.301l3.297-2.919c0.389 0.124 0.801 0.193 1.232 0.193 2.251-0.003 4.074-1.829 4.074-4.080 0-0.279-0.028-0.552-0.082-0.816l0.004 0.026-2.608 2.312-2.859-3.173 2.552-2.271c-0.324-0.095-0.697-0.15-1.082-0.152h-0.001c-2.241 0.003-4.058 1.811-4.077 4.048v0.030c0 0.203 0.016 0.405 0.044 0.6l-3.18 2.816c1.145 0.889 2.056 2.024 2.661 3.33l0.023 0.055zM8.327 19.871l-3.076 2.725c-0.352-0.11-0.756-0.173-1.175-0.173-2.24 0-4.058 1.806-4.076 4.042v0.036c0 0.253 0.024 0.497 0.069 0.739l2.643-2.347 2.853 3.153-2.657 2.36c0.349 0.108 0.751 0.17 1.167 0.17 2.252 0 4.078-1.824 4.080-4.075v-0c-0.001-0.237-0.022-0.469-0.062-0.694l0.004 0.024 2.657-2.353c-1.064-0.971-1.893-2.181-2.406-3.545l-0.021-0.063zM20.288 23.413c0.148 0.222 0.237 0.496 0.237 0.79 0 0.792-0.642 1.435-1.435 1.435s-1.435-0.642-1.435-1.435c0-0.079 0.006-0.157 0.019-0.233l-0.001 0.008h-0.256c0.011 0.066 0.017 0.141 0.017 0.218 0 0.792-0.642 1.435-1.435 1.435s-1.435-0.642-1.435-1.435c0-0.077 0.006-0.152 0.018-0.226l-0.001 0.008h-0.2c0.008 0.056 0.012 0.122 0.012 0.188 0 0.809-0.652 1.466-1.459 1.473h-0.001c-0.805 0-1.459-0.667-1.459-1.487 0-0.28 0.076-0.54 0.208-0.763-1.991-1.523-3.299-4.068-3.299-6.951 0-4.663 3.412-8.443 7.617-8.443s7.617 3.78 7.617 8.443c0 2.897-1.321 5.455-3.331 6.973zM14.696 15.528c-0.187-0.351-0.438-0.645-0.739-0.875l-0.006-0.005c-0.349-0.216-0.771-0.346-1.222-0.352h-0.002c-0.151 0-0.298 0.018-0.438 0.051l0.013-0.003c-0.54 0.067-0.996 0.436-1.311 0.863-0.276 0.343-0.491 0.759-0.496 1.207-0.043 0.371 0.032 0.741 0.1 1.104 0.088 0.429 0.391 0.779 0.733 1.032 0.159 0.127 0.387 0.301 0.587 0.155 0.133-0.179 0.021-0.44 0.143-0.637 0.048-0.191 0.174-0.346 0.34-0.433l0.004-0.002c0.351-0.176 0.703-0.349 1.077-0.473 0.304-0.089 0.555-0.292 0.813-0.465 0.34-0.263 0.565-0.744 0.404-1.165zM16.024 18.628c-0.372-0.009-0.84 1.649-0.765 2.373 0.233 0.96 0.316-0.673 0.765-0.675 0.431 0.019 0.367 1.673 0.707 0.672 0.104-0.667-0.299-2.36-0.707-2.371zM21.405 17.517c0.068-0.363 0.143-0.733 0.1-1.104-0.005-0.448-0.22-0.864-0.496-1.207-0.315-0.427-0.771-0.795-1.311-0.863-0.128-0.030-0.274-0.048-0.425-0.048h-0c-0.427-0.001-0.859 0.133-1.224 0.352-0.313 0.228-0.56 0.541-0.745 0.88-0.161 0.421 0.064 0.903 0.404 1.165 0.259 0.173 0.509 0.376 0.813 0.467 0.373 0.123 0.727 0.296 1.077 0.472 0.171 0.088 0.296 0.244 0.343 0.43l0.001 0.005c0.121 0.196 0.009 0.459 0.141 0.637 0.201 0.147 0.429-0.028 0.587-0.155 0.344-0.253 0.647-0.603 0.735-1.032z"></path>
</svg>
