<!-- Generated by IcoMoon.io -->
<svg version="1.1" xmlns="http://www.w3.org/2000/svg" width="32" height="32" viewBox="0 0 32 32">
<title>happycow</title>
<path fill="#7c4ec4" d="M11.547 1.64c-0.565 0.005-1.232 0.208-1.507 0.315-2.253 0.904-3.707 4.12-2.933 7.36-0.427-0.185-0.819-0.343-0.901-0.373-0.545-0.217-1.193-0.407-1.862-0.538l-0.071-0.012c-1.132-0.208-2.4-0.252-3.373 0.628-0.924 0.84-1.284 2.493-0.361 3.467 0.999 1.044 3.067 0.849 4.36 0.731 0.135-0.013 0.743-0.053 1.333-0.141-0.099 0.602-0.155 1.297-0.155 2.004 0 0.041 0 0.082 0.001 0.122l-0-0.006c-4.973 1.76-4.573 13.467 6.787 14.933 14.4 1.853 15.467-9.080 12.093-12.187 0.121-0.691 0.192-1.332 0.22-1.933 0.577 0.269 1.244 0.515 1.387 0.568 1.204 0.471 3.12 1.223 4.387 0.616 1.165-0.56 1.313-2.080 0.68-3.053-0.663-1.024-1.893-1.347-3.027-1.493-0.453-0.058-0.977-0.092-1.509-0.092-0.178 0-0.354 0.004-0.53 0.011l0.025-0.001c-0.067 0.003-0.336 0.016-0.663 0.040 1.773-2.44 1.867-5.587 0.425-7.307-0.333-0.397-1.627-1.64-2.2-0.991-0.372 0.523 0.301 1.547 0.248 2.32-0.123 1.201-1.14 2.16-1.813 2.68-0.956-0.76-1.813-0.993-1.813-0.993l-0.429-0.083c-0.859-0.667-2.040-0.751-2.040-0.751 0.484-0.587 2.080-0.133 2.080-0.133-1.413-1.413-3.080-0.437-3.080-0.437 0-0.689-0.508-1.108-0.508-1.108-0.531 0.408-0.553 0.952-0.553 0.952-1.347-1.413-2.827-1.059-2.827-1.059s1.307 0.413 1.56 1.44c-0.203-0.042-0.437-0.066-0.676-0.066-0.012 0-0.025 0-0.037 0h0.002l-0.461-0.088c-0.269-0.028-0.58-0.044-0.896-0.044-0.536 0-1.061 0.046-1.572 0.134l0.055-0.008c-0.327-0.791-0.68-2-0.255-3.040 0.316-0.703 1.387-1.288 1.311-1.92-0.084-0.369-0.461-0.484-0.9-0.465zM14.253 5.92c0.816 0.087 1.587 0.683 2.133 1.324 0.005-0.397 0.060-0.833 0.359-1.124 0.303 0.252 0.353 0.76 0.333 1.156 0.704-0.457 1.64-0.64 2.427-0.271-0.62-0.084-1.319 0.077-1.653 0.664 1.024 0.059 2.173 0.347 2.8 1.227-0.923-0.513-2.187-1.168-3.227-0.487 0.721 0.185 1.507 0.653 1.56 1.48-0.591-0.807-1.487-1.361-2.515-1.491l-0.018-0.002c-0.92 0.036-1.893 0.456-2.453 1.205-0.141 0.232-0.251 0.471-0.232 0.013-0.059-0.897 0.983-1.211 1.68-1.329-0.816-0.4-1.747-0.685-2.653-0.5 0.681-0.552 1.627-0.573 2.44-0.373-0.103-0.631-0.465-1.161-0.971-1.487l-0.009-0.005zM3.013 9.227c0.249 0.002 0.491 0.028 0.725 0.076l-0.024-0.004c0.379 0.067 1.168 0.28 1.507 0.663 0.333 0.383 1.299 1.813-1.001 2.16-0.751 0.080-1.947 0.212-2.52-0.397-0.525-0.563-0.305-1.547 0.233-2.053 0.353-0.331 0.705-0.437 1.080-0.444zM10.707 10.56c0.012-0 0.026-0 0.041-0 0.11 0 0.218 0.010 0.322 0.029l-0.011-0.002c3.533 0.576 1.52 6.413 1.52 6.413l-0.392-0.271c0.272-0.644 0.571-1.667 0.555-2.68-0.023-1.427-0.84-2.587-1.827-2.56-0.987 0.013-1.773 1.189-1.747 2.627 0.005 0.372 0.061 1.047 0.161 1.4-0.007-0.020-0.007-0.177-0.013-0.2l-0.904-0.284c0 0 0.017-4.427 2.295-4.472zM20.853 12.173c0.208 0.001 0.429 0.029 0.664 0.084 2.587 0.613 0.884 4.76 0.884 4.76l-0.809 0.133v0.004c-0.873 0.137-1.853 0.284-2.84 0.467-0.031-0.037 0.025 0.040 0 0l-1.153 0.191c0 0 0.14-5.667 3.255-5.639zM18.747 17.707l2.947-0.42c0.156-0.223 0.243-0.589 0.3-0.887 0.271-1.4 0.211-2.707-0.707-3.067-0.132-0.053-0.284-0.085-0.444-0.088h-0.001c-0.823-0.016-1.72 0.72-2.173 1.84-0.273 0.691-0.521 2.173-0.344 2.667 0.067 0.187 0.681 0.159 0.557 0.021zM11.027 12.76c0.301 0 0.545 0.244 0.545 0.545s-0.244 0.545-0.545 0.545v0c-0.301 0-0.545-0.244-0.545-0.545s0.244-0.545 0.545-0.545v0zM28.493 13.493c0.223 0.003 0.427 0.020 0.569 0.040 0.656 0.088 1.205 0.212 1.587 0.823 0.365 0.583 0.284 1.48-0.385 1.813-0.724 0.359-1.827-0.093-2.52-0.375-2.093-0.947-0.747-1.893-0.316-2.12 0.269-0.147 0.689-0.183 1.065-0.181zM20.6 14.353c0.005-0 0.011-0 0.017-0 0.301 0 0.546 0.244 0.546 0.546 0 0.295-0.235 0.536-0.527 0.545l-0.001 0c-0.005 0-0.011 0-0.017 0-0.301 0-0.546-0.244-0.546-0.546 0-0.295 0.235-0.536 0.527-0.545l0.001-0zM7.467 15.341c1.933-0.019 3.52 1.265 5.173 2.080 2.267 1.213 4.96 1.063 7.373 0.464 1.467-0.445 3.32-0.719 4.573 0.312 1.68 1.667 1.88 4.28 1.12 6.387-0.929 2.72-3.6 4.44-6.32 5-3.4 0.6-7.053 0.48-10.267-0.884-3.667-1.413-6.267-5.453-5.613-9.413 0.195-1.96 1.88-3.893 3.96-3.945zM9.827 17.675c-0.078 0.001-0.153 0.014-0.225 0.035l0.006-0.002c-0.557 0.167-0.676 0.899-0.264 1.64 0.412 0.736 1.197 1.2 1.76 1.031 0.557-0.167 0.676-0.899 0.264-1.64-0.36-0.645-1.007-1.079-1.541-1.064zM6.427 18.935c-0.018-0.001-0.039-0.001-0.059-0.001-0.283 0-0.546 0.087-0.764 0.236l0.005-0.003c-0.713 0.512-0.732 1.893 0.099 3.053 0.831 1.157 2.2 1.653 2.907 1.143 0.713-0.512 0.712-2.053-0.117-3.213-0.571-0.796-1.387-1.204-2.069-1.215zM20.693 19.164c-0.296 0-0.575 0.071-0.821 0.197l0.010-0.005c-0.761 0.363-1.275 1.116-1.144 1.68 0.131 0.567 0.853 0.732 1.613 0.371 0.763-0.363 1.273-1.116 1.144-1.68-0.081-0.355-0.395-0.552-0.803-0.563zM6.293 19.351c0.844-0.027 1.573 0.548 2 1.241 0.4 0.712 0.755 1.88-0.005 2.467-1.171 0.273-2.213-0.765-2.613-1.773-0.325-0.632-0.277-1.88 0.619-1.935zM23.493 21.324c-0.021-0.001-0.045-0.001-0.069-0.001s-0.049 0-0.073 0.002l0.003-0c-0.627 0.029-1.373 0.387-2.013 1.019-1.008 1.007-1.321 2.333-0.7 2.947 0.62 0.621 1.947 0.307 2.947-0.699 1.008-1.008 1.321-2.333 0.7-2.947-0.206-0.197-0.486-0.319-0.794-0.32h-0zM23.512 21.736c0.232 0.013 0.467 0.121 0.587 0.324 0.311 1.047-0.473 2.107-1.313 2.653-0.564 0.407-1.613 0.824-2.013 0.016-0.12-1.48 1.22-2.827 2.64-3 0.035 0 0.070 0.003 0.104 0.007l-0.004-0zM9.779 23.669c-0.059 0.002-0.109 0.035-0.137 0.082l-0 0.001c-0.013 0.019-0.253 0.416-0.731 0.412-0.001-0-0.003-0-0.004-0-0.092 0-0.167 0.075-0.167 0.167 0 0.002 0 0.004 0 0.006v-0c0.001 0.087 0.071 0.16 0.155 0.172l0.024 0.001c0.004 0 0.008 0 0.013 0 0.147 0 0.287-0.028 0.416-0.079l-0.008 0.003c0.288 0.575 1.467 2.533 4.373 3 2.947 0.471 5.16-0.987 5.733-1.4 0.127 0.097 0.279 0.17 0.444 0.208l0.008 0.002 0.023 0.004c0.005 0 0.011 0.001 0.016 0.001 0.082 0 0.15-0.057 0.168-0.133l0-0.001c0.002-0.010 0.003-0.022 0.003-0.035 0-0.084-0.059-0.155-0.138-0.172l-0.001-0c-0.467-0.104-0.632-0.548-0.64-0.569-0.026-0.070-0.092-0.118-0.169-0.118-0.019 0-0.037 0.003-0.053 0.008l0.001-0c-0.069 0.022-0.118 0.085-0.118 0.16 0 0.020 0.004 0.040 0.010 0.058l-0-0.001c0.004 0.013 0.060 0.168 0.195 0.341-0.581 0.4-2.693 1.68-5.453 1.291-2.573-0.363-3.773-2.253-4.080-2.813 0.184-0.148 0.279-0.307 0.287-0.317 0.014-0.025 0.023-0.054 0.023-0.086 0-0.065-0.036-0.121-0.088-0.151l-0.001-0c-0.028-0.022-0.064-0.037-0.102-0.039l-0-0z"></path>
</svg>
