<!-- Generated by IcoMoon.io -->
<svg version="1.1" xmlns="http://www.w3.org/2000/svg" width="32" height="32" viewBox="0 0 32 32">
<title>hashnode</title>
<path fill="#2962ff" d="M5.12 0h21.76c2.828 0 5.12 2.292 5.12 5.12v0 21.76c0 2.828-2.292 5.12-5.12 5.12v0h-21.76c-2.828 0-5.12-2.292-5.12-5.12v0-21.76c0-2.828 2.292-5.12 5.12-5.12v0zM24.020 28.851l-0.005-0.001c1.862-0.046 3.354-1.566 3.354-3.435 0-1.77-1.339-3.228-3.060-3.416l-0.015-0.001-6.556-11.576c-0.959-1.723-2.811-1.648-3.479 0.797-0.573 2.315-0.425 4.496-0.592 7.131-0.001 0.017-0.013 0.032-0.031 0.036s-0.035-0.003-0.044-0.017l-5.853-11.668c0.477-0.375 0.757-0.948 0.759-1.556 0-1.074-0.871-1.945-1.945-1.945s-1.945 0.871-1.945 1.945c0 1.074 0.871 1.945 1.945 1.945v0c0.092 0 0.167-0.019 0.24-0.019 2.464 6.333 5.205 13.724 6.187 15.428 0.667 1.629 2.945 1.111 3.001-0.648l0.24-9.243c0-0.056 0.073-0.056 0.093-0.019l4.701 11.185c-0.265 0.475-0.42 1.042-0.42 1.645 0 1.893 1.533 3.428 3.425 3.431h0z"></path>
</svg>
