<!-- Generated by IcoMoon.io -->
<svg version="1.1" xmlns="http://www.w3.org/2000/svg" width="32" height="32" viewBox="0 0 32 32">
<title>hatenabookmark</title>
<path fill="#00a4de" d="M27.293 0c2.6 0 4.707 2.107 4.707 4.707v22.587c0 2.6-2.107 4.707-4.707 4.707h-22.587c-2.6 0-4.707-2.107-4.707-4.707v-22.587c0-2.6 2.107-4.707 4.707-4.707zM22.353 19.293c-1.040 0-1.88 0.84-1.88 1.88s0.84 1.885 1.88 1.885 1.88-0.86 1.88-1.9-0.84-1.88-1.88-1.865zM11.48 22.996c1.6 0 2.741-0.056 3.44-0.16 0.701-0.112 1.301-0.296 1.76-0.549 0.6-0.309 1.040-0.752 1.36-1.32s0.48-1.22 0.48-1.973c0-1.040-0.28-1.871-0.84-2.493-0.56-0.64-1.32-0.979-2.32-1.059 0.88-0.24 1.541-0.6 1.941-1.080 0.42-0.459 0.62-1.099 0.62-1.899 0-0.64-0.137-1.18-0.4-1.68-0.28-0.48-0.657-0.86-1.177-1.16-0.46-0.26-0.98-0.42-1.62-0.54-0.619-0.099-1.72-0.16-3.299-0.16h-3.887v13.981h3.941zM12.461 17.416c0.94 0 1.58 0.117 1.92 0.349 0.36 0.24 0.52 0.66 0.52 1.24 0 0.54-0.18 0.92-0.56 1.14-0.36 0.24-1.020 0.339-1.92 0.339h-1.341v-3.063zM24.003 18.357v-9.413h-3.28v9.413zM11.9 12.107c0.947 0 1.58 0.107 1.909 0.32 0.327 0.213 0.489 0.58 0.489 1.107 0 0.507-0.173 0.861-0.52 1.072-0.353 0.205-0.996 0.309-1.936 0.309h-0.76v-2.808z"></path>
</svg>
