<!-- Generated by IcoMoon.io -->
<svg version="1.1" xmlns="http://www.w3.org/2000/svg" width="32" height="32" viewBox="0 0 32 32">
<title>haxe</title>
<path fill="#ea8220" d="M31.712 0c-0.002-0-0.005-0-0.008-0-0.017 0-0.034 0.002-0.051 0.004l0.002-0h-7.804c-0.001 0-0.002 0-0.002 0-0.048 0-0.093 0.011-0.133 0.031l0.002-0.001-7.717 3.856-7.72-3.856c-0.038-0.019-0.083-0.031-0.131-0.031h-7.832c-0.005-0-0.011-0.001-0.017-0.001s-0.012 0-0.018 0.001l0.001-0c-0.158 0.006-0.284 0.136-0.284 0.294 0 0.017 0.001 0.033 0.004 0.049l-0-0.002v7.804c0 0.049 0.012 0.095 0.033 0.135l-0.001-0.002 3.859 7.713-3.859 7.724c-0.020 0.038-0.032 0.084-0.032 0.132v7.787c-0.002 0.013-0.003 0.029-0.003 0.045 0 0.021 0.002 0.042 0.006 0.061l-0-0.002c0.019 0.146 0.143 0.257 0.292 0.257 0.016 0 0.032-0.001 0.047-0.004l-0.002 0h7.807c0 0 0.001 0 0.001 0 0.048 0 0.093-0.011 0.133-0.031l-0.002 0.001 7.719-3.864 7.719 3.864c0.038 0.019 0.083 0.031 0.131 0.031 0 0 0.001 0 0.001 0h7.836c0.006 0 0.012 0.001 0.019 0.001 0.163 0 0.295-0.132 0.295-0.295 0-0.017-0.001-0.034-0.004-0.050l0 0.002v-7.8c0-0.001 0-0.002 0-0.002 0-0.048-0.011-0.093-0.031-0.133l0.001 0.002-3.86-7.723 3.86-7.715c0.019-0.038 0.031-0.083 0.031-0.131 0-0 0-0.001 0-0.001v0-7.795c0.003-0.015 0.004-0.033 0.004-0.051 0-0.028-0.004-0.056-0.012-0.082l0 0.002c-0.032-0.127-0.143-0.221-0.277-0.225h-0zM2.696 0.593h5.384l5.384 2.689zM23.92 0.593h5.384l-10.767 2.689zM0.704 0.704l14.719 3.68-11.040 11.033-0.317-1.271zM31.293 0.713l-3.68 14.708-11.036-11.039zM31.405 2.696v5.384l-2.692 5.38zM0.592 2.7l2.695 10.764-2.693-5.384zM16 4.64l11.36 11.36-11.356 11.355-11.364-11.355zM27.616 16.576l0.117 0.468 3.563 14.251-14.72-3.68zM4.384 16.576l11.032 11.032-14.708 3.672 0.355-1.42zM28.713 18.531l2.693 5.389v5.369zM3.287 18.531l-2.693 10.773v-5.384zM13.455 28.715l-5.376 2.691h-5.385zM18.545 28.715l10.761 2.691h-5.387z"></path>
</svg>
