<!-- Generated by IcoMoon.io -->
<svg version="1.1" xmlns="http://www.w3.org/2000/svg" width="32" height="32" viewBox="0 0 32 32">
<title>here</title>
<path fill="#48dad0" d="M8.875 26.173l-4.405 4.393-4.411-4.393zM15.32 16.144c-0.92-1.095-0.875-1.685-0.305-2.253 0.692-0.693 1.396-0.408 2.185 0.365zM24.76 4.153c0.691-0.692 1.395-0.407 2.184 0.367l-1.88 1.88c-0.923-1.091-0.879-1.677-0.304-2.247zM30.455 6.073c-0.857 1.283-2.323 3.36-3.905 1.791l3.96-3.96c-0.355-0.377-0.627-0.699-0.815-0.901-2.152-2.133-4.557-2.16-6.445-0.285-1.257 1.257-1.587 2.693-1.22 4.068l-1.221-1.42c-0.702 0.469-1.158 1.257-1.158 2.153 0 0.523 0.156 1.010 0.424 1.417l-0.006-0.010-1.42-1.179-1.908 1.875 2.543 2.543c-1.965-1.557-4.068-1.407-5.787 0.289-1.817 1.815-1.692 4.016-0.328 5.827l-0.277-0.273c-1.799-1.797-3.751-1.163-4.72-0.195-0.748 0.748-1.22 1.773-1.016 2.489l-3.891-3.893-2.075 2.075 7.685 7.691h4.127l-2.771-2.787c-1.457-1.481-1.481-2.263-0.773-2.967 0.707-0.704 1.472-0.256 2.868 1.135l2.739 2.733 2.083-2.057-2.6-2.596c1.872 1.416 4.117 1.493 6.103-0.504l0.037-0.037c0.684-0.602 1.224-1.35 1.572-2.198l0.014-0.039-1.559-1.045c-0.863 1.28-2.347 3.364-3.907 1.819l3.968-3.968 2.473 2.453 2.157-2.156-3.093-3.092c-1.444-1.444-0.589-2.8 0-3.312 0.323 0.655 0.731 1.214 1.22 1.692l0.001 0.001c2.001 2.005 4.585 2.408 6.86 0.141l0.036-0.036c0.684-0.602 1.224-1.35 1.572-2.198l0.014-0.039z"></path>
</svg>
