<!-- Generated by IcoMoon.io -->
<svg version="1.1" xmlns="http://www.w3.org/2000/svg" width="32" height="32" viewBox="0 0 32 32">
<title>hipchat</title>
<path fill="#0052cc" d="M26.315 25.408c0 0 0.137-0.097 0.356-0.264 3.276-2.533 5.329-6.207 5.329-10.292 0-7.62-7.164-13.803-15.996-13.803-8.835 0-16.004 6.183-16.004 13.803 0 7.623 7.161 13.808 15.997 13.808 1.129 0 2.259-0.097 3.365-0.304l0.349-0.060c2.244 1.456 5.519 2.653 8.384 2.653 0.887 0 1.304-0.728 0.736-1.472-0.864-1.060-2.055-2.757-2.517-4.069zM24.365 19.373c-0.955 1.425-3.912 3.852-8.339 3.852h-0.061c-4.437 0-7.391-2.441-8.339-3.852-0.185-0.207-0.315-0.468-0.363-0.756l-0.001-0.009c-0.001-0.015-0.002-0.033-0.002-0.050 0-0.341 0.262-0.622 0.595-0.651l0.002-0c0.011-0.004 0.019-0.004 0.028-0.004 0.156 0.008 0.307 0.057 0.437 0.148 2.073 1.701 4.751 2.735 7.671 2.741h0.001c0.040 0 0.087 0.001 0.134 0.001 2.881 0 5.52-1.038 7.563-2.761l-0.018 0.014c0.109-0.101 0.256-0.163 0.417-0.163 0 0 0.001 0 0.001 0h-0c0.356 0 0.637 0.284 0.644 0.633-0.043 0.328-0.171 0.62-0.36 0.861l0.003-0.004z"></path>
</svg>
