<!-- Generated by IcoMoon.io -->
<svg version="1.1" xmlns="http://www.w3.org/2000/svg" width="32" height="32" viewBox="0 0 32 32">
<title>hitachi</title>
<path fill="#e60027" d="M23.716 15.213h-1.368c-0.002-0.136-0.027-0.266-0.072-0.386l0.003 0.008c-0.107-0.273-0.329-0.482-0.605-0.568l-0.007-0.002c-0.171-0.056-0.367-0.088-0.571-0.088-0.232 0-0.454 0.042-0.659 0.118l0.013-0.004c-0.335 0.124-0.593 0.386-0.711 0.714l-0.003 0.008c-0.113 0.307-0.178 0.662-0.178 1.033 0 0.309 0.045 0.608 0.13 0.889l-0.006-0.022c0.104 0.361 0.367 0.645 0.705 0.776l0.008 0.003c0.209 0.081 0.451 0.128 0.703 0.128 0.214 0 0.42-0.034 0.613-0.096l-0.014 0.004c0.257-0.084 0.46-0.269 0.568-0.506l0.002-0.006c0.067-0.152 0.107-0.33 0.107-0.516 0-0.004-0-0.008-0-0.013v0.001h1.375c-0.010 0.172-0.033 0.332-0.069 0.488l0.004-0.020c-0.12 0.487-0.461 0.896-0.912 1.085-0.498 0.216-1.079 0.342-1.689 0.342-0.469 0-0.92-0.074-1.343-0.212l0.031 0.009c-0.636-0.2-1.187-0.657-1.405-1.28-0.112-0.311-0.177-0.67-0.177-1.045 0-0.002 0-0.004 0-0.006v0c0-0.517 0.091-1.019 0.339-1.436 0.256-0.428 0.648-0.759 1.123-0.935 0.428-0.167 0.924-0.263 1.443-0.263 0.596 0 1.163 0.128 1.674 0.358l-0.026-0.010c0.472 0.208 0.819 0.623 0.929 1.127l0.002 0.011c0.023 0.101 0.037 0.208 0.044 0.313zM18.411 18.461h-1.451l-0.427-1.057h-2.445c-0.001 0.001-0.42 1.059-0.425 1.057h-1.453l2.303-4.924c0 0.003 1.599 0 1.599 0zM25.721 18.463h-1.303c0 0 0.007-4.924 0-4.924h1.303v1.969h2.635c0 0.007-0.003-1.971 0-1.969h1.305c0 0 0.004 4.915 0 4.924h-1.305v-2.168c0 0.007-2.635 0-2.635 0 0.003 0.009 0 2.165 0 2.168zM1.305 18.463h-1.305c0 0 0.007-4.924 0-4.924h1.305c0 0-0.003 1.983 0 1.969h2.635c0 0.007-0.005-1.971 0-1.969h1.304c0 0 0.005 4.915 0 4.924h-1.304v-2.168c0 0.007-2.635 0-2.635 0 0 0.009-0.003 2.167 0 2.168zM11.347 18.461h-1.303v-4.087h-1.996c0 0 0.003-0.835 0-0.836 0.003 0.001 5.295 0 5.295 0v0.836h-1.996zM6.279 13.539h1.303v4.923h-1.303zM30.695 13.539h1.305v4.923h-1.305zM15.312 14.375l-0.908 2.24h1.815z"></path>
</svg>
