<!-- Generated by IcoMoon.io -->
<svg version="1.1" xmlns="http://www.w3.org/2000/svg" width="32" height="32" viewBox="0 0 32 32">
<title>hockeyapp</title>
<path fill="#009ee1" d="M29.059 20.003c0.1-0.076 0.241-0.009 0.259 0.111 0.008 0.076 0.016 0.152 0.016 0.228 0 2.115-4.441 4.992-13.333 4.992s-13.333-2.877-13.333-4.983c0-0.076 0.008-0.153 0.017-0.221 0.009-0.081 0.077-0.143 0.159-0.143 0.037 0 0.071 0.013 0.099 0.034l-0-0c2.208 1.587 6.559 2.945 13.059 2.945 6.508 0 10.859-1.359 13.059-2.963zM16 18.891c-7.208 0-11.984-1.639-14.317-3.532-0.028-0.023-0.064-0.038-0.104-0.038-0.063 0-0.118 0.036-0.145 0.089l-0 0.001c-0.125 0.237-0.183 0.492-0.183 0.747 0 2.333 4.916 5.449 14.749 5.449s14.751-3.107 14.751-5.449c0-0.264-0.059-0.509-0.184-0.747-0.027-0.054-0.082-0.090-0.146-0.090-0.040 0-0.077 0.014-0.105 0.039l0-0c-2.333 1.893-7.107 3.532-14.316 3.532zM32 11.251c0 2.691-5.333 6.281-16 6.281s-16-3.591-16-6.281 5.333-4.584 16-4.584 16 1.893 16 4.584zM27.333 10.827c0-1.351-3.775-2.123-11.333-2.123s-11.333 0.773-11.333 2.123 3.775 3.311 11.333 3.311 11.333-1.961 11.333-3.311z"></path>
</svg>
