<!-- Generated by IcoMoon.io -->
<svg version="1.1" xmlns="http://www.w3.org/2000/svg" width="32" height="32" viewBox="0 0 32 32">
<title>homify</title>
<path fill="#7dcda3" d="M27.333 14.083v0.071l-0.005 0.067c-0.12 3.104-0.077 15.143-0.076 15.763 0.003 1.437-1.12 2.591-2.16 1.711l-9.435-7.373c-2.965 3.069-5.811 5.993-6.411 6.567-1.323 1.261-2.413-1.769-1.413-2.411 0.091-0.056 3.005-2.6 6.232-5.4l-6.987-5.46c-0.605-0.473-0.837-1.26-0.491-1.68 0.12-0.113 0.28-0.173 0.443-0.169 0.075 0.003 0.149 0.019 0.22 0.051 2.16 0.96 5.353 3.323 8.533 5.769 3.315-2.867 6.497-5.587 6.915-5.817 0.517-0.285 0.653 0.471 0.48 0.688-0.176 0.221-2.933 3.101-5.956 6.24 2.977 2.307 5.803 4.515 7.587 5.513l0.293-14.16c-0.232-0.276-7.208-9.551-7.964-10.331-1.207 1.043-7.527 8.152-7.845 8.459 1.443 0.144 7.568 0.509 11.427 0.911 0.973 0.093 1.621 0.808-0.467 0.789l-15.013-0.023c-0.235-0.008-0.444-0.147-0.531-0.356-0.088-0.209-0.037-0.448 0.128-0.608 0.080-0.077 10.871-11.897 11.776-12.649 0.205-0.169 0.423-0.251 0.649-0.244 0.307 0.011 0.555 0.192 0.656 0.303 0.112 0.103 5.8 7.92 8.576 11.733 0.664 0.904 0.832 1.516 0.837 2.003z"></path>
</svg>
