<!-- Generated by IcoMoon.io -->
<svg version="1.1" xmlns="http://www.w3.org/2000/svg" width="32" height="32" viewBox="0 0 32 32">
<title>hootsuite</title>
<path d="M16.003 0h0.031c1.748 0.005 3.471 0.429 5.021 1.237 1.543-0.795 3.252-1.208 4.988-1.208h0.901v31.971l-0.875-0.003c-5.577 0.003-10.928-2.216-14.869-6.167-3.96-3.924-6.173-9.279-6.145-14.857v-10.945h0.903c1.735 0 3.448 0.415 4.988 1.208 1.563-0.812 3.297-1.236 5.057-1.236zM16.003 0.872c-1.841 0-3.568 0.497-5.055 1.361-1.517-0.873-3.237-1.335-4.989-1.333h-0.029v10.073c-0.033 11.133 9.019 20.12 20.143 20.151v-30.224h-0.029c-1.751-0.001-3.472 0.457-4.991 1.332-1.525-0.888-3.257-1.357-5.021-1.36zM20.339 4.544c2.387 0.003 4.317 1.937 4.316 4.323-0.004 2.388-1.939 4.317-4.325 4.315-0.821 0-1.627-0.235-2.319-0.677l-2.021 2.011-2.009-2.021c-2.019 1.269-4.687 0.66-5.953-1.36-1.269-2.021-0.66-4.688 1.361-5.956s4.688-0.659 5.956 1.363c0.364 0.583 0.587 1.244 0.644 1.928l0.021-0.027 0.020 0.024c0.205-2.223 2.075-3.927 4.309-3.921zM11.68 11.719c1.589 0.008 2.884-1.279 2.891-2.867 0.001-0.292-0.041-0.581-0.128-0.859-0.324 0.725-1.176 1.051-1.901 0.728-0.727-0.325-1.053-1.177-0.728-1.904 0.145-0.324 0.405-0.583 0.731-0.729-1.516-0.473-3.129 0.368-3.607 1.885-0.088 0.276-0.132 0.565-0.133 0.856-0.004 1.589 1.28 2.884 2.871 2.889zM20.317 11.744c1.591 0.004 2.884-1.283 2.888-2.873s-1.284-2.883-2.873-2.885c-0.288-0.003-0.575 0.040-0.851 0.125 0.727 0.325 1.052 1.177 0.729 1.904-0.325 0.724-1.177 1.049-1.904 0.727-0.327-0.145-0.585-0.409-0.732-0.737-0.473 1.519 0.372 3.136 1.889 3.609 0.279 0.084 0.564 0.129 0.853 0.131z"></path>
</svg>
