<!-- Generated by IcoMoon.io -->
<svg version="1.1" xmlns="http://www.w3.org/2000/svg" width="32" height="32" viewBox="0 0 32 32">
<title>hp</title>
<path fill="#0096d6" d="M16 32h-0.533l3.333-8.933h4.533c0.8 0 1.6-0.667 1.867-1.333l3.6-9.733c0.533-1.6-0.4-2.933-2-2.933h-6.267l-5.2 14.4-2.933 8.133c-7.2-1.733-12.4-8-12.4-15.6 0-7.333 4.933-13.467 11.733-15.467l-3.067 8.533-5.2 14h3.333l4.267-11.867h2.533l-4.267 11.867h3.333l4-11.067c0.533-1.6-0.267-2.933-2-2.933h-2.667l3.333-9.067h0.667c8.8 0 16 7.2 16 16s-7.2 16-16 16zM25.733 11.067h-2.533l-3.6 9.733h2.533z"></path>
</svg>
