<!-- Generated by IcoMoon.io -->
<svg version="1.1" xmlns="http://www.w3.org/2000/svg" width="32" height="32" viewBox="0 0 32 32">
<title>htmlacademy</title>
<path fill="#302683" d="M16 0l-12.635 1.325v23.157l12.635 7.517 12.635-7.517v-23.157l-12.503-1.312zM26.981 23.543l-10.981 6.533-10.981-6.533v-9.492l10.933 6.508 0.019 1.18-7.501-4.465-0.011 1.147 7.531 4.525 0.020 1.211-7.529-4.48-0.011 1.147 7.531 4.524 7.604-4.549v-1.149l-0.011 0.005v-3.74l3.387-2.023zM26.973 12.66l-4.392 2.588-6.613-3.935-0.012 1.144 5.653 3.361-0.049 0.031-0.123 0.072-0.803 0.473-4.667-2.777-0.012 1.145 3.684 2.191-0.889 0.595-2.784-1.64-0.011 1.144 1.827 1.076-1.86 1.116-10.88-6.467 10.896-6.548zM26.981 11.508l-11.043-6.509-10.92 6.503v-8.688l10.981-1.152 10.983 1.152z"></path>
</svg>
