<!-- Generated by IcoMoon.io -->
<svg version="1.1" xmlns="http://www.w3.org/2000/svg" width="32" height="32" viewBox="0 0 32 32">
<title>hubspot</title>
<path fill="#ff7a59" d="M24.219 10.575v-3.795c1-0.476 1.681-1.477 1.688-2.636v-0.090c-0.005-1.613-1.31-2.919-2.922-2.924h-0.090c-1.613 0.005-2.919 1.31-2.924 2.922v0.090c0.005 1.155 0.678 2.151 1.652 2.623l0.017 0.008 0.017 0.008v3.803c-1.521 0.238-2.866 0.858-3.974 1.759l0.015-0.012 0.016-0.012-10.437-8.128c0.071-0.257 0.112-0.553 0.112-0.858 0-1.839-1.491-3.329-3.329-3.329s-3.329 1.491-3.329 3.329c0 1.839 1.491 3.329 3.329 3.329 0.617 0 1.194-0.168 1.69-0.46l-0.016 0.008-0.016 0.008 10.261 7.988c-0.867 1.284-1.384 2.866-1.384 4.569 0 0.009 0 0.018 0 0.027v-0.001c0 1.791 0.567 3.451 1.529 4.808l-0.017-0.025-3.123 3.123c-0.23-0.077-0.496-0.123-0.772-0.127l-0.002-0h-0.003c-1.497 0-2.711 1.214-2.711 2.711s1.214 2.711 2.711 2.711c1.497 0 2.711-1.214 2.711-2.711v0c-0.003-0.285-0.052-0.557-0.137-0.812l0.005 0.019 0.005 0.019 3.089-3.089c1.385 1.067 3.145 1.709 5.055 1.709 4.6 0 8.329-3.729 8.329-8.329 0-4.134-3.011-7.564-6.96-8.217l-0.048-0.007zM22.933 23.077c-2.356-0.006-4.264-1.918-4.264-4.275 0-2.361 1.914-4.275 4.275-4.275s4.275 1.914 4.275 4.275v0 0.003c-0.002 2.36-1.915 4.272-4.275 4.272-0.004 0-0.008 0-0.011 0h0.001z"></path>
</svg>
