<!-- Generated by IcoMoon.io -->
<svg version="1.1" xmlns="http://www.w3.org/2000/svg" width="32" height="32" viewBox="0 0 32 32">
<title>humblebundle</title>
<path fill="#cc2929" d="M5.527 31.995c0.16-0.617 0.307-1.2 0.457-1.784 0.923-3.617 1.763-7.253 2.427-10.929 0.327-1.8 0.595-3.613 0.844-5.432 0.189-1.371 0.289-2.752 0.264-4.14-0.013-0.743-0.045-1.488-0.257-2.207-0.093-0.32-0.232-0.631-0.4-0.915-0.22-0.364-0.573-0.504-1-0.491-1.177 0.035-2.177 0.484-3.029 1.28-0.969 0.907-1.603 2.036-2.071 3.26-0.221 0.58-0.379 1.183-0.563 1.773-0.027 0.088-0.035 0.164-0.153 0.163-0.659-0.008-1.319-0.007-1.979-0.008-0.017 0-0.032-0.011-0.048-0.013 0-0.257-0.027-0.513 0.004-0.763 0.461-3.804 2.093-7.023 4.891-9.635 1.047-0.979 2.287-1.657 3.703-1.965 2.073-0.451 3.728 0.344 4.712 2.24 0.5 0.96 0.771 1.995 0.947 3.057 0.28 1.716 0.291 3.448 0.233 5.18-0.019 0.56-0.053 1.12-0.083 1.68-0.003 0.072 0 0.144 0 0.235 0.076 0.004 0.14 0.011 0.205 0.011 1.207 0 2.413-0.003 3.623 0.007 0.165 0 0.213-0.063 0.24-0.213 0.767-4.151 1.823-8.227 3.187-12.221 0.032-0.099 0.067-0.165 0.196-0.165 1.493 0.005 2.987 0.005 4.483 0.005 0.023 0 0.047 0.005 0.093 0.011l-0.257 1.004c-1.008 3.915-1.915 7.848-2.648 11.819-0.384 2.061-0.711 4.133-0.92 6.219-0.115 1.167-0.187 2.336-0.151 3.507 0.021 0.707 0.072 1.416 0.293 2.093 0.085 0.269 0.213 0.533 0.364 0.773 0.223 0.347 0.568 0.488 0.987 0.475 1.547-0.044 2.723-0.787 3.661-1.96 0.943-1.173 1.511-2.533 1.912-3.973 0.037-0.133 0.080-0.269 0.101-0.408 0.019-0.109 0.072-0.139 0.173-0.139 0.623 0.003 1.244 0.005 1.867 0 0.136-0.003 0.16 0.057 0.156 0.173-0.019 1.072-0.209 2.111-0.52 3.129-0.787 2.571-2.076 4.847-3.989 6.747-1.084 1.080-2.349 1.876-3.84 2.275-0.903 0.244-1.807 0.283-2.7-0.037-1.013-0.36-1.701-1.088-2.213-2.005-0.536-0.967-0.817-2.016-1-3.096-0.32-1.875-0.32-3.765-0.229-5.656 0.056-1.187 0.169-2.369 0.257-3.555 0.019-0.253 0.021-0.253-0.232-0.253-1.14 0-2.28 0.003-3.421-0.003-0.139 0-0.204 0.032-0.227 0.183-0.36 2.417-0.849 4.811-1.432 7.183-0.604 2.456-1.299 4.885-2.116 7.28-0.059 0.169-0.139 0.213-0.311 0.213-1.42-0.008-2.84-0.005-4.263-0.005z"></path>
</svg>
