<!-- Generated by IcoMoon.io -->
<svg version="1.1" xmlns="http://www.w3.org/2000/svg" width="32" height="32" viewBox="0 0 32 32">
<title>hypothesis</title>
<path fill="#bd1c2b" d="M4.573 0c-1.24 0-2.28 1.024-2.28 2.293v22.853c0 1.253 1.040 2.28 2.28 2.28h7.933l3.493 4.573 3.493-4.573h7.933c1.24 0 2.293-1.027 2.293-2.28v-22.853c0-1.267-1.053-2.293-2.293-2.293h-22.853zM6.853 4.573h3.44v8c0 0 1.147-2.28 3.413-2.28 2.293 0 4.613 1.133 4.613 4.693v7.867h-3.44v-6.853c0-1.853-1.173-2.573-2.307-2.28-1.147 0.28-2.28 1.493-2.28 4v5.133h-3.44v-18.28zM24 18.293c1.267 0 2.293 1.040 2.293 2.267 0 0 0 0 0 0 0 1.259-1.021 2.28-2.28 2.28-0.005 0-0.009 0-0.014-0h0.001c-1.259 0-2.28-1.021-2.28-2.28v0c0-1.227 1.013-2.28 2.28-2.267z"></path>
</svg>
