<!-- Generated by IcoMoon.io -->
<svg version="1.1" xmlns="http://www.w3.org/2000/svg" width="32" height="32" viewBox="0 0 32 32">
<title>iata</title>
<path fill="#004e81" d="M4.557 26.307l1.307-6.513h2.123l-1.297 6.512zM10.967 24.173h1.349l-0.347-2.389zM7.987 26.307l3.216-6.513h2.093l1.32 6.512h-1.967l-0.117-0.773h-2.096l-0.333 0.773zM16.572 26.307l0.729-4.899h-1.859l0.317-1.644h5.708l-0.316 1.644h-1.771l-0.715 4.899zM23.711 24.173h1.349l-0.347-2.389zM20.737 26.307l3.209-6.513h2.093l1.32 6.512h-1.983l-0.096-0.773h-2.093l-0.333 0.773zM32 12.432h-9.993c-0.368 1.829-1.637 3.356-4.167 4.411 0.288 0.869 1.268 1.673 2.287 1.673h5.42c0.827 0 1.483-0.693 1.748-1.253h-5.508c-0.339-0.059-0.353-0.333-0.013-0.361h5.413c0.7 0 1.333-0.597 1.703-1.247h-6.307c-0.316-0.052-0.316-0.317 0-0.369h6.359c0.64 0 1.224-0.744 1.467-1.245h-6.976c-0.347-0.044-0.347-0.369 0-0.376h7.101c0.553 0 1.092-0.605 1.467-1.232zM0 12.432h9.993c0.36 1.829 1.637 3.356 4.16 4.411-0.288 0.869-1.269 1.673-2.287 1.673h-5.413c-0.827 0-1.483-0.693-1.748-1.253h5.508c0.332-0.059 0.353-0.333 0.013-0.361h-5.417c-0.7 0-1.333-0.597-1.696-1.247h6.313c0.317-0.052 0.317-0.317 0-0.369h-6.36c-0.641 0-1.224-0.744-1.467-1.245h6.976c0.347-0.044 0.347-0.369 0-0.376h-7.101c-0.56 0-1.099-0.605-1.475-1.232zM12.759 6.947c0.369 0.317 0.781 0.597 1.224 0.773 0.376-0.737 0.9-1.371 1.505-1.932-1.047 0.133-1.979 0.549-2.739 1.167l0.010-0.008zM10.989 10.583h2.227c0.047-0.931 0.265-1.799 0.624-2.59l-0.018 0.045c-0.511-0.227-0.952-0.509-1.343-0.846l0.007 0.006c-0.874 0.871-1.434 2.058-1.496 3.374l-0 0.011zM15.827 8.493v2.088h-2.227c0.019-0.881 0.221-1.71 0.568-2.458l-0.016 0.038c0.532 0.192 1.107 0.317 1.675 0.332zM19.241 6.945c-0.349 0.312-0.754 0.572-1.195 0.762l-0.029 0.011c-0.403-0.747-0.908-1.383-1.505-1.918l-0.007-0.006c1.050 0.125 1.985 0.539 2.746 1.158l-0.010-0.008zM21.004 10.581h-2.22c-0.033-0.928-0.246-1.799-0.607-2.588l0.017 0.042c0.472-0.221 0.92-0.501 1.312-0.84 0.886 0.864 1.45 2.054 1.497 3.377l0 0.009zM16.187 8.493v2.088h2.213c0-0.841-0.207-1.645-0.553-2.42-0.491 0.188-1.058 0.308-1.65 0.332l-0.010 0zM12.759 14.587c0.369-0.288 0.796-0.605 1.224-0.76 0.399 0.745 0.893 1.357 1.505 1.911-1.047-0.131-1.978-0.543-2.74-1.159l0.010 0.008zM10.989 10.944h2.227c0.052 0.921 0.243 1.733 0.605 2.565-0.511 0.229-0.951 0.508-1.344 0.84l0.008-0.007c-0.873-0.877-1.433-2.067-1.496-3.387l-0-0.012zM15.827 13.037v-2.093h-2.227c0.013 0.84 0.205 1.673 0.552 2.419 0.532-0.192 1.107-0.309 1.675-0.325zM19.241 14.587c-0.35-0.305-0.754-0.561-1.194-0.749l-0.030-0.011c-0.401 0.744-0.906 1.376-1.505 1.904l-0.007 0.006c1.049-0.132 1.982-0.545 2.747-1.159l-0.011 0.008zM21.004 10.944h-2.22c-0.029 0.935-0.243 1.813-0.607 2.608l0.017-0.042c0.472 0.221 0.899 0.488 1.312 0.833 0.88-0.873 1.442-2.065 1.497-3.388l0-0.010zM16.188 13.037v-2.093h2.213c0 0.84-0.207 1.659-0.553 2.419-0.491-0.186-1.059-0.304-1.651-0.325l-0.009-0zM15.827 6.003c-0.613 0.503-1.116 1.115-1.482 1.811l-0.015 0.032c0.48 0.163 0.988 0.296 1.497 0.296zM16.188 6.003c0.591 0.487 1.128 1.128 1.483 1.843-0.438 0.176-0.946 0.284-1.478 0.296l-0.005 0zM15.827 15.531c-0.618-0.501-1.122-1.117-1.483-1.819l-0.015-0.032c0.48-0.171 0.988-0.267 1.497-0.267zM16.188 15.545c0.591-0.493 1.128-1.157 1.483-1.867-0.44-0.155-0.948-0.251-1.477-0.264l-0.006-0z"></path>
</svg>
