<!-- Generated by IcoMoon.io -->
<svg version="1.1" xmlns="http://www.w3.org/2000/svg" width="32" height="32" viewBox="0 0 32 32">
<title>icloud</title>
<path fill="#3693f3" d="M26.684 14.301l0.001-0.037c0-0.001 0-0.002 0-0.002 0-4.673-3.788-8.461-8.461-8.461-3.194 0-5.975 1.77-7.415 4.383l-0.022 0.044c-0.611-0.326-1.337-0.517-2.108-0.517-2.422 0-4.402 1.891-4.544 4.277l-0.001 0.013c-2.432 0.906-4.133 3.208-4.135 5.906v0c0.001 3.475 2.817 6.291 6.292 6.292h19.743c3.288-0.010 5.95-2.677 5.95-5.967 0-3.061-2.304-5.583-5.273-5.927l-0.028-0.003z"></path>
</svg>
