<!-- Generated by IcoMoon.io -->
<svg version="1.1" xmlns="http://www.w3.org/2000/svg" width="32" height="32" viewBox="0 0 32 32">
<title>icomoon</title>
<path fill="#825794" d="M16 0c-2.213 0-4.28 0.417-6.213 1.251-1.99 0.841-3.689 1.995-5.121 3.417l0.001-0.001c-1.422 1.431-2.575 3.13-3.378 5.015l-0.040 0.105c-0.832 1.933-1.249 4-1.249 6.213s0.417 4.28 1.251 6.213c0.842 1.99 1.995 3.689 3.417 5.121l-0.001-0.001c1.431 1.42 3.131 2.573 5.015 3.374l0.105 0.040c1.933 0.84 4 1.253 6.213 1.253s4.28-0.413 6.213-1.253c1.989-0.841 3.689-1.993 5.121-3.414l-0.001 0.001c1.42-1.431 2.573-3.131 3.374-5.015l0.040-0.105c0.84-1.933 1.253-4 1.253-6.213s-0.413-4.28-1.253-6.213c-0.841-1.989-1.993-3.689-3.414-5.121l0.001 0.001c-1.431-1.422-3.13-2.575-5.015-3.378l-0.105-0.040c-1.933-0.832-4-1.249-6.213-1.249zM11.84 2c1.265 0.734 2.356 1.583 3.318 2.558l0.002 0.002c0.956 0.955 1.794 2.026 2.492 3.192l0.041 0.075c0.707 1.2 1.24 2.48 1.64 3.867 0.373 1.373 0.573 2.813 0.573 4.307s-0.2 2.933-0.573 4.307c-0.407 1.47-0.967 2.754-1.679 3.937l0.039-0.070c-0.739 1.24-1.578 2.312-2.533 3.267l-0 0c-1 1-2.107 1.84-3.32 2.56-1.248-0.741-2.325-1.588-3.278-2.558l-0.002-0.002c-0.966-0.955-1.813-2.027-2.519-3.193l-0.041-0.073c-0.655-1.112-1.198-2.398-1.562-3.758l-0.025-0.109c-0.381-1.28-0.6-2.75-0.6-4.272 0-0.012 0-0.024 0-0.037v0.002c0-1.493 0.187-2.933 0.6-4.307 0.389-1.468 0.932-2.754 1.627-3.94l-0.040 0.074c0.747-1.24 1.594-2.312 2.558-3.265l0.002-0.002c1-1 2.107-1.84 3.28-2.56zM11.813 12.307c-1.027 0-1.893 0.36-2.613 1.080-0.667 0.648-1.081 1.553-1.081 2.555 0 0.021 0 0.041 0.001 0.062l-0-0.003c0 1.027 0.36 1.893 1.080 2.613s1.587 1.080 2.613 1.080 1.893-0.36 2.613-1.080 1.080-1.587 1.080-2.613-0.36-1.893-1.080-2.613c-0.648-0.667-1.553-1.081-2.555-1.081-0.021 0-0.041 0-0.062 0.001l0.003-0z"></path>
</svg>
