<!-- Generated by IcoMoon.io -->
<svg version="1.1" xmlns="http://www.w3.org/2000/svg" width="32" height="32" viewBox="0 0 32 32">
<title>icon</title>
<path fill="#31b8bb" d="M28.807 0.028c-1.764 0.002-3.193 1.432-3.193 3.196 0 1.542 1.092 2.829 2.546 3.13l0.021 0.004c0.189 0.040 0.407 0.063 0.63 0.063 1.765 0 3.196-1.431 3.196-3.196s-1.431-3.196-3.196-3.196c-0.001 0-0.002 0-0.003 0h0zM16.028 3.221c-7.055 0-12.779 5.721-12.779 12.779 0 2.856 0.937 5.495 2.521 7.623l3.448-3.448c-0.739-1.188-1.177-2.63-1.177-4.174 0-4.411 3.576-7.987 7.987-7.987 1.543 0 2.984 0.438 4.206 1.196l-0.034-0.020 3.448-3.448c-2.093-1.574-4.736-2.521-7.6-2.521-0.007 0-0.014 0-0.021 0h0.001zM26.284 8.377l-3.448 3.449c0.741 1.189 1.18 2.632 1.18 4.178 0 4.41-3.575 7.985-7.985 7.985-1.545 0-2.988-0.439-4.21-1.199l0.034 0.020-3.448 3.445c2.095 1.576 4.74 2.524 7.607 2.524 0.005 0 0.010 0 0.016 0h-0.001c7.057 0 12.777-5.72 12.777-12.779 0-2.856-0.939-5.493-2.521-7.624zM3.195 25.583c-1.764 0.002-3.194 1.433-3.194 3.197 0 1.543 1.093 2.831 2.547 3.131l0.021 0.004c0.187 0.039 0.401 0.061 0.621 0.061 1.769 0 3.203-1.434 3.203-3.203 0-0.22-0.022-0.435-0.064-0.643l0.003 0.021c-0.304-1.475-1.593-2.568-3.136-2.568-0 0-0 0-0 0v0z"></path>
</svg>
