<!-- Generated by IcoMoon.io -->
<svg version="1.1" xmlns="http://www.w3.org/2000/svg" width="32" height="32" viewBox="0 0 32 32">
<title>iconjar</title>
<path fill="#16a5f3" d="M7.341 7.833c-0.656 0-1.248-0.604-1.248-1.272 0-1.54 3.811-2.68 8.147-2.68 0.393 0 0.656 0 0.656-0.333 0-0.603-1.313-0.803-1.313-1.807 0-1.072 1.248-1.741 2.824-1.741 1.577 0 2.825 0.669 2.825 1.741 0 1.004-1.313 1.137-1.313 1.807 0 0.201 0.197 0.335 0.656 0.335 4.336 0 8.213 1.071 8.213 2.679 0 0.004 0 0.008 0 0.012 0 0.692-0.558 1.253-1.249 1.259h-0zM26.984 13.924c1.577 1.004 2.168 2.812 1.907 4.487l-1.84 10.107c-0.395 2.012-2.104 3.483-4.141 3.483h-12.875c-2.035 0-3.744-1.472-4.139-3.481l-1.84-10.108c-0.036-0.213-0.057-0.458-0.057-0.708 0-1.551 0.801-2.915 2.012-3.701l0.017-0.010c0.92-0.668 1.116-1.807 0-2.208-1.577-0.603-1.249-2.544 0.328-2.544h9.591c1.511 0 3.352 1.137 3.352 4.82s-1.709 3.347-1.709 5.957c0 1.139 0.92 2.344 2.036 2.479 1.907 0.2 3.023-0.536 3.023-3.213 0-2.747-1.576-4.017-1.576-6.293 0-2.745 1.707-3.817 2.824-3.817h2.76c1.576 0 1.905 1.943 0.328 2.545-1.116 0.467-0.92 1.607 0 2.208z"></path>
</svg>
