<!-- Generated by IcoMoon.io -->
<svg version="1.1" xmlns="http://www.w3.org/2000/svg" width="32" height="32" viewBox="0 0 32 32">
<title>icq</title>
<path fill="#7ebd00" d="M20.541 0.177c-1.008-0.084-1.968 0.12-2.907 0.623-1.253 0.671-2.147 1.7-2.549 3.040v0.089l-0.047 0.313-0.179-0.313-0.447-0.804c-0.715-1.116-1.608-1.787-2.725-2.099-0.981-0.221-1.787-0.129-2.635 0.32-0.94 0.581-1.475 1.475-1.699 2.727-0.224 1.296 0 2.547 0.669 3.796l0.315 0.448-1.076-0.356c-1.34-0.315-2.592-0.139-3.844 0.533-1.296 0.665-2.099 1.607-2.635 2.905-0.493 1.251-0.448 2.457 0.177 3.573 0.269 0.493 0.672 0.893 1.029 1.163 0.536 0.536 1.207 0.848 2.011 0.981l0.312 0.088-0.669 0.584c-0.627 0.536-0.984 1.204-1.208 1.875-0.224 0.804-0.133 1.609 0.315 2.369 0.227 0.357 0.445 0.671 0.803 0.893 0.357 0.313 0.805 0.537 1.341 0.581 0.984 0.227 2.011 0.224 3.128-0.133l-0.805 1.34-0.224 0.581c-0.447 1.432-0.311 2.68 0.36 3.977 0.313 0.493 0.667 0.94 1.027 1.341 0.533 0.491 1.208 0.803 2.013 1.027 1.339 0.357 2.68 0.315 3.973-0.356 1.253-0.671 2.057-1.747 2.46-3.087l0.043-0.267c0.849 0.937 1.653 1.564 2.549 1.787 0.893 0.269 1.787 0.227 2.592-0.311 0.76-0.447 1.297-1.208 1.565-2.147 0.224-0.984 0.224-1.965 0-3.083 0.447 0.313 0.893 0.533 1.429 0.669 1.431 0.447 2.68 0.4 3.933-0.267 1.205-0.672 2.011-1.744 2.413-3.129 0.357-1.34 0.269-2.636-0.4-3.888l-0.227-0.36c-0.356-0.536-0.716-1.072-1.253-1.429-0.445-0.313-0.98-0.536-1.472-0.76 1.387-0.671 2.368-1.609 2.813-2.816 0.315-0.984 0.227-1.789-0.223-2.593v-0.088c-0.536-0.893-1.249-1.473-2.367-1.787-0.671-0.133-1.429-0.136-2.099-0.091l-1.477 0.313 0.493-1.117c0.445-1.431 0.313-2.816-0.447-4.112l-0.133-0.227c-0.671-1.117-1.653-1.787-2.995-2.143-0.347-0.089-0.688-0.151-1.025-0.177zM19.781 2.063c0.431-0.040 0.867 0.016 1.289 0.173 0.939 0.221 1.609 0.712 2.013 1.472v0.004c0.224 0.447 0.356 0.981 0.356 1.563l-0.133 0.984c-0.179 0.493-0.403 0.937-0.671 1.339l-4.021 4.92c-0.4-0.313-0.849-0.537-1.296-0.76l-0.448-5.053-0.044-1.787 0.043-0.447c0.224-0.893 0.851-1.564 1.653-2.011 0.403-0.224 0.827-0.357 1.259-0.397zM10.604 2.779c0.179-0.005 0.368 0.040 0.547 0.128 0.804 0.224 1.475 0.804 2.011 1.92 0.227 0.448 0.448 0.893 0.537 1.431l0.893 5.276-0.672 0.224-3.977-4.336-0.224-0.445c-0.36-0.805-0.58-1.564-0.491-2.369v-0.003c0.045-0.804 0.357-1.337 0.893-1.651 0.133-0.112 0.303-0.169 0.483-0.175zM26.777 9.489c0.2 0 0.396 0.009 0.597 0.032 0.76 0.091 1.296 0.449 1.564 0.987l0.18 0.577-0.089 0.447c-0.312 0.804-0.984 1.432-2.1 1.923-0.447 0.224-0.937 0.313-1.473 0.4l-5.497 0.671-0.089-0.313-0.091-0.133 0.18-0.223 4.516-3.755 0.533-0.221 0.003-0.003c0.6-0.267 1.18-0.381 1.767-0.388zM6.163 9.733c0.213 0.011 0.432 0.044 0.653 0.1v0.003l1.211 0.489 3.933 2.863c-0.36 0.448-0.58 0.893-0.715 1.34l-6.437 0.804-0.445-0.088c-0.804-0.133-1.343-0.493-1.701-1.16-0.36-0.671-0.356-1.341-0.088-2.013 0.313-0.848 0.893-1.52 1.741-1.876 0.604-0.336 1.208-0.497 1.848-0.461zM15.709 13.32c0.805 0 1.567 0.315 2.059 0.805 0.627 0.627 0.893 1.297 0.893 2.101s-0.267 1.563-0.893 2.099c-0.581 0.581-1.253 0.893-2.057 0.893-0.848 0-1.56-0.313-2.097-0.893-0.581-0.536-0.893-1.293-0.893-2.099 0-0.804 0.312-1.476 0.893-2.101 0.536-0.493 1.249-0.805 2.096-0.805zM26.929 16.76l0.448 0.047c0.672 0.224 1.297 0.624 1.653 1.293 0.448 0.493 0.671 1.164 0.671 1.924l-0.133 0.893c-0.223 0.893-0.76 1.564-1.52 1.92-0.804 0.448-1.609 0.537-2.503 0.227-0.536-0.133-0.893-0.357-1.205-0.715l-4.693-3.891 0.313-0.669 0.133-0.537 5.051-0.447zM18.081 20.024l1.876 1.92 1.16 1.431 0.227 0.449c0.4 0.76 0.624 1.473 0.533 2.323-0.088 0.803-0.356 1.384-0.893 1.608-0.312 0.224-0.669 0.227-1.027 0.18-0.849-0.221-1.52-0.891-2.011-1.964l-0.537-1.477-0.669-3.889 0.757-0.267zM13.255 20.115c0.445 0.223 0.893 0.445 1.387 0.489 0.088 1.52 0.22 3.129 0.443 4.872v1.789l-0.044 0.444c-0.315 0.804-0.851 1.476-1.653 1.833-0.805 0.447-1.653 0.536-2.46 0.313-0.893-0.223-1.564-0.76-1.92-1.475-0.227-0.447-0.405-0.987-0.405-1.52l0.227-1.027c0.088-0.447 0.313-0.893 0.671-1.253z"></path>
</svg>
