<!-- Generated by IcoMoon.io -->
<svg version="1.1" xmlns="http://www.w3.org/2000/svg" width="32" height="32" viewBox="0 0 32 32">
<title>ideal</title>
<path fill="#c06" d="M1.3 3.48v25.043h15.215c9.187 0 14.187-4.28 14.187-12.553 0-8.503-5.419-12.489-14.187-12.489zM16.515 2.18c13.473 0 15.485 8.64 15.485 13.789 0 8.933-5.499 13.853-15.485 13.853h-16.515v-27.643zM3.341 17.809h4.871v8.671h-4.871zM8.803 13.443c0 1.672-1.355 3.027-3.027 3.027s-3.027-1.355-3.027-3.027v0c0-1.672 1.355-3.027 3.027-3.027s3.027 1.355 3.027 3.027v0zM10.664 12.033v2.827h0.867c0.6 0 1.156-0.173 1.156-1.436 0-1.232-0.617-1.391-1.156-1.391zM25.131 10.628h1.404v4.232h2.080c-0.571-7.677-6.611-9.336-12.099-9.336h-5.851v5.107h0.867c1.577 0 2.56 1.071 2.56 2.793 0 1.777-0.959 2.839-2.56 2.839h-0.867v10.22h5.851c8.923 0 12.028-4.143 12.137-10.22h-3.52zM21.224 13.772h1.013l-0.464-1.593h-0.084zM19.033 16.265l1.699-5.637h1.996l1.699 5.636h-1.46l-0.319-1.091h-1.835l-0.32 1.091zM18.36 14.86v1.403h-3.471v-5.632h3.359v1.403h-1.956v0.653h1.849v1.4h-1.848v0.773z"></path>
</svg>
