<!-- Generated by IcoMoon.io -->
<svg version="1.1" xmlns="http://www.w3.org/2000/svg" width="32" height="32" viewBox="0 0 32 32">
<title>ifixit</title>
<path fill="#0071ce" d="M20.46 16.675l3.16 4.175c0.264 0.348 0.281 0.92 0.033 1.281l-0.159 0.236c-0.241 0.36-0.733 0.86-1.085 1.108l-0.38 0.268c-0.355 0.26-0.929 0.26-1.275-0.021l-4.18-3.159c-0.34-0.26-0.908-0.26-1.253 0l-4.181 3.159c-0.344 0.281-0.919 0.281-1.275 0.040l-0.276-0.18c-0.36-0.241-0.855-0.741-1.1-1.080l-0.241-0.341c-0.248-0.36-0.24-0.919 0.024-1.28l3.169-4.199c0.26-0.341 0.26-0.9 0-1.26l-3.179-4.181c-0.259-0.351-0.271-0.92-0.017-1.276l0.267-0.38c0.249-0.352 0.747-0.839 1.104-1.085l0.233-0.159c0.36-0.261 0.937-0.243 1.281 0.019l4.18 3.16c0.347 0.26 0.912 0.26 1.256 0l4.18-3.18c0.344-0.26 0.931-0.301 1.305-0.081l0.44 0.26c0.373 0.22 0.852 0.699 1.060 1.080l0.16 0.28c0.205 0.38 0.164 0.961-0.1 1.32l-3.16 4.18c-0.259 0.34-0.259 0.901 0 1.26zM16 0c-8.84 0-16 7.164-16 16s7.16 16 16 16c8.836 0 16-7.164 16-16s-7.164-16-16-16z"></path>
</svg>
