<!-- Generated by IcoMoon.io -->
<svg version="1.1" xmlns="http://www.w3.org/2000/svg" width="32" height="32" viewBox="0 0 32 32">
<title>imdb</title>
<path fill="#e6b91e" d="M19.080 12.784v0.007c-0.103-0.064-0.303-0.093-0.56-0.093v6.42c0.36 0 0.587-0.080 0.667-0.22 0.083-0.139 0.127-0.54 0.127-1.18v-3.821c0-0.44-0.005-0.72-0.044-0.84-0.029-0.128-0.089-0.217-0.189-0.272zM29.888 0h-27.728c-1.171 0.080-2.080 0.992-2.16 2.128v27.712c0.080 1.165 0.949 2.056 2.073 2.156 0.020 0.004 0.040 0.004 0.060 0.004h27.793c1.173-0.117 2.067-1.101 2.073-2.28v-27.44c0-1.187-0.927-2.187-2.112-2.28zM6.389 20.835h-2.54v-9.821h2.54zM15.109 20.832h-2.216v-6.627l-0.893 6.625h-1.584l-0.931-6.48-0.009 6.48h-2.223v-9.817h3.291c0.111 0.697 0.213 1.397 0.307 2.099l0.36 2.493 0.589-4.592h3.311zM21.745 17.925c0 0.873-0.059 1.459-0.139 1.76-0.083 0.293-0.227 0.533-0.435 0.693-0.2 0.173-0.453 0.291-0.76 0.355-0.297 0.060-0.76 0.1-1.36 0.1l-0.005-0.003h-3.073v-9.817h1.901c1.219 0 1.933 0.063 2.36 0.171 0.433 0.12 0.767 0.3 0.993 0.56 0.22 0.24 0.364 0.539 0.417 0.86 0.067 0.313 0.101 0.94 0.101 1.869zM28.337 18.559c0 0.6-0.060 1.019-0.12 1.32-0.080 0.299-0.26 0.539-0.54 0.757-0.301 0.221-0.64 0.32-1.040 0.32-0.293 0-0.667-0.080-0.907-0.181-0.253-0.125-0.477-0.316-0.687-0.569l-0.155 0.627h-2.289v-9.819l-0.027-0.004h2.4v3.2c0.2-0.233 0.42-0.413 0.68-0.533 0.261-0.111 0.621-0.169 0.92-0.169 0.301-0.004 0.6 0.048 0.88 0.153 0.227 0.093 0.427 0.247 0.581 0.44 0.12 0.167 0.2 0.36 0.24 0.56 0.040 0.184 0.059 0.573 0.059 1.16zM25.44 14.94c-0.16 0-0.259 0.053-0.3 0.16-0.040 0.107-0.080 0.387-0.080 0.832v2.595c0 0.432 0.040 0.711 0.080 0.831 0.053 0.115 0.173 0.187 0.301 0.179 0.16 0 0.363-0.063 0.4-0.187 0.040-0.129 0.061-0.427 0.061-0.899l0.040-0.003v-2.52c0-0.404-0.020-0.677-0.080-0.804-0.059-0.133-0.26-0.187-0.423-0.184z"></path>
</svg>
