<!-- Generated by IcoMoon.io -->
<svg version="1.1" xmlns="http://www.w3.org/2000/svg" width="32" height="32" viewBox="0 0 32 32">
<title>imgur</title>
<path fill="#1bb76e" d="M28.196 4.057c-0.003-0.151-0.092-0.243-0.252-0.255-0.149-0.018-0.383-0.039-0.619-0.056l-0.061-0.004-0.216-0.013c-0.409-0.030-0.912-0.052-1.419-0.061l-0.027-0-0.289-0.007c-0.229-0.004-0.467-0.005-0.709-0.005l-0.252-0.001c-0.393 0-0.801 0.004-1.225 0.013l-0.141 0.004c-0.491 0.011-0.896 0.023-1.301 0.039l0.141-0.004-0.316 0.012c-0.447 0.017-0.901 0.039-1.369 0.065l-0.016 0.001c-0.476 0.028-0.965 0.060-1.46 0.095l-0.367 0.028c-0.405 0.031-0.812 0.064-1.227 0.101l-0.333 0.028c-0.507 0.047-1.021 0.099-1.541 0.153-0.107 0.012-0.215 0.025-0.323 0.036-0.425 0.047-0.855 0.097-1.287 0.151l-0.44 0.056c-0.537 0.068-1.075 0.14-1.616 0.219-0.076 0.011-0.146 0.032-0.21 0.062l0.004-0.002c-0.051 0.025-0.094 0.058-0.129 0.098l-0 0-0.004 0.003c-0.060 0.073-0.063 0.16 0.005 0.239 0.004 0.005 0.003 0.011 0.007 0.016l4.651 4.608-8.839 8.795c-0.092 0.089-0.091 0.22 0 0.335 1.141 1.457 1.92 2.391 2.857 3.323 0.932 0.937 1.864 1.715 3.324 2.857 0.047 0.040 0.108 0.066 0.175 0.068h0.001c0.062-0 0.118-0.026 0.159-0.068l0-0 8.796-8.839 4.607 4.651c0.034 0.037 0.081 0.061 0.134 0.063h0c0.128 0 0.249-0.157 0.283-0.389 0.995-6.855 1.176-13.401 0.845-16.413zM21.16 32l8.717-8.717-0.008-0.008c0.572-0.608 0.966-1.39 1.093-2.259l0.003-0.023c1.072-7.373 1.204-14.121 0.872-17.269-0.079-0.948-0.489-1.789-1.112-2.416l0 0c-0.629-0.629-1.469-1.048-2.405-1.139l-0.016-0.001c-1.027-0.112-2.336-0.168-3.88-0.168-3.999 0-8.889 0.379-13.417 1.036-1.003 0.143-1.874 0.622-2.513 1.318l-0.003 0.003-8.491 8.492v21.151zM23.197 23.057c-0.201 0-0.751 0.54-0.751 0.817 0 0 0 0 0 0 0 0.073-0.059 0.133-0.132 0.133h-0c-0.073-0.001-0.132-0.060-0.132-0.133 0 0 0 0 0 0v0c0-0.277-0.548-0.817-0.751-0.817-0.073-0.001-0.132-0.060-0.132-0.133 0 0 0 0 0 0v0c0-0.072 0.059-0.131 0.132-0.131 0.203 0 0.751-0.539 0.751-0.819 0-0.073 0.059-0.131 0.132-0.131 0.072 0 0.132 0.057 0.132 0.131 0 0.28 0.549 0.819 0.751 0.819 0.065 0.010 0.115 0.065 0.115 0.132s-0.049 0.122-0.114 0.132l-0.001 0zM7.2 9.393c0.263 0 0.98-0.704 0.98-1.068 0.001-0.094 0.077-0.171 0.171-0.172h0c0.095 0 0.171 0.077 0.171 0.172 0 0.363 0.717 1.068 0.98 1.068 0.095 0 0.171 0.076 0.171 0.171s-0.076 0.171-0.171 0.171v0c-0.263 0-0.98 0.704-0.98 1.068 0 0.094-0.076 0.171-0.171 0.171v0c-0.094 0-0.171-0.076-0.171-0.171v0c0-0.364-0.717-1.068-0.98-1.068-0.094 0-0.171-0.076-0.171-0.171s0.076-0.171 0.171-0.171v0zM1.88 13.74c0-0.087 0.076-0.131 0.159-0.157 0.92-0.304 1.692-1.067 1.871-2.072 0.015-0.085 0.071-0.157 0.157-0.157 0.088 0 0.143 0.072 0.159 0.157 0.177 1.005 0.948 1.768 1.868 2.072 0.083 0.027 0.157 0.071 0.157 0.157s-0.075 0.131-0.157 0.159c-0.92 0.303-1.692 1.065-1.871 2.071-0.015 0.085-0.071 0.159-0.159 0.159-0.087 0-0.141-0.072-0.157-0.159-0.179-1.005-0.951-1.768-1.871-2.071-0.081-0.029-0.156-0.072-0.156-0.159zM3.967 26.149c-0.151 0-0.56 0.403-0.56 0.612 0 0.053-0.045 0.097-0.099 0.097 0 0 0 0 0 0-0.054 0-0.098-0.043-0.099-0.097v-0c0-0.209-0.409-0.612-0.56-0.612 0 0 0 0 0 0-0.054 0-0.098-0.043-0.099-0.097v-0c0-0.052 0.045-0.097 0.099-0.097 0.151 0 0.56-0.403 0.56-0.609 0-0.056 0.044-0.097 0.099-0.097 0.053 0 0.099 0.041 0.099 0.097 0 0.207 0.409 0.609 0.56 0.609 0.053 0 0.097 0.045 0.097 0.097 0 0.054-0.044 0.097-0.097 0.097v0zM4.724 22.087c-0.187 0-0.695 0.5-0.695 0.757 0 0.004 0.001 0.008 0.001 0.013 0 0.068-0.055 0.123-0.123 0.123s-0.123-0.055-0.123-0.123c0-0.005 0-0.009 0.001-0.013l-0 0.001c0-0.257-0.508-0.757-0.695-0.757-0 0-0.001 0-0.001 0-0.066 0-0.12-0.054-0.12-0.12 0 0 0 0 0 0v0c0-0.068 0.055-0.123 0.121-0.123 0.187 0 0.695-0.5 0.695-0.757 0 0 0-0 0-0 0-0.066 0.054-0.12 0.12-0.12 0.001 0 0.002 0 0.003 0h-0c0 0 0.001 0 0.001 0 0.066 0 0.12 0.054 0.12 0.12 0 0 0 0 0 0v0c0 0.257 0.508 0.757 0.695 0.757 0.067 0 0.121 0.054 0.121 0.121s-0.054 0.121-0.121 0.121v0zM9.169 27.929c-0.271 0-1.011 0.728-1.011 1.103 0 0.097-0.080 0.177-0.176 0.177-0.098 0-0.177-0.079-0.177-0.177v0c0-0.375-0.74-1.103-1.011-1.103-0.098-0.001-0.177-0.080-0.177-0.177v-0c0-0.097 0.079-0.176 0.177-0.176 0.272 0 1.011-0.727 1.011-1.104 0-0.095 0.080-0.176 0.177-0.176s0.176 0.081 0.176 0.176c0 0.377 0.74 1.104 1.011 1.104 0.099 0 0.177 0.079 0.177 0.176s-0.079 0.177-0.177 0.177v0zM11.732 26.855c-1.448-1.135-2.492-1.997-3.537-3.049-1.052-1.045-1.915-2.088-3.049-3.539-0.835-1.067-0.755-2.529 0.192-3.476l0.001-0.001 0.003-0.001 7.144-7.108-2.96-2.933c-0.693-0.693-0.933-1.693-0.629-2.611 0.197-0.596 0.619-1.069 1.156-1.399 0.142-0.094 0.305-0.179 0.477-0.247l0.018-0.006c0.18-0.076 0.39-0.137 0.608-0.172l0.016-0.002c0.007 0 0.012-0.004 0.019-0.005 4.472-0.651 9.295-1.024 13.233-1.024h0.003c1.5 0 2.763 0.055 3.757 0.161 0.625 0.061 1.204 0.332 1.637 0.768 0.437 0.441 0.7 1.023 0.749 1.649 0.324 3.081 0.192 9.671-0.868 16.952-0.001 0.013-0.008 0.021-0.009 0.033-0.049 0.293-0.132 0.555-0.248 0.8l0.008-0.018c-0.008 0.019-0.013 0.037-0.024 0.056-0.444 0.932-1.335 1.551-2.361 1.551-0.68 0-1.323-0.267-1.811-0.756l-0.004-0.003-0.005-0.005-2.923-2.953-7.113 7.148c-0.469 0.472-1.118 0.764-1.835 0.764-0.001 0-0.001 0-0.002 0h0c-0.587 0-1.169-0.201-1.641-0.572zM15.167 29.641c-0.185 0-0.691 0.497-0.691 0.755 0 0 0 0 0 0 0 0.066-0.054 0.12-0.12 0.12-0 0-0.001 0-0.001 0h0c-0.066 0-0.12-0.054-0.12-0.12v0c0-0.257-0.505-0.755-0.692-0.755-0.066 0-0.12-0.054-0.12-0.12s0.054-0.12 0.12-0.12v0c0.185 0 0.692-0.497 0.692-0.755 0-0.066 0.054-0.12 0.12-0.12v0c0.067 0 0.121 0.055 0.121 0.12 0 0.257 0.505 0.755 0.691 0.755 0.067 0 0.121 0.052 0.121 0.12s-0.053 0.12-0.121 0.12zM17.987 26.392c0.331 0 1.229-0.883 1.229-1.337 0-0.117 0.096-0.215 0.215-0.215 0.117 0 0.215 0.097 0.215 0.215 0 0.455 0.899 1.337 1.228 1.337 0.119 0 0.215 0.097 0.215 0.215 0 0 0 0.001 0 0.001 0 0.118-0.096 0.213-0.213 0.213-0 0-0.001 0-0.001 0h0c-0.329 0-1.228 0.883-1.228 1.34 0 0 0 0 0 0 0 0.119-0.096 0.215-0.215 0.216h-0c-0.119-0.001-0.215-0.097-0.215-0.216 0 0 0 0 0 0v0c0-0.457-0.899-1.34-1.229-1.34-0.119 0-0.215-0.096-0.215-0.215s0.096-0.215 0.215-0.215v0z"></path>
</svg>
