<!-- Generated by IcoMoon.io -->
<svg version="1.1" xmlns="http://www.w3.org/2000/svg" width="32" height="32" viewBox="0 0 32 32">
<title>indeed</title>
<path fill="#2164f3" d="M19.763 13.744c-0.534 0.28-1.166 0.444-1.837 0.444-2.222 0-4.024-1.802-4.024-4.024s1.802-4.024 4.024-4.024c1.565 0 2.921 0.893 3.587 2.197l0.011 0.023c0.273 0.527 0.432 1.15 0.432 1.811 0 1.551-0.881 2.896-2.17 3.563l-0.022 0.011zM15.467 0.763c3.293-1.201 7.059-1.136 9.877 1.309 0.586 0.485 1.050 1.097 1.352 1.796l0.012 0.031c0.284 0.92-0.999-0.093-1.173-0.224-0.826-0.572-1.772-1.065-2.779-1.432l-0.087-0.028c-5.552-1.7-10.805 1.395-14.051 6.207-1.245 1.966-2.269 4.237-2.953 6.651l-0.044 0.183c-0.068 0.324-0.166 0.61-0.294 0.88l0.010-0.024c-0.143 0.272-0.065-0.729-0.065-0.763 0.136-1.137 0.337-2.15 0.608-3.133l-0.035 0.148c1.504-5.244 4.836-9.611 9.623-11.601zM15.516 28.753v-11.684c0.332 0.033 0.648 0.049 0.981 0.049 0.008 0 0.017 0 0.026 0 1.577 0 3.050-0.444 4.302-1.214l-0.036 0.020v12.827c0 1.096-0.2 1.907-0.693 2.435-0.459 0.502-1.116 0.815-1.846 0.815-0.032 0-0.063-0.001-0.094-0.002l0.005 0c-0.026 0.001-0.056 0.002-0.087 0.002-0.721 0-1.368-0.313-1.814-0.811l-0.002-0.002c-0.491-0.539-0.747-1.351-0.741-2.435z"></path>
</svg>
