<!-- Generated by IcoMoon.io -->
<svg version="1.1" xmlns="http://www.w3.org/2000/svg" width="32" height="32" viewBox="0 0 32 32">
<title>influxdb</title>
<path fill="#22adf6" d="M31.7 19.257l-3.057-13.257c-0.171-0.715-0.828-1.457-1.571-1.657l-13.915-4.285c-0.172-0.057-0.372-0.057-0.6-0.057-0.6 0-1.2 0.228-1.629 0.6l-9.971 9.285c-0.544 0.488-0.829 1.457-0.657 2.143l3.257 14.2c0.171 0.715 0.828 1.457 1.571 1.657l13.029 4.057c0.171 0.057 0.371 0.057 0.6 0.057 0.6 0 1.2-0.228 1.628-0.6l10.657-9.915c0.543-0.571 0.829-1.485 0.657-2.228zM14.615 3.2l9.571 2.943c0.372 0.115 0.372 0.285 0 0.372l-5.028 1.143c-0.372 0.115-0.915-0.057-1.172-0.343l-3.485-3.772c-0.315-0.315-0.257-0.457 0.115-0.343zM20.585 20.343c0.115 0.372-0.143 0.6-0.513 0.485l-10.315-3.2c-0.372-0.113-0.457-0.428-0.172-0.685l7.887-7.343c0.285-0.285 0.6-0.172 0.685 0.2zM3.587 11l8.371-7.8c0.285-0.285 0.715-0.228 1 0.028l4.2 4.544c0.285 0.285 0.228 0.713-0.029 1l-8.371 7.8c-0.285 0.285-0.715 0.228-1-0.029l-4.2-4.543c-0.285-0.315-0.257-0.772 0.029-1zM5.616 23.343l-2.2-9.715c-0.115-0.371 0.057-0.456 0.313-0.171l3.487 3.771c0.285 0.287 0.371 0.829 0.285 1.2l-1.515 4.915c-0.113 0.4-0.285 0.4-0.371 0zM17.873 29.057l-10.944-3.4c-0.302-0.098-0.516-0.377-0.516-0.705 0-0.075 0.011-0.147 0.032-0.215l-0.001 0.005 1.829-5.885c0.098-0.301 0.377-0.515 0.705-0.515 0.074 0 0.146 0.011 0.214 0.031l-0.005-0.001 10.943 3.371c0.372 0.115 0.6 0.515 0.487 0.915l-1.829 5.885c-0.113 0.312-0.407 0.531-0.752 0.531-0.057 0-0.113-0.006-0.167-0.017l0.005 0.001zM27.587 21.085l-7.313 6.8c-0.287 0.287-0.429 0.172-0.315-0.2l1.515-4.913c0.113-0.372 0.513-0.772 0.913-0.829l5.029-1.143c0.371-0.143 0.428 0.028 0.171 0.285zM28.387 19.6l-6.028 1.372c-0.372 0.113-0.772-0.144-0.857-0.515l-2.572-11.143c-0.113-0.372 0.144-0.772 0.515-0.857l6.029-1.372c0.371-0.113 0.771 0.143 0.856 0.515l2.572 11.143c0.085 0.429-0.143 0.8-0.515 0.857z"></path>
</svg>
