<!-- Generated by IcoMoon.io -->
<svg version="1.1" xmlns="http://www.w3.org/2000/svg" width="32" height="32" viewBox="0 0 32 32">
<title>inkscape</title>
<path d="M15.829 0.255c-0.993-0.015-1.952 0.371-2.657 1.072l-11.767 12.051c-4.457 4.453 2.885 4.081 5.539 5.767 1.229 0.803-3.94 1.828-2.885 2.885 1.028 1.057 6.2 2.028 7.229 3.057 1.028 1.055-2.085 2.169-1.057 3.224 1 1.057 3.399 0.057 3.827 2.456 0.313 1.771 4.4 0.888 6.229-0.628 1.139-0.972-1.972-0.972-0.944-2.028 2.572-2.599 4.856-1.167 5.799-3.568 0.516-1.284-3.884-2.2-2.712-3.028 2.801-1.969 13.083-2.969 8.34-7.709l-12.196-12.479c-0.747-0.695-1.727-1.076-2.744-1.072zM15.929 1.4c0.705 0.004 1.413 0.268 1.925 0.779l4.656 4.743c0.431 0.428 0.431 1.315 0.172 1.571l-2.312-1.883-0.457 2.769-1.913-1.029-3.115 1.971-1.028-4.14-1.656 3.597-4.143-0.029c-0.8 0-0.685-0.828 0.143-1.656 1.628-1.8 4.8-4.853 5.8-5.911 0.513-0.528 1.22-0.785 1.927-0.779zM28.936 23.101c-0.987 0.033-1.995 0.527-2.252 1.44 0 0.599 4.656 0.943 4.401-0.143-0.188-0.915-1.16-1.336-2.148-1.3zM8.475 25.695c-1.344 0.079-2.784 1.055-1.643 2.016 1.055 0.915 2.656-0.2 3.169-1.484-0.32-0.421-0.915-0.568-1.524-0.531zM26.113 25.797c-1.315 1.2 0.227 2.456 1.512 1.628 0.344-0.231-0.028-1.34-1.512-1.628z"></path>
</svg>
