<!-- Generated by IcoMoon.io -->
<svg version="1.1" xmlns="http://www.w3.org/2000/svg" width="32" height="32" viewBox="0 0 32 32">
<title>instacart</title>
<path fill="#43b02a" d="M20.839 12.825c1.895 1.905 3.44 5.021 2.556 6.869-2.371 4.953-20.053 13.635-21.559 12.133-1.5-1.5 7.188-19.193 12.139-21.565 1.851-0.88 4.965 0.68 6.869 2.56l-0.007 0.019zM30.209 10.737c-0.308-1.14-1.095-2.289-2.267-2.427-2.147-0.248-5.535 3.551-5.295 4.452 0.241 0.92 5.021 2.5 6.8 1.22 0.921-0.659 1.041-2.080 0.741-3.219zM23.555 0.211c1.597 0.432 3.209 1.531 3.401 3.176 0.348 3.012-4.976 7.759-6.24 7.419-1.264-0.335-3.491-7.045-1.692-9.549 0.927-1.296 2.935-1.475 4.532-1.051v0.005z"></path>
</svg>
