<!-- Generated by IcoMoon.io -->
<svg version="1.1" xmlns="http://www.w3.org/2000/svg" width="32" height="32" viewBox="0 0 32 32">
<title>internetarchive</title>
<path d="M30.147 32h-28.293v-1.453h28.293zM29.080 27.76h-26.107v2.013h26.107zM28.773 4.88h-25.973v2.787h25.973zM15.787 0l-13.6 3.187 0.787 0.813h25.64l0.72-0.813zM4.947 26.947c0.024 0 0.053 0.001 0.082 0.001 0.446 0 0.877-0.064 1.284-0.182l-0.032 0.008c0.213-2.32 0.333-6.533 0.333-9.16s-0.12-6.667-0.32-9.013c-0.013-0.096-0.081-0.174-0.172-0.2l-0.002-0c-0.335-0.085-0.721-0.133-1.117-0.133-0.001 0-0.002 0-0.003 0h0c-0.394 0.003-0.775 0.051-1.14 0.14l0.034-0.007c-0.092 0.026-0.16 0.104-0.173 0.199l-0 0.001c-0.213 2.347-0.32 6.427-0.32 9.013s0.12 6.84 0.333 9.16c0.363 0.108 0.78 0.172 1.212 0.173h0.001zM12.027 26.947c0.028 0.001 0.061 0.001 0.094 0.001 0.441 0 0.868-0.064 1.271-0.182l-0.032 0.008c0.213-2.32 0.333-6.533 0.333-9.16s-0.12-6.667-0.32-9.013c-0.013-0.096-0.081-0.174-0.172-0.2l-0.002-0c-0.335-0.085-0.72-0.134-1.117-0.134-0.029 0-0.058 0-0.087 0.001l0.004-0c-0.399 0.003-0.784 0.051-1.154 0.14l0.034-0.007c-0.092 0.026-0.16 0.104-0.173 0.199l-0 0.001c-0.2 2.347-0.32 6.427-0.32 9.013s0.12 6.84 0.333 9.16c0.37 0.11 0.796 0.174 1.236 0.174 0.025 0 0.050-0 0.074-0.001l-0.004 0zM20.227 26.947c0.028 0.001 0.061 0.001 0.094 0.001 0.442 0 0.868-0.064 1.271-0.182l-0.032 0.008c0.213-2.32 0.333-6.533 0.333-9.16s-0.107-6.667-0.32-9.013c-0.014-0.113-0.109-0.2-0.225-0.2-0.005 0-0.010 0-0.016 0.001l0.001-0c-0.332-0.084-0.714-0.133-1.106-0.133h-0c-0.393 0.002-0.775 0.050-1.14 0.14l0.033-0.007c-0.098 0.022-0.172 0.1-0.186 0.199l-0 0.001c-0.2 2.347-0.32 6.427-0.32 9.013s0.12 6.84 0.347 9.16c0.365 0.11 0.785 0.174 1.22 0.174 0.016 0 0.033-0 0.049-0l-0.003 0zM27.133 26.947c0.009 0 0.020 0 0.030 0 0.44 0 0.866-0.063 1.268-0.181l-0.032 0.008c0.213-2.32 0.333-6.533 0.333-9.16s-0.107-6.667-0.32-9.013c-0.013-0.096-0.081-0.174-0.172-0.2l-0.002-0c-0.332-0.084-0.714-0.133-1.106-0.133h-0c-0.399 0.003-0.784 0.051-1.154 0.14l0.034-0.007c-0.092 0.026-0.16 0.104-0.173 0.199l-0 0.001c-0.2 2.347-0.32 6.427-0.32 9.013s0.12 6.84 0.333 9.16c0.37 0.11 0.795 0.174 1.235 0.174 0.016 0 0.032-0 0.047-0l-0.002 0z"></path>
</svg>
