<!-- Generated by IcoMoon.io -->
<svg version="1.1" xmlns="http://www.w3.org/2000/svg" width="32" height="32" viewBox="0 0 32 32">
<title>intercom</title>
<path fill="#1f8ded" d="M28 0h-24c-2.209 0-4 1.791-4 4v24c0 2.211 1.791 4 4 4h24c2.211 0 4-1.789 4-4v-24c0-2.209-1.789-4-4-4zM20.265 5.865c0-0.587 0.48-1.067 1.069-1.067 0.587 0 1.067 0.48 1.067 1.067v14.251c0 0.589-0.48 1.068-1.067 1.068-0.591 0-1.069-0.479-1.069-1.068zM14.933 5.325c0-0.587 0.476-1.065 1.067-1.065s1.067 0.479 1.067 1.065v15.469c0 0.587-0.476 1.067-1.067 1.067s-1.067-0.48-1.067-1.067zM9.6 5.865c0-0.587 0.479-1.067 1.065-1.067 0.591 0 1.069 0.48 1.069 1.067v14.251c0 0.589-0.48 1.068-1.069 1.068-0.587 0-1.065-0.479-1.065-1.068zM4.265 8c0-0.589 0.48-1.067 1.069-1.067 0.587 0 1.065 0.477 1.065 1.067v9.593c0 0.588-0.479 1.067-1.065 1.067-0.591 0-1.069-0.48-1.069-1.067zM27.36 24.269c-0.164 0.14-4.115 3.457-11.36 3.457-7.244 0-11.196-3.315-11.361-3.457-0.447-0.384-0.5-1.056-0.115-1.504 0.38-0.445 1.053-0.5 1.5-0.12 0.063 0.055 3.591 2.948 9.975 2.948 6.464 0 9.941-2.915 9.972-2.943 0.445-0.385 1.119-0.333 1.504 0.115s0.333 1.12-0.115 1.504zM27.735 17.593c0 0.588-0.48 1.067-1.068 1.067s-1.068-0.48-1.068-1.067v-9.593c0-0.589 0.481-1.067 1.068-1.067 0.588 0 1.068 0.476 1.068 1.067z"></path>
</svg>
