<!-- Generated by IcoMoon.io -->
<svg version="1.1" xmlns="http://www.w3.org/2000/svg" width="32" height="32" viewBox="0 0 32 32">
<title>invision</title>
<path fill="#f36" d="M29.1 0h-26.2c-1.6 0-2.9 1.3-2.9 2.9v26.2c0 1.6 1.3 2.9 2.9 2.9h26.2c1.6 0 2.9-1.3 2.9-2.9v-26.2c0-1.6-1.3-2.9-2.9-2.9zM10.693 6.223c1.064 0 1.957 0.84 1.957 1.92 0 1.093-0.893 1.925-1.957 1.925v0.036c-1.071 0-1.939-0.867-1.939-1.94s0.867-1.94 1.939-1.941zM23.781 24.643c-1.979 0-2.939-1.18-2.939-2.787 0-0.461 0.059-0.951 0.2-1.44l0.947-3.393c0.117-0.373 0.147-0.72 0.147-1.033 0-1.093-0.667-1.753-1.728-1.753-1.351 0-2.24 0.969-2.7 2.84l-1.84 7.38h-3.219l0.576-2.32c-0.944 1.555-2.26 2.513-3.88 2.513-1.956 0-2.876-1.123-2.876-2.817 0.005-0.487 0.063-0.973 0.173-1.447v0.003l1.467-5.987h-2.276l0.691-2.54h5.467l-2.16 8.54c-0.14 0.547-0.2 1-0.2 1.315 0 0.547 0.269 0.707 0.689 0.805 0.26 0.053 2.3 0.016 3.413-2.453l1.413-5.667h-2.297l0.693-2.5h4.96l-0.64 2.88c0.863-1.6 2.583-3.14 4.283-3.14 1.8 0 3.3 1.3 3.3 3.76 0 0.712-0.107 1.42-0.32 2.1l-0.92 3.301c-0.080 0.339-0.139 0.62-0.139 0.88 0 0.579 0.24 0.86 0.659 0.86s0.98-0.32 1.6-2.080l1.257 0.48c-0.74 2.619-2.101 3.699-3.801 3.7z"></path>
</svg>
