<!-- Generated by IcoMoon.io -->
<svg version="1.1" xmlns="http://www.w3.org/2000/svg" width="32" height="32" viewBox="0 0 32 32">
<title>invoiceninja</title>
<path d="M21.663 13.768c0 0.857-0.695 1.552-1.552 1.552s-1.552-0.695-1.552-1.552v0c0-0.857 0.695-1.552 1.552-1.552s1.552 0.695 1.552 1.552v0zM13.279 13.768c0 0.857-0.695 1.553-1.553 1.553s-1.553-0.695-1.553-1.553v0c0-0.857 0.695-1.553 1.553-1.553s1.553 0.695 1.553 1.553v0zM13.092 31.795c-6.283-1.307-10.969-5.676-12.643-11.789-0.561-2.049-0.561-5.987 0-8.036 1.559-5.691 5.857-9.989 11.547-11.548 2.051-0.561 5.987-0.561 8.037 0 5.689 1.559 9.989 5.857 11.547 11.547 0.32 1.165 0.392 1.907 0.392 4.019s-0.072 2.853-0.391 4.019c-1.56 5.695-5.919 10.048-11.548 11.533-1.855 0.489-5.221 0.613-6.941 0.256zM21.945 19.375c-4.063-1.797-5.405-2.316-6-2.316s-1.911 0.507-5.84 2.245c-2.788 1.235-5.104 2.347-5.147 2.387h22.217zM8.781 18.893c2.161-0.972 4.080-1.849 4.261-1.952 0.344-0.193 0.449-0.12-7.047-4.909-0.747-0.477-1.364-0.931-1.367-0.867v9.587c7.98-3.307 9.345-3.931 10.71-4.557l-6.558 2.698zM27.552 15.968v-4.745c0-0.147-2.235 1.324-4.661 2.827-4 2.472-4.375 2.747-4.005 2.913 1.793 0.815 8.56 3.816 8.667 3.829zM16.66 16.115c0.727 0.167 0.857 0.139 1.635-0.351 0.465-0.293 0.873-0.559 0.908-0.589 0.035-0.032-0.067-0.241-0.223-0.467-0.157-0.224-0.287-0.667-0.287-0.985v-0.576l-0.759 0.28c-0.968 0.356-3.040 0.36-4 0.007l-0.741-0.273 0.017 0.603c0.009 0.347-0.117 0.751-0.3 0.953-0.309 0.341-0.293 0.368 0.6 0.968 0.853 0.576 0.967 0.607 1.64 0.436 0.23-0.060 0.494-0.095 0.765-0.095 0.264 0 0.521 0.033 0.766 0.094l-0.022-0.005zM11.020 12.581c-0.14-0.151-3.96-1.272-4.044-1.188-0.040 0.040 0.672 0.552 1.581 1.139l1.653 1.067 0.453-0.459c0.248-0.251 0.409-0.503 0.356-0.559zM24.033 12.084c0.631-0.408 1.067-0.74 0.971-0.74-0.207 0-3.836 1.072-4.036 1.192-0.076 0.045 0.044 0.305 0.267 0.577l0.405 0.493 0.627-0.391c0.343-0.216 1.139-0.725 1.767-1.132zM21.852 11.344c2.813-0.787 5.156-1.469 5.205-1.519h-22.271c0.249 0.249 10.372 2.927 11.097 2.936 0.547 0.007 2.685-0.501 5.968-1.417z"></path>
</svg>
