<!-- Generated by IcoMoon.io -->
<svg version="1.1" xmlns="http://www.w3.org/2000/svg" width="32" height="32" viewBox="0 0 32 32">
<title>ionic</title>
<path fill="#3880ff" d="M30.563 9.369l-0.137-0.307-0.225 0.251c-0.544 0.619-1.237 1.093-2.007 1.381l-0.212 0.081 0.088 0.207c0.632 1.476 1 3.195 1 4.999 0 0.005 0 0.009 0 0.014v-0.001c0 7.207-5.863 13.075-13.075 13.075s-13.069-5.863-13.069-13.069 5.869-13.075 13.075-13.075c1.956 0 3.844 0.425 5.6 1.263l0.207 0.1 0.088-0.207c0.339-0.776 0.84-1.426 1.465-1.93l0.010-0.008 0.263-0.212-0.3-0.156c-2.118-1.118-4.629-1.775-7.293-1.775-0.013 0-0.026 0-0.039 0h0.002c-8.825 0-16 7.175-16 16s7.175 16 16 16 16-7.175 16-16c0-2.307-0.481-4.537-1.439-6.632zM16 8.707c-4.026 0.005-7.289 3.267-7.293 7.293v0c0.005 4.026 3.267 7.289 7.293 7.293h0c4.026-0.005 7.289-3.267 7.293-7.293v-0c-0.007-4.025-3.268-7.287-7.293-7.293h-0.001zM29.793 6.031c0 1.837-1.489 3.325-3.325 3.325s-3.325-1.489-3.325-3.325v0c0-1.837 1.489-3.325 3.325-3.325s3.325 1.489 3.325 3.325v0z"></path>
</svg>
