<!-- Generated by IcoMoon.io -->
<svg version="1.1" xmlns="http://www.w3.org/2000/svg" width="32" height="32" viewBox="0 0 32 32">
<title>ipfs</title>
<path fill="#65c2cb" d="M16 0l-13.856 8v16l13.856 8 13.856-8v-16zM14.569 1.927h0.001c0.393 0.293 0.889 0.469 1.425 0.469s1.032-0.176 1.432-0.474l-0.006 0.005 10.045 5.8c-0.010 0.081-0.015 0.174-0.015 0.269s0.006 0.188 0.016 0.28l-0.001-0.011-10.047 5.8c-0.393-0.293-0.888-0.469-1.425-0.469s-1.031 0.176-1.431 0.473l0.006-0.005-10.048-5.8c0.010-0.080 0.015-0.174 0.015-0.268s-0.005-0.188-0.016-0.279l0.001 0.011zM28.432 9.867c0.145 0.107 0.301 0.196 0.465 0.268v11.6c-0.855 0.38-1.441 1.221-1.441 2.2 0 0.095 0.006 0.189 0.016 0.281l-0.001-0.011-10.047 5.8c-0.135-0.1-0.288-0.189-0.45-0.261l-0.015-0.006-0.012-11.537c0.856-0.38 1.442-1.221 1.442-2.2 0-0.094-0.005-0.187-0.016-0.279l0.001 0.011zM3.568 9.931l10.047 5.8c-0.010 0.081-0.015 0.175-0.015 0.269 0 0.978 0.585 1.82 1.425 2.194l0.015 0.006v11.6c-0.165 0.072-0.32 0.163-0.465 0.269l-10.047-5.8c0.010-0.081 0.015-0.175 0.015-0.269 0-0.978-0.586-1.82-1.425-2.194l-0.015-0.006v-11.6c0.165-0.072 0.32-0.163 0.465-0.269z"></path>
</svg>
