<!-- Generated by IcoMoon.io -->
<svg version="1.1" xmlns="http://www.w3.org/2000/svg" width="32" height="32" viewBox="0 0 32 32">
<title>issuu</title>
<path fill="#f36d5d" d="M1.328 0c-0.733 0.002-1.327 0.595-1.328 1.328v14.672c0 8.837 7.163 16 16 16s16-7.163 16-16-7.163-16-16-16zM16.221 4.776c6.091 0.059 11.006 5.011 11.006 11.11 0 0.036-0 0.072-0.001 0.109l0-0.006c-0.061 6.090-5.012 11.003-11.11 11.003-0.036 0-0.073-0-0.109-0.001l0.006 0c-6.129-0.060-11.061-5.080-11.005-11.213 0.060-6.133 5.080-11.061 11.213-11.003zM16.18 7.803c-0.019-0-0.042-0-0.064-0-4.469 0-8.096 3.6-8.142 8.057l-0 0.004c-0 0.021-0 0.047-0 0.072 0 4.471 3.602 8.101 8.063 8.145l0.004 0c0.022 0 0.048 0 0.074 0 4.467 0 8.093-3.602 8.132-8.059l0-0.004c0-0.022 0-0.048 0-0.074 0-4.466-3.596-8.093-8.050-8.142l-0.005-0zM16.153 11.82c2.261 0.026 4.084 1.865 4.084 4.13 0 0.012-0 0.024-0 0.035v-0.002c-0.021 2.258-1.856 4.080-4.117 4.080-0.016 0-0.031-0-0.047-0l0.002 0 0.003-0.001c-2.26-0.021-4.084-1.858-4.084-4.121 0-2.276 1.845-4.122 4.122-4.122 0.013 0 0.026 0 0.039 0h-0.002z"></path>
</svg>
