<!-- Generated by IcoMoon.io -->
<svg version="1.1" xmlns="http://www.w3.org/2000/svg" width="32" height="32" viewBox="0 0 32 32">
<title>itunes</title>
<path fill="#fb5bc5" d="M15.972 32c-3.311 0-6.531-1.036-9.272-3.016v0c-3.453-2.496-5.733-6.192-6.419-10.409-0.685-4.216 0.304-8.448 2.788-11.916 2.485-3.472 6.169-5.761 10.373-6.447 4.197-0.685 8.409 0.311 11.861 2.805 3.453 2.496 5.733 6.192 6.42 10.409 0.685 4.216-0.304 8.448-2.788 11.917-2.487 3.472-6.171 5.761-10.373 6.447-0.865 0.14-1.732 0.209-2.591 0.209zM7.34 28.099c3.215 2.323 7.137 3.251 11.045 2.613 3.915-0.639 7.345-2.772 9.661-6.005 4.777-6.672 3.26-16.005-3.384-20.805-3.215-2.323-7.137-3.251-11.045-2.613-3.913 0.64-7.345 2.772-9.66 6.005-4.779 6.672-3.26 16.005 3.383 20.805zM21.481 23.363c0.975-0.285 1.661-0.979 1.944-1.957l0.083-0.288 0.011-7.716c0.008-5.779 0-7.752-0.032-7.86-0.033-0.115-0.088-0.209-0.157-0.285-0.103-0.064-0.227-0.097-0.368-0.097-0.097 0-0.433 0.047-0.747 0.104-1.388 0.253-9.568 1.881-9.708 1.933-0.216 0.081-0.431 0.271-0.532 0.472l-0.087 0.171c0 0-0.041 12.095-0.104 12.231-0.095 0.207-0.307 0.404-0.501 0.467-0.092 0.029-0.457 0.112-0.812 0.183-1.641 0.327-2.251 0.561-2.767 1.068-0.293 0.288-0.509 0.68-0.604 1.092-0.089 0.393-0.060 0.983 0.068 1.341 0.133 0.375 0.349 0.695 0.631 0.947 0.256 0.197 0.559 0.344 0.899 0.432 0.751 0.192 2.157-0.021 2.877-0.437 0.301-0.175 0.688-0.539 0.889-0.839 0.080-0.119 0.2-0.357 0.267-0.532 0.235-0.608 0.241-11.443 0.272-11.579 0.051-0.232 0.209-0.401 0.427-0.459 0.196-0.052 8.073-1.609 8.296-1.64 0.195-0.027 0.379 0.036 0.48 0.16 0.060 0.032 0.111 0.075 0.145 0.128 0.064 0.095 0.068 0.284 0.077 3.713 0.011 3.948 0.016 3.856-0.199 4.105-0.156 0.181-0.351 0.252-1.152 0.415-1.219 0.249-1.635 0.367-2.101 0.595-0.583 0.284-0.905 0.596-1.156 1.115-0.177 0.367-0.243 0.641-0.243 1.005 0.001 0.652 0.225 1.161 0.733 1.66 0.047 0.045 0.092 0.088 0.139 0.129 0.256 0.197 0.516 0.317 0.844 0.392 0.493 0.109 1.499 0.033 2.188-0.168z"></path>
</svg>
