<!-- Generated by IcoMoon.io -->
<svg version="1.1" xmlns="http://www.w3.org/2000/svg" width="32" height="32" viewBox="0 0 32 32">
<title>jabber</title>
<path fill="#c00" d="M12.796 15.649c0-0.467-0.087-0.976-0.357-1.367-0.544-0.784-1.711-1.033-2.523-0.54-0.411 0.251-0.64 0.687-0.768 1.135-0.255 0.891-0.139 1.907 0.040 2.8 0.057 0.285 0.117 0.571 0.197 0.852 0.028 0.101 0.041 0.248 0.107 0.333 0.116 0.147 0.396 0.188 0.568 0.16 0.516-0.087 0.388-0.937 0.371-1.299-0.040-0.845-0.291-1.667-0.048-2.508 0.101-0.357 0.3-0.757 0.659-0.912 0.325-0.14 0.653 0.031 0.781 0.348 0.208 0.513 0.156 1.107 0.287 1.64 0.044 0.183 0.093 0.363 0.175 0.532 0.024 0.049 0.057 0.151 0.125 0.144 0.168-0.015 0.405-0.293 0.531-0.397 0.405-0.333 0.821-0.693 1.287-0.94 0.22-0.117 0.58-0.307 0.804-0.107 0.055 0.050 0.103 0.107 0.142 0.17l0.002 0.003c0.264 0.413 0.003 0.733-0.169 1.127-0.221 0.507-0.448 1.011-0.769 1.464-0.276 0.391-0.653 0.732-0.873 1.159-0.143 0.273-0.223 0.573-0.164 0.884 0.048 0.251 0.241 0.401 0.497 0.343 0.191-0.044 0.32-0.208 0.429-0.359 0.195-0.269 0.375-0.549 0.568-0.82 0.373-0.524 0.813-1.013 1.128-1.577 0.353-0.631 0.56-1.384 0.56-2.186 0-0.011-0-0.023-0-0.034v0.002c0-0.632-0.228-1.597-0.964-1.731-0.053-0.008-0.115-0.012-0.178-0.012-0.091 0-0.179 0.009-0.265 0.027l0.008-0.001c-0.187 0.033-0.354 0.089-0.51 0.165l0.011-0.005c-0.427 0.219-0.788 0.504-1.087 0.845l-0.004 0.004c-0.195 0.213-0.368 0.484-0.599 0.66zM12.104 0.021c-0.58 0.077-1.171 0.069-1.753 0.16-1.117 0.172-2.187 0.519-3.233 0.937-0.381 0.152-0.757 0.321-1.127 0.501-0.137 0.067-0.347 0.12-0.457 0.227-0.057 0.055-0.052 0.185-0.059 0.26-0.019 0.208-0.045 0.417-0.067 0.627-0.077 0.807-0.133 1.639-0.017 2.445 0.037 0.26 0.12 0.733 0.44 0.783 0.492 0.077 0.875-0.529 1.116-0.864 0.565-0.781 1.207-1.509 2.133-1.859 1.089-0.411 2.337-0.508 3.491-0.587 3.235-0.223 6.771 0.369 9.153 2.752 0.339 0.339 0.66 0.699 0.933 1.093 1.067 1.545 1.631 3.303 1.903 5.147 0.128 0.867 0.215 1.744 0.017 2.607-0.343 1.496-1.243 2.8-2.275 3.908-0.707 0.76-1.504 1.445-2.332 2.069-0.463 0.348-0.981 0.644-1.416 1.024-0.5 0.439-0.917 0.987-1.233 1.572-0.852 1.575-1.080 3.469-0.829 5.227 0.051 0.36 0.097 0.723 0.179 1.079 0.024 0.107 0.029 0.289 0.097 0.376 0.129 0.163 0.48 0.252 0.677 0.261 0.205 0.009 0.341-0.147 0.392-0.332 0.085-0.315 0.035-0.664-0.016-0.981-0.101-0.649-0.196-1.303-0.167-1.961 0.049-1.259 0.561-2.39 1.37-3.235l-0.002 0.002c0.857-0.897 2.016-1.415 2.991-2.167 1.965-1.515 3.725-3.557 4.401-5.989 0.165-0.563 0.259-1.209 0.259-1.878 0-0.285-0.017-0.566-0.051-0.842l0.003 0.033c-0.14-1.132-0.553-2.263-0.944-3.329-1.189-3.249-3.229-6.34-6.468-7.827-1.285-0.591-2.631-0.86-4.021-1.053-0.653-0.091-1.307-0.147-1.963-0.176-0.365-0.016-0.763-0.056-1.127-0.008zM7.036 21.061c-0.631 0.091-0.813 0.596-0.697 1.168 0.149 0.731 0.724 1.287 1.293 1.727 1.339 1.033 3.040 1.656 4.887 1.656 0.102 0 0.204-0.002 0.306-0.006l-0.015 0c0.717-0.031 1.499-0.149 2.156-0.453 0.353-0.163 0.723-0.751 0.241-1.001-0.065-0.032-0.141-0.056-0.221-0.067l-0.004-0.001c-0.209-0.035-0.444 0.055-0.643 0.112-0.351 0.1-0.701 0.204-1.063 0.261-1.077 0.173-2.244-0.073-3.136-0.712-0.723-0.516-1.307-1.197-1.857-1.887-0.337-0.421-0.643-0.884-1.248-0.797zM6.216 24.632c-0.16 0.021-0.345 0.015-0.483 0.116-0.287 0.211 0.029 0.635 0.18 0.827 0.437 0.556 1.013 1.017 1.589 1.424 1.501 1.083 3.343 1.783 5.341 1.921l0.033 0.002c0.561 0.040 1.133 0 1.689-0.093 0.203-0.035 0.456-0.049 0.643-0.137 0.532-0.248 0.379-1.252-0.096-1.475-0.207-0.097-0.539 0.031-0.756 0.061-0.513 0.072-1.028 0.080-1.544 0.067-1.353-0.033-2.795-0.451-3.973-1.108-0.488-0.279-0.909-0.585-1.295-0.93l0.007 0.006c-0.241-0.213-0.491-0.56-0.804-0.669-0.147-0.049-0.379-0.031-0.531-0.011zM6.537 27.64c-0.224 0.032-0.417 0.147-0.549 0.313l-0.001 0.002c-0.104 0.117-0.203 0.223-0.263 0.371-0.328 0.812 0.547 1.577 1.152 1.96 0.672 0.427 1.407 0.744 2.155 1.011 1.688 0.6 3.669 0.985 5.421 0.448 0.521-0.16 1.037-0.451 1.416-0.845 0.213-0.223 0.36-0.559-0.032-0.701-0.232-0.084-0.513 0.131-0.724 0.216-0.448 0.193-0.969 0.338-1.512 0.412l-0.032 0.004c-0.703 0.085-1.335-0.069-2.011-0.239-0.579-0.144-1.163-0.289-1.721-0.497-0.522-0.184-0.974-0.415-1.389-0.697l0.021 0.013c-0.125-0.088-0.275-0.167-0.376-0.281-0.333-0.376-0.585-0.816-0.943-1.173-0.155-0.155-0.375-0.341-0.612-0.315z"></path>
</svg>
