<!-- Generated by IcoMoon.io -->
<svg version="1.1" xmlns="http://www.w3.org/2000/svg" width="32" height="32" viewBox="0 0 32 32">
<title>jet</title>
<path fill="#fbba00" d="M21.037 25.392c4.064-0.664 6.34-0.973 10.959-3.193l0.004-3.785c-4.304 4.3-12.332 6.861-20.093 6.797-1-0.013-2.597 0.023-2.995-0.032 4.133 0.653 8.24 0.741 12.125 0.212zM5.115 21.019c1 0.004 2.407-0.019 3.204-0.525 0.713-0.623 1.24-1.475 1.663-2.437l2.060-6.263-2.876 0.017-1.599 4.885c-0.3 1.548-1.257 2.088-1.977 1.977l-1.805-0.129-0.687 2.235 2.017 0.24zM22.835 20.88l2.229-6.765h3.253l0.724-2.22-7.876-0.013-0.741 2.216h1.709l-2.307 6.769 3.009 0.013zM17.691 20.848l0.752-2.291h-4.272l0.396-1.212h3.557l0.724-2.188h-3.548l0.349-1.080h4.107l0.76-2.284-7.023 0.036-2.94 9.009 7.137 0.009zM19.351 7.769c2.511-0.096 4.991 0.111 7.959 0.369-2.923-1.079-7.6-1.876-11.125-1.876-5.792 0-11.525 1.405-16.156 3.567l-0.028 4.931c4.428-4.516 12.152-7.064 19.351-6.991z"></path>
</svg>
