<!-- Generated by IcoMoon.io -->
<svg version="1.1" xmlns="http://www.w3.org/2000/svg" width="32" height="32" viewBox="0 0 32 32">
<title>jinja</title>
<path fill="#b41717" d="M31.625 0.891l-0.107 0.052c0 0-6.084 2.9-10.992 3.536-2.472 0.32-6.073 0.641-9.287 0.827-1.252 0.082-2.765 0.138-4.287 0.156l-0.052 0c-1.223 0.007-2.173-0.043-2.6-0.147-1.279-0.306-2.347-0.641-3.384-1.038l0.184 0.062-0.336-0.133 0.461 1.563-1.227 1.079 0.331 0.583 0.587 0.044 1.403 0.175 0.216 0.685 0.847 0.076 0.424 1.437 0.123 0.008c0 0 1.784 0.153 2.349 0.153 0.487 0 1.24-0.055 1.429-0.067l0.032 0.528 0.383 0.072v0.42l-1.065 0.947 0.208 0.037c-0.187 0.013-0.303 0.024-0.667 0.040-0.572 0.023-1.245 0.027-1.604-0.024-0.781-0.115-0.945-0.115-0.945-0.115h-0.076l-0.163 0.173-0.061 0.595h0.203l0.073 1.481 3.911-0.151-0.273 4.909-0.027 0.463-2.989-0.169-0.027-1.015h0.717l0.076-0.56 0.619-0.141 0.297-0.416-2.815-0.68-2.273 0.675 0.62 0.517h0.221l0.033 0.445 0.659 0.037v1.017l-0.815 0.209 0.253 0.539 0.14 0.091v1.1h0.457v4.395l-0.755 0.115 0.131 1.663 0.445 0.075-0.073 3.123 2.404 0.044-0.427-3.071 2.643-0.064-0.185 1.449-0.333 1.376 3.477 0.044 0.036-3.040 1.763-0.159-0.096 1.724-0.084 1.32h2.177l-0.071-3.067 0.235 0.036 0.089-1.856h-0.324l-0.077-0.453-0.175-1.72 0.065-1.819h0.393v-1.576l-0.485 0.036 0.053-1.075 0.575-0.057 0.029-0.469 0.229-0.033 0.68-0.519-2.436-0.5-2.279 0.505 0.38 0.625 0.319-0.027 0.072-0.005 0.045 0.589 0.547-0.027 0.005 0.899-2.035-0.047 0.071-1.169 0.079-1.235v-1.617l0.064-1.536 4.647-0.237 5.541-0.32 0.044 0.899-0.203 2.599-0.084 2.257-1.76-0.031-0.008-1.357 0.765-0.028 0.037-0.497 0.36-0.055-0.016-0.076 0.203-0.013 0.387-0.517-2.68-0.628-2.649 0.568 0.344 0.6 0.187-0.013v0.119h0.328v0.536l0.699 0.011-0.008 1.141h-0.703l-0.019 0.673 0.249 0.029-0.028 1.304 0.525 0.027-0.059 4.82-0.699 0.144 0.021 0.564h0.235v1.313h0.385l-0.093 1.607-0.149 1.752 2.893 0.076-0.092-1.563-0.184-1.131-0.029-0.791 1.767-0.032-0.055 1.336-0.011 1.773 1.377 0.109 1.669-0.067 0.711-0.209-0.333-1.013-0.071-1.333-0.107-0.777 1.644-0.060-0.076 0.989-0.008 2.020 0.984 0.092 0.841-0.021 0.555-0.173-0.249-1.899-0.065-1.149 0.333-0.036 0.008-1.193 0.107-0.023-0.036-0.573h-0.404l-0.065-0.703-0.031-3.589 0.296-0.008v-1.203l0.128 0.019v-0.615l-0.445-0.036 0.008-1.115 0.76-0.068-0.044-0.483 0.347-0.028-0.032-0.156 0.773-0.387-2.741-0.551-2.508 0.507 0.309 0.576 0.297-0.027 0.019 0.103h0.271l0.015 0.568 0.729-0.008 0.047 1.031-2.228-0.016-0.281-1.943-0.237-1.101-0.193-1.959 0.1-0.995 5.129-0.391 0.016-1.755 0.268-0.067-0.031-0.507-0.319-0.184h-0.049l-0.476 0.067-1.057 0.155c-0.28 0.055-1.021 0.156-1.765 0.248l-0.402 0.040-0.255 0.027-0.019-0.237-1.047-0.547 0.008-0.367 0.361-0.011 0.027-0.896c0.12-0.008 0.469-0.032 1.028-0.083 0.645-0.060 1.387-0.14 1.815-0.24 0.796-0.187 1.936-0.375 1.936-0.375l0.101-0.016 0.544-1.477 1.073-0.312 0.088-0.245 2.373-0.656 0.408-0.336-0.956-2.085 0.063-0.315 0.459-0.24 0.396-1.208zM19.768 8.973l-0.013 0.701 0.543 0.023-0.021 0.427-1.052 0.691-0.115 0.344-2.48 0.12 0.013-0.245 0.149-0.241 0.013-0.204 0.001-0.304 0.089-0.208 0.041-0.213v-0.123l0.107-0.431zM12.86 9.588l-0.057 0.352 0.265 0.312-0.019 0.516 0.235 0.36-0.063 0.437 0.033 0.047-2.463 0.099 0.027-0.203-0.871-0.472-0.029-0.46 0.388-0.019 0.037-0.797zM18.213 20.921l1.677 0.109-0.067 2.584 0.244 2.055-1.787-0.063zM4.579 21.033l2.88 0.149-0.259 1.711v1.625l0.183 0.697-2.787 0.131zM25.081 21.047v4.341l-1.721 0.125-0.068-2.297-0.211-2.123zM9.755 21.148l2.051 0.008 0.023 3.995-1.907 0.035-0.101-1.237-0.008-1.396z"></path>
</svg>
