<!-- Generated by IcoMoon.io -->
<svg version="1.1" xmlns="http://www.w3.org/2000/svg" width="32" height="32" viewBox="0 0 32 32">
<title>joomla</title>
<path fill="#5091cd" d="M22.292 19.679l-7.108 7.116c-1.824 1.82-4.396 2.44-6.729 1.863-0.436 1.899-2.139 3.32-4.173 3.32-2.364 0-4.281-1.915-4.281-4.281 0-2.024 1.407-3.719 3.292-4.164-0.595-2.347 0.021-4.94 1.861-6.773l0.239-0.24 3.16 3.16-0.245 0.241c-1.025 1.039-1.025 2.699 0 3.719 1.028 1.040 2.696 1.040 3.716 0l0.62-0.62 6.492-6.503zM23.524 28.548c-2.429 0.751-5.18 0.16-7.104-1.757l-0.24-0.247 3.153-3.159 0.24 0.245c1.028 1.024 2.691 1.024 3.716 0 1.020-1.020 1.025-2.68-0.005-3.708l-0.621-0.62-6.489-6.497 3.16-3.159 7.107 7.119c1.82 1.813 2.461 4.371 1.881 6.695 2.080 0.299 3.679 2.080 3.679 4.24 0 2.379-1.919 4.28-4.279 4.28-2.060 0-3.801-1.461-4.18-3.42zM9.3 12.615l7.12-7.113c1.9-1.901 4.609-2.5 7.020-1.781 0.283-2.081 2.073-3.7 4.239-3.7 2.363 0 4.281 1.916 4.281 4.279 0 2.175-1.621 3.971-3.72 4.248 0.692 2.399 0.091 5.088-1.8 6.979l-0.243 0.245-3.159-3.159 0.245-0.245c1.025-1.027 1.025-2.688 0-3.711-1.021-1.021-2.681-1.024-3.708 0.004l-0.616 0.615-6.5 6.495zM5.763 16.144l-0.615-0.616c-1.908-1.908-2.5-4.635-1.776-7.051-1.905-0.439-3.332-2.139-3.332-4.179 0-2.36 1.92-4.279 4.28-4.279 2.128 0 3.893 1.555 4.227 3.588 2.307-0.54 4.835 0.087 6.639 1.887l0.245 0.247-3.16 3.16-0.244-0.241c-1.027-1.020-2.688-1.020-3.713 0-1.028 1.041-1.027 2.7-0.007 3.72l0.62 0.621 6.5 6.499-3.156 3.16-6.508-6.5z"></path>
</svg>
