<!-- Generated by IcoMoon.io -->
<svg version="1.1" xmlns="http://www.w3.org/2000/svg" width="32" height="32" viewBox="0 0 32 32">
<title>jsdelivr</title>
<path fill="#e84d3d" d="M15.801 0l-14.72 5.36 2.080 19.6 12.639 7.040 12.8-7.040 2.32-19.68zM15.884 6.163c1.287 0.004 2.509 0.284 3.611 0.786l-0.056-0.023c-1.314 0.752-2.447 1.614-3.456 2.603l0.003-0.003c-0.060-0.027-0.123-0.041-0.184-0.060-0.137-0.046-0.296-0.073-0.46-0.075h-0.001c-0.095 0-0.188 0.013-0.28 0.028-0.385-0.899-0.673-1.942-0.814-3.031l-0.006-0.059c0.465-0.096 1.004-0.154 1.555-0.163l0.007-0c0.012-0.001 0.041-0.002 0.070-0.002l0.012-0zM13.231 6.579c0.173 1.244 0.495 2.37 0.953 3.423l-0.033-0.084c-0.27 0.287-0.436 0.674-0.437 1.1v0c0.001 0.311 0.090 0.601 0.244 0.847l-0.004-0.007c-1.249 1.725-2.208 3.737-2.54 5.747-0.013 0.075-0.017 0.147-0.027 0.221-0.376 0.12-0.687 0.379-0.875 0.72-1.316-0.444-2.513-1.291-3.487-2.696-0.019-0.201-0.031-0.439-0.035-0.681l-0-0.006c0.003-4.010 2.596-7.406 6.177-8.566l0.063-0.018zM20.573 7.524c1.468 0.935 2.624 2.251 3.35 3.812l0.023 0.055c-0.503 1.271-1.399 2.523-2.524 3.636-0.244-0.152-0.541-0.244-0.858-0.245h-0c-0.389 0.002-0.746 0.137-1.027 0.363l0.003-0.003c-0.616-0.472-1.213-0.983-1.757-1.557-0.444-0.467-0.849-0.973-1.228-1.497 0.253-0.287 0.413-0.659 0.413-1.069 0-0.283-0.081-0.547-0.212-0.781 1.411-1.344 2.816-2.227 3.817-2.712zM15.34 10.167c0.173 0.004 0.333 0.060 0.464 0.154l-0.003-0.002c0.234 0.149 0.387 0.405 0.389 0.698v0c-0.002 0.293-0.156 0.55-0.386 0.697l-0.003 0.002c-0.129 0.091-0.288 0.147-0.46 0.151h-0.001c-0.002 0-0.003 0-0.005 0-0.467 0-0.845-0.378-0.845-0.845 0-0.001 0-0.003 0-0.004v0c0-0.473 0.377-0.851 0.851-0.851zM14.752 12.528c0.175 0.071 0.378 0.113 0.591 0.113 0.109 0 0.216-0.011 0.319-0.032l-0.010 0.002c0.048 0.067 0.1 0.129 0.149 0.197 0.402 0.554 0.805 1.041 1.236 1.5l-0.008-0.008c0.587 0.608 1.217 1.166 1.887 1.673l0.041 0.029c-0.043 0.147-0.072 0.299-0.072 0.456 0.003 0.182 0.035 0.356 0.091 0.518l-0.003-0.012c-0.812 0.536-1.745 1.006-2.732 1.36l-0.092 0.029c-0.116 0.039-0.231 0.069-0.348 0.104-0.735 0.235-1.586 0.394-2.467 0.442l-0.026 0.001c-0.121-0.467-0.445-0.84-0.87-1.027l-0.010-0.004c0.005-0.032 0.007-0.065 0.013-0.097 0.292-1.777 1.164-3.64 2.311-5.245zM24.448 12.781c0.204 0.713 0.323 1.532 0.327 2.379v0.002c-0.001 0.882-0.127 1.734-0.361 2.538l0.016-0.064c-0.86-0.242-1.597-0.529-2.299-0.875l0.078 0.035c0.021-0.1 0.033-0.214 0.033-0.331 0-0.223-0.044-0.436-0.124-0.63l0.004 0.011c0.909-0.878 1.683-1.888 2.294-3l0.033-0.065zM20.564 15.583c0.489 0 0.876 0.388 0.876 0.877s-0.388 0.876-0.876 0.876c-0.489 0-0.877-0.387-0.877-0.876s0.387-0.877 0.877-0.877zM21.68 17.703c0.676 0.34 1.473 0.652 2.301 0.892l0.102 0.025c-1.373 3.279-4.525 5.538-8.198 5.543h-0.001c-0.054-0.003-0.082-0.005-0.111-0.007l0.028 0.002c-0.008 0-0.018 0-0.028 0s-0.020-0-0.030-0h0.002c-0.116-0.056-0.224-0.107-0.355-0.172-0.416-0.205-0.889-0.469-1.128-0.667-0.835-0.68-1.445-1.608-1.718-2.672l-0.008-0.035c0.28-0.148 0.507-0.379 0.649-0.66 0.944-0.036 1.839-0.182 2.693-0.427l-0.079 0.020c0.316-0.084 0.544-0.154 0.77-0.231l-0.086 0.025c1.193-0.417 2.224-0.926 3.18-1.542l-0.058 0.035c0.273 0.191 0.603 0.307 0.959 0.307 0.431-0.002 0.823-0.167 1.117-0.437l-0.001 0.001zM7.404 17.857c0.814 0.767 1.801 1.361 2.895 1.715l0.054 0.015c0.129 0.575 0.57 1.022 1.132 1.158l0.010 0.002c0.278 1.168 0.858 2.173 1.653 2.962l0 0c-2.743-0.916-4.858-3.069-5.728-5.79l-0.018-0.064zM11.84 18.476c0.441 0 0.793 0.351 0.793 0.795s-0.352 0.793-0.793 0.793c-0.002 0-0.005 0-0.008 0-0.434 0-0.787-0.352-0.787-0.787 0-0.002 0-0.005 0-0.007v0c-0-0.002-0-0.004-0-0.007 0-0.435 0.353-0.788 0.788-0.788 0.002 0 0.005 0 0.007 0h-0z"></path>
</svg>
