<!-- Generated by IcoMoon.io -->
<svg version="1.1" xmlns="http://www.w3.org/2000/svg" width="32" height="32" viewBox="0 0 32 32">
<title>jsfiddle</title>
<path fill="#4679a4" d="M28.104 15.001c0.013-0.188 0.028-0.371 0.028-0.559 0-5.177-4.257-9.375-9.513-9.375-3.651-0.013-6.987 2.064-8.588 5.345-0.767-0.589-1.707-0.908-2.676-0.908-2.427 0-4.393 1.933-4.393 4.32 0 0.451 0.071 0.884 0.2 1.289-1.951 1.127-3.156 3.204-3.161 5.457 0 3.469 2.832 6.289 6.345 6.34h19c0.12 0 0.24 0.020 0.36 0.020 3.479 0 6.297-2.777 6.297-6.216-0.016-2.515-1.547-4.772-3.88-5.715zM8.587 22.136c-0.639-0.579-1.039-1.279-1.197-2.107-0.055-0.288-0.081-0.579-0.081-0.869 0-1.18 0.429-2.151 1.289-2.917 0.86-0.768 1.949-1.152 3.273-1.152 1.36 0 2.639 0.511 3.775 1.528 0.28 0.252 0.556 0.539 0.819 0.855l1.455 1.712c0.251 0.345 0.519 0.64 0.8 0.895 0.751 0.672 1.56 1.008 2.248 1.008 0.584 0 1.068-0.18 1.459-0.536 0.331-0.305 0.536-0.719 0.579-1.167l0.011-0.197c0.003-0.188-0.028-0.375-0.085-0.555-0.303-0.825-1.099-1.364-1.979-1.335-0.724 0-1.443 0.244-2.229 1.007l-1.289-1.519-0.14-0.172c1.14-1.105 2.26-1.519 3.779-1.519 1.339 0 2.437 0.379 3.255 1.139l0.021 0.020c0.861 0.759 1.279 1.74 1.279 2.944 0 0.28-0.021 0.58-0.079 0.84-0.161 0.819-0.56 1.499-1.18 2.079-0.636 0.58-1.427 0.956-2.279 1.080-0.3 0.040-0.599 0.060-0.94 0.060-1.377 0-2.677-0.5-3.776-1.499-0.312-0.283-0.599-0.591-0.86-0.919l-1.459-1.7c-0.228-0.325-0.488-0.628-0.78-0.899-0.74-0.68-1.56-1-2.279-1-0.208 0-0.417 0.028-0.62 0.081-0.313 0.080-0.603 0.237-0.839 0.46-0.372 0.345-0.584 0.831-0.581 1.34 0 0.519 0.18 0.959 0.56 1.317l0.021 0.021c0.4 0.36 0.9 0.539 1.479 0.539 0.74 0 1.459-0.259 2.237-1.019l1.28 1.499 0.139 0.159c-1.159 1.12-2.277 1.539-3.737 1.539-1.339 0-2.437-0.379-3.277-1.139z"></path>
</svg>
