<!-- Generated by IcoMoon.io -->
<svg version="1.1" xmlns="http://www.w3.org/2000/svg" width="32" height="32" viewBox="0 0 32 32">
<title>jupyter</title>
<path fill="#f37626" d="M16.267 24.133c-5.067 0-9.6-1.867-12-4.533 0.933 2.4 2.533 4.533 4.667 6s4.667 2.267 7.333 2.267 5.2-0.8 7.333-2.267 3.733-3.6 4.667-6c-2.4 2.667-6.933 4.533-12 4.533zM16.267 6.533c5.067 0 9.6 1.867 12 4.533-0.933-2.4-2.533-4.533-4.667-6-2.267-1.6-4.8-2.4-7.333-2.4-2.667 0-5.2 0.8-7.333 2.267-2.133 1.6-3.733 3.6-4.667 6.133 2.4-2.8 6.8-4.533 12-4.533zM25.6 0.133c-1.031 0-1.867 0.836-1.867 1.867s0.836 1.867 1.867 1.867v0c1.031 0 1.867-0.836 1.867-1.867s-0.836-1.867-1.867-1.867v0zM6.8 27.067c-1.325 0-2.4 1.075-2.4 2.4s1.075 2.4 2.4 2.4v0c1.325 0 2.4-1.075 2.4-2.4s-1.075-2.4-2.4-2.4v0zM4.8 3.067c-0.736 0-1.333 0.597-1.333 1.333s0.597 1.333 1.333 1.333v0c0.736 0 1.333-0.597 1.333-1.333s-0.597-1.333-1.333-1.333v0z"></path>
</svg>
