<!-- Generated by IcoMoon.io -->
<svg version="1.1" xmlns="http://www.w3.org/2000/svg" width="32" height="32" viewBox="0 0 32 32">
<title>justgiving</title>
<path fill="#ad29b6" d="M31.621 13.233h-11.181l-6.531 6.559h8.969c-1.18 2.633-3.82 4.081-6.88 4.081-4.139 0-7.519-3.56-7.519-7.695 0-4.152 3.381-7.619 7.52-7.619 1.512 0 2.919 0.393 4.081 1.161l6.056-6.081c-2.749-2.265-6.28-3.64-10.137-3.64-8.84 0-16 7.156-16 16 0 8.831 7.16 16 16 16s16-6.82 16-15.651c0-1.195-0.137-1.8-0.379-3.116z"></path>
</svg>
