<!-- Generated by IcoMoon.io -->
<svg version="1.1" xmlns="http://www.w3.org/2000/svg" width="32" height="32" viewBox="0 0 32 32">
<title>kaggle</title>
<path fill="#20beff" d="M25.1 31.812c-0.029 0.123-0.156 0.188-0.375 0.188h-4.185c-0.249 0-0.468-0.109-0.656-0.331l-6.904-8.785-1.931 1.832v6.815c0 0.313-0.156 0.469-0.468 0.469h-3.241c-0.315 0-0.472-0.156-0.472-0.469v-31.060c0-0.311 0.157-0.471 0.472-0.471h3.241c0.312 0 0.468 0.16 0.468 0.471v19.124l8.271-8.363c0.22-0.22 0.44-0.328 0.66-0.328h4.319c0.192 0 0.315 0.080 0.38 0.24 0.061 0.199 0.045 0.34-0.048 0.42l-8.74 8.459 9.115 11.343c0.127 0.139 0.156 0.277 0.093 0.477z"></path>
</svg>
