<!-- Generated by IcoMoon.io -->
<svg version="1.1" xmlns="http://www.w3.org/2000/svg" width="32" height="32" viewBox="0 0 32 32">
<title>kaios</title>
<path fill="#6f02b5" d="M5.96 0c-0.012-0-0.026-0-0.040-0-2.055 0-3.724 1.655-3.746 3.705l-0 0.002v24.573c0.007 2.056 1.676 3.72 3.733 3.72 0.019 0 0.037-0 0.056-0l-0.003 0c0.020 0 0.043 0.001 0.067 0.001 2.053 0 3.718-1.657 3.733-3.706v-24.588c-0.037-2.055-1.712-3.707-3.773-3.707-0.010 0-0.019 0-0.029 0h0.001zM18.493 11.387c-0.686-0.95-1.79-1.561-3.037-1.561-0.806 0-1.552 0.255-2.162 0.689l0.011-0.008c-0.962 0.65-1.586 1.737-1.586 2.97 0 0.788 0.255 1.516 0.687 2.107l-0.007-0.010 10.667 14.867c0.689 0.944 1.791 1.55 3.035 1.55 0.8 0 1.542-0.251 2.15-0.678l-0.012 0.008c0.964-0.65 1.59-1.738 1.59-2.973 0-0.741-0.226-1.429-0.612-2l0.008 0.013-0.080-0.12zM23.36 9.813c0.012 0 0.026 0 0.040 0 2.713 0 4.916-2.184 4.946-4.891l0-0.003c-0.030-2.709-2.233-4.894-4.946-4.894-0.014 0-0.028 0-0.042 0h0.002c-0.016-0-0.035-0-0.054-0-2.713 0-4.916 2.185-4.946 4.891l-0 0.003c0.030 2.709 2.233 4.894 4.946 4.894 0.019 0 0.038-0 0.056-0l-0.003 0z"></path>
</svg>
