<!-- Generated by IcoMoon.io -->
<svg version="1.1" xmlns="http://www.w3.org/2000/svg" width="32" height="32" viewBox="0 0 32 32">
<title>kaspersky</title>
<path fill="#009982" d="M14.416 16.013c0 1.212-0.74 1.787-1.667 1.787h-0.563v-0.733h0.523c0.56 0 0.933-0.299 0.933-1.060 0-0.751-0.353-1.123-0.949-1.123-0.573 0-0.981 0.352-0.981 1.107v3.045h-0.779v-4.783h0.772v0.413h0.107c0.231-0.307 0.595-0.503 1.004-0.503 0.011 0 0.023 0 0.034 0l-0.002-0c0.855 0 1.568 0.621 1.568 1.849zM9.344 15.697l-0.512-0.052c-0.404-0.036-0.616-0.145-0.616-0.383 0-0.28 0.273-0.44 0.663-0.44 0.403 0 0.663 0.192 0.683 0.46h0.74c-0.031-0.693-0.564-1.119-1.417-1.119-0.86 0-1.44 0.456-1.44 1.124 0 0.56 0.352 0.921 1.155 1l0.523 0.051c0.316 0.031 0.528 0.093 0.528 0.399 0 0.275-0.196 0.472-0.72 0.472-0.48 0-0.719-0.219-0.801-0.513h-0.801c0.076 0.667 0.64 1.187 1.603 1.187 0.907 0 1.492-0.477 1.492-1.187-0.005-0.615-0.413-0.936-1.077-0.999zM17.403 16.701c-0.119 0.28-0.408 0.488-0.823 0.488-0.563 0-0.983-0.369-0.983-1.161 0-0.755 0.387-1.176 0.993-1.176 0.539 0 0.844 0.32 0.875 0.808h-1.387v0.56h2.148v-0.367c0-1.021-0.677-1.684-1.64-1.684-0.896 0-1.756 0.613-1.756 1.859 0 1.248 0.86 1.859 1.755 1.859 0.817 0 1.408-0.507 1.589-1.187zM5.235 14.164c-0.844 0-1.476 0.441-1.553 1.119h0.828c0.057-0.248 0.284-0.435 0.72-0.435 0.559 0 0.74 0.293 0.74 0.653v1.211c-0.316 0.361-0.684 0.528-1.051 0.528-0.384 0-0.647-0.187-0.647-0.512 0-0.317 0.207-0.513 0.6-0.513h0.615v-0.555h-0.64c-0.883 0-1.377 0.441-1.377 1.119 0 0.632 0.475 1.108 1.261 1.108 0.44 0 0.828-0.176 1.12-0.387h0.107v0.299h0.772v-2.365c0.021-0.875-0.573-1.269-1.495-1.269zM0 17.797h0.772v-4.848h-0.772zM3.24 14.253h-0.941l-1.121 1.48v0.461l1.152 1.603h0.957l-1.353-1.836zM31.147 14.253l-0.631 1.401c-0.156 0.337-0.3 0.668-0.347 0.892h-0.109c-0.047-0.224-0.197-0.544-0.352-0.88l-0.632-1.413h-0.855l1.487 3.184-0.735 1.603h0.823l2.204-4.787zM28.052 14.253h-0.943l-1.123 1.476v0.46l1.153 1.604h0.959l-1.352-1.837zM23.216 15.697l-0.511-0.052c-0.405-0.036-0.616-0.145-0.616-0.383 0-0.28 0.273-0.44 0.663-0.44 0.403 0 0.661 0.192 0.681 0.461h0.74c-0.031-0.695-0.563-1.12-1.417-1.12-0.86 0-1.44 0.456-1.44 1.124 0 0.56 0.353 0.921 1.155 1l0.524 0.051c0.315 0.031 0.528 0.093 0.528 0.399 0 0.275-0.197 0.472-0.72 0.472-0.481 0-0.72-0.219-0.801-0.513h-0.804c0.079 0.667 0.641 1.187 1.605 1.187 0.907 0 1.491-0.477 1.491-1.187 0-0.615-0.413-0.936-1.077-0.999zM24.811 17.799h0.771v-4.849h-0.771zM19.717 14.667h-0.109v-0.413h-0.771v3.547h0.771v-1.855c0-0.631 0.291-0.999 0.871-0.999h0.487v-0.783h-0.284c-0.533 0-0.761 0.204-0.964 0.503z"></path>
</svg>
