<!-- Generated by IcoMoon.io -->
<svg version="1.1" xmlns="http://www.w3.org/2000/svg" width="32" height="32" viewBox="0 0 32 32">
<title>kentico</title>
<path fill="#f05a22" d="M0 0v33.333h33.333v-33.333zM19.333 11.733l4-4c0 0 2.933 1.733 1.2 3.467l-2.8 2.8c-1.6 1.467-3.867-0.8-2.4-2.267zM18.267 7.333v4c0 2-3.333 2-3.333 0v-5.6c0 0 3.333-0.8 3.333 1.6zM11.2 8.933l2.8 2.8c1.467 1.467-0.8 3.733-2.267 2.267l-4-4c0 0 1.733-2.8 3.467-1.067zM7.333 15.067h4c2 0 2 3.333 0 3.333h-5.6c0-0.133-0.8-3.333 1.6-3.333zM14 21.6l-4 4c0 0-2.933-1.733-1.2-3.467l2.8-2.8c1.6-1.467 3.867 0.8 2.4 2.267zM18.267 27.6c0 0-3.333 0.8-3.333-1.6v-4c0-2 3.333-2 3.333 0zM16.667 19.067c-1.333 0-2.4-1.067-2.4-2.4s1.067-2.4 2.4-2.4 2.4 1.067 2.4 2.4-1.067 2.4-2.4 2.4zM22.133 24.4l-2.8-2.8c-1.467-1.467 0.8-3.733 2.267-2.267l4 4c0 0-1.733 2.8-3.467 1.067zM26 18.267h-4c-2 0-2-3.333 0-3.333h5.6c0 0.133 0.8 3.333-1.6 3.333z"></path>
</svg>
