<!-- Generated by IcoMoon.io -->
<svg version="1.1" xmlns="http://www.w3.org/2000/svg" width="32" height="32" viewBox="0 0 32 32">
<title>keycdn</title>
<path fill="#3686be" d="M3.073 25.42c0.301 0.013 0.605 0.053 0.889 0.16v-0.004l0.043 0.016 3.747-3.653 0.136 0.183c0.195 0.267 0.4 0.507 0.619 0.747l0.080 0.091c0.057 0.057 0.103 0.115 0.16 0.173l0.435 0.433 0.103 0.093 0.093 0.080c1.74 1.476 3.916 2.312 6.207 2.369 1.889 0.045 3.733-0.435 5.347-1.387l0.288 0.299c0.333 0.355 0.676 0.711 1.008 1.067-1.993 1.28-4.307 1.923-6.689 1.867-2.68-0.071-5.235-1.032-7.284-2.751l0.013-0.021-2.404 2.369c0.089 0.28 0.124 0.573 0.128 0.867 0 1.656-1.341 2.997-2.996 2.997s-2.995-1.345-2.995-3.001c0-1.653 1.34-2.995 2.995-2.995zM25.973 9.969c1.18 1.936 1.764 4.169 1.707 6.437-0.067 2.773-1.111 5.417-2.944 7.491l0.013 0.013 1.476 1.568c0.595-0.080 1.189 0.125 1.603 0.56 0.699 0.744 0.676 1.913-0.069 2.623-0.744 0.699-1.913 0.676-2.623-0.069-0.413-0.435-0.584-1.043-0.469-1.627-0.685-0.733-1.9-2.027-2.6-2.76l-0.147-0.16 0.171-0.137c0.447-0.355 0.859-0.744 1.237-1.18 1.569-1.764 2.451-4.008 2.507-6.368 0.047-1.787-0.377-3.537-1.236-5.084zM5.104 2.968c0.527-0.008 1.020 0.2 1.387 0.576 0.413 0.435 0.587 1.043 0.471 1.627l2.839 2.976-0.171 0.139c-0.447 0.355-0.859 0.744-1.237 1.18-1.569 1.763-2.451 4.007-2.52 6.367-0.045 1.787 0.377 3.539 1.237 5.096l-1.363 1.328c-1.191-1.947-1.787-4.18-1.717-6.471 0.059-2.757 1.133-5.421 2.939-7.496l-1.564-1.631c-0.596 0.080-1.191-0.127-1.604-0.56-0.699-0.747-0.676-1.915 0.069-2.624 0.289-0.272 0.663-0.447 1.059-0.493 0.059-0.008 0.12-0.009 0.176-0.013zM29.004 0.589c1.653 0 2.996 1.341 2.996 2.997s-1.341 2.995-2.996 2.995c-0.32 0.004-0.632-0.053-0.933-0.149l-0.003 0.003-0.044-0.016-4.067 3.86-0.136-0.184c-0.217-0.287-0.459-0.573-0.711-0.836l-0.045-0.057-0.355-0.355-0.16-0.137-0.103-0.093-0.080-0.067-0.103-0.093c-1.729-1.453-3.893-2.28-6.16-2.336-1.891-0.044-3.733 0.427-5.339 1.387l-1.307-1.363c1.995-1.283 4.307-1.924 6.689-1.867 2.68 0.069 5.236 1.031 7.285 2.76h0.023l2.693-2.556c-0.093-0.288-0.133-0.591-0.137-0.893 0-1.656 1.341-2.997 2.991-2.999zM15.947 7.277c0.339 0 0.676 0.027 1.013 0.067 4.832 0.607 8.256 5.016 7.661 9.849-0.607 4.833-5.016 8.257-9.849 7.663-4.835-0.607-8.259-5.016-7.664-9.849 0.576-4.484 4.344-7.713 8.839-7.729zM15.813 11.064c-1.955 0.155-3.371 1.635-3.421 3.6 0.036 1.404 0.753 2.587 2.007 3.233l-0.683 3.2h4.564l-0.68-3.2c1.247-0.676 1.987-1.795 2.007-3.231-0.027-2.029-1.597-3.557-3.608-3.608zM15.883 11.043h-0.013z"></path>
</svg>
