<!-- Generated by IcoMoon.io -->
<svg version="1.1" xmlns="http://www.w3.org/2000/svg" width="32" height="32" viewBox="0 0 32 32">
<title>khanacademy</title>
<path fill="#14bf96" d="M28.965 6.631l-11.075-6.193c-0.55-0.276-1.199-0.437-1.885-0.437s-1.335 0.161-1.91 0.448l0.025-0.011-11.085 6.193c-1.079 0.69-1.804 1.851-1.885 3.186l-0.001 0.011v12.341c0.081 1.347 0.806 2.509 1.869 3.19l0.016 0.010 11.075 6.193c0.55 0.276 1.199 0.437 1.885 0.437s1.335-0.161 1.91-0.448l-0.025 0.011 11.085-6.193c1.079-0.691 1.805-1.853 1.885-3.189l0.001-0.011v-12.339c-0.081-1.347-0.806-2.509-1.869-3.19l-0.016-0.010zM16 6.561c0 0 0 0 0.001 0 1.894 0 3.429 1.535 3.429 3.429s-1.535 3.428-3.428 3.429h-0c-0 0-0 0-0.001 0-1.894 0-3.429-1.535-3.429-3.429s1.535-3.428 3.428-3.429h0zM20.125 24.731c-1.23 0.462-2.652 0.73-4.136 0.732h-0.001c-1.473-0.003-2.882-0.272-4.184-0.761l0.082 0.027c-4.312-1.665-7.315-5.777-7.315-10.591 0-0.021 0-0.041 0-0.062v0.003-1.143c6.195 0.023 10.765 5.097 10.765 11.347v0.264h1.235v-0.263c0-6.251 4.593-11.347 10.741-11.347 0.035 0.387 0.057 0.776 0.115 1.141 0 0.017 0 0.037 0 0.056 0 4.811-2.997 8.922-7.226 10.568l-0.077 0.026z"></path>
</svg>
