<!-- Generated by IcoMoon.io -->
<svg version="1.1" xmlns="http://www.w3.org/2000/svg" width="32" height="32" viewBox="0 0 32 32">
<title>kik</title>
<path fill="#82bc23" d="M15.309 22.336c-0.013 0.917-0.747 1.656-1.651 1.656-0.919 0-1.64-0.721-1.659-1.64h-0.021v-8.324h0.021v-0.039c0-0.924 0.741-1.675 1.649-1.675s1.648 0.751 1.648 1.677v0.060h0.021v8.3h-0.021zM30.159 15.817c1 0 1.841 0.824 1.841 1.836 0 1.013-0.841 1.833-1.841 1.833-1.021 0-1.86-0.82-1.86-1.839 0-1.021 0.82-1.841 1.839-1.841zM27.38 21.399c0.161 0.26 0.257 0.576 0.257 0.915 0 0.937-0.737 1.68-1.659 1.68-0.617 0-1.159-0.341-1.44-0.841l-2.737-3.661-0.841 0.781v2.18h-0.019c-0.052 0.869-0.76 1.557-1.633 1.557-0.899 0-1.628-0.737-1.628-1.651v-0.033h-0.021v-12.6h0.036v-0.063c0-0.92 0.735-1.671 1.64-1.671 0.899 0 1.633 0.749 1.633 1.671v0.093h0.021l0.013 6.129 3.081-3.015c0.305-0.34 0.745-0.54 1.237-0.54 0.919 0 1.664 0.76 1.664 1.68 0 0.461-0.177 0.861-0.459 1.161l0.016 0.020-2.161 2.14 3.041 4.081-0.021 0.021zM9.719 21.399c0.16 0.26 0.26 0.576 0.26 0.915 0 0.937-0.74 1.68-1.659 1.68-0.621 0-1.161-0.341-1.441-0.841l-2.739-3.661-0.84 0.781v2.175h-0.020c-0.048 0.872-0.76 1.56-1.628 1.56-0.901 0-1.633-0.74-1.633-1.651v-0.036h-0.019v-12.6h0.041c-0.005-0.020-0.005-0.039-0.005-0.059 0-0.92 0.735-1.669 1.64-1.669 0.9 0 1.633 0.745 1.633 1.667v0.093h0.021l0.013 6.133 3.081-3.015c0.307-0.34 0.749-0.54 1.241-0.54 0.916 0 1.66 0.76 1.66 1.68 0 0.44-0.175 0.861-0.461 1.161l0.021 0.020-2.169 2.14 3.028 4.081-0.021 0.021z"></path>
</svg>
