<!-- Generated by IcoMoon.io -->
<svg version="1.1" xmlns="http://www.w3.org/2000/svg" width="32" height="32" viewBox="0 0 32 32">
<title>known</title>
<path d="M32 16c0 8.8-7.2 16-16 16s-16-7.2-16-16 7.2-16 16-16 16 7.2 16 16zM16 2.4c-7.6 0-13.6 6-13.6 13.6s6 13.6 13.6 13.6 13.6-6 13.6-13.6-6-13.6-13.6-13.6zM23.467 9.6l-0.267 0.267c0.133-0.133 0.4-0.267 0.533-0.267zM23.733 9.6h0.667v-2.533h-7.333v2.533h1.2c0.267 0 0.4 0.133 0.4 0.4 0 0.133 0 0.267-0.133 0.267l-5.067 5.067h-0.133c-0.133 0-0.267-0.133-0.267-0.267v-4.533c0-0.533 0.4-0.933 0.933-0.933h1.067v-2.533h-7.867v2.533h0.933c0.533 0 0.933 0.4 0.933 0.933v11.2c0 0.533-0.4 0.933-0.933 0.933h-0.933v2.667h7.867v-2.667h-1.067c-0.533 0-0.933-0.4-0.933-0.933v-1.867c0-0.133 0-0.267 0.133-0.4l2-2c0 0 0.133-0.133 0.267-0.133s0.267 0 0.267 0.133l2.8 4.4v0.267c0 0.267-0.133 0.4-0.4 0.4h-1.2v2.667h8.4v-2.667h-0.933c-0.267 0-0.533-0.133-0.667-0.4v-0.133l-4.933-7.333c0-0.133-0.133-0.133-0.133-0.267s0-0.267 0.133-0.267l4.267-4.267c0.267-0.267 0.4-0.267 0.667-0.267z"></path>
</svg>
