<!-- Generated by IcoMoon.io -->
<svg version="1.1" xmlns="http://www.w3.org/2000/svg" width="32" height="32" viewBox="0 0 32 32">
<title>kodi</title>
<path fill="#17b2e7" d="M16.040 0.063c-0.301 0-0.603 0.143-0.892 0.432-1.229 1.229-2.456 2.46-3.684 3.691-0.311 0.311-0.607 0.64-0.937 0.927-0.413 0.356-0.54 0.777-0.532 1.317 0.027 1.865 0.011 3.732 0.011 5.597 0 1.937-0.003 3.876 0 5.813 0 0.147 0.003 0.297 0.040 0.436 0.116 0.449 0.404 0.524 0.728 0.2 1.747-1.747 3.491-3.496 5.237-5.244l5.932-5.937c0.573-0.575 0.573-1.207 0-1.781l-5.013-5.020c-0.288-0.289-0.589-0.432-0.889-0.431zM25.672 9.703c-0.297 0-0.593 0.139-0.867 0.412l-5.045 5.045c-0.571 0.572-0.569 1.193 0 1.763l5.013 5.021c0.587 0.587 1.211 0.587 1.795 0.003 1.62-1.621 3.236-3.244 4.859-4.863 0.243-0.24 0.471-0.485 0.573-0.82v-0.44c-0.103-0.335-0.328-0.581-0.571-0.823-1.632-1.627-3.257-3.26-4.888-4.891-0.273-0.273-0.572-0.409-0.869-0.408zM5.573 10.148c-0.115 0.019-0.193 0.125-0.276 0.209l-5.019 5.072c-0.373 0.379-0.371 0.903 0.005 1.28l2.724 2.728c0.787 0.787 1.569 1.576 2.356 2.363 0.225 0.224 0.44 0.185 0.555-0.112 0.059-0.152 0.083-0.323 0.084-0.485 0.005-1.711 0.005-3.423 0.005-5.135h-0.003v-5.156c0-0.113-0.013-0.225-0.029-0.336-0.025-0.18-0.096-0.344-0.276-0.412-0.028-0.012-0.060-0.018-0.093-0.018-0.012 0-0.023 0.001-0.035 0.002l0.001-0zM16.117 19.265c-0.299 0-0.596 0.141-0.875 0.42l-5.029 5.031c-0.577 0.579-0.577 1.199 0.003 1.779 1.62 1.621 3.24 3.24 4.857 4.865 0.24 0.24 0.481 0.472 0.815 0.577h0.44c0.325-0.092 0.564-0.301 0.797-0.536 1.629-1.64 3.267-3.271 4.901-4.907 0.573-0.573 0.569-1.207-0.005-1.784l-5.029-5.031c-0.277-0.277-0.576-0.415-0.875-0.415z"></path>
</svg>
