<!-- Generated by IcoMoon.io -->
<svg version="1.1" xmlns="http://www.w3.org/2000/svg" width="32" height="32" viewBox="0 0 32 32">
<title>krita</title>
<path fill="#3babff" d="M0.869 1.013c-0.001 0-0.003 0-0.004 0-0.269 0-0.509 0.128-0.661 0.326l-0.001 0.002c-0.469 0.597-0.047 1.197 0.483 1.683 0.275 0.252 2.36 2.392 4.571 4.703 0.716-0.997 1.512-1.864 2.4-2.628l0.020-0.016c-2.787-1.729-5.417-3.395-5.728-3.616-0.347-0.248-0.725-0.451-1.079-0.453zM7.676 5.083c2.464 1.531 5.048 3.109 6.257 3.787 1.959 1.095 5.011 3.579 5.456 5.912 0.713 0.621 2.909 2.555 3.461 3.217 0.931-0.281 2.024 0.177 2.747 1.493 1.155 2.111 0.303 4.996-2.624 6.651-0.122 0.119-0.251 0.235-0.384 0.347l-0.011 0.009 0.395-0.356c1.52-1.957-0.952-3.253-1.567-5.152-0.095-0.267-0.15-0.575-0.15-0.896 0-0.050 0.001-0.101 0.004-0.15l-0 0.007c-0.711-0.376-2.813-1.936-3.727-2.62-2.401 0.213-5.609-2.364-7.133-4.107-0.933-1.069-3.093-3.356-5.144-5.497-1.702 2.369-2.724 5.327-2.728 8.523v0.001c0 8.138 6.598 14.736 14.736 14.736s14.736-6.598 14.736-14.736c0-8.138-6.598-14.736-14.736-14.736v0c-3.52 0.005-6.92 1.272-9.588 3.568zM19.289 15.152c-0.687 0.168-1.291 1.108-1.491 1.741-0.051 0.153-0.053 0.404 0.088 0.456 1.069 0.789 2.075 1.557 3.2 2.267 0.216-0.524 0.995-1.284 1.461-1.6zM3.916 17.337c1.083 2.531 7.731 9.56 16.080 3.593-0 0.015-0 0.032-0 0.049 0 0.324 0.056 0.635 0.158 0.924l-0.006-0.019c0.613 1.893 3.147 3.236 1.651 5.187-2.847 1.819-6.667 1.601-9.319 0.704-4.744-1.605-7.885-5.776-8.564-10.437zM22.292 18.271c-0.033 0.022-0.061 0.044-0.088 0.067l0.002-0.001c-0.005 0.004-0.011 0.011-0.015 0.011 0.004-0.004 0.009-0.011 0.013-0.011 0.032-0.020 0.059-0.045 0.088-0.065z"></path>
</svg>
