<!-- Generated by IcoMoon.io -->
<svg version="1.1" xmlns="http://www.w3.org/2000/svg" width="32" height="32" viewBox="0 0 32 32">
<title>laravelnova</title>
<path d="M28.444 5.759c-6.364-5.244-15.84-4.916-21.813 0.984-1.864 1.833-3.019 4.381-3.019 7.2s1.155 5.367 3.018 7.199l0.001 0.001c4.024 3.976 10.549 3.976 14.575 0 0.799-0.785 1.293-1.878 1.293-3.085s-0.495-2.3-1.293-3.085l-0.001-0.001c-0.804-0.79-1.906-1.278-3.123-1.278s-2.32 0.488-3.124 1.278l0.001-0.001c-0.268 0.263-0.635 0.425-1.041 0.425s-0.773-0.162-1.041-0.426l0 0c-0.266-0.262-0.431-0.626-0.431-1.029s0.165-0.767 0.431-1.028l0-0c1.339-1.317 3.177-2.13 5.205-2.13s3.866 0.813 5.206 2.131l-0.001-0.001c1.331 1.309 2.156 3.13 2.156 5.143s-0.825 3.834-2.155 5.142l-0.001 0.001c-5.175 5.112-13.565 5.112-18.74 0-2.396-2.356-3.881-5.633-3.881-9.257 0-3.614 1.477-6.882 3.86-9.236l0.001-0.001c2.933-2.907 6.989-4.707 11.472-4.707 5 0 9.473 2.24 12.444 5.759zM27.492 27.273c-2.937 2.921-6.985 4.727-11.456 4.727-0.013 0-0.026 0-0.038-0h0.002c-0.012 0-0.025 0-0.039 0-4.963 0-9.407-2.227-12.386-5.735l-0.019-0.023c6.363 5.244 15.84 4.916 21.813-0.984 1.864-1.833 3.019-4.381 3.019-7.2s-1.155-5.367-3.018-7.199l-0.001-0.001c-4.024-3.976-10.549-3.976-14.575 0-0.799 0.785-1.293 1.878-1.293 3.085s0.495 2.3 1.293 3.085l0.001 0.001c0.804 0.79 1.906 1.278 3.123 1.278s2.32-0.488 3.124-1.278l-0.001 0.001c0.268-0.263 0.635-0.425 1.041-0.425s0.773 0.162 1.041 0.426l-0-0c0.266 0.262 0.431 0.626 0.431 1.029s-0.165 0.767-0.431 1.028l-0 0c-1.339 1.317-3.177 2.13-5.205 2.13s-3.866-0.813-5.206-2.131l0.001 0.001c-1.331-1.309-2.156-3.13-2.156-5.143s0.825-3.834 2.155-5.142l0.001-0.001c5.175-5.112 13.565-5.112 18.74 0 2.396 2.356 3.881 5.633 3.881 9.256 0 3.604-1.469 6.864-3.84 9.216l-0.001 0.001z"></path>
</svg>
