<!-- Generated by IcoMoon.io -->
<svg version="1.1" xmlns="http://www.w3.org/2000/svg" width="32" height="32" viewBox="0 0 32 32">
<title>laravelhorizon</title>
<path fill="#405263" d="M27.315 4.688c-6.248-6.249-16.379-6.251-22.627-0.004-2.896 2.888-4.688 6.882-4.688 11.295 0 0.006 0 0.013 0 0.019v-0.001c-0 0.009-0 0.019-0 0.030 0 4.851 2.164 9.197 5.579 12.126l0.021 0.018h0.013c2.776 2.38 6.412 3.829 10.386 3.829 4.418 0 8.417-1.79 11.313-4.685l-0 0c6.249-6.247 6.251-16.377 0.003-22.627zM21.333 18.664c-5.333 0-5.333-5.333-10.667-5.333-3.333 0-4.587 2.087-6.353 3.653h-0.007c-0.026-0.296-0.042-0.639-0.042-0.987 0-6.481 5.254-11.735 11.735-11.735 6.134 0 11.168 4.706 11.69 10.704l0.003 0.044c-1.773 1.567-3.027 3.653-6.36 3.653z"></path>
</svg>
