<!-- Generated by IcoMoon.io -->
<svg version="1.1" xmlns="http://www.w3.org/2000/svg" width="32" height="32" viewBox="0 0 32 32">
<title>lastpass</title>
<path fill="#d32d27" d="M30.172 9.143c0-0.505 0.405-0.915 0.915-0.915 0.504 0 0.913 0.416 0.913 0.915v13.715c0 0.505-0.405 0.915-0.915 0.915-0.505 0-0.915-0.416-0.915-0.915zM2.743 13.715c1.515 0 2.743 1.228 2.743 2.743s-1.228 2.743-2.743 2.743-2.743-1.228-2.743-2.743 1.228-2.743 2.743-2.743zM12.8 13.715c1.515 0 2.743 1.228 2.743 2.743s-1.228 2.743-2.743 2.743-2.743-1.228-2.743-2.743 1.228-2.743 2.743-2.743zM22.857 13.715c1.515 0 2.743 1.228 2.743 2.743s-1.228 2.743-2.743 2.743-2.743-1.228-2.743-2.743 1.228-2.743 2.743-2.743z"></path>
</svg>
