<!-- Generated by IcoMoon.io -->
<svg version="1.1" xmlns="http://www.w3.org/2000/svg" width="32" height="32" viewBox="0 0 32 32">
<title>last-dot-fm</title>
<path fill="#d51007" d="M14.132 22.948l-1.175-3.191c0 0-1.911 2.128-4.772 2.128-2.533 0-4.332-2.203-4.332-5.728 0-4.513 2.277-6.128 4.517-6.128 3.224 0 4.245 2.091 5.127 4.771l1.161 3.668c1.161 3.563 3.364 6.424 9.713 6.424 4.547 0 7.629-1.393 7.629-5.068 0-2.969-1.701-4.511-4.847-5.247l-2.343-0.512c-1.623-0.365-2.103-1.028-2.103-2.129 0-1.248 0.981-1.983 2.603-1.983 1.764 0 2.704 0.66 2.863 2.239l3.665-0.44c-0.3-3.305-2.583-4.659-6.327-4.659-3.305 0-6.529 1.248-6.529 5.245 0 2.497 1.203 4.077 4.247 4.807l2.483 0.591c1.863 0.44 2.484 1.221 2.484 2.284 0 1.361-1.323 1.921-3.825 1.921-3.705 0-5.248-1.943-6.129-4.625l-1.201-3.667c-1.541-4.765-4.005-6.528-8.892-6.528-5.287-0.019-8.149 3.384-8.149 9.192 0 5.572 2.863 8.593 8.004 8.593 4.144 0 6.128-1.943 6.128-1.943z"></path>
</svg>
