<!-- Generated by IcoMoon.io -->
<svg version="1.1" xmlns="http://www.w3.org/2000/svg" width="32" height="32" viewBox="0 0 32 32">
<title>latex</title>
<path fill="#008080" d="M2.901 3.751c0.311 0.56 0.636 1.039 0.973 1.453h-0.003c-0.139-0.022-0.299-0.035-0.461-0.035-0.005 0-0.010 0-0.015 0h0.001c-0.379 0.005-0.741 0.068-1.080 0.181l0.025-0.007c0.659 0.553 1.216 0.956 1.708 1.267 1.207 0.392 2.549 1.043 3.693 1.771 0.572 0.364 1.083 0.724 1.484 1.040 0.401 0.315 0.756 0.628 0.828 0.765 0.072 0.136-0.001 0.185-0.109 0.080-0.108-0.104-0.403-0.425-0.8-0.737-0.422-0.33-0.903-0.67-1.4-0.988l-0.076-0.045c-1.033-0.653-2.643-1.28-3.62-1.885-0.76-0.243-1.576-0.276-2.536 0.18 0.701 0.44 1.289 0.757 1.804 0.995 1.472 0.207 3.012 0.927 4.3 1.744 0.644 0.411 1.207 0.821 1.627 1.157 0.211 0.167 0.387 0.316 0.52 0.437 0.131 0.12 0.235 0.207 0.264 0.28 0.040 0.099-0.027 0.139-0.113 0.076-0.043-0.029-0.113-0.136-0.243-0.255-0.154-0.14-0.321-0.282-0.493-0.419l-0.020-0.016c-0.416-0.333-0.973-0.737-1.613-1.144-1.192-0.748-2.977-1.349-4.233-1.861-0.801-0.147-1.631-0.080-2.539 0.519 0.599 0.267 1.116 0.467 1.576 0.619-0.755 0.027-1.504 0.263-2.235 0.956 0.636 0.157 1.18 0.264 1.659 0.333-0.587 0.12-1.16 0.4-1.719 0.96 0.432 0.093 0.821 0.164 1.177 0.217-0.439 0.212-0.853 0.541-1.232 1.044 0.497 0.040 0.937 0.056 1.333 0.057-0.48 0.221-0.928 0.571-1.328 1.133 0.711 0.035 1.305 0.032 1.817 0.003-0.563 0.229-1.083 0.619-1.525 1.292 0.105 0.003 0.229 0.004 0.354 0.004 0.641 0 1.272-0.039 1.893-0.114l-0.075 0.007-0.011 0.003c1.32-0.097 3.067 0.169 3.953 1.131 0.069 0.076-0.032 0.157-0.097 0.099-0.864-0.773-1.992-1.103-3.856-1.229-0.725 0.2-1.396 0.596-1.948 1.433 0.713 0.009 1.308-0.015 1.82-0.063-0.627 0.34-1.161 0.857-1.516 1.739 0.644-0.121 1.184-0.253 1.649-0.391-0.484 0.353-0.892 0.848-1.164 1.592 0.432-0.096 0.815-0.195 1.16-0.295-0.331 0.406-0.57 0.899-0.68 1.44l-0.004 0.022c0.468-0.173 0.873-0.341 1.235-0.507h0.003c0.377-0.307 0.947-0.609 1.719-0.829 0.675-0.193 1.443-0.379 2.203-0.401 0.048-0.002 0.105-0.003 0.163-0.003s0.114 0.001 0.171 0.003l-0.008-0c0.133 0.004 0.084 0.139 0.008 0.137-0.971-0.011-1.736 0.176-2.497 0.393-0.693 0.221-1.275 0.459-1.834 0.736l0.076-0.034c-0.368 0.436-0.628 0.975-0.732 1.568l-0.003 0.020c0.66-0.264 1.199-0.517 1.651-0.757-0.415 0.444-0.724 1.013-0.847 1.809 0.755-0.328 1.387-0.66 1.991-1.031l-0.068 0.039c-0.576 0.483-1.019 1.125-1.172 2.117 0.906-0.39 1.679-0.817 2.406-1.308l-0.051 0.032c-0.245 0.496-0.375 1.076-0.313 1.8 1.016-0.78 1.66-1.408 2.139-1.964-0.008 0.087-0.012 0.188-0.012 0.29 0 0.316 0.041 0.623 0.119 0.915l-0.006-0.025c0.599-1.029 1.196-1.457 1.804-1.811-0.751 0.493-0.619 0.895-0.619 1.352 0.911-0.96 2.181-1.977 2.569-2.615-0.52 0.78-0.729 1.52-0.867 2.172-2.659 1.407-4.28 1.773-6.093 2.336 0.704 0.259 1.46 0.511 1.148 0.869l-0.833 0.831c0.532-0.165 1.073-0.4 1.544-0.077-0.045 0.436-0.597 0.657-1.067 0.911 0.827-0.299 1.008-0.231 1.227-0.16 0.107 0.521-0.271 0.803-0.516 1.147 2.087-1.587 4.808-2.837 6.727-3.361 2.696-0.908 6.176-1.853 7.121-4.156 0.313-1.261 0.637-2.54 0.943-3.789-0.148-0.047-0.327-0.084-0.467-0.177-0.14-0.099-0.247-0.235-0.31-0.393l-0.002-0.006c-0.336 0.088-0.588 0.041-0.747-0.117-0.157-0.156-0.224-0.392-0.271-0.653-0.272 0.056-0.485 0.023-0.627-0.101-0.152-0.136-0.227-0.347-0.264-0.591l-0.008-0.055 0.049-0.019c0.156-0.060 0.29-0.149 0.4-0.26l0-0c0.062-0.062 0.1-0.147 0.1-0.241 0-0.021-0.002-0.041-0.005-0.061l0 0.002-0.008-0.049 0.040-0.021c0.217-0.124 0.461-0.224 0.573-0.372 0.045-0.060 0.072-0.136 0.072-0.219 0-0.022-0.002-0.043-0.005-0.063l0 0.002c-0.034-0.183-0.106-0.345-0.208-0.483l0.002 0.003-0.037-0.053 0.053-0.036c0.157-0.12 0.328-0.235 0.413-0.343 0.043-0.055 0.061-0.103 0.060-0.147 0-0.044-0.020-0.095-0.087-0.159l-0.129-0.125 0.18 0.008c0.283 0.012 0.528-0.008 0.719-0.071 0.168-0.047 0.306-0.154 0.393-0.296l0.002-0.003c-0.004-0.027-0.007-0.058-0.007-0.090 0-0.003 0-0.006 0-0.009v0c0-0.335 0.272-0.607 0.607-0.607v0c0.335 0 0.607 0.272 0.607 0.607v0c-0.001 0.063-0.012 0.124-0.031 0.18l0.001-0.004c0.245 0.021 0.479 0.011 0.699-0.085l0.049-0.016c0.315-0.112 0.444 0.060 0.96-0.612-2.253-2.921-5.544-0.843-6.637 2.167-0.28 0.769-1.873 0.769-2.336-0.003-1.827-3.933-7.375-8.089-12.096-9.621zM3.877 5.205c0.336-0.012 1.507 0.604 1.747 0.693 0.853 0.482 1.535 0.908 2.199 1.36l-0.11-0.070c0.673 0.448 1.281 0.884 1.699 1.203 0.208 0.16 0.369 0.291 0.468 0.38 0.049 0.045 0.085 0.076 0.107 0.109 0.006 0.008 0.010 0.018 0.013 0.029l0 0.001c0.002 0.007 0.004 0.015 0.004 0.024 0 0.013-0.003 0.026-0.009 0.036l0-0c-0.013 0.027-0.040 0.040-0.057 0.040-0.005 0.001-0.012 0.002-0.018 0.002s-0.013-0.001-0.019-0.002l0.001 0c-0.076 0.001-0.269-0.217-0.661-0.553-1.067-0.829-2.269-1.634-3.525-2.354l-0.152-0.081c-0.672-0.373-1.275-0.72-1.685-0.816zM2.355 8.921c1.083 0 2.52 0.487 3.908 1.227 1.391 0.743 2.724 1.625 3.368 2.372 0.088 0.101-0.025 0.164-0.103 0.091-0.693-0.661-1.949-1.608-3.331-2.344-0.849-0.448-2.864-1.34-3.843-1.345zM1.784 10.211c1.488 0.020 3.131 0.595 4.576 1.328 0.721 0.367 1.365 0.76 1.861 1.109 0.496 0.351 0.897 0.697 0.979 0.876 0.083 0.177-0.025 0.173-0.115 0.072-0.281-0.309-0.588-0.584-0.923-0.824l-0.017-0.012c-0.526-0.371-1.13-0.736-1.759-1.058l-0.086-0.040c-1.284-0.643-3.045-1.235-4.516-1.451zM2 11.297c0.088-0.004 0.177 0 0.268 0.008 1.096 0.095 2.292 0.488 3.377 0.997 1.449 0.679 2.713 1.543 3.245 2.221 0.047 0.060-0.015 0.177-0.104 0.085-0.571-0.587-1.76-1.509-3.196-2.183-1.217-0.56-3.044-1.16-4.351-1.039 0.251-0.032 0.497-0.081 0.76-0.091zM24.055 11.315c-0.487 0.633-0.707 0.567-0.935 0.62 0.124 0.575 0.467 0.783 0.781 1.029 2.693-0.496 5.72-0.365 8.107-0.3l-7.951-1.347zM22.984 11.973c-0.253 0.103-0.516 0.105-0.779 0.080-0.107 0.179-0.3 0.298-0.52 0.299h-0c-0.244-0-0.455-0.145-0.55-0.354l-0.002-0.004c-0.101 0.13-0.238 0.227-0.396 0.278l-0.006 0.002c-0.166 0.047-0.357 0.075-0.554 0.075-0.036 0-0.072-0.001-0.107-0.003l0.005 0c0.027 0.047 0.072 0.089 0.072 0.137-0.003 0.090-0.038 0.17-0.094 0.232l0-0c-0.097 0.124-0.251 0.229-0.393 0.333 0.095 0.137 0.164 0.299 0.197 0.473l0.001 0.008c0.003 0.022 0.005 0.048 0.005 0.075 0 0.114-0.037 0.22-0.1 0.305l0.001-0.001c-0.141 0.187-0.383 0.281-0.584 0.393 0 0.008 0.001 0.018 0.001 0.028 0 0.126-0.047 0.241-0.124 0.329l0-0.001c-0.11 0.111-0.242 0.2-0.388 0.26l-0.008 0.003c0.036 0.209 0.099 0.377 0.205 0.472 0.115 0.101 0.283 0.139 0.568 0.065l0.073-0.021 0.013 0.073c0.045 0.276 0.117 0.515 0.249 0.645 0.133 0.132 0.324 0.18 0.669 0.073l0.065-0.021 0.020 0.067c0.050 0.157 0.148 0.287 0.278 0.374l0.002 0.002c0.116 0.080 0.333 0.149 0.48 0.196 1.064-1.157 2.033-2.363 2.512-3.813-0.3-0.235-0.677-0.447-0.816-1.060zM1.92 12.464c1.345 0.018 2.612 0.331 3.747 0.877l-0.053-0.023c1.227 0.573 2.211 1.252 2.633 1.743 0.099 0.116-0.027 0.163-0.097 0.099-0.749-0.67-1.603-1.244-2.531-1.692l-0.065-0.028c-1.205-0.555-2.928-0.861-4.213-0.957 0.193-0.013 0.387-0.019 0.58-0.017zM2.496 13.552c0.813 0.027 1.653 0.207 2.409 0.469 1.008 0.349 1.893 0.819 2.328 1.307 0.059 0.067-0.007 0.173-0.096 0.093-0.465-0.405-1.283-0.925-2.276-1.271-0.767-0.26-2.155-0.489-3.027-0.528 0.261-0.028 0.391-0.080 0.661-0.071zM3.687 15.927c0.067 0 0.137 0.005 0.208 0.011 0.565 0.045 1.181 0.177 1.789 0.541 0.057 0.035 0.065 0.181-0.067 0.12-1.141-0.536-1.769-0.652-3.277-0.411 0.451-0.151 0.869-0.265 1.347-0.261zM4.241 16.972c0.4 0.005 0.817 0.083 1.331 0.288 0.059 0.024 0.107 0.168-0.044 0.125-1.143-0.324-1.556-0.437-3.051 0.139 0.375-0.305 0.827-0.489 1.363-0.537 0.133-0.012 0.267-0.017 0.401-0.015zM6.187 17.88c0.208 0 0.415 0.012 0.613 0.035 0.071 0.007 0.073 0.136-0.009 0.133-0.173-0.010-0.375-0.016-0.578-0.016-0.662 0-1.31 0.061-1.938 0.178l0.065-0.010c-0.324 0.061-0.563 0.059-1.872 0.613 0.381-0.312 1.060-0.601 1.848-0.747 0.592-0.107 1.245-0.189 1.871-0.187zM7.968 19.088c0.047-0.007 0.14 0.112 0.023 0.133-0.973 0.181-1.659 0.357-2.393 0.607-0.288 0.099-0.772 0.276-1.656 0.784 0.345-0.359 0.873-0.659 1.617-0.912 0.68-0.248 1.491-0.461 2.326-0.601l0.083-0.012zM8.381 19.765c0.1-0.016 0.132 0.116 0.029 0.136-1.623 0.32-2.347 0.741-3.388 1.525 0.671-0.697 1.728-1.4 3.359-1.661zM9.176 20.361c0.006-0.001 0.013-0.002 0.020-0.002s0.014 0.001 0.021 0.002l-0.001-0c0.080 0.015 0.092 0.119-0.012 0.133-1.163 0.173-1.972 0.74-3.009 1.776 0.393-0.659 1.341-1.656 2.981-1.909zM9.671 20.883c0.061-0.007 0.155 0.097 0.033 0.133-0.257 0.075-0.577 0.2-0.893 0.4-0.243 0.157-0.403 0.269-0.8 0.677 0.149-0.327 0.399-0.58 0.728-0.788 0.328-0.209 0.676-0.391 0.932-0.423z"></path>
</svg>
