<!-- Generated by IcoMoon.io -->
<svg version="1.1" xmlns="http://www.w3.org/2000/svg" width="32" height="32" viewBox="0 0 32 32">
<title>lenovo</title>
<path fill="#e2231a" d="M27.005 15.228c-0.003-0-0.006-0-0.009-0-0.596 0-1.080 0.484-1.080 1.080 0 0.026 0.001 0.052 0.003 0.078l-0-0.003c-0 0.011-0.001 0.024-0.001 0.037 0 0.612 0.492 1.11 1.102 1.119h0.001c0 0 0 0 0.001 0 0.601 0 1.088-0.487 1.088-1.088 0-0.024-0.001-0.048-0.002-0.071l0 0.003c0-0.011 0.001-0.024 0.001-0.037 0-0.612-0.492-1.109-1.103-1.117h-0.001zM18.325 15.228c-0.003-0-0.006-0-0.009-0-0.596 0-1.080 0.484-1.080 1.080 0 0.026 0.001 0.052 0.003 0.078l-0-0.003c-0 0.011-0.001 0.024-0.001 0.037 0 0.612 0.492 1.11 1.102 1.119h0.001c0 0 0 0 0.001 0 0.601 0 1.088-0.487 1.088-1.088 0-0.024-0.001-0.048-0.002-0.071l0 0.003c0-0.011 0.001-0.024 0.001-0.037 0-0.612-0.492-1.109-1.103-1.117h-0.001zM8.977 15.159c-0.011-0-0.024-0.001-0.037-0.001-0.338 0-0.638 0.16-0.83 0.408l-0.002 0.002c-0.154 0.213-0.246 0.478-0.246 0.766 0 0.076 0.006 0.151 0.019 0.223l-0.001-0.008 1.969-0.816c-0.148-0.341-0.481-0.575-0.87-0.575-0.001 0-0.003 0-0.004 0h0zM0 10.667v10.667h32v-10.667zM6.675 18.436h-3.705v-5.333h1.143v4.299h2.563zM9.097 17.608c0.011 0 0.023 0 0.036 0 0.44 0 0.841-0.165 1.145-0.436l-0.002 0.001 0.712 0.548c-0.488 0.485-1.16 0.784-1.902 0.784-0.002 0-0.004 0-0.006 0h0c-0.063 0.007-0.135 0.010-0.209 0.010-1.174 0-2.125-0.952-2.125-2.125s0.952-2.125 2.125-2.125c0.030 0 0.060 0.001 0.089 0.002l-0.004-0c0.031-0.002 0.067-0.003 0.103-0.003 0.601 0 1.141 0.257 1.517 0.668l0.001 0.002c0.261 0.314 0.438 0.706 0.492 1.136l0.001 0.011-2.883 1.2c0.222 0.204 0.519 0.33 0.846 0.33 0.022 0 0.045-0.001 0.067-0.002l-0.003 0zM15.608 18.436h-1.127v-2.336c-0.020-0.484-0.417-0.869-0.905-0.869-0.016 0-0.031 0-0.047 0.001l0.002-0c-0.016-0.001-0.035-0.002-0.053-0.002-0.482 0-0.874 0.388-0.88 0.869v2.337h-1.124v-4.105h1.128v0.588c0.312-0.399 0.793-0.654 1.333-0.657h0.001c0.026-0.002 0.057-0.002 0.088-0.002 0.873 0 1.58 0.707 1.58 1.58 0 0.018-0 0.036-0.001 0.054l0-0.003zM18.253 18.505c-1.134-0.049-2.035-0.98-2.035-2.122 0-1.173 0.951-2.124 2.124-2.124s2.124 0.951 2.124 2.123v0c-0.005 1.174-0.958 2.124-2.133 2.124-0.028 0-0.056-0.001-0.084-0.002l0.004 0zM21.987 18.435l-1.689-4.104h1.288l1.019 2.8 1.019-2.8h1.288l-1.689 4.104zM26.935 18.505c-1.134-0.049-2.035-0.98-2.035-2.122 0-1.173 0.951-2.124 2.124-2.124s2.124 0.951 2.124 2.123v0c-0.005 1.174-0.958 2.124-2.133 2.124-0.028 0-0.056-0.001-0.084-0.002l0.004 0zM29.601 17.948h-0.188v0.488h-0.113v-0.488h-0.183v-0.103h0.483zM30.323 18.436h-0.109v-0.42l-0.183 0.284h-0.017l-0.181-0.284v0.42h-0.109v-0.591h0.12l0.179 0.28 0.179-0.28h0.117z"></path>
</svg>
