<!-- Generated by IcoMoon.io -->
<svg version="1.1" xmlns="http://www.w3.org/2000/svg" width="32" height="32" viewBox="0 0 32 32">
<title>lgtm</title>
<path fill="#fff" d="M16.011 6.488c-3.885 0-7.169 0.905-9.327 2.813-0.067-0.117-0.113-0.217-0.188-0.337-0.227-0.364-0.437-0.777-1.104-1.187-0.387-0.25-0.842-0.431-1.331-0.513l-0.021-0.003c-0.096-0.011-0.207-0.018-0.319-0.018-0.108 0-0.215 0.006-0.32 0.018l0.013-0.001 0.132-0.017c-1.213 0-1.923 0.728-2.384 1.355-0.459 0.627-0.755 1.332-0.947 2.103-0.38 1.54-0.385 3.535 1.080 5.023 0.767 0.784 1.668 1.151 2.484 1.369 0.157 0.043 0.297 0.053 0.448 0.084 0.532 2.523 2.107 4.656 4.211 5.841v0.001h0.003c1.239 0.696 2.413 1.015 3.296 1.352 1.232 0.476 2.533 1.001 4.048 1.133l0.080 0.008h0.2c1.741 0 3.061-0.703 4.203-1.14 0.873-0.333 2.053-0.643 3.303-1.344 0.605-0.345 1.128-0.733 1.599-1.177l-0.004 0.004c1.28-1.205 2.205-2.773 2.611-4.539l0.012-0.061c1.157-0.194 2.16-0.744 2.918-1.532l0.002-0.002c1.464-1.487 1.459-3.481 1.079-5.021-0.192-0.771-0.488-1.475-0.947-2.103-0.46-0.627-1.172-1.355-2.384-1.355l0.133 0.017c-0.091-0.010-0.196-0.016-0.303-0.016-0.115 0-0.229 0.007-0.34 0.020l0.014-0.001c-0.508 0.085-0.962 0.265-1.361 0.522l0.014-0.009c-0.665 0.409-0.877 0.821-1.103 1.184-0.073 0.119-0.12 0.217-0.185 0.332-2.156-1.901-5.435-2.804-9.313-2.804zM16.041 8.315c4.743 0 8.017 1.42 9.409 3.96 0.84-0.324 1.457-2.52 2.149-2.945 0.56-0.347 0.887-0.26 0.887-0.26 1.267 0 2.573 3.729 0.949 5.376-0.859 0.876-2.44 1.123-3.229 1.060-0.060 2.541-1.54 4.835-3.499 5.933-0.997 0.56-2.069 0.853-3.061 1.232-1.228 0.469-2.381 1.017-3.549 1.017h-0.123c-1.163-0.101-2.32-0.543-3.549-1.017-0.992-0.38-2.064-0.68-3.061-1.24-1.947-1.099-3.428-3.387-3.488-5.927-0.783 0.067-2.384-0.176-3.248-1.059-1.623-1.647-0.317-5.376 0.949-5.376 0 0 0.328-0.085 0.888 0.26 0.695 0.428 1.316 2.645 2.16 2.952 1.392-2.548 4.668-3.967 9.416-3.967zM10.873 11.421c-0.022-0-0.048-0.001-0.074-0.001-2.248 0-4.071 1.822-4.071 4.071s1.823 4.071 4.071 4.071c0.026 0 0.052-0 0.078-0.001l-0.004 0c2.216-0.041 3.997-1.848 3.997-4.070s-1.781-4.029-3.993-4.070l-0.004-0zM21.208 11.421c-2.248 0-4.070 1.822-4.070 4.070s1.822 4.070 4.070 4.070v0c2.248 0 4.070-1.822 4.070-4.070s-1.822-4.070-4.070-4.070v0zM11.455 13.707c0.978 0.027 1.76 0.827 1.76 1.809s-0.782 1.781-1.758 1.809l-0.003 0c-0.998-0-1.808-0.81-1.808-1.808 0-0.16 0.021-0.315 0.060-0.463l-0.003 0.013c0.116 0.28 0.387 0.474 0.704 0.474 0.42 0 0.76-0.34 0.76-0.76 0-0.001 0-0.001 0-0.002v0c0-0 0-0 0-0.001 0-0.409-0.323-0.742-0.728-0.759l-0.002-0c0.283-0.195 0.633-0.311 1.011-0.311 0.002 0 0.004 0 0.005 0h-0zM20.639 13.707c0.978 0.027 1.76 0.827 1.76 1.809s-0.782 1.781-1.758 1.809l-0.003 0c-0 0-0.001 0-0.001 0-0.999 0-1.808-0.809-1.808-1.808 0-0.16 0.021-0.315 0.060-0.463l-0.003 0.013c0.116 0.28 0.387 0.473 0.704 0.473 0.42 0 0.76-0.34 0.76-0.76 0-0.408-0.322-0.741-0.726-0.759l-0.002-0c0.284-0.195 0.635-0.312 1.013-0.312 0.001 0 0.002 0 0.003 0h-0zM15.36 19.907c-0.319 0.027-0.503 0.195-0.503 0.635 0 0.28 0.184 0.487 0.504 0.487 0.105-0 0.19-0.086 0.19-0.191 0-0.089-0.062-0.164-0.145-0.185l-0.001-0c-0.029-0.007-0.173-0.059-0.173-0.181 0-0.124 0-0.167 0.244-0.2 0.104-0.016 0.155-0.14 0.123-0.24s-0.125-0.133-0.239-0.124zM16.724 19.907c-0.113-0.008-0.208 0.024-0.24 0.124s0.020 0.224 0.124 0.24c0.243 0.033 0.243 0.076 0.243 0.2 0 0.123-0.143 0.175-0.173 0.181-0.084 0.021-0.146 0.096-0.146 0.185 0 0.105 0.085 0.19 0.19 0.191h0c0.32 0 0.505-0.207 0.505-0.487 0-0.44-0.185-0.608-0.503-0.635z"></path>
</svg>
