<!-- Generated by IcoMoon.io -->
<svg version="1.1" xmlns="http://www.w3.org/2000/svg" width="32" height="32" viewBox="0 0 32 32">
<title>liberapay</title>
<path fill="#f6c915" d="M3.093 0c-1.708 0.001-3.093 1.385-3.093 3.093v25.813c0.001 1.708 1.385 3.093 3.093 3.093h25.813c1.708 0 3.093-1.385 3.093-3.093v0-25.813c0-1.708-1.385-3.093-3.093-3.093v0zM15.371 5.307l-3.027 12.54c-0.051 0.211-0.086 0.458-0.097 0.71l-0 0.008c-0.001 0.019-0.002 0.041-0.002 0.064 0 0.187 0.045 0.363 0.125 0.518l-0.003-0.006c0.101 0.179 0.255 0.319 0.439 0.4l0.006 0.002c0.209 0.103 0.504 0.168 0.881 0.196l-0.653 2.677c-1.029 0-1.84-0.133-2.427-0.4-0.588-0.271-1.009-0.636-1.263-1.101-0.235-0.433-0.372-0.948-0.372-1.495 0-0.037 0.001-0.074 0.002-0.11l-0 0.005c0.007-0.603 0.091-1.244 0.251-1.927l2.765-11.56zM20.571 10.491c0.813 0 1.513 0.123 2.101 0.369 0.587 0.247 1.069 0.584 1.447 1.013 0.377 0.427 0.657 0.928 0.839 1.501s0.272 1.187 0.272 1.839v0.001c0 1.059-0.173 2.027-0.523 2.905-0.348 0.883-0.838 1.639-1.45 2.277l0.002-0.002c-0.613 0.631-1.352 1.136-2.177 1.475l-0.043 0.016c-0.864 0.356-1.804 0.533-2.819 0.533-0.493 0-0.987-0.044-1.48-0.131l-0.98 3.941h-3.223l3.613-15.064c0.58-0.173 1.245-0.331 1.992-0.468 0.705-0.132 1.516-0.207 2.345-0.207 0.029 0 0.058 0 0.087 0l-0.004-0zM20.157 13.212c-0.011-0-0.024-0-0.037-0-0.45 0-0.888 0.048-1.31 0.138l0.041-0.007-1.524 6.336c0.247 0.059 0.551 0.087 0.913 0.087 0.567 0 1.083-0.105 1.547-0.316 0.469-0.213 0.864-0.511 1.183-0.877l0.004-0.004c0.325-0.377 0.58-0.831 0.761-1.36 0.173-0.504 0.272-1.085 0.272-1.689 0-0.023-0-0.045-0-0.068l0 0.003c0-0.624-0.139-1.153-0.413-1.589-0.276-0.435-0.755-0.653-1.436-0.653z"></path>
</svg>
