<!-- Generated by IcoMoon.io -->
<svg version="1.1" xmlns="http://www.w3.org/2000/svg" width="32" height="32" viewBox="0 0 32 32">
<title>librarything</title>
<path d="M13.867 6.373v-0.573l-0.040-0.613c0-0.173-0.067-0.44-0.187-0.8-0.12-0.347-0.173-0.653-0.173-0.92 0-0.001 0-0.002 0-0.004 0-0.18 0.089-0.339 0.225-0.435l0.002-0.001 0.467-0.373c0.205-0.151 0.462-0.242 0.74-0.242 0.026 0 0.051 0.001 0.076 0.002l-0.003-0c0.213 0 0.547 0.027 1.027 0.093 0.413 0 0.72-0.093 0.933-0.267l0.493-0.347c0.227-0.187 0.347-0.387 0.347-0.613 0-0.387-0.213-0.693-0.64-0.933-0.435-0.22-0.948-0.349-1.492-0.349-0.047 0-0.095 0.001-0.142 0.003l0.007-0-1.813 0.133c-0.413 0-1.2 0.093-2.36 0.28-1.16 0.2-2.053 0.293-2.707 0.293-0.267 0-0.72-0.053-1.36-0.16-0.454-0.083-0.984-0.136-1.523-0.146l-0.010-0-1 0.32c-0.347 0.107-0.507 0.267-0.507 0.467l0.080 0.4c0.187 0.373 0.453 0.667 0.8 0.867l0.36 0.187c0.173 0.053 0.32 0.080 0.44 0.080 0.147 0 0.373 0 0.667-0.040 0.003-0 0.006-0 0.009-0 0.242 0 0.468 0.064 0.664 0.177l-0.006-0.003 0.493 0.44c0.24 0.267 0.4 0.533 0.507 0.773s0.16 0.467 0.16 0.667c0 0.16-0.027 0.4-0.093 0.76-0.053 0.347-0.080 0.627-0.080 0.827 0 0.267 0.067 0.653 0.2 1.147s0.2 0.907 0.2 1.227c-0.040 0.507-0.053 1-0.053 1.493v1.493c0 0.387 0.040 0.88 0.093 1.493s0.093 1.107 0.093 1.467l-0.093 1.827-0.040 2.947-0.133 2.413c0 0.333 0.053 0.747 0.173 1.28s0.173 0.947 0.173 1.267c0 0.333-0.040 0.733-0.133 1.24-0.086 0.338-0.136 0.727-0.136 1.127 0 0.223 0.015 0.443 0.045 0.658l-0.003-0.025c0.040 0.227 0.040 0.4 0 0.533-0.038 0.191-0.123 0.358-0.241 0.495l0.001-0.001-0.413 0.507c-0.267 0.32-0.573 0.573-0.893 0.747s-0.787 0.267-1.373 0.307c-0.6 0.027-1.027 0.147-1.293 0.373-0.267 0.213-0.4 0.387-0.4 0.507 0 0.76 0.707 1.133 2.133 1.133l0.307-0.040 2.56-0.267c0.427-0.027 0.933-0.040 1.493-0.040h0.533l1.6 0.040h4.267l1.173-0.107c0.373-0.040 0.707-0.067 1-0.067 0.387 0 0.92 0.093 1.6 0.293 0.68 0.187 1.253 0.253 1.733 0.187l0.507-0.133c0.32-0.080 0.613-0.133 0.92-0.133l0.6 0.080c0.36 0.040 0.667 0.067 0.907 0.067 0.12 0 0.32-0.040 0.627-0.093 0.733-0.147 1.253-0.427 1.547-0.84 0.213-0.293 0.32-0.56 0.32-0.827-0.091-0.425-0.144-0.914-0.144-1.415 0-0.136 0.004-0.27 0.011-0.404l-0.001 0.019c0.133-0.293 0.307-0.587 0.48-0.88 0.147-0.387 0.267-0.907 0.32-1.56 0.053-0.667 0.107-1.107 0.147-1.32 0.053-0.213 0.173-0.56 0.387-1.013 0.2-0.453 0.307-0.84 0.307-1.16 0-0.347-0.080-0.667-0.227-0.933-0.133-0.253-0.333-0.387-0.573-0.387-0.147 0-0.387 0.133-0.707 0.4-0.147 0.12-0.267 0.333-0.387 0.667-0.093 0.307-0.187 0.533-0.24 0.653-0.36 0.533-0.707 1.040-1.067 1.533-0.145 0.23-0.292 0.501-0.422 0.782l-0.018 0.045c-0.307 0.627-0.533 1.040-0.72 1.28-0.216 0.241-0.447 0.46-0.695 0.658l-0.011 0.009c-0.147 0.107-0.293 0.267-0.427 0.453s-0.32 0.493-0.547 0.907l-0.76 0.4-0.533 0.133c-0.173 0.013-0.413 0.093-0.707 0.213-0.307 0.107-0.533 0.187-0.667 0.213-0.147 0.027-0.347 0.040-0.587 0.040-0.267 0-0.667-0.040-1.2-0.133-0.533-0.080-0.96-0.133-1.28-0.133l-0.933 0.053c-1.067 0-1.867-0.573-2.36-1.72-0.495-1.293-0.782-2.788-0.782-4.35 0-0.662 0.052-1.313 0.151-1.947l-0.009 0.070c0.067-0.48 0.107-0.853 0.107-1.147v-3.067l0.040-1.013c0.040-0.413 0.053-0.707 0.053-0.88 0-0.022 0.001-0.047 0.001-0.073 0-0.48-0.083-0.941-0.236-1.369l0.009 0.028c-0.093-0.219-0.155-0.473-0.173-0.739l-0-0.007c0-0.133 0.027-0.347 0.080-0.613 0.067-0.267 0.093-0.467 0.093-0.613l-0.040-1.32c-0.040-0.56-0.053-1-0.053-1.32 0-0.373 0.067-0.84 0.187-1.4s0.173-1.013 0.173-1.36z"></path>
</svg>
