<!-- Generated by IcoMoon.io -->
<svg version="1.1" xmlns="http://www.w3.org/2000/svg" width="32" height="32" viewBox="0 0 32 32">
<title>libreoffice</title>
<path fill="#18a303" d="M21.82 0c-0.004-0-0.009-0-0.014-0-0.321 0-0.598 0.19-0.724 0.465l-0.002 0.005c-0.037 0.087-0.059 0.189-0.059 0.296 0 0.215 0.088 0.41 0.229 0.551l0 0 6.647 6.661c0.145 0.142 0.344 0.229 0.563 0.229 0.102 0 0.199-0.019 0.289-0.053l-0.006 0.002c0.281-0.119 0.476-0.389 0.484-0.706l0-0.001v-6.679c-0.020-0.421-0.359-0.756-0.78-0.769l-0.001-0zM3.548 0c-0.43 0.006-0.776 0.356-0.776 0.787 0 0 0 0 0 0v0 30.427c0 0 0 0 0 0 0 0.431 0.346 0.781 0.775 0.787h24.894c0.434 0 0.787-0.352 0.787-0.787v0-19.592c0-0.002 0-0.005 0-0.007 0-0.215-0.087-0.411-0.227-0.553l0 0-10.769-10.819c-0.142-0.147-0.34-0.239-0.56-0.241h-0zM4.335 1.579h13.005l10.311 10.36v18.484h-23.316z"></path>
</svg>
