<!-- Generated by IcoMoon.io -->
<svg version="1.1" xmlns="http://www.w3.org/2000/svg" width="32" height="32" viewBox="0 0 32 32">
<title>linewebtoon</title>
<path fill="#00d564" d="M20.031 20.347c0.927 0 1.352-0.539 1.352-1.401 0-0.735-0.411-1.347-1.312-1.347-0.773 0-1.216 0.539-1.216 1.355 0 0.724 0.427 1.393 1.176 1.393zM13.513 20.596c1.019 0 1.484-0.591 1.484-1.539 0-0.805-0.451-1.479-1.443-1.479-0.849 0-1.336 0.593-1.336 1.487 0 0.796 0.469 1.531 1.295 1.531zM32 13.601l-4.2 0.039 1.107-12.915-26.296 4.081 2.248 8.331h-4.859l4.979 15.317 11.617-1.711v4.528l13.484-6.188zM19.861 8.809c0-0.065 0.052-0.123 0.117-0.125l3.1-0.205c0.699-0.047 2.179 0.084 2.179 1.648 0 1.107-0.825 1.579-0.825 1.579s1 0.252 0.943 1.456c0 2.136-2.591 1.852-2.591 1.852l-2.844-0.079c-0.064-0.002-0.115-0.054-0.115-0.119 0-0.001 0-0.001 0-0.001v0zM14.961 9.133c0-0.063 0.052-0.12 0.117-0.123l4.085-0.271c0.003-0 0.006-0 0.009-0 0.059 0 0.107 0.048 0.107 0.107 0 0 0 0 0 0v-0 1.257c0 0.065-0.052 0.12-0.116 0.123l-2.533 0.107c-0.064 0.004-0.115 0.056-0.117 0.12v0l-0.007 0.525c0 0 0 0.001 0 0.001 0 0.061 0.050 0.111 0.111 0.111 0.001 0 0.003-0 0.004-0h-0l2.195-0.088c0.002-0 0.003-0 0.005-0 0.060 0 0.109 0.049 0.109 0.109 0 0.001 0 0.002-0 0.003v-0l-0.027 1.349c-0.002 0.064-0.054 0.115-0.119 0.115-0 0-0 0-0 0h-2.173c-0.064 0.001-0.117 0.053-0.117 0.117v0.555c0 0.063 0.052 0.117 0.117 0.117l2.493 0.044c0.065 0.002 0.116 0.055 0.116 0.12 0 0 0 0 0 0v0 1.268c0 0 0 0 0 0 0 0.062-0.050 0.112-0.112 0.112-0.001 0-0.003-0-0.004-0h0l-4.084-0.164c-0.065-0.002-0.116-0.055-0.116-0.12 0-0 0-0 0-0v0zM6.948 9.549l1.3-0.085c0.002-0 0.005-0 0.008-0 0.065 0 0.118 0.045 0.132 0.106l0 0.001 0.611 2.94c0.013 0.063 0.036 0.063 0.052 0l0.768-3.041c0.021-0.064 0.076-0.111 0.143-0.12l0.001-0 1.228-0.081c0.002-0 0.005-0 0.007-0 0.065 0 0.12 0.044 0.138 0.103l0 0.001 0.752 3.123c0.016 0.063 0.039 0.063 0.055 0l0.8-3.232c0.020-0.065 0.075-0.113 0.143-0.123l0.001-0 1.328-0.085c0.064-0.005 0.103 0.041 0.087 0.104l-1.453 5.472c-0.019 0.064-0.076 0.109-0.145 0.109-0 0-0 0-0 0h0l-1.495-0.041c-0.069-0.004-0.126-0.050-0.145-0.114l-0-0.001-0.713-2.62c-0.016-0.063-0.044-0.063-0.060 0l-0.696 2.579c-0.021 0.063-0.079 0.107-0.146 0.109h-0l-1.479-0.041c-0.069-0.006-0.125-0.053-0.144-0.116l-0-0.001-1.164-4.824c-0.015-0.063 0.025-0.117 0.088-0.12zM6.564 22.38v-4.748c-0.001-0.064-0.052-0.116-0.116-0.117h-0l-1.669-0.039c-0.065-0.003-0.118-0.055-0.121-0.12v-0l-0.061-1.5c-0-0.002-0-0.003-0-0.005 0-0.060 0.049-0.109 0.109-0.109 0 0 0.001 0 0.002 0h-0l5.396 0.128c0.064 0 0.116 0.055 0.113 0.117l-0.029 1.451c-0.003 0.064-0.055 0.115-0.118 0.117h-0l-1.519 0.005c-0.064 0.002-0.115 0.054-0.116 0.117v4.596c0 0.065-0.052 0.12-0.116 0.123l-1.636 0.093c-0.003 0-0.007 0.001-0.011 0.001-0.059 0-0.107-0.048-0.107-0.107 0-0.001 0-0.002 0-0.003v0zM10.343 19.208c0-2.557 1.761-3.309 3.221-3.309s3.119 0.973 3.119 3.088c0 2.533-1.844 3.309-3.221 3.309-1.377 0.001-3.119-0.965-3.119-3.088zM17.195 19.055c0-2.328 1.555-2.984 2.883-2.984s2.839 0.885 2.839 2.809c0 2.305-1.679 3.013-2.931 3.013s-2.791-0.907-2.791-2.839zM26.873 21.336c-0.001 0-0.003 0-0.005 0-0.073 0-0.137-0.033-0.18-0.085l-0-0-1.583-2.175c-0.039-0.052-0.071-0.041-0.071 0.024v2.227c0 0.063-0.052 0.12-0.115 0.123l-1.403 0.081c-0.002 0-0.004 0-0.007 0-0.060 0-0.109-0.049-0.109-0.109 0-0 0-0 0-0v0l0.052-5.123c0-0.063 0.052-0.115 0.117-0.112l1.175 0.027c0.074 0.007 0.139 0.044 0.182 0.098l0 0 1.724 2.536c0.036 0.055 0.068 0.044 0.068-0.019l0.043-2.461c0.001-0.064 0.052-0.115 0.116-0.115 0.001 0 0.002 0 0.003 0h-0l1.284 0.039c0.063 0 0.113 0.055 0.111 0.12l-0.184 4.74c-0.003 0.066-0.056 0.119-0.121 0.123l-0 0zM21.677 10.973l0.965-0.019c0 0 0.627 0.024 0.627-0.579 0-0.476-0.548-0.44-0.548-0.44l-1.043 0.011c-0.064 0.001-0.116 0.053-0.117 0.117v0.797c0 0 0 0.001 0 0.001 0 0.061 0.050 0.111 0.111 0.111 0.002 0 0.004-0 0.006-0h-0zM21.639 13.588h1.32c0.032 0 0.467-0.068 0.467-0.539 0-0.391-0.305-0.536-0.588-0.531l-1.197 0.039c-0.064 0.002-0.116 0.054-0.116 0.119 0 0 0 0.001 0 0.001v-0 0.795c0 0 0 0.001 0 0.001 0 0.063 0.051 0.115 0.115 0.115 0 0 0 0 0 0v0z"></path>
</svg>
