<!-- Generated by IcoMoon.io -->
<svg version="1.1" xmlns="http://www.w3.org/2000/svg" width="32" height="32" viewBox="0 0 32 32">
<title>linuxmint</title>
<path fill="#87cf3e" d="M0 2.257v5.591h2.437c1.701 0 2.003 1.153 2.003 2.744l0.013 9.883c0 5.12 4.587 9.268 10.24 9.268h13.952c1.789 0 3.355-1.107 3.355-2.811v-15.324c0-5.12-4.587-9.267-10.244-9.267h-5.873v-0.017zM7.631 5.679h2.803v14.081c0 1.884 1.312 3.347 2.852 3.347l9.56 0.040c1.995 0 3.548-1.347 3.548-2.941l-0.016-7.476c0-0.011 0-0.024 0-0.037 0-0.464-0.198-0.883-0.514-1.175l-0.001-0.001c-0.298-0.316-0.72-0.512-1.187-0.512-0.012 0-0.025 0-0.037 0l0.002-0c-0.499 0-0.867 0.16-1.224 0.512-0.317 0.293-0.515 0.712-0.515 1.176 0 0.013 0 0.026 0 0.039l-0-0.002v6.397h-2.964v-6.396c0-0.485-0.165-0.864-0.519-1.213-0.295-0.316-0.714-0.513-1.178-0.513-0.016 0-0.031 0-0.047 0.001l0.002-0c-0.488 0-0.863 0.16-1.219 0.512-0.353 0.349-0.52 0.728-0.52 1.213v6.397h-2.964v-6.397c0-1.267 0.48-2.389 1.389-3.288 0.833-0.842 1.988-1.363 3.265-1.363 0.017 0 0.034 0 0.050 0l-0.003-0c1.249 0 2.336 0.46 3.217 1.293 0.826-0.8 1.954-1.293 3.197-1.293 0.011 0 0.021 0 0.031 0h-0.002c1.272 0 2.404 0.464 3.313 1.363 0.856 0.823 1.388 1.977 1.388 3.256 0 0.011-0 0.022-0 0.033v-0.002l0.012 7.988c-0.14 1.339-0.719 2.525-1.707 3.516h-0.003c-1.058 1.082-2.533 1.752-4.164 1.752-0.024 0-0.048-0-0.072-0l0.004 0h-10.647v-0.051c-1.301-0.137-2.461-0.692-3.427-1.623-1.127-1.1-1.708-2.461-1.708-4.013z"></path>
</svg>
