<!-- Generated by IcoMoon.io -->
<svg version="1.1" xmlns="http://www.w3.org/2000/svg" width="32" height="32" viewBox="0 0 32 32">
<title>livejournal</title>
<path fill="#00b0ea" d="M24.12 19.595c-2.016 0.885-3.635 2.513-4.508 4.532l5.693 1.177-1.181-5.709zM3.3 11.089l-3.3-3.289c1.5-3.484 4.288-6.28 7.764-7.8h0.008l3.292 3.284c1.824-0.788 3.835-1.228 5.951-1.228 8.275 0 14.985 6.703 14.985 14.972s-6.711 14.972-14.985 14.972c-8.28 0-14.988-6.699-14.988-14.972 0-2.121 0.473-4.108 1.269-5.935l12.191 12.152c1.5-3.484 4.291-6.28 7.764-7.8l-12.191-12.16c-3.475 1.52-6.26 4.32-7.764 7.8z"></path>
</svg>
