<!-- Generated by IcoMoon.io -->
<svg version="1.1" xmlns="http://www.w3.org/2000/svg" width="32" height="32" viewBox="0 0 32 32">
<title>livestream</title>
<path fill="#cf202e" d="M27.983 8.331l0.055 0.003 0.052 0.008 0.053 0.015 0.052 0.020 0.051 0.027 0.052 0.029 0.047 0.040 0.047 0.039 0.049 0.060 0.061 0.060 0.040 0.060 0.059 0.060 0.1 0.159 0.039 0.080 0.039 0.1 0.040 0.099 0.041 0.099 0.037 0.099 0.077 0.24 0.040 0.12 0.041 0.119 0.039 0.139 0.037 0.139 0.041 0.14 0.040 0.139 0.077 0.277 0.040 0.16 0.040 0.157 0.039 0.18 0.020 0.16 0.039 0.179 0.040 0.179 0.023 0.18 0.037 0.199 0.020 0.197 0.020 0.199 0.041 0.199 0.020 0.199 0.021 0.197 0.020 0.22 0.020 0.219 0.020 0.217 0.020 0.22 0.020 0.219 0.021 0.239 0.020 0.457 0.021 0.239 0.020 0.239 0.040 0.48 0.060 0.772 0.021 0.26 0.020 0.257v0.517l0.021 0.279 0.020 0.279v0.537l0.020 0.277v0.815l0.020 0.559 0.020 0.833v1.692l0.020 0.497 0.040 0.359 0.061 0.239 0.057 0.159 0.063 0.139 0.079 0.12 0.060 0.059 0.060 0.060 0.059 0.060 0.083 0.039 0.119 0.061 0.119 0.039 0.128 0.040 0.189 0.039 0.257 0.015 0.359-0.021h0.133v3.004l-0.319 0.039-0.755 0.035-0.813-0.039-0.597-0.089-0.459-0.119-0.339-0.119-0.316-0.159-0.315-0.2-0.277-0.245-0.179-0.179-0.181-0.199-0.227-0.359-0.2-0.417-0.159-0.456-0.109-0.537-0.072-0.608-0.020-0.677v-2.584l-0.020-0.557v-1.153l-0.020-0.536v-0.383l-0.021-0.265v-0.529l-0.020-0.259v-0.257l-0.011-0.257-0.020-0.259-0.019-0.239-0.004-0.24-0.020-0.239-0.020-0.244v-0.237l-0.020-0.24-0.023-0.239-0.016-0.239-0.019-0.227-0.023-0.227-0.020-0.219-0.020-0.225-0.020-0.213-0.019-0.217-0.020-0.219-0.023-0.2-0.020-0.197-0.021-0.211-0.020-0.188-0.020-0.18-0.059-0.371-0.021-0.179-0.020-0.18-0.040-0.167-0.035-0.18-0.039-0.157-0.040-0.16-0.041-0.159-0.045-0.137-0.039-0.139-0.033-0.137-0.060-0.12-0.039-0.139-0.039-0.119-0.029-0.12-0.039-0.119-0.041-0.12-0.040-0.099-0.039-0.101-0.039-0.099-0.040-0.079-0.040-0.081-0.039-0.080-0.059-0.080-0.040-0.060-0.048-0.060-0.041-0.059-0.055-0.040-0.037-0.039-0.061-0.040-0.037-0.020-0.061-0.021-0.065-0.016-0.059-0.021-0.040-0.020h3.363zM0.011 4.109l1.559 0.028 1.452 0.035 1.293 0.020 1.135 0.040 0.973 0.039 0.856 0.039 0.756 0.040 0.675 0.039 0.617 0.061 0.557 0.059 0.516 0.061 0.476 0.059 0.856 0.12 0.377 0.081 0.36 0.079 0.336 0.079 0.32 0.080 0.297 0.080 0.279 0.080 0.259 0.1 0.259 0.079 0.239 0.099 0.217 0.101 0.221 0.099 0.197 0.099 0.219 0.099 0.197 0.12 0.36 0.24 0.159 0.117 0.476 0.36 0.139 0.12 0.139 0.139 0.139 0.12 0.14 0.139 0.24 0.277 0.139 0.14 0.24 0.277 0.099 0.139 0.12 0.14 0.099 0.159 0.099 0.139 0.099 0.159 0.1 0.16 0.099 0.159 0.099 0.16 0.080 0.159 0.081 0.159 0.099 0.159 0.24 0.476 0.080 0.16 0.060 0.157 0.064 0.16 0.080 0.18 0.067 0.157 0.080 0.18 0.080 0.159 0.059 0.159 0.081 0.18 0.072 0.18 0.059 0.159 0.068 0.179 0.060 0.16 0.060 0.177 0.12 0.36 0.060 0.179 0.059 0.18 0.040 0.179 0.060 0.18 0.052 0.18 0.039 0.177 0.052 0.18 0.039 0.18 0.055 0.179 0.039 0.179 0.060 0.18 0.039 0.159 0.060 0.18v0.019l0.039 0.16 0.041 0.169 0.039 0.179 0.039 0.18 0.040 0.159 0.040 0.18 0.039 0.177 0.060 0.16 0.039 0.179 0.040 0.159 0.040 0.18 0.077 0.317 0.040 0.16 0.040 0.159 0.039 0.16 0.080 0.317 0.077 0.317 0.080 0.317 0.019 0.16 0.040 0.139 0.061 0.297 0.039 0.14 0.039 0.139 0.040 0.139 0.029 0.139 0.039 0.139 0.021 0.139 0.039 0.139 0.040 0.139 0.020 0.139 0.039 0.14 0.040 0.12 0.040 0.129 0.020 0.119 0.040 0.12 0.020 0.12 0.020 0.119 0.020 0.12 0.020 0.1 0.021 0.12 0.020 0.113 0.021 0.1 0.019 0.099 0.021 0.104 0.032 0.099 0.020 0.099 0.020 0.1 0.020 0.091 0.021 0.080 0.031 0.099 0.031 0.081 0.021 0.087 0.020 0.080 0.021 0.080 0.060 0.24 0.020 0.060 0.040 0.068 0.040 0.12 0.021 0.059 0.039 0.061 0.020 0.059 0.051 0.1 0.020 0.051 0.040 0.081 0.020 0.039 0.020 0.040 0.020 0.039 0.021 0.040 0.060 0.060 0.021 0.020 0.020 0.021 0.039 0.021 0.021 0.005 0.020 0.020h-9.329l-0.068-0.020-0.076-0.021-0.076-0.019-0.080-0.021-0.080-0.020h-0.021l-0.069-0.032-0.075-0.020-0.076-0.041-0.081-0.040-0.059-0.039-0.080-0.040-0.060-0.039-0.081-0.040-0.117-0.12-0.081-0.060-0.060-0.060-0.080-0.059-0.080-0.080-0.080-0.075-0.059-0.080-0.081-0.072-0.080-0.060-0.080-0.080-0.081-0.080-0.059-0.080-0.083-0.007-0.079-0.080-0.060-0.091-0.072-0.087-0.159-0.197-0.079-0.1-0.060-0.099-0.081-0.12-0.079-0.099-0.081-0.12-0.080-0.1-0.080-0.117-0.16-0.24-0.081-0.12-0.079-0.12-0.081-0.12-0.080-0.119-0.080-0.139-0.079-0.12-0.061-0.139-0.080-0.14-0.080-0.139-0.080-0.14-0.081-0.139-0.079-0.139-0.16-0.277-0.081-0.139-0.079-0.139-0.081-0.139-0.079-0.139-0.081-0.159-0.080-0.16-0.080-0.159-0.081-0.16-0.079-0.159-0.081-0.159-0.079-0.159-0.080-0.159-0.18-0.037-0.065-0.168-0.079-0.164-0.081-0.164-0.079-0.167-0.085-0.167-0.080-0.169-0.080-0.159-0.085-0.159-0.080-0.159-0.084-0.159-0.080-0.159-0.080-0.2-0.080-0.179-0.084-0.159-0.084-0.16-0.080-0.179-0.084-0.159-0.081-0.18-0.080-0.159-0.080-0.18-0.16-0.357-0.077-0.179-0.079-0.18-0.081-0.159-0.079-0.179-0.079-0.177-0.079-0.18-0.080-0.18-0.080-0.179-0.159-0.357-0.080-0.199-0.080-0.16-0.079-0.179-0.081-0.16-0.080-0.159-0.097-0.157-0.080-0.18-0.099-0.16-0.080-0.157-0.099-0.16-0.081-0.159-0.079-0.16-0.16-0.317-0.079-0.183-0.16-0.319-0.080-0.159-0.081-0.159-0.197-0.317-0.18-0.305-0.077-0.159-0.099-0.147-0.101-0.16-0.079-0.149-0.081-0.139-0.167-0.277-0.099-0.141-0.081-0.137-0.077-0.14-0.081-0.119-0.080-0.14-0.084-0.139-0.088-0.12-0.079-0.12-0.099-0.12-0.101-0.117-0.079-0.119-0.1-0.12-0.117-0.156-0.089-0.101-0.092-0.104-0.079-0.099-0.077-0.133-0.099-0.099-0.088-0.080-0.1-0.092-0.083-0.087-0.1-0.108-0.173-0.16-0.091-0.077-0.089-0.071-0.092-0.060-0.093-0.060-0.085-0.079-0.1-0.061-0.080-0.059-0.099-0.059-0.089-0.040-0.091-0.040-0.093-0.040-0.095-0.040-0.091-0.041-0.079-0.031-0.080-0.008h0.011z"></path>
</svg>
