<!-- Generated by IcoMoon.io -->
<svg version="1.1" xmlns="http://www.w3.org/2000/svg" width="32" height="32" viewBox="0 0 32 32">
<title>llvm</title>
<path d="M27.773 3.968l-0.113 0.127c-0.539 0.596-1.059 1.242-1.542 1.917l-0.045 0.066c-0.203 0.276-0.4 0.589-0.574 0.917l-0.020 0.042c-0.13 0.228-0.243 0.492-0.325 0.769l-0.007 0.027c-0.028 0.070-0.044 0.151-0.044 0.236v0.005c-0.163 0.051-0.28 0.201-0.28 0.379 0 0.003 0 0.006 0 0.008v-0c-0 0.002-0 0.005-0 0.008 0 0.167 0.102 0.309 0.247 0.37l0.003 0.001c0.051 0.495 0.107 1.523 0.093 2.933l-0.005 0.189c-0.042 1.123-0.25 2.184-0.602 3.177l0.023-0.075c-0.021-0.013-0.040-0.019-0.053-0.017-0.040 0.004-0.148 0.16-0.253 0.335-0.077 0.12-0.159 0.26-0.205 0.388-0.024 0.055-0.039 0.119-0.040 0.186v0c-0 0.007-0.001 0.014-0.001 0.022 0 0.034 0.005 0.067 0.015 0.098l-0.001-0.002c0.013 0.049 0.029 0.077 0.029 0.077-0.024 0.062-0.026 0.065-0.027 0.068l0.023-0.059c-0.019 0.025-0.032 0.055-0.037 0.088l-0 0.001-0.016 0.039c-0.128 0.294-0.243 0.525-0.368 0.75l0.024-0.047-0.103 0.189c-0.053 0.091-0.084 0.141-0.116 0.191l0.022-0.038c-0.009-0.007-0.018-0.013-0.028-0.018l-0.001-0.001c-0.010-0.002-0.022-0.003-0.034-0.003-0.043 0-0.084 0.013-0.117 0.035l0.001-0c-0.063 0.047-0.201 0.259-0.664 0.491-0.157 0.079-0.301 0.124-0.427 0.152 0.166-0.803 0.284-1.751 0.329-2.718l0.002-0.042c0.004-0.089 0.007-0.193 0.007-0.298 0-0.392-0.033-0.777-0.098-1.151l0.006 0.040c0.004-0.013 0.004-0.023 0.004-0.023l-0.007 0.013c-0.042-0.245-0.090-0.45-0.149-0.652l0.010 0.041c-0.193-0.713-0.527-1.332-0.971-1.853l0.006 0.007c-0.841-1.005-1.995-1.52-3.008-1.553l-0.167-0.003c0-0.011 0-0.020 0.003-0.029 0.028-0.131 0.032-0.169-0.116-0.043-0.027 0.024-0.052 0.047-0.076 0.072l-0 0c-0.071 0.001-0.135 0.005-0.195 0.009-0.003-0.030-0.005-0.064-0.005-0.098 0-0.016 0-0.032 0.001-0.048l-0 0.002c0.005-0.101 0.032-0.169-0.116-0.043-0.077 0.061-0.14 0.135-0.187 0.219l-0.002 0.004c-0.067 0.011-0.107 0.020-0.107 0.020l0.060-0.003-0.063 0.011c-0.021-0.056-0.071-0.14-0.064-0.213 0.013-0.157 0.057-0.187-0.049-0.087-0.131 0.12-0.269 0.301-0.293 0.399l-0.128 0.040c-0.024-0.024-0.099-0.093-0.115-0.237-0.017-0.147-0.016-0.221-0.107-0.068-0.078 0.134-0.139 0.29-0.172 0.456l-0.002 0.010c-0.043 0.020-0.084 0.040-0.124 0.061-0.047-0.060-0.076-0.138-0.076-0.221 0-0.003 0-0.007 0-0.010v0c-0.007-0.192 0.053-0.348-0.089-0.091-0.083 0.156-0.15 0.337-0.192 0.527l-0.003 0.014c-0.048 0.033-0.095 0.068-0.14 0.105-0.005-0.065-0.009-0.144-0.011-0.224l-0-0.003c-0.003-0.189 0.028-0.393-0.089-0.033-0.035 0.105-0.071 0.256-0.093 0.428-0.539 0.513-0.867 1.223-0.859 2.096v0.009c-0.001 0.156 0.007 0.304 0.019 0.44 0.027 0.317 0.076 0.584 0.143 0.807-0.127 0.173-0.137 0.919-0.013 1.091 0.097 0.139 0.661 0.467 0.781 0.532 0.049 0.034 0.091 0.075 0.124 0.122l0.001 0.002c0.153 0.251 0.153 0.756 0.036 1.016-0.143 0.317 0.143 0.38 0.38 0.427 0.237 0.048 0.553-0.031 0.617-0.157 0.063-0.127-0.205-0.412-0.316-0.997-0.112-0.585 0.173-0.632 0.173-0.632s0.127 0.032 0.316 0.332c0.147 0.233 0.303 0.417 0.448 0.551-0.074 0.092-0.163 0.168-0.263 0.227l-0.005 0.002c0.16 0.007 0.32-0.068 0.405-0.116 0.027 0.019 0.058 0.039 0.090 0.057l0.005 0.003c-0.022 0.023-0.043 0.045-0.066 0.066l-0.001 0.001c0.053-0.005 0.102-0.015 0.149-0.031l-0.005 0.001c0.033 0.014 0.071 0.025 0.11 0.029l0.002 0c0.207 0.016 0.76-0.491 0.76-0.585 0-0.024-0.020-0.053-0.051-0.084-0.056-0.060-0.16-0.133-0.276-0.236-0.053-0.048-0.101-0.098-0.145-0.152l-0.002-0.002c-0.104-0.138-0.172-0.309-0.188-0.495l-0-0.004v-0.013l-0.004-0.041c0 0 0.009-0.009 0.021-0.027v0.005l0.005-0.013c0.069-0.107 0.2-0.505-0.627-1.437-0.342-0.384-0.75-0.699-1.209-0.931l-0.023-0.011c-0.056-0.629 0.2-1.217 0.835-1.507l-0.007 0.007 0.011-0.008c0.303-0.136 0.689-0.207 1.169-0.181 0.92 0.048 1.627 0.479 2.12 1.127 0.685 0.949 0.984 2.373 0.767 3.808-0.091 0.087-0.073 0.1-0.017 0.103-0.027 0.161-0.053 0.284-0.082 0.406l0.008-0.042-0.036 0.020c-0.164 0.099-0.095 0.097 0 0.123l-0.008 0.027c-0.027 0.087-0.057 0.173-0.088 0.257-0.048 0.014-0.087 0.028-0.125 0.043l0.009-0.003c-0.18 0.071-0.107 0.080-0.016 0.121l0.059 0.029c-0.043 0.107-0.088 0.213-0.135 0.316-0.042 0.007-0.078 0.015-0.114 0.024l0.007-0.002c-0.189 0.048-0.117 0.067-0.032 0.12 0.021 0.013 0.038 0.025 0.055 0.037l-0.002-0.001c-0.070 0.148-0.117 0.242-0.166 0.334l0.024-0.049c-0.075 0.005-0.144 0.016-0.211 0.035l0.007-0.002c-0.187 0.048-0.116 0.067-0.031 0.12 0.045 0.027 0.080 0.055 0.108 0.079-0.069 0.125-0.111 0.197-0.154 0.268l0.027-0.049-0.031 0.048c-0.014-0.001-0.031-0.001-0.048-0.001-0.081 0-0.159 0.012-0.233 0.035l0.006-0.001c-0.189 0.048-0.117 0.067-0.032 0.12 0.052 0.032 0.098 0.067 0.139 0.106l-0.001-0.001c-0.079 0.118-0.135 0.196-0.191 0.273l0.023-0.033c-0.050-0.013-0.108-0.021-0.168-0.021-0.049 0-0.097 0.005-0.143 0.015l0.005-0.001c-0.192 0.027-0.123 0.053-0.044 0.115 0.091 0.071 0.135 0.132 0.157 0.157l-0.083 0.112c-0.059-0.077-0.199-0.165-0.328-0.257-0.11-0.078-0.24-0.138-0.379-0.172l-0.008-0.002c-0.064 0-0.265 0.357-1.356 0.263-1.092-0.095-1.16-0.2-1.256-0.2-0.093 0-0.297 0.076-0.304 0.079l-0.045-0.027c-0.5-0.31-0.923-0.606-1.328-0.923l0.032 0.024c-0.619-0.493-0.96-0.863-0.96-0.863s0.183-0.167-0.063-0.379c-0.136-0.128-0.283-0.249-0.438-0.36l-0.013-0.009c-0.094-0.075-0.199-0.148-0.31-0.214l-0.013-0.007c-0.030-0.041-0.069-0.096-0.106-0.152l-0.011-0.017c-0.131-0.204-0.292-0.478-0.444-0.757l-0.040-0.080c-0.081-0.149-0.193-0.38-0.298-0.615l-0.035-0.088c-0.213-0.48-0.36-0.909-0.461-1.285-0.092-0.355-0.162-0.775-0.196-1.205l-0.002-0.026c-0.001-0.033-0.002-0.072-0.002-0.112 0-0.074 0.003-0.148 0.008-0.221l-0.001 0.010c0.128-0.101 0.21-0.256 0.211-0.431v-0c-0-0.277-0.207-0.506-0.475-0.542l-0.003-0c-0.272-0.569-1.309-1.969-5.176-4.907l-0.169-0.131 0.007 0.005-0.048-0.036c3.939 3.373 4.707 4.692 4.909 5.243-0.012 0.013-0.024 0.028-0.035 0.043l-0.001 0.001c0.063 0.044 0.055 0.038 0.047 0.032l-0.071-0.050c0.024 0 0.033-0.007 0.033-0.007s-0.896-0.728-2.383-1.64c-1.492-0.916-2.332-1.132-2.507-1.169l-0.036-0.008c0 0 0.275 0.253 0.232 0.38-0.013 0.043-0.224 0.029-0.561 0.037-0.343 0.001-0.677 0.035-1 0.099l0.033-0.005c-0.791 0.143-1.494 0.437-2.109 0.852l0.019-0.012c-1.74 1.159-2.057 1.981-2.057 1.981s0.733-1.024 2.107-1.74c-0.019 0.449-0.063 2.625 0.593 5.493 0.708 3.093 2.041 5.983 2.152 6.22 0.005 0.237 0.021 0.363 0.021 0.363s0.197-2.387 1.008-4.863c0.233 0.377 1.011 1.489 2.768 2.795 2.171 1.613 3.16 2.048 3.2 2.064 0.001 0.209 0.007 0.32 0.007 0.32s0.007-0.133 0.024-0.351c0.059-0.087 0.397-0.573 0.736-0.893 0.215-0.21 0.45-0.401 0.702-0.569l0.018-0.011c0.043 0.147 0.084 0.272 0.124 0.368-0.027-0.129-0.048-0.253-0.069-0.376 0.143 0.013 0.717 0.088 1.608 0.524 0.457 0.224 0.812 0.527 1.064 0.793-0.008 0.003-0.014 0.006-0.020 0.009l0.001-0.001c0 0 0.164 0.149 0.359 0.537-0.037-0.002-0.080-0.002-0.123-0.002-0.303 0-0.596 0.042-0.873 0.12l0.023-0.005c-0.051-0.108-0.094-0.19-0.141-0.271l0.010 0.019c-0.009-0.067-0.028-0.128-0.054-0.184l0.002 0.004c-0.036-0.081-0.127-0.133-0.219-0.187-0.040-0.039-0.085-0.071-0.136-0.096l-0.003-0.001c-0.030-0.027-0.055-0.059-0.073-0.096l-0.001-0.002c-0.112-0.245-1.064 0.016-1.256 0.24-0.233 0.272-0.279 0.619-0.187 0.811 0.028 0.060 0.093 0.109 0.184 0.147 0.003 0.295 0.183 1 0.539 1.512-0.062-0.25-0.112-0.553-0.142-0.863l-0.002-0.027c-0.012-0.213 0-0.365 0.020-0.467 0.063 0.437 0.232 0.912 0.769 1.5-0.331-0.72-0.293-1.149-0.26-1.525l0.012-0.059 0.008-0.001c0.048 0.351 0.189 0.712 0.643 1.285-0.005-0.009-0.011-0.021-0.017-0.034l-0.001-0.003 0.019 0.028c-0.159-0.294-0.252-0.644-0.252-1.015 0-0.126 0.011-0.25 0.032-0.371l-0.002 0.013 0.011-0.004c0.061 0.040 0.121 0.093 0.179 0.168 0.171 0.229 0.251 0.465 0.283 0.627-0.009 0.043-0.015 0.093-0.015 0.144 0 0.136 0.039 0.264 0.106 0.371l-0.002-0.003c-0.327 0.239-0.647 0.461-0.96 0.668-0.307 0.199-0.653 0.417-1.009 0.627-0.187 0.107-0.372 0.211-0.552 0.307l-0.18-0.103h0.003l-0.011-0.005c-1.293-0.745-2.253-1.243-3.357-1.443-1.241-0.223-2.383 0.377-2.644 1.443-0.030 0.121-0.048 0.259-0.048 0.401 0 0.601 0.309 1.129 0.777 1.434l0.007 0.004 0.016 0.011c0.017 0.013 0.035 0.023 0.053 0.035l0.080 0.048h0.003c0.256 0.147 0.565 0.255 0.921 0.316l0.037 0.007h0.008c0.158 0.028 0.347 0.049 0.539 0.058l0.011 0c1.3 0.063 2.875-0.544 4.431-1.309 0.133 0.072 0.269 0.144 0.408 0.221 3.396 1.871 5.464 2.113 8.205 0.971-0.669 0.201-1.611 0.475-2.792 0.459-0.008-0.004-0.017-0.007-0.026-0.008l-0-0 0.001 0.008c-0.31-0.006-0.609-0.030-0.903-0.071l0.039 0.005v-0.001l-0.040-0.004v-0.004c0-0.001 0-0-0 0.001l-0.001 0.002c-0.775-0.114-1.474-0.317-2.128-0.602l0.054 0.021c-0.403-0.17-0.729-0.332-1.046-0.51l0.052 0.027c-0.825-0.445-1.263-0.697-1.699-0.953l0.357 0.194c0.464-0.237 0.923-0.484 1.368-0.727 0.473-0.252 0.896-0.483 1.224-0.667l0.012-0.005 0.009-0.001c0 0 0.111-0.024 0.213-0.056 0.227-0.069 0.547-0.199 0.927-0.377 0.037 0.156 0.127 0.287 0.26 0.337 0.313 0.121 0.543 0.036 0.696-0.136l0.024-0.013 0.063-0.049c0.067-0.040 0.143-0.089 0.208-0.12 0.013-0.007 0.037-0.016 0.060-0.026l0.010-0.004c0.053-0.013 0.104-0.031 0.155-0.049l0.044-0.013c-0.193 0.396-0.121 0.775-0.121 0.775 0.057-0.495 0.293-0.811 0.523-0.953 0.085-0.036 0.173-0.067 0.267-0.089 0.085 0 0.155 0.031 0.192 0.093 0.093 0.16 0.289 0.259 0.485 0.301 0.032 0.2-0.060 0.539-0.533 1.155l0.12-0.083 0.005-0.004 0.096-0.071c0.191-0.144 0.336-0.28 0.445-0.407 0.106-0.115 0.192-0.249 0.252-0.398l0.003-0.009c0.016 0.267-0.057 0.676-0.415 1.381 0 0 0.423-0.368 0.685-0.84 0.008 0.255-0.013 0.591-0.084 1.047 0.46-0.897 0.433-1.447 0.319-1.768l-0.013-0.048c-0.003-0.032-0.007-0.062-0.014-0.091l0.001 0.004 0.056-0.076c0.157-0.221-0.064-0.459-0.205-0.553-0.080-0.053-0.267-0.205-0.605-0.209-0.3-0.36-0.68-0.2-1.277 0.193-0.063 0.042-0.135 0.084-0.211 0.12l-0.010 0.004c-0.022-0.060-0.047-0.112-0.076-0.16l0.002 0.004c0.213-0.128 0.435-0.265 0.659-0.411 0.423-0.276 0.737-0.555 0.971-0.82 0.68-0.689 0.92-1.36 1.613-1.928l-0.017 0.001 0.080-0.043c1.139-0.611 1.743-0.729 1.785-0.737l-0.004 0.171 0.024-0.167c0.247 0.123 0.459 0.276 0.641 0.459l0 0c0.186 0.187 0.347 0.401 0.475 0.635l0.007 0.015 0.059 0.401c0 0 0-0.156-0.013-0.44 0.204-0.203 1.36-1.392 2.299-3.289 0.925-1.872 1.259-3.364 1.356-3.899 0.327 0.899 0.633 2.002 0.861 3.133l0.026 0.155c0 0-0.003-0.177-0.041-0.499 0.129-0.448 0.688-2.496 0.836-5.008 0.133-2.241-0.087-3.707-0.187-4.232 0.864 0.716 1.327 1.743 1.327 1.743s-0.053-0.217-0.251-0.583l0.027 0.036c0 0-0.315-0.607-0.859-1.207-0.075-0.085-0.143-0.16-0.213-0.233l0.004 0.004c-0.576-0.612-1.139-0.823-1.56-0.896-0.133-0.027-0.271-0.040-0.411-0.040h-0.025c-0.167-0.004-0.268 0.003-0.276-0.035-0.027-0.127 0.147-0.38 0.147-0.38s-0.236 0.061-0.739 0.44c-0.307 0.223-0.693 0.547-1.137 1.013-0.406 0.411-0.794 0.843-1.16 1.294l-0.126 0.16c-0.009-0.008-0.019-0.015-0.030-0.022l-0.001-0.001c0.101-0.441 0.483-1.491 2.383-4.143zM15.893 18.787c0.008 0.004 0.013 0.006 0.019 0.009l-0.003-0.001zM15.543 22.261c0.117 0.059 0.253 0.141 0.404 0.259h-0.007c-0.079 0.020-0.148 0.052-0.209 0.095l0.002-0.001c-0.066-0.086-0.122-0.185-0.165-0.29l-0.003-0.009zM9.069 24.355c0.176 0 0.368 0.019 0.576 0.064l0.027 0.007 0.023 0.005c0.147 0.036 0.297 0.083 0.449 0.136l0.076 0.028c0.255 0.099 0.527 0.208 0.815 0.331 0.427 0.185 0.825 0.369 1.117 0.5l0.244 0.117c-0.295 0.141-0.565 0.261-0.769 0.348-1.352 0.555-2.44 0.715-3.117 0.521-1.26-0.359-1.013-2.048 0.56-2.057z"></path>
</svg>
