<!-- Generated by IcoMoon.io -->
<svg version="1.1" xmlns="http://www.w3.org/2000/svg" width="32" height="32" viewBox="0 0 32 32">
<title>loop</title>
<path fill="#f29400" d="M16 0c-8.839 0-16 7.161-16 16s7.161 16 16 16 16-7.161 16-16c0.015-8.839-7.161-16-16-16zM16.933 30.148c-7.817 0-14.148-6.331-14.148-14.148s6.331-14.148 14.148-14.148 14.148 6.331 14.148 14.148-6.331 14.148-14.148 14.148zM9.393 4.551c-6.329 3.647-8.488 11.727-4.843 18.056 3.647 6.316 11.741 8.488 18.056 4.843 6.329-3.647 8.488-11.741 4.843-18.056-3.647-6.331-11.727-8.489-18.056-4.843zM22.491 25.379c-5.44 3.136-12.383 1.269-15.519-4.157-3.136-5.44-1.269-12.383 4.157-15.519 5.44-3.136 12.383-1.269 15.519 4.157 3.135 5.425 1.283 12.383-4.157 15.519zM6.972 10.779c-2.888 4.988-1.167 11.376 3.821 14.249 4.988 2.888 11.376 1.167 14.264-3.821s1.167-11.376-3.821-14.249c-5.003-2.873-11.391-1.167-14.264 3.821zM24.095 19.603c-2.436 4.215-7.817 5.659-12.033 3.223-4.215-2.436-5.659-7.817-3.224-12.033s7.817-5.659 12.033-3.224c4.216 2.423 5.66 7.82 3.224 12.035zM8.124 16c0 4.361 3.529 7.891 7.891 7.891s7.891-3.529 7.891-7.891-3.529-7.891-7.891-7.891-7.891 3.529-7.891 7.891zM22.272 15.067c0 3.457-2.8 6.257-6.257 6.257s-6.257-2.8-6.257-6.257 2.8-6.257 6.257-6.257c3.443 0 6.257 2.8 6.257 6.257z"></path>
</svg>
