<!-- Generated by IcoMoon.io -->
<svg version="1.1" xmlns="http://www.w3.org/2000/svg" width="32" height="32" viewBox="0 0 32 32">
<title>lufthansa</title>
<path fill="#05164d" d="M32 16c0-8.864-7.136-16-16-16-8.832 0-16 7.136-16 16 0 8.832 7.168 16 16 16 8.864 0 16-7.168 16-16zM30.848 16c0 8.16-6.656 14.848-14.848 14.848-8.16 0-14.848-6.687-14.848-14.848 0-8.192 6.688-14.848 14.848-14.848 8.192 0 14.848 6.656 14.848 14.848zM21.664 15.040c-0.352 0-0.8 0-1.376 0.032l0.416-0.704h0.672c2.4 0 4.192 0.128 5.824 0.416l0.736-0.704c-1.824-0.32-4.032-0.512-6.272-0.512h-0.544l0.352-0.672h0.608c2.336 0 4.448 0.192 6.496 0.576l0.768-0.736c-2.304-0.448-4.768-0.671-7.424-0.671-1.132 0.004-2.264 0.057-3.392 0.16-1.28 2.751-3.328 4.352-5.632 4.32-0.896-0.033-2.017-0.416-3.456-1.185l-1.344-0.768 0.416-0.384 3.104 1.344 0.672-0.512-6.272-2.848-0.96 0.736-2.24-0.928 0.032 0.928c3.008 1.376 4.256 2.144 7.424 4.416 4.128 2.944 7.808 4.544 12.928 5.568l1.344-1.28h-0.32c-3.392 0-6.432-1.12-8.192-3.008 1.472-0.896 3.295-1.311 5.824-1.311 0.672 0 1.632 0.063 2.528 0.159l0.768-0.736c-1.2-0.147-2.407-0.221-3.616-0.224-0.812-0.001-1.623 0.031-2.432 0.096l0.576-0.704c0.681-0.040 1.365-0.061 2.048-0.064 1.696 0 2.816 0.064 4.096 0.256l0.736-0.704c-1.344-0.223-3.2-0.352-4.896-0.352z"></path>
</svg>
