<!-- Generated by IcoMoon.io -->
<svg version="1.1" xmlns="http://www.w3.org/2000/svg" width="32" height="32" viewBox="0 0 32 32">
<title>lumen</title>
<path fill="#e74430" d="M15.536 0c-0.008-0-0.018-0-0.028-0-0.156 0-0.303 0.036-0.434 0.099l0.006-0.003-6.504 2.973c-0.348 0.162-0.585 0.509-0.585 0.911 0 0.553 0.448 1.001 1.001 1.001 0.151 0 0.294-0.033 0.422-0.093l-0.006 0.003 6.504-2.973c0.357-0.158 0.602-0.509 0.602-0.918 0-0.545-0.436-0.988-0.977-1l-0.001-0zM23.035 0.472c-0.006-0-0.014-0-0.021-0-0.158 0-0.307 0.037-0.439 0.101l0.006-0.003-14.009 6.504c-0.345 0.163-0.58 0.508-0.58 0.908 0 0.553 0.448 1.001 1.001 1.001 0.153 0 0.298-0.034 0.427-0.096l-0.006 0.003 14.008-6.504c0.354-0.159 0.596-0.509 0.596-0.915 0-0.546-0.438-0.99-0.982-1h-0.001zM23.035 4.475c-0.006-0-0.014-0-0.021-0-0.158 0-0.307 0.037-0.439 0.101l0.006-0.003-14.009 6.504c-0.345 0.163-0.58 0.508-0.58 0.908 0 0.553 0.448 1.001 1.001 1.001 0.153 0 0.298-0.034 0.427-0.096l-0.006 0.003 14.008-6.507c0.351-0.16 0.59-0.508 0.59-0.912 0-0.544-0.435-0.987-0.976-1l-0.001-0zM23.035 8.477c-0.006-0-0.014-0-0.021-0-0.158 0-0.307 0.037-0.439 0.101l0.006-0.003-14.009 6.504c-0.345 0.163-0.579 0.508-0.579 0.907 0 0.553 0.448 1 1 1 0.153 0 0.298-0.034 0.427-0.096l-0.006 0.003 14.008-6.504c0.352-0.16 0.593-0.509 0.593-0.914 0-0.545-0.436-0.989-0.979-1l-0.001-0zM23.047 12.48c-0.010-0-0.021-0.001-0.033-0.001-0.154 0-0.299 0.035-0.429 0.096l0.006-0.003-5.004 2.251c-0.35 0.161-0.589 0.508-0.589 0.912 0 0.001 0 0.001 0 0.002v-0 4.691c-0 0.003-0 0.007-0 0.010 0 0.018 0 0.037 0.002 0.055l-0-0.003h-2.004c0-0.009 0.001-0.020 0.001-0.031s-0-0.022-0.001-0.033l0 0.002v-3.44c0-0.004 0-0.010 0-0.015 0-0.552-0.448-1-1-1-0.005 0-0.010 0-0.016 0h0.001c-0.547 0.007-0.987 0.452-0.987 1 0 0.005 0 0.010 0 0.016v-0.001 3.44c0 0.023 0.001 0.044 0.003 0.066l-0-0.003h-1.253c-0.007-0-0.016-0-0.025-0-0.339 0-0.615 0.275-0.615 0.615 0 0.045 0.005 0.088 0.014 0.13l-0.001-0.004 0.253 1.52c0.083 0.417 0.441 0.729 0.873 0.741l0.001 0h3.040l-3.383 0.635c-0.234 0.044-0.409 0.248-0.409 0.492 0 0.276 0.224 0.5 0.5 0.5 0.034 0 0.066-0.003 0.098-0.010l-0.003 0.001 8.004-1.501c0.236-0.043 0.412-0.247 0.412-0.492 0-0.019-0.001-0.038-0.003-0.057l0 0.002c0.058-0.088 0.101-0.192 0.122-0.304l0.001-0.005 0.253-1.521c0.008-0.038 0.013-0.081 0.013-0.126 0-0.339-0.275-0.615-0.615-0.615-0.009 0-0.018 0-0.026 0.001l0.001-0h-1.253c0.001-0.018 0.002-0.040 0.003-0.062v-4.045l4.413-1.987c0.358-0.158 0.603-0.509 0.603-0.918 0-0.541-0.43-0.982-0.967-0.999l-0.002-0zM19.991 24.992c-0.030 0.001-0.059 0.004-0.087 0.010l0.003-0.001-8.005 1.501c-0.234 0.044-0.409 0.248-0.409 0.492 0 0.276 0.224 0.5 0.5 0.5 0.034 0 0.066-0.003 0.098-0.010l-0.003 0.001 8.004-1.5c0.24-0.039 0.421-0.245 0.421-0.494 0-0.276-0.224-0.5-0.5-0.5-0.008 0-0.015 0-0.023 0l0.001-0zM19.991 27.493c-0.031 0.001-0.059 0.005-0.087 0.011l0.003-0.001-8.005 1.5c-0.234 0.044-0.409 0.248-0.409 0.492 0 0.276 0.224 0.5 0.5 0.5 0.034 0 0.066-0.003 0.098-0.010l-0.003 0.001 8.004-1.5c0.24-0.039 0.421-0.245 0.421-0.494 0-0.276-0.224-0.5-0.5-0.5-0.008 0-0.015 0-0.023 0l0.001-0zM19 29.995c-0.030 0-0.060 0.003-0.088 0.008l0.003-0-5.961 1.001c-0.238 0.041-0.418 0.246-0.418 0.493 0 0.276 0.224 0.5 0.5 0.5 0.029 0 0.058-0.003 0.086-0.007l-0.003 0 5.963-1c0.25-0.031 0.441-0.241 0.441-0.497 0-0.276-0.224-0.5-0.5-0.5-0.008 0-0.016 0-0.023 0.001l0.001-0z"></path>
</svg>
