<!-- Generated by IcoMoon.io -->
<svg version="1.1" xmlns="http://www.w3.org/2000/svg" width="32" height="32" viewBox="0 0 32 32">
<title>lyft</title>
<path fill="#ff00bf" d="M32 14.829v-4.683h-1.671c-0.699-3.68-4.565-6.1-8.453-4.644-2.165 0.808-3.925 3.395-3.925 5.709v10.641h0.187c0.004 0 0.004 0 0.008 0s0.004 0 0.008 0c1.205-0.051 2.333-0.561 3.173-1.436 0.843-0.879 1.308-2.029 1.308-3.243h1.951v-4.687h-1.951v-1.288c0-0.5 0.265-0.968 0.703-1.209 1.199-0.668 2.42 0.191 2.42 1.327v4.293c0 1.697 0.64 3.275 1.803 4.441 1.112 1.112 2.619 1.752 4.239 1.803 0 0 0.004 0 0.004 0s0 0 0.004 0v0h0.191v-4.683c0 0 0 0 0 0-0.875-0.004-1.561-0.707-1.561-1.561v-0.78zM4.683 17.951v-12.488h-4.683v11.707c0 3.216 2.123 4.683 4.097 4.683v0c0.589 0 1.179-0.136 1.705-0.383 0.079-0.035 0.203-0.113 0.203-0.113s-0.117-0.125-0.168-0.18c-0.749-0.855-1.155-1.963-1.155-3.225zM12.097 16.5c0 0.195-0.093 0.383-0.253 0.492-0.628 0.441-1.308-0.004-1.308-0.601v-6.244h-4.683v7.805c0 2.151 1.752 3.903 3.903 3.903 0.929 0 1.831-0.332 2.536-0.936-0.075 0.577-0.391 1.053-0.921 1.385-0.496 0.312-1.144 0.476-1.869 0.476-0.749 0-1.511-0.176-2.201-0.507 0 0-0.125-0.059-0.281-0.148v4.16c1.041 0.421 2.185 0.644 3.289 0.644 1.748 0 3.344-0.547 4.496-1.541 1.292-1.112 1.975-2.74 1.975-4.703v-10.536h-4.683z"></path>
</svg>
