<!-- Generated by IcoMoon.io -->
<svg version="1.1" xmlns="http://www.w3.org/2000/svg" width="32" height="32" viewBox="0 0 32 32">
<title>magisk</title>
<path fill="#00af9c" d="M14.476 19.277c0 0 0.207 1.228-0.045 3.936-0.315 3.395 1.293 8.787 1.293 8.787s2.193-5.403 1.811-8.893c-0.315-2.869 0.143-3.872 0.045-3.737-1.685 2.328-3.104-0.092-3.104-0.092zM18.585 22.191c0.275 2.121-0.031 3.283-0.427 5.552-0.2 1.148 4.091-3.452 5.736-6.193 0.275-0.457-1.573 1.783-3.401 0.183-1.268-1.109-1.485-1.447-2.471-2.411-0.332-0.325 0.369 1.352 0.563 2.869zM13.903 19.491c-0.985 0.964-1.204 1.301-2.471 2.411-1.828 1.6-3.676-0.64-3.401-0.183 1.645 2.743 5.936 7.341 5.736 6.193-0.396-2.271-0.701-3.432-0.427-5.552 0.196-1.516 0.897-3.193 0.563-2.869zM18.124 15.705c2.005 0.579 2.784 3.364 4.808 3.708 0.419 0.071 0.889 0.197 1.439 0.171 1.027-0.049 2.325-0.629 4.060-3.091 0.513-0.728-1.273 4.685-5.751 4.751-3.28 0.048-3.663-3.211-5.849-3.309-0.789-0.036-0.839-1.541-0.839-1.541s0.941-1.032 2.132-0.688zM13.876 15.689c-2.005 0.579-2.784 3.364-4.808 3.708-0.419 0.071-0.889 0.197-1.439 0.171-1.027-0.049-2.325-0.629-4.060-3.091-0.513-0.728 1.273 4.685 5.751 4.751 3.28 0.048 3.663-3.211 5.849-3.309 0.789-0.036 0.839-1.541 0.839-1.541s-0.941-1.032-2.132-0.688zM21.377 15.663c2.017 1.528 1.416 3.211 2.548 2.731 3.812-1.616 3.145-9.912 2.837-8.909-1.737 5.656-5.524 5.973-9.168 3.371-0.712-0.508 2.647 1.945 3.783 2.808zM14.391 12.855c-3.644 2.601-7.431 2.285-9.168-3.371-0.308-1.003-0.975 7.292 2.837 8.909 1.132 0.48 0.531-1.203 2.548-2.731 1.136-0.861 4.495-3.315 3.783-2.808zM21.759 13.633c4.4-0.181 5.212-7.393 4.867-6.513-1.553 3.951-7.432 2.464-7.993 4.957-0.111 0.489 0.996 1.644 3.127 1.556zM13.353 12.077c-0.561-2.493-6.441-1.007-7.993-4.957-0.345-0.88 0.467 6.332 4.867 6.513 2.132 0.088 3.237-1.067 3.127-1.556zM18.357 10.979c0 0 2.392-1.285 4.44-1.845 1.913-0.524 3.349-1.812 3.508-3.173 0.119-1.013-1.48-2.929-1.48-2.929s-1.121 3.112-2.593 4.668c-1.601 1.693-0.993 1.465-3.875 3.28zM9.753 7.699c-1.472-1.556-2.593-4.668-2.593-4.668s-1.599 1.915-1.48 2.929c0.16 1.361 1.595 2.649 3.508 3.173 2.048 0.561 4.44 1.845 4.44 1.845-2.883-1.815-2.273-1.587-3.875-3.28zM18.067 10.781c2.591-2.125 3.968-4.897 6.209-7.932 0.423-0.572-1.892-1.953-2.807-2.044s-1.683 3.271-1.769 5.248c-0.079 1.805-1.981 5.015-1.633 4.728zM12.285 6.052c-0.087-1.977-0.855-5.339-1.769-5.248s-3.229 1.472-2.807 2.044c2.241 3.035 3.617 5.808 6.209 7.932 0.348 0.285-1.553-2.924-1.633-4.728zM18.327 3.916c0.183-1.464 0.841-2.533 2.151-3.432-1.157-0.387-2.121-0.701-2.624-0.289s-1.871 1.789-1.688 4.031 0.009 10.616 0.407 10.461c0.213-5.736 2.029-7.384 1.755-10.771zM15.412 14.685c0.396 0.155 0.223-8.22 0.407-10.461s-1.184-3.619-1.688-4.031c-0.503-0.412-1.465-0.097-2.624 0.289 1.311 0.899 1.968 1.968 2.151 3.432-0.275 3.385 1.541 5.033 1.755 10.771z"></path>
</svg>
