<!-- Generated by IcoMoon.io -->
<svg version="1.1" xmlns="http://www.w3.org/2000/svg" width="32" height="32" viewBox="0 0 32 32">
<title>mail-dot-ru</title>
<path fill="#168de2" d="M15.447 7.023c2.445 0 4.744 1.081 6.432 2.773v0.005c0-0.812 0.547-1.424 1.305-1.424h0.193c1.188 0 1.431 1.123 1.431 1.479l0.007 12.633c-0.084 0.828 0.853 1.255 1.372 0.724 2.028-2.085 4.456-10.717-1.261-15.72-5.328-4.663-12.476-3.895-16.279-1.273-4.041 2.788-6.628 8.957-4.115 14.752 2.739 6.32 10.575 8.203 15.232 6.325 2.359-0.953 3.448 2.235 0.999 3.276-3.701 1.579-14.003 1.419-18.813-6.917-3.252-5.628-3.079-15.532 5.544-20.663 6.596-3.924 15.293-2.837 20.536 2.639 5.481 5.725 5.163 16.445-0.185 20.615-2.421 1.893-6.021 0.049-5.997-2.708l-0.025-0.904c-1.687 1.675-3.931 2.651-6.376 2.651-4.833 0-9.084-4.252-9.084-9.083 0-4.879 4.252-9.18 9.085-9.18zM21.528 15.853c-0.183-3.537-2.808-5.665-5.979-5.665h-0.12c-3.66 0-5.691 2.879-5.691 6.147 0 3.663 2.456 5.975 5.675 5.975 3.591 0 5.952-2.631 6.123-5.741z"></path>
</svg>
