<!-- Generated by IcoMoon.io -->
<svg version="1.1" xmlns="http://www.w3.org/2000/svg" width="32" height="32" viewBox="0 0 32 32">
<title>makerbot</title>
<path fill="#ff1e0d" d="M30.74 9.771c-0.805-1.904-1.96-3.619-3.425-5.084-1.472-1.468-3.181-2.619-5.085-3.428-1.977-0.839-4.071-1.259-6.229-1.259-2.16 0-4.253 0.424-6.229 1.26-1.904 0.805-3.615 1.96-5.084 3.427-1.468 1.467-2.619 3.18-3.429 5.084-0.837 1.976-1.257 4.069-1.257 6.229 0 2.159 0.424 4.252 1.26 6.228 0.805 1.905 1.96 3.619 3.425 5.085 1.471 1.467 3.181 2.619 5.084 3.427 1.977 0.841 4.071 1.26 6.231 1.26 2.159 0 4.252-0.419 6.228-1.259 1.905-0.801 3.615-1.961 5.085-3.419 1.467-1.46 2.619-3.181 3.427-5.081 0.84-1.96 1.259-4.060 1.259-6.22 0-2.159-0.419-4.24-1.259-6.219zM16 29.78c-7.609 0-13.78-6.171-13.78-13.78s6.171-13.78 13.78-13.78 13.78 6.171 13.78 13.78-6.171 13.78-13.78 13.78zM20.323 5.495h-8.647c-1.229 0-2.267 0.432-3.111 1.3-0.847 0.859-1.271 1.9-1.271 3.112v13.576c0 0.599 0.18 1.080 0.533 1.46 0.356 0.359 0.82 0.56 1.401 0.56 0.593 0 1.073-0.18 1.439-0.54 0.363-0.361 0.545-0.84 0.545-1.44v-14.083h2.855v14.039c0 0.593 0.175 1.075 0.521 1.44 0.345 0.364 0.815 0.548 1.412 0.548 0.595 0 1.065-0.184 1.412-0.548 0.347-0.365 0.52-0.847 0.52-1.44v-14.039h2.856v14.039c0 0.593 0.18 1.075 0.544 1.44 0.367 0.364 0.847 0.548 1.44 0.548 0.58 0 1.044-0.188 1.4-0.564 0.357-0.373 0.535-0.851 0.535-1.425v-13.576c0-1.213-0.424-2.251-1.271-3.115-0.844-0.864-1.88-1.3-3.112-1.3z"></path>
</svg>
