<!-- Generated by IcoMoon.io -->
<svg version="1.1" xmlns="http://www.w3.org/2000/svg" width="32" height="32" viewBox="0 0 32 32">
<title>manageiq</title>
<path fill="#ef2929" d="M16.128 0.133l-0.001 0.001c-0.004 0-0.009 0-0.013 0-8.503 0-15.396 6.893-15.396 15.396 0 0.005 0 0.009 0 0.014v-0.001c0 2.759 0.731 5.34 1.995 7.577l3.825-3.823c-0.454-1.112-0.718-2.402-0.72-3.754v-0.001c0-5.681 4.627-10.307 10.309-10.307 5.681 0 10.309 4.625 10.309 10.307 0 5.683-4.627 10.309-10.309 10.309-1.244-0.002-2.436-0.226-3.537-0.635l0.071 0.023-3.864 3.865c2.112 1.165 4.63 1.851 7.307 1.851 0.009 0 0.017 0 0.026-0h-0.001c3.088 0 5.957-0.915 8.367-2.475l3.191 3.189 4.315-4.323-3.132-3.132c1.67-2.42 2.667-5.416 2.667-8.645 0-0.010 0-0.020-0-0.030v0.002c0-8.387-6.676-15.197-15.011-15.411-0.107-0.004-0.24 0-0.396 0zM16.127 12.587c-1.635 0-2.953 1.321-2.953 2.956 0 1.633 1.32 2.955 2.953 2.955 1.632 0 2.955-1.323 2.955-2.955s-1.323-2.955-2.955-2.955v0zM10.472 17.077l-10.472 10.472 4.319 4.32 10.473-10.475z"></path>
</svg>
