<!-- Generated by IcoMoon.io -->
<svg version="1.1" xmlns="http://www.w3.org/2000/svg" width="32" height="32" viewBox="0 0 32 32">
<title>matternet</title>
<path d="M25.639 5.573l-5.421 3.103v-6.241l-4.227-2.435-4.221 2.44v6.236l-5.396-3.116-4.232 2.44v4.885l5.401 3.115-5.405 3.124v4.876l4.22 2.441 5.392-3.117v6.241l4.228 2.435 4.232-2.441v-6.235l5.403 3.103 4.231-2.439v-4.861l-5.391-3.127 5.411-3.115v-4.885l-4.219-2.427zM26.136 10.145v-2.525l2.185 1.256v2.54l-2.181-1.271zM28.32 22.527l-8.1-4.672 2.2-1.26 5.899 3.405v2.528zM19.217 17.26l-2.2-1.26 8.603-4.968 2.188 1.259-8.595 4.969zM4.179 12.292l2.188-1.259 8.604 4.967-2.185 1.26zM11.765 17.852l-8.1 4.677v-2.529l5.913-3.407 2.188 1.26zM3.665 11.419v-2.539l2.187-1.26v2.531zM16.501 11.419v-9.352l2.188 1.249v6.831l-2.188 1.271zM13.299 10.139v-6.815l2.187-1.259v9.339zM25.12 7.62v2.531l-8.608 4.979v-2.54zM15.483 12.585v2.529l-8.612-4.969v-2.525l8.613 4.961zM12.279 21.269l-5.913 3.407-2.187-1.259 8.099-4.677zM13.299 18.145l2.187-1.26v9.937l-2.187 1.279zM18.173 28.965l-2.185 1.272-2.187-1.268 2.187-1.261 2.185 1.261zM18.699 28.089l-2.197-1.267v-9.921l2.197 1.259v9.944zM27.807 23.417l-2.188 1.259-5.9-3.407v-2.529l8.1 4.677z"></path>
</svg>
