<!-- Generated by IcoMoon.io -->
<svg version="1.1" xmlns="http://www.w3.org/2000/svg" width="32" height="32" viewBox="0 0 32 32">
<title>mattermost</title>
<path fill="#0072c6" d="M16.108 0c-6.711-0.045-12.989 4.167-15.259 10.871-2.833 8.368 1.653 17.448 10.021 20.28 8.368 2.833 17.448-1.653 20.28-10.021 2.303-6.8-0.229-14.069-5.748-18.076l0.168 3.396c2.753 3.043 3.84 7.349 2.469 11.399-2.045 6.043-8.792 9.22-15.067 7.095-6.277-2.124-9.707-8.745-7.66-14.789 1.375-4.061 4.873-6.828 8.925-7.56l2.189-2.587c-0.088-0.004-0.191-0.007-0.295-0.007-0.009 0-0.017 0-0.026 0h0.001zM20.812 1.459c-0.003-0-0.007-0-0.011-0-0.055 0-0.108 0.012-0.155 0.033l0.002-0.001-0.005 0.001c-0.056 0.023-0.105 0.055-0.145 0.095l0-0c-0.193 0.189-0.876 1.104-0.876 1.104l-1.488 1.843-1.733 2.113-2.976 3.701c0 0-1.365 1.704-1.064 3.801 0.301 2.099 1.861 3.12 3.072 3.531 1.209 0.409 3.069 0.544 4.584-0.939 1.513-1.483 1.464-3.667 1.464-3.667l-0.116-4.747-0.093-2.733-0.063-2.367c0 0 0.013-1.141-0.027-1.409-0.008-0.053-0.024-0.101-0.048-0.145l0.001 0.002-0.008-0.016-0.009-0.015c-0.062-0.108-0.175-0.181-0.305-0.187l-0.001-0z"></path>
</svg>
