<!-- Generated by IcoMoon.io -->
<svg version="1.1" xmlns="http://www.w3.org/2000/svg" width="32" height="32" viewBox="0 0 32 32">
<title>mediatemple</title>
<path d="M6.452 13.527v0.76h0.045c1.361-0.82 2.76-0.888 3.6-0.888 2.26 0 3.040 0.639 3.32 0.88 0.52-0.3 1.639-0.901 3.58-0.901 3.861 0 3.861 1.521 3.861 2.12v3.6h-3.099v-3.179c0-0.659 0-1.393-1.653-1.393-0.816 0-1.656 0.249-1.951 0.613-0.275 0.312-0.388 0.595-0.388 1.285v2.695h-3.1v-3.071c0-0.948 0.020-1.52-1.608-1.52-0.82 0-1.656 0.216-1.973 0.54-0.248 0.247-0.409 0.505-0.409 1.328v2.72h-3.117v-5.6h2.88zM28.36 14.765h-2.253v2.24c0 0.791 0 1.048 0.921 1.048 0.437 0 0.824-0.049 1.239-0.128l0.093-0.012 0.293 1.139c-1.089 0.2-2.281 0.221-2.621 0.221-1.013 0-2.323-0.148-2.807-0.567-0.412-0.34-0.461-0.675-0.461-1.521v-2.427h-1.527v-1.169h1.525v-1.103l3.36-0.867v1.972h2.261v1.169zM2.053 22.28c-1.233-1.863-2.053-4.080-2.053-6.308 0-2.632 1.033-4.772 2.081-6.279h1.248c-0.927 2.053-1.557 3.8-1.557 6.336 0 2.909 1.032 5.153 1.5 6.169 0.016 0 0.045 0.060 0.045 0.081zM29.945 9.72c1.235 1.864 2.055 4.080 2.055 6.308 0 2.628-1.035 4.773-2.081 6.279h-1.248c0.925-2.055 1.56-3.8 1.56-6.336 0-2.912-1.036-5.151-1.505-6.172-0.016-0.013-0.041-0.065-0.041-0.080z"></path>
</svg>
