<!-- Generated by IcoMoon.io -->
<svg version="1.1" xmlns="http://www.w3.org/2000/svg" width="32" height="32" viewBox="0 0 32 32">
<title>mediafire</title>
<path fill="#1299f3" d="M14.84 9.561c-0.661 0.56 3.924-0.611 3.467 1.652-0.443 2.177-4.827-0.457-9.631-0.235-2.125 0.097-4.072 0.707-5.313 2.224 1.297-1.477 3.868-1.125 3.197-0.108-1.563 2.368-4.501 0.663-6.56 5.3 0.247-0.533 0.913-1.595 3.791-2.035 2.115-0.323 5.619-0.021 6.739 1.729 1.232 1.925-5.012 1.707-1.556 2.097 4.791 0.541 8.399 4.413 13.084 4.415 6.067 0 9.896-3.099 9.943-8.195 0.084-9.231-12.135-11.091-17.16-6.845zM23.864 19.633c-1.593-0.044-3.205-0.683-4.485-1.307-3.153-1.54-4.451-2.071-4.451-2.144 0-0.089 1.893 0.645 5.084-1.052 1.844-0.98 1.909-1.836 3.853-2.007 2.307-0.203 3.949 1.507 3.949 3.304 0 1.799-1.629 3.271-3.951 3.205z"></path>
</svg>
