<!-- Generated by IcoMoon.io -->
<svg version="1.1" xmlns="http://www.w3.org/2000/svg" width="32" height="32" viewBox="0 0 32 32">
<title>meetup</title>
<path fill="#ed1c40" d="M9.307 0.74c-0.050 0-0.099 0.006-0.145 0.016l0.005-0.001c-0.383 0.083-0.627 0.458-0.544 0.841s0.459 0.627 0.841 0.544c0.323-0.072 0.56-0.355 0.56-0.694 0-0.053-0.006-0.105-0.017-0.154l0.001 0.005c-0.072-0.335-0.371-0.561-0.701-0.557zM17.914 1.591c-0.001 0-0.003 0-0.005 0-0.251 0-0.486 0.071-0.686 0.193l0.006-0.003c-0.626 0.376-0.832 1.186-0.456 1.813s1.189 0.829 1.815 0.453c0.626-0.376 0.829-1.187 0.453-1.813-0.234-0.386-0.651-0.641-1.127-0.643h-0zM13.875 4.573c-1.299 0.006-2.609 0.389-3.761 1.185-1.166 0.805-1.995 1.915-2.463 3.146-0.678 0.092-1.346 0.319-1.948 0.734-1.989 1.374-2.515 4.052-1.253 6.083-1.713 1.568-2.109 4.181-0.807 6.198 0.772 1.196 1.984 1.916 3.287 2.13 0.024 0.976 0.317 1.955 0.914 2.818 1.632 2.361 4.87 2.954 7.232 1.323 0.090-0.063 0.16-0.141 0.245-0.208 1.316 1.175 3.294 1.367 4.81 0.32 0.809-0.559 1.324-1.372 1.549-2.255 1.186 0.043 2.394-0.258 3.445-0.984 2.522-1.742 3.199-5.149 1.586-7.719 1.295-1.092 1.573-3.002 0.578-4.412-0.444-0.629-1.070-1.041-1.755-1.245 0.1-1.312-0.227-2.664-1.034-3.831-1.572-2.274-4.444-3.109-6.927-2.208-1.038-0.674-2.309-1.075-3.672-1.075-0.009 0-0.018 0-0.027 0h0.001zM6.404 5.661c-0.212 0.002-0.407 0.069-0.568 0.182l0.003-0.002c-0.46 0.318-0.576 0.946-0.258 1.406s0.949 0.576 1.409 0.258c0.266-0.185 0.437-0.488 0.437-0.832 0-0.215-0.067-0.414-0.182-0.578l0.002 0.003c-0.185-0.266-0.489-0.438-0.833-0.438-0.004 0-0.008 0-0.012 0h0.001zM27.729 8.823c-0.235 0.003-0.452 0.078-0.631 0.203l0.004-0.002c-0.296 0.206-0.486 0.544-0.486 0.927 0 0.622 0.505 1.127 1.127 1.127s1.127-0.505 1.127-1.127c0-0.24-0.075-0.462-0.202-0.645l0.002 0.004c-0.206-0.296-0.545-0.487-0.928-0.487-0.004 0-0.009 0-0.013 0h0.001zM16.862 10.193c0.084 0.001 0.166 0.007 0.242 0.018 0.305 0.045 0.487 0.159 0.602 0.25 0.224 0.179 0.363 0.322 0.575 0.523 0.319 0.303 0.551 0.119 0.711 0.026 0.277-0.161 0.492-0.291 1.313-0.276 0.844 0.015 1.817 0.315 2.018 1.755 0.224 1.599-2.621 5.719-2.422 7.63 0.141 1.347 2.419 0.398 2.612 1.628 0.25 1.596-2.847 1.003-3.555 0.656-1.109-0.544-1.783-1.787-1.495-3.013 0.215-0.918 2.267-4.664 2.344-5.24 0.078-0.587-0.236-0.636-0.432-0.646-0.253-0.013-0.453 0.108-0.701 0.482-0.226 0.341-2.776 5.447-2.997 5.865-0.396 0.746-0.893 0.925-1.393 0.898-0.73-0.038-1.064-0.427-0.958-1.13 0.062-0.413 1.679-4.065 1.763-4.635 0.052-0.352-0.018-0.727-0.367-0.906s-0.762 0.094-0.885 0.302c-0.171 0.287-2.464 6.275-2.708 6.719-0.422 0.768-0.868 1.013-1.536 1.044-1.582 0.075-2.754-1.225-2.237-2.82 0.231-0.71 1.755-6.095 2.526-7.466 0.518-0.921 1.957-1.622 2.956-1.19 0.517 0.224 1.234 0.584 1.445 0.677 0.488 0.216 1.013-0.37 1.219-0.549s0.402-0.369 0.654-0.477c0.188-0.081 0.457-0.126 0.709-0.125zM31.37 12.935c-0.045 0.001-0.088 0.007-0.129 0.016l0.004-0.001c-0.284 0.062-0.493 0.311-0.493 0.609 0 0.046 0.005 0.091 0.015 0.135l-0.001-0.004c0.063 0.284 0.313 0.493 0.612 0.493 0.046 0 0.091-0.005 0.135-0.014l-0.004 0.001c0.336-0.073 0.552-0.406 0.479-0.742-0.064-0.284-0.313-0.492-0.612-0.492-0.002 0-0.004 0-0.006 0h0zM1.344 14.015c-0.004-0-0.008-0-0.012-0-0.454 0-0.854 0.227-1.094 0.574l-0.003 0.004c-0.416 0.607-0.264 1.438 0.344 1.854s1.438 0.261 1.854-0.346 0.264-1.435-0.344-1.852c-0.208-0.145-0.466-0.232-0.744-0.234h-0.001zM29.737 16.807c-0.060 0-0.119 0.007-0.175 0.019l0.006-0.001c-0.38 0.084-0.66 0.418-0.66 0.817 0 0.063 0.007 0.124 0.020 0.183l-0.001-0.006c0.084 0.381 0.418 0.662 0.819 0.662 0.062 0 0.123-0.007 0.182-0.020l-0.006 0.001c0.452-0.098 0.741-0.543 0.643-0.995-0.085-0.381-0.42-0.662-0.82-0.662-0.003 0-0.005 0-0.008 0h0zM5.417 24.937c-0.044 0.001-0.086 0.007-0.127 0.016l0.004-0.001c-0.334 0.072-0.549 0.402-0.477 0.737s0.403 0.546 0.737 0.474c0.281-0.062 0.488-0.31 0.488-0.605 0-0.047-0.005-0.092-0.015-0.136l0.001 0.004c-0.062-0.282-0.31-0.49-0.607-0.49-0.002 0-0.004 0-0.006 0h0zM23.651 27.005c-0.292 0.003-0.561 0.095-0.783 0.25l0.005-0.003c-0.634 0.438-0.793 1.308-0.354 1.943s1.308 0.792 1.943 0.354c0.634-0.438 0.793-1.309 0.354-1.943-0.255-0.366-0.673-0.602-1.146-0.602-0.006 0-0.012 0-0.019 0h0.001zM15.2 29.539c-0.18 0.002-0.345 0.059-0.482 0.155l0.003-0.002c-0.226 0.157-0.372 0.416-0.372 0.708 0 0.183 0.057 0.353 0.155 0.493l-0.002-0.003c0.157 0.226 0.416 0.371 0.708 0.371 0.183 0 0.353-0.057 0.492-0.155l-0.003 0.002c0.226-0.157 0.372-0.416 0.372-0.708 0-0.183-0.057-0.353-0.155-0.492l0.002 0.003c-0.157-0.226-0.416-0.372-0.709-0.372-0.003 0-0.007 0-0.010 0h0.001z"></path>
</svg>
