<!-- Generated by IcoMoon.io -->
<svg version="1.1" xmlns="http://www.w3.org/2000/svg" width="32" height="32" viewBox="0 0 32 32">
<title>mendeley</title>
<path fill="#9d1620" d="M15.964 12.255h0.025c1.729 0.002 3.129 1.403 3.129 3.132 0 0.966-0.437 1.829-1.124 2.404l-0.005 0.004c-0.307 0.291-0.693 0.502-1.123 0.598l-0.016 0.003c-0.258 0.077-0.555 0.122-0.862 0.123h-0.026c-0.299 0-0.588-0.044-0.863-0.123-0.445-0.1-0.831-0.311-1.14-0.602l0.001 0.001c-0.694-0.576-1.132-1.439-1.132-2.405 0-0.001 0-0.002 0-0.004v0c0.002-1.73 1.405-3.131 3.135-3.132h0zM2.7 24.855c1.683 0.211 3.176-1.013 3.335-2.736 0.008-0.086 0.013-0.186 0.013-0.287 0-0.492-0.109-0.959-0.305-1.377l0.008 0.020c-2.357-5.172 9.273-5.291 7.308-0.409l-0.013 0.021c-0.929 1.487-0.425 3.417 1.119 4.309 0.568 0.331 1.197 0.467 1.812 0.44 0.615 0.027 1.244-0.109 1.812-0.44 1.544-0.893 2.048-2.823 1.119-4.309l-0.013-0.021c-1.965-4.881 9.667-4.763 7.307 0.409-0.187 0.398-0.296 0.864-0.296 1.355 0 0.102 0.005 0.203 0.014 0.302l-0.001-0.013c0.16 1.723 1.652 2.947 3.336 2.736 0.755-0.1 1.411-0.457 1.893-0.978l0.002-0.002c0 0 0.783-0.649 0.771-2.305-0.011-1.351-0.771-2.099-0.771-2.099-0.534-0.541-1.275-0.876-2.094-0.876-0.112 0-0.223 0.006-0.332 0.019l0.013-0.001c-2.159-0.048-2.479-1.739-1.869-4.925 0.224-0.565 0.321-1.171 0.301-1.776 0.002-0.051 0.003-0.111 0.003-0.172 0-1.894-1.159-3.518-2.806-4.2l-0.030-0.011c-0.052-0.023-0.104-0.040-0.157-0.061-0.044-0.019-0.104-0.040-0.164-0.058l-0.014-0.004c-0.433-0.151-0.932-0.238-1.451-0.238-1.631 0-3.062 0.86-3.863 2.151l-0.011 0.019c-1.087 1.193-1.579 1.917-2.696 1.917-1.063 0-1.611-0.724-2.696-1.917-0.811-1.313-2.242-2.174-3.874-2.174-0.586 0-1.145 0.111-1.659 0.313l0.031-0.011c-0.053 0.021-0.105 0.039-0.159 0.061-1.677 0.693-2.835 2.316-2.835 4.21 0 0.061 0.001 0.121 0.004 0.182l-0-0.009c-0.021 0.605 0.077 1.211 0.3 1.776 0.609 3.188 0.289 4.877-1.868 4.925-1.057-0.113-1.847 0.323-2.644 1.121-0.8 0.797-0.733 2.933 0 3.865 0.532 0.679 1.253 1.148 2.125 1.257z"></path>
</svg>
