<!-- Generated by IcoMoon.io -->
<svg version="1.1" xmlns="http://www.w3.org/2000/svg" width="32" height="32" viewBox="0 0 32 32">
<title>meteor</title>
<path fill="#de4f4f" d="M0 0.312l29.216 27.383c0 0 0.549 0.767-0.165 1.535-0.713 0.768-1.648 0.111-1.648 0.111zM8.677 3.056l22.68 20.851c0 0 0.551 0.768-0.164 1.536-0.712 0.768-1.647 0.111-1.647 0.111zM2.581 8.928l22.68 20.851c0 0 0.549 0.768-0.164 1.536s-1.647 0.109-1.647 0.109zM16.012 5.415l15.848 14.569c0 0 0.383 0.535-0.116 1.073s-1.151 0.077-1.151 0.077zM4.589 15.731l15.848 14.568c0 0 0.38 0.533-0.117 1.071-0.5 0.537-1.151 0.079-1.151 0.079zM23.505 8.817l7.235 6.607c0 0 0.189 0.251-0.059 0.503-0.247 0.251-0.571 0.036-0.571 0.036l-6.605-7.144zM8.237 22.975l7.233 6.608c0 0 0.192 0.251-0.056 0.503s-0.569 0.035-0.569 0.035z"></path>
</svg>
