<!-- Generated by IcoMoon.io -->
<svg version="1.1" xmlns="http://www.w3.org/2000/svg" width="32" height="32" viewBox="0 0 32 32">
<title>microsoftteams</title>
<path fill="#6264a7" d="M12.339 7.461h3.152c0.813 0 1.471 0.659 1.471 1.472v2.109c2.536-0.049 4.573-2.117 4.573-4.66 0-2.574-2.087-4.661-4.661-4.661s-4.661 2.087-4.661 4.661c0 0.383 0.046 0.755 0.133 1.111l-0.007-0.032zM27.069 11.045h0.003c0.001 0 0.002 0 0.003 0 1.77 0 3.205-1.435 3.205-3.205s-1.434-3.204-3.203-3.205h-0c-0.001 0-0.003 0-0.004 0-1.77 0-3.205 1.435-3.205 3.205 0 1.769 1.433 3.203 3.201 3.205h0zM16.291 23.089v-13.596c0-0.751-0.608-1.36-1.359-1.361h-13.599c-0.75 0.002-1.357 0.61-1.357 1.36v13.599c0.001 0.75 0.609 1.358 1.359 1.359h13.6c0.749-0.002 1.356-0.61 1.356-1.36 0 0 0 0 0 0v0zM11.635 13.103h-2.661v7.591h-1.693v-7.592h-2.648v-1.473h7.003zM30.684 12.795h-13.721v10.853c0 0.813-0.66 1.472-1.472 1.472h-5.624c1.231 3.046 4.163 5.156 7.589 5.156 1.082 0 2.115-0.211 3.061-0.593l-0.055 0.020c1.921-0.775 3.444-2.2 4.325-3.997l0.021-0.048c0.651 0.34 1.422 0.54 2.239 0.54 0.002 0 0.004 0 0.007 0h0.036c2.725 0 4.935-2.209 4.935-4.935v0-7.128c0-0.74-0.6-1.34-1.34-1.34z"></path>
</svg>
