<!-- Generated by IcoMoon.io -->
<svg version="1.1" xmlns="http://www.w3.org/2000/svg" width="32" height="32" viewBox="0 0 32 32">
<title>micro-dot-blog</title>
<path fill="#fd8308" d="M28.533 23.6c-2.667 3.467-1.333 6.4-0.4 7.867 0.4 0.533-0.133 0.533-0.4 0.533-2.258-0.421-4.147-1.742-5.314-3.568l-0.019-0.032c-0.267-0.133-0.4-0.267-0.667-0.133-1.867 0.533-3.733 0.933-5.733 0.8-8.8 0-16-6.4-16-14.4s7.2-14.667 16-14.667 16 6.533 16 14.667c0 3.333-1.333 6.4-3.467 8.933zM16 18.667l4.267 2.933c0.078 0.047 0.172 0.075 0.272 0.075 0.295 0 0.533-0.239 0.533-0.533 0-0.026-0.002-0.052-0.006-0.077l0 0.003-1.6-5.067 4.133-3.2c0.056-0.083 0.090-0.186 0.090-0.297 0-0.231-0.147-0.428-0.353-0.502l-0.004-0.001h-5.2l-1.733-5.067c-0.098-0.111-0.241-0.181-0.4-0.181s-0.302 0.070-0.399 0.18l-0.001 0.001-1.733 5.067h-5.333c-0.208 0.076-0.353 0.272-0.353 0.502 0 0.177 0.086 0.333 0.218 0.43l0.002 0.001 4 3.2-1.333 4.933c-0 0.005-0 0.011-0 0.017 0 0.295 0.239 0.533 0.533 0.533 0.047 0 0.094-0.006 0.137-0.018l-0.004 0.001z"></path>
</svg>
