<!-- Generated by IcoMoon.io -->
<svg version="1.1" xmlns="http://www.w3.org/2000/svg" width="32" height="32" viewBox="0 0 32 32">
<title>microgenetics</title>
<path fill="#f00" d="M16.011 8c3.46 0 5.747 1.684 7.444 3.635l0.331 0.391c0.109 0.135 0.219 0.267 0.323 0.4 0.579 0.759 1.079 1.528 1.56 2.232 0.32 0.475 0.62 0.924 0.919 1.344l0.303 0.427c0.099 0.14 0.197 0.281 0.32 0.413 1.237 1.561 2.519 2.533 4.377 2.655 0.26-1.127 0.401-2.295 0.401-3.495s-0.14-2.368-0.401-3.495c-1.86 0.121-3.14 1.092-4.401 2.655-0.24-0.328-0.476-0.68-0.74-1.061-0.5-0.755-1.079-1.611-1.76-2.46 1.341-1.559 3-2.9 5.243-3.409-2.657-4.911-7.897-8.231-13.917-8.231-6 0-11.253 3.32-13.987 8.231 2.241 0.512 3.897 1.851 5.241 3.408 0.115 0.12 0.224 0.24 0.332 0.38l0.316 0.4c0.639 0.82 1.219 1.66 1.74 2.46l0.74 1.101 0.32 0.439c0.099 0.139 0.22 0.28 0.319 0.42 1.401 1.919 2.82 3.24 5 3.24 2.2 0 3.601-1.32 5.020-3.24l0.5 0.74c0.601 0.88 1.243 1.84 1.94 2.74-1.697 1.961-4 3.64-7.46 3.64-3.459 0-5.739-1.7-7.439-3.64l-0.64-0.8c-0.58-0.76-1.080-1.539-1.56-2.24-0.319-0.48-0.62-0.92-0.919-1.341l-0.301-0.44c-0.099-0.139-0.199-0.28-0.32-0.419-1.301-1.479-2.583-2.459-4.441-2.579-0.26 1.132-0.4 2.3-0.4 3.5s0.136 2.368 0.387 3.495c1.864-0.121 3.14-1.092 4.393-2.655 0.229 0.328 0.472 0.68 0.725 1.061 0.5 0.755 1.075 1.611 1.751 2.46-1.345 1.559-3.004 2.9-5.24 3.409 2.727 4.909 7.964 8.229 13.983 8.229 6.020 0 11.255-3.32 13.987-8.231-2.24-0.512-3.896-1.851-5.24-3.408-0.115-0.12-0.227-0.24-0.333-0.38l-0.315-0.4c-0.64-0.82-1.221-1.66-1.74-2.46l-0.739-1.121c-0.099-0.148-0.205-0.3-0.307-0.44-0.104-0.148-0.205-0.292-0.309-0.433-1.401-1.92-2.8-3.241-5-3.241s-3.599 1.32-5 3.241l-0.5-0.747c-0.581-0.892-1.221-1.84-1.941-2.745 1.697-1.951 3.937-3.635 7.437-3.635z"></path>
</svg>
