<!-- Generated by IcoMoon.io -->
<svg version="1.1" xmlns="http://www.w3.org/2000/svg" width="32" height="32" viewBox="0 0 32 32">
<title>minds</title>
<path fill="#fed12f" d="M20.66 24.507c0.019-0.008 0.034-0.024 0.040-0.044l0-0 0.924-2.956 4.256-6.387c0.001-0.002 0.003-0.003 0.004-0.005l0-0c0-0.001 0.001-0.001 0.001-0.002l0-0c0-0.001 0.001-0.001 0.001-0.002l0-0c0.001-0.002 0.002-0.004 0.003-0.006l0-0.001c0-0.001 0-0.001 0-0.002s0-0.001-0-0.002v0c0.001-0.001 0.002-0.002 0.003-0.004l0-0c0-0.001 0-0.002 0-0.003s-0-0.002-0-0.003v0c0-0.001 0-0.002 0-0.003s-0-0.002-0-0.004v0c0-0.001 0-0.001 0-0.002s0-0.001-0-0.002v0c0-0.001 0-0.001 0-0.002s0-0.001-0-0.002v0l-0.555-9.261c0-0 0-0 0-0.001s0-0 0-0.001v0c-0-0.003-0.001-0.005-0.001-0.007l0 0c0-0 0-0.001 0-0.001s0-0.001 0-0.001v0c-0.001-0.004-0.003-0.008-0.004-0.011l0 0c-0.001-0.003-0.002-0.005-0.003-0.007l0 0c-0.001-0.002-0.002-0.004-0.003-0.006l0 0c-0.001-0.003-0.003-0.005-0.004-0.007l0 0c-0.001-0.001-0.003-0.003-0.004-0.004l-0-0c0-0 0-0 0-0.001s0-0 0-0.001v0l-5.563-5.747c-0.002-0.001-0.003-0.003-0.005-0.004l-0-0c-0.001-0.001-0.002-0.002-0.004-0.003l-0-0c-0.001-0.001-0.002-0.002-0.004-0.003l-0-0c-0-0-0.001-0.001-0.002-0.001l-0-0c-0-0-0.001-0.001-0.002-0.001l-0-0c-0-0-0.001-0.001-0.002-0.001l-0-0c-0 0-0 0-0.001 0s-0 0-0.001 0h0c0-0 0-0 0-0.001s0-0 0-0.001v0c-0 0-0.001 0-0.001 0s-0.001 0-0.001 0h0c-0-0-0.001-0.001-0.002-0.001l-0-0c-0 0-0 0-0.001 0s-0 0-0.001 0h0c-0.002-0.001-0.004-0.002-0.006-0.003l-0-0c-0.001-0-0.002-0-0.003-0s-0.002 0-0.003 0h0c-0 0-0.001 0-0.001 0s-0.001 0-0.001 0h0c-0 0-0 0-0.001 0s-0 0-0.001 0h0c-0 0-0 0-0.001 0s-0 0-0.001 0h0c-0.001-0-0.001-0-0.002-0s-0.001 0-0.002 0h0c-0 0-0 0-0.001 0s-0 0-0.001 0h0c-0 0-0 0-0.001 0s-0 0-0.001 0h-7.409c-0.001-0-0.001-0-0.002-0s-0.001 0-0.002 0h0c-0.001-0-0.002-0-0.003-0s-0.002 0-0.003 0h0c-0.001-0-0.002-0-0.003-0s-0.002 0-0.003 0h0c-0.002 0.001-0.003 0.001-0.004 0.002l0-0c-0.002 0.001-0.003 0.001-0.004 0.001l0-0c-0.003 0.001-0.005 0.002-0.007 0.003l0-0c-0.002 0.001-0.004 0.003-0.005 0.004l0-0c-0.002 0.001-0.004 0.002-0.006 0.003l0-0c-0 0-0 0-0.001 0s-0 0-0.001 0h0c-0.001 0.002-0.003 0.003-0.004 0.005l-0 0c-0 0-0 0-0.001 0s-0 0-0.001 0h0c-0.001 0.001-0.003 0.003-0.004 0.004l-0 0-5.56 5.747c-0.001 0.002-0.003 0.003-0.004 0.005l-0 0c-0.003 0.003-0.006 0.007-0.008 0.012l-0 0c-0.001 0.002-0.002 0.004-0.003 0.006l-0 0c-0.001 0.003-0.002 0.007-0.003 0.010l-0 0c0 0 0 0.001 0 0.001s0 0.001 0 0.001v-0c-0 0.001-0.001 0.002-0.001 0.003l-0 0c-0 0.001-0 0.001-0 0.002s0 0.001 0 0.002v-0l-0.556 9.267c0 0 0 0 0 0.001s0 0 0 0.001v-0c0 0 0 0 0 0.001s0 0 0 0.001v-0c-0 0.001-0 0.002-0 0.003s0 0.002 0 0.003v-0c-0 0.001-0 0.002-0 0.003s0 0.002 0 0.003v-0c0 0 0 0.001 0 0.001s0 0.001 0 0.001v-0c-0 0.001-0 0.002-0 0.003s0 0.002 0 0.004v-0c0 0 0 0 0.001 0s0 0 0.001 0h-0c-0 0.001-0 0.001-0 0.002s0 0.001 0 0.002v-0c0.001 0.001 0.001 0.002 0.002 0.003l-0-0c0.001 0.001 0.001 0.002 0.002 0.003l-0-0c0.001 0.001 0.001 0.002 0.002 0.003l-0-0c0 0 0.001 0.001 0.001 0.001v0c0.001 0.002 0.002 0.003 0.003 0.004l-0-0c0.001 0.002 0.001 0.003 0.002 0.004l-0-0 4.259 6.387 0.923 2.952v0.003c0 0 0 0 0 0.001s0 0 0 0.001v-0c0.001 0.001 0.001 0.002 0.002 0.003l-0-0c0.001 0.002 0.002 0.003 0.003 0.004l-0-0c0 0 0 0 0 0.001s0 0 0 0.001v-0c0.001 0.001 0.001 0.002 0.002 0.003l-0-0c0 0 0 0 0 0.001s0 0 0 0.001v-0c0.001 0 0.001 0.001 0.002 0.001l0 0c0.001 0.002 0.001 0.003 0.002 0.004l-0-0c0 0 0.001 0.001 0.001 0.001v0c0 0 0.001 0.001 0.001 0.001v0c0.001 0.001 0.002 0.002 0.003 0.003l0 0c0.001 0.002 0.003 0.004 0.004 0.005l-0-0c0.001 0 0.001 0.001 0.002 0.001l0 0c0.001 0.001 0.002 0.002 0.003 0.003l0 0c0 0 0 0 0.001 0s0 0 0.001 0h-0c0.001 0.001 0.003 0.003 0.004 0.004l0 0c0 0 0 0 0.001 0s0 0 0.001 0h-0c0.001 0 0.001 0.001 0.002 0.001l0 0c0.001 0.001 0.002 0.002 0.003 0.003l0 0c0 0 0 0 0.001 0s0 0 0.001 0h-0c0 0 0 0 0.001 0s0 0 0.001 0h-0c0 0 0.001 0.001 0.001 0.001v0c0 0 0.001 0 0.001 0s0.001 0 0.001 0h-0c0 0 0.001 0.001 0.001 0.001v0c0 0 0 0 0.001 0s0 0 0.001 0h-0c0.001 0 0.002 0.001 0.004 0.001l0.001 0c0 0 0.001 0 0.001 0s0.001 0 0.001 0h-0c0 0 0 0 0 0.001s0 0 0 0.001v-0c0.001 0 0.001 0 0.002 0s0.001 0 0.002-0h-0c0 0 0.001 0 0.001 0s0.001 0 0.001 0h-0c0.001 0 0.002 0.001 0.004 0.001l0.001 0c0 0 0 0 0.001 0s0 0 0.001 0h-0c0 0 0.001 0 0.001 0s0.001 0 0.001 0h9.269c0.009-0.002 0.017-0.005 0.024-0.009l-0 0zM20.583 24.373h-8.729l9.601-2.793zM21.407 21.449l-9.913 2.883 3.604-7.569zM21.497 21.343l-6.311-4.688 6.852-5.499zM21.644 21.227l0.533-10.053 3.557 3.915zM11.379 24.253l-0.861-2.759 4.308-4.48zM10.449 21.365l-4.125-6.187 8.608 1.524zM25.743 14.889l-3.54-3.893 3.008-4.956zM15.111 16.537l-2.711-9.492 9.583 3.977zM14.975 16.569l-8.676-1.536 5.965-7.953zM22.020 10.889l-9.6-3.987 7.244-6.7zM22.147 10.82l-2.32-10.528 5.353 5.532zM6.259 14.853l0.537-8.957 5.373 1.075zM12.223 6.84l-5.352-1.071 5.352-5.529zM12.361 6.765v-6.628h7.168zM11.365 24.575v5.524l2.228-1.871zM11.441 30.217l4.451 1.78-2.227-3.649zM16.108 31.997l4.451-1.78-2.227-1.869zM20.633 30.099v-5.524l-2.227 3.653zM11.489 24.511l4.511 7.396 4.509-7.396z"></path>
</svg>
