<!-- Generated by IcoMoon.io -->
<svg version="1.1" xmlns="http://www.w3.org/2000/svg" width="32" height="32" viewBox="0 0 32 32">
<title>minetest</title>
<path fill="#53ac56" d="M31.587 16.581l-0.541 0.32-3.080 1.807v0.744l-1.449 0.889v1.48l-1.449 0.885v3.809l6.52-3.829v-5.392zM30.863 17.861v4.397l-5.071 2.979v-2.111l1.449-0.888v-1.48l1.448-0.888v-0.735zM25.836 7.389l-1.504 1.056v6.328l1.524 0.876 1.373-0.804v-6.643zM25.871 8.261l0.633 0.371v5.785l-0.653 0.381-0.796-0.459v-5.507zM8.287 0l-5.653 3.321v6.052l4.057 2.384v2.94l0.179 0.107 1.415 0.849 1.595-0.956v-2.943l3.549-2.087v-6.565zM8.283 0.857l4.421 2.667v5.716l-4.42 2.597-4.924-2.893v-5.195zM9.155 12.18v2.093l-0.871 0.52-0.868-0.52v-2.093l0.868 0.511zM21.084 14.945l-10.507 6.053v1.912l1.159 0.667v1.476l4.277 2.508 9.053-5.469v-1.555l1.449-0.888v-1.533zM21.081 15.796l4.711 2.748v0.687l-1.448 0.887v1.552l-8.335 5.036-3.547-2.080v-1.48l-1.16-0.667v-1.047zM17.108 3.756c-0.003-0-0.007-0-0.011-0-0.067 0-0.129 0.019-0.181 0.052l0.001-0.001-3.488 2.057v0.853l3.671-2.165 4.705 2.756-5.756 3.377c-0.11 0.066-0.182 0.185-0.182 0.32s0.072 0.253 0.179 0.319l0.002 0.001 4.307 2.56-9.411 5.425-9.423-5.567 4.269-2.52-0.725-0.427-4.449 2.627c-0.109 0.066-0.181 0.185-0.181 0.32s0.072 0.254 0.179 0.319l0.002 0.001 10.144 5.992c0.111 0.065 0.247 0.067 0.36 0l10.141-5.843c0.112-0.066 0.185-0.186 0.185-0.323 0-0.135-0.072-0.254-0.18-0.319l-0.002-0.001-4.313-2.563 5.76-3.38c0.109-0.066 0.181-0.185 0.181-0.32s-0.072-0.254-0.179-0.319l-0.002-0.001-5.432-3.184c-0.050-0.027-0.108-0.044-0.171-0.048l-0.001-0zM22.895 7.313c-0 0.134-0.072 0.251-0.18 0.315l-0.002 0.001-0.543 0.32v0.624l-4.687 2.749 0.723 0.429 4.507-2.644c0.109-0.066 0.181-0.184 0.181-0.319 0-0 0-0 0-0.001v0zM4.057 18.207v1.467l-1.448-0.887v5.304l8.549 5.093v-2.336l-1.232-0.74v-1.481l-1.521-0.888v-2.957zM4.783 19.491l2.897 1.715v2.96l1.521 0.889v1.479l1.233 0.739v0.623l-7.101-4.228v-3.575l1.449 0.888v-0.653zM15.84 4.44l-2.412 1.42v0.004zM5.053 10.793l-4.641 2.736v9.305l15.575 9.165 15.575-9.389v-8.933l-4.333-2.545v0.853l3.609 2.12v8.083l-14.855 8.955-14.849-8.736v-8.036l-0.519-0.307c-0.109-0.066-0.181-0.185-0.181-0.32s0.072-0.254 0.179-0.319l0.002-0.001zM31.587 16.58l-0.541 0.32-3.080 1.808v0.744l-1.449 0.888v1.48l-1.449 0.887v3.809l6.52-3.829v-5.392zM30.863 17.86v4.4l-5.071 2.977v-2.112l1.448-0.887v-1.48l1.449-0.888v-0.735zM25.836 7.389l-1.505 1.056v6.328l0.187 0.107 1.337 0.769 1.375-0.804v-6.643zM25.869 8.261l0.635 0.371v5.784l-0.653 0.383-0.796-0.459v-5.507zM8.288 0l-5.653 3.321v6.052l0.181 0.107 3.877 2.276v2.94l0.179 0.107 1.413 0.849 1.596-0.956v-2.943l3.549-2.085v-6.565zM8.284 0.857l4.421 2.667v5.716l-4.42 2.597-4.925-2.893v-5.195zM9.156 12.18v2.093l-0.871 0.52-0.868-0.52v-2.093l0.868 0.511zM21.085 14.945l-10.507 6.053v1.912l1.159 0.667v1.476l4.277 2.508 9.053-5.469v-1.555l1.449-0.888v-1.533zM21.083 15.796l4.711 2.748v0.687l-1.449 0.887v1.552l-8.333 5.036-3.548-2.080v-1.48l-1.16-0.667v-1.048zM17.109 3.756c-0.003-0-0.007-0-0.011-0-0.067 0-0.129 0.019-0.181 0.052l0.001-0.001-3.488 2.057v0.853l3.671-2.165 4.705 2.756-5.757 3.377c-0.109 0.066-0.181 0.185-0.181 0.32s0.072 0.254 0.179 0.319l0.002 0.001 4.307 2.56-9.412 5.424-9.423-5.565 4.271-2.52-0.725-0.427-4.449 2.627c-0.109 0.066-0.181 0.185-0.181 0.32s0.072 0.254 0.179 0.319l0.002 0.001 10.143 5.989c0.112 0.067 0.248 0.067 0.36 0.001l10.143-5.843c0.112-0.066 0.185-0.186 0.185-0.323 0-0.135-0.072-0.254-0.18-0.319l-0.002-0.001-4.313-2.563 5.76-3.38c0.11-0.066 0.182-0.185 0.182-0.321s-0.072-0.254-0.18-0.32l-0.002-0.001-5.433-3.18c-0.049-0.027-0.108-0.045-0.169-0.049l-0.001-0zM22.896 7.313c-0.001 0.134-0.073 0.25-0.18 0.314l-0.002 0.001-0.543 0.32v0.627l-4.687 2.748 0.723 0.429 4.507-2.644c0.109-0.066 0.181-0.184 0.181-0.319 0-0 0-0 0-0.001v0zM22.896 8.604v0.183c0 0.133-0.069 0.255-0.181 0.32l-0.208 0.123 1.827 1.067v-0.853zM27.232 11.133v0.853l3.633 2.12v0.683l-2.645 1.593-2.352 1.373-4.421-2.599v-1.267c0-0.131-0.067-0.253-0.18-0.32l-3.060-1.817-0.724 0.425 3.24 1.925v1.267c0 0.133 0.069 0.256 0.183 0.323l4.781 2.809c0.111 0.067 0.248 0.067 0.36 0.001l2.535-1.48h0.005l2.279-1.373v1.203l0.001 0.035c0.003 0.027 0.009 0.051 0.015 0.072 0.004 0.009 0.009 0.027 0.015 0.036 0.007 0.009 0.009 0.020 0.016 0.035l0.019 0.031c0.031 0.040 0.064 0.073 0.105 0.1l0.029 0.020 0.035 0.015c0.010 0.005 0.022 0.008 0.034 0.009l0 0c0.028 0.008 0.059 0.012 0.092 0.012 0.044 0 0.085-0.008 0.124-0.022l-0.002 0.001 0.035-0.015c0.020-0.009 0.045-0.025 0.063-0.036 0.009-0.009 0.020-0.013 0.029-0.025 0.009-0.009 0.015-0.020 0.024-0.024l0.025-0.031c0.005-0.009 0.015-0.020 0.020-0.031 0.013-0.019 0.024-0.041 0.029-0.065l0-0.001c0.004-0.011 0.005-0.027 0.009-0.036l0.005-0.036c0.001-0.009 0.001-0.019 0.001-0.030 0-0.002 0-0.004-0-0.005v0-2.963c0-0.133-0.068-0.256-0.181-0.323zM4.059 18.207v1.467l-1.448-0.887v5.304l8.549 5.092v-2.335l-1.233-0.74v-1.483l-1.52-0.888v-2.957zM4.784 19.491l2.897 1.715v2.96l1.52 0.889v1.476l1.233 0.74v0.623l-7.1-4.227v-3.575l1.449 0.888v-0.653zM15.84 4.44l-2.411 1.42v0.004zM5.056 10.793l-4.645 2.736v9.304l15.579 9.167 15.575-9.391v-8.932l-4.333-2.545v0.853l3.609 2.12v8.083l-14.855 8.955-14.849-8.736v-8.037l-0.519-0.307c-0.109-0.066-0.181-0.185-0.181-0.32s0.072-0.254 0.179-0.319l0.002-0.001z"></path>
</svg>
