<!-- Generated by IcoMoon.io -->
<svg version="1.1" xmlns="http://www.w3.org/2000/svg" width="32" height="32" viewBox="0 0 32 32">
<title>minutemailer</title>
<path fill="#3abfe6" d="M7.419 3.604l4.6 4.979-3.245 6.397 6.853-1.228 3.12 7.528 13.253-17.379zM6.571 14.388l1.276-1.049-1.645 0.52-0.168-0.24 0.68-0.66-0.892 0.36c-3.404 1.32-5.821 4.621-5.821 8.481 0 2.601 1.096 4.94 2.844 6.596-0.751-1.32-1.18-2.845-1.18-4.473 0-3.82 2.412-7.22 5.753-8.56l0.42-1.021-1 0.441-0.281-0.38zM12.389 11.761l2.131-3.761 12.531-2.935z"></path>
</svg>
