<!-- Generated by IcoMoon.io -->
<svg version="1.1" xmlns="http://www.w3.org/2000/svg" width="32" height="32" viewBox="0 0 32 32">
<title>mix</title>
<path fill="#ff8126" d="M6.4 8.133v20.2c0 1.8-1.4 3.133-3.2 3.133s-3.2-1.4-3.2-3.133v-28.333h32v17.8c0 1.733-1.467 3.133-3.2 3.133-1.8 0-3.267-1.4-3.267-3.133v-1.6c0-1.8-1.4-3.133-3.2-3.133-1.516 0-2.828 1.071-3.133 2.5v5.1c0 1.8-1.467 3.133-3.2 3.133-1.8 0-3.2-1.4-3.2-3.133v-12.333c0-1.733-1.467-3.133-3.2-3.133-0.003 0-0.007-0-0.011-0-1.673 0-3.047 1.285-3.188 2.921l-0.001 0.012z"></path>
</svg>
