<!-- Generated by IcoMoon.io -->
<svg version="1.1" xmlns="http://www.w3.org/2000/svg" width="32" height="32" viewBox="0 0 32 32">
<title>mixcloud</title>
<path fill="#314359" d="M29.267 25.416c-0.205 0-0.413-0.060-0.593-0.18-0.492-0.333-0.62-1-0.3-1.48 0.984-1.459 1.5-3.175 1.5-4.959s-0.516-3.5-1.5-4.961c-0.332-0.491-0.193-1.155 0.288-1.475 0.5-0.332 1.16-0.195 1.477 0.285 1.223 1.82 1.861 3.96 1.861 6.16 0 2.197-0.639 4.339-1.861 6.159-0.18 0.319-0.52 0.479-0.86 0.479zM26.213 23.691c-0.204 0-0.411-0.060-0.593-0.185-0.492-0.319-0.617-0.979-0.287-1.459 0.652-0.961 0.996-2.060 0.996-3.24 0-1.14-0.344-2.26-0.996-3.241-0.331-0.48-0.205-1.139 0.287-1.46s1.143-0.2 1.475 0.3c0.892 1.32 1.361 2.86 1.361 4.419 0 1.601-0.469 3.12-1.361 4.42-0.195 0.32-0.541 0.48-0.881 0.48zM21.24 14.153c-0.419-4.263-4.021-7.599-8.4-7.599-3.628 0-6.84 2.331-7.993 5.711-2.729 0.403-4.847 2.76-4.847 5.601 0 3.125 2.549 5.672 5.68 5.672h14.544c2.619 0 4.755-2.125 4.755-4.743 0-2.275-1.6-4.172-3.74-4.64zM20.224 21.415h-14.54c-1.955 0-3.559-1.588-3.559-3.544 0-1.953 1.591-3.544 3.559-3.544 0.947 0 1.841 0.38 2.515 1.041 0.4 0.419 1.081 0.419 1.5 0 0.4-0.401 0.4-1.081 0-1.5-0.74-0.723-1.641-1.241-2.62-1.481 1-2.22 3.24-3.699 5.74-3.699 3.479 0 6.32 2.839 6.32 6.317 0 0.683-0.1 1.341-0.32 1.981-0.18 0.56 0.12 1.159 0.68 1.36 0.099 0.040 0.22 0.060 0.32 0.060 0.44 0 0.86-0.281 1-0.72 0.14-0.42 0.24-0.84 0.3-1.28 0.979 0.38 1.68 1.34 1.68 2.44 0 1.461-1.18 2.639-2.62 2.639z"></path>
</svg>
