<!-- Generated by IcoMoon.io -->
<svg version="1.1" xmlns="http://www.w3.org/2000/svg" width="32" height="32" viewBox="0 0 32 32">
<title>mixer</title>
<path fill="#002050" d="M3.275 1.833c-0.849 0.003-1.622 0.327-2.203 0.858l0.003-0.002c-1.253 1.156-1.355 3.108-0.337 4.484l6.556 8.787-6.595 8.867c-1.016 1.376-0.936 3.328 0.339 4.484 0.579 0.53 1.353 0.855 2.204 0.855 1.068 0 2.017-0.513 2.613-1.306l0.006-0.008 9.205-12.373c0.103-0.141 0.165-0.318 0.165-0.509s-0.062-0.368-0.167-0.511l0.002 0.002-9.168-12.313c-0.597-0.801-1.542-1.315-2.607-1.315-0.005 0-0.011 0-0.016 0h0.001zM28.727 1.833c-0.005-0-0.011-0-0.017-0-1.065 0-2.010 0.513-2.601 1.306l-0.006 0.009-9.147 12.293c-0.103 0.141-0.165 0.317-0.165 0.508s0.062 0.367 0.166 0.51l-0.002-0.002 9.187 12.395c0.602 0.801 1.551 1.314 2.619 1.314 0.85 0 1.625-0.325 2.206-0.858l-0.002 0.002c1.275-1.156 1.355-3.108 0.339-4.484l-6.596-8.867 6.556-8.787c1.016-1.376 0.916-3.328-0.339-4.484-0.578-0.529-1.35-0.853-2.198-0.856h-0.001z"></path>
</svg>
