<!-- Generated by IcoMoon.io -->
<svg version="1.1" xmlns="http://www.w3.org/2000/svg" width="32" height="32" viewBox="0 0 32 32">
<title>mojang</title>
<path fill="#db1f29" d="M9.216 0c-5.090 0.001-9.215 4.126-9.216 9.216v22.784h22.784c5.090 0 9.216-4.126 9.216-9.216v0-22.784h-6.656zM22.697 3.459c0.755 0 1.365 3.34 1.365 4.093 0 0.013 0.001 0.028 0.001 0.043 0 0.754-0.611 1.365-1.365 1.365s-1.365-0.611-1.365-1.365c0-0.015 0-0.030 0.001-0.045l-0 0.002c0-0.753 0.612-4.093 1.364-4.093zM19.213 7.331c0.92 0.253 2.776 5.027 4.849 2.953 1.931-1.931 2.732 9.552 2.732 9.552l-2.733-1.363c0 0 0.003-2.731-4.093-5.46-5.079-3.387-10.919-1.156-10.919 4.093 0 10.711 17.745 6.827 17.745 6.827s-0.003 2.728-2.733 2.728h-16.375c-2.729 0-2.733-2.729-2.733-2.729v-13.648c0-2.731 2.733-2.732 2.733-2.732h5.457c2.731 0 5.461 2.732 5.461 2.732 0-1.987 0.156-2.797 0.437-2.94 0.030-0.015 0.065-0.024 0.102-0.024 0.024 0 0.048 0.004 0.070 0.011l-0.002-0z"></path>
</svg>
