<!-- Generated by IcoMoon.io -->
<svg version="1.1" xmlns="http://www.w3.org/2000/svg" width="32" height="32" viewBox="0 0 32 32">
<title>monkeytie</title>
<path fill="#ffc619" d="M26.668 0h-21.333c-2.947 0-5.335 2.388-5.335 5.335v21.331c0 2.947 2.388 5.335 5.335 5.335h21.333c2.944 0 5.332-2.388 5.332-5.335v-21.331c0-2.947-2.388-5.335-5.332-5.335zM16.447 21.727l-1.155-9.012-3.439 6.184-3.444-6.164-1.144 8.992h-2.573l1.867-13.448h2.015l3.277 6.121 3.272-6.121h2.019l1.863 13.448zM25.152 14.079h-2.113v4.343c0 1.46 0.116 1.535 1.461 1.535h0.653l-0.228 1.963h-1.724c-1.805 0-2.573-1.267-2.573-2.52v-5.329h-1.369l0.208-1.96h1.14v-2.104l2.387-0.251v2.367h2.117v1.956zM27.388 21.919h-1.979l0.212-1.98h1.983l-0.229 1.972z"></path>
</svg>
