<!-- Generated by IcoMoon.io -->
<svg version="1.1" xmlns="http://www.w3.org/2000/svg" width="32" height="32" viewBox="0 0 32 32">
<title>monzo</title>
<path d="M15.987 23.013h0.013l7.907-7.893v14.72c0 0.003 0 0.008 0.001 0.012 0.018 0.331 0.301 0.584 0.632 0.566 0.149-0.008 0.282-0.070 0.382-0.165l-0.001 0.001 6.64-6.627c0.271-0.275 0.434-0.653 0.427-1.064l-0-0.003v-15.507l0.013-0.013-5.307-5.293c-0.115-0.117-0.277-0.186-0.452-0.176-0.153 0.008-0.289 0.075-0.388 0.177l0-0-9.853 9.84-9.88-9.867c-0.115-0.117-0.277-0.186-0.452-0.176-0.153 0.008-0.289 0.075-0.388 0.177l0-0-5.28 5.32v15.547c-0 0.028 0 0.061 0.002 0.095 0.021 0.376 0.18 0.712 0.426 0.96l-0.001-0.001 6.627 6.64c0.116 0.11 0.275 0.174 0.446 0.164 0.316-0.017 0.562-0.277 0.567-0.589v-0.002l0.013-14.747z"></path>
</svg>
