<!-- Generated by IcoMoon.io -->
<svg version="1.1" xmlns="http://www.w3.org/2000/svg" width="32" height="32" viewBox="0 0 32 32">
<title>moo</title>
<path fill="#00945e" d="M15.952 32c-3.367 0-6.401-1.476-8.453-4.184-1.479-1.889-2.215-4.104-2.215-6.48 0-0.74 0.080-1.479 0.247-2.136 0.399-2.38 2.12-6.237 5.24-11.571 2.303-3.94 4.183-6.891 4.281-6.891 0.164-0.328 0.411-0.739 0.9-0.739 0.496 0 0.74 0.411 0.988 0.74 0 0 1.969 2.953 4.265 6.891 3.123 5.333 4.841 9.191 5.252 11.571 0.175 0.656 0.257 1.393 0.257 2.133 0 2.38-0.74 4.593-2.2 6.481-2.16 2.629-5.283 4.184-8.563 4.184zM15.952 29.211c2.54 0 4.839-1.148 6.401-3.121 1.065-1.392 1.639-3.116 1.639-4.92 0-0.576-0.079-1.068-0.164-1.639-0.328-1.805-1.724-4.923-4.099-9.111-1.809-3.199-3.367-5.495-3.367-5.495l-0.413-0.577-0.339 0.493c0 0-1.561 2.38-3.361 5.5-2.457 4.199-3.857 7.299-4.096 9.119-0.081 0.575-0.164 1.067-0.164 1.639 0 1.807 0.572 3.449 1.639 4.924 1.48 2.051 3.775 3.199 6.32 3.199z"></path>
</svg>
