<!-- Generated by IcoMoon.io -->
<svg version="1.1" xmlns="http://www.w3.org/2000/svg" width="32" height="32" viewBox="0 0 32 32">
<title>musescore</title>
<path fill="#1a70b8" d="M15.703 31.996c-4.806-0.090-9.082-2.287-11.953-5.704l-0.020-0.024c-1.458-1.733-2.566-3.813-3.182-6.095l-0.026-0.112c-0.331-1.221-0.521-2.622-0.521-4.068 0-1.207 0.133-2.383 0.384-3.514l-0.020 0.107c0.456-2.055 1.25-3.869 2.329-5.476l-0.036 0.057c1.398-2.089 3.211-3.792 5.331-5.024l0.077-0.041c1.587-0.925 3.442-1.598 5.417-1.908l0.090-0.012c0.731-0.116 1.573-0.183 2.431-0.183 0.88 0 1.743 0.070 2.585 0.204l-0.093-0.012c2.277 0.36 4.403 1.187 6.335 2.464 1.164 0.769 2.256 1.72 3.18 2.773 1.687 1.905 2.932 4.24 3.551 6.819l0.022 0.109c0.536 2.291 0.555 4.741 0.052 7.055-0.801 3.579-2.709 6.624-5.341 8.837l-0.024 0.020c-1.733 1.459-3.813 2.567-6.095 3.184l-0.112 0.026c-0.991 0.26-1.999 0.421-3.053 0.489-0.312 0.018-0.688 0.031-1.067 0.035l-0.012 0zM6.471 23.084c0.121-0.031 0.225-0.093 0.307-0.177l0-0c0.084-0.084 0.148-0.188 0.184-0.304l0.001-0.005c0.017-0.057 0.019-0.237 0.024-3.151 0.005-2.827 0.007-3.103 0.024-3.251 0.044-0.397 0.101-0.68 0.195-0.96 0.135-0.404 0.299-0.688 0.541-0.94 0.187-0.192 0.347-0.309 0.579-0.42 0.195-0.093 0.422-0.162 0.66-0.196l0.012-0.001c0.152-0.023 0.509-0.032 0.657-0.016 0.733 0.085 1.357 0.489 1.738 1.067l0.006 0.009c0.221 0.333 0.361 0.704 0.436 1.155l0.023 0.141 0.005 3.251c0.005 3.099 0.007 3.253 0.025 3.313 0.036 0.118 0.097 0.219 0.178 0.302l-0-0c0.073 0.076 0.162 0.134 0.263 0.169l0.005 0.001c0.069 0.025 0.091 0.028 0.223 0.028 0.013 0.001 0.028 0.002 0.044 0.002 0.177 0 0.337-0.075 0.449-0.195l0-0c0.106-0.104 0.178-0.242 0.198-0.397l0-0.003c0.008-0.056 0.011-1.032 0.011-3.209 0-2.056 0.004-3.167 0.011-3.237 0.063-0.64 0.296-1.185 0.697-1.633 0.244-0.272 0.619-0.52 0.973-0.643 0.28-0.099 0.525-0.135 0.835-0.127 0.405 0.013 0.733 0.088 1.067 0.248 0.379 0.181 0.685 0.455 0.891 0.796 0.237 0.392 0.373 0.883 0.399 1.444 0.003 0.071 0.017 0.655 0.031 1.297 0.029 1.336 0.032 1.417 0.053 1.651 0.096 1.049 0.409 1.901 0.948 2.58 0.116 0.147 0.415 0.444 0.556 0.556 0.58 0.459 1.259 0.74 2.043 0.845 0.236 0.032 0.676 0.040 0.907 0.016 1.063-0.109 2.040-0.617 2.687-1.395 0.497-0.6 0.808-1.32 0.939-2.187 0.061-0.403 0.057-0.191 0.061-3.341 0.004-3.223 0.009-2.964-0.072-3.128-0.090-0.17-0.249-0.294-0.438-0.334l-0.004-0.001c-0.052-0.012-0.112-0.020-0.174-0.020-0.14 0-0.271 0.037-0.385 0.102l0.004-0.002c-0.133 0.080-0.253 0.244-0.293 0.405-0.012 0.041-0.016 0.637-0.021 2.96-0.007 3.22 0 2.973-0.073 3.347-0.24 1.223-1.080 2.029-2.307 2.213-0.088 0.009-0.189 0.014-0.293 0.014-0.138 0-0.273-0.009-0.406-0.026l0.016 0.002c-0.619-0.093-1.12-0.341-1.507-0.743-0.443-0.46-0.707-1.088-0.801-1.909-0.024-0.201-0.035-0.516-0.057-1.616-0.024-1.137-0.035-1.4-0.063-1.653-0.172-1.497-0.907-2.644-2.064-3.223-0.435-0.224-0.945-0.366-1.486-0.392l-0.008-0c-0.733-0.047-1.515 0.16-2.228 0.588-0.425 0.253-0.784 0.567-1.078 0.935l-0.006 0.008-0.051 0.065-0.037-0.051c-0.1-0.127-0.203-0.241-0.312-0.347l-0.001-0.001c-0.609-0.577-1.467-0.963-2.373-1.067-0.132-0.012-0.286-0.019-0.441-0.019-0.15 0-0.298 0.006-0.444 0.019l0.019-0.001c-0.847 0.093-1.521 0.381-2.079 0.888-0.64 0.583-1.060 1.471-1.216 2.568-0.075 0.524-0.076 0.581-0.072 3.887l0.003 2.912 0.029 0.085c0.076 0.221 0.253 0.389 0.474 0.451l0.005 0.001c0.104 0.027 0.251 0.027 0.359 0zM22.457 11.267c0.356-0.064 0.637-0.327 0.727-0.667l0.001-0.006c0.015-0.069 0.024-0.148 0.024-0.23 0-0.060-0.005-0.119-0.014-0.177l0.001 0.006c-0.066-0.324-0.297-0.583-0.6-0.686l-0.006-0.002c-0.086-0.030-0.186-0.048-0.289-0.048-0.499 0-0.904 0.405-0.904 0.904 0 0.003 0 0.006 0 0.009v-0c0 0.073 0.007 0.147 0.016 0.189 0.092 0.414 0.456 0.72 0.892 0.72 0.054 0 0.108-0.005 0.159-0.014l-0.005 0.001zM18.901 11.083c0.19-0.051 0.342-0.18 0.425-0.349l0.002-0.004c0.061-0.123 0.080-0.211 0.089-0.457 0.017-0.773 0.328-1.47 0.824-1.988l-0.001 0.001c0.394-0.415 0.922-0.699 1.514-0.781l0.014-0.002c0.193-0.029 0.579-0.032 0.775-0.005 0.409 0.057 0.773 0.191 1.096 0.4 0.325 0.213 0.632 0.533 0.845 0.884 0.269 0.444 0.435 1.017 0.436 1.503 0 0.133 0.016 0.245 0.048 0.347 0.089 0.276 0.344 0.473 0.645 0.473 0.266 0 0.497-0.154 0.607-0.378l0.002-0.004c0.071-0.148 0.080-0.2 0.079-0.467 0-0.264-0.013-0.424-0.057-0.685-0.289-1.731-1.553-3.059-3.235-3.393-0.211-0.048-0.454-0.076-0.703-0.076-0.046 0-0.091 0.001-0.137 0.003l0.006-0c-0.018-0-0.040-0-0.061-0-1.554 0-2.902 0.877-3.579 2.162l-0.011 0.022c-0.292 0.554-0.47 1.207-0.488 1.901l-0 0.006c-0.013 0.353 0.049 0.557 0.223 0.725 0.122 0.116 0.286 0.187 0.468 0.187 0.062 0 0.122-0.008 0.18-0.024l-0.005 0.001z"></path>
</svg>
