<!-- Generated by IcoMoon.io -->
<svg version="1.1" xmlns="http://www.w3.org/2000/svg" width="32" height="32" viewBox="0 0 32 32">
<title>mxlinux</title>
<path d="M16.001 17.735l4.369 5.092-1 1.2-4.352-5.145zM32 3.213v25.576c0 0.873-0.708 1.581-1.581 1.581h-28.837c-0.873 0-1.581-0.708-1.581-1.581 0-0 0-0.001 0-0.001v0-25.576c0-0.873 0.708-1.581 1.581-1.581h28.837c0.873 0 1.581 0.707 1.581 1.583zM29.012 26l-5.641-6.777-0.781 0.939-4.333-5.051 6.551-7.64-1.567-1.344-6.347 7.399-6.324-7.369-2.596 2.227 6.667 7.769-0.973 1.135-1.653-1.953-9.025 10.667z"></path>
</svg>
