<!-- Generated by IcoMoon.io -->
<svg version="1.1" xmlns="http://www.w3.org/2000/svg" width="32" height="32" viewBox="0 0 32 32">
<title>myspace</title>
<path d="M26.404 16.365c2.811 0 5.091-2.271 5.091-5.072s-2.28-5.060-5.091-5.060c-2.812 0-5.091 2.28-5.091 5.080 0 2.801 2.279 5.081 5.091 5.081zM14.933 17.305c2.529 0 4.581-2.044 4.581-4.565s-2.051-4.567-4.581-4.567-4.581 2.061-4.581 4.581c0 2.521 2.047 4.579 4.581 4.579zM4.533 18.152c2.28 0 4.124-1.84 4.124-4.108 0-2.272-1.86-4.112-4.14-4.112-2.276 0-4.117 1.84-4.117 4.12 0 2.267 1.849 4.104 4.127 4.104zM4.533 19.092c-2.613 0-4.533 2.289-4.533 4.66v1.595c0 0.227 0.184 0.413 0.413 0.413h8.24c0.228 0 0.412-0.187 0.412-0.413v-1.595c0-2.372-1.916-4.667-4.531-4.667zM14.933 18.345c-2.905 0-5.040 2.553-5.040 5.188v1.775c0 0.251 0.208 0.459 0.46 0.459h9.161c0.251 0 0.456-0.207 0.456-0.459v-1.775c0-2.635-2.131-5.188-5.037-5.188zM26.404 17.523c-3.229 0-5.596 2.835-5.596 5.764v1.969c0 0.28 0.229 0.508 0.509 0.508h10.173c0.28 0 0.511-0.228 0.511-0.508v-1.969c-0.001-2.929-2.368-5.764-5.597-5.764z"></path>
</svg>
