<!-- Generated by IcoMoon.io -->
<svg version="1.1" xmlns="http://www.w3.org/2000/svg" width="32" height="32" viewBox="0 0 32 32">
<title>nativescript</title>
<path fill="#3655ff" d="M2.36 2.347c1.358-1.422 3.258-2.316 5.368-2.347l0.006-0h16.8c1.827 0 3.533 0.8 5.107 2.347 1.43 1.308 2.332 3.173 2.36 5.248l0 0.005v17.027c0 1.787-0.747 3.44-2.24 4.973-1.37 1.443-3.287 2.355-5.418 2.4l-0.008 0h-16.507c-2.102-0.021-4.015-0.811-5.476-2.101l0.009 0.008c-1.44-1.307-2.227-3.2-2.36-5.733v-16.533c-0-0.023-0-0.049-0-0.076 0-2.075 0.91-3.938 2.353-5.211l0.008-0.007zM10.693 13.413l10.573 13.413h2.827c0.653-0.080 1.173-0.267 1.56-0.573 0.4-0.307 0.667-0.747 0.853-1.333v-6.587c0.107-1.267 0.893-2.053 2.36-2.333-1.467-0.533-2.253-1.36-2.36-2.48v-6.293c-0.16-0.587-0.44-1.067-0.853-1.427-0.386-0.352-0.889-0.582-1.445-0.626l-0.009-0.001h-2.867v13.6l-10.64-13.613h-2.973c-0.747 0.133-1.293 0.4-1.667 0.8s-0.613 1.040-0.72 1.907v6.467c-0.467 0.92-1.2 1.467-2.2 1.667 1.133 0.213 1.867 0.813 2.2 1.813v6.36c0.027 0.733 0.267 1.333 0.72 1.827 0.44 0.48 0.933 0.707 1.467 0.667h3.147z"></path>
</svg>
