<!-- Generated by IcoMoon.io -->
<svg version="1.1" xmlns="http://www.w3.org/2000/svg" width="32" height="32" viewBox="0 0 32 32">
<title>nec</title>
<path fill="#1414a0" d="M0.107 12.36h2.56c0.587 0 1.267 0.533 1.587 0.84l4.48 4.92v-5.76h1.533v7.867h-2.667c-0.48-0.027-0.947-0.133-1.493-0.653l-4.48-4.933v5.573h-1.52zM31.893 20.267c-1.827 0.253-3.667 0.267-5.52 0.12-1.147-0.070-2.21-0.362-3.169-0.835l0.049 0.022c-1.227-0.64-1.627-2.053-1.6-3.333 0-1.173 0.36-2.44 1.427-3.133 0.648-0.384 1.411-0.649 2.226-0.744l0.027-0.003c2.16-0.373 4.333-0.293 6.453-0.053v1.12c-2.493-0.48-5.133-0.36-6.027 0.773-0.401 0.505-0.643 1.153-0.643 1.856 0 0.050 0.001 0.101 0.004 0.151l-0-0.007c0 1.067 0.373 2.667 2.56 2.987 1.427 0.2 2.84 0.040 4.213-0.2zM16.267 19.040c0.213 0 3.653 0.027 4.84 0v1.173c-2.387 0.093-4.667 0.133-7.067 0.040-2.040-0.080-2.4-1.093-2.427-2.067v-5.827h9.373v1.12h-6.053v2h5.533v1.093h-5.533l0.027 1.373c0.027 0.76 0.4 1.040 1.307 1.093z"></path>
</svg>
