<!-- Generated by IcoMoon.io -->
<svg version="1.1" xmlns="http://www.w3.org/2000/svg" width="32" height="32" viewBox="0 0 32 32">
<title>neo4j</title>
<path fill="#008cc1" d="M30.289 11.223c-0.019 3.945-3.216 7.095-7.188 7.079-3.928-0.019-7.075-3.232-7.055-7.209 0.019-3.867 3.277-7.049 7.188-7.020 3.901 0.029 7.072 3.245 7.055 7.151zM13.084 32c-3.143 0.011-5.783-2.62-5.815-5.792-0.032-3.107 2.607-5.773 5.727-5.787 3.251-0.013 5.86 2.555 5.86 5.768 0.004 3.177-2.603 5.8-5.772 5.811zM11.897 3.787c0 2.083-1.715 3.796-3.788 3.785-2.065-0.009-3.815-1.772-3.781-3.812 0.033-2.069 1.789-3.789 3.84-3.76 2.041 0.031 3.729 1.744 3.729 3.787zM29.2 15.931c-3.596 3.141-6.667 3.705-9.893 1.813-2.853-1.672-4.261-4.961-3.539-8.263 0.783-3.573 3.341-5.447 8.263-5.956-3.735-2.669-7.684-3.492-12.020-2.431-0.561 0.136-0.321 0.348-0.168 0.631 1.048 1.929 0.511 4.276-1.256 5.535-1.767 1.257-4.168 1.007-5.624-0.653-0.429-0.489-0.569-0.359-0.872 0.084-3.344 4.897-3.151 11.572 0.496 16.247 0.656 0.841 1.369 1.625 2.255 2.28 1-4.277 4.525-5.668 7.359-5.184 3.457 0.589 5.336 3.469 5.011 7.716 4.688-0.573 10.569-7.533 9.989-11.819zM17.083 2.793c0.616-0.031 1.16 0.487 1.175 1.113 0.012 0.608-0.463 1.103-1.076 1.124-0.675 0.023-1.149-0.427-1.155-1.091-0.007-0.635 0.437-1.116 1.056-1.147zM6.768 8.839c0.64 0.012 1.137 0.535 1.109 1.168-0.025 0.603-0.531 1.072-1.145 1.064-0.613-0.008-1.095-0.488-1.104-1.103-0.009-0.644 0.492-1.14 1.14-1.129zM5.807 12.971c0.004-0.601 0.499-1.099 1.105-1.113 0.615-0.015 1.1 0.447 1.125 1.071 0.027 0.652-0.449 1.171-1.084 1.183-0.631 0.009-1.151-0.508-1.147-1.14zM6.493 16.132c0.031-0.613 0.528-1.075 1.144-1.063 0.639 0.013 1.096 0.521 1.069 1.188-0.025 0.624-0.512 1.084-1.128 1.063-0.637-0.019-1.117-0.545-1.085-1.188zM9.149 20.177c-0.667 0.009-1.143-0.46-1.135-1.117 0.008-0.613 0.495-1.109 1.091-1.115 0.627-0.005 1.164 0.521 1.159 1.137-0.003 0.603-0.495 1.084-1.115 1.095zM14.257 4.031c-0.625 0.016-1.157-0.507-1.155-1.132 0.003-0.641 0.512-1.12 1.168-1.101 0.616 0.017 1.085 0.501 1.084 1.116-0.001 0.599-0.496 1.103-1.097 1.117zM20.935 24.193c-0.659-0.005-1.141-0.5-1.117-1.144 0.024-0.595 0.536-1.080 1.14-1.077 0.639 0.005 1.133 0.524 1.111 1.167-0.020 0.616-0.493 1.056-1.133 1.055zM22.98 21.833c-0.643 0.015-1.163-0.489-1.155-1.12 0.007-0.616 0.484-1.096 1.1-1.111 0.647-0.015 1.152 0.475 1.151 1.121 0.001 0.607-0.483 1.095-1.096 1.109z"></path>
</svg>
