<!-- Generated by IcoMoon.io -->
<svg version="1.1" xmlns="http://www.w3.org/2000/svg" width="32" height="32" viewBox="0 0 32 32">
<title>nintendo3ds</title>
<path fill="#d12228" d="M23.537 22.173c0 0.524 0.425 0.949 0.949 0.949s0.949-0.425 0.949-0.949v0c0-0.524-0.425-0.949-0.949-0.949s-0.949 0.425-0.949 0.949v0zM10.937 27.824h10.1c0.4 0 0.699-0.3 0.725-0.699v-6.9c-0.027-0.376-0.351-0.7-0.725-0.676h-10.1c-0.002 0-0.004-0-0.006-0-0.391 0-0.709 0.311-0.72 0.699l-0 0.001v6.875c0 0.401 0.325 0.7 0.725 0.7zM28.339 23.124c0 0 0.001 0 0.001 0 0.537 0 0.972-0.435 0.972-0.972v0c0-0 0-0.001 0-0.001 0-0.538-0.436-0.973-0.973-0.973s-0.973 0.436-0.973 0.973c0 0.538 0.436 0.973 0.973 0.973v0zM26.415 23.099c-0.010-0-0.023-0.001-0.035-0.001-0.526 0-0.952 0.426-0.952 0.952s0.426 0.952 0.952 0.952c0.013 0 0.025-0 0.038-0.001l-0.002 0c0.51-0.020 0.916-0.438 0.916-0.951s-0.407-0.932-0.915-0.951l-0.002-0zM25.464 20.249c0 0.524 0.425 0.949 0.949 0.949s0.949-0.425 0.949-0.949v0c0-0.524-0.425-0.949-0.949-0.949s-0.949 0.425-0.949 0.949v0zM3.387 22.149c0 1.215 0.985 2.2 2.2 2.2s2.2-0.985 2.2-2.2v0c0-1.215-0.985-2.2-2.2-2.2s-2.2 0.985-2.2 2.2v0zM28.363 0h-24.725c-0.003 0-0.007-0-0.011-0-2.006 0-3.632 1.622-3.64 3.626v24.723c0.025 2.025 1.651 3.651 3.651 3.651h24.701c0.001 0 0.003 0 0.004 0 2.011 0 3.645-1.618 3.67-3.623l0-0.002v-24.725c-0.025-2.024-1.651-3.649-3.651-3.649zM30.913 28.375c-0.006 1.406-1.144 2.543-2.549 2.549h-24.727c-1.406-0.005-2.545-1.143-2.551-2.549v-11.275h29.825zM30.913 15.449h-29.827v-11.8c0.005-1.407 1.144-2.545 2.55-2.551h24.726c1.399 0 2.549 1.151 2.549 2.551v11.8zM23.212 4.149h-14.5c-0.4 0-0.725 0.351-0.725 0.751v7.3c0 0.4 0.301 0.751 0.725 0.751h14.5c0.401-0.003 0.726-0.329 0.726-0.731 0-0.007-0-0.014-0-0.021l0 0.001v-7.325c0-0 0-0.001 0-0.001 0-0.4-0.324-0.724-0.724-0.724-0 0-0.001 0-0.001 0h0z"></path>
</svg>
