<!-- Generated by IcoMoon.io -->
<svg version="1.1" xmlns="http://www.w3.org/2000/svg" width="32" height="32" viewBox="0 0 32 32">
<title>nodemon</title>
<path fill="#76d04b" d="M29.773 10.468l-0.955-0.531c1.468-2.092 2.344-5.236 1.245-9.937 0 0-2.476 6.705-7.453 6.484l-5.827-3.241c-0.206-0.118-0.451-0.191-0.712-0.2l-0.003-0h-0.135c-0.265 0.009-0.511 0.082-0.725 0.204l0.008-0.004-5.828 3.241c-4.977 0.223-7.453-6.484-7.453-6.484-1.1 4.701-0.221 7.845 1.245 9.937l-0.955 0.531c-0.469 0.261-0.782 0.752-0.785 1.317v0l0.029 19.455c0 0.271 0.145 0.523 0.392 0.655 0.112 0.066 0.246 0.105 0.389 0.105s0.278-0.039 0.393-0.107l-0.004 0.002 7.72-4.272c0.488-0.281 0.785-0.776 0.785-1.316v-9.089c0-0.541 0.297-1.044 0.784-1.312l3.287-1.829c0.225-0.129 0.494-0.205 0.781-0.205 0.002 0 0.004 0 0.006 0h-0c0.267 0 0.543 0.067 0.78 0.205l3.287 1.829c0.487 0.268 0.784 0.771 0.784 1.312v9.089c0 0.54 0.301 1.039 0.787 1.316l7.717 4.272c0.113 0.066 0.248 0.105 0.393 0.105s0.28-0.039 0.396-0.107l-0.004 0.002c0.233-0.13 0.388-0.374 0.389-0.654v-0l0.025-19.455c-0.002-0.566-0.315-1.058-0.778-1.313l-0.008-0.004z"></path>
</svg>
