<!-- Generated by IcoMoon.io -->
<svg version="1.1" xmlns="http://www.w3.org/2000/svg" width="32" height="32" viewBox="0 0 32 32">
<title>node-red</title>
<path fill="#8f0000" d="M4 0c-2.216 0-4 1.784-4 4v8.143h3.811c1.456 0 2.627 1.157 2.619 2.613v0.028c1.083-0.127 1.749-0.469 2.232-0.911 0.555-0.509 0.92-1.213 1.355-1.999 0.433-0.787 0.947-1.659 1.877-2.297 0.767-0.527 1.807-0.859 3.179-0.915v-0.6c0-1.456 1.173-2.635 2.629-2.635h10.524c1.455 0 2.632 1.179 2.632 2.635v2.589c0 1.455-1.177 2.705-2.632 2.705h-10.524c-1.456 0-2.629-1.251-2.629-2.707v-0.604c-1.137 0.049-1.877 0.315-2.397 0.672-0.64 0.44-1.032 1.069-1.448 1.824-0.416 0.753-0.84 1.627-1.629 2.351l-0.103 0.092c4.095 0.553 5.953 2.073 7.535 3.457 1.853 1.62 3.301 3.033 8.4 3.051v-0.613c0-1.456 1.192-2.595 2.648-2.595h3.923v-14.285c0-2.216-1.784-4-4-4zM17.701 7.213c-0.492 0-0.916 0.357-0.916 0.849v2.589c0 0.491 0.424 0.848 0.916 0.848h10.523c0.009 0 0.018 0.001 0.029 0.001 0.452 0 0.819-0.367 0.819-0.819 0-0.011-0-0.021-0.001-0.031l0 0.002v-2.589c0-0.009 0.001-0.019 0.001-0.030 0-0.452-0.367-0.819-0.819-0.819-0.010 0-0.020 0-0.030 0.001l0.001-0zM0 13.931v4.356h3.811c0.499-0.013 0.9-0.419 0.904-0.92v-2.59c0-0.491-0.413-0.847-0.904-0.847zM6.428 16.157v1.209c0 0.004 0 0.009 0 0.013 0 1.446-1.171 2.619-2.617 2.62h-3.811v8c0 2.216 1.784 4 4 4h24c2.216 0 4-1.784 4-4v-1.857h-3.923c-1.456 0-2.648-1.217-2.648-2.673v-0.593c-5.395-0.043-7.464-1.777-9.311-3.392-1.916-1.676-3.668-3.241-9.691-3.327zM28.077 20c-0.001 0-0.003 0-0.004 0-0.474 0-0.859 0.384-0.859 0.859 0 0.008 0 0.015 0 0.022l-0-0.001v2.589c0 0.491 0.371 0.816 0.863 0.816h3.923v-4.285z"></path>
</svg>
