<!-- Generated by IcoMoon.io -->
<svg version="1.1" xmlns="http://www.w3.org/2000/svg" width="32" height="32" viewBox="0 0 32 32">
<title>nokia</title>
<path fill="#124191" d="M1.551 18.605h-1.54v-5.187h2.663l3.056 3.872v-3.872h1.54v5.187h-2.609l-3.109-3.939v3.939zM14.636 17.001c0 0.72-0.129 0.969-0.343 1.208-0.325 0.355-0.8 0.461-1.717 0.461h-2.629c-0.915 0-1.391-0.107-1.717-0.461-0.213-0.239-0.341-0.487-0.341-1.208v-2c0-0.72 0.128-0.968 0.341-1.207 0.327-0.355 0.803-0.463 1.717-0.463h2.629c0.916 0 1.392 0.107 1.717 0.463 0.213 0.239 0.343 0.487 0.343 1.208v1.999zM12.512 17.357c0.352 0 0.475-0.021 0.56-0.097 0.079-0.071 0.113-0.161 0.113-0.467v-1.583c0-0.305-0.035-0.396-0.113-0.467-0.085-0.077-0.208-0.097-0.56-0.097h-2.5c-0.352 0-0.476 0.020-0.56 0.097-0.080 0.071-0.113 0.161-0.113 0.467v1.583c0 0.305 0.035 0.396 0.113 0.467 0.084 0.076 0.208 0.097 0.56 0.097h2.5zM16.873 13.419v5.187h-1.609v-5.187h1.609zM19.592 13.419h2.124l-2.867 2.427 3.233 2.76h-2.273l-2.936-2.705 2.719-2.48zM22.379 13.42h1.609v5.185h-1.609zM30.123 18.605l-0.476-0.904h-3.113l-0.471 0.904h-1.777l2.852-5.187h2l2.852 5.187h-1.867zM27.092 16.576h2l-1-1.879-1 1.879z"></path>
</svg>
