<!-- Generated by IcoMoon.io -->
<svg version="1.1" xmlns="http://www.w3.org/2000/svg" width="32" height="32" viewBox="0 0 32 32">
<title>notist</title>
<path d="M7.912 5.068c-1.465 0.147-3.051 0.533-4.051 0.987-1.425 0.665-1.679 1.159-1.212 2.491 0.48 1.387 0.253 3.077-1.333 10.007-1.171 5.168-1.369 6.248-1.303 7.208 0.053 0.627 0.12 0.84 0.387 1.053 0.293 0.239 0.44 0.252 2.251 0.172 4.544-0.227 5.409-0.293 5.689-0.453 0.32-0.173 0.333-0.267 0.587-2.344 0.427-3.824 2.384-9.54 4.036-11.859 1.413-1.972 3.145-2.837 4.131-2.065 1.040 0.827 1.013 2.079-0.173 5.529-0.907 2.665-1.053 3.237-1.212 4.823-0.2 1.947 0.173 3.319 1.28 4.544 1.132 1.253 2.824 1.879 5.128 1.879 2.187 0 3.957-0.547 5.836-1.785 1.72-1.147 3.771-3.477 4.011-4.571 0.133-0.547-0.093-1.145-0.467-1.292-0.547-0.2-0.867-0.053-1.852 0.84-1.145 1.040-1.665 1.265-2.677 1.185-1.347-0.107-1.933-0.88-1.933-2.559 0-1.199 0.12-1.799 0.867-4.423 1.053-3.637 1.24-5.289 0.773-6.703-0.76-2.357-3.971-3.384-7.528-2.397-1.932 0.547-4.317 1.932-6.129 3.584-0.507 0.453-0.907 0.787-0.907 0.747 0-0.027 0.093-0.467 0.213-0.96 0.453-1.999 0.267-2.997-0.639-3.464-0.52-0.267-2.132-0.347-3.772-0.173z"></path>
</svg>
