<!-- Generated by IcoMoon.io -->
<svg version="1.1" xmlns="http://www.w3.org/2000/svg" width="32" height="32" viewBox="0 0 32 32">
<title>nucleo</title>
<path fill="#766dcc" d="M9.663 29.999c1.984 0.881 4.077 1.433 6.392 1.433s4.52-0.552 6.393-1.433c-2.093-1.433-4.299-3.196-6.393-5.071-2.093 1.875-4.299 3.637-6.392 5.071zM29.283 23.825c1.316-2.245 2.093-4.943 2.093-7.824 0-0.001 0-0.001 0-0.002v0c0-2.315-0.551-4.52-1.432-6.393-2.315 3.417-5.621 7.275-9.369 11.023-0.772 0.772-1.653 1.653-2.536 2.425-0.331-0.331-0.661-0.661-1.101-0.992 0.908-0.799 1.736-1.628 2.508-2.506l0.026-0.030c4.079-4.077 7.496-8.156 9.7-11.573 2.535-3.857 3.196-6.283 2.093-7.495-0.109-0.221-0.66-0.441-1.212-0.441-1.323 0-3.527 0.992-6.173 2.756-2.313-1.323-4.96-2.205-7.825-2.205-2.867 0-5.511 0.772-7.827 2.205-2.643-1.764-4.848-2.756-6.171-2.756-0.663 0-1.103 0.22-1.433 0.551-2.645 2.645 5.621 12.899 11.793 19.069 7.275 7.275 14.551 12.345 17.636 12.345 0.661 0 1.103-0.22 1.433-0.551 1.103-1.103 0.44-3.637-2.093-7.496zM30.053 1.451c0.111 0 0.331 0 0.441 0.109 0.331 0.331 0.22 1.764-1.984 5.291-0.881-1.212-1.984-2.424-3.307-3.307 2.204-1.323 3.857-2.093 4.849-2.093zM3.6 6.851c-1.875-2.976-2.427-4.849-1.984-5.291 0.109-0.109 0.331-0.109 0.44-0.109 0.992 0 2.645 0.771 4.851 2.093-1.221 1.003-2.304 2.086-3.274 3.266l-0.032 0.041zM30.493 30.44c-0.111 0.109-0.331 0.109-0.44 0.109-0.993 0-2.647-0.771-4.851-2.093 1.213-0.883 2.425-1.984 3.307-3.307 2.204 3.527 2.315 4.96 1.984 5.291zM14.291 23.275c-0.992-0.881-1.984-1.764-2.867-2.756-3.637-3.637-7.164-7.715-9.369-11.021-0.88 1.983-1.431 4.188-1.431 6.392 0 2.867 0.771 5.512 2.093 7.827l-0.109 0.109c-2.536 3.859-3.197 6.284-2.095 7.496 0.331 0.331 0.881 0.551 1.433 0.551 2.424 0 7.385-3.085 12.896-7.936-0.202-0.197-0.384-0.413-0.543-0.647l-0.009-0.015zM2.055 30.549c-0.109 0-0.331 0-0.44-0.109-0.331-0.331-0.221-1.764 1.984-5.291 0.881 1.212 1.984 2.315 3.307 3.307-2.205 1.323-3.859 2.093-4.851 2.093z"></path>
</svg>
