<!-- Generated by IcoMoon.io -->
<svg version="1.1" xmlns="http://www.w3.org/2000/svg" width="32" height="32" viewBox="0 0 32 32">
<title>nutanix</title>
<path fill="#024da1" d="M0.524 4.823c-0.29 0.002-0.524 0.237-0.524 0.527 0 0 0 0 0 0v0c0 0.16 0.072 0.3 0.185 0.396l11.343 9.872c0.105 0.095 0.17 0.232 0.17 0.384 0 0.16-0.072 0.303-0.186 0.399l-0.001 0.001-11.36 9.883c-0.094 0.095-0.152 0.225-0.152 0.369 0 0.289 0.235 0.524 0.524 0.524 0.001 0 0.001 0 0.002 0h6.48c0.137 0 0.26-0.053 0.353-0.139l12.227-10.64c0.111-0.097 0.181-0.239 0.181-0.398s-0.069-0.3-0.179-0.396l-0.001-0.001-12.228-10.643c-0.092-0.086-0.215-0.139-0.351-0.139-0 0-0 0-0.001 0h0zM25.003 4.823c-0.142 0-0.271 0.058-0.364 0.151l0-0-6.289 5.475c-0.115 0.097-0.188 0.241-0.188 0.402 0 0.135 0.051 0.258 0.135 0.351l-0-0 3.237 2.819c0.096 0.106 0.234 0.172 0.388 0.172v0c0.145-0.001 0.276-0.061 0.371-0.157l0-0 9.503-8.271c0.125-0.096 0.205-0.245 0.205-0.413 0 0 0 0 0 0v0c0 0 0 0 0 0 0-0.29-0.234-0.525-0.524-0.527h-0zM21.923 17.812c-0.155 0-0.293 0.067-0.389 0.173l-3.236 2.817c-0.084 0.092-0.135 0.216-0.135 0.351 0 0.161 0.073 0.304 0.187 0.4l0.001 0.001 6.289 5.472c0.093 0.093 0.221 0.151 0.364 0.151h6.473c0 0 0 0 0 0 0.289 0 0.524-0.235 0.524-0.524 0-0.169-0.080-0.319-0.204-0.415l-0.001-0.001-9.503-8.271c-0.094-0.095-0.225-0.154-0.369-0.155h-0z"></path>
</svg>
