<!-- Generated by IcoMoon.io -->
<svg version="1.1" xmlns="http://www.w3.org/2000/svg" width="32" height="32" viewBox="0 0 32 32">
<title>obsstudio</title>
<path d="M16 32c-8.823 0-16-7.177-16-16s7.177-16 16-16 16 7.177 16 16-7.177 16-16 16zM16 1.479c-8.007 0-14.52 6.515-14.52 14.521s6.513 14.52 14.52 14.52 14.52-6.513 14.52-14.52-6.513-14.521-14.52-14.521zM8.243 7.987c0.469-2.264 2.004-4.305 4.067-5.328-0.359 0.364-0.793 0.644-1.125 1.040-1.36 1.467-1.973 3.589-1.599 5.541 0.473 2.98 3.273 5.413 6.309 5.371 2.353 0.105 4.647-1.249 5.797-3.291 2.464 0.084 4.86 1.356 6.267 3.397 0.72 1.065 1.283 2.315 1.321 3.615-0.456-1.727-1.603-3.261-3.167-4.127-1.513-0.852-3.372-1.069-5.029-0.567-2.080 0.597-3.799 2.297-4.391 4.391-0.503 1.667-0.288 3.504 0.503 5.029-1.1 1.905-3.087 3.265-5.243 3.675-1.659 0.348-3.401 0.079-4.945-0.619 1.381 0.403 2.881 0.473 4.255-0.015 1.841-0.609 3.363-2.089 4.032-3.913 0.741-1.987 0.46-4.348-0.788-6.053-0.933-1.343-2.404-2.289-4.003-2.625-0.507-0.091-1.019-0.131-1.531-0.179-0.815-1.641-1.112-3.547-0.704-5.328z"></path>
</svg>
