<!-- Generated by IcoMoon.io -->
<svg version="1.1" xmlns="http://www.w3.org/2000/svg" width="32" height="32" viewBox="0 0 32 32">
<title>octave</title>
<path fill="#0790c0" d="M13.989 0.011c-3.216-0.12-6.207 0.953-8.376 3.312-1.733 1.884-2.699 4.34-2.967 7.032h-0.56c-1.151 0-2.087 0.936-2.087 2.085v6.32c0 1.149 0.936 2.087 2.085 2.087h2.787c0.975 1.874 2.113 3.488 3.437 4.93l-0.015-0.016c5.944 6.46 14.253 8.043 19.403 4.019h2.8c0.769 0 1.4-0.631 1.4-1.4v-3.819c-0.004-0.343-0.134-0.654-0.344-0.892l0.001 0.001c1.143-4.575-0.060-10.183-3.357-14.948 0.003-0.023 0.013-0.043 0.013-0.065v-2.683c-0.002-0.601-0.488-1.087-1.088-1.091h-2.27c-3.347-3.053-7.243-4.736-10.864-4.872zM16.32 2.915c2.373-0.012 4.917 0.828 7.229 2.467-0.12 0.164-0.194 0.369-0.2 0.591l-0 0.001v2.683c0 0.597 0.491 1.092 1.088 1.092h2.685c0.194-0.005 0.374-0.062 0.527-0.157l-0.004 0.003c2.995 4.4 3.644 9.756 1.652 13.565h-2.617c-0.771 0-1.401 0.632-1.401 1.4v2.389c-3.985 1.733-9.333 0.296-13.276-3.987-0.753-0.825-1.436-1.739-2.023-2.718l-0.043-0.077c0.341-0.372 0.555-0.863 0.555-1.407v-6.32c0-1.149-0.936-2.085-2.085-2.085h-0.545c0.316-1.817 1.040-3.48 2.248-4.792 1.632-1.773 3.837-2.637 6.211-2.648zM24.437 5.595h2.685c0.216 0 0.377 0.163 0.377 0.379v2.683c0 0.217-0.16 0.38-0.377 0.38h-2.685c-0.002 0-0.004 0-0.007 0-0.206 0-0.373-0.167-0.373-0.373 0-0.002 0-0.005 0-0.007v0-2.683c-0-0.002-0-0.003-0-0.005 0-0.206 0.167-0.373 0.373-0.373 0.002 0 0.005 0 0.007 0h-0zM2.085 11.064h6.32c0.769 0 1.376 0.607 1.376 1.375v6.32c0 0.768-0.607 1.376-1.375 1.376h-6.32c-0.004 0-0.009 0-0.013 0-0.753 0-1.364-0.611-1.364-1.364 0-0.004 0-0.008 0-0.011v0.001-6.32c0-0.768 0.607-1.375 1.376-1.376zM26.68 23.868h3.817c0.388 0 0.693 0.301 0.693 0.691v3.817c0 0.002 0 0.005 0 0.008 0 0.377-0.306 0.683-0.683 0.683-0.004 0-0.008-0-0.011-0h-3.817c-0.003 0-0.007 0-0.011 0-0.376 0-0.68-0.304-0.68-0.68 0-0.004 0-0.008 0-0.011v0.001-3.816c-0-0.004-0-0.008-0-0.012 0-0.376 0.304-0.68 0.68-0.68 0.004 0 0.008 0 0.011 0h-0.001z"></path>
</svg>
