<!-- Generated by IcoMoon.io -->
<svg version="1.1" xmlns="http://www.w3.org/2000/svg" width="32" height="32" viewBox="0 0 32 32">
<title>oculus</title>
<path d="M24.18 18.599c-0.425 0.295-0.9 0.473-1.409 0.555s-1.015 0.065-1.523 0.065h-10.497c-0.509 0-1.016 0.019-1.527-0.065-0.508-0.084-0.979-0.26-1.409-0.555-0.857-0.601-1.369-1.56-1.369-2.601 0-1.061 0.516-2.020 1.372-2.6 0.419-0.3 0.899-0.479 1.399-0.56s1-0.081 1.521-0.081h10.5c0.5 0 1.020-0.019 1.52 0.061s0.98 0.259 1.401 0.54c0.86 0.579 1.36 1.56 1.36 2.599 0 1.040-0.521 2-1.38 2.6zM28.412 8.525c-1.127-0.904-2.416-1.528-3.82-1.864-0.8-0.195-1.604-0.281-2.429-0.307-0.599-0.020-1.199-0.013-1.819-0.013h-8.664c-0.609 0-1.22-0.007-1.829 0.013-0.824 0.028-1.629 0.111-2.433 0.307-1.401 0.339-2.7 0.964-3.82 1.867-2.277 1.82-3.597 4.565-3.597 7.472 0 2.909 1.32 5.655 3.585 7.475 1.128 0.904 2.42 1.528 3.82 1.867 0.804 0.195 1.608 0.281 2.431 0.305 0.6 0.021 1.2 0.016 1.82 0.016h8.661c0.599 0 1.219 0.005 1.819-0.016 0.82-0.024 1.62-0.109 2.419-0.305 1.4-0.341 2.681-0.964 3.821-1.869 2.304-1.819 3.624-4.565 3.624-7.472 0-2.908-1.32-5.655-3.588-7.475z"></path>
</svg>
