<!-- Generated by IcoMoon.io -->
<svg version="1.1" xmlns="http://www.w3.org/2000/svg" width="32" height="32" viewBox="0 0 32 32">
<title>odnoklassniki</title>
<path fill="#f4731c" d="M19.34 23.253c1.7-0.387 3.324-1.059 4.8-1.987 1.112-0.744 1.411-2.248 0.667-3.36-0.715-1.069-2.139-1.392-3.247-0.737-3.4 2.127-7.72 2.127-11.12 0-1.129-0.712-2.62-0.373-3.333 0.753 0 0.003 0 0.005-0.003 0.007-0.712 1.129-0.373 2.621 0.756 3.333l0.003 0.003c1.473 0.927 3.096 1.6 4.795 1.984l-4.62 4.62c-0.943 0.927-0.96 2.44-0.037 3.383l0.040 0.040c0.459 0.472 1.080 0.707 1.699 0.707 0.62 0 1.24-0.235 1.7-0.707l4.561-4.539 4.539 4.541c0.96 0.927 2.493 0.901 3.421-0.060 0.904-0.937 0.904-2.424 0-3.36zM16 16.517c4.56-0.005 8.253-3.699 8.26-8.257 0-4.553-3.707-8.26-8.26-8.26s-8.26 3.707-8.26 8.263c0.007 4.56 3.701 8.253 8.26 8.255zM16 4.841c1.888 0.003 3.417 1.533 3.419 3.42 0 1.888-1.531 3.417-3.419 3.42-1.887-0.003-3.416-1.531-3.42-3.419 0.003-1.889 1.533-3.419 3.42-3.421z"></path>
</svg>
