<!-- Generated by IcoMoon.io -->
<svg version="1.1" xmlns="http://www.w3.org/2000/svg" width="32" height="32" viewBox="0 0 32 32">
<title>openapiinitiative</title>
<path fill="#6ba539" d="M28.052 0c-2.179 0.001-3.944 1.767-3.944 3.945 0 0.639 0.152 1.242 0.421 1.776l-0.010-0.023-8.596 8.596c-0.512-0.26-1.116-0.412-1.756-0.412-2.18 0-3.947 1.767-3.947 3.947s1.767 3.947 3.947 3.947c2.18 0 3.947-1.767 3.947-3.947 0-0.639-0.152-1.242-0.421-1.776l0.010 0.023 8.596-8.596c0.511 0.259 1.114 0.411 1.753 0.411 2.179 0 3.945-1.766 3.945-3.945s-1.766-3.945-3.945-3.945h-0zM14.171 3.66c-0.096 0-0.191 0.004-0.285 0.005-0.096 0.003-0.191 0.003-0.287 0.007-0.596 0.024-1.191 0.085-1.78 0.184l-0.040 0.007-0.247 0.044-0.14 0.027c-0.197 0.037-0.327 0.066-0.456 0.097l0.070-0.014-0.043 0.011c-1.289 0.305-2.422 0.74-3.476 1.304l0.077-0.037-0.207 0.119c-0.084 0.045-0.167 0.093-0.249 0.14-0.061 0.036-0.124 0.068-0.187 0.105h-0.001l-0.013 0.007-0.048 0.027v0.003l0.148 0.245 4.2 6.973c0.136-0.084 0.302-0.174 0.473-0.255l0.034-0.014c0.634-0.31 1.374-0.508 2.156-0.55l0.014-0.001c0.095-0.005 0.191-0.011 0.285-0.011zM14.741 3.673v8.444c0.433 0.045 0.863 0.137 1.28 0.279l6.213-6.213c-0.231-0.16-0.464-0.316-0.704-0.463l-0.035-0.020c-0.075-0.047-0.149-0.089-0.224-0.133l-0.131-0.075-0.132-0.073c0.012 0.003-0.062-0.038-0.137-0.078l-0.091-0.045-0.036-0.019c-0.525-0.283-1.152-0.56-1.801-0.792l-0.099-0.031c-0.92-0.321-1.871-0.547-2.837-0.673l-0.119-0.016-0.12-0.013c-0.034-0.005-0.112-0.014-0.19-0.022l-0.374-0.031c-0.087-0.008-0.205-0.015-0.323-0.019l-0.017-0.001c-0.041-0.004-0.083-0.004-0.124-0.005zM6.376 5.997c-0.68 0.445-1.272 0.911-1.821 1.423l0.008-0.007 5.972 5.972c0.065-0.053 0.131-0.104 0.199-0.155l-0.015-0.024zM4.149 7.811c-0.067 0.067-0.131 0.137-0.196 0.205l-0.199 0.207c-0.44 0.476-0.84 0.973-1.203 1.491l-0.052 0.075c-0.067 0.094-0.162 0.235-0.254 0.379l-0.034 0.056c-1.288 1.995-2.094 4.411-2.199 7.007l-0.001 0.028-0.008 0.287-0.004 0.285h8.423c0-0.096 0.009-0.191 0.013-0.285 0.007-0.096 0.008-0.192 0.017-0.287 0.108-1.096 0.532-2.167 1.269-3.067 0.060-0.073 0.128-0.141 0.192-0.213 0.064-0.069 0.124-0.143 0.192-0.211zM25.823 9.763l-6.217 6.217c0.141 0.416 0.233 0.845 0.28 1.279h8.443l-0.005-0.125c-0.013-0.249-0.028-0.46-0.047-0.669l0.005 0.061-0.007-0.069c-0.017-0.184-0.030-0.295-0.043-0.405l0.008 0.083v-0.012l-0.044-0.32v-0.012c-0.112-0.766-0.264-1.438-0.462-2.091l0.026 0.1-0.004-0.013c-0.071-0.251-0.102-0.352-0.135-0.453l0.042 0.149-0.013-0.040c-0.070-0.223-0.101-0.314-0.133-0.404l0.041 0.132-0.027-0.073c-0.078-0.235-0.147-0.414-0.223-0.589l0.019 0.049c-0.065-0.171-0.107-0.271-0.15-0.37l0.026 0.067c-0.084-0.206-0.112-0.269-0.141-0.332l0.057 0.14-0.049-0.108c-0.083-0.188-0.118-0.263-0.154-0.337l0.048 0.109-0.032-0.069-0.128-0.259-0.019-0.036c-0.088-0.175-0.138-0.268-0.188-0.36l0.039 0.077-0.005-0.011c-0.281-0.514-0.547-0.941-0.836-1.352l0.030 0.045zM19.916 17.829c0 0.095-0.008 0.189-0.013 0.285-0.004 0.096-0.007 0.191-0.016 0.285-0.119 1.178-0.578 2.23-1.277 3.078l0.008-0.010c-0.060 0.073-0.128 0.143-0.192 0.213s-0.124 0.144-0.192 0.212l5.956 5.956c0.068-0.068 0.132-0.139 0.197-0.207 0.067-0.069 0.133-0.137 0.197-0.207 0.441-0.477 0.844-0.977 1.207-1.496l0.043-0.061 0.131-0.192 0.113-0.173 0.053-0.084c1.286-1.994 2.090-4.408 2.195-7.002l0.001-0.028c0.004-0.095 0.005-0.191 0.008-0.285 0.001-0.095 0.005-0.191 0.005-0.285zM0.013 18.4l0.005 0.124 0.013 0.239 0.007 0.101 0.023 0.275 0.007 0.061c0.009 0.101 0.020 0.204 0.032 0.304l0.004 0.029c0.020 0.176 0.036 0.289 0.053 0.401l-0.009-0.071c0.096 0.673 0.243 1.34 0.436 1.996l0.003 0.008c0.029 0.103 0.063 0.205 0.095 0.307l0.005 0.019 0.007 0.019c0.11 0.343 0.179 0.537 0.251 0.73l-0.047-0.145 0.040 0.107 0.079 0.197c0.065 0.17 0.106 0.271 0.15 0.37l-0.026-0.066 0.083 0.187 0.051 0.112 0.104 0.225 0.036 0.072c0.133 0.279 0.233 0.472 0.337 0.662l-0.037-0.074 0.033 0.057 7.237-4.36c-0.267-0.549-0.454-1.188-0.525-1.86l-0.002-0.025h-0.033zM0.687 22.195l-0.275 0.077 0.003 0.007zM9.253 20.792l-7.22 4.349c0.111 0.185 0.227 0.364 0.345 0.541l0.011 0.019 0.005 0.007 0.011 0.019h0.001c0.009 0.016 0.019 0.029 0.029 0.043l0.001 0.003v0.001c0.158 0.232 0.288 0.414 0.423 0.591l-0.026-0.035 0.008 0.011c0.147 0.196 0.274 0.356 0.404 0.512l-0.018-0.022 0.044 0.053c0.057 0.069 0.115 0.137 0.173 0.204l0.076 0.087 0.149 0.169 0.085 0.092 0.039 0.041 0.111 0.12 0.047 0.047c0.065 0.068 0.131 0.137 0.199 0.204l5.955-5.955c-0.131-0.132-0.255-0.272-0.372-0.418l-0.008-0.010c-0.162-0.197-0.318-0.417-0.459-0.648l-0.015-0.026zM17.808 22.273c-0.067 0.053-0.133 0.105-0.2 0.155l0.015 0.024 4.343 7.209c0.201-0.132 0.4-0.267 0.595-0.409 0.42-0.309 0.827-0.645 1.219-1.008l-5.947-5.947zM10.532 22.277l-5.967 5.967c0.076 0.071 0.161 0.148 0.247 0.223l0.013 0.011c0.029 0.027 0.057 0.053 0.087 0.077l0.203 0.173c0.070 0.059 0.163 0.135 0.257 0.21l0.029 0.022 0.031 0.023 0.255 0.197 0.011 0.007c0.357 0.267 0.729 0.519 1.112 0.752l0.040 0.024 0.219 0.129 0.135 0.076c0.082 0.050 0.2 0.116 0.32 0.178l0.040 0.019c0.011 0.005 0.021 0.013 0.033 0.017 0.216 0.113 0.436 0.219 0.657 0.32l0.211-0.513 3.003-7.291c-0.355-0.191-0.661-0.398-0.945-0.631l0.010 0.008zM17.133 22.748c-0.081 0.049-0.165 0.093-0.249 0.139-0.788 0.432-1.727 0.686-2.725 0.686-0.584 0-1.147-0.087-1.677-0.248l0.041 0.011c-0.092-0.027-0.18-0.063-0.271-0.095-0.089-0.032-0.181-0.059-0.269-0.096l-3.207 7.788 0.023 0.009c0.007 0.003 0.015 0.006 0.024 0.009l0.001 0 0.007 0.004c0.069 0.028 0.141 0.053 0.212 0.080 0.089 0.036 0.177 0.071 0.267 0.103l0.136 0.053c0.936 0.329 1.907 0.56 2.891 0.691l0.116 0.016 0.349 0.039c0.073 0.009 0.189 0.019 0.305 0.028l0.031 0.002c0.031 0.001 0.064 0.001 0.095 0.004l0.245 0.015 0.149 0.007c0.126 0.006 0.274 0.009 0.423 0.009 0.019 0 0.038-0 0.058-0h0.064c0.004 0 0.009 0 0.014 0 0.84 0 1.662-0.073 2.462-0.212l-0.085 0.012 0.247-0.045 0.14-0.027 0.145-0.031 0.24-0.053 0.043-0.011c1.289-0.305 2.422-0.74 3.476-1.304l-0.076 0.037c0.069-0.037 0.139-0.080 0.208-0.119 0.084-0.045 0.167-0.093 0.249-0.14 0.057-0.032 0.116-0.063 0.173-0.097h0.001l0.003-0.003 0.005-0.003 0.009-0.005 0.056-0.033-0.147-0.244-0.147-0.245zM21.483 29.967l-0.056 0.033zM21.416 30.005h-0.001z"></path>
</svg>
