<!-- Generated by IcoMoon.io -->
<svg version="1.1" xmlns="http://www.w3.org/2000/svg" width="32" height="32" viewBox="0 0 32 32">
<title>opensourceinitiative</title>
<path fill="#3da639" d="M-0.136 16.707c0.149-8.765 6.287-15.004 13.8-16.013 8.957-1.2 16.495 4.893 17.941 12.98 1.373 7.667-2.84 14.844-9.785 17.684-0.6 0.245-0.929 0.109-1.16-0.497l-3.449-8.971c-0.2-0.523-0.064-0.853 0.453-1.085 1.56-0.709 2.535-1.897 2.793-3.6 0.035-0.213 0.055-0.46 0.055-0.71 0-2.409-1.846-4.386-4.2-4.595l-0.018-0.001c-0.133-0.014-0.287-0.021-0.443-0.021-2.288 0-4.187 1.664-4.553 3.848l-0.004 0.027c-0.337 2.131 0.715 4.112 2.703 5.013 0.619 0.285 0.741 0.557 0.503 1.189l-3.467 9.029c-0.167 0.445-0.533 0.6-1 0.42-3.698-1.474-6.645-4.175-8.398-7.59l-0.042-0.090c-1.608-3.177-1.627-5.663-1.729-7.016zM1.213 16.584c0.027 0.427 0.040 0.923 0.084 1.427 0.407 4.64 3.2 9.261 8.453 11.816 0.208 0.097 0.285 0.053 0.363-0.147q1.443-3.787 2.904-7.573c0.084-0.213 0.040-0.308-0.155-0.431-2.040-1.284-3.053-3.131-2.943-5.551 0.064-1.393 0.6-2.613 1.536-3.633 1.936-2.111 4.969-2.569 7.453-1.136 1.782 1.041 2.96 2.945 2.96 5.124 0 0.25-0.016 0.497-0.046 0.74l0.003-0.029c-0.232 1.973-1.245 3.479-2.949 4.504-0.173 0.104-0.227 0.187-0.147 0.387q1.469 3.796 2.916 7.597c0.077 0.2 0.155 0.245 0.36 0.147 2.293-1.069 4.209-2.6 5.687-4.645 2.247-3.111 3.169-6.576 2.731-10.391-0.884-7.583-7.707-13.863-16.491-12.779-6.847 0.84-12.604 6.613-12.72 14.573z"></path>
</svg>
