<!-- Generated by IcoMoon.io -->
<svg version="1.1" xmlns="http://www.w3.org/2000/svg" width="32" height="32" viewBox="0 0 32 32">
<title>openvpn</title>
<path fill="#ea7e20" d="M16 0.487c-8.82 0-16 7.109-16 15.86 0 5.813 3.144 10.872 7.861 13.607l1.027-6.768c-1.516-1.653-2.449-3.863-2.461-6.289v-0.003c0-5.196 4.24-9.435 9.507-9.435 5.264 0 9.501 4.239 9.501 9.435 0 2.463-0.956 4.651-2.461 6.36l1.027 6.771c4.787-2.735 8-7.865 8-13.677 0-8.751-7.18-15.86-16-15.86zM15.933 11.361c-0.004 0-0.009-0-0.013-0-2.788 0-5.048 2.26-5.048 5.048 0 0.004 0 0.008 0 0.013v-0.001c-0 0.011-0 0.023-0 0.036 0 2.142 1.351 3.968 3.247 4.673l0.034 0.011-1.98 10.392h7.52l-1.913-10.393c1.847-0.752 3.213-2.531 3.213-4.719 0-0.004 0-0.008 0-0.012 0-2.788-2.26-5.048-5.048-5.048-0.004 0-0.008 0-0.013 0h0.001z"></path>
</svg>
