<!-- Generated by IcoMoon.io -->
<svg version="1.1" xmlns="http://www.w3.org/2000/svg" width="32" height="32" viewBox="0 0 32 32">
<title>openaccess</title>
<path fill="#f68212" d="M25.296 17.983c-0.23-0.541-0.471-0.998-0.745-1.433l0.025 0.042v-8.037c0-0.006 0-0.013 0-0.020 0-2.356-0.958-4.488-2.506-6.028l-0-0c-1.54-1.548-3.672-2.507-6.027-2.507-0.007 0-0.014 0-0.022 0h-0.002c-0.007-0-0.015-0-0.023-0-2.354 0-4.485 0.957-6.024 2.504l-0 0c-1.548 1.54-2.507 3.672-2.507 6.028 0 0.008 0 0.016 0 0.024v-0.001 1.169h3.427v-1.169c0-1.369 0.533-2.657 1.503-3.627 0.923-0.927 2.201-1.501 3.612-1.501 0.005 0 0.010 0 0.015 0h-0.001c2.831 0.004 5.125 2.297 5.129 5.128v4.678c-1.465-0.886-3.236-1.411-5.128-1.411-0.007 0-0.015 0-0.022 0h0.001c-0.004 0-0.009 0-0.014 0-2.781 0-5.299 1.129-7.119 2.954l-0 0c-1.826 1.82-2.956 4.338-2.956 7.12 0 0.005 0 0.009 0 0.014v-0.001c0 0.004 0 0.009 0 0.014 0 2.781 1.129 5.299 2.954 7.119l0 0c1.821 1.829 4.34 2.96 7.124 2.96 0.004 0 0.007 0 0.011 0h-0.001c0.004 0 0.009 0 0.014 0 2.781 0 5.299-1.129 7.119-2.954l0-0c1.826-1.82 2.956-4.338 2.956-7.12 0-0.005 0-0.010 0-0.015v0.001c0-1.361-0.267-2.683-0.793-3.931zM16 28.573c-3.673 0-6.663-2.989-6.663-6.663s2.989-6.663 6.663-6.663 6.663 2.988 6.663 6.663-2.989 6.663-6.663 6.663zM18.86 21.941c0 1.561-1.266 2.827-2.827 2.827s-2.827-1.266-2.827-2.827v0c0-1.561 1.266-2.827 2.827-2.827s2.827 1.266 2.827 2.827v0z"></path>
</svg>
