<!-- Generated by IcoMoon.io -->
<svg version="1.1" xmlns="http://www.w3.org/2000/svg" width="32" height="32" viewBox="0 0 32 32">
<title>opencollective</title>
<path fill="#7fadf2" d="M29.147 6.893c1.791 2.54 2.862 5.698 2.862 9.107s-1.071 6.567-2.896 9.157l0.034-0.050-4.133-4.133c0.811-1.433 1.289-3.147 1.289-4.973s-0.478-3.54-1.315-5.025l0.027 0.051zM25.107 2.853l-4.133 4.133c-1.43-0.801-3.138-1.273-4.956-1.273-5.678 0-10.28 4.602-10.28 10.28s4.603 10.28 10.28 10.28c1.818 0 3.526-0.472 5.008-1.3l-0.052 0.027 4.133 4.147c-2.544 1.781-5.702 2.847-9.11 2.847-8.837 0-16-7.163-16-16s7.163-16 16-16c3.408 0 6.566 1.065 9.162 2.881l-0.052-0.034zM29.147 6.893c1.791 2.54 2.862 5.698 2.862 9.107s-1.071 6.567-2.896 9.157l0.034-0.050-4.133-4.133c0.811-1.433 1.289-3.147 1.289-4.973s-0.478-3.54-1.315-5.025l0.027 0.051z"></path>
</svg>
