<!-- Generated by IcoMoon.io -->
<svg version="1.1" xmlns="http://www.w3.org/2000/svg" width="32" height="32" viewBox="0 0 32 32">
<title>opsgenie</title>
<path d="M16.003 0c0.031-0 0.067-0.001 0.103-0.001 4.409 0 7.984 3.575 7.984 7.984s-3.575 7.984-7.984 7.984c-0.036 0-0.073-0-0.109-0.001l0.006 0c-4.365-0.058-7.881-3.61-7.881-7.983s3.516-7.925 7.875-7.983l0.006-0zM28.967 17.368h-0.040l-6.036-2.989c-0.115-0.057-0.25-0.091-0.393-0.091-0.33 0-0.618 0.178-0.773 0.444l-0.002 0.004c-1.612 2.671-3.516 4.961-5.713 6.931l-0.028 0.025c-2.214-1.989-4.109-4.272-5.64-6.8l-0.075-0.133c-0.157-0.27-0.446-0.449-0.776-0.449-0.143 0-0.278 0.033-0.397 0.093l0.005-0.002-6.047 2.968h-0.040c-0.266 0.158-0.441 0.444-0.441 0.771 0 0.158 0.041 0.307 0.113 0.436l-0.002-0.005c1.757 3.009 3.767 5.605 6.067 7.911l-0.001-0.001-0.003 0.001c0.032 0.033 0.067 0.064 0.1 0.096 0.447 0.447 0.901 0.885 1.369 1.308 0.108 0.099 0.22 0.192 0.329 0.289 0.42 0.371 0.843 0.74 1.28 1.093 0.192 0.156 0.393 0.303 0.588 0.455 0.369 0.288 0.736 0.579 1.116 0.852 0.587 0.424 1.184 0.833 1.795 1.223 0.195 0.126 0.434 0.201 0.69 0.201 0.241 0 0.466-0.066 0.659-0.182l-0.006 0.003c0.649-0.416 1.283-0.853 1.904-1.307 0.091-0.067 0.176-0.137 0.267-0.204 0.477-0.355 0.951-0.716 1.413-1.093 0.312-0.253 0.613-0.52 0.917-0.784 0.227-0.196 0.453-0.388 0.675-0.589 0.393-0.357 0.773-0.727 1.152-1.1 0.081-0.080 0.169-0.157 0.251-0.239l-0.005-0.003c2.309-2.311 4.325-4.915 5.988-7.751l0.098-0.181c0.066-0.121 0.104-0.266 0.104-0.419 0-0.336-0.185-0.628-0.458-0.781l-0.005-0.002z"></path>
</svg>
