<!-- Generated by IcoMoon.io -->
<svg version="1.1" xmlns="http://www.w3.org/2000/svg" width="32" height="32" viewBox="0 0 32 32">
<title>origin</title>
<path fill="#f56c2d" d="M16.784 4.147c1.585 0.095 3.136 0.512 4.556 1.225 1.375 0.685 2.6 1.633 3.608 2.792 1.001 1.153 1.763 2.471 2.287 3.951 0.521 1.479 0.731 3.037 0.619 4.669-0.044 0.848-0.18 1.669-0.408 2.464-0.223 0.784-0.524 1.545-0.899 2.271-0.585 1.132-1.239 2.203-1.96 3.216-0.717 1.012-1.5 1.953-2.349 2.824-0.851 0.871-1.751 1.672-2.709 2.403-0.959 0.725-1.961 1.384-3.005 1.972l-0.049 0.035c-0.044 0.024-0.095 0.035-0.145 0.031-0.084-0.020-0.157-0.064-0.212-0.129-0.055-0.067-0.084-0.148-0.083-0.231 0-0.039 0.005-0.079 0.016-0.113 0.011-0.031 0.028-0.059 0.049-0.083 0.369-0.524 0.675-1.075 0.915-1.647 0.241-0.579 0.404-1.18 0.491-1.812 0-0.043-0.020-0.085-0.051-0.113-0.028-0.033-0.071-0.051-0.113-0.051-0.352 0.043-0.704 0.071-1.060 0.083-0.355 0.012-0.709-0.004-1.061-0.049-1.585-0.095-3.137-0.513-4.557-1.224-1.375-0.687-2.599-1.635-3.607-2.793-1.005-1.16-1.781-2.5-2.287-3.951-0.525-1.497-0.736-3.085-0.62-4.669 0.044-0.848 0.18-1.669 0.408-2.464 0.228-0.797 0.528-1.54 0.9-2.24 0.585-1.152 1.241-2.235 1.959-3.248 0.719-1.009 1.5-1.952 2.348-2.824 0.852-0.869 1.752-1.669 2.711-2.4 0.96-0.728 1.96-1.385 3.004-1.972l0.051-0.033c0.044-0.027 0.093-0.036 0.145-0.033 0.087 0.021 0.159 0.068 0.211 0.131 0.057 0.068 0.083 0.141 0.083 0.232 0.001 0.036-0.004 0.076-0.016 0.112-0.009 0.031-0.027 0.057-0.048 0.081-0.364 0.515-0.673 1.068-0.916 1.649-0.241 0.577-0.4 1.18-0.488 1.811 0 0.044 0.016 0.084 0.048 0.115 0.029 0.032 0.072 0.049 0.113 0.049 0.349-0.044 0.703-0.071 1.060-0.081 0.363-0.012 0.715 0.004 1.064 0.047zM15.708 20.636c1.229 0.105 2.451-0.308 3.361-1.14 0.96-0.852 1.479-1.917 1.568-3.2 0.104-1.237-0.309-2.461-1.141-3.38-0.801-0.944-1.963-1.508-3.2-1.549-1.236-0.104-2.46 0.309-3.379 1.14-0.945 0.803-1.509 1.964-1.552 3.2-0.104 1.235 0.304 2.456 1.128 3.38 0.837 0.967 1.909 1.487 3.215 1.549z"></path>
</svg>
