<!-- Generated by IcoMoon.io -->
<svg version="1.1" xmlns="http://www.w3.org/2000/svg" width="32" height="32" viewBox="0 0 32 32">
<title>osmc</title>
<path d="M30.357 16.003c0 7.913-6.439 14.357-14.357 14.357-7.913-0.007-14.351-6.444-14.351-14.357 0-7.92 6.437-14.356 14.357-14.356 7.912 0 14.351 6.437 14.351 14.356zM30.747 9.772c-0.846-1.977-2.002-3.665-3.426-5.084l-0-0c-1.42-1.423-3.108-2.579-4.98-3.387l-0.104-0.040c-1.826-0.797-3.953-1.261-6.188-1.261-0.015 0-0.029 0-0.044 0h0.002c-0.012-0-0.026-0-0.040-0-4.406 0-8.394 1.792-11.274 4.687l-0.001 0.001c-1.424 1.421-2.58 3.108-3.388 4.982l-0.040 0.104c-0.84 1.975-1.261 4.067-1.261 6.229s0.421 4.256 1.256 6.231c0.846 1.977 2.002 3.665 3.426 5.084l0 0c2.888 2.893 6.88 4.683 11.29 4.683 0.009 0 0.018 0 0.026-0h-0.001c2.159 0 4.255-0.427 6.231-1.256 1.977-0.846 3.665-2.002 5.084-3.426l0-0c2.893-2.888 4.683-6.88 4.683-11.29 0-0.009 0-0.018-0-0.026v0.001c0-2.164-0.415-4.255-1.251-6.231zM11.421 19.508v-7.157l3.432 3.579zM9.769 8.395v15.229l10.821-11.273v9.023c0 0.457 0.372 0.824 0.823 0.824 0.458 0 0.829-0.371 0.829-0.829v0-12.987l-6.236 6.36z"></path>
</svg>
