<!-- Generated by IcoMoon.io -->
<svg version="1.1" xmlns="http://www.w3.org/2000/svg" width="32" height="32" viewBox="0 0 32 32">
<title>overcast</title>
<path fill="#fc7e0f" d="M16 32c-8.815 0.024-15.977-7.105-16-15.919v-0.081c0-8.867 7.135-16 16-16s16 7.133 16 16c0 8.865-7.135 16-16 16zM16 25.665l1.2-1.199-1.2-4.6-1.2 4.6zM14.467 25.599l-0.6 2.268 1.4-1.403zM17.533 25.599l-0.8 0.801 1.4 1.401zM18.667 29.735l-2.667-2.668-2.667 2.668c0.867 0.133 1.733 0.265 2.667 0.265s1.8-0.067 2.667-0.265zM16 2c-7.732 0-14 6.268-14 14-0.011 5.957 3.767 11.261 9.401 13.199l3-11.133c-0.681-0.496-1.079-1.291-1.068-2.133 0-1.468 1.2-2.668 2.667-2.668s2.667 1.2 2.667 2.668c0 0.865-0.401 1.6-1.068 2.133l3 11.133c5.636-1.937 9.413-7.243 9.401-13.199 0-7.732-6.268-14-14-14zM25.133 22.933c-0.34 0.425-0.952 0.513-1.399 0.2-0.417-0.276-0.533-0.837-0.259-1.255 0.019-0.028 0.037-0.053 0.059-0.080 0 0 1.8-2.399 1.8-5.8s-1.8-5.8-1.8-5.8c-0.319-0.385-0.264-0.959 0.121-1.276 0.027-0.021 0.052-0.041 0.080-0.059 0.447-0.313 1.059-0.225 1.399 0.2 0.133 0.135 2.2 2.867 2.2 6.933s-2.069 6.803-2.201 6.936zM20.265 20.333c-0.4-0.4-0.332-1.133 0.068-1.533 0 0 1-1.065 1-2.8s-1-2.735-1-2.8c-0.4-0.401-0.4-1.068-0.068-1.533 0.309-0.404 0.888-0.476 1.292-0.167 0.039 0.029 0.075 0.063 0.109 0.099 0.068 0.068 1.667 1.735 1.667 4.401s-1.599 4.333-1.667 4.401c-0.401 0.399-1 0.333-1.401-0.068zM11.735 20.333c-0.401 0.401-1 0.467-1.401 0.068-0.068-0.136-1.667-1.735-1.667-4.401s1.599-4.265 1.667-4.401c0.401-0.399 1.068-0.399 1.401 0.068 0.4 0.4 0.332 1.133-0.068 1.533 0 0.065-1 1.065-1 2.8s1 2.8 1 2.8c0.4 0.4 0.468 1.065 0.068 1.533zM8.265 23.135c-0.447 0.312-1.059 0.225-1.4-0.2-0.131-0.135-2.199-2.868-2.199-6.935s2.068-6.8 2.199-6.933c0.341-0.425 0.953-0.515 1.4-0.2 0.417 0.275 0.533 0.837 0.259 1.255-0.017 0.027-0.037 0.053-0.057 0.079 0 0-1.8 2.399-1.8 5.8s1.8 5.8 1.8 5.8c0.333 0.4 0.2 1-0.201 1.335z"></path>
</svg>
