<!-- Generated by IcoMoon.io -->
<svg version="1.1" xmlns="http://www.w3.org/2000/svg" width="32" height="32" viewBox="0 0 32 32">
<title>overleaf</title>
<path fill="#47a141" d="M9.816 8.039c-4.423 2.67-7.385 7.372-7.591 12.779l-0.001 0.029c0.005 6.158 4.998 11.149 11.157 11.149 6.162 0 11.157-4.995 11.157-11.157 0-4.73-2.944-8.773-7.099-10.396l-0.076-0.026c-1.142-0.474-2.467-0.75-3.858-0.75-0.036 0-0.072 0-0.108 0.001l0.005-0c-2.401 1.638-4.31 3.829-5.57 6.396l-0.043 0.097c1.353-1.606 3.366-2.62 5.615-2.62 4.047 0 7.328 3.281 7.328 7.328s-3.281 7.328-7.328 7.328c-0.009 0-0.017 0-0.026-0h0.001c-0.004 0-0.009 0-0.013 0-2.228 0-4.224-0.994-5.568-2.563l-0.008-0.010c-1.396-1.551-2.249-3.614-2.249-5.877 0-0.544 0.049-1.077 0.144-1.594l-0.008 0.054c1.431-8.56 11.685-13.489 19.277-15.404-3.923 1.901-7.239 3.842-10.39 6.006l0.268-0.174c9.177 3.543 10.652-4.181 14.943-7.637-4.269-1.672-19.937-2.288-19.96 7.043z"></path>
</svg>
