<!-- Generated by IcoMoon.io -->
<svg version="1.1" xmlns="http://www.w3.org/2000/svg" width="32" height="32" viewBox="0 0 32 32">
<title>palantir</title>
<path d="M26.863 24l-10.863 4.237-10.863-4.237-1.804 3.124 12.667 4.876 12.667-4.876zM16 0c-6.996 0-12.667 5.671-12.667 12.667s5.671 12.667 12.667 12.667v0c6.996 0 12.667-5.671 12.667-12.667s-5.671-12.667-12.667-12.667v0zM16 21.437c-4.837 0-8.757-3.921-8.757-8.757s3.921-8.757 8.757-8.757v0c4.837 0 8.757 3.921 8.757 8.757s-3.921 8.757-8.757 8.757v0z"></path>
</svg>
