<!-- Generated by IcoMoon.io -->
<svg version="1.1" xmlns="http://www.w3.org/2000/svg" width="32" height="32" viewBox="0 0 32 32">
<title>paloaltosoftware</title>
<path fill="#83da77" d="M2.101 19.264l10.629-10.816c0.824-0.821 1.961-1.328 3.217-1.328s2.392 0.508 3.217 1.329l10.723 10.723 1.12-1.12c1.212-1.119 1.212-2.983 0.093-4.195l-12.963-12.867c-1.213-1.213-3.077-1.213-4.289 0l-12.867 12.867c-1.213 1.212-1.213 3.076 0 4.288zM18.139 9.567c-1.213-1.213-3.077-1.213-4.289 0l-12.867 12.867c-1.213 1.213-1.213 3.077 0 4.289l4.288 4.289c1.213 1.212 3.077 1.212 4.289 0l6.433-6.435 6.435 6.435c1.212 1.212 3.076 1.212 4.288 0l4.289-4.289c1.213-1.119 1.213-3.077 0.093-4.289z"></path>
</svg>
