<!-- Generated by IcoMoon.io -->
<svg version="1.1" xmlns="http://www.w3.org/2000/svg" width="32" height="32" viewBox="0 0 32 32">
<title>pantheon</title>
<path fill="#efd01b" d="M9.677 0l2.94 6.895h-3.743l1.239 3.035h7.585zM9.452 10.631c-0.42 0-0.649 0-0.839 0.608-0.228 0.727-0.253 2.095-0.253 4.761s0.027 4.036 0.253 4.761c0.189 0.608 0.419 0.608 0.839 0.608h4.78l-2.367-5.604h2.119l-1.188-2.8h0.569l1.189 2.801h2.525l-2.183-5.137zM13.983 15.765l0.001 0.003 0.004-0.003zM15.435 10.631l0.991 2.336h4.233c0.092 0 0.307-0.113 0.307-1.169s-0.213-1.168-0.307-1.168zM16.624 13.431l0.991 2.336h3.509c0.093 0 0.307-0.113 0.307-1.169s-0.213-1.168-0.307-1.168zM12.627 16.233l2.477 5.836h-4.409l8.153 9.932-2.94-6.896h3.741l-1.252-3.035h-1.736l-2.48-5.836zM14.752 16.233l0.991 2.336h5.384c0.093 0 0.307-0.113 0.307-1.168s-0.215-1.169-0.308-1.169zM15.939 19.035l0.993 2.335h3.729c0.092 0 0.307-0.113 0.307-1.168s-0.217-1.168-0.308-1.168zM22.667 19.713c-0.138 0-0.269 0.030-0.387 0.082l0.013-0.005c-0.231 0.101-0.412 0.281-0.512 0.504l-0.003 0.006-0.003 0.007c-0.049 0.108-0.077 0.234-0.077 0.367 0 0.002 0 0.004 0 0.005v-0 0.009c0 0.135 0.028 0.263 0.080 0.379l-0.003-0.005c0.101 0.231 0.281 0.412 0.504 0.512l0.006 0.003 0.007 0.003c0.111 0.050 0.241 0.079 0.378 0.079 0.139 0 0.271-0.030 0.39-0.084l-0.006 0.002-0.007 0.003c0.231-0.101 0.412-0.281 0.512-0.504l0.003-0.006 0.003-0.007c0.050-0.111 0.079-0.241 0.079-0.378 0-0.139-0.030-0.271-0.084-0.39l0.002 0.006 0.003 0.007c-0.101-0.231-0.281-0.412-0.504-0.512l-0.006-0.003-0.007-0.003c-0.11-0.049-0.238-0.077-0.373-0.077-0.001 0-0.003 0-0.004 0h0zM22.669 19.885c0.112 0 0.219 0.023 0.316 0.065l-0.005-0.003c0.19 0.083 0.34 0.231 0.422 0.415l0.002 0.005 0.003 0.005c0.041 0.091 0.064 0.198 0.064 0.31 0 0.115-0.025 0.223-0.069 0.321l0.002-0.005 0.003-0.005c-0.082 0.191-0.23 0.34-0.415 0.422l-0.005 0.002-0.005 0.003c-0.091 0.041-0.198 0.064-0.31 0.064-0.115 0-0.223-0.025-0.321-0.069l0.005 0.002 0.005 0.003c-0.191-0.082-0.34-0.23-0.422-0.415l-0.002-0.005-0.003-0.005c-0.040-0.089-0.063-0.194-0.063-0.303 0-0.001 0-0.003 0-0.004v0-0.005h0.001v-0.007c0-0.109 0.023-0.213 0.064-0.308l-0.001 0.005c0.082-0.191 0.23-0.34 0.415-0.422l0.005-0.002 0.005-0.001c0.091-0.040 0.196-0.063 0.307-0.063 0.001 0 0.003 0 0.004 0h-0zM22.767 20.123h-0.008l-0.036 0.001h-0.427l-0.001 0.001v1.109h0.204v-0.455h0.149l0.276 0.455h0.213l-0.287-0.471c0.074-0.007 0.14-0.039 0.189-0.087l-0 0c0.047-0.052 0.076-0.121 0.076-0.197v-0l-0.001-0.024v-0.019c-0-0.089-0.037-0.17-0.096-0.228l-0-0c-0.069-0.053-0.157-0.085-0.252-0.087h-0zM22.499 20.304h0.244c0.032 0.001 0.061 0.008 0.088 0.019l-0.002-0.001h-0.001c0.025 0.011 0.045 0.027 0.061 0.047 0.015 0.025 0.024 0.054 0.024 0.086s-0.009 0.061-0.024 0.087l0-0.001v-0.001c-0.016 0.020-0.036 0.036-0.059 0.046l-0.001 0h-0.001c-0.025 0.011-0.053 0.017-0.083 0.019l-0.001 0h-0.245z"></path>
</svg>
