<!-- Generated by IcoMoon.io -->
<svg version="1.1" xmlns="http://www.w3.org/2000/svg" width="32" height="32" viewBox="0 0 32 32">
<title>parse-dot-ly</title>
<path fill="#5ba745" d="M12.831 25.508c0-0.085 0-0.164-0.031-0.255-0.137-0.988-0.5-1.932-1.061-2.76-0.357-0.453-0.769-0.861-1.227-1.216-0.135-0.104-0.252-0.055-0.257 0.109l-0.116 1.708c0 0.164-0.196 0.171-0.245 0l-0.761-2.401c-0.035-0.087-0.088-0.167-0.153-0.233-0.067-0.067-0.145-0.12-0.233-0.156-0.509-0.175-1.031-0.315-1.559-0.42-0.7-0.121-1.712-0.188-1.712-0.188-0.172 0-0.227 0.103-0.129 0.237l1.043 1.879c0.099 0.14 0 0.273-0.147 0.164l-2.271-1.824c-0.212-0.137-0.449-0.229-0.699-0.271s-0.504-0.032-0.749 0.028c-0.503 0.079-1.227 0.231-1.227 0.231-0.079 0.017-0.149 0.063-0.196 0.128-0.049 0.063-0.073 0.14-0.068 0.219 0 0 0.055 0.729 0.116 1.216 0.007 0.248 0.065 0.492 0.171 0.716s0.256 0.425 0.443 0.591l2.363 1.672c0.147 0.097 0.043 0.243-0.116 0.183l-2.104-0.468c-0.16-0.061-0.252 0-0.203 0.183 0 0 0.349 0.948 0.656 1.575 0.26 0.491 0.555 0.961 0.884 1.411 0.059 0.073 0.131 0.133 0.213 0.177 0.083 0.045 0.172 0.073 0.265 0.084l2.54 0.061c0.165 0 0.208 0.188 0.055 0.237l-1.625 0.608c-0.16 0.048-0.172 0.171-0.037 0.273 0.476 0.336 0.991 0.615 1.533 0.827 0.96 0.308 1.977 0.393 2.976 0.249 0.743-0.104 1.475-0.277 2.184-0.517-0.027-0.201-0.041-0.404-0.043-0.608 0.003-0.651 0.141-1.293 0.409-1.888 0.267-0.595 0.657-1.127 1.144-1.564zM30.956 20.517c0.003-0.079-0.021-0.156-0.068-0.219-0.048-0.065-0.117-0.111-0.196-0.128 0 0-0.724-0.152-1.227-0.225-0.244-0.060-0.497-0.071-0.745-0.029s-0.485 0.132-0.696 0.267l-2.271 1.824c-0.135 0.109-0.245 0-0.147-0.164l1.037-1.879c0.104-0.133 0.049-0.243-0.123-0.237 0 0-1.012 0.067-1.712 0.188-0.528 0.105-1.049 0.245-1.559 0.42-0.087 0.036-0.167 0.089-0.233 0.156s-0.119 0.145-0.153 0.233l-0.761 2.395c-0.049 0.159-0.239 0.152-0.245 0l-0.123-1.708c0-0.164-0.116-0.213-0.252-0.109-0.457 0.355-0.869 0.763-1.227 1.216-0.56 0.82-0.924 1.755-1.061 2.736 0 0.091 0 0.171 0 0.255 0.487 0.436 0.876 0.969 1.143 1.564s0.404 1.239 0.404 1.889c-0.001 0.203-0.016 0.407-0.043 0.608 0.712 0.239 1.445 0.412 2.191 0.517 0.999 0.144 2.016 0.059 2.976-0.249 0.544-0.213 1.059-0.491 1.533-0.827 0.135-0.103 0.123-0.225-0.037-0.273l-1.625-0.608c-0.153-0.048-0.111-0.231 0.055-0.237l2.535-0.061c0.095-0.008 0.187-0.036 0.271-0.080 0.084-0.045 0.156-0.107 0.215-0.181 0.303-0.437 0.575-0.895 0.816-1.368 0.313-0.608 0.663-1.575 0.663-1.575 0.049-0.157-0.043-0.243-0.203-0.183l-2.104 0.468c-0.165 0.061-0.264-0.085-0.123-0.183l2.38-1.672c0.187-0.165 0.337-0.367 0.443-0.591 0.105-0.225 0.164-0.468 0.171-0.716 0.061-0.504 0.116-1.216 0.116-1.216zM24.305 12.572c0-0.261-0.172-0.359-0.405-0.213l-2.455 1.325c-0.227 0.145-0.276-0.133-0.111-0.347l2.344-3.1c0.085-0.121 0.143-0.26 0.168-0.407 0.024-0.147 0.016-0.296-0.027-0.439-0.307-0.836-0.673-1.648-1.099-2.432-0.428-0.688-0.904-1.347-1.424-1.969-0.165-0.207-0.368-0.171-0.455 0.079l-1.147 2.839c-0.085 0.249-0.301 0.243-0.295 0l0.135-4.456c-0.003-0.316-0.125-0.62-0.344-0.851 0 0-0.681-0.681-1.227-1.179-0.545-0.499-1.564-1.288-1.564-1.288-0.108-0.087-0.245-0.135-0.385-0.135-0.141 0-0.277 0.048-0.387 0.136 0 0-0.963 0.748-1.589 1.288-0.625 0.541-1.227 1.173-1.227 1.173-0.221 0.221-0.352 0.516-0.368 0.827l0.14 4.456c0 0.268-0.208 0.273-0.301 0l-1.147-2.808c-0.080-0.249-0.288-0.285-0.455-0.073-0.548 0.661-1.047 1.363-1.489 2.097-0.404 0.74-0.753 1.508-1.044 2.297-0.039 0.14-0.048 0.288-0.024 0.431 0.023 0.144 0.077 0.281 0.16 0.401l2.356 3.112c0.165 0.213 0.116 0.492-0.116 0.347l-2.456-1.324c-0.227-0.147-0.416-0.049-0.411 0.212 0.020 0.86 0.16 1.713 0.417 2.535 0.58 1.487 1.507 2.815 2.705 3.879 1.576 1.612 2.853 3.487 3.773 5.537 0.936-0.3 1.943-0.3 2.877 0 0.917-2.045 2.185-3.917 3.749-5.532 1.097-0.975 1.972-2.171 2.565-3.507 0.337-0.935 0.525-1.915 0.559-2.905zM19.077 28.961c0 0.601-0.18 1.189-0.517 1.688-0.337 0.5-0.816 0.889-1.377 1.12-0.56 0.231-1.177 0.291-1.772 0.173s-1.141-0.407-1.571-0.832-0.721-0.967-0.84-1.556-0.057-1.2 0.175-1.756 0.625-1.031 1.129-1.364 1.097-0.512 1.704-0.512c0.813 0 1.593 0.32 2.169 0.891 0.577 0.568 0.9 1.341 0.9 2.148z"></path>
</svg>
