<!-- Generated by IcoMoon.io -->
<svg version="1.1" xmlns="http://www.w3.org/2000/svg" width="32" height="32" viewBox="0 0 32 32">
<title>password</title>
<path fill="#0094f5" d="M14.013 13.351v-3.619c0-0.408 0.331-0.739 0.739-0.739h2.548c0.408 0 0.739 0.331 0.739 0.739v6.624c0 0.101-0.051 0.179-0.101 0.255l-0.637 0.637c-0.153 0.153-0.153 0.383 0 0.509l0.637 0.637c0.076 0.076 0.101 0.153 0.101 0.255v3.617c0 0.408-0.331 0.739-0.739 0.739h-2.548c-0.408 0-0.739-0.331-0.739-0.739v-6.624c0-0.101 0.051-0.179 0.101-0.255l0.637-0.637c0.153-0.153 0.153-0.383 0-0.509l-0.637-0.637c-0.076-0.076-0.101-0.152-0.101-0.253zM25.503 16c0-5.248-4.255-9.503-9.503-9.503s-9.503 4.255-9.503 9.503 4.255 9.503 9.503 9.503 9.503-4.255 9.503-9.503zM28.509 16c0 6.904-5.605 12.484-12.484 12.484-6.904 0-12.484-5.605-12.484-12.484 0-6.904 5.605-12.484 12.484-12.484s12.484 5.58 12.484 12.484zM1.019 16c0 8.28 6.7 14.981 14.981 14.981s14.981-6.701 14.981-14.981-6.701-14.981-14.981-14.981-14.981 6.701-14.981 14.981zM0 16c0-8.841 7.159-16 16-16s16 7.159 16 16-7.159 16-16 16-16-7.159-16-16z"></path>
</svg>
