<!-- Generated by IcoMoon.io -->
<svg version="1.1" xmlns="http://www.w3.org/2000/svg" width="32" height="32" viewBox="0 0 32 32">
<title>periscope</title>
<path fill="#40a4c4" d="M16.18 32c2.5 0 12.419-11.252 12.419-18.795 0-7.219-5.639-13.205-12.419-13.205-7.14 0-12.779 5.984-12.779 13.205 0 7.541 9.919 18.795 12.779 18.795zM14.185 5.128c0.647-0.16 1.327-0.247 2.032-0.247 4 0 7.441 3.401 7.441 7.82 0 3.98-3.441 7.38-7.461 7.38-4.46 0-7.9-3.4-7.9-7.38 0-1.861 0.6-3.52 1.639-4.84v0.040c0 1.66 1.341 2.979 3 2.979 1.661 0.001 3.064-1.36 3.064-3.019 0-1.225-0.747-2.277-1.812-2.737z"></path>
</svg>
