<!-- Generated by IcoMoon.io -->
<svg version="1.1" xmlns="http://www.w3.org/2000/svg" width="32" height="32" viewBox="0 0 32 32">
<title>picarto-dot-tv</title>
<path fill="#1da456" d="M16 0c-8.836 0-16 7.164-16 16s7.164 16 16 16c8.837 0 16-7.164 16-16s-7.163-16-16-16zM9.44 5.576h3.708c0.311 0 0.56 0.28 0.56 0.627v19.595c0 0.347-0.249 0.627-0.56 0.627h-3.707c-0.311 0-0.56-0.28-0.56-0.627v-19.595c0-0.347 0.249-0.627 0.559-0.627zM15.659 5.576c0.001 0 0.001 0 0.002 0 0.16 0 0.309 0.045 0.436 0.123l-0.004-0.002c0.473 0.279 9.935 5.893 10.743 6.373 0.238 0.143 0.395 0.399 0.395 0.693s-0.157 0.55-0.391 0.691l-0.004 0.002c-0.581 0.352-10.077 5.993-10.765 6.385-0.113 0.069-0.249 0.109-0.395 0.109-0.425 0-0.769-0.344-0.769-0.769 0-0.008 0-0.016 0-0.024l-0 0.001v-2.416c0-2.283 3.949-2.935 4.531-3.287 0.238-0.143 0.396-0.4 0.396-0.693s-0.157-0.551-0.392-0.691l-0.004-0.002c-0.807-0.48-4.531-0.995-4.531-3.269v-2.413c0-0.445 0.335-0.807 0.752-0.811z"></path>
</svg>
