<!-- Generated by IcoMoon.io -->
<svg version="1.1" xmlns="http://www.w3.org/2000/svg" width="32" height="32" viewBox="0 0 32 32">
<title>pingdom</title>
<path fill="#fff000" d="M15.947 23.739l10.612-4.528-9.399 9.655c-0.165-1.753-0.576-3.48-1.213-5.125zM32 14.824c-6.801-0.315-13.611 0.552-20.116 2.56 1.365 1.431 2.508 3.056 3.38 4.828 5.389-3 12.861-6.831 16.736-7.375v-0.020zM15.235 15.191l0.276-0.080c2.051-0.612 4.065-1.353 6.031-2.208 1.989-0.78 3.861-1.84 5.545-3.156 1.793-1.425 3.14-3.332 3.887-5.496 0.16-0.356 0.281-0.732 0.356-1.116-2.699 3.68-13.388 4.064-13.388 4.064l2.52-2.312c-7.341 0.025-14.501 2.345-20.461 6.64 4.040 0.429 7.836 2.128 10.852 4.845 1.448-0.448 2.928-0.768 4.381-1.172v-0.008z"></path>
</svg>
