<!-- Generated by IcoMoon.io -->
<svg version="1.1" xmlns="http://www.w3.org/2000/svg" width="32" height="32" viewBox="0 0 32 32">
<title>pivotaltracker</title>
<path fill="#517a9e" d="M16.003 0c-8.823 0-16 7.176-16 15.997 0 8.824 7.179 16.003 16 16.003s15.997-7.179 15.997-16.003c0-8.821-7.175-15.997-15.997-15.997zM16.003 3.24c7.046 0 12.757 5.712 12.757 12.757v0c0 7.048-5.711 12.763-12.757 12.763s-12.76-5.715-12.76-12.763c0-7.047 5.713-12.757 12.76-12.757zM15.823 4.987l-4.060 2.347 3.573 6.187c0.567-0.151 1.184-0.107 1.747 0.157l1.88-3.256zM21.383 7.995l-3.573 6.191c0.433 0.432 0.693 0.999 0.743 1.593h3.755l3.141-5.435zM6.375 10.645v4.733h0.003v-0.040h7.147c0.161-0.599 0.52-1.098 1-1.435l0.008-0.005-1.879-3.253zM9.691 16.221l-3.141 5.432 4.065 2.349 3.576-6.193c-0.412-0.412-0.685-0.964-0.742-1.578l-0.001-0.010zM18.477 16.661c-0.162 0.598-0.52 1.096-1 1.432l-0.008 0.005 1.88 3.256h6.276v-4.693zM14.917 18.32l-1.88 3.256 3.137 5.435 4.065-2.347-3.573-6.187c-0.567 0.152-1.187 0.107-1.749-0.157z"></path>
</svg>
