<!-- Generated by IcoMoon.io -->
<svg version="1.1" xmlns="http://www.w3.org/2000/svg" width="32" height="32" viewBox="0 0 32 32">
<title>pjsip</title>
<path fill="#f86001" d="M7.029 27.416h6.571l3.543 3.543c1.164 1.165 2.819 1.385 3.709 0.495l10.601-10.601c0.891-0.891 0.671-2.545-0.493-3.709l-16.104-16.101c-1.163-1.165-2.817-1.385-3.709-0.495l-10.6 10.6c-0.891 0.891-0.671 2.545 0.493 3.709l5.989 5.989zM9.885 24.56v-5.024l-1.173-1.173h0.021l-3.343-3.343c-1.164-1.164-1.385-2.819-0.495-3.709l6.415-6.415c0.891-0.891 2.545-0.669 3.709 0.495l11.589 11.589c1.164 1.164 1.385 2.819 0.495 3.709l-6.415 6.415c-0.584 0.584-1.493 0.681-2.381 0.359 0.443-0.74 0.737-1.98 0.747-3.389 0.001-0.142-0.001-0.283-0.005-0.421l0 0.017c-0.272-0.571-0.627-0.918-1.016-0.921-0.402-0.003-0.773 0.362-1.062 0.97l0.002-0.005c-0.506 0.065-0.952 0.703-1.238 1.658l-0.003 0.011-0.824-0.823zM6.896 14.987c0.393 0.393 0.935 0.636 1.535 0.636s1.142-0.243 1.535-0.636v0c0.393-0.393 0.636-0.935 0.636-1.535s-0.243-1.142-0.636-1.535v0c-0.393-0.393-0.936-0.636-1.535-0.636s-1.142 0.243-1.535 0.636v0c-0.392 0.393-0.635 0.935-0.635 1.534s0.243 1.142 0.636 1.535v0z"></path>
</svg>
