<!-- Generated by IcoMoon.io -->
<svg version="1.1" xmlns="http://www.w3.org/2000/svg" width="32" height="32" viewBox="0 0 32 32">
<title>plangrid</title>
<path fill="#0085de" d="M22.133 0c3.467 0 5.683 0.012 7.771 2.099 2.083 2.089 2.096 4.293 2.096 7.769v12.267c0 3.467-0.013 5.681-2.099 7.771-2.089 2.083-4.292 2.095-7.771 2.095h-12.267c-3.465 0-5.68-0.012-7.769-2.099-2.081-2.087-2.095-4.292-2.095-7.769v-12.267c0-3.465 0.013-5.681 2.099-7.769 2.089-2.083 4.292-2.096 7.768-2.096h12.268zM27.997 14.868c-0.571-6.097-5.752-10.865-11.997-10.865-6.628 0-12 5.369-12 11.997 0 6.401 5.003 11.645 11.313 12h9.515c1.751-0.004 3.167-1.421 3.172-3.175v-9.96zM24.951 26.32c-0.752 0-1.364-0.613-1.364-1.365 0-0.755 0.612-1.365 1.364-1.365 0.755 0 1.367 0.611 1.367 1.365 0 0.752-0.612 1.365-1.367 1.365zM16 25.265c-5.116-0.005-9.26-4.151-9.265-9.265 0.005-5.115 4.149-9.26 9.265-9.265 5.115 0.005 9.26 4.151 9.265 9.265-0.005 5.115-4.151 9.26-9.265 9.265z"></path>
</svg>
