<!-- Generated by IcoMoon.io -->
<svg version="1.1" xmlns="http://www.w3.org/2000/svg" width="32" height="32" viewBox="0 0 32 32">
<title>playerfm</title>
<path fill="#c8122a" d="M15.968 0c-0.179 0.004-0.34 0.009-0.501 0.018l0.038-0.002c-0.431 0.028-1.028 0.084-1.505 0.147-4.387 0.597-8.128 2.8-10.657 6.080-0.585 0.752-1.126 1.6-1.585 2.496l-0.042 0.091c-0.038 0.065-0.115 0.222-0.189 0.38l-0.041 0.098c-0.123 0.264-0.239 0.533-0.348 0.804-0.103 0.236-0.233 0.584-0.351 0.938l-0.033 0.113-0.060 0.191c-0.437 1.384-0.69 2.977-0.693 4.628v0.051c0.017 8.823 7.174 15.969 16 15.969 0 0 0 0 0 0v0c0 0 0 0 0 0 8.268 0 15.072-6.272 15.913-14.318l0.006-0.069 0.004-0.032c0.049-0.466 0.077-1.008 0.077-1.557v-0.065c-0.008-2.005-0.383-3.921-1.062-5.685l0.037 0.109c-0.053-0.14-0.108-0.28-0.167-0.417-0.136-0.33-0.237-0.552-0.343-0.772l0.042 0.096c-1.983-4.2-5.732-7.453-10.264-8.675-1.013-0.277-2.637-0.52-3.751-0.592-0.11-0.008-0.269-0.017-0.43-0.023l-0.030-0.001zM19.063 3.84c0.221 0.001 0.503 0.075 0.9 0.212 2.376 0.815 5.031 2.876 6.475 5.019 1.003 1.491 1.783 3.237 1.783 3.983 0 0.477-0.467 0.908-0.967 0.908-0.467 0-0.944-0.407-1.072-0.907-0.173-0.7-1.107-2.469-1.793-3.379-1.223-1.607-3.109-3.016-4.96-3.703-1.305-0.489-1.643-1.060-1.037-1.781 0.203-0.243 0.387-0.356 0.672-0.352zM13.883 5.707c0.347 0.001 0.66 0.075 0.933 0.22 1.747 0.885 1.653 3.424-0.163 4.123-2.248 0.849-3.377 1.759-4.112 3.249-1.537 3.12-0.28 6.8 2.831 8.291 2.283 1.095 4.891 0.711 6.707-0.967 0.827-0.768 1.281-1.432 1.689-2.504 0.571-1.501 1.223-2.060 2.387-2.060 1.492 0 2.516 1.257 2.213 2.701-0.617 2.84-3.004 5.693-5.893 7.033-1.595 0.733-2.468 0.92-4.483 0.92-1.98 0-2.841-0.175-4.379-0.873-4.192-1.899-6.767-6.44-6.231-10.947 0.526-4.217 3.409-7.646 7.272-8.956l0.076-0.022c0.42-0.14 0.804-0.209 1.152-0.208zM18.5 6.987c0.289 0.005 0.665 0.14 1.219 0.408 2.248 1.071 4.111 3.039 5.112 5.38 0.373 0.896 0.187 1.479-0.547 1.711-0.56 0.164-0.933-0.139-1.421-1.152-0.908-1.921-2.2-3.249-4.017-4.147-1.060-0.512-1.188-0.628-1.293-1.129-0.047-0.267 0-0.419 0.245-0.709 0.209-0.245 0.413-0.368 0.703-0.361zM17.969 10.244c0.307-0.001 0.661 0.144 1.12 0.445 1.281 0.839 2.725 2.644 2.725 3.4 0 0.385-0.373 0.875-0.745 0.967-0.501 0.129-0.861-0.116-1.387-0.943-0.569-0.873-1.233-1.537-1.92-1.887-0.595-0.303-0.769-0.536-0.769-1.025-0.001-0.016-0.002-0.035-0.002-0.054 0-0.261 0.129-0.491 0.326-0.631l0.002-0.002c0.169-0.162 0.396-0.265 0.648-0.271l0.001-0z"></path>
</svg>
