<!-- Generated by IcoMoon.io -->
<svg version="1.1" xmlns="http://www.w3.org/2000/svg" width="32" height="32" viewBox="0 0 32 32">
<title>playstation4</title>
<path fill="#003791" d="M16.407 17.573v-3.183c0-0.649 0.303-1.113 0.949-1.113h3.987c0.023 0 0.047-0.024 0.047-0.048v-0.633c0-0.005 0-0.011-0.004-0.016h-4.88c-1.056 0.133-1.573 0.871-1.573 1.811v3.181c0 0.644-0.311 1.109-0.947 1.109h-4.205c-0.024 0-0.048 0.016-0.048 0.048v0.633c0 0.027 0.013 0.047 0.031 0.053h4.779c1.244-0.033 1.857-0.827 1.865-1.843zM0.033 19.42h1.4c0.017-0.007 0.033-0.027 0.033-0.053v-2.027c0-0.651 0.367-1.099 0.901-1.099h5.765c1.299 0 1.928-0.8 1.928-1.845 0-0.941-0.516-1.677-1.573-1.811h-8.48c0 0.004-0.008 0.007-0.008 0.013v0.633c0 0.032 0.017 0.048 0.049 0.048h7.597c0.645 0 0.949 0.467 0.949 1.112s-0.303 1.115-0.949 1.115h-6.011c-0.933 0-1.635 0.789-1.635 1.831v2.027c0 0.027 0.013 0.048 0.032 0.056zM21.367 18.687h7.653c0.023 0 0.040 0.016 0.040 0.032v0.644c0 0.032 0.023 0.048 0.047 0.048h1.38c0.024 0 0.048-0.013 0.048-0.048v-0.633c0-0.024 0.027-0.048 0.053-0.048h1.371c0.032 0 0.048-0.024 0.048-0.048v-0.645c0-0.024-0.013-0.048-0.047-0.048h-1.373c-0.027 0-0.049-0.023-0.049-0.047v-4.616c0-0.377-0.139-0.617-0.373-0.697h-0.4c-0.124 0.032-0.26 0.089-0.404 0.176l-8.243 5.089c-0.32 0.2-0.431 0.424-0.351 0.593 0.064 0.139 0.247 0.243 0.6 0.248zM22.561 17.837l6.387-3.951c0.040-0.032 0.12-0.024 0.12 0.064v3.951c0 0.024-0.020 0.048-0.044 0.048h-6.424c-0.053 0-0.080-0.016-0.087-0.032-0.008-0.032 0.007-0.056 0.048-0.080z"></path>
</svg>
