<!-- Generated by IcoMoon.io -->
<svg version="1.1" xmlns="http://www.w3.org/2000/svg" width="32" height="32" viewBox="0 0 32 32">
<title>playstation3</title>
<path fill="#003791" d="M20.484 12.584h-4.197c-1.293 0-1.929 0.8-1.929 1.84v3.155c0 0.644-0.304 1.107-0.947 1.107h-3.672c-0.027 0-0.047 0.023-0.047 0.047v0.627c0 0.027 0.013 0.043 0.040 0.043h4.147c1.293 0 1.933-0.796 1.933-1.836v-3.152c0-0.645 0.3-1.109 0.947-1.109h3.709c0.027 0 0.053-0.019 0.053-0.044v-0.633c0-0.027-0.027-0.047-0.037-0.043zM8.128 12.584h-8.077c-0.029 0-0.051 0.023-0.051 0.047v0.636c0 0.027 0.021 0.048 0.051 0.048h7.592c0.64 0 0.947 0.463 0.947 1.107s-0.304 1.107-0.947 1.107h-6.005c-0.933 0-1.636 0.783-1.636 1.821v2.017c0 0.027 0.027 0.049 0.053 0.049h1.373c0.027 0 0.053-0.021 0.053-0.049v-2.017c0-0.64 0.373-1.093 0.907-1.093h5.745c1.293 0 1.925-0.793 1.925-1.833 0-1.037-0.631-1.84-1.931-1.839zM31.4 15.915c-0.020-0.020-0.020-0.053 0-0.075 0.4-0.333 0.6-0.836 0.6-1.416 0-1.037-0.632-1.84-1.928-1.84h-8.076c-0.027 0-0.048 0.024-0.048 0.051v0.633c0 0.027 0.027 0.053 0.053 0.053h7.6c0.64 0 0.953 0.467 0.953 1.107s-0.307 1.107-0.949 1.107h-7.6c-0.027 0-0.048 0.027-0.048 0.053v0.64c0 0.027 0.021 0.045 0.049 0.045h7.6c0.84 0.009 0.947 0.827 0.947 1.24v0.080c0 0.647-0.307 1.111-0.947 1.111h-7.6c-0.027 0-0.048 0.020-0.048 0.045v0.636c0 0.027 0.020 0.049 0.048 0.049h8.067c1.297 0 1.928-0.86 1.928-1.84v-0.076c0-0.627-0.2-1.221-0.601-1.604z"></path>
</svg>
