<!-- Generated by IcoMoon.io -->
<svg version="1.1" xmlns="http://www.w3.org/2000/svg" width="32" height="32" viewBox="0 0 32 32">
<title>plesk</title>
<path fill="#52bbe6" d="M8.136 9.361v9.804h0.981v-9.805zM26.343 9.375v9.791h0.98v-9.789zM27.323 15.552l3.305 3.613h1.359l-3.432-3.641 3.445-3.361h-1.316zM21.979 12.037c-0.715 0-1.296 0.167-1.747 0.504-0.449 0.336-0.673 0.812-0.673 1.427 0 0.347 0.065 0.632 0.197 0.856 0.133 0.224 0.301 0.408 0.507 0.553 0.205 0.144 0.437 0.264 0.696 0.356 0.259 0.093 0.52 0.179 0.787 0.253 0.233 0.065 0.456 0.133 0.667 0.203s0.396 0.156 0.557 0.259c0.16 0.103 0.288 0.227 0.381 0.371 0.093 0.145 0.139 0.325 0.139 0.54 0 0.28-0.127 0.517-0.381 0.713-0.253 0.196-0.645 0.295-1.173 0.295-0.812 0-1.472-0.327-1.98-0.98l-0.763 0.672c0.381 0.42 0.787 0.72 1.217 0.904 0.429 0.181 0.924 0.272 1.48 0.272 0.363 0 0.703-0.044 1.021-0.133 0.316-0.085 0.592-0.22 0.835-0.397l-0.007 0.005c0.235-0.173 0.421-0.384 0.559-0.637 0.136-0.252 0.204-0.536 0.204-0.853 0-0.347-0.068-0.632-0.204-0.861-0.14-0.232-0.32-0.425-0.53-0.577l-0.006-0.004c-0.209-0.152-0.449-0.282-0.706-0.378l-0.021-0.007c-0.141-0.059-0.404-0.152-0.669-0.239l-0.123-0.035c-0.215-0.065-0.423-0.133-0.623-0.203-0.203-0.069-0.378-0.152-0.541-0.252l0.012 0.007c-0.146-0.088-0.268-0.2-0.364-0.332l-0.002-0.004c-0.087-0.126-0.139-0.282-0.139-0.45 0-0.009 0-0.018 0-0.027l-0 0.001c0-0.271 0.1-0.495 0.3-0.672s0.551-0.267 1.049-0.267c0.391 0 0.728 0.073 1.012 0.217 0.284 0.145 0.547 0.371 0.792 0.68l0.015 0.013 0.72-0.659c-0.363-0.42-0.741-0.713-1.137-0.881-0.383-0.16-0.828-0.253-1.295-0.253-0.022 0-0.044 0-0.065 0.001l0.003-0zM2.395 12.092c-0.784 0-1.583 0.127-2.395 0.379v10.168h0.967v-3.627c0.243 0.064 0.485 0.116 0.728 0.153 0.222 0.037 0.478 0.058 0.739 0.058 0.491 0 0.964-0.075 1.409-0.214l-0.033 0.009c0.448-0.136 0.847-0.348 1.197-0.637s0.632-0.659 0.848-1.107c0.213-0.448 0.321-0.985 0.321-1.611 0-0.513-0.089-0.989-0.267-1.428-0.179-0.444-0.438-0.822-0.762-1.134l-0.001-0.001c-0.334-0.316-0.733-0.568-1.173-0.735l-0.024-0.008c-0.467-0.177-0.985-0.267-1.555-0.267zM14.243 12.092c-0.429 0-0.836 0.073-1.219 0.217-0.383 0.147-0.72 0.367-1.008 0.667-0.296 0.313-0.53 0.689-0.68 1.104l-0.007 0.022c-0.168 0.453-0.252 0.987-0.252 1.603 0 0.467 0.069 0.911 0.209 1.331 0.141 0.42 0.351 0.795 0.631 1.12 0.28 0.328 0.631 0.587 1.051 0.777 0.42 0.192 0.911 0.288 1.471 0.288 0.607 0 1.125-0.091 1.555-0.273s0.807-0.451 1.133-0.805l-0.587-0.616c-0.272 0.299-0.575 0.516-0.911 0.651-0.321 0.129-0.693 0.204-1.082 0.204-0.013 0-0.027-0-0.040-0l0.002 0c-0.739 0-1.323-0.233-1.752-0.701-0.429-0.467-0.657-1.096-0.685-1.889h5.252c0.017-1.205-0.235-2.123-0.757-2.752-0.523-0.631-1.297-0.947-2.324-0.947zM14.284 12.919c0.347 0 0.649 0.053 0.911 0.161 0.261 0.107 0.473 0.249 0.637 0.427 0.163 0.177 0.289 0.393 0.379 0.645 0.088 0.252 0.133 0.523 0.133 0.812h-4.245c0.078-0.568 0.314-1.071 0.662-1.474l-0.003 0.004c0.148-0.168 0.352-0.307 0.608-0.413 0.257-0.107 0.563-0.16 0.919-0.161zM2.48 12.933c0.821 0 1.459 0.251 1.912 0.751 0.453 0.499 0.68 1.155 0.68 1.967 0 0.879-0.247 1.553-0.736 2.024-0.491 0.472-1.151 0.707-1.981 0.707-0.224 0-0.456-0.024-0.693-0.076-0.28-0.060-0.512-0.125-0.739-0.203l0.045 0.014v-4.959c0.243-0.084 0.489-0.143 0.743-0.176 0.252-0.032 0.507-0.048 0.769-0.048zM5.649 21.717v0.923h5.897v-0.923z"></path>
</svg>
