<!-- Generated by IcoMoon.io -->
<svg version="1.1" xmlns="http://www.w3.org/2000/svg" width="32" height="32" viewBox="0 0 32 32">
<title>pluralsight</title>
<path fill="#f15b2a" d="M20.96 2.34c-7.52-2.741-15.879 1.16-18.599 8.66-2.761 7.599 1.139 15.941 8.659 18.68 7.54 2.74 15.941-1.16 18.68-8.68 2.743-7.56-1.16-15.919-8.699-18.66zM16 32c-8.8 0-16-7.2-16-16s7.2-16 16-16 16 7.2 16 16-7.2 16-16 16zM11.901 7.74v16.521l14.339-8.261zM13.3 10.099l10.2 5.901-10.2 5.901v-11.803zM8.599 9.54v12.919l11.201-6.459zM10 11.94l7.081 4.060-7.081 4.081v-8.163z"></path>
</svg>
