<!-- Generated by IcoMoon.io -->
<svg version="1.1" xmlns="http://www.w3.org/2000/svg" width="32" height="32" viewBox="0 0 32 32">
<title>plurk</title>
<path fill="#ff574d" d="M17.203 2.541c-0.031-0-0.067-0-0.103-0-4.186 0-7.924 1.916-10.385 4.919l-0.019 0.024c-0.109 0.13-0.233 0.285-0.353 0.443l-0.024 0.033 0.005-0.004c0.309-0.261 0.631-0.46 0.956-0.593l0.077-0.031c0.399-0.149 0.803-0.196 1.2-0.117 1.92 0.385 2.92 3.479 2.233 6.911s-2.8 5.903-4.72 5.519c-1.347-0.269-2.237-1.873-2.416-3.989v-0.007 0.069c-0.004 0.176-0.004 0.355 0 0.533v0.097l0.003 0.079c0.007 0.199 0.017 0.395 0.032 0.591 0.007 0.089 0.016 0.179 0.025 0.267 0.162 1.698 0.618 3.254 1.316 4.669l-0.035-0.078c0.080 0.168 0.040 0.368-0.104 0.484l-0.369 0.301c-0.27 0.223-0.441 0.558-0.441 0.934 0 0.128 0.020 0.252 0.057 0.368l-0.002-0.009c0 0.008 0.004 0.013 0.008 0.023 0.024 0.074 0.051 0.137 0.082 0.196l-0.003-0.007 0.067-0.052 0.307-0.232c0.058-0.044 0.131-0.071 0.211-0.071 0.192 0 0.348 0.156 0.348 0.348 0 0.113-0.054 0.213-0.137 0.277l-0.001 0.001-0.376 0.285 1.569 1.931c0.224 0.272 0.561 0.444 0.938 0.444 0.29 0 0.556-0.102 0.764-0.271l-0.002 0.002 0.344-0.28c0.068-0.055 0.155-0.088 0.249-0.088s0.182 0.033 0.25 0.089l-0.001-0.001c2.266 1.815 5.176 2.913 8.341 2.913 0.127 0 0.254-0.002 0.38-0.005l-0.019 0c2.794-0.071 5.361-0.987 7.469-2.501l-0.040 0.027c0.065-0.047 0.146-0.076 0.233-0.076 0.106 0 0.202 0.042 0.274 0.109l-0-0 0.217 0.208c0.217 0.205 0.51 0.331 0.832 0.331 0.28 0 0.538-0.095 0.743-0.254l-0.003 0.002-0.005-0.005-0.28-0.263c-0.062-0.063-0.1-0.149-0.1-0.245 0-0.193 0.156-0.349 0.349-0.349 0.087 0 0.167 0.032 0.228 0.085l-0-0 0.3 0.28 1.68-1.768c0.205-0.217 0.331-0.51 0.331-0.832 0-0.345-0.144-0.656-0.374-0.876l-0.351-0.334c-0.076-0.072-0.123-0.174-0.123-0.286 0-0.071 0.019-0.138 0.052-0.196l-0.001 0.002c1.060-1.876 1.685-4.119 1.685-6.508 0-0.844-0.078-1.669-0.227-2.469l0.013 0.083c0.401-0.371 1.137-1.099 1.425-1.723 0.308-0.669 0.387-1.36-0.431-1.056-0.635 0.236-1.123 0.388-1.715 0.253-1.889-4.791-6.463-8.257-11.801-8.533-0.186-0.011-0.407-0.018-0.63-0.019h-0.003zM3.020 8.329c-0.891 0.017-1.607 0.743-1.607 1.637 0 0.26 0.061 0.506 0.169 0.725l-0.004-0.010c-0.878 0.035-1.577 0.755-1.577 1.639 0 0.906 0.734 1.64 1.64 1.64 0.353 0 0.679-0.111 0.947-0.301l-0.005 0.003c0.236-0.165 0.408-0.385 0.527-0.627 0.248 0.456 0.613 0.836 1.037 1.097-0.002 0.056-0.002 0.123-0.002 0.189 0 0.215 0.009 0.428 0.027 0.638l-0.002-0.027c0.136 1.637 0.827 2.88 1.868 3.088 1.485 0.297 3.12-1.613 3.651-4.267 0.532-2.653-0.241-5.045-1.727-5.343-0.579-0.116-1.18 0.107-1.731 0.576-0.6 0.511-1.139 1.317-1.52 2.307-0.013-0.003-0.027-0.004-0.040-0.009-0.187-0.053-0.287-0.175-0.416-0.203 0.27-0.292 0.436-0.683 0.436-1.114 0-0.906-0.734-1.64-1.64-1.64-0.011 0-0.022 0-0.032 0l0.002-0zM6.836 9.988c0.072 0 0.143 0.005 0.213 0.020 0.968 0.191 1.472 1.749 1.125 3.477-0.345 1.731-1.411 2.973-2.377 2.78-0.657-0.131-1.099-0.893-1.207-1.911 0.241 0.093 0.493 0.151 0.747 0.163 0.703 0.032 1.161-0.205 1.52-0.684 0.461-0.62 0.112-2.337-0.499-2.56-0.475-0.173-0.756 0.036-1.179 0.067 0.213-0.397 0.468-0.725 0.743-0.96 0.292-0.247 0.604-0.389 0.913-0.392z"></path>
</svg>
