<!-- Generated by IcoMoon.io -->
<svg version="1.1" xmlns="http://www.w3.org/2000/svg" width="32" height="32" viewBox="0 0 32 32">
<title>pocket</title>
<path fill="#ef3f56" d="M25.084 13.679l-7.528 7.225c-0.427 0.407-0.973 0.611-1.521 0.611-0.547 0-1.095-0.204-1.521-0.611l-7.528-7.225c-0.876-0.837-0.903-2.228-0.065-3.101 0.84-0.876 2.228-0.905 3.1-0.067l6.015 5.763 6.023-5.763c0.88-0.841 2.263-0.809 3.101 0.065 0.841 0.86 0.82 2.26-0.060 3.101zM31.861 3.617c-0.399-1.144-1.5-1.915-2.721-1.915h-26.235c-1.2 0-2.289 0.752-2.716 1.873-0.125 0.333-0.189 0.681-0.189 1.032v9.66l0.112 1.921c0.464 4.369 2.729 8.189 6.243 10.852 0.060 0.048 0.125 0.093 0.191 0.14l0.040 0.031c1.881 1.373 3.985 2.304 6.259 2.763 1.048 0.211 2.121 0.32 3.185 0.32 0.985 0 1.975-0.089 2.945-0.272 0.117-0.039 0.235-0.060 0.352-0.080 0.031 0 0.065-0.020 0.099-0.039 2.177-0.48 4.197-1.381 6.011-2.7l0.039-0.041 0.18-0.14c3.503-2.66 5.765-6.483 6.248-10.864l0.097-1.921v-9.644c0-0.335-0.041-0.667-0.161-0.989z"></path>
</svg>
