<!-- Generated by IcoMoon.io -->
<svg version="1.1" xmlns="http://www.w3.org/2000/svg" width="32" height="32" viewBox="0 0 32 32">
<title>pocketcasts</title>
<path fill="#f43e37" d="M16 0c-8.837 0-16 7.163-16 16s7.163 16 16 16 16-7.163 16-16-7.163-16-16-16zM20.752 16c0-2.624-2.128-4.752-4.752-4.752s-4.752 2.127-4.752 4.752c0 2.624 2.127 4.752 4.752 4.752v2.715c-4.124 0-7.467-3.343-7.467-7.467s3.343-7.467 7.467-7.467 7.467 3.343 7.467 7.467zM25.333 16c0-5.155-4.179-9.333-9.333-9.333s-9.333 4.179-9.333 9.333 4.179 9.333 9.333 9.333v3.111c-6.873 0-12.444-5.572-12.444-12.444 0-6.873 5.572-12.444 12.444-12.444 6.873 0 12.444 5.572 12.444 12.444z"></path>
</svg>
