<!-- Generated by IcoMoon.io -->
<svg version="1.1" xmlns="http://www.w3.org/2000/svg" width="32" height="32" viewBox="0 0 32 32">
<title>postwoman</title>
<path fill="#50fa7b" d="M3.379 12.383c0 8.231 6.701 19.617 12.621 19.617 5.573 0 12.621-11.385 12.621-19.617 0.001-8.232-5.651-12.383-12.621-12.383s-12.621 4.151-12.621 12.383zM19.28 18.469c1.122-1.123 2.672-1.817 4.385-1.817 0.457 0 0.903 0.050 1.332 0.143l-0.041-0.008c0.086 0.387 0.136 0.832 0.136 1.289 0 1.713-0.695 3.264-1.818 4.386l-0 0c-1.122 1.123-2.673 1.818-4.386 1.818-0.457 0-0.902-0.049-1.331-0.143l0.041 0.008c-0.086-0.388-0.136-0.833-0.136-1.29 0-1.713 0.695-3.264 1.818-4.386l0-0zM7.044 16.788c0.388-0.087 0.835-0.136 1.292-0.136 1.713 0 3.263 0.695 4.385 1.817l0 0c1.123 1.122 1.817 2.672 1.817 4.385 0 0.457-0.050 0.903-0.143 1.332l0.008-0.041c-0.388 0.086-0.833 0.136-1.29 0.136-1.713 0-3.264-0.695-4.386-1.818l-0-0c-1.123-1.122-1.818-2.673-1.818-4.386 0-0.457 0.049-0.901 0.143-1.33l-0.008 0.041z"></path>
</svg>
