<!-- Generated by IcoMoon.io -->
<svg version="1.1" xmlns="http://www.w3.org/2000/svg" width="32" height="32" viewBox="0 0 32 32">
<title>powershell</title>
<path fill="#5391fe" d="M30.908 4.103c0.757 0 1.231 0.617 1.056 1.38l-4.879 21.308c-0.173 0.763-0.929 1.38-1.687 1.38h-24.307c-0.757 0-1.231-0.617-1.056-1.38l4.879-21.308c0.173-0.763 0.929-1.38 1.687-1.38zM19.741 16.563c0.335-0.525 0.303-1.207-0.12-1.657l-7.459-7.935c-0.507-0.54-1.383-0.543-1.955-0.005s-0.624 1.409-0.117 1.948l6.216 6.613v0.147l-9.893 7.164c-0.6 0.436-0.711 1.303-0.249 1.937s1.321 0.796 1.92 0.36l10.972-7.879c0.373-0.263 0.584-0.488 0.685-0.693zM16.013 22.428c-0.002-0-0.005-0-0.008-0-0.681 0-1.234 0.55-1.237 1.23v0c0 0.68 0.557 1.231 1.245 1.231h5.911c0.002 0 0.005 0 0.008 0 0.681 0 1.234-0.55 1.237-1.23v-0c-0.004-0.68-0.556-1.231-1.237-1.231-0.003 0-0.006 0-0.008 0h0z"></path>
</svg>
