<!-- Generated by IcoMoon.io -->
<svg version="1.1" xmlns="http://www.w3.org/2000/svg" width="32" height="32" viewBox="0 0 32 32">
<title>prestashop</title>
<path fill="#df0067" d="M15.411 1.379c-8.512 0-15.411 6.901-15.411 15.411 0 1.677 0.268 3.293 0.765 4.796l0.003-0.009c0.203-0.93 0.446-1.727 0.745-2.495l-0.039 0.113 0.015-0.040c0.113-0.296 0.239-0.589 0.369-0.88l0.112-0.241c0.107-0.228 0.22-0.453 0.337-0.676 0.048-0.091 0.093-0.181 0.144-0.271 0.027-0.051 0.059-0.097 0.085-0.147 0.125-0.221 0.253-0.443 0.387-0.657l0.1-0.152c0.167-0.26 0.341-0.515 0.524-0.764l0.047-0.067c0.192-0.257 0.393-0.507 0.601-0.751l0.133-0.157c0.207-0.236 0.42-0.467 0.641-0.689l0.132-0.129c0.228-0.226 0.465-0.445 0.71-0.655l0.018-0.015c0.987-3.307 4.007-5.713 7.581-5.713 1.439 0 2.869 0.413 4.095 1.164 1.259 0.786 2.263 1.873 2.927 3.164l0.030 0.065 0.053 0.099v0.004l0.005 0.003c0.787 0.49 1.47 1.017 2.097 1.604l-0.007-0.007c0.053 0.049 0.108 0.095 0.16 0.145 0.003 0 0.008 0.007 0.009 0.008l-0.003-0.008-0.001-0.005v-0.004l0.056-0.112c0.503-3.179 1.907-5.469 3.56-5.469 1.245 0 2.349 1.3 3.035 3.301l0.007 0.021 0.001 0.003c0.193 0.211 0.383 0.441 0.565 0.695l0.009 0.013 0.028 0.089-0.027-0.104c-2.056-6.092-7.817-10.476-14.601-10.479zM13.236 7.303c-3.121 0.057-6.116 2.207-7.137 5.184l-0.016 0.045c0.513-0.415 1.086-0.809 1.688-1.159l0.065-0.035c3.741-2.208 8.639-2.195 12.371 0.021-1.193-2.204-3.508-3.759-6-4.005-0.256-0.034-0.551-0.053-0.851-0.053-0.042 0-0.084 0-0.126 0.001l0.006-0zM26.348 7.969c-0.187 0.005-0.366 0.037-0.533 0.093l0.013-0.004c-1.687 0.749-2.292 2.764-2.708 4.404l-0.021 0.096c0.487-0.827 1.077-1.62 1.861-2.189 1.113-0.916 2.807-0.873 3.888 0.071 0.411 0.435 0.188 0.011 0.041-0.293-0.456-1-1.367-2.204-2.541-2.177zM16.467 11.087l-1.427 4.36-0.003 0.007-0.008 0.003-6.009 1.483 5.941 1.449c0.14 0.147 0.303 0.273 0.48 0.373h0.003c0.056 0.032 0.113 0.060 0.172 0.087l0.013 0.007c0.055 0.024 0.111 0.044 0.168 0.063l0.028 0.011c0.053 0.017 0.107 0.031 0.16 0.043l0.044 0.011c0.127 0.027 0.273 0.043 0.423 0.044h0.001c0.002 0 0.004 0 0.006 0 0.851 0 1.581-0.515 1.896-1.251l0.005-0.013c0.107-0.248 0.164-0.52 0.164-0.805v-0.015l-0.001-0.016c-0.001-0.072-0.005-0.143-0.013-0.213l-0.001-0.003c-0.009-0.080-0.022-0.149-0.037-0.218l0.003 0.014-0.001-0.005c-0.033-0.147-0.077-0.275-0.133-0.397l0.005 0.013v-0.004c-0.115-0.255-0.272-0.472-0.463-0.652l-0.001-0.001v-0.004zM20.664 11.921c0.064 1.344 0.048 2.728-0.133 4.076-0.227 2.691-1.587 5.064-2.629 7.488l-0.040 0.107-0.047 0.115c2.013-2.029 4.227-4.053 5.292-6.776 0.511-0.848 0.157-1.789-0.153-2.635-0.227-1.169-1.425-1.704-2.289-2.375zM28.893 12.684l-0.784 3.584c-0.022 0.071-0.044 0.161-0.061 0.252l-0.002 0.014c-0.003 0.027-0.009 0.053-0.013 0.080-0.013 0.088-0.020 0.191-0.021 0.295v0.001l-0.003 0.041h0.004c0 0.837 0.396 1.515 0.884 1.516 0.089-0.001 0.172-0.023 0.246-0.061l-0.003 0.001 0.036-0.020c0.036-0.020 0.066-0.041 0.095-0.064l-0.001 0.001c0.017-0.013 0.032-0.029 0.048-0.044 0.070-0.065 0.131-0.138 0.18-0.22l0.003-0.004 0.040-0.072c0.021-0.038 0.044-0.085 0.065-0.133l0.004-0.011 0.023-0.053c0.027-0.071 0.051-0.144 0.071-0.221l0.003-0.003 0.001-0.004 0.539-0.601-0.543-0.608v0.001l-0.027-0.084zM23.052 13.825c0.92 2.288 1.133 4.943 0.121 7.24-0.653 1.824-2.116 3.284-2.499 5.207 0.973 0.153 1.957 0.235 2.947 0.248 2.888 0.039 5.776-0.56 8.379-1.82-2.72-3.825-5.495-7.673-8.948-10.875zM16.455 15.128c0.429 0 0.777 0.348 0.777 0.777s-0.348 0.777-0.777 0.777v0c-0.429 0-0.777-0.348-0.777-0.777s0.348-0.777 0.777-0.777v0zM28.924 15.621c0.184 0 0.332 0.253 0.332 0.568s-0.148 0.568-0.332 0.568c-0.183 0-0.331-0.253-0.331-0.568 0-0.313 0.147-0.568 0.331-0.568zM23.532 15.867c-0.021 0.149-0.044 0.279-0.067 0.387l-0.008 0.031c-0.013 0.067-0.029 0.125-0.044 0.171-0.64 1.889-1.7 3.36-3.147 4.929-0.196 0.213-0.401 0.427-0.612 0.645-0.535 0.554-1.054 1.077-1.581 1.594l-0.013 0.013c-0.149 0.147-0.345 0.348-0.567 0.581-0.137 0.383-0.293 0.813-0.424 1.267-0.059-0.021-0.115-0.041-0.175-0.065-2.811-1.087-4.692-2.539-4.692-2.539s1.448 1.885 3.887 3.653c0.236 0.172 0.468 0.32 0.696 0.452-0.1 1.592 0.603 3.12 3.773 3.576 0.258 0.037 0.557 0.058 0.86 0.058 0.274 0 0.544-0.017 0.809-0.050l-0.032 0.003-0.013-0.039c-0.002-0.005-0.003-0.010-0.006-0.014l0 0c0 0-0.223-0.177-0.505-0.503-0.302-0.345-0.562-0.739-0.765-1.165l-0.013-0.031c-0.158-0.332-0.281-0.718-0.351-1.123l-0.004-0.027c-0.034-0.203-0.054-0.436-0.054-0.674 0-0.22 0.017-0.435 0.049-0.646l-0.003 0.024c0.023-0.16 0.053-0.321 0.096-0.488 0.124-0.499 0.34-1.029 0.676-1.589l0.003-0.004 0.321-0.539c1.471-2.48 2.396-4.367 2.008-7.255-0.037-0.28-0.073-0.496-0.115-0.71l0.012 0.075zM29.756 16.635l0.001 0.011zM29.773 16.905l0.004 0.048v0.013c0 0.017-0.004 0.033-0.004 0.051 0-0.019 0.004-0.037 0.004-0.057 0-0.019-0.003-0.035-0.004-0.055zM29.757 17.272v0.001l-0.003 0.013-0.003 0.019zM31.561 25.176c-3.404 1.517-7.253 1.92-10.923 1.343-0.187 1.477 0.512 2.957 1.619 3.907l0.016 0.013c3.604-0.577 6.633-2.891 9.288-5.263z"></path>
</svg>
