<!-- Generated by IcoMoon.io -->
<svg version="1.1" xmlns="http://www.w3.org/2000/svg" width="32" height="32" viewBox="0 0 32 32">
<title>prismic</title>
<path fill="#484a7a" d="M10.44 5.155h-1.393c-0.002 0-0.004 0-0.007 0-2.147 0-3.887 1.74-3.887 3.887 0 0.002 0 0.005 0 0.007v-0 11.404c1.199 0.717 2.613 1.211 4.124 1.386l0.049 0.005c-0.167-0.324-0.269-0.706-0.28-1.11l-0-0.003v-9.179c-0.139-0.139-0.139-3.476 1.393-6.396zM26.987 10.439v-1.391c0-0.002 0-0.004 0-0.007 0-2.147-1.74-3.887-3.887-3.887-0.002 0-0.005 0-0.007 0h-11.264c-0.717 1.199-1.21 2.612-1.385 4.123l-0.005 0.049c0.28-0.279 0.696-0.279 1.113-0.279h9.040c0.139 0 3.476 0 6.393 1.391zM21.564 26.988h1.391c0.002 0 0.004 0 0.007 0 2.147 0 3.887-1.74 3.887-3.887 0-0.002 0-0.005 0-0.007v0-11.267c-1.199-0.717-2.613-1.211-4.124-1.386l-0.049-0.005c0.28 0.279 0.28 0.695 0.28 1.112v9.040c0 0.139 0 3.476-1.391 6.399zM5.015 21.564v1.391c0 0.002 0 0.004 0 0.007 0 2.147 1.74 3.887 3.887 3.887 0.002 0 0.005 0 0.007 0h11.264c0.717-1.199 1.211-2.612 1.386-4.123l0.005-0.049c-0.277 0.279-0.695 0.279-1.112 0.279h-9.037c-0.139 0-3.476 0-6.399-1.391zM17.671 0.009h-10.013c-4.172 0-7.648 3.476-7.648 7.648 0 0 0.279 7.371 3.199 10.847 0.139 0.279 0.417 0.417 0.695 0.696v-10.291c0-0.004-0-0.009-0-0.013 0-2.835 2.298-5.133 5.133-5.133 0.005 0 0.009 0 0.014 0h2.223c0.417-0.556 0.835-0.973 1.252-1.389 1.252-0.973 3.199-1.808 5.145-2.364zM31.995 17.671v-10.013c0-4.172-3.476-7.648-7.648-7.648 0 0-7.371 0.277-10.848 3.197-0.297 0.16-0.535 0.398-0.69 0.687l-0.004 0.009h10.291c0.004 0 0.008 0 0.012 0 2.835 0 5.133 2.298 5.133 5.133 0 0.004 0 0.008 0 0.013v-0.001 2.225c0.556 0.417 0.973 0.835 1.391 1.252 0.973 1.251 1.808 3.197 2.364 5.145zM14.333 31.993h10.013c4.171 0 7.648-3.476 7.648-7.648 0 0-0.279-7.371-3.199-10.847-0.139-0.279-0.417-0.417-0.695-0.696v10.291c0 0.004 0 0.009 0 0.013 0 2.835-2.298 5.133-5.133 5.133-0.005 0-0.009 0-0.014-0h-2.223c-0.417 0.556-0.835 0.973-1.252 1.389-1.252 0.973-3.199 1.808-5.145 2.364zM0.009 14.333v10.012c0 4.172 3.476 7.648 7.648 7.648 0 0 7.371-0.277 10.848-3.197 0.277-0.14 0.417-0.417 0.695-0.696h-10.152c-0.004 0-0.008 0-0.012 0-2.835 0-5.133-2.298-5.133-5.133 0-0.004 0-0.008 0-0.013v0.001-2.225c-0.556-0.417-0.973-0.835-1.391-1.252-1.112-1.251-1.947-3.197-2.503-5.144z"></path>
</svg>
