<!-- Generated by IcoMoon.io -->
<svg version="1.1" xmlns="http://www.w3.org/2000/svg" width="32" height="32" viewBox="0 0 32 32">
<title>processwire</title>
<path fill="#ef145f" d="M29.252 7.027c-0.971-1.449-2.585-3.105-4.207-4.177-3.368-2.307-7.269-3.125-10.72-2.768-3.599 0.388-6.68 1.744-9.213 4.005-2.347 2.096-3.896 4.659-4.579 7.103-0.691 2.444-0.599 4.707-0.352 6.411 0.26 1.729 1.121 3.905 1.121 3.905 0.176 0.417 0.42 0.587 0.547 0.657 0.629 0.344 1.663 0.041 2.456-0.849 0.040-0.055 0.061-0.131 0.040-0.195-0.221-0.852-0.301-1.493-0.38-1.989-0.18-0.981-0.26-2.625-0.14-4.145 0.060-0.823 0.22-1.703 0.5-2.625 0.541-1.823 1.683-3.725 3.467-5.307 1.921-1.703 4.385-2.755 6.728-3.027 0.821-0.099 2.384-0.193 4.265 0.271 0.401 0.1 2.124 0.549 3.967 1.797 1.341 0.912 2.421 2.037 3.165 3.151 0.757 1.063 1.58 2.855 1.821 4.167 0.341 1.493 0.341 3.076 0.099 4.617-0.3 1.544-0.841 3.045-1.683 4.367-0.58 1.024-1.783 2.377-3.204 3.393-1.281 0.901-2.744 1.552-4.245 1.912-0.76 0.18-1.523 0.295-2.304 0.32-0.695 0.021-1.616 0-2.263-0.109-0.961-0.153-1.161-0.399-1.381-0.732 0 0-0.153-0.24-0.196-0.883 0.015-5.873 0.012-4.305 0.012-7.355 0-0.861-0.028-1.643-0.020-2.352 0.040-1.164 0.139-1.964 0.971-2.831 0.601-0.639 1.443-1.024 2.369-1.024 0.281 0 1.251 0.013 2.103 0.721 0.913 0.763 1.067 1.805 1.103 2.084 0.208 1.631-0.869 2.845-1.283 3.153-0.512 0.384-0.972 0.571-1.283 0.68-0.661 0.221-1.388 0.285-2.041 0.243-0.1-0.007-0.191 0.059-0.211 0.159l-0.22 1.141c-0.215 0.867 0.267 1.184 0.547 1.296 0.895 0.276 1.688 0.391 2.628 0.32 1.441-0.101 2.863-0.669 4.069-1.795 1.027-0.976 1.612-2.18 1.812-3.527 0.2-1.495-0.060-3.104-0.741-4.467-0.749-1.503-2.043-2.757-3.747-3.444-1.721-0.677-3.091-0.701-4.856-0.251l-0.020 0.007c-1.147 0.395-2.128 0.881-3.149 1.936-0.7 0.728-1.273 1.609-1.623 2.604-0.347 1.003-0.44 1.751-0.456 2.913-0.021 0.861 0.020 1.661 0.020 2.411v4.935c0 1.579-0.053 1.852 0 2.664 0.029 0.539 0.104 1.148 0.34 1.803 0.243 0.721 0.752 1.461 1.101 1.803 0.489 0.521 1.112 0.94 1.724 1.2 1.401 0.623 3.304 0.721 4.847 0.661 1.021-0.039 2.048-0.18 3.055-0.419 2.013-0.479 3.947-1.349 5.647-2.557 1.823-1.284 3.407-3.036 4.281-4.524 1.121-1.768 1.847-3.752 2.224-5.791 0.34-2.043 0.324-4.137-0.132-6.149-0.36-1.867-1.321-3.915-2.431-5.568z"></path>
</svg>
