<!-- Generated by IcoMoon.io -->
<svg version="1.1" xmlns="http://www.w3.org/2000/svg" width="32" height="32" viewBox="0 0 32 32">
<title>proto-dot-io</title>
<path fill="#34a7c1" d="M16 15.996c-0.971 0-1.755-0.787-1.755-1.756s0.784-1.756 1.755-1.756 1.755 0.785 1.755 1.755-0.784 1.757-1.755 1.757zM19.888 15.968c0-3.771-1.479-7.196-3.888-9.731-2.409 2.533-3.888 5.96-3.888 9.731 0 1.729 0.312 3.38 0.88 4.911-0.824 1.2-1.432 2.88-1.7 4.821 0.852-1.023 1.896-1.741 3.056-2.121 0.484 0.74 1.040 1.461 1.652 2.099 0.615-0.659 1.168-1.36 1.652-2.12 1.16 0.361 2.204 1.101 3.053 2.101-0.265-1.941-0.873-3.621-1.7-4.82 0.569-1.54 0.88-3.18 0.88-4.92zM16 29.333c-7.364 0-13.333-5.969-13.333-13.333s5.969-13.333 13.333-13.333 13.333 5.969 13.333 13.333-5.969 13.333-13.333 13.333zM16 0c-8.836 0-16 7.164-16 16s7.164 16 16 16 16-7.164 16-16-7.164-16-16-16z"></path>
</svg>
