<!-- Generated by IcoMoon.io -->
<svg version="1.1" xmlns="http://www.w3.org/2000/svg" width="32" height="32" viewBox="0 0 32 32">
<title>proxmox</title>
<path fill="#e57000" d="M6.571 2.433c-1.453 0.737-1.453 0.853-0.093 2.373 7.54 8.393 9.339 10.376 9.476 10.376 0.185 0.023 10.628-11.389 10.744-11.735 0.045-0.093-0.277-0.416-0.692-0.715-0.553-0.416-1.152-0.577-2.283-0.623-2.12-0.139-2.859 0.323-5.487 3.273-1.199 1.337-2.213 2.444-2.213 2.444-0.023 0-1.013-1.084-2.189-2.397s-2.536-2.631-2.997-2.884c-1.061-0.6-3.228-0.645-4.265-0.113zM1.729 5.823c-1.129 0.437-1.729 0.853-1.729 1.175 0 0.161 1.775 2.237 3.92 4.612 2.167 2.373 3.919 4.357 3.919 4.403 0 0.047-1.775 2.029-3.92 4.404-2.167 2.397-3.896 4.495-3.872 4.68 0.115 0.623 2.005 1.407 3.388 1.407 2.237-0.024 2.744-0.416 7.471-5.603 2.373-2.605 4.311-4.819 4.311-4.888 0-0.092-1.913-2.259-4.265-4.84-3.067-3.344-4.564-4.843-5.28-5.165-1.083-0.531-2.835-0.623-3.941-0.184zM26.352 5.983c-0.669 0.347-2.352 2.007-5.257 5.188-2.351 2.583-4.265 4.749-4.265 4.841 0 0.093 1.937 2.283 4.312 4.888 4.725 5.187 5.233 5.579 7.469 5.603 1.384 0 3.273-0.784 3.389-1.407 0.023-0.208-1.707-2.283-3.873-4.657-2.144-2.373-3.92-4.38-3.92-4.427 0-0.045 1.776-2.052 3.92-4.427 2.167-2.372 3.896-4.449 3.873-4.633-0.116-0.6-1.821-1.291-3.297-1.384-1.060-0.045-1.613 0.047-2.351 0.415zM10.605 22.631c-2.859 3.159-5.211 5.832-5.257 5.947-0.045 0.093 0.277 0.416 0.693 0.716 0.552 0.415 1.152 0.576 2.281 0.623 2.099 0.137 2.881-0.347 5.533-3.344 1.152-1.291 2.144-2.373 2.167-2.373s1.015 1.083 2.191 2.397c2.697 2.997 3.412 3.435 5.509 3.32 1.131-0.047 1.729-0.208 2.283-0.623 0.415-0.3 0.737-0.623 0.692-0.715-0.116-0.347-10.56-11.759-10.744-11.735-0.092 0-2.489 2.605-5.348 5.787z"></path>
</svg>
