<!-- Generated by IcoMoon.io -->
<svg version="1.1" xmlns="http://www.w3.org/2000/svg" width="32" height="32" viewBox="0 0 32 32">
<title>publons</title>
<path fill="#369" d="M0 0v32h32v-32zM13.787 6.8c0.111 0.019 0.152 0.128 0.208 0.211 0.072 0.472 0.133 0.947 0.205 1.42 0.209-0.216 0.413-0.437 0.653-0.619 1.156-0.888 2.733-1.253 4.147-0.84 0.96 0.28 1.753 0.96 2.341 1.755 0.249 0.351 0.464 0.729 0.6 1.14 0.264 0.776 0.3 1.608 0.264 2.42-0.071 1.493-0.577 2.992-1.559 4.137-0.86 1.019-2.080 1.711-3.462 1.877l-0.026 0.003c-0.192 0.022-0.415 0.035-0.641 0.035-0.822 0-1.604-0.168-2.315-0.472l0.038 0.015c0.025 1.347 0.043 2.691 0.051 4.037 0.028 0.62-0.028 1.251 0.116 1.861 0.041 0.187 0.164 0.389 0.373 0.411 0.403 0.048 0.811 0.017 1.216 0.027 0.076 0 0.173 0.049 0.168 0.135 0.005 0.248 0.012 0.497-0.005 0.747-0.061 0.123-0.227 0.093-0.34 0.096-0.883-0.047-1.918-0.074-2.958-0.074s-2.075 0.027-3.102 0.080l0.144-0.006-0.093-0.075c-0.005-0.293-0.084-0.623 0.045-0.895 0.4-0.047 0.808 0.027 1.205-0.043 0.255-0.064 0.357-0.347 0.393-0.579 0.053-0.427 0.036-0.856 0.056-1.284v-11.189c0-0.208 0.008-0.413-0.011-0.62-0.018-0.356-0.19-0.668-0.451-0.873l-0.003-0.002c-0.271-0.211-0.584-0.353-0.883-0.517-0.109-0.069-0.241-0.129-0.305-0.249-0.009-0.058-0.014-0.126-0.014-0.194 0-0.090 0.009-0.179 0.027-0.264l-0.001 0.008c0.075-0.088 0.192-0.115 0.292-0.163 0.973-0.42 1.941-0.848 2.913-1.269 0.227-0.091 0.461-0.192 0.712-0.188zM16.44 8.328c-0.071 0-0.139 0-0.208 0.017-0.821 0.088-1.528 0.516-1.985 1.139l-0.005 0.008c0.007 1.92 0 3.84 0.004 5.76 0.007 0.436 0.097 0.901 0.403 1.232 0.699 0.683 1.736 0.923 2.685 0.791 0.769-0.128 1.383-0.717 1.705-1.405 0.459-0.981 0.527-2.095 0.447-3.161-0.071-0.873-0.241-1.749-0.599-2.553-0.245-0.543-0.589-1.057-1.081-1.405-0.368-0.264-0.828-0.422-1.324-0.422-0.015 0-0.029 0-0.044 0l0.002-0z"></path>
</svg>
