<!-- Generated by IcoMoon.io -->
<svg version="1.1" xmlns="http://www.w3.org/2000/svg" width="32" height="32" viewBox="0 0 32 32">
<title>purescript</title>
<path d="M25.547 6.133l-1.653 1.653 5.293 5.293-5.293 5.293 1.653 1.653 6.107-6.133c0.21-0.21 0.34-0.5 0.34-0.82s-0.13-0.61-0.34-0.82v0zM9.267 8.987l2.493 2.333h10.973l-2.493-2.333zM6.467 11.973l-6.133 6.133c-0.21 0.21-0.34 0.5-0.34 0.82s0.13 0.61 0.34 0.82v0l6.133 6.12 1.64-1.653-5.293-5.293 5.293-5.293zM11.76 14.827l-2.493 2.347h10.973l2.493-2.347zM9.267 20.68l2.493 2.333h10.973l-2.493-2.333z"></path>
</svg>
