<!-- Generated by IcoMoon.io -->
<svg version="1.1" xmlns="http://www.w3.org/2000/svg" width="32" height="32" viewBox="0 0 32 32">
<title>px</title>
<path fill="#0099e5" d="M9.919 12.013c-2.201 0.003-3.984 1.786-3.987 3.986v0c0.002 2.201 1.786 3.984 3.986 3.987h0c2.201-0.003 3.984-1.786 3.987-3.986v-0c-0.002-2.201-1.786-3.984-3.986-3.987h-0zM9.919 19.137c-1.729 0-3.139-1.408-3.139-3.137s1.409-3.137 3.139-3.137 3.137 1.408 3.137 3.137-1.408 3.137-3.137 3.137zM18.548 12.013c-2.201 0.003-3.984 1.786-3.987 3.986v0c0.002 2.201 1.786 3.984 3.986 3.987h0c2.201-0.003 3.984-1.786 3.987-3.986v-0c-0.003-2.201-1.786-3.984-3.986-3.987h-0zM18.548 19.137c-1.731 0-3.137-1.408-3.137-3.137s1.407-3.137 3.137-3.137c1.729 0 3.137 1.408 3.137 3.137s-1.408 3.137-3.137 3.137zM3.065 14.404c-0.122-0.019-0.262-0.029-0.404-0.029-0.653 0-1.253 0.223-1.73 0.598l0.006-0.005v-2.113h3.583c0.124 0 0.213-0.023 0.213-0.389 0-0.359-0.144-0.373-0.24-0.373h-3.965c-0.232 0-0.353 0.187-0.353 0.392v3.469c0 0.181 0.116 0.244 0.329 0.285 0.188 0.037 0.297 0.016 0.38-0.076l0.008-0.013c0.377-0.544 1.2-1.072 1.981-0.976 0.932 0.115 1.683 0.859 1.787 1.769 0.008 0.069 0.013 0.149 0.013 0.231 0 1.113-0.902 2.015-2.014 2.016h-0c-0.847 0-1.587-0.544-1.895-1.335-0.047-0.117-0.123-0.203-0.457-0.083-0.305 0.111-0.324 0.241-0.283 0.357 0.405 1.085 1.431 1.845 2.634 1.848h0c1.541-0.009 2.787-1.26 2.787-2.803 0-1.399-1.025-2.558-2.365-2.769l-0.016-0.002zM25.26 12.052c-1.073 0.083-1.912 1.025-1.912 2.147v3.548c0 0.205 0.156 0.248 0.391 0.248s0.391-0.041 0.391-0.248v-3.557c0-0.699 0.509-1.299 1.157-1.365 0.042-0.005 0.090-0.008 0.139-0.008 0.336 0 0.642 0.128 0.873 0.338l-0.001-0.001c0.264 0.241 0.429 0.587 0.429 0.971 0 0 0 0.001 0 0.001v-0c0 0.107-0.052 0.453-0.289 0.775-0.18 0.243-0.521 0.532-1.125 0.532h-0.012c-0.153 0-0.287 0.007-0.312 0.373-0.017 0.248-0.016 0.359 0.197 0.387 0.381 0.053 0.768-0.021 1.153-0.221 0.656-0.341 1.096-0.988 1.148-1.689 0.004-0.047 0.006-0.102 0.006-0.158 0-0.574-0.233-1.095-0.609-1.471l0 0c-0.376-0.374-0.895-0.606-1.467-0.606-0.055 0-0.11 0.002-0.164 0.006l0.007-0zM30.485 14.131l1.447-1.447c0.053-0.052 0.176-0.176-0.073-0.432-0.107-0.111-0.204-0.167-0.289-0.167h-0.001c-0.065 0.002-0.122 0.031-0.161 0.077l-0 0-1.451 1.451-1.448-1.457c-0.117-0.117-0.253-0.089-0.429 0.087-0.18 0.181-0.209 0.32-0.092 0.437l1.448 1.456-1.428 1.428c-0.035 0.033-0.087 0.084-0.087 0.167-0.001 0.084 0.056 0.185 0.168 0.297 0.093 0.095 0.184 0.143 0.267 0.143 0.092 0 0.152-0.060 0.185-0.093l1.424-1.423 1.455 1.456c0.039 0.037 0.091 0.060 0.149 0.060 0.001 0 0.002 0 0.003-0h0.003c0.092 0 0.189-0.053 0.289-0.157 0.163-0.172 0.191-0.315 0.081-0.425z"></path>
</svg>
