<!-- Generated by IcoMoon.io -->
<svg version="1.1" xmlns="http://www.w3.org/2000/svg" width="32" height="32" viewBox="0 0 32 32">
<title>pypi</title>
<path fill="#3775a9" d="M31.896 18.107v5.216l-4.496 1.637-0.104 0.073 0.069 0.049 4.6-1.675 0.035-0.048v-5.329l-0.071-0.048zM31.495 7.491l-4.053 1.476v5.216l4.452-1.62v-5.217zM31.893 17.943v-5.217l-4.448 1.62v5.217zM27.293 19.613v-5.213l-4.4 1.6v5.217zM22.712 26.661v-5.216l-4.417 1.608v5.216zM22.893 21.409v5.157l4.419-1.608v-5.159zM25.684 23.919c-0.489 0.179-0.884-0.099-0.884-0.617s0.395-1.085 0.884-1.263c0.487-0.177 0.883 0.1 0.883 0.619s-0.396 1.085-0.883 1.261zM17.633 12.42l0.487-0.176-4.38-1.596-4.431 1.613 0.136 0.049 4.245 1.547zM27.343 14.219v-5.217l-4.449 1.619v5.217zM22.744 15.891v-5.217l-4.403 1.603v5.216zM18.191 12.328l-4.448 1.62v5.217l4.448-1.62zM9.209 17.553l4.429 1.612v-5.217l-4.429-1.612zM13.787 10.497l4.375 1.591v-5.157l-4.373-1.591zM27.343 3.62l-4.423 1.609v5.217l4.423-1.609zM22.6 5.204l-4.301-1.564-4.359 1.587 4.3 1.565zM20.487 6.141l-2.165 0.789v5.157l4.423-1.609v-5.157zM19.965 9.845c-0.489 0.179-0.883-0.099-0.883-0.619s0.393-1.084 0.883-1.261c0.488-0.177 0.884 0.099 0.884 0.619s-0.396 1.084-0.884 1.261zM13.639 24.547v-5.219l-4.429-1.612v5.217zM18.237 22.909v-5.217l-4.495 1.636v5.217zM18.341 22.872l4.4-1.6v-5.219l-4.4 1.6zM18.237 28.289l-4.495 1.636v-5.216h-0.104v5.216l-4.429-1.612v-5.217l-0.071-0.077-0.033-0.080-4.448-1.613v-5.264l0.045 0.017 4.383 1.595 0.020-0.104-4.348-1.583 4.347-1.583v-0.145l-4.345-1.581 4.347-1.584v1.169l0.105-0.073v-3.164l4.343 1.58 0.077-0.081-4.321-1.573 4.32-1.572v-0.111l-4.491 1.635v0.024l-0.033 0.024v2.031l-4.519 1.645v0.027l-0.033 0.023v5.343l-4.52 1.644v0.025l-0.033 0.024v5.327l0.033 0.049 4.533 1.649 0.011-0.008 0.009 0.013 4.533 1.651 0.011-0.008 0.008 0.013 4.533 1.649 0.019-0.012 0.016 0.013 4.6-1.675 0.035-0.049zM4.657 12.751l4.343 1.58-4.343 1.583zM4.533 26.613l-4.429-1.611v-5.217l4.428 1.612zM4.553 21.293l-4.349-1.581 4.349-1.583zM9.085 28.268l-4.428-1.612v-5.216l4.428 1.612zM31.721 7.245l-4.28-1.56v3.117zM27.183 3.524l-4.32-1.573-4.36 1.587 4.329 1.576z"></path>
</svg>
