<!-- Generated by IcoMoon.io -->
<svg version="1.1" xmlns="http://www.w3.org/2000/svg" width="32" height="32" viewBox="0 0 32 32">
<title>pytorch</title>
<path fill="#ee4c2c" d="M16.007 0.053l-9.373 9.373c-2.401 2.377-3.887 5.673-3.887 9.317s1.486 6.94 3.886 9.316l0.001 0.001c2.377 2.401 5.674 3.887 9.317 3.887s6.94-1.486 9.316-3.886l0.001-0.001c5.293-5.183 5.296-13.561 0.112-18.635l-2.317 2.316c3.86 3.86 3.86 10.144 0 14.004-3.859 3.859-10.144 3.859-14.004 0-3.859-3.86-3.859-10.145 0-14.004l6.176-6.175 0.773-0.884zM20.748 5.235c-0.974 0-1.764 0.79-1.764 1.764v0c0 0.974 0.79 1.764 1.764 1.764v0c0.974 0 1.764-0.79 1.764-1.764v0c0-0.974-0.79-1.764-1.764-1.764v0z"></path>
</svg>
