<!-- Generated by IcoMoon.io -->
<svg version="1.1" xmlns="http://www.w3.org/2000/svg" width="32" height="32" viewBox="0 0 32 32">
<title>qemu</title>
<path fill="#f60" d="M16.004 0.085c-8.836 0-16.004 7.124-16.004 15.915s7.168 15.915 16.004 15.915c2.892 0 5.6-0.76 7.94-2.093l0.832 2.093h6.455l-2.524-6.239c2.054-2.639 3.293-6.002 3.293-9.653 0-0.008 0-0.016-0-0.024v0.001c0-8.791-7.16-15.915-15.996-15.915zM11.757 2.707c0.531 0.452 0.432 0.264 1.147 0.179 0.813-0.529 1.191 1.256 1.529 0.26 0.997 0.129 2.056 0.453 3 0.779 0.999 0.233 1.849 0.766 2.473 1.498l0.005 0.006-0.019 0.009 0.467 0.617c0.060 0.107 0.109 0.219 0.16 0.331 0.189 1.607 1.973 1.587 3.169 2.167 1.023 0.363 2.253 0.915 2.38 2.148-0.257-0.056-1.255-1.228-2.040-1.343-0.536-0.047-1.031-0.168-1.494-0.352l0.035 0.012-2.757-0.511v-0.009c-0.162-0.019-0.302-0.044-0.439-0.076l0.027 0.005v0.017l-3.903-0.483c0.064 0.044 0.133 0.103 0.197 0.16l4 0.78v-0.009l0.279 0.071 1.119 0.251c0.221 0.021 0.445 0.057 0.627 0.089 1.141 0.315 2.491 0.259 3.428 1.056-0.245 0.469-1.613 0.204-2.292 0.144-0.083-0.016-0.175-0.031-0.259-0.045l-0.045-0.009c-0.928-0.151-1.881-0.16-2.775 0.117h-0.009c-0.342 0.11-0.638 0.246-0.914 0.413l0.019-0.011c-1.291 0.751-2.885 1.023-3.956 2.103-1.049 1.129-0.985 2.683-0.805 4.127h0.044v0.367c0.017 0.127 0.037 0.253 0.053 0.376 0.547 2.92 2 5.6 2.453 8.549 0.087 1.124 0.271 2.576 0.412 3.491-0.408-0.121-0.633-1.949-0.725-1.343-1.512-2.661-3.084-4.95-4.827-7.094l0.074 0.094c-1.137-1.339-2.263-2.747-3.616-3.859-0.913-0.704-0.624-2.067-0.716-3.069-0.307-1.235-0.125-2.464 0.080-3.697 0.417-1.284 0.557-2.624 1.128-3.857 0.871-0.775 0.892-2.173 1.737-2.847 0.125 0.077 0.209 0.113 0.267 0.133l0.091 0.011h0.009c0.12-0.127-1.184-1.488 0.027-0.949 0.047-0.716 1.139-0.171 1.155-0.796zM16.887 5.616c-0.431 0.012-0.765 0.173-0.86 0.447-0.152 0.44 0.364 1.007 1.155 1.28 0.792 0.273 1.557 0.145 1.709-0.295s-0.363-1.016-1.155-1.289c-0.246-0.090-0.529-0.143-0.825-0.143-0.008 0-0.017 0-0.025 0h0.001z"></path>
</svg>
