<!-- Generated by IcoMoon.io -->
<svg version="1.1" xmlns="http://www.w3.org/2000/svg" width="32" height="32" viewBox="0 0 32 32">
<title>qgis</title>
<path fill="#589632" d="M17.172 17.341v4.867l-4.005-4.064v-4.66h4.776l3.803 3.857zM31.687 27.483v4.517h-4.872l-7.64-7.867v-4.733h4.472zM17.249 25.552l4.496 4.495c-1.745 0.589-3.409 0.968-5.767 0.968-9.131-0.001-15.979-6.691-15.979-15.595 0-8.86 6.848-15.42 15.979-15.42 9.173 0 16.021 6.603 16.021 15.42 0 2.827-0.697 5.435-1.943 7.679l-4.833-4.967c0.203-0.798 0.32-1.714 0.32-2.657 0-0.006 0-0.011 0-0.017v0.001c0-5.721-4.197-10.036-9.467-10.036-5.272 0-9.664 4.315-9.664 10.036s4.44 10.133 9.663 10.133c0.731 0 0.881 0.023 1.173-0.040z"></path>
</svg>
