<!-- Generated by IcoMoon.io -->
<svg version="1.1" xmlns="http://www.w3.org/2000/svg" width="32" height="32" viewBox="0 0 32 32">
<title>qiita</title>
<path fill="#55c500" d="M10.511 15.487c0-2.56-1.965-5.205-5.299-5.205-2.563-0.001-5.212 1.963-5.212 5.291 0 2.56 1.965 5.207 5.297 5.207 1.068 0 2.136-0.341 3.033-0.981l1.539 1.536 0.684-0.683-1.453-1.451c0.897-0.981 1.411-2.261 1.411-3.713zM5.212 11.22c2.436 0 4.359 1.877 4.359 4.309 0 2.092-1.624 4.311-4.316 4.311-2.691 0-4.315-2.176-4.315-4.267 0-2.732 2.179-4.353 4.272-4.353zM13.031 13.311h0.897v7.253h-0.897zM13.457 12.329c-0.001 0-0.002 0-0.003 0-0.423 0-0.765-0.343-0.765-0.765 0-0.001 0-0.002 0-0.003v0c0-0.427 0.341-0.768 0.768-0.768s0.769 0.341 0.769 0.768-0.341 0.768-0.769 0.768zM17.089 12.329c-0.001 0-0.003 0-0.004 0-0.423 0-0.765-0.343-0.765-0.765 0-0.001 0-0.002 0-0.003v0c0-0.427 0.343-0.768 0.769-0.768s0.769 0.341 0.769 0.768-0.341 0.768-0.769 0.768zM16.663 13.311h0.897v7.253h-0.897zM22.943 20.693c-1.667 0-2.649-1.28-2.649-2.56v-6.828h0.897v2.005h3.161v0.896h-3.16v3.969c0 0.811 0.64 1.664 1.751 1.664 0.299 0 0.599-0.085 0.853-0.256l0.087-0.043 0.427 0.768-0.085 0.043c-0.384 0.213-0.853 0.341-1.281 0.341zM28.881 20.736c-2.436 0-3.888-1.92-3.888-3.797 0-2.433 1.923-3.884 3.803-3.884 0.983 0 1.752 0.341 2.307 0.981v-0.725h0.897v7.253h-0.897v-0.809c-0.512 0.64-1.281 0.981-2.221 0.981zM28.796 13.951c-1.453 0-2.907 1.109-2.907 2.987 0 1.452 1.112 2.903 2.992 2.903 0.853 0 1.709-0.384 2.264-1.067v-3.756c-0.563-0.655-1.393-1.067-2.319-1.067-0.011 0-0.021 0-0.032 0h0.002z"></path>
</svg>
