<!-- Generated by IcoMoon.io -->
<svg version="1.1" xmlns="http://www.w3.org/2000/svg" width="32" height="32" viewBox="0 0 32 32">
<title>qualcomm</title>
<path fill="#3253dc" d="M16 0c-7.694 0-13.899 5.982-13.899 13.965 0 8.006 6.204 13.965 13.899 13.965 1.312 0 2.58-0.178 3.78-0.511l1.512 3.892c0.156 0.423 0.467 0.689 1.023 0.689h2.402c0.578 0 1.001-0.378 0.734-1.112l-1.957-5.092c3.847-2.424 6.404-6.716 6.404-11.853 0-7.961-6.204-13.943-13.898-13.943zM22.049 22.082l-1.757-4.559c-0.156-0.378-0.467-0.734-1.134-0.734h-2.291c-0.578 0-1.023 0.378-0.756 1.112l2.313 5.982c-0.756 0.2-1.579 0.289-2.424 0.289-5.626 0-9.629-4.425-9.629-10.207s4.003-10.207 9.629-10.207 9.629 4.425 9.629 10.207c0 3.38-1.357 6.271-3.58 8.117z"></path>
</svg>
