<!-- Generated by IcoMoon.io -->
<svg version="1.1" xmlns="http://www.w3.org/2000/svg" width="32" height="32" viewBox="0 0 32 32">
<title>quarkus</title>
<path fill="#4695eb" d="M17.051 21.284l5.163-2.981v-5.96l-5.163 2.98zM17.544 21.569l4.669 2.697v-5.391zM21.932 11.284v-5.391l-4.669 2.693zM16.769 8.873l-5.164 2.981 5.164 2.981 5.163-2.981zM16.275 8.588l-4.669-2.695v5.391zM22.708 12.628v5.389l4.668-2.695zM16.488 21.284v-5.961l-5.163-2.981v5.961zM10.831 12.627l-4.671 2.696 4.669 2.695zM11.324 18.875v5.391l4.669-2.696zM26.676 0.179h-21.371c-2.919 0-5.305 2.357-5.305 5.24v21.109c0 2.881 2.387 5.24 5.305 5.24h14.635l-3.949-9.477-2.867 5.984h-7.817c-0.96 0-1.769-0.8-1.769-1.747v-21.109c0-0.947 0.811-1.747 1.769-1.747h21.371c0.959 0 1.769 0.8 1.769 1.747v21.109c0 0.947-0.811 1.747-1.769 1.747h-4.637l1.456 3.493h3.181c2.917 0 5.305-2.359 5.305-5.24v-21.109c0-2.883-2.387-5.24-5.307-5.24z"></path>
</svg>
