<!-- Generated by IcoMoon.io -->
<svg version="1.1" xmlns="http://www.w3.org/2000/svg" width="32" height="32" viewBox="0 0 32 32">
<title>quicktime</title>
<path fill="#1c69f0" d="M16 0c-0.001 0-0.003 0-0.004 0-8.837 0-16 7.163-16 16s7.163 16 16 16c3.295 0 6.357-0.996 8.902-2.703l-0.058 0.036 2.64 2.627h4.187l0.333-0.333v-4.2l-2.667-2.64c1.665-2.47 2.66-5.512 2.667-8.785v-0.002c0-8.837-7.163-16-16-16v0zM16 5.6c5.741 0.004 10.393 4.659 10.393 10.4 0 1.717-0.416 3.337-1.153 4.765l0.027-0.058-7-7.013c-0.58-0.58-1.381-0.939-2.267-0.939-1.77 0-3.206 1.435-3.206 3.206 0 0.885 0.359 1.687 0.939 2.267v0l7.027 7.013c-1.382 0.731-3.021 1.16-4.76 1.16v0c-5.744 0-10.4-4.656-10.4-10.4s4.656-10.4 10.4-10.4v0z"></path>
</svg>
