<!-- Generated by IcoMoon.io -->
<svg version="1.1" xmlns="http://www.w3.org/2000/svg" width="32" height="32" viewBox="0 0 32 32">
<title>quip</title>
<path fill="#f27557" d="M29.539 29.539h-13.539c-0.016 0-0.035 0-0.054 0-3.87 0-7.357-1.639-9.805-4.26l-0.007-0.008c-2.587-2.751-3.88-6.351-3.643-10.137 0.42-6.788 5.853-12.224 12.643-12.645 0.293-0.019 0.587-0.027 0.876-0.027 0.012-0 0.026-0 0.041-0 3.574 0 6.822 1.398 9.225 3.678l-0.006-0.006c2.63 2.455 4.269 5.943 4.269 9.813 0 0.019-0 0.037-0 0.056v-0.003zM26.955 4.339c-3.251-3.055-7.501-4.587-11.973-4.307-8.024 0.5-14.451 6.927-14.949 14.951-0.276 4.471 1.253 8.724 4.308 11.973 2.93 3.102 7.068 5.036 11.659 5.044h14.771c0.68 0 1.231-0.551 1.231-1.229v-14.771c-0.009-4.592-1.943-8.731-5.038-11.653l-0.008-0.007zM21.539 20.308h-11.077c-0.68 0-1.231 0.551-1.231 1.231s0.551 1.231 1.231 1.231h11.077c0.68 0 1.231-0.551 1.231-1.231s-0.551-1.231-1.231-1.231v0zM10.461 11.693h11.077c0.68 0 1.231-0.551 1.231-1.231s-0.551-1.231-1.231-1.231v0h-11.077c-0.68 0-1.231 0.551-1.231 1.231s0.551 1.231 1.231 1.231v0zM6.769 14.771c-0.662 0.022-1.19 0.565-1.19 1.23s0.528 1.208 1.188 1.23l0.002 0h18.461c0.68 0 1.231-0.551 1.231-1.231s-0.551-1.231-1.231-1.231v0z"></path>
</svg>
