<!-- Generated by IcoMoon.io -->
<svg version="1.1" xmlns="http://www.w3.org/2000/svg" width="32" height="32" viewBox="0 0 32 32">
<title>qwiklabs</title>
<path fill="#f5cd0e" d="M19.128 24.273c3.237-1.289 5.483-4.396 5.483-8.028 0-4.757-3.854-8.614-8.611-8.619h-0c-0.002 0-0.004 0-0.007 0-4.758 0-8.616 3.857-8.616 8.616 0 3.635 2.252 6.745 5.436 8.010l0.058 0.020c0.107 0.047 0.231 0.074 0.361 0.074 0.503 0 0.911-0.403 0.92-0.904v-7.201c0-1.020 0.827-1.847 1.847-1.847s1.847 0.827 1.847 1.847v7.2c0.011 0.501 0.42 0.903 0.922 0.903 0.13 0 0.253-0.027 0.365-0.075l-0.006 0.002zM20.207 31.684c6.796-1.847 11.793-8.060 11.793-15.441 0-8.836-7.164-16-16-16s-16 7.164-16 16c0 7.381 4.997 13.595 11.793 15.441 0.015 0.005 0.037 0.011 0.059 0.016l0.006 0.001 0.079 0.021 0.001-0.003c0.111 0.024 0.239 0.038 0.37 0.038 1.020 0 1.847-0.827 1.847-1.847 0-0.851-0.575-1.567-1.357-1.781l-0.013-0.003c-5.282-1.463-9.094-6.227-9.094-11.881 0-6.798 5.51-12.308 12.308-12.308s12.308 5.51 12.308 12.308c0 5.653-3.811 10.415-9.003 11.859l-0.087 0.021c-0.795 0.217-1.37 0.934-1.37 1.784 0 1.020 0.827 1.847 1.847 1.847 0.131 0 0.259-0.014 0.382-0.040l-0.012 0.002 0.001 0.003 0.079-0.021z"></path>
</svg>
