<!-- Generated by IcoMoon.io -->
<svg version="1.1" xmlns="http://www.w3.org/2000/svg" width="32" height="32" viewBox="0 0 32 32">
<title>qzone</title>
<path fill="#fece00" d="M31.98 12.269c-0.043-0.132-0.169-0.297-0.445-0.344-0.276-0.048-9.801-1.875-9.801-1.875s-0.14-0.029-0.264-0.093c-0.123-0.063-0.169-0.223-0.169-0.223s-4.704-8.46-4.835-8.708c-0.132-0.249-0.327-0.317-0.465-0.317s-0.335 0.068-0.465 0.317c-0.131 0.248-4.835 8.708-4.835 8.708s-0.047 0.16-0.171 0.223c-0.123 0.063-0.263 0.093-0.263 0.093s-9.525 1.827-9.803 1.873c-0.277 0.048-0.403 0.213-0.444 0.344-0.011 0.045-0.018 0.097-0.018 0.15 0 0.175 0.071 0.333 0.185 0.448l-0-0 7.149 7.32c0 0 0.096 0.107 0.159 0.229 0.021 0.139 0.007 0.28 0.007 0.28s-1.585 9.656-1.627 9.933 0.1 0.492 0.212 0.573c0.111 0.083 0.311 0.141 0.561 0.017 0.252-0.124 9.083-4.348 9.083-4.348s0.131-0.059 0.268-0.081 0.268 0.081 0.268 0.081 8.831 4.224 9.083 4.348c0.251 0.125 0.451 0.065 0.561-0.017 0.135-0.114 0.22-0.283 0.22-0.473 0-0.036-0.003-0.070-0.009-0.104l0 0.004c-0.028-0.187-1.24-7.569-1.24-7.569 1.168-0.72 1.9-1.385 2.465-2.329-3.459 1.292-8.008 2.289-12.553 2.488-1.22 0.055-3.213 0.129-4.631-0.020-0.904-0.095-1.56-0.192-1.657-0.584-0.071-0.287 0.072-0.613 0.727-1.108-7.432 5.38-6.191 4.438-4.949 3.496l8.764-6.37c1.713-1.291 4.745-3.293 4.745-3.641 0-0.38-2.859-1.041-5.383-1.041-2.593 0-3.033 0.176-3.748 0.224-0.651 0.045-1.025 0.007-1.072-0.184-0.080-0.331 0.244-0.519 0.784-0.757 0.945-0.419 2.48-0.792 2.645-0.835 0.259-0.069 4.109-1.073 7.491-0.713 1.757 0.187 4.325 0.891 4.325 1.701 0 0.456-2.295 1.992-4.3 3.463-1.532 1.124-2.956 2.081-2.956 2.251 0 0.456 4.711 1.655 8.919 1.347l0.004-0.029c0.064-0.123 0.159-0.229 0.159-0.229l7.149-7.32c0.115-0.115 0.187-0.274 0.187-0.45 0-0.053-0.006-0.104-0.018-0.153l0.001 0.004z"></path>
</svg>
