<!-- Generated by IcoMoon.io -->
<svg version="1.1" xmlns="http://www.w3.org/2000/svg" width="32" height="32" viewBox="0 0 32 32">
<title>radiopublic</title>
<path fill="#ce262f" d="M18.584 5.431c4.341-0.379 8.683-2.636 13.024-0.715v26.519c-5.988-2.652-11.977 2.652-17.965 0v-4.664c-4.417 0.36-8.833 2.649-13.251 0.719v-26.519c6.064 2.652 12.128-2.652 18.192 0zM21.891 19.827c0.524-0.115 1.045-0.232 1.568-0.345 2.313-0.505 3.236-1.871 3.235-4.019v-3.463c0-2.113-0.596-3.453-3.408-2.847-1.568 0.343-3.133 0.724-4.703 0.86v17.291c1.103-0.096 2.205-0.313 3.309-0.552zM21.891 17.013v-4.88l0.623-0.136c0.773-0.172 0.844 0.208 0.847 0.836v2.881c0 0.535-0.073 0.992-0.847 1.163zM8.708 22.813v-7.389l0.696-0.152c0.672-0.147 0.869 0.020 0.871 0.833v5.044c0 0.767 0.125 1.112 0.299 1.261 1.104-0.231 2.205-0.431 3.308-0.503v-0.116c-0.123-0.2-0.273-0.513-0.272-1.259v-5.88c0-1.283-0.897-1.773-1.419-1.867 0.62-0.363 1.468-1.069 1.467-2.507v-2.763c0-1.855-1.019-2.835-3.035-2.407-1.74 0.363-3.483 0.808-5.224 0.957v17.292c1.103-0.096 2.205-0.309 3.309-0.547zM8.708 12.565v-4.369c0.248-0.053 0.497-0.107 0.747-0.163 0.671-0.147 0.82 0.055 0.82 0.799v2.347c0 0.813-0.247 1.099-0.92 1.245z"></path>
</svg>
