<!-- Generated by IcoMoon.io -->
<svg version="1.1" xmlns="http://www.w3.org/2000/svg" width="32" height="32" viewBox="0 0 32 32">
<title>reactos</title>
<path fill="#08c" d="M26.947 32c-1.531-0.009-3.303-0.445-5.187-1.22-3.764-1.551-8.053-4.496-12.048-8.489-3.993-3.993-6.945-8.284-8.495-12.051-1.551-3.764-1.728-7.093 0.1-8.921 1.827-1.825 5.156-1.649 8.921-0.099 0.408 0.167 0.823 0.353 1.243 0.553-0.441 0.151-0.877 0.32-1.299 0.511l-0.188-0.077c-3.552-1.463-6.397-1.515-7.852-0.061-1.453 1.455-1.4 4.295 0.061 7.847 1.463 3.551 4.313 7.724 8.196 11.605 3.88 3.881 8.059 6.733 11.611 8.196s6.387 1.515 7.84 0.060c1.455-1.453 1.408-4.293-0.055-7.845-0.144-0.351-0.307-0.708-0.477-1.071 0.179-0.423 0.333-0.856 0.472-1.297 0.376 0.72 0.707 1.427 0.992 2.119 1.551 3.764 1.723 7.093-0.105 8.921-0.913 0.913-2.201 1.329-3.731 1.32zM5.053 32c-1.531 0.011-2.823-0.407-3.736-1.32-1.827-1.827-1.651-5.157-0.1-8.921 0.313-0.763 0.689-1.547 1.115-2.347 0.131 0.444 0.283 0.88 0.453 1.304-0.146 0.281-0.341 0.706-0.523 1.137l-0.058 0.155c-1.463 3.551-1.509 6.392-0.056 7.845 1.455 1.455 4.295 1.401 7.847-0.060 1.229-0.507 4.028-2.253 5.368-3.077 0.288 0.216 0.577 0.427 0.865 0.632-1.543 0.977-4.553 2.84-5.989 3.432-1.883 0.775-3.653 1.209-5.185 1.22zM18.057 26.056c-0.285-0.187-0.572-0.376-0.86-0.577 1.614-1.256 3.050-2.526 4.402-3.881l0.001-0.001c3.883-3.881 6.733-8.053 8.196-11.605s1.509-6.392 0.056-7.847c-1.455-1.453-4.289-1.407-7.84 0.056l-0.096 0.039c-0.335-0.155-0.772-0.326-1.219-0.476l-0.101-0.029c0.393-0.187 0.783-0.363 1.165-0.52 3.765-1.551 7.095-1.723 8.921 0.104s1.651 5.152 0.1 8.917c-1.549 3.764-4.501 8.061-8.493 12.053-1.305 1.309-2.685 2.541-4.134 3.691l-0.098 0.075zM20.657 27.597c-0.433-0.227-2.397-1.431-2.847-1.697 1.336-1.075 3.231-2.627 4.528-3.925 2.291-2.291 5.308-6.383 6.883-8.74-0.011 0.148-0.124 3.32-0.14 3.467-0.534 5.017-3.838 9.147-8.334 10.866l-0.090 0.030zM11.42 27.552c-4.543-1.744-8.057-6.28-8.383-10.931-0.013-0.201-0.080-0.532-0.072-1.312 0.009-0.803 0.075-1.897 0.212-1.711 1.381 1.893 5.301 7.273 7.136 9.107 1.297 1.297 2.569 2.165 3.905 3.24-0.222 0.163-1.137 0.696-2.057 1.219l-0.741 0.388zM15.993 24.608c-1.688-1.289-3.186-2.604-4.589-4.012l-0.001-0.001c-3.387-3.387-5.949-7.005-7.424-10.109 1.933-4.796 6.631-8.184 12.116-8.184 5.401 0 10.040 3.287 12.027 7.968-1.457 3.151-4.060 6.86-7.524 10.324-1.408 1.41-2.91 2.726-4.497 3.936l-0.107 0.079z"></path>
</svg>
