<!-- Generated by IcoMoon.io -->
<svg version="1.1" xmlns="http://www.w3.org/2000/svg" width="32" height="32" viewBox="0 0 32 32">
<title>readthedocs</title>
<path fill="#8ca1af" d="M3.679 32l0.885-0.192c0.276-0.059 0.549-0.113 0.825-0.168 0.424-0.083 0.849-0.164 1.273-0.243 0.32-0.061 0.64-0.113 0.961-0.172l0.073-0.020c0.333-0.059 0.664-0.12 0.996-0.16l1.619-0.239v-30.808h-0.056c-0.84 0.005-1.675 0.021-2.512 0.048-0.919 0.024-1.859 0.080-2.779 0.14-0.399 0.028-0.8 0.061-1.199 0.093h-0.060v31.712zM11.881 0.020v30.589c1.148-0.133 2.293-0.243 3.443-0.328 2.828-0.215 5.664-0.281 8.497-0.201 1.504 0.045 3.004 0.132 4.499 0.256v-28.332c-1.339-0.305-2.683-0.576-4.037-0.809-2.624-0.456-5.273-0.775-7.929-0.975-1.485-0.108-2.977-0.176-4.469-0.199zM26.232 19.749l-0.061-0.005-0.748-0.081c-1.865-0.195-3.74-0.323-5.609-0.388-1.876-0.060-3.753-0.040-5.631 0.021h-0.059c-0.060 0-0.121 0-0.18-0.021-0.135-0.040-0.26-0.099-0.356-0.199-0.169-0.181-0.248-0.42-0.208-0.66 0.011-0.081 0.039-0.14 0.072-0.221 0.036-0.059 0.084-0.139 0.139-0.179 0.057-0.060 0.12-0.1 0.191-0.139 0.081-0.040 0.161-0.061 0.24-0.081h0.12c0.26 0 0.521-0.021 0.76-0.021 1.86-0.039 3.697-0.039 5.559 0.040 1.919 0.080 3.819 0.22 5.717 0.44l0.201 0.020c0.059 0.021 0.119 0.021 0.18 0.040 0.14 0.061 0.259 0.14 0.34 0.241 0.059 0.059 0.099 0.139 0.14 0.219 0.039 0.081 0.059 0.16 0.059 0.24 0.020 0.22-0.059 0.44-0.219 0.6-0.061 0.061-0.121 0.1-0.18 0.14-0.063 0.040-0.14 0.059-0.221 0.080-0.040 0.021-0.060 0.021-0.119 0.021h-0.063zM26.279 16.135c-0.059 0-0.059 0-0.12-0.008l-0.74-0.095c-1.86-0.239-3.739-0.4-5.597-0.479-1.86-0.1-3.74-0.12-5.619-0.080l-0.061-0.021c-0.060-0.020-0.12-0.020-0.18-0.039-0.12-0.040-0.259-0.12-0.339-0.221-0.040-0.060-0.101-0.139-0.12-0.197-0.1-0.221-0.1-0.481 0.019-0.7 0.041-0.081 0.081-0.14 0.14-0.2s0.12-0.12 0.2-0.139c0.081-0.040 0.159-0.080 0.24-0.080l0.12-0.021 0.78-0.020c1.861-0.021 3.699 0.020 5.537 0.12 1.919 0.1 3.82 0.28 5.719 0.52l0.199 0.021 0.121 0.019c0.14 0.041 0.259 0.1 0.36 0.221 0.16 0.159 0.24 0.379 0.22 0.599 0 0.081-0.021 0.161-0.060 0.22-0.039 0.080-0.081 0.139-0.12 0.2-0.040 0.059-0.099 0.1-0.181 0.16-0.059 0.039-0.139 0.060-0.219 0.081l-0.121 0.019h-0.056zM26.279 12.52c-0.059 0-0.059 0-0.12-0.008l-0.74-0.107c-1.86-0.253-3.719-0.445-5.597-0.571-1.86-0.123-3.74-0.18-5.619-0.172h-0.061l-0.12-0.021c-0.079-0.021-0.139-0.048-0.219-0.091-0.2-0.123-0.341-0.339-0.38-0.584 0-0.081 0-0.16 0.021-0.24 0.019-0.081 0.039-0.156 0.079-0.227 0.041-0.072 0.101-0.136 0.161-0.192 0.099-0.1 0.24-0.168 0.38-0.2 0.060-0.015 0.119-0.020 0.18-0.020h0.759c1.919 0.012 3.839 0.085 5.739 0.229 1.86 0.14 3.699 0.347 5.537 0.609l0.2 0.028c0.061 0.009 0.081 0.009 0.12 0.025 0.080 0.027 0.16 0.061 0.22 0.107 0.081 0.044 0.139 0.1 0.18 0.164s0.081 0.135 0.12 0.211c0.083 0.208 0.060 0.445-0.039 0.639-0.039 0.073-0.081 0.14-0.14 0.195-0.1 0.099-0.219 0.169-0.36 0.2-0.039 0.016-0.061 0.016-0.121 0.019l-0.059 0.007zM26.279 8.904c-0.059 0-0.059 0-0.12-0.009l-0.74-0.12c-1.86-0.3-3.719-0.521-5.597-0.661-1.86-0.159-3.74-0.239-5.619-0.279h-0.061l-0.14-0.019c-0.081-0.020-0.153-0.060-0.22-0.099-0.071-0.041-0.132-0.101-0.187-0.161-0.048-0.060-0.091-0.139-0.125-0.199-0.027-0.080-0.049-0.16-0.059-0.241-0.021-0.24 0.071-0.495 0.241-0.659 0.099-0.1 0.235-0.167 0.372-0.2 0.060-0.020 0.12-0.020 0.18-0.020 0.252 0 0.507 0.007 0.76 0.011 1.916 0.045 3.828 0.151 5.739 0.328 1.849 0.159 3.693 0.4 5.527 0.699l0.18 0.021c0.053 0 0.069 0 0.12 0.019 0.083 0.021 0.149 0.061 0.22 0.101 0.061 0.039 0.12 0.099 0.167 0.159 0.121 0.18 0.18 0.401 0.14 0.62-0.020 0.081-0.041 0.14-0.081 0.221-0.040 0.060-0.099 0.139-0.16 0.18-0.099 0.099-0.22 0.159-0.361 0.199h-0.18zM5.385 8.225c-0.12 0-0.241-0.028-0.361-0.084-0.259-0.127-0.419-0.391-0.439-0.673 0-0.076 0.020-0.148 0.040-0.22 0.019-0.091 0.060-0.177 0.12-0.253 0.060-0.087 0.139-0.16 0.219-0.216 0.103-0.067 0.223-0.101 0.321-0.123l0.64-0.059c0.879-0.077 1.74-0.14 2.599-0.192h0.080c0.14 0.005 0.26 0.032 0.361 0.095 0.259 0.137 0.419 0.407 0.419 0.692 0 0.073-0.020 0.145-0.039 0.215-0.021 0.089-0.060 0.176-0.121 0.252-0.059 0.1-0.139 0.16-0.22 0.22-0.099 0.060-0.2 0.099-0.32 0.12-0.139 0.020-0.279 0.020-0.419 0.040-0.181 0.020-0.381 0.020-0.581 0.041l-1.557 0.117-0.38 0.041c-0.081 0.020-0.163 0.020-0.261 0.020zM26.259 5.291l-0.121-0.013-0.739-0.133c-1.86-0.312-3.74-0.567-5.619-0.752-1.86-0.184-3.739-0.3-5.619-0.361h-0.060l-0.12-0.024c-0.081-0.020-0.14-0.051-0.22-0.095-0.060-0.040-0.121-0.096-0.18-0.161-0.16-0.184-0.22-0.44-0.16-0.675 0.021-0.081 0.060-0.16 0.099-0.24 0.041-0.081 0.101-0.14 0.161-0.2 0.099-0.101 0.24-0.161 0.38-0.2 0.060-0.020 0.119-0.020 0.18-0.020l0.779 0.020c1.86 0.081 3.699 0.2 5.539 0.401 1.919 0.197 3.819 0.479 5.717 0.8l0.2 0.019c0.061 0 0.081 0 0.12 0.021 0.080 0.020 0.16 0.060 0.22 0.099 0.18 0.14 0.3 0.341 0.319 0.561 0.021 0.080 0 0.16-0.020 0.241 0 0.079-0.039 0.159-0.079 0.219-0.041 0.060-0.083 0.12-0.14 0.18-0.101 0.101-0.241 0.16-0.381 0.18l-0.115 0.019h-0.061zM5.363 4.265c-0.115 0-0.228-0.025-0.333-0.075-0.093-0.044-0.179-0.105-0.249-0.183-0.060-0.071-0.115-0.149-0.148-0.241-0.027-0.065-0.045-0.135-0.052-0.208-0.029-0.285 0.104-0.569 0.34-0.728 0.104-0.072 0.223-0.115 0.347-0.132 0.211-0.019 0.419-0.019 0.631-0.039 0.867-0.060 1.735-0.1 2.599-0.14h0.064c0.121 0.021 0.241 0.040 0.341 0.1 0.239 0.14 0.4 0.42 0.4 0.699 0 0.081-0.021 0.161-0.040 0.221-0.040 0.099-0.080 0.18-0.139 0.26-0.063 0.080-0.143 0.16-0.243 0.2-0.1 0.060-0.22 0.1-0.34 0.1-0.139 0.019-0.28 0.019-0.44 0.019l-0.599 0.041c-0.54 0.039-1.060 0.060-1.581 0.099l-0.4 0.021c-0.1 0.020-0.179 0.020-0.259 0.020z"></path>
</svg>
