<!-- Generated by IcoMoon.io -->
<svg version="1.1" xmlns="http://www.w3.org/2000/svg" width="32" height="32" viewBox="0 0 32 32">
<title>realm</title>
<path fill="#39477f" d="M16.005 0.079c-4.413 0.016-8.406 1.797-11.313 4.675l0.001-0.001v0.003c-2.967 2.965-4.688 7.095-4.688 11.285 0 4.189 1.713 8.325 4.688 11.287l0.001 0.003c2.907 2.869 6.896 4.649 11.301 4.673l0.005 0h0.005c4.197 0 8.34-1.711 11.309-4.677l0.003-0.003c2.878-2.892 4.664-6.873 4.688-11.271l0-0.005v-0.005c0-4.188-1.716-8.324-4.691-11.287-2.904-2.877-6.897-4.66-11.306-4.676h-0.003zM16.005 1.86c0.64 0 1.28 0.061 1.913 0.151-2.707 0.755-5.020 2.163-7.405 2.599-0.505 0.092-1.086 0.145-1.679 0.145-0.454 0-0.901-0.031-1.338-0.091l0.051 0.006c2.435-1.784 5.445-2.809 8.459-2.809zM21.519 3.289c0.231 0 0.464 0.015 0.695 0.031 1.482 0.715 2.752 1.618 3.846 2.698l-0.002-0.002c0.123 0.121 0.231 0.259 0.349 0.385-1.717 0.923-3.745 1.495-5.899 1.57l-0.023 0.001c-3.24 0.080-6.611-1.059-10.253-1.097-0.034-0-0.073-0-0.113-0-2.045 0-4.006 0.364-5.82 1.030l0.117-0.038c0.427-0.609 0.896-1.191 1.416-1.724 1.631 0.429 3.333 0.52 4.997 0.219h0.003c3.019-0.549 5.511-2.167 8.065-2.773 0.769-0.19 1.652-0.299 2.561-0.299 0.022 0 0.043 0 0.065 0h-0.003zM27.565 7.828c0.775 1.082 1.422 2.329 1.88 3.663l0.030 0.102c-0.58-0.324-1.179-0.613-1.8-0.859h-0.001c-1.625-0.653-3.509-1.032-5.481-1.032-1.186 0-2.34 0.137-3.447 0.396l0.102-0.020h-0.004c-1.985 0.459-3.788 1.289-5.539 2.031-0.624 0.264-1.244 0.511-1.865 0.737-0.538-0.141-1.193-0.261-1.861-0.335l-0.065-0.006h-0.003c-0.353-0.035-0.764-0.055-1.179-0.055-1.584 0-3.101 0.288-4.501 0.816l0.088-0.029c-0.646-0.218-1.194-0.459-1.716-0.742l0.057 0.028c0.212-0.814 0.453-1.505 0.743-2.17l-0.036 0.094c2.228-1.169 4.736-1.819 7.244-1.792 3.26 0.035 6.656 1.187 10.317 1.096h0.005c2.592-0.079 5.003-0.783 7.11-1.964l-0.078 0.040zM22.191 11.484c1.644 0 3.284 0.305 4.833 0.909 1.162 0.468 2.166 1.042 3.077 1.732l-0.033-0.024c0.048 0.336 0.085 0.672 0.109 1.011-0.979-0.249-1.984-0.4-2.992-0.437-0.161-0.007-0.349-0.011-0.538-0.011-1.328 0-2.612 0.189-3.827 0.541l0.097-0.024c-0.929 0.264-1.804 0.617-2.652 1.012-1.449-0.495-2.888-1.147-4.369-1.781-0.276-0.136-0.859-0.377-1.447-0.608l-0.318-0.11c1.733-0.736 3.405-1.484 5.112-1.88 0.885-0.21 1.902-0.331 2.946-0.331 0.001 0 0.001 0 0.002 0h-0zM7.836 14.235c0.499-0.021 1-0.007 1.5 0.041 1.967 0.197 3.913 0.939 5.857 1.773 0.956 0.412 1.937 0.833 2.937 1.237-1.467 0.805-2.875 1.633-4.316 2.268-1.4-0.525-2.841-1.011-4.403-1.224-2.447-0.333-4.956 0.080-7.183 1.104-0.242-0.911-0.396-1.964-0.426-3.047l-0-0.019c0.537-0.4 1.104-0.76 1.707-1.053 1.263-0.622 2.742-1.013 4.304-1.079l0.022-0.001zM27.12 16.456c1.033 0.039 2.063 0.213 3.053 0.505-0.066 0.93-0.21 1.792-0.427 2.625l0.022-0.099c-0.893 0.584-1.844 1.076-2.852 1.44-2.437 0.876-5.133 1.053-7.667 0.497-1.040-0.227-2.076-0.6-3.121-1 2.519-1.297 4.797-2.825 7.276-3.528h0.003c0.972-0.285 2.089-0.449 3.244-0.449 0.165 0 0.329 0.003 0.493 0.010l-0.023-0.001zM7.344 20.008c0.611-0.021 1.221 0.007 1.825 0.088 3.139 0.429 6.156 2.291 9.7 3.068 0.476 0.104 0.956 0.179 1.437 0.237-0.467 0.133-0.931 0.28-1.391 0.443v0.003h-0.001c-1.711 0.616-3.273 1.389-4.849 1.851-2.868 0.833-5.924 0.72-8.724-0.307-1.058-1.204-1.925-2.608-2.534-4.143l-0.034-0.097c1.334-0.662 2.896-1.076 4.549-1.142l0.022-0.001zM28.869 22.008c-0.089 0.193-0.177 0.388-0.276 0.577-0.295-0.023-0.589-0.052-0.885-0.064 0.397-0.149 0.779-0.335 1.161-0.513zM26.603 24.279c0.308-0.001 0.619 0.009 0.928 0.021-0.444 0.62-0.928 1.216-1.473 1.765h-0.003v0.003c-2.621 2.617-6.339 4.151-10.047 4.151-2.872-0.018-5.541-0.874-7.779-2.334l0.055 0.034c2.093 0.252 4.231 0.087 6.28-0.509h0.004c1.776-0.521 3.368-1.316 4.947-1.885 2.108-0.776 4.543-1.231 7.082-1.245l0.006-0z"></path>
</svg>
