<!-- Generated by IcoMoon.io -->
<svg version="1.1" xmlns="http://www.w3.org/2000/svg" width="32" height="32" viewBox="0 0 32 32">
<title>reasonstudios</title>
<path fill="#fff" d="M3.32 6.819l11.065-6.387c0.985-0.569 2.196-0.576 3.188-0.023l0.040 0.023 11.065 6.387c0.987 0.569 1.6 1.616 1.615 2.753v12.815c0 1.139-0.601 2.192-1.579 2.773l-0.036 0.021-11.065 6.387c-0.985 0.569-2.196 0.576-3.188 0.023l-0.040-0.023-11.065-6.387c-0.987-0.569-1.599-1.617-1.613-2.753v-12.815c0-1.139 0.6-2.192 1.579-2.773l0.035-0.021 11.065-6.387zM16 5.368l-9.211 5.316v10.632l9.211 5.316v-10.632l9.211-5.316z"></path>
</svg>
