<!-- Generated by IcoMoon.io -->
<svg version="1.1" xmlns="http://www.w3.org/2000/svg" width="32" height="32" viewBox="0 0 32 32">
<title>redbubble</title>
<path fill="#e41321" d="M22.177 21.765h-4.265c-0.236-0.001-0.427-0.192-0.427-0.428 0-0 0-0.001 0-0.001v0-10.704c0-0.236 0.191-0.427 0.427-0.427v0h3.955c2.968 0 3.591 1.747 3.591 3.211 0 0.848-0.225 1.52-0.672 2.015 1.088 0.449 1.675 1.461 1.675 2.925 0 2.135-1.601 3.409-4.283 3.409zM15.985 21.765h-8.859c0 0 0 0 0 0-0.236 0-0.427-0.191-0.427-0.427 0-0.001 0-0.002 0-0.003v0-10.704c0-0.236 0.191-0.427 0.427-0.427v0h4.137c2.585 0 4.128 1.391 4.128 3.721 0 1.551-0.78 2.769-2.036 3.264l2.947 3.863c0.065 0.075 0.105 0.173 0.105 0.281 0 0.236-0.19 0.427-0.425 0.429h-0zM16 0c-8.836 0-16 7.164-16 16s7.164 16 16 16c8.837 0 16-7.164 16-16s-7.16-16-15.999-16z"></path>
</svg>
