<!-- Generated by IcoMoon.io -->
<svg version="1.1" xmlns="http://www.w3.org/2000/svg" width="32" height="32" viewBox="0 0 32 32">
<title>renren</title>
<path fill="#217dc6" d="M7.548 12.801v-5.731c-4.31 0.75-7.545 4.462-7.545 8.93 0 2.235 0.81 4.282 2.152 5.861l-0.011-0.013c3.171-1.536 5.388-5.007 5.404-9.048zM9.057 18.287c-0.564 2.336-2.249 4.332-4.349 5.659 1.251 0.699 2.744 1.111 4.334 1.111 0.005 0 0.010 0 0.015 0h-0.001c0.003 0 0.007 0 0.011 0 1.591 0 3.086-0.412 4.384-1.134l-0.046 0.023c-2.1-1.327-3.784-3.324-4.348-5.659zM15.969 10.151c-1.351-1.59-3.222-2.702-5.349-3.072l-0.054-0.008v5.687c0 4.059 2.221 7.549 5.401 9.089-1.332-1.562-2.143-3.605-2.143-5.837 0-0.004 0-0.008 0-0.012v0.001c0-0.005 0-0.010 0-0.015 0-2.231 0.811-4.272 2.154-5.845l-0.010 0.012zM15.969 10.151c1.337 1.577 2.207 3.619 2.207 5.849s-0.869 4.269-2.207 5.849v0c3.171-1.535 5.449-5.007 5.465-9.048v-5.731c-2.2 0.376-4.092 1.488-5.455 3.068l-0.010 0.012zM24.453 12.757c0 4.060 2.221 7.549 5.403 9.091 1.331-1.567 2.141-3.612 2.141-5.847 0-4.467-3.234-8.179-7.489-8.921l-0.054-0.008zM22.944 18.287c-0.564 2.336-2.249 4.332-4.349 5.659 1.251 0.699 2.744 1.111 4.334 1.111 0.005 0 0.010 0 0.015 0h-0.001c0.003 0 0.007 0 0.011 0 1.591 0 3.086-0.412 4.384-1.134l-0.046 0.023c-2.099-1.327-3.784-3.324-4.348-5.659z"></path>
</svg>
