<!-- Generated by IcoMoon.io -->
<svg version="1.1" xmlns="http://www.w3.org/2000/svg" width="32" height="32" viewBox="0 0 32 32">
<title>repl-dot-it</title>
<path fill="#667881" d="M16.353 0.003c-0.091-0.002-0.199-0.003-0.307-0.003-1.041 0-2.058 0.1-3.042 0.291l0.1-0.016c18.501 2.272 13.693 23.92 2.289 23.759 0 0 16.604 2.167 15.564-13.62-2.258-6.034-7.919-10.278-14.588-10.41l-0.016-0zM10.951 1.103c-0.267 0.003-0.536 0.011-0.813 0.021-5.964 2.352-10.107 8.064-10.107 14.744 0 0.803 0.060 1.592 0.175 2.363l-0.011-0.087c3.712-18.705 24.879-12.648 23.672-1.227 0 0 3.8-16.019-12.916-15.815zM12.889 7.816c-4.887 0.032-11.968 2.117-11.801 13.976 0.896 2.264 2.208 4.19 3.857 5.768l0.006 0.006c0.069 0.068 0.144 0.133 0.216 0.199 0.458 0.423 0.952 0.828 1.469 1.202l0.047 0.032c0.081 0.059 0.16 0.123 0.241 0.18 0.494 0.344 1.067 0.688 1.661 0.997l0.088 0.042c0.176 0.091 0.355 0.173 0.533 0.257 0.418 0.205 0.946 0.424 1.488 0.614l0.111 0.034c0.133 0.045 0.26 0.103 0.396 0.145 0.539 0.174 1.208 0.337 1.892 0.457l0.095 0.014c0.204 0.036 0.409 0.067 0.615 0.093 0.625 0.096 1.354 0.155 2.094 0.164l0.010 0 0.080 0.004c0.533 0 1.056-0.028 1.573-0.080-18.599-4.436-11.527-25.232-0.152-23.573 0 0-1.959-0.547-4.519-0.531zM16.137 11.499c-0 0-0.001 0-0.001 0-2.471 0-4.473 2.003-4.473 4.473s2.003 4.473 4.473 4.473c2.47 0 4.473-2.002 4.473-4.472v-0c0-0 0-0.001 0-0.001 0-2.47-2.002-4.473-4.472-4.473h-0zM8.204 14.421c0 0-4.444 16.365 13.359 16.507 5.618-2.129 9.668-7.182 10.318-13.252l0.006-0.070c0.044-0.425 0.057-0.859 0.067-1.293 0.001-0.113 0.017-0.224 0.017-0.34 0-0.495-0.031-0.983-0.075-1.467-4.703 18.516-25.509 11.264-23.692-0.084z"></path>
</svg>
