<!-- Generated by IcoMoon.io -->
<svg version="1.1" xmlns="http://www.w3.org/2000/svg" width="32" height="32" viewBox="0 0 32 32">
<title>researchgate</title>
<path fill="#0cb" d="M10.457 18.347c-0.615 0.007-1.228-0.017-1.84-0.069v-6.757c0.351-0.024 0.775-0.036 1.308-0.040l0.788-0.003c2.299 0 3.593 1.185 3.593 3.32 0 2.163-1.469 3.548-3.848 3.548zM28.001 0h-24c-2.209 0-4 1.791-4 4v24c0 2.209 1.791 4 4 4h24c2.209 0 4-1.791 4-4v-24c0-2.209-1.791-4-4-4zM20.201 27.775l-0.119 0.18c-0.336 0.153-0.871 0.245-1.384 0.245-1.64 0-3.021-0.632-3.945-1.744-1.1-1.268-2.735-3.692-4.272-6.432-0.885 0-1.216-0.007-1.644-0.028l-0.216-0.016v4.525c0 1.524 0.245 1.935 0.988 2.047l1.472 0.2 0.173 0.2v0.823l-0.208 0.2c-1.205-0.049-2.411-0.077-3.616-0.084-0.764 0-1.559 0.020-2.487 0.051l-0.931 0.035-0.205-0.2v-0.824l0.164-0.196 1.075-0.2c0.752-0.143 1-0.545 1-2.044v-11.192c0-1.499-0.248-1.903-0.996-2.045l-1.077-0.201-0.172-0.193v-0.824l0.208-0.2c1.641 0.047 3.284 0.041 4.924-0.015 0.988-0.029 1.58-0.041 2.291-0.041 3.577 0 5.892 1.74 5.892 4.856 0 2.2-1.668 4.333-3.892 4.983 1.228 2.141 2.771 4.245 4.149 5.756 0.819 0.884 1.772 1.44 2.628 1.44l0.2 0.2zM27.189 9.448c0 0.605-0.011 0.893-0.045 1.213-0.031 0.325-0.091 0.645-0.18 0.959-0.248 0.768-0.644 1.32-1.247 1.732-0.6 0.409-1.369 0.631-2.2 0.631-0.851 0-1.575-0.196-2.168-0.591-0.597-0.396-1.025-0.987-1.28-1.76-0.051-0.149-0.091-0.303-0.12-0.459-0.073-0.42-0.116-0.844-0.128-1.271-0.021-0.673-0.021-1.347 0-2.020 0.015-0.425 0.057-0.851 0.131-1.269 0.029-0.159 0.068-0.311 0.119-0.459 0.256-0.775 0.684-1.364 1.281-1.76 0.593-0.396 1.32-0.592 2.171-0.592 0.437 0 0.833 0.052 1.189 0.155 0.355 0.104 0.672 0.245 0.951 0.429s0.516 0.396 0.716 0.64c0.197 0.24 0.36 0.5 0.483 0.761 0.097 0.173 0.060 0.36-0.14 0.48l-1.013 0.415c-0.187 0.104-0.376 0.036-0.468-0.148-0.248-0.455-0.424-0.673-0.688-0.84-0.305-0.196-0.665-0.291-1.028-0.271-0.46 0-0.672 0.071-1.012 0.311-0.316 0.215-0.551 0.532-0.661 0.897-0.075 0.228-0.12 0.464-0.136 0.704-0.063 1.039-0.063 2.081 0 3.12 0.016 0.24 0.061 0.476 0.136 0.704 0.087 0.331 0.296 0.616 0.584 0.8 0.321 0.217 0.703 0.327 1.091 0.313 0.389 0.011 0.772-0.097 1.1-0.308 0.268-0.181 0.465-0.449 0.557-0.76l0.056-0.195c0.035-0.124 0.063-0.251 0.083-0.379 0.028-0.173 0.035-0.32 0.035-0.705h-1.543l-0.004-0.007c-0.204 0-0.34-0.136-0.34-0.34v-0.94c0-0.201 0.136-0.34 0.34-0.34h3.040c0.201 0 0.34 0.139 0.34 0.34z"></path>
</svg>
