<!-- Generated by IcoMoon.io -->
<svg version="1.1" xmlns="http://www.w3.org/2000/svg" width="32" height="32" viewBox="0 0 32 32">
<title>riot</title>
<path fill="#368bd6" d="M7.873 0c-0.972 0.009-1.87 0.322-2.604 0.847l0.014-0.009 0.015-0.009c-1.186 0.839-1.951 2.204-1.951 3.749 0 0.423 0.057 0.833 0.165 1.222l-0.008-0.032-0.007-0.032v21.688c0 2.533 2.045 4.577 4.577 4.577s4.577-2.044 4.577-4.577v-4.577h2.487l5.024 7.177c0.832 1.192 2.196 1.961 3.74 1.961 0.98 0 1.888-0.31 2.63-0.837l-0.014 0.009c1.192-0.831 1.962-2.195 1.962-3.739 0-0.98-0.31-1.887-0.838-2.63l0.009 0.014-3.18-4.543c2.56-2.107 4.18-5.275 4.18-8.822 0-0.004 0-0.009 0-0.013v0.001c0-6.311-5.155-11.421-11.444-11.421l-9.332-0.003zM10.959 1.157h6.249c5.667 0.089 10.221 4.756 10.132 10.421-0.049 3.058-1.426 5.785-3.578 7.635l-0.014 0.011-0.605-0.864c1.959-1.685 3.193-4.167 3.193-6.937 0-5.043-4.087-9.131-9.128-9.133h-5.323c-0.079-0.14-0.153-0.255-0.232-0.367l0.009 0.014 0.009 0.015c-0.212-0.296-0.445-0.555-0.705-0.785l-0.005-0.004zM12.351 3.424h4.857c4.421 0 8 3.577 8 8 0 0.003 0 0.007 0 0.010 0 2.386-1.047 4.527-2.707 5.989l-0.009 0.008-0.652-0.932c1.374-1.261 2.232-3.065 2.232-5.069 0-3.793-3.072-6.868-6.864-6.872h-4.712c-0.001-0.415-0.056-0.816-0.159-1.198l0.007 0.032zM12.356 5.713h4.852c3.156 0.067 5.667 2.667 5.6 5.844-0.033 1.538-0.666 2.922-1.673 3.932l0-0-0.325-0.465c-0.122-0.173-0.243-0.324-0.373-0.466l0.003 0.004c0.747-0.79 1.213-1.852 1.236-3.022l0-0.004c0-0.025 0.001-0.055 0.001-0.085 0-2.502-1.996-4.538-4.483-4.602l-0.006-0h-5.292c0.191-0.327 0.349-0.703 0.456-1.101zM4.653 7.773c0.324 0.332 0.697 0.615 1.109 0.836l0.024 0.012v18.801c0 1.267 1.023 2.289 2.289 2.289 1.244 0 2.267-1.023 2.288-2.311v-6.844h3.173l0.809 1.156h-2.849v5.711c-0.065 1.84-1.572 3.307-3.422 3.307s-3.357-1.467-3.422-3.301l-0-0.006zM11.497 7.979h5.711c0.003 0 0.007-0 0.011-0 1.896 0 3.433 1.537 3.433 3.433 0 0.004 0 0.008-0 0.011v-0.001c0 0.959-0.387 1.821-1.012 2.444-0.317-0.219-0.68-0.406-1.068-0.541l-0.032-0.010c0.595-0.414 0.979-1.095 0.979-1.865 0-0.002 0-0.005 0-0.007v0c0-1.289-1.044-2.311-2.311-2.311h-4.577v4.6h2.064c-0.495 0.304-0.913 0.682-1.252 1.123l-0.008 0.011h-1.937zM10.341 8.463v7.561h2.452c-0.128 0.33-0.222 0.714-0.265 1.113l-0.002 0.020h-3.319v-8.191c0.431-0.127 0.807-0.299 1.152-0.515zM6.92 9.039c0.307 0.073 0.657 0.115 1.019 0.115l0.137-0.003v9.139h4.473c0.056 0.385 0.156 0.765 0.313 1.133h-3.653v8c-0.009 0.627-0.508 1.134-1.131 1.156l-0.002 0c-0.004 0-0.008 0-0.012 0-0.628 0-1.138-0.506-1.144-1.133v-0.001zM13.764 10.268h3.423c0.644 0 1.155 0.511 1.155 1.155s-0.489 1.177-1.133 1.177l-3.444-0.023z"></path>
</svg>
