<!-- Generated by IcoMoon.io -->
<svg version="1.1" xmlns="http://www.w3.org/2000/svg" width="32" height="32" viewBox="0 0 32 32">
<title>ripple</title>
<path fill="#0085c0" d="M27.4 19.533c-1.128-0.648-2.407-0.843-3.669-0.888-1.053-0.031-2.632-0.721-2.632-2.647 0-1.429 1.157-2.587 2.647-2.647 1.263-0.045 2.541-0.24 3.669-0.888 2.012-1.179 3.343-3.33 3.343-5.793 0-1.228-0.331-2.378-0.908-3.367l0.017 0.032c-1.187-2.009-3.341-3.335-5.805-3.335-1.235 0-2.392 0.333-3.387 0.915l0.032-0.017c-2.010 1.171-3.339 3.316-3.339 5.771 0 0.007 0 0.014 0 0.021v-0.001c0 1.293 0.467 2.481 1.053 3.595 0.496 0.932 0.737 2.661-0.947 3.64-1.264 0.72-2.843 0.269-3.625-0.993-0.661-1.068-1.459-2.060-2.587-2.707-3.203-1.851-7.293-0.752-9.129 2.436-0.559 0.957-0.89 2.107-0.89 3.334 0 2.462 1.33 4.614 3.311 5.776l0.032 0.017c0.958 0.56 2.11 0.891 3.339 0.891s2.38-0.331 3.37-0.908l-0.032 0.017c1.128-0.647 1.925-1.64 2.587-2.707 0.541-0.872 1.911-1.985 3.624-0.992 1.264 0.721 1.655 2.316 0.948 3.64-0.587 1.097-1.053 2.3-1.053 3.593 0.002 3.687 2.989 6.676 6.676 6.679h0c3.687-0.002 6.675-2.99 6.677-6.677v-0c0-0.011 0-0.023 0-0.036 0-2.446-1.322-4.584-3.291-5.737l-0.031-0.017z"></path>
</svg>
