<!-- Generated by IcoMoon.io -->
<svg version="1.1" xmlns="http://www.w3.org/2000/svg" width="32" height="32" viewBox="0 0 32 32">
<title>riseup</title>
<path fill="#5e9ee3" d="M16.22 7.236c0 0-0.471-0.913-0.503-1.040 0.027 0.246-0.071-0.232-0.166-0.711l-0.117-0.703 0.315-0.567 0.691-1.039 1.004-0.787 0.252-0.093 2.417-0.913 0.22-0.22-0.251-0.379-0.347-0.188-0.633-0.163-1.587-0.163-1.233 0.013-0.848 0.188-0.753-0.283-0.943-0.125-1.381-0.032-0.691-0.032-1.163 0.44-1.757 2.045-0.22 0.787-0.125 0.693-0.597 1.289-0.377 1.227-0.187 1.323v0.283l-0.912 1.384-0.503 1.040v1.476l0.157 3.053 0.283 1.101 0.565 1.007 0.723 0.66 0.313 1.291 1.193 2.643 1.413 1.7 0.093 0.093 0.503 2.549-1.727 3.147-0.471 0.724-0.44 0.284-0.691-0.095-0.408 0.157-0.471-0.031-0.315 0.251-0.596-0.157-0.597-0.093-0.503 0.313-0.125 0.535 0.347-0.315 0.533-0.093v0.503l0.847-0.189 0.472 0.031 0.816 0.189c0 0 0.723 0.031 0.848 0.031s0.88 0.157 0.88 0.157h0.564l0.283 0.157 0.408-0.063 0.409 0.252h0.627l0.127-0.409v-0.22l0.408 0.188 0.313 0.315 0.189 0.347 0.031-0.409-0.22-0.503c0 0-0.156-0.284-0.283-0.284-0.125 0-0.596-0.157-0.596-0.157l-0.347 0.095-0.344-0.189-0.377 0.159-0.313-0.159-0.125-0.313-0.22-0.095 0.188-0.567 0.565-1.291 0.753-1.259 0.66-0.787 0.251-0.315c0 0 0.315-0.472 0.315-0.597 0-0.127 0.063-1.448 0.063-1.448l-0.408-0.849-0.189-0.693 3.643 0.883h0.22l3.109 2.233 0.44 0.567 0.156 2.171-0.063 0.504-0.22 0.409-0.251 0.251-0.093 0.441-0.127 0.22-0.597 0.095-0.564-0.188-0.347-0.095h-0.659l-0.315 0.251-0.156 0.347 0.031 0.377 0.188-0.347 0.22-0.22 0.189-0.031-0.032 0.315 0.22 0.189 0.533-0.157h0.252l0.031 0.347 0.755 0.093 0.533-0.093 0.408 0.125 0.597 0.157 0.219-0.031 0.189-0.125 0.188 0.597 0.093-0.629-0.156-0.755-0.347-0.284 0.127-0.472-0.283-0.535 0.032-1.983 1.569 1.857 2.073 1.636c0 0 1.413 0.503 1.539 0.503s1.099-0.125 1.099-0.125l0.628-1.037-0.471-1.416 0.188-0.473-1.005-1.32-2.128-2.168-0.509-1.703 0.032-1.165-0.472-1.227-0.533-0.976 0.313-0.975-0.251-1.416-1.071-2.411 0.396-0.067-0.664-1.149 0.431-0.137-0.759-1.236 0.32-0.171-0.569-0.933 0.187-0.104-0.688-0.557 0.251-0.131-1.789-1.253z"></path>
</svg>
