<!-- Generated by IcoMoon.io -->
<svg version="1.1" xmlns="http://www.w3.org/2000/svg" width="32" height="32" viewBox="0 0 32 32">
<title>roots</title>
<path fill="#525ddc" d="M13.713 10.633v-5.245c0-0.18-0.145-0.325-0.325-0.327-0.183 0.001-0.327 0.147-0.327 0.327 0.009 3.365-1.321 6.595-3.7 8.976l-7.517 7.543c-0.101 0.101-0.127 0.259-0.060 0.387 0.349 0.676 0.745 1.327 1.185 1.947 0.055 0.079 0.141 0.128 0.237 0.137h0.028c0.087 0 0.171-0.035 0.231-0.097l7.887-7.917c1.517-1.519 2.368-3.581 2.361-5.729zM23.997 1.039c-0.101-0.057-0.225-0.057-0.324 0-0.101 0.060-0.164 0.167-0.164 0.284v14.557c0 2.163 0.84 4.197 2.365 5.728l2.66 2.676c0.061 0.061 0.144 0.097 0.233 0.097l0.028-0.004c0.093-0.008 0.183-0.059 0.239-0.135 1.931-2.717 2.968-5.968 2.964-9.301-0.009-5.727-3.057-11.016-8.001-13.901zM8.489 5.388v-4.065c0-0.115-0.060-0.224-0.159-0.284-0.101-0.060-0.227-0.060-0.328 0-4.947 2.885-7.992 8.176-8.003 13.901 0 0.456 0.024 0.945 0.076 1.493 0.013 0.127 0.096 0.236 0.213 0.28 0.036 0.013 0.076 0.019 0.112 0.020 0.085-0.001 0.168-0.036 0.229-0.097l5.497-5.517c1.519-1.52 2.367-3.58 2.361-5.728zM22.641 24.855c-2.379-2.379-3.712-5.609-3.704-8.973v-5.248c0.001-0.181-0.145-0.329-0.325-0.331-0.181 0.003-0.327 0.149-0.327 0.331 0 3.391-1.315 6.58-3.701 8.976l-7.885 7.916c-0.129 0.128-0.131 0.336-0.003 0.465 0.013 0.015 0.027 0.027 0.041 0.035 2.697 1.94 5.94 2.984 9.263 2.98 3.323 0.004 6.564-1.040 9.263-2.98 0.079-0.056 0.127-0.141 0.131-0.24 0.012-0.093-0.021-0.192-0.089-0.26z"></path>
</svg>
