<!-- Generated by IcoMoon.io -->
<svg version="1.1" xmlns="http://www.w3.org/2000/svg" width="32" height="32" viewBox="0 0 32 32">
<title>roundcube</title>
<path fill="#37beff" d="M26.533 11.467c0 1.6-0.4 3.067-0.933 4.4l0.933-0.533 4.533-2.667-3.6-2c-0.4-6-5.333-10.667-11.467-10.667s-11.067 4.667-11.467 10.667l-3.6 2.133 4.133 2.4 1.2 0.667c-0.667-1.333-0.933-2.8-0.933-4.4 0-5.867 4.8-10.533 10.533-10.533 6 0 10.667 4.667 10.667 10.533zM0.133 23.067l15.467 8.933v-9.867l-15.467-8.933zM16.4 22.133v9.867l15.467-8.933v-9.867z"></path>
</svg>
