<!-- Generated by IcoMoon.io -->
<svg version="1.1" xmlns="http://www.w3.org/2000/svg" width="32" height="32" viewBox="0 0 32 32">
<title>runkeeper</title>
<path fill="#2dc9d7" d="M17.967 22.179c2.516-0.343 4.344-1.485 6.049-3.427 2-2.343 2.573-5.483 1.769-8.453-0.8-2.857-3.080-5.085-6.053-5.488-3.676-0.568-7.491 1.2-10.184 3.605-0.060 0.053-0.22 0.168-0.28 0.28-0.28-0.512-0.643-1.027-1.027-1.427-0.513-0.743-1.653-1.944-1.713-2-0.227-0.285-0.627-0.343-0.853-0.456-0.703-0.151-1.184-0.387-1.485-0.56-0.016-0.024-0.036-0.045-0.060-0.072l-2.911-3.083c-0.285-0.232-0.632-0.285-0.916 0-0.227 0.285-0.285 0.629 0 0.915l2.884 3.112 0.040-0.003c0.103 0.181 0.464 0.483 0.604 1.107 0.060 0.28 0.221 0.621 0.503 1.023 0 0 2.008 2.167 2.811 3.633 0.744 1.485 0.924 1.947 1.024 2.227 0 0.040-0.743-0.861-1.605-1.484-3.313 3.773-5.724 8.293-6.427 13.192-0.743 5.020 2.008 6.347 4.057 6.285 1.645 0 5.080-1.767 6.907-6.164 1.767-4.275 1.487-9.195-0.3-13.475 1.707-1.725 4.859-3.773 7.931-3.713 2.288 0 3.433 1.987 3.595 2.169 1.765 3.192-0.303 6.064-0.303 6.064-1.144 1.727-3.133 2.531-4.177 2.809-0.783 0.221-2.269 0.16-2.631 0-0.219-0.060-0.28-0.181-0.28-0.341 0-0.24 0.181-0.34 0.341-0.34 0.221 0 0.341 0.16 0.341 0.341v0.184c0.583 0.16 1.707 0.040 2.169 0-0.363-0.859-1.147-1.316-2.191-1.316h-0.048c-1.347 0.011-2.431 1.111-2.42 2.459 0 1.027 0.583 1.887 1.427 2.227 0.443 0.173 1.768 0.344 3.412 0.169zM8.873 21.609c-1.147 5.029-4.341 6.8-5.2 6.512-0.856-0.284-1.141-2.8 0.571-7.027 0.288-0.627 2-4.569 4.229-7.027-0.060 0.115 1.257 3.829 0.4 7.541zM30.915 22.584l1.085-4.117c0.040-0.341-0.12-0.743-0.464-0.8-0.341-0.057-0.743 0.117-0.781 0.459l-1.080 3.969h-0.127c-0.023 0.029-0.040 0.059-0.059 0.088-0.16 0.285-0.461 0.744-0.904 1.085-0.341 0.285-0.503 0.627-0.503 0.627-0.16 0.171-1.304 3.773-4.897 3.943-4.24 0.171-5.080-4.569-5.14-4.969-0.904 0.169-2.731-0.232-3.475-0.573 0.221 2.627 1.487 5.769 3.715 7.256 2.571 1.771 6.568 1.771 9.317 0 1.587-1.087 2.631-2.457 3.312-4.229l0.060-0.147 0.020-0.044c0.021-0.049 0.021-0.099 0.061-0.151v-0.060c-0.040 0 0-0.343-0.1-0.684-0.219-0.911-0.040-1.484-0.041-1.652z"></path>
</svg>
