<!-- Generated by IcoMoon.io -->
<svg version="1.1" xmlns="http://www.w3.org/2000/svg" width="32" height="32" viewBox="0 0 32 32">
<title>safari</title>
<path d="M16 32c-8.836 0-16-7.164-16-16s7.164-16 16-16 16 7.164 16 16-7.164 16-16 16zM16 31c8.284 0 15-6.716 15-15s-6.716-15-15-15-15 6.716-15 15 6.716 15 15 15zM16 2.667c0.184 0 0.333 0.149 0.333 0.333v0 1.333c0 0.184-0.149 0.333-0.333 0.333s-0.333-0.149-0.333-0.333v0-1.333c0-0.184 0.149-0.333 0.333-0.333v0zM16 27.333c0.184 0 0.333 0.149 0.333 0.333v0 1.333c0 0.184-0.149 0.333-0.333 0.333s-0.333-0.149-0.333-0.333v0-1.333c0-0.184 0.149-0.333 0.333-0.333v0zM25.428 6.572c0.060 0.060 0.097 0.143 0.097 0.235s-0.037 0.175-0.097 0.235v0l-0.943 0.944c-0.060 0.060-0.144 0.098-0.236 0.098-0.184 0-0.334-0.149-0.334-0.334 0-0.092 0.037-0.176 0.098-0.236v0l0.944-0.943c0.060-0.060 0.143-0.097 0.235-0.097s0.175 0.037 0.235 0.097v0zM7.987 24.013c0.061 0.060 0.098 0.144 0.098 0.236s-0.037 0.176-0.098 0.236v0l-0.944 0.943c-0.061 0.068-0.15 0.111-0.249 0.111-0.184 0-0.333-0.149-0.333-0.333 0-0.099 0.043-0.187 0.111-0.248l0-0 0.943-0.944c0.060-0.061 0.144-0.098 0.236-0.098s0.176 0.037 0.236 0.098v0zM6.572 6.573c0.060-0.060 0.143-0.097 0.235-0.097s0.175 0.037 0.235 0.097v0l0.944 0.943c0.060 0.060 0.098 0.144 0.098 0.236 0 0.184-0.149 0.334-0.334 0.334-0.092 0-0.176-0.037-0.236-0.098v0l-0.943-0.944c-0.060-0.060-0.097-0.143-0.097-0.235s0.037-0.175 0.097-0.235v0zM24.013 24.013c0.060-0.061 0.144-0.098 0.236-0.098s0.176 0.037 0.236 0.098v0l0.943 0.944c0.068 0.061 0.111 0.15 0.111 0.249 0 0.184-0.149 0.333-0.333 0.333-0.099 0-0.187-0.043-0.248-0.111l-0-0-0.944-0.943c-0.061-0.060-0.098-0.144-0.098-0.236s0.037-0.176 0.098-0.236v0zM2.667 16c0-0.184 0.149-0.333 0.333-0.333v0h1.333c0.184 0 0.333 0.149 0.333 0.333s-0.149 0.333-0.333 0.333v0h-1.333c-0.184 0-0.333-0.149-0.333-0.333v0zM27.333 16c0-0.184 0.149-0.333 0.333-0.333v0h1.333c0.184 0 0.333 0.149 0.333 0.333s-0.149 0.333-0.333 0.333v0h-1.333c-0.184 0-0.333-0.149-0.333-0.333v0zM21.209 3.727c0.121 0.052 0.204 0.17 0.204 0.307 0 0.047-0.010 0.092-0.027 0.132l0.001-0.002-0.521 1.227c-0.049 0.127-0.17 0.215-0.312 0.215-0.184 0-0.333-0.149-0.333-0.333 0-0.052 0.012-0.1 0.033-0.144l-0.001 0.002 0.52-1.227c0.052-0.121 0.17-0.204 0.307-0.204 0.047 0 0.092 0.010 0.132 0.027l-0.002-0.001zM11.573 26.433c0.12 0.052 0.202 0.17 0.202 0.306 0 0.047-0.010 0.091-0.027 0.132l0.001-0.002-0.52 1.227c-0.055 0.114-0.169 0.191-0.302 0.191-0.184 0-0.333-0.149-0.333-0.333 0-0.042 0.008-0.083 0.022-0.12l-0.001 0.002 0.52-1.227c0.052-0.12 0.17-0.203 0.307-0.203 0.047 0 0.092 0.010 0.133 0.027l-0.002-0.001zM28.363 11.004c0.015 0.037 0.024 0.080 0.024 0.124 0 0.139-0.085 0.258-0.206 0.308l-0.002 0.001-1.236 0.5c-0.037 0.015-0.080 0.024-0.125 0.024-0.184 0-0.334-0.149-0.334-0.334 0-0.139 0.085-0.258 0.206-0.309l0.002-0.001 1.236-0.499c0.037-0.016 0.080-0.025 0.126-0.025 0.139 0 0.258 0.085 0.308 0.206l0.001 0.002zM5.492 20.244c0.016 0.037 0.025 0.080 0.025 0.126 0 0.139-0.085 0.258-0.206 0.308l-0.002 0.001-1.236 0.499c-0.040 0.018-0.087 0.029-0.136 0.029-0.184 0-0.333-0.149-0.333-0.333 0-0.143 0.090-0.265 0.216-0.312l0.002-0.001 1.236-0.5c0.037-0.016 0.080-0.025 0.126-0.025 0.139 0 0.258 0.085 0.308 0.206l0.001 0.002zM11.005 3.637c0.037-0.015 0.080-0.024 0.124-0.024 0.139 0 0.258 0.085 0.308 0.206l0.001 0.002 0.5 1.236c0.015 0.037 0.024 0.080 0.024 0.125 0 0.184-0.149 0.334-0.334 0.334-0.139 0-0.258-0.085-0.309-0.206l-0.001-0.002-0.499-1.236c-0.016-0.037-0.025-0.080-0.025-0.126 0-0.139 0.085-0.258 0.206-0.308l0.002-0.001zM20.245 26.508c0.037-0.016 0.080-0.025 0.126-0.025 0.139 0 0.258 0.085 0.308 0.206l0.001 0.002 0.499 1.236c0.018 0.040 0.029 0.087 0.029 0.136 0 0.184-0.149 0.333-0.333 0.333-0.143 0-0.265-0.090-0.312-0.216l-0.001-0.002-0.5-1.236c-0.016-0.037-0.025-0.080-0.025-0.126 0-0.139 0.085-0.258 0.206-0.308l0.002-0.001zM3.727 10.791c0.052-0.121 0.17-0.204 0.307-0.204 0.047 0 0.092 0.010 0.132 0.027l-0.002-0.001 1.227 0.521c0.114 0.055 0.191 0.169 0.191 0.302 0 0.184-0.149 0.333-0.333 0.333-0.042 0-0.083-0.008-0.12-0.022l0.002 0.001-1.227-0.52c-0.121-0.052-0.204-0.17-0.204-0.307 0-0.047 0.010-0.092 0.027-0.132l-0.001 0.002zM26.433 20.428c0.052-0.12 0.17-0.202 0.306-0.202 0.047 0 0.091 0.010 0.132 0.027l-0.002-0.001 1.227 0.52c0.127 0.049 0.215 0.17 0.215 0.312 0 0.184-0.149 0.333-0.333 0.333-0.052 0-0.1-0.012-0.144-0.033l0.002 0.001-1.227-0.52c-0.12-0.052-0.203-0.17-0.203-0.307 0-0.047 0.010-0.092 0.027-0.133l-0.001 0.002zM17.172 17.172l-2.345-2.345-5.521 7.867zM25.428 6.572l-7.779 11.077-11.077 7.779 7.779-11.077z"></path>
</svg>
