<!-- Generated by IcoMoon.io -->
<svg version="1.1" xmlns="http://www.w3.org/2000/svg" width="32" height="32" viewBox="0 0 32 32">
<title>sahibinden</title>
<path fill="#ffe800" d="M0 0v32h32v-32zM15.356 6.297c0.751-0.009 1.507-0.005 2.253 0.084 3.216 0.072 6.471 2.907 6.505 6.011h-4.425c0.012-0.925-0.804-2.073-1.705-2.309-1.473-0.359-3.28-0.473-4.573 0.392-0.984 0.593-1.42 2.229-0.127 2.741 3.051 1.444 6.877 1.128 9.632 3.163 2.264 1.613 2.131 4.888 0.365 6.781-2.291 2.453-6.181 2.843-9.465 2.376-3.264-0.156-6.34-2.993-6.425-6.083h4.415c-0.075 1.109 0.851 2.076 1.947 2.429 1.693 0.367 3.635 0.477 5.24-0.253 1.28-0.431 1.365-2.059 0.379-2.804-2.127-1.196-4.753-1.232-7.063-2.024-2.683-0.52-4.857-3.037-4.347-5.596 0.565-3.123 4.169-4.969 7.395-4.908z"></path>
</svg>
