<!-- Generated by IcoMoon.io -->
<svg version="1.1" xmlns="http://www.w3.org/2000/svg" width="32" height="32" viewBox="0 0 32 32">
<title>salesforce</title>
<path fill="#00a1e0" d="M13.34 7.221c1-1.061 2.46-1.741 4.061-1.741 2.080 0 3.939 1.2 4.919 2.94 0.84-0.4 1.8-0.6 2.801-0.6 3.799 0 6.879 3.12 6.879 6.96s-3.081 6.96-6.901 6.96c-0.46 0-0.919-0.059-1.36-0.139-0.86 1.56-2.5 2.6-4.4 2.6-0.8 0-1.54-0.2-2.2-0.5-0.879 2.061-2.919 3.499-5.3 3.499-2.479 0-4.6-1.559-5.4-3.759-0.36 0.081-0.72 0.1-1.1 0.1-2.939 0-5.34-2.4-5.34-5.4 0-2 1.081-3.74 2.68-4.68-0.34-0.76-0.52-1.6-0.52-2.461 0-3.44 2.8-6.199 6.2-6.199 2.040 0 3.8 0.939 4.96 2.4z"></path>
</svg>
