<!-- Generated by IcoMoon.io -->
<svg version="1.1" xmlns="http://www.w3.org/2000/svg" width="32" height="32" viewBox="0 0 32 32">
<title>saltstack</title>
<path fill="#00eace" d="M8.528 0l-7.128 0.003v7.128h7.129zM16.448 3.596c-1.377 0-2.612 0.133-3.721 0.388v5.044c0.86-0.499 1.961-0.757 3.333-0.757 1.335 0 2.451 0.227 3.352 0.677 1.347 0.683 2.073 1.833 2.172 3.453h5.408c-0.097-2.863-1.165-5.044-3.192-6.549-2.029-1.503-4.48-2.256-7.352-2.256zM5.995 11.347c-0.013 0.213-0.031 0.429-0.031 0.651 0 2.643 0.905 4.584 2.72 5.828 1.075 0.744 3.041 1.429 5.907 2.063l2.915 0.643c1.707 0.365 2.953 0.785 3.74 1.261 0.787 0.487 1.179 1.176 1.179 2.065 0 1.523-0.804 2.563-2.408 3.121-0.847 0.293-1.944 0.44-3.3 0.44-2.263 0-3.861-0.556-4.795-1.664-0.509-0.609-0.851-1.529-1.023-2.76h-5.373c0 2.803 1.016 5.005 3.048 6.607 2.031 1.601 4.816 2.399 8.36 2.399 3.471 0 6.159-0.812 8.060-2.437 1.903-1.627 2.853-3.668 2.853-6.128 0-2.4-0.801-4.231-2.405-5.5-1.035-0.815-2.587-1.469-4.659-1.956l-4.724-1.115c-1.823-0.425-3.019-0.795-3.581-1.113-0.873-0.475-1.309-1.192-1.309-2.155 0-0.087 0.023-0.165 0.028-0.249zM29.227 29.125c-0.766 0.034-1.374 0.663-1.374 1.435s0.608 1.401 1.371 1.435l0.003 0c0.766-0.034 1.374-0.663 1.374-1.435s-0.608-1.401-1.371-1.435l-0.003-0zM29.208 29.361c0.003-0 0.006-0 0.009-0s0.007 0 0.010 0h-0c0.631 0.038 1.128 0.558 1.128 1.195s-0.497 1.158-1.125 1.195l-0.003 0c-0.635-0.032-1.138-0.555-1.138-1.196 0-0.634 0.493-1.153 1.116-1.195l0.004-0zM28.648 29.705v1.696h0.295v-0.653h0.331l0.341 0.653h0.312v-0.013l-0.38-0.708c0.095-0.037 0.173-0.098 0.231-0.176l0.001-0.001c0.050-0.074 0.080-0.166 0.080-0.264 0-0.007-0-0.014-0-0.021l0 0.001c0-0.001 0-0.002 0-0.004 0-0.079-0.016-0.153-0.045-0.221l0.001 0.004c-0.027-0.064-0.067-0.118-0.117-0.161l-0.001-0c-0.054-0.044-0.118-0.078-0.188-0.098l-0.004-0.001c-0.073-0.020-0.156-0.032-0.242-0.032-0.006 0-0.013 0-0.019 0h0.001zM28.943 29.943h0.303c0.002-0 0.004-0 0.006-0 0.049 0 0.096 0.008 0.14 0.022l-0.003-0.001c0.073 0.021 0.13 0.075 0.155 0.144l0 0.002c0.013 0.035 0.020 0.075 0.020 0.117s-0.007 0.082-0.021 0.12l0.001-0.002c-0.014 0.035-0.036 0.064-0.062 0.088l-0 0c-0.027 0.026-0.059 0.046-0.094 0.059l-0.002 0.001c-0.039 0.014-0.085 0.021-0.132 0.021-0.003 0-0.006-0-0.008-0h-0.302z"></path>
</svg>
