<!-- Generated by IcoMoon.io -->
<svg version="1.1" xmlns="http://www.w3.org/2000/svg" width="32" height="32" viewBox="0 0 32 32">
<title>samsung</title>
<path fill="#1428a0" d="M26.422 13.708l0.061 3.591h-0.031l-1.039-3.591h-1.712v4.523h1.131l-0.061-3.713h0.031l1.115 3.713h1.635v-4.523zM4.89 13.708l-0.856 4.569h1.238l0.627-4.157h0.031l0.611 4.157h1.223l-0.841-4.569zM11.797 13.708l-0.565 3.484h-0.031l-0.565-3.484h-1.864l-0.092 4.569h1.146l0.031-4.111h0.015l0.764 4.111h1.161l0.764-4.111h0.031l0.030 4.111h1.146l-0.107-4.569zM2.109 16.978c0.046 0.107 0.031 0.26 0.015 0.336-0.031 0.153-0.137 0.306-0.443 0.306-0.29 0-0.458-0.168-0.458-0.413v-0.443h-1.223v0.351c0 1.024 0.81 1.329 1.666 1.329 0.825 0 1.513-0.29 1.62-1.039 0.061-0.397 0.015-0.657 0-0.749-0.214-0.963-1.956-1.238-2.078-1.773-0.015-0.092-0.015-0.183 0-0.245 0.031-0.153 0.138-0.306 0.413-0.306s0.428 0.168 0.428 0.413v0.275h1.146v-0.321c0-0.993-0.902-1.146-1.543-1.146-0.81 0-1.482 0.275-1.605 1.009-0.031 0.199-0.046 0.382 0.015 0.611 0.183 0.947 1.819 1.223 2.048 1.803zM16.978 16.978c0.046 0.107 0.030 0.245 0.015 0.336-0.031 0.153-0.138 0.306-0.443 0.306-0.29 0-0.458-0.168-0.458-0.413v-0.443h-1.223v0.351c0 1.009 0.795 1.314 1.651 1.314 0.825 0 1.498-0.275 1.605-1.039 0.061-0.397 0.015-0.642 0-0.749-0.183-0.947-1.91-1.238-2.032-1.757-0.015-0.092-0.015-0.183 0-0.245 0.031-0.153 0.137-0.306 0.413-0.306 0.26 0 0.428 0.168 0.428 0.413v0.275h1.131v-0.321c0-0.993-0.886-1.146-1.528-1.146-0.81 0-1.467 0.26-1.589 1.009-0.031 0.199-0.031 0.382 0.015 0.611 0.183 0.947 1.788 1.207 2.017 1.803zM20.829 17.589c0.321 0 0.413-0.214 0.443-0.336 0.015-0.046 0.015-0.122 0.015-0.168v-3.377h1.161v3.286c0 0.092 0 0.26-0.015 0.306-0.076 0.856-0.749 1.131-1.589 1.131s-1.513-0.275-1.589-1.131c0-0.046-0.015-0.214-0.015-0.306v-3.286h1.161v3.377c0 0.061 0 0.122 0.015 0.168 0 0.122 0.092 0.336 0.413 0.336zM30.365 17.543c0.336 0 0.443-0.214 0.474-0.336 0.015-0.046 0.015-0.122 0.015-0.168v-0.657h-0.474v-0.672h1.62v1.223c0 0.092 0 0.153-0.015 0.306-0.076 0.84-0.795 1.131-1.605 1.131s-1.528-0.29-1.605-1.131c-0.015-0.153-0.015-0.214-0.015-0.306v-1.925c0-0.077 0.015-0.229 0.015-0.306 0.107-0.856 0.795-1.131 1.605-1.131s1.513 0.275 1.605 1.131c0.015 0.137 0.015 0.306 0.015 0.306v0.153h-1.146v-0.26c0 0 0-0.107-0.015-0.168-0.015-0.107-0.107-0.336-0.458-0.336-0.336 0-0.428 0.214-0.458 0.336-0.015 0.061-0.015 0.138-0.015 0.214v2.094c0 0.061 0 0.122 0.015 0.168 0 0.122 0.122 0.336 0.443 0.336z"></path>
</svg>
