<!-- Generated by IcoMoon.io -->
<svg version="1.1" xmlns="http://www.w3.org/2000/svg" width="32" height="32" viewBox="0 0 32 32">
<title>samsungpay</title>
<path fill="#1428a0" d="M31.971 14.269c-0.177-5.104-1.519-9.212-4.544-11.456s-7.573-3.023-13.288-2.751c-2.595 0.125-4.936 0.463-6.836 1.223-1.96 0.787-3.475 1.895-4.583 3.437-2.228 3.1-2.917 7.78-2.673 13.173 0.232 5.12 1.559 9.171 4.62 11.38 3.045 2.196 7.995 2.893 13.212 2.673 5.064-0.213 9.177-1.556 11.38-4.621 2.199-3.060 2.9-7.577 2.712-13.059zM8.803 19.693h-0.66v-1.417h0.66c1.261 0 2.181-0.976 2.181-2.181 0-1.204-0.976-2.181-2.181-2.181h-2.132c-0.078 0-0.143 0.052-0.165 0.123l-0 0.001v7.736h-1.373v-7.736c0-0.851 0.689-1.54 1.54-1.54h2.132c1.987 0 3.633 1.611 3.633 3.597s-1.537 3.599-3.635 3.599zM20.405 19.695h-1.392v-3.707c-0.028-1.045-1.137-2.087-2.319-2.087-1.328 0-2.305 1.133-2.305 2.195 0 1.501 1.059 2.188 2.305 2.188h0.491v1.411h-0.491c-2.051-0.001-3.713-1.313-3.713-3.599 0-1.864 1.663-3.599 3.713-3.599 1.852 0 3.652 1.553 3.711 3.491zM22.171 12.733l1.815 3.717-0.789 1.604-2.599-5.32zM23.852 22.028h-1.575l4.568-9.295h1.575z"></path>
</svg>
