<!-- Generated by IcoMoon.io -->
<svg version="1.1" xmlns="http://www.w3.org/2000/svg" width="32" height="32" viewBox="0 0 32 32">
<title>sap</title>
<path fill="#008fd3" d="M0 8.085v15.829h16.173l15.827-15.829zM4.352 11.029h0.007c1.151 0.001 2.553 0.327 3.568 0.844l-1.093 1.907c-1.113-0.539-1.673-0.589-2.307-0.623-0.944-0.051-1.419 0.287-1.425 0.651-0.009 0.443 0.892 0.844 1.74 1.117 1.285 0.408 2.92 0.953 3.169 2.533l2.349-6.209h2.728l2.752 7.435-0.009-7.433h3.16c3.009 0 4.424 1.019 4.424 3.359 0 2.1-1.453 3.352-3.915 3.352h-1.017l-0.013 2.792-4.784-0.004-0.333-1.211c-0.493 0.163-1.049 0.252-1.64 0.252-0.608 0-1.18-0.095-1.684-0.267l-0.477 1.225-2.667 0.008 0.12-0.616c-0.039 0.033-0.076 0.067-0.116 0.099-0.713 0.573-1.611 0.839-2.716 0.859l-0.284 0.003c-0.020 0-0.045 0-0.069 0-1.241 0-2.405-0.334-3.405-0.918l0.032 0.017 0.973-1.931c1.053 0.623 1.715 0.763 2.608 0.744 0.463-0.009 0.797-0.093 1.015-0.319 0.124-0.128 0.202-0.3 0.208-0.491l0-0.001c0.009-0.501-0.707-0.737-1.58-1.008-0.708-0.219-1.513-0.519-2.141-0.98-0.745-0.547-1.1-1.232-1.083-2.2 0.005-0.715 0.292-1.362 0.755-1.837l-0 0.001c0.692-0.716 1.809-1.151 3.151-1.151zM18.481 13.256v2.539h0.695c0.925 0 1.663-0.307 1.664-1.285 0-0.945-0.739-1.253-1.664-1.253zM11.699 14.279l-0.997 3.149c0.297 0.113 0.641 0.177 1.009 0.177 0.357 0 0.693-0.063 0.989-0.168z"></path>
</svg>
