<!-- Generated by IcoMoon.io -->
<svg version="1.1" xmlns="http://www.w3.org/2000/svg" width="32" height="32" viewBox="0 0 32 32">
<title>saucelabs</title>
<path fill="#e2231a" d="M3.907 20.633l8.528 0.005-4.776 9.011c-4.755-2.907-7.656-8.076-7.659-13.649 0-8.823 7.177-16 16-16 2.348 0 4.581 0.508 6.587 1.419l-15.349 15.355h13.667l-10.052 10.152 4.153-7.835h-9.945c-0.453-1.539-0.424-3.091-0.424-3.091 0.008-6.284 5.108-11.372 11.392-11.364 0.124 0 0.249 0.003 0.373 0.007l1.459-1.465c-0.607-0.087-1.22-0.131-1.833-0.131-7.141 0-12.973 5.809-12.973 12.953-0.001 0-0.081 2.292 0.853 4.633zM24.34 2.352c4.753 2.905 7.656 8.075 7.66 13.648 0 8.821-7.179 16-16 16-2.272 0.004-4.519-0.48-6.588-1.42l15.235-15.351h-13.707l10.208-10.155-4.153 7.835h9.947c0.425 1.439 0.425 3.091 0.425 3.091-0.011 6.285-5.112 11.372-11.396 11.363-0.14 0-0.28-0.003-0.419-0.008l-1.445 1.461c7.085 1.036 13.675-3.868 14.709-10.957 0.089-0.615 0.137-1.237 0.137-1.86 0-1.585-0.293-3.159-0.863-4.639h-8.525z"></path>
</svg>
