<!-- Generated by IcoMoon.io -->
<svg version="1.1" xmlns="http://www.w3.org/2000/svg" width="32" height="32" viewBox="0 0 32 32">
<title>scaleway</title>
<path fill="#4f0599" d="M22.147 14.813v7.627c-0.044 1.159-0.917 2.101-2.041 2.252l-0.012 0.001h-5.333c-0.896-0.068-1.615-0.746-1.745-1.616l-0.001-0.011c-0.003-0.036-0.005-0.078-0.005-0.12s0.002-0.084 0.005-0.125l-0 0.005c0.008-1.003 0.822-1.813 1.827-1.813 0 0 0 0 0 0h2.32c0.736 0 1.333-0.597 1.333-1.333v0-4.827c-0-0.003-0-0.006-0-0.010 0-0.927 0.676-1.697 1.563-1.842l0.011-0.001h0.227c0.008-0 0.017-0 0.027-0 1.004 0 1.819 0.81 1.827 1.813v0.001zM13.533 17.133v-4.787c0-0.736 0.597-1.333 1.333-1.333v0h2.467c1.009 0 1.827-0.818 1.827-1.827v0c0.003-0.034 0.005-0.073 0.005-0.113s-0.002-0.079-0.005-0.118l0 0.005c-0.163-0.907-0.94-1.588-1.879-1.6h-5.281c-1.136 0.146-2.018 1.064-2.106 2.205l-0.001 0.008v7.6c0 1.009 0.818 1.827 1.827 1.827h0.28c0.878-0.163 1.534-0.924 1.534-1.837 0-0.011-0-0.021-0-0.032l0 0.002zM29.533 11.413v15.253c-0.338 2.867-2.642 5.102-5.512 5.332l-0.021 0.001h-10.107c-6.305-0.008-11.413-5.121-11.413-11.427 0 0 0 0 0-0v0-14.52c0-3.343 2.71-6.053 6.053-6.053v0h9.573c0.004 0 0.009 0 0.013 0 6.303 0 11.413 5.11 11.413 11.413 0 0 0 0 0 0v0zM25.88 11.413c-0.008-4.283-3.477-7.752-7.759-7.76h-9.587c-0.004-0-0.009-0-0.013-0-1.318 0-2.387 1.069-2.387 2.387 0 0.005 0 0.009 0 0.014v-0.001 14.52c0.023 4.271 3.487 7.726 7.759 7.733h9.921c1.048-0.137 1.875-0.937 2.051-1.959l0.002-0.014z"></path>
</svg>
