<!-- Generated by IcoMoon.io -->
<svg version="1.1" xmlns="http://www.w3.org/2000/svg" width="32" height="32" viewBox="0 0 32 32">
<title>scribd</title>
<path fill="#1a7bba" d="M19.785 28.079c0-2.831 2.096-5.252 4.724-5.743-0.125-2.631-1.232-4.437-2.959-5.791-1.74-1.355-4.161-2.38-6.784-3.409-2.84-1.109-4.961-2.092-4.961-4.229 0-1.803 1.56-3.159 4.183-3.159 1.601 0 2.632 0.247 3.161 0.532 0 0.124-0.039 0.288-0.12 0.412-0.081 0.164-0.12 0.368-0.12 0.657 0 1.805 1.311 3.407 3.651 3.407 2.136 0 3.407-1.601 3.407-3.943 0-1.969-1.109-3.693-2.917-4.884-1.837-1.189-4.4-1.929-7.3-1.929-3.003 0.207-5.585 1.313-7.389 2.956-1.807 1.64-2.873 3.859-2.873 6.484 0 2.916 1.027 4.804 2.708 6.244 1.683 1.436 4.104 2.461 7.020 3.488 3.163 1.019 5.009 2.081 5.009 4.183 0 2.12-1.847 3.401-4.763 3.401-1.521 0-2.832-0.257-3.943-1.019 0.292-0.541 0.292-1.084 0.292-1.601 0-1.524-1.341-3.424-3.685-3.424-2.080 0-3.64 1.601-3.64 3.943 0 1.961 1.24 3.823 3.26 5.125 1.98 1.359 4.761 2.22 7.764 2.22 2.643 0 5.024-0.5 6.864-1.82-0.28-0.541-0.52-1.323-0.52-2.143zM29.517 28.079c0 2.096-1.7 3.697-3.703 3.697-2 0-3.661-1.601-3.661-3.695 0-2 1.64-3.643 3.64-3.643 2.003 0 3.685 1.643 3.685 3.664z"></path>
</svg>
