<!-- Generated by IcoMoon.io -->
<svg version="1.1" xmlns="http://www.w3.org/2000/svg" width="32" height="32" viewBox="0 0 32 32">
<title>scrutinizerci</title>
<path fill="#8a9296" d="M19.813 0l-10.644 0.080c-2.082 0.465-3.824 1.67-4.974 3.317l-0.018 0.027c-0.842 0.975-1.47 2.158-1.797 3.462l-0.012 0.058-0.16 0.737-0.159 1.143c-0.080 1.065-0.080 1.801 0.16 1.961h7.033c0.080 0-0.248-0.328-0.248-0.896 0-0.984 0.336-1.232 0.736-1.64 0.736-0.568 3.927-0.16 6.304-0.328 3.264 0 6.136-0.080 6.464-0.16 3.6-0.569 6.707-3.184 7.363-6.048 0.16-0.729 0.16-1.473 0.080-1.553-0.080-0.16-1.385-0.16-10.128-0.16zM12.256 12.009c-5.011-0.020-9.96 0-10.040 0.080-0.168 0.168-0.080 1.064 0.080 1.8 0.453 1.489 1.311 2.742 2.444 3.671l0.013 0.011c1.222 1.022 2.713 1.764 4.35 2.108l0.066 0.012c0.488 0.168 1.392 0.168 6.129 0.168 5.648 0 6.553 0.080 6.96 0.32 0.19 0.143 0.353 0.306 0.491 0.49l0.005 0.006c0.24 0.32 0.241 0.409 0.241 1.305s-0.088 0.976-0.248 1.392c-0.156 0.196-0.345 0.359-0.559 0.483l-0.009 0.005c-0.248 0.16-0.409 0.159-5.809 0.239-6.227 0-6.873 0-8.425 0.576-1.27 0.376-2.368 0.995-3.289 1.808l0.009-0.008c-1.552 1.385-2.456 2.937-2.616 4.571l0.080 0.815c3.059 0.089 6.658 0.14 10.269 0.14s7.21-0.051 10.797-0.151l-0.528 0.012 0.656-0.16c0.38-0.092 0.708-0.204 1.022-0.342l-0.039 0.015 0.489-0.24c2.192-1.274 3.844-3.27 4.644-5.657l0.021-0.073c0.336-1.016 0.53-2.186 0.53-3.401 0-1.698-0.379-3.308-1.056-4.749l0.029 0.069c-0.768-1.527-1.814-2.808-3.082-3.823l-0.022-0.017c-0.913-0.603-1.983-1.059-3.132-1.301l-0.060-0.011c-0.328-0.080-5.401-0.141-10.412-0.161z"></path>
</svg>
