<!-- Generated by IcoMoon.io -->
<svg version="1.1" xmlns="http://www.w3.org/2000/svg" width="32" height="32" viewBox="0 0 32 32">
<title>seagate</title>
<path fill="#72be4f" d="M11.087 2.313c0.369-0.221 0.739-0.444 1.108-0.591 0.148 0.369 0.369 0.739 0.517 1.107-0.813 0.444-1.625 0.813-2.363 1.329-10.865 6.597-9.2 14.099-4.505 14.769 3.199 0.6 7.124-1.459 9.896-3.101 2.1-1.313 3.987-2.568 3.987-4.061 0-0.951-1.099-1.404-1.993-1.256-2.889 0.723-6.76 4.727-9.969 4.727-1.463 0-2.527-1.123-2.363-2.437 0.205-2.457 2.521-4.305 4.653-5.539 3.447-2.261 8.027-4.265 12.109-4.061 10.196 0.352 16.303 13.087-1.329 24.223-2.001 1.264-5.227 2.653-5.907 2.88-0.296-1.329-0.739-2.659-1.035-3.988 3.228-1.52 4.193-1.708 7.755-4.431 2.991-2.393 5.867-5.223 6.351-9.084 0.073-0.885 0.073-1.699-0.148-2.584-1.201-4.12-6.76-8.367-17.207-1.403-1.087 0.633-2.88 1.915-2.88 3.175 0 0.296 0.221 0.665 0.517 0.739 1.605 0.688 5.175-2.923 8.713-4.136 2.773-0.979 5.567 0.063 6.056 2.512 0.073 0.664 0.073 1.328-0.147 1.92-0.792 2.055-2.7 3.544-4.653 4.8-2.040 1.123-4.116 2.723-8.64 3.913-3.087 0.841-7.023 0.387-8.64-2.363-0.665-1.035-0.96-2.289-0.96-3.471 0.073-1.404 0.369-2.807 0.96-4.063 1.033-2.141 2.584-4.061 4.431-5.612 1.684-1.481 3.573-2.804 5.598-3.906l0.162-0.081z"></path>
</svg>
