<!-- Generated by IcoMoon.io -->
<svg version="1.1" xmlns="http://www.w3.org/2000/svg" width="32" height="32" viewBox="0 0 32 32">
<title>sega</title>
<path fill="#0089cf" d="M28.305 5.52l-0.008 4.44h-14.133c-0.292 0-0.529 0.241-0.529 0.532 0 0.295 0.24 0.532 0.529 0.532l3.68-0.021c5.795 0 10.491 4.7 10.491 10.492 0 5.797-4.696 10.492-10.492 10.492l-14.179 0.013 0.007-4.5h14.18c3.316 0 6.005-2.688 6.005-6.005 0-3.32-2.689-6.008-6.008-6.008l-3.695-0.040c-2.747 0-4.969-2.221-4.969-4.96 0-2.748 2.221-4.968 4.964-4.968zM3.684 26.457l-0.005-4.441h14.145c0.28 0 0.511-0.233 0.511-0.516 0-0.284-0.231-0.513-0.512-0.513h-3.659c-5.793 0-10.489-4.7-10.489-10.495s4.696-10.492 10.489-10.492l14.133 0.004 0.008 4.467-14.139 0.004c-3.32 0-6 2.692-6 6.009 0 3.319 2.699 6.005 6.020 6.005l3.7 0.040c2.74 0 4.96 2.224 4.96 4.965 0 2.74-2.22 4.959-4.96 4.959h-14.2z"></path>
</svg>
