<!-- Generated by IcoMoon.io -->
<svg version="1.1" xmlns="http://www.w3.org/2000/svg" width="32" height="32" viewBox="0 0 32 32">
<title>sellfy</title>
<path fill="#21b352" d="M30.905 1.091c-10.195-1.455-19.697-1.455-29.839 0-1.421 10.079-1.421 19.475 0 29.504 4.948 0.727 9.893 1.405 14.94 1.405 4.997 0 9.945-0.68 14.893-1.356 1.467-10.080 1.467-19.476 0-29.553zM15.519 25.509c-2.74 0-5.635-0.919-6.905-1.599l1.076-4.168c1.419 0.94 3.576 1.86 5.928 1.86 1.86 0 2.987-0.581 2.987-1.74 0-0.82-0.58-1.3-2.1-1.68l-3.039-0.841c-3.221-0.88-4.743-2.521-4.743-5.14 0-3.153 2.44-5.675 7.492-5.675 2.653 0 5.297 0.727 6.76 1.456l-1.268 3.968c-1.472-0.82-3.72-1.5-5.635-1.5-1.82 0-2.6 0.581-2.6 1.456 0 0.825 0.539 1.16 1.721 1.456l3.317 0.979c3.421 0.981 4.943 2.621 4.943 5.18-0.101 3.601-3.281 6.023-7.943 6.023z"></path>
</svg>
