<!-- Generated by IcoMoon.io -->
<svg version="1.1" xmlns="http://www.w3.org/2000/svg" width="32" height="32" viewBox="0 0 32 32">
<title>semaphoreci</title>
<path fill="#19a974" d="M29.152 7.021c0.045-0.009 0.097-0.014 0.151-0.014 0.276 0 0.519 0.141 0.661 0.354l0.002 0.003c0 0 0.623 1.013 0.992 1.82 0.367 0.805 0.723 1.937 0.723 1.937 0.019 0.064 0.029 0.137 0.029 0.213 0 0.253-0.119 0.479-0.305 0.623l-0.002 0.001-2.007 1.431c-0.233 0.187-0.381 0.471-0.381 0.79 0 0.025 0.001 0.050 0.003 0.075l-0-0.003c0 0 0.112 0.764 0.128 1.421 0.013 0.647-0.053 1.393-0.053 1.393-0 0.006-0 0.013-0 0.020 0 0.336 0.165 0.633 0.419 0.815l0.003 0.002 2.081 1.324c0.256 0.163 0.4 0.531 0.32 0.824 0 0-0.296 1.149-0.623 1.973-0.323 0.827-0.891 1.867-0.891 1.867-0.14 0.235-0.392 0.391-0.681 0.391-0.040 0-0.078-0.003-0.116-0.009l0.004 0.001-2.425-0.449c-0.038-0.005-0.083-0.008-0.127-0.008-0.298 0-0.566 0.129-0.752 0.334l-0.001 0.001c0 0-0.508 0.652-1.005 1.148-0.552 0.553-1.329 1.143-1.329 1.143-0.212 0.187-0.345 0.459-0.345 0.762 0 0.041 0.002 0.081 0.007 0.12l-0-0.005 0.408 2.432c0.004 0.029 0.006 0.064 0.006 0.098 0 0.294-0.161 0.551-0.4 0.687l-0.004 0.002c0 0-1.053 0.549-1.885 0.86-0.831 0.311-1.984 0.587-1.984 0.587-0.047 0.010-0.102 0.016-0.157 0.016-0.272 0-0.512-0.138-0.654-0.348l-0.002-0.003-1.289-2.101c-0.184-0.266-0.488-0.437-0.831-0.437-0 0-0.001 0-0.001 0h0c0 0-0.661 0.053-1.265 0.033-0.621-0.020-1.315-0.12-1.315-0.12-0.023-0.002-0.049-0.003-0.076-0.003-0.317 0-0.599 0.147-0.784 0.376l-0.002 0.002-1.435 2.008c-0.146 0.187-0.371 0.305-0.624 0.305-0.076 0-0.149-0.011-0.219-0.031l0.006 0.001c0 0-1.133-0.356-1.941-0.724-0.807-0.368-1.816-0.987-1.816-0.987-0.216-0.143-0.356-0.385-0.356-0.66 0-0.054 0.005-0.107 0.016-0.158l-0.001 0.005 0.513-2.132c0.107-0.441 0.451-1.061 0.772-1.383l5.307-5.324c0.686 0.385 1.506 0.612 2.379 0.612 2.725 0 4.933-2.209 4.933-4.933 0-0.873-0.227-1.692-0.624-2.403l0.013 0.025 5.317-5.319c0.321-0.32 0.94-0.667 1.381-0.772zM2.845 24.977c-0.045 0.009-0.097 0.014-0.151 0.014-0.276 0-0.519-0.141-0.661-0.354l-0.002-0.003c0 0-0.623-1.011-0.991-1.819-0.368-0.807-0.724-1.937-0.724-1.937-0.019-0.064-0.029-0.138-0.029-0.214 0-0.253 0.119-0.478 0.304-0.622l0.002-0.001 2.008-1.431c0.232-0.187 0.38-0.471 0.38-0.789 0-0.025-0.001-0.051-0.003-0.076l0 0.003c0 0-0.109-0.764-0.127-1.421-0.013-0.647 0.053-1.395 0.053-1.395 0-0.006 0-0.013 0-0.020 0-0.336-0.165-0.633-0.419-0.815l-0.003-0.002-2.080-1.323c-0.207-0.144-0.341-0.381-0.341-0.649 0-0.061 0.007-0.121 0.020-0.179l-0.001 0.005c0 0 0.297-1.151 0.621-1.977 0.325-0.823 0.893-1.867 0.893-1.867 0.14-0.235 0.392-0.389 0.68-0.389 0.039 0 0.078 0.003 0.116 0.008l-0.004-0.001 2.425 0.449c0.039 0.005 0.084 0.008 0.13 0.008 0.298 0 0.565-0.128 0.751-0.333l0.001-0.001c0 0 0.507-0.652 1.004-1.149 0.552-0.552 1.329-1.14 1.329-1.14 0.212-0.187 0.346-0.459 0.346-0.762 0-0.042-0.002-0.082-0.007-0.123l0 0.005-0.408-2.429c-0.004-0.030-0.006-0.064-0.006-0.099 0-0.294 0.161-0.551 0.4-0.687l0.004-0.002c0 0 1.053-0.549 1.885-0.863 0.831-0.308 1.984-0.584 1.984-0.584 0.048-0.010 0.104-0.016 0.16-0.016 0.272 0 0.512 0.138 0.654 0.347l0.002 0.003 1.288 2.104c0.184 0.264 0.487 0.435 0.829 0.435 0.001 0 0.002 0 0.003 0h-0c0 0 0.661-0.052 1.265-0.032 0.621 0.020 1.315 0.121 1.315 0.121 0.022 0.002 0.048 0.003 0.074 0.003 0.318 0 0.601-0.148 0.786-0.378l0.002-0.002 1.433-2.007c0.146-0.187 0.372-0.306 0.625-0.306 0.076 0 0.149 0.011 0.218 0.030l-0.006-0.001c0 0 1.133 0.357 1.941 0.725 0.807 0.367 1.816 0.987 1.816 0.987 0.216 0.143 0.356 0.386 0.356 0.661 0 0.054-0.005 0.107-0.016 0.158l0.001-0.005-0.513 2.132c-0.156 0.537-0.422 1-0.773 1.384l0.002-0.003-5.308 5.325c-0.687-0.385-1.507-0.612-2.38-0.612-2.725 0-4.933 2.209-4.933 4.933 0 0.873 0.227 1.694 0.625 2.405l-0.013-0.025-5.317 5.316c-0.32 0.323-0.94 0.667-1.381 0.773z"></path>
</svg>
