<!-- Generated by IcoMoon.io -->
<svg version="1.1" xmlns="http://www.w3.org/2000/svg" width="32" height="32" viewBox="0 0 32 32">
<title>sensu</title>
<path fill="#89c967" d="M32 16l-16-16-16 16 16 16zM16 4.263l5.891 5.891c-1.927-0.515-3.907-0.781-5.891-0.781s-3.965 0.265-5.891 0.784zM10.759 22.493c1.587-0.877 3.379-1.344 5.241-1.344s3.655 0.467 5.241 1.344l-5.241 5.245zM23.437 20.297c-2.263-1.44-4.848-2.163-7.437-2.163s-5.175 0.723-7.437 2.163l-4.137-4.135c3.337-2.451 7.353-3.776 11.575-3.776s8.237 1.325 11.575 3.776z"></path>
</svg>
