<!-- Generated by IcoMoon.io -->
<svg version="1.1" xmlns="http://www.w3.org/2000/svg" width="32" height="32" viewBox="0 0 32 32">
<title>serverfault</title>
<path fill="#e7282d" d="M32 24.247v3.032h-6.52v-3.032zM0 24.105h15.34v3.032h-15.34v-3.039zM17.187 24.105h6.52v3.032h-6.52v-3.039zM25.481 19.296h6.519v3.032h-6.52zM0 19.156h15.34v3.032h-15.34zM17.187 19.156h6.52v3.032h-6.52zM25.481 14.695h6.519v3.031h-6.52zM0 14.555h15.34v3.028h-15.34zM17.187 14.555h6.52v3.028h-6.52zM25.48 9.743h6.52v3.039h-6.52zM0 9.608h15.34v3.032h-15.34v-3.039zM17.187 9.608h6.52v3.032h-6.52v-3.039zM25.481 4.867h6.519v3.035h-6.52v-3.040zM0 4.721h15.34v3.032h-15.34zM17.187 4.721h6.52v3.032h-6.52z"></path>
</svg>
