<!-- Generated by IcoMoon.io -->
<svg version="1.1" xmlns="http://www.w3.org/2000/svg" width="32" height="32" viewBox="0 0 32 32">
<title>shazam</title>
<path fill="#08f" d="M16 0c-8.836 0-16.001 7.161-16.001 16 0 8.833 7.165 16 16.001 16s16-7.167 16-16c0-8.839-7.164-16-16-16zM13.163 22.315c-1.716 0-3.431-0.568-4.748-1.708-1.619-1.399-2.579-3.305-2.705-5.365-0.12-1.999 0.56-3.925 1.915-5.423 1.523-1.684 4.252-4.3 4.367-4.412 0.74-0.709 1.913-0.681 2.621 0.060 0.707 0.743 0.683 1.919-0.059 2.628-0.028 0.027-2.748 2.635-4.183 4.219-0.677 0.752-1.019 1.711-0.959 2.703 0.065 1.052 0.571 2.039 1.427 2.781 1.125 0.973 3.347 1.188 4.737-0.057 0.825-0.745 1.829-1.836 1.84-1.848 0.693-0.756 1.867-0.804 2.62-0.108 0.753 0.693 0.804 1.869 0.111 2.625-0.047 0.047-1.136 1.232-2.096 2.096-1.34 1.203-3.115 1.809-4.888 1.809zM24.376 22.183c-1.524 1.683-4.252 4.3-4.368 4.412-0.36 0.341-0.82 0.513-1.28 0.513-0.491 0-0.976-0.193-1.341-0.573-0.708-0.745-0.683-1.919 0.059-2.628 0.028-0.027 2.751-2.636 4.183-4.221 0.677-0.751 1.019-1.711 0.959-2.703-0.064-1.052-0.571-2.039-1.427-2.779-1.125-0.973-3.347-1.191-4.736 0.059-0.828 0.741-1.831 1.835-1.84 1.845-0.695 0.755-1.865 0.805-2.621 0.112-0.752-0.695-0.805-1.872-0.109-2.628 0.045-0.049 1.133-1.235 2.095-2.097 2.639-2.371 6.961-2.417 9.636-0.103 1.619 1.401 2.58 3.307 2.704 5.367 0.123 1.996-0.559 3.927-1.912 5.424z"></path>
</svg>
