<!-- Generated by IcoMoon.io -->
<svg version="1.1" xmlns="http://www.w3.org/2000/svg" width="32" height="32" viewBox="0 0 32 32">
<title>showpad</title>
<path fill="#2d2e83" d="M32 16v-0.453l-0.040-0.32c-0.364-3.44-3.068-6.149-6.474-6.517l-0.032-0.003-0.32-0.013h-0.067l-0.36-0.013c-0.009-0-0.019-0-0.030-0-2.009 0-3.828 0.815-5.143 2.133l-0 0-2.467 2.48 1.8 1.813 1.8-1.8h-0.013l0.667-0.68c0.858-0.865 2.047-1.4 3.361-1.4 0.005 0 0.009 0 0.013 0h0.266l0.213 0.013c2.251 0.235 4.025 2.004 4.265 4.232l0.002 0.021v0.973c-0.185 1.673-1.21 3.070-2.639 3.774l-0.028 0.012-0.040 0.027-0.133 0.053-0.093 0.040-0.080 0.040-0.147 0.053h-0.040c-0.465 0.166-1.002 0.262-1.561 0.262-1.31 0-2.497-0.528-3.36-1.383l-0.666-0.666-4.493-4.48-7.173-7.187-8.987 8.987 8.987 8.987 1.787-1.8 4.493-4.493-1.787-1.8-4.493 4.493-5.387-5.387 5.387-5.387 10.547 10.547c1.318 1.319 3.139 2.135 5.15 2.135 0.854 0 1.673-0.147 2.434-0.417l-0.051 0.016 0.067-0.013 0.213-0.093 0.133-0.053 0.147-0.053 0.213-0.093 0.067-0.040c2.22-1.102 3.78-3.242 4.051-5.768l0.003-0.032v-0.013l0.027-0.32v-0.413z"></path>
</svg>
