<!-- Generated by IcoMoon.io -->
<svg version="1.1" xmlns="http://www.w3.org/2000/svg" width="32" height="32" viewBox="0 0 32 32">
<title>siemens</title>
<path fill="#099" d="M0.115 18.348v-0.963c0.547 0.173 1.033 0.26 1.453 0.26 0.583 0 0.872-0.153 0.872-0.463 0-0.002 0-0.005 0-0.008 0-0.112-0.049-0.212-0.128-0.28l-0-0c-0.084-0.084-0.307-0.197-0.665-0.344-0.639-0.264-1.059-0.487-1.252-0.676-0.233-0.227-0.378-0.543-0.378-0.893 0-0.012 0-0.023 0-0.035l-0 0.002c0-0.48 0.185-0.849 0.552-1.1 0.36-0.251 0.835-0.373 1.416-0.373 0.32 0 0.785 0.057 1.393 0.177v0.923c-0.371-0.161-0.803-0.259-1.256-0.269l-0.004-0c-0.547 0-0.817 0.149-0.817 0.452 0 0.112 0.053 0.2 0.165 0.273 0.089 0.056 0.343 0.179 0.753 0.364 0.595 0.263 0.989 0.491 1.188 0.688 0.218 0.218 0.353 0.519 0.353 0.852 0 0.016-0 0.032-0.001 0.047l0-0.002c0 0.013 0.001 0.028 0.001 0.044 0 0.499-0.276 0.933-0.683 1.158l-0.007 0.003c-0.371 0.227-0.853 0.341-1.444 0.341-0.537-0-1.058-0.065-1.557-0.188l0.045 0.009zM4.528 13.559h1.357v4.867h-1.359zM7.132 18.425v-4.867h3.488v0.88h-2.177v1.101h1.896v0.803h-1.896v1.155h2.233v0.929zM11.565 18.425v-4.867h1.763l1.223 3.111 1.257-3.111h1.676v4.867h-1.292v-3.445l-1.427 3.496h-0.841l-1.4-3.496v3.447zM18.729 18.425v-4.867h3.487v0.88h-2.176v1.101h1.895v0.803h-1.895v1.155h2.235v0.929zM23.169 18.425v-4.867h1.573l1.673 3.26v-3.259h0.96v4.867h-1.536l-1.713-3.3v3.301zM28.34 18.348v-0.963c0.541 0.173 1.027 0.26 1.453 0.26 0.581 0 0.871-0.153 0.871-0.463 0-0.001 0-0.003 0-0.005 0-0.111-0.047-0.212-0.121-0.283l-0-0c-0.088-0.084-0.312-0.197-0.671-0.344-0.64-0.261-1.059-0.485-1.253-0.676-0.234-0.227-0.379-0.545-0.379-0.896 0-0.012 0-0.024 0.001-0.037l-0 0.002c0-0.479 0.184-0.845 0.551-1.096 0.363-0.251 0.835-0.373 1.415-0.373 0.332 0 0.755 0.051 1.275 0.155l0.12 0.023v0.923c-0.371-0.161-0.803-0.259-1.256-0.269l-0.004-0c-0.545 0-0.817 0.149-0.817 0.452 0 0.112 0.053 0.2 0.165 0.272 0.088 0.056 0.339 0.177 0.76 0.365 0.591 0.261 0.984 0.491 1.183 0.688 0.217 0.218 0.352 0.518 0.352 0.85 0 0.017-0 0.033-0.001 0.049l0-0.002c0 0.528-0.227 0.931-0.68 1.205-0.377 0.227-0.859 0.341-1.452 0.341-0.508 0-1.013-0.061-1.509-0.179z"></path>
</svg>
