<!-- Generated by IcoMoon.io -->
<svg version="1.1" xmlns="http://www.w3.org/2000/svg" width="32" height="32" viewBox="0 0 32 32">
<title>simpleicons</title>
<path d="M16 16v-2c-3.312 0-6-2.688-6-6s2.688-6 6-6 6 2.688 6 6h2c0-4.416-3.584-8-8-8s-8 3.584-8 8 3.584 8 8 8zM20.049 17.101c3.811 2.237 5.088 7.14 2.851 10.952h2.24c0.564-1.272 0.856-2.649 0.857-4.040 0.004-5.525-4.469-10.007-9.992-10.013v2c1.421 0 2.817 0.381 4.044 1.101zM16.004 14v0zM9.104 28.053c-0.704-1.189-1.104-2.573-1.104-4.053v-0.040h-2v0.040c-0.003 1.396 0.291 2.779 0.86 4.053zM20 30v-8h2v-2h-12v2h2v8h-6v2h20v-2zM18 30h-4v-8h4zM12.104 7.896c-0.057 2.211 1.687 4.047 3.896 4.104 2.129-0.053 3.84-1.768 3.896-3.896 0.057-2.211-1.688-4.047-3.896-4.104-2.129 0.053-3.84 1.768-3.896 3.896zM18 8.003c0 1.104-0.896 2-2 2-1.107 0-2-0.897-2-2.003 0-1.107 0.893-2 2-2 1.104 0 2 0.896 2 2.003z"></path>
</svg>
