<!-- Generated by IcoMoon.io -->
<svg version="1.1" xmlns="http://www.w3.org/2000/svg" width="32" height="32" viewBox="0 0 32 32">
<title>sinaweibo</title>
<path fill="#e6162d" d="M13.464 27.097c-5.303 0.521-9.885-1.875-10.229-5.36-0.345-3.479 3.679-6.729 8.987-7.255 5.305-0.525 9.884 1.872 10.228 5.357 0.345 3.467-3.679 6.732-8.983 7.252zM12.067 22.959c-0.512 0.821-1.611 1.179-2.439 0.803-0.816-0.372-1.057-1.321-0.541-2.124 0.505-0.793 1.568-1.148 2.391-0.801 0.829 0.351 1.093 1.296 0.589 2.123zM13.76 20.789c-0.188 0.316-0.599 0.471-0.919 0.337-0.315-0.12-0.417-0.481-0.236-0.781 0.184-0.303 0.581-0.461 0.896-0.32 0.319 0.12 0.42 0.48 0.24 0.801zM13.995 17.164c-2.524-0.657-5.377 0.6-6.476 2.824-1.115 2.272-0.035 4.788 2.515 5.613 2.644 0.853 5.757-0.455 6.843-2.905 1.067-2.391-0.268-4.856-2.881-5.532zM24.079 15.532c-0.461-0.14-0.76-0.24-0.54-0.82 0.5-1.303 0.56-2.405 0-3.205-1.041-1.483-3.887-1.404-7.152-0.040 0 0-1.021 0.441-0.761-0.361 0.501-1.623 0.42-2.965-0.36-3.745-1.784-1.783-6.492 0.060-10.517 4.107-3.003 3.027-4.748 6.231-4.748 8.997 0 5.308 6.799 8.527 13.448 8.527 8.715 0 14.517-5.068 14.517-9.093 0-2.429-2.063-3.805-3.887-4.379zM26.623 8.743c-1.021-1.141-2.544-1.583-3.947-1.283-0.581 0.12-0.941 0.681-0.821 1.243 0.12 0.56 0.681 0.921 1.243 0.803 0.681-0.14 1.423 0.059 1.923 0.62 0.501 0.561 0.621 1.303 0.421 1.964-0.181 0.541 0.119 1.141 0.68 1.323 0.54 0.159 1.143-0.14 1.323-0.683 0.44-1.361 0.16-2.904-0.861-4.047zM29.847 5.816c-2.101-2.343-5.207-3.225-8.072-2.624-0.661 0.139-1.083 0.783-0.941 1.441 0.139 0.661 0.781 1.084 1.443 0.943 2.043-0.441 4.247 0.2 5.728 1.844 1.483 1.661 1.905 3.924 1.263 5.888-0.22 0.64 0.141 1.343 0.781 1.543 0.639 0.22 1.321-0.139 1.543-0.781 0.9-2.784 0.321-5.971-1.784-8.313z"></path>
</svg>
