<!-- Generated by IcoMoon.io -->
<svg version="1.1" xmlns="http://www.w3.org/2000/svg" width="32" height="32" viewBox="0 0 32 32">
<title>sitepoint</title>
<path fill="#258aaf" d="M3.295 14.044l2.361 2.251 7.464 6.855 3.2-3.055c0.28-0.396 0.259-0.94-0.061-1.313l-2.939-2.536 0.013-0.007-3.161-3.021c-0.372-0.419-0.36-1.040 0.028-1.439l8.52-8.101-3.859-3.677-11.561 10.984c-0.885 0.844-0.885 2.213 0 3.060zM28.703 17.96l-2.36-2.255-7.46-6.856-3.215 3.055c-0.295 0.4-0.276 0.94 0.060 1.313l2.94 2.521h-0.008l3.159 3.020c0.36 0.419 0.36 1.021-0.039 1.419l-8.521 8.1 3.881 3.723 11.56-10.984c0.885-0.844 0.888-2.212 0-3.060z"></path>
</svg>
