<!-- Generated by IcoMoon.io -->
<svg version="1.1" xmlns="http://www.w3.org/2000/svg" width="32" height="32" viewBox="0 0 32 32">
<title>skillshare</title>
<path fill="#17c5cb" d="M14.056 31.88c-2.853-0.371-5.792-1.595-7.933-3.307-4.816-3.847-7.005-9.915-5.755-15.949 0.54-2.603 1.933-5.344 3.72-7.316 1.299-1.459 2.85-2.66 4.59-3.543l0.088-0.041c2.351-1.193 4.603-1.731 7.259-1.731 1.909 0 3.439 0.249 5.196 0.848 4.682 1.641 8.303 5.262 9.91 9.832l0.034 0.112c0.937 2.753 1.112 5.68 0.511 8.58-0.476 2.293-1.711 4.867-3.233 6.733-0.627 0.769-2.060 2.144-2.817 2.704-2.152 1.611-4.775 2.711-7.629 3.072l-0.080 0.008c-0.82 0.101-3.064 0.099-3.86-0.003zM18.416 30.541c4.011-0.688 7.409-2.897 9.642-6l0.030-0.044c2.703-3.801 3.428-8.893 1.9-13.335-0.36-1.045-1.249-2.781-1.899-3.7-0.725-1.027-2.517-2.82-3.545-3.547-1-0.705-2.708-1.565-3.869-1.949-1.387-0.476-2.986-0.751-4.648-0.751-2.979 0-5.753 0.883-8.072 2.402l0.056-0.035c-1.757 1.166-3.22 2.627-4.351 4.328l-0.035 0.056c-1.483 2.263-2.365 5.035-2.365 8.013 0 1.663 0.275 3.263 0.783 4.755l-0.031-0.104c0.383 1.161 1.244 2.869 1.949 3.869 0.727 1.028 2.519 2.821 3.547 3.547 0.919 0.648 2.653 1.539 3.699 1.899 2.3 0.791 4.764 0.995 7.211 0.596zM12.876 25.177c-0.794-0.123-1.507-0.395-2.136-0.787l0.024 0.014c-0.575-0.369-4.941-4.643-5.155-5.045-0.243-0.46 0.183-1.293 0.792-1.547l0.287-0.12-0.88-0.897c-0.484-0.493-0.943-1.017-1.017-1.165-0.171-0.333-0.179-1.045-0.015-1.363 0.067-0.131 0.227-0.327 0.356-0.436 0.213-0.181 0.232-0.24 0.209-0.688-0.021-0.4 0.013-0.553 0.187-0.852 0.249-0.424 0.765-0.715 1.271-0.716 0.277 0 0.353-0.040 0.471-0.247 0.312-0.547 1.211-0.744 1.893-0.413l0.368 0.177 0.185-0.173c0.248-0.233 0.747-0.435 1.076-0.435 0.656 0 1.583 0.755 1.583 1.288 0 0.633-0.579 0.743-1.149 0.217-0.384-0.353-0.573-0.391-0.729-0.143-0.077 0.123 0.107 0.344 1.229 1.475 1.117 1.124 1.32 1.368 1.32 1.581-0.019 0.338-0.292 0.606-0.63 0.617l-0.001 0c-0.203 0-0.536-0.293-2.072-1.824-1.565-1.56-1.853-1.811-1.977-1.733-0.337 0.213-0.224 0.369 1.609 2.208 0.996 1 1.813 1.887 1.813 1.968 0 0.176-0.156 0.489-0.287 0.576-0.093 0.040-0.201 0.063-0.314 0.063-0.009 0-0.018-0-0.027-0l0.001 0c-0.213 0.001-0.541-0.291-2.288-2.032s-2.061-2.021-2.187-1.943c-0.341 0.216-0.229 0.367 1.768 2.373 1.085 1.089 1.997 2.064 2.027 2.167 0.056 0.187-0.069 0.517-0.239 0.631-0.095 0.041-0.205 0.064-0.32 0.064-0.009 0-0.018-0-0.026-0l0.001 0c-0.217 0-0.487-0.235-1.931-1.68-1.387-1.389-1.713-1.677-1.887-1.659-0.503 0.057-0.325 0.283 2.257 2.871 2.239 2.243 2.527 2.561 2.527 2.795 0 0.185-0.067 0.316-0.221 0.437-0.403 0.317-0.56 0.244-1.569-0.733-0.516-0.497-1.049-0.976-1.187-1.061-0.255-0.16-0.9-0.225-1.023-0.101-0.040 0.039 0.913 1.043 2.115 2.233 2.004 1.984 2.237 2.188 2.825 2.471 1.133 0.547 2.357 0.551 3.492 0.011 1.684-0.8 2.616-2.752 2.157-4.517-0.229-0.879-0.515-1.303-1.675-2.492-1.333-1.367-1.64-1.741-1.965-2.396-0.364-0.733-0.524-1.447-0.524-2.341 0-0.961 0.101-1.4 0.528-2.299 0.408-0.861 1.253-1.76 2.093-2.227 1.648-0.913 3.813-0.837 5.387 0.189 0.313 0.204 1.443 1.265 2.848 2.675 2.089 2.096 2.329 2.364 2.329 2.608 0 0.567-0.464 1.197-0.977 1.325-0.197 0.051-0.157 0.107 0.717 0.993 0.511 0.516 0.985 1.077 1.055 1.245 0.248 0.591 0.139 1.165-0.309 1.629-0.232 0.24-0.26 0.325-0.267 0.804-0.008 0.423-0.053 0.597-0.217 0.839-0.275 0.4-0.729 0.648-1.188 0.649-0.323 0-0.388 0.035-0.547 0.28-0.364 0.561-1.315 0.757-1.928 0.396l-0.307-0.183-0.22 0.209c-0.487 0.464-1.267 0.527-1.861 0.149-0.479-0.304-0.833-0.724-0.833-0.989 0-0.233 0.341-0.619 0.547-0.619 0.197 0 0.467 0.153 0.767 0.437 0.303 0.285 0.561 0.284 0.603-0.007 0.023-0.156-0.227-0.453-1.237-1.471-1.063-1.071-1.267-1.315-1.265-1.524-0-0.007-0-0.015-0-0.023 0-0.114 0.024-0.223 0.066-0.322l-0.002 0.005c0.112-0.169 0.433-0.291 0.632-0.24 0.108 0.027 0.987 0.84 1.952 1.805 0.967 0.967 1.817 1.757 1.893 1.757 0.215 0 0.352-0.213 0.253-0.393-0.047-0.083-0.861-0.925-1.811-1.872-1.487-1.48-1.725-1.755-1.724-1.972-0-0.009-0.001-0.020-0.001-0.031 0-0.114 0.023-0.222 0.065-0.32l-0.002 0.005c0.087-0.129 0.4-0.285 0.576-0.285 0.083 0 1.060 0.909 2.177 2.023 2.052 2.045 2.203 2.16 2.417 1.819 0.080-0.125-0.2-0.44-1.941-2.187-1.799-1.803-2.035-2.071-2.035-2.305 0-0.165 0.069-0.331 0.184-0.436 0.384-0.359 0.495-0.284 2.344 1.556 1.751 1.744 1.909 1.859 2.12 1.527 0.077-0.125-0.276-0.515-2.447-2.692-2.365-2.373-2.537-2.567-2.537-2.843 0-0.413 0.24-0.613 0.703-0.583 0.085 0.005 0.583 0.425 1.103 0.933 0.52 0.507 1.080 0.98 1.247 1.049 0.327 0.136 0.707 0.16 0.872 0.056 0.156-0.1-4.169-4.356-4.728-4.652-0.552-0.303-1.209-0.482-1.908-0.482-1.605 0-2.989 0.941-3.633 2.302l-0.010 0.024c-0.268 0.579-0.307 0.747-0.34 1.493-0.032 0.703-0.008 0.924 0.143 1.369 0.269 0.796 0.508 1.124 1.72 2.364 1.312 1.344 1.563 1.655 1.897 2.371 0.936 2.001 0.539 4.311-1.008 5.856-1.179 1.179-2.779 1.733-4.368 1.515z"></path>
</svg>
