<!-- Generated by IcoMoon.io -->
<svg version="1.1" xmlns="http://www.w3.org/2000/svg" width="32" height="32" viewBox="0 0 32 32">
<title>skyliner</title>
<path fill="#2fcea0" d="M10.615 23.417c-0.243-0.049-0.488 0.059-0.615 0.271-0.633 1.36-2.101 2.123-3.579 1.86-0.271-1.477 0.497-2.951 1.863-3.575 0.272-0.167 0.361-0.523 0.195-0.796-0.089-0.148-0.243-0.251-0.415-0.273-2.103-0.396-4.257 0.349-5.669 1.959-1.668 2.291-2.296 5.177-1.728 7.955 0.041 0.247 0.233 0.439 0.479 0.479 0.664 0.108 1.336 0.16 2.011 0.16 2.445 0.136 4.833-0.775 6.575-2.497 1.187-1.405 1.679-3.269 1.343-5.077-0.028-0.249-0.215-0.449-0.46-0.5zM31.704 0.271c-0.228-0.225-0.696-0.119-0.696-0.119-0.847-0.099-1.701-0.148-2.556-0.151-5.539-0.057-10.871 2.101-14.808 5.996-0.48 0.483-0.933 0.989-1.36 1.519-1.869-0.867-4.011-0.945-5.94-0.22-3.049 1.312-4.831 5.049-6.305 8.895-0.116 0.299 0.033 0.635 0.332 0.749 0.192 0.073 0.405 0.041 0.567-0.085 2.088-1.551 4.824-1.927 7.253-0.999l-0.724 2.619c-0.067 0.245 0.035 0.503 0.249 0.639 1.955 1.461 3.689 3.193 5.151 5.143 0.137 0.217 0.397 0.319 0.643 0.251l2.617-0.719c0.959 2.435 0.581 5.191-0.999 7.275-0.197 0.251-0.155 0.617 0.095 0.813 0.161 0.128 0.38 0.16 0.571 0.085 3.844-1.479 7.581-3.257 8.887-6.296 0.725-1.928 0.649-4.065-0.215-5.935 0.527-0.435 1.029-0.896 1.511-1.381 4.508-4.587 6.667-10.988 5.856-17.368 0 0 0.101-0.469-0.128-0.699zM28.452 1.16c0.751 0 1.503 0.039 2.251 0.117 0.105 1.028 0.137 2.064 0.093 3.096-0.815-0.088-1.579-0.453-2.164-1.028-0.584-0.583-0.951-1.345-1.036-2.164 0.279-0.015 0.563-0.024 0.848-0.024zM14.461 6.816c3.221-3.195 7.456-5.163 11.976-5.563 0.093 0.903 0.44 1.757 0.999 2.473l-3.597 3.596c-2.039-1.604-4.989-1.252-6.595 0.787-1.34 1.704-1.34 4.104 0 5.808l-4.196 4.196c-1.081-1.047-2.252-1.997-3.501-2.841 0.883-3.192 2.576-6.107 4.915-8.456zM24.493 11.028c0.001 1.959-1.584 3.547-3.543 3.547-1.959 0.003-3.545-1.584-3.547-3.541 0-1.96 1.585-3.547 3.543-3.548h0.004c1.956 0 3.541 1.587 3.543 3.543zM1.752 15.025c1.255-3.005 2.787-5.691 5.039-6.659 1.539-0.571 3.237-0.528 4.745 0.12-1.351 1.887-2.375 3.993-3.020 6.224-2.193-0.889-4.664-0.775-6.765 0.311zM13.607 23.279c-1.432-1.827-3.081-3.472-4.911-4.903l0.527-1.912c2.46 1.7 4.592 3.832 6.296 6.291zM23.617 25.179c-0.969 2.264-3.649 3.797-6.652 5.052 1.081-2.104 1.191-4.576 0.3-6.765 2.236-0.651 4.345-1.68 6.239-3.037 0.645 1.512 0.687 3.216 0.111 4.755zM16.703 22.432c-0.839-1.249-1.787-2.421-2.831-3.504l4.196-4.197c2.037 1.604 4.991 1.252 6.593-0.787 1.341-1.704 1.341-4.104 0-5.808l3.597-3.597c0.713 0.557 1.569 0.903 2.467 1-0.399 4.516-2.363 8.751-5.555 11.972-2.351 2.339-5.263 4.029-8.457 4.912z"></path>
</svg>
