<!-- Generated by IcoMoon.io -->
<svg version="1.1" xmlns="http://www.w3.org/2000/svg" width="32" height="32" viewBox="0 0 32 32">
<title>slides</title>
<path fill="#e4637c" d="M0 0v32h32v-32zM18.901 21.059c-0.859 0.779-1.88 1.16-3.080 1.16s-2.219-0.183-3.099-0.541c-0.861-0.36-1.301-0.7-1.301-1.040l-0.101 0.127c0-0.173 0.107-0.432 0.325-0.78 0.217-0.347 0.413-0.52 0.587-0.52 0.019 0 0.16 0.080 0.419 0.245 0.26 0.167 0.629 0.329 1.116 0.496 0.485 0.164 1.072 0.247 1.756 0.247 0.7 0 1.26-0.196 1.7-0.587 0.44-0.389 0.66-0.92 0.66-1.587s-0.2-1.187-0.581-1.56c-0.38-0.373-1.16-0.725-2.32-1.053-1.16-0.333-2-0.752-2.52-1.261-0.52-0.515-0.781-1.291-0.781-2.331s0.4-1.913 1.2-2.616c0.8-0.72 1.84-1.060 3.12-1.060 0.9 0 1.68 0.099 2.38 0.339 0.699 0.22 1.040 0.48 1.040 0.74 0 0.219-0.1 0.52-0.301 0.859-0.2 0.36-0.38 0.52-0.52 0.52-0.023 0-0.12-0.060-0.343-0.16-0.58-0.32-1.24-0.48-1.979-0.48s-1.301 0.14-1.72 0.44c-0.4 0.3-0.6 0.7-0.6 1.18s0.16 0.859 0.459 1.139 0.82 0.52 1.56 0.76c1.64 0.5 2.74 1.040 3.32 1.64 0.581 0.6 0.88 1.501 0.88 2.7 0.003 1.2-0.416 2.2-1.275 2.985z"></path>
</svg>
