<!-- Generated by IcoMoon.io -->
<svg version="1.1" xmlns="http://www.w3.org/2000/svg" width="32" height="32" viewBox="0 0 32 32">
<title>smashingmagazine</title>
<path fill="#e85c33" d="M10.312 16.003c1.021 0.699 2.216 1.347 3.611 1.924 2.38 0.989 3.98 1.849 4.801 2.581 0.82 0.729 1.237 1.664 1.237 2.805-0.007 1.943-1.364 2.919-4.101 2.919-2.636 0-5-0.836-7.101-2.5l-2.495 5.581c1.896 1.015 3.44 1.676 4.633 1.995l0.188 0.044-2.397 0.555c-1.695 0.389-3.385-0.671-3.776-2.361l-4.831-20.879c-0.388-1.695 0.667-3.385 2.364-3.78l5.833-1.345c-0.211 0.207-0.409 0.421-0.588 0.647l-0.024 0.028c-1.004 1.265-1.508 2.82-1.508 4.673 0 2.801 1.373 5.16 4.105 7.061l0.061 0.039zM24.123 16.099c-1.12-0.896-2.539-1.691-4.32-2.381-2.64-1.045-4.361-1.88-5.161-2.496-0.8-0.62-1.219-1.308-1.219-2.076 0-1.945 1.219-2.92 3.68-2.92 2.721 0 4.861 0.659 6.381 1.968l2.020-5.44c-1.46-0.741-2.98-1.28-4.54-1.621l-0.080-0.020c-0.341-0.081-0.7-0.16-1.081-0.219l3.5-0.803c1.7-0.38 3.38 0.681 3.781 2.361l4.84 20.863c0.379 1.699-0.68 3.401-2.379 3.78l-3.98 0.92c1.099-1.401 1.66-3.12 1.66-5.16 0-2.1-0.583-3.881-1.741-5.361-0.38-0.461-0.82-0.901-1.341-1.341l-0.059-0.039z"></path>
</svg>
