<!-- Generated by IcoMoon.io -->
<svg version="1.1" xmlns="http://www.w3.org/2000/svg" width="32" height="32" viewBox="0 0 32 32">
<title>snapchat</title>
<path fill="#fffc00" d="M16.275 1.057c1.32 0 5.796 0.368 7.907 5.095 0.705 1.591 0.537 4.292 0.399 6.463l-0.004 0.080c-0.016 0.24-0.029 0.46-0.040 0.68 0.1 0.060 0.271 0.12 0.535 0.12 0.4-0.021 0.879-0.16 1.377-0.401 0.22-0.117 0.459-0.139 0.619-0.139 0.243 0 0.479 0.039 0.679 0.12 0.6 0.199 0.979 0.639 0.979 1.117 0.020 0.599-0.52 1.119-1.617 1.557-0.119 0.039-0.279 0.1-0.459 0.159-0.6 0.18-1.519 0.48-1.777 1.080-0.12 0.299-0.081 0.699 0.16 1.157l0.020 0.020c0.080 0.181 2.035 4.633 6.388 5.352 0.34 0.059 0.58 0.36 0.56 0.679 0 0.1-0.020 0.199-0.060 0.3-0.32 0.759-1.697 1.317-4.195 1.695-0.079 0.121-0.16 0.5-0.219 0.76-0.039 0.239-0.099 0.48-0.179 0.737-0.101 0.361-0.36 0.54-0.74 0.54h-0.040c-0.18 0-0.417-0.041-0.717-0.099-0.48-0.1-1.020-0.18-1.697-0.18-0.4 0-0.799 0.020-1.217 0.099-0.8 0.139-1.497 0.619-2.297 1.179-1.137 0.799-2.435 1.717-4.392 1.717-0.080 0-0.159-0.020-0.24-0.020h-0.199c-1.957 0-3.236-0.9-4.372-1.717-0.799-0.56-1.476-1.039-2.276-1.179-0.419-0.060-0.839-0.099-1.237-0.099-0.72 0-1.277 0.119-1.696 0.199-0.281 0.057-0.521 0.099-0.72 0.099-0.499 0-0.697-0.299-0.777-0.56-0.081-0.256-0.12-0.519-0.18-0.756-0.061-0.241-0.14-0.659-0.221-0.76-2.557-0.296-3.933-0.856-4.252-1.635-0.041-0.084-0.069-0.2-0.073-0.3-0.020-0.324 0.22-0.62 0.56-0.679 4.352-0.72 6.307-5.172 6.388-5.36l0.021-0.039c0.24-0.46 0.299-0.86 0.159-1.159-0.26-0.579-1.179-0.877-1.776-1.079-0.161-0.039-0.32-0.099-0.461-0.159-1.476-0.58-1.676-1.24-1.596-1.697 0.12-0.639 0.899-1.057 1.557-1.057 0.195 0 0.36 0.039 0.511 0.099 0.56 0.259 1.052 0.4 1.472 0.4 0.312 0 0.512-0.080 0.62-0.14l-0.061-0.759c-0.131-2.168-0.3-4.868 0.409-6.449 2.052-4.703 6.515-5.063 7.832-5.063l0.559-0.020z"></path>
</svg>
