<!-- Generated by IcoMoon.io -->
<svg version="1.1" xmlns="http://www.w3.org/2000/svg" width="32" height="32" viewBox="0 0 32 32">
<title>snyk</title>
<path fill="#4c4a73" d="M20.4 0.003c-0.012-0.003-0.020-0.003-0.025 0.003-0.063 0.073-0.333 1.697-0.599 3.608-0.272 1.96-0.624 3.801-0.805 4.227l-0.324 0.755-0.74-0.147c-0.943-0.187-2.788-0.187-3.716-0.004-0.687 0.136-0.731 0.119-1.060-0.435-0.248-0.415-0.475-1.543-0.816-4.049-0.259-1.909-0.512-3.619-0.563-3.796-0.071-0.252-0.209-0.117-0.625 0.608-0.833 1.456-2.341 4.867-2.664 6.027l-0.292 1.049 0.649 1.728 0.648 1.728-0.189 1.873c-0.098 0.924-0.166 2.030-0.187 3.148l-0.001 0.039c0 1.267 0.028 1.36 0.759 2.445l0.759 1.129-0.419 3.796c-0.4 3.64-0.405 3.807-0.107 4.033 0.171 0.129 0.36 0.237 0.419 0.24 0.060 0.004 0.251-1.4 0.423-3.12 0.173-1.72 0.369-3.125 0.437-3.125 0.276 0 0.333 2.767 0.099 4.688-0.183 1.489-0.195 2.051-0.048 2.205 0.109 0.113 1.173 0.911 2.368 1.771s2.193 1.568 2.221 1.573 1.436-0.983 3.127-2.193c1.692-1.211 3.095-2.213 3.12-2.229 0.024-0.015-0.147-1.76-0.377-3.875l-0.42-3.847 0.767-1.145c0.881-1.315 0.896-1.44 0.577-5.199l-0.192-2.257 0.64-1.701 0.64-1.7-0.376-1.252c-0.432-1.437-2.808-6.461-3.107-6.599zM20.877 3.005c0.177 0 1.040 1.885 1.607 3.505 0.352 1.009 0.373 1.216 0.181 1.855-0.119 0.395-0.285 0.719-0.369 0.719-0.356 0-1.493-3.131-1.577-4.343-0.063-0.901 0.013-1.736 0.159-1.736zM11.184 3.129c0.007 0 0.013 0 0.017 0.005 0.453 0.455 0.028 3.12-0.797 4.987-0.223 0.504-0.483 0.965-0.577 1.024-0.093 0.057-0.271-0.248-0.392-0.68-0.175-0.627-0.176-0.936-0.007-1.517 0.377-1.289 1.54-3.805 1.756-3.819zM13.259 5.609v0.479c0.001 0.263 0.084 0.771 0.183 1.129 0.2 0.721 0.216 0.725 1.607 0.469 0.3-0.060 0.644-0.094 0.996-0.094 0.374 0 0.739 0.039 1.092 0.112l-0.034-0.006c1.301 0.236 1.457 0.123 1.627-1.176l0.12-0.912h-2.795zM7.875 6.332l-2.171 0.587-0.037 8.853-0.039 8.856 1.676 1.171c0.92 0.644 1.713 1.131 1.761 1.083 0.048-0.047 0.256-1.629 0.463-3.515l0.376-3.428-0.503-0.74c-1.036-1.525-1.069-1.72-0.831-5.012l0.216-2.973-0.567-1.5c-0.483-1.28-0.549-1.64-0.456-2.441zM24.2 6.332l0.104 0.899c0.088 0.76 0.008 1.152-0.516 2.547-0.341 0.908-0.584 1.807-0.539 1.999 0.195 0.84 0.387 4.932 0.263 5.612-0.076 0.412-0.412 1.153-0.747 1.649l-0.611 0.901 0.4 3.473c0.219 1.911 0.405 3.496 0.413 3.523 0.029 0.088 0.597-0.283 2.013-1.315l1.391-1.013v-17.689l-1.085-0.293zM11.929 6.915c0.040-0.003 0.069 0.128 0.12 0.36 0.116 0.555 0.139 0.6 0.799 1.661l0.393 0.635 0.697-0.24c0.383-0.133 1.013-0.291 1.397-0.353 0.635-0.101 0.701-0.076 0.701 0.259 0 0.295-0.105 0.369-0.525 0.369-0.288 0-0.969 0.156-1.513 0.347s-1.007 0.347-1.031 0.347c-0.023 0-0.248-0.351-0.5-0.781-0.252-0.429-0.477-0.781-0.503-0.781-0.024 0-0.307 0.411-0.627 0.912-0.419 0.656-0.588 1.131-0.605 1.693-0.013 0.431-0.087 1.936-0.165 3.347l-0.143 2.564 0.657 0.952c0.36 0.524 0.673 0.953 0.695 0.953 0.416 0 1.213-0.531 1.736-1.155 0.488-0.585 0.7-0.733 0.796-0.56 0.175 0.316 0.235 4.275 0.075 4.889-0.165 0.639 0.329 1.232 0.908 1.087 0.356-0.089 0.399-0.039 0.399 0.48 0 0.009 0 0.020 0 0.031 0 0.366-0.155 0.696-0.402 0.928l-0.001 0.001c-0.52 0.489-1.48 0.497-2.091 0.017-0.519-0.407-0.893-1.551-1.077-3.288-0.108-1.024-0.215-1.257-1.145-2.507-0.564-0.76-1.076-1.58-1.137-1.824-0.061-0.245-0.013-1.752 0.105-3.349s0.169-2.98 0.113-3.072c-0.057-0.092 0.205-0.645 0.584-1.231 0.379-0.587 0.824-1.469 0.991-1.965 0.169-0.503 0.245-0.724 0.299-0.725zM19.345 13.285c0.273 0.016 0.427 0.179 0.427 0.488 0 0.415-0.052 0.436-1.173 0.485-0.644 0.027-1.171 0.012-1.171-0.036s0.348-0.293 0.773-0.541c0.48-0.28 0.872-0.413 1.144-0.396zM12.689 13.312c0.475-0.009 1.184 0.257 1.524 0.633 0.312 0.347 0.307 0.348-0.747 0.348-0.867 0-1.096-0.060-1.24-0.328-0.132-0.245-0.109-0.385 0.087-0.547 0.097-0.067 0.216-0.107 0.345-0.107 0.011 0 0.021 0 0.032 0.001l-0.001-0zM13.685 14.988c0.384 0 0.333 0.648-0.067 0.863-0.479 0.256-0.66 0.227-1.053-0.167-0.459-0.459-0.44-0.733 0.043-0.664 0.269 0.039 0.373 0.155 0.336 0.373-0.040 0.229 0.035 0.301 0.26 0.255 0.185-0.037 0.293-0.187 0.264-0.361s0.060-0.299 0.217-0.299zM19.417 14.988c0.384 0 0.333 0.648-0.068 0.863-0.477 0.256-0.66 0.227-1.053-0.167-0.459-0.459-0.44-0.733 0.043-0.664 0.269 0.039 0.373 0.155 0.336 0.373-0.039 0.229 0.035 0.301 0.261 0.255 0.184-0.037 0.293-0.187 0.264-0.361-0.031-0.175 0.060-0.299 0.217-0.299zM17.724 17.249c0.083 0.004 0.463 0.351 0.884 0.807 0.556 0.601 1.011 0.925 1.424 1.013 0.881 0.187 0.935 0.256 0.531 0.685-0.427 0.455-0.704 1.317-0.704 2.192 0 0.932-0.493 2.408-0.96 2.875-0.913 0.913-2.513 0.307-2.513-0.955 0-0.48 0.051-0.549 0.339-0.457 0.527 0.167 1.12-0.516 0.952-1.1-0.136-0.475-0.104-4.912 0.037-5.057 0.003-0.003 0.007-0.004 0.011-0.003zM16.037 25.756c0.849 0 1.143 0.205 0.595 0.416s-1.463 0.049-1.463-0.256c0-0.088 0.391-0.16 0.868-0.16zM14.269 25.872l0.551 0.464c0.741 0.624 1.688 0.629 2.42 0.013 0.511-0.429 0.535-0.435 0.535-0.091 0 0.197-0.192 0.484-0.427 0.639-1.045 0.684-2.889 0.315-3.019-0.605z"></path>
</svg>
