<!-- Generated by IcoMoon.io -->
<svg version="1.1" xmlns="http://www.w3.org/2000/svg" width="32" height="32" viewBox="0 0 32 32">
<title>society6</title>
<path d="M16 0c-8.836 0-16 7.164-16 16s7.164 16 16 16 16-7.164 16-16-7.164-16-16-16zM26.571 6.621l0.056 1.168-1.221 0.209c-0.94 0.259-1.76 0.62-2.457 1.084s-1.288 0.973-1.773 1.531c-0.453 0.518-0.847 1.104-1.163 1.738l-0.021 0.048-0.021 0.048c-0.324 0.675-0.612 1.387-0.867 2.132 0.501-0.432 1.077-0.796 1.703-1.066l0.043-0.017 0.044-0.016c0.695-0.297 1.521-0.447 2.485-0.447 1.119 0 2.057 0.395 2.815 1.179s1.137 1.807 1.137 3.064c0 1.879-0.721 3.504-2.165 4.879s-3.219 2.063-5.323 2.063c-1.673 0-3.008-0.499-4.004-1.496s-1.493-2.324-1.493-3.975c0-3.151 1.12-5.849 3.36-8.097s5.193-3.589 8.865-4.028zM10.567 12.137c0.58 0 1.117 0.036 1.615 0.108 0.517 0.073 0.985 0.212 1.42 0.409l-0.032-0.013c0.381 0.173 0.699 0.429 0.94 0.747l0.004 0.005c0.225 0.309 0.336 0.684 0.336 1.125s-0.157 0.819-0.475 1.136c-0.316 0.317-0.732 0.475-1.244 0.475-0.443 0-0.809-0.121-1.104-0.363s-0.532-0.525-0.716-0.856c-0.183-0.337-0.329-0.688-0.436-1.045s-0.195-0.657-0.263-0.899c-0.535 0.032-1.020 0.237-1.459 0.612s-0.66 0.839-0.66 1.395c0 0.337 0.052 0.603 0.155 0.795s0.245 0.353 0.415 0.477l0.004 0.003c0.216 0.153 0.464 0.289 0.725 0.395l0.024 0.008c0.201 0.092 0.575 0.236 0.952 0.372l0.176 0.055c1.037 0.384 1.82 0.847 2.347 1.384 0.428 0.437 0.679 0.989 0.759 1.655-0.011-0.156 0.156 1.479 0.024 0.244 0.003 0.075 0.008 0.151 0.008 0.228 0 0.577-0.129 1.129-0.385 1.66s-0.619 0.971-1.091 1.323c-0.509 0.371-1.102 0.666-1.741 0.851l-0.040 0.010-0.040 0.009c-0.688 0.196-1.563 0.295-2.623 0.295-0.963 0-1.757-0.081-2.385-0.245s-1.127-0.376-1.493-0.632c-0.375-0.257-0.631-0.531-0.767-0.823s-0.207-0.567-0.207-0.823c0-0.465 0.167-0.873 0.497-1.221s0.773-0.521 1.321-0.521c0.459 0 0.841 0.123 1.151 0.371 0.315 0.257 0.573 0.568 0.765 0.921l0.008 0.016c0.181 0.325 0.345 0.704 0.469 1.099l0.012 0.043c0.047 0.12 0.141 0.429 0.229 0.741l0.045 0.185c0.863 0 1.516-0.192 1.959-0.581s0.664-0.921 0.664-1.595c0-0.296-0.067-0.544-0.2-0.744s-0.312-0.377-0.532-0.531c-0.221-0.144-0.503-0.284-0.847-0.42s-0.684-0.264-1.020-0.385c-0.924-0.328-1.653-0.783-2.192-1.364s-0.807-1.304-0.807-2.171v-0.017c0-0.521 0.124-1.013 0.345-1.449l-0.008 0.019c0.227-0.453 0.579-0.872 1.059-1.259 0.473-0.368 1.072-0.661 1.797-0.881s1.572-0.332 2.54-0.331zM21.256 14.636c-0.439 0-0.853 0.088-1.244 0.265s-0.807 0.529-1.245 1.056c-0.053 0.244-0.145 0.712-0.28 1.407s-0.203 1.549-0.203 2.564c0 1.037 0.164 1.845 0.487 2.427s0.755 0.873 1.291 0.873c0.835 0 1.557-0.576 2.171-1.727h0.003c0.613-1.152 0.92-2.549 0.92-4.192 0-0.824-0.179-1.477-0.536-1.957s-0.811-0.717-1.363-0.716z"></path>
</svg>
