<!-- Generated by IcoMoon.io -->
<svg version="1.1" xmlns="http://www.w3.org/2000/svg" width="32" height="32" viewBox="0 0 32 32">
<title>socket-dot-io</title>
<path d="M15.915 0.021c-1.411 0.004-2.777 0.188-4.080 0.529l0.113-0.025c-6.24 1.551-11.192 7.204-11.827 13.613-0.787 6.065 2.277 12.381 7.525 15.513 5.148 3.224 12.124 3.093 17.165-0.297 4.529-2.941 7.349-8.304 7.181-13.713-0.077-5.355-3.080-10.556-7.679-13.307-2.509-1.548-5.457-2.325-8.4-2.313zM15.831 2.283c6.593-0.009 13.052 5.085 13.709 11.9 1.26 7.547-5.004 15.217-12.651 15.44-7.272 0.725-14.3-5.44-14.507-12.743-0.543-5.912 3.355-11.78 8.931-13.733 1.333-0.547 2.879-0.864 4.5-0.864 0.006 0 0.012 0 0.018 0h-0.001zM22.619 6.583c-3.583 2.78-7.013 5.744-10.519 8.609 1.604 0.023 3.216 0.021 4.828 0.013 1.88-2.887 3.812-5.735 5.691-8.623zM15.065 16.788c-1.88 2.888-3.813 5.745-5.693 8.632 3.591-2.773 7.007-5.76 10.536-8.608-1.222-0.016-2.664-0.025-4.109-0.025-0.258 0-0.516 0-0.773 0.001l0.040-0z"></path>
</svg>
