<!-- Generated by IcoMoon.io -->
<svg version="1.1" xmlns="http://www.w3.org/2000/svg" width="32" height="32" viewBox="0 0 32 32">
<title>sogou</title>
<path fill="#fb6022" d="M22.401 30.32l1.319 1.68c2.081-0.901 3.901-2.16 5.401-3.801l-1.261-1.757c-1.48 1.719-3.3 3.039-5.44 3.879zM16 29.599c-7.7 0-13.94-6.159-13.94-13.8 0-7.599 6.24-13.759 13.94-13.759s13.941 6.2 13.941 13.8c0 3.4-1.261 6.521-3.343 8.92l1.26 1.681c2.543-2.803 4.141-6.523 4.141-10.601 0-8.78-7.16-15.84-16-15.84s-16 7.081-16 15.8c0 8.76 7.16 15.84 16 15.84 2.28 0 4.44-0.461 6.401-1.32l-1.281-1.68c-1.6 0.6-3.32 0.959-5.12 0.959zM24 16.861c-3-2.48-7.12-2.801-10.401-4.741-1-0.639-0.197-1.86 0.803-1.9 3.599-0.6 7.159 0.84 10.519 2l0.201-3.54c-4.201-1.52-8.76-2.5-13.201-1.8-1.6 0.4-3.2 0.9-4.339 2.080-1.561 1.6-1.281 4.48 0.519 5.76 2.981 2.34 6.901 2.681 10.161 4.48 1.28 0.52 0.74 2.24-0.521 2.36-3.9 0.74-7.74-0.961-11.1-2.8-0.040 1.36-0.080 2.68-0.080 4 4.26 1.879 9 2.759 13.6 2.039 1.56-0.3 3.16-0.8 4.3-1.939 1.639-1.6 1.481-4.681-0.44-6z"></path>
</svg>
