<!-- Generated by IcoMoon.io -->
<svg version="1.1" xmlns="http://www.w3.org/2000/svg" width="32" height="32" viewBox="0 0 32 32">
<title>solus</title>
<path fill="#5294e2" d="M9.937 0c-0.24 0.783-0.492 1.556-0.753 2.333-5.454 2.482-9.178 7.881-9.184 14.151v0.001c0.003 1.62 0.255 3.181 0.718 4.647l-0.030-0.11-0.452 0.797-0.236 0.487 0.372 0.191c0.283 0.125 0.615 0.228 0.96 0.292l0.028 0.004c0.408 0.911 0.844 1.687 1.341 2.418l-0.035-0.054c5.379 0.457 11.4 0.683 16.595-0.075 4.256-0.617 7.92-1.897 10.313-4.156 0.336-0.311 0.632-0.632 0.899-0.963 0.025-0.051 0.049-0.071 0.080-0.101 0.015 0 0.035-0.049 0.051-0.069 0.020 0 0.040-0.051 0.055-0.076 0.011 0 0.020-0.051 0.031-0.051 0.44-0.592 0.783-1.189 1.068-1.747l0.241-0.487-0.487-0.487c-0.154-0.162-0.311-0.314-0.474-0.46l-0.008-0.007c0-8.57-6.947-15.517-15.517-15.517v0c-1.527 0.005-3 0.23-4.391 0.645l0.11-0.028c-0.619-0.903-1.104-1.525-1.295-1.58zM10.424 2.183c1.656 2.911 3.083 4.564 4.848 7.76 0.176 2.032 0.893 12.6 0.969 13.575-0.523-0.049-3.313-0.32-6.805-0.687-1.907-0.196-3.865-0.421-5.456-0.653l-2.533-0.596c2.865-5.049 7.401-12.969 8.977-19.399zM16.481 10.423c0 0 6.655 5.236 9.456 11.64-3.413 1.68-6.555 1.464-8.481 1.453 1.364-3.512 1.364-8.28-0.975-13.093zM21.089 13.335c1.735 0.472 3.027 0.886 4.3 1.34l-0.42-0.131c2.357 0.839 4.556 1.987 5.82 3.152-0.889 1.663-2.217 2.991-3.83 3.856l-0.050 0.024c0.201-1.993-0.52-3.911-1.941-5.336-1.049-1.049-2.429-1.937-3.879-2.905zM30.032 21.972c-3.136 2.223-6.835 3.573-10.62 4.149-1.393 0.205-3.101 0.367-4.83 0.449l-0.123 0.005h-0.431c-0.741 0.028-1.611 0.043-2.485 0.043s-1.744-0.016-2.61-0.047l0.125 0.004c-2.125-0.066-4.060-0.176-5.981-0.334l0.406 0.027c3.407 4.34 9.324 6.524 14.789 5.469 2.276-0.411 4.296-1.276 6.046-2.502l-0.049 0.032c0.001 0 0.003 0 0.005 0s0.003 0 0.005 0h-0c0.416-0.285 0.819-0.592 1.204-0.913 0.020-0.020 0.037-0.036 0.053-0.052l-0.003 0.003c1.98-1.67 3.52-3.8 4.461-6.228l0.036-0.105zM3.348 26.112c0.049 0.085 0.059 0.101 0.069 0.118l-0.038-0.067c-0.011 0-0.020-0.051-0.031-0.051z"></path>
</svg>
