<!-- Generated by IcoMoon.io -->
<svg version="1.1" xmlns="http://www.w3.org/2000/svg" width="32" height="32" viewBox="0 0 32 32">
<title>sonarcloud</title>
<path fill="#f3702a" d="M29.875 14.533c-1.144-1.445-2.674-2.537-4.436-3.125l-0.067-0.019v-0.113c0-5.38-4.208-9.765-9.396-9.765-5.191 0-9.4 4.376-9.4 9.767v0.133c-3.801 1.245-6.576 4.947-6.576 9.312 0 5.38 4.212 9.767 9.4 9.767 2.591-0.006 4.93-1.081 6.6-2.808l0.002-0.003c1.669 1.73 4.006 2.806 6.595 2.811h0.001c5.179 0 9.401-4.376 9.401-9.767-0.002-2.343-0.801-4.499-2.142-6.211l0.017 0.022zM22.6 28.019c-3.871 0-7.023-3.275-7.023-7.299 0-0.006 0-0.012 0-0.019 0-0.661-0.528-1.198-1.185-1.213l-0.001-0c-0.659 0.010-1.19 0.547-1.19 1.208 0 0.009 0 0.018 0 0.027l-0-0.001c0 1.824 0.489 3.535 1.325 4.997-1.262 1.417-3.090 2.306-5.126 2.311h-0.001c-3.872 0-7.027-3.276-7.027-7.299 0-4.021 3.155-7.297 7.027-7.297 0.84 0 1.655 0.156 2.436 0.447 0.009 0 0.017 0.009 0.027 0.009 0.271 0.095 0.652 0.28 0.771 0.383 0.203 0.185 0.473 0.298 0.77 0.298 0.361 0 0.684-0.168 0.893-0.429l0.002-0.002c0.179-0.215 0.287-0.495 0.287-0.799 0-0.37-0.16-0.703-0.415-0.933l-0.001-0.001c-0.52-0.456-1.327-0.767-1.525-0.84-0.957-0.374-2.064-0.591-3.222-0.591-0.004 0-0.008 0-0.011 0h0.001c-0.151 0-0.3 0-0.451 0.009 0.16-3.888 3.244-6.996 7.027-6.996 3.871 0 7.023 3.275 7.023 7.299 0 0.007 0 0.015 0 0.023 0 2.414-1.151 4.558-2.935 5.914l-0.018 0.013c-0.303 0.233-0.496 0.596-0.496 1.004 0 0.264 0.081 0.509 0.219 0.711l-0.003-0.004c0.228 0.333 0.6 0.52 0.969 0.52 0.259 0 0.499-0.086 0.691-0.231l-0.003 0.002c1.74-1.314 3.017-3.159 3.596-5.291l0.016-0.069c2.713 1.047 4.599 3.772 4.599 6.852-0.009 4.013-3.161 7.288-7.044 7.288z"></path>
</svg>
