<!-- Generated by IcoMoon.io -->
<svg version="1.1" xmlns="http://www.w3.org/2000/svg" width="32" height="32" viewBox="0 0 32 32">
<title>sonarlint</title>
<path fill="#cc2026" d="M16.243 0.044c-0.929-0.013-1.865 0.011-2.383 0.084-3.612 0.509-6.771 2.152-9.173 4.552l0-0c-3.052 3.053-4.687 6.992-4.687 11.325 0 4.397 1.68 8.377 4.815 11.424 2.444 2.372 5.321 3.828 8.707 4.391 1.053 0.169 3.641 0.192 4.703 0.032 3.529-0.523 6.587-2.049 9.085-4.549 3.192-3.176 4.847-7.373 4.677-11.86-0.16-4.18-1.727-7.789-4.669-10.74-2.42-2.409-5.299-3.899-8.731-4.509-0.493-0.087-1.416-0.136-2.344-0.149zM16.208 2.88c0.507 0.009 1.019 0.044 1.533 0.109 2.839 0.363 5.484 1.673 7.551 3.74 2.507 2.508 3.833 5.715 3.833 9.268 0 3.529-1.293 6.681-3.768 9.205-1.849 1.873-4.101 3.104-6.729 3.667-1.151 0.249-3.384 0.305-4.543 0.128-2.885-0.467-5.361-1.711-7.387-3.745-2.027-2.017-3.267-4.479-3.717-7.356-0.128-0.828-0.128-3.040 0-3.82 0.507-3.007 1.723-5.36 3.828-7.436 2.56-2.517 5.853-3.823 9.399-3.76zM25.421 13.065c-0.127-0.031-0.267-0.017-0.476 0.023-0.337 0.065-0.995 0.813-1.349 1.552-0.603 1.239-0.967 1.6-1.497 1.48-0.369-0.080-0.94-0.708-1.413-1.56-0.507-0.9-0.596-1.013-0.991-1.213-0.803-0.411-1.503 0-2.219 1.309-0.497 0.893-0.86 1.269-1.285 1.325-0.331 0.049-0.36 0.032-0.721-0.347-0.209-0.216-0.539-0.697-0.74-1.067-0.443-0.828-0.773-1.087-1.4-1.087-1.111 0-1.569 0.339-2.22 1.64-0.467 0.925-0.86 1.447-1.101 1.447-0.395 0-0.764-0.432-1.391-1.647-0.225-0.441-0.504-0.9-0.625-1.020-0.796-0.844-2.267-0.129-3.12 1.511-0.184 0.353-0.467 0.884-0.627 1.181-0.249 0.475-0.289 0.627-0.289 1.093 0 0.66 0.113 0.86 0.443 0.78 0.313-0.080 0.787-0.603 1.276-1.413 0.675-1.119 1.336-1.473 1.883-1.007 0.273 0.233 0.547 0.764 0.667 1.311 0.112 0.547 0.588 1.14 1.063 1.333 0.337 0.144 0.425 0.153 0.763 0.057 0.531-0.137 1.037-0.595 1.48-1.341 0.651-1.093 1.221-1.457 1.937-1.24 0.441 0.129 0.817 0.54 1.253 1.352 0.617 1.149 1.125 1.591 1.6 1.391 0.427-0.185 0.836-0.651 1.303-1.495 0.499-0.909 0.989-1.329 1.552-1.329s1.061 0.419 1.576 1.303c0.305 0.547 0.875 1.071 1.221 1.143 0.345 0.065 0.811-0.073 1.116-0.323 0.137-0.12 0.453-0.553 0.693-0.963 1.141-1.939 1.872-1.867 3.085 0.296 0.289 0.515 0.781 0.933 0.997 0.852 0.145-0.056 0.251-0.676 0.177-1.093-0.072-0.443-1.036-2.524-1.487-3.183-0.209-0.307-0.531-0.676-0.724-0.82-0.165-0.129-0.28-0.203-0.409-0.232z"></path>
</svg>
