<!-- Generated by IcoMoon.io -->
<svg version="1.1" xmlns="http://www.w3.org/2000/svg" width="32" height="32" viewBox="0 0 32 32">
<title>songkick</title>
<path fill="#f80046" d="M8.733 25.039c-2.473 0-4.496-0.452-6.131-2.136l2.56-2.544c0.84 0.841 2.32 1.137 3.62 1.137 1.581 0 2.319-0.521 2.319-1.452 0-0.388-0.080-0.705-0.319-0.956-0.2-0.205-0.539-0.364-1.060-0.432l-1.94-0.273c-1.419-0.203-2.521-0.68-3.24-1.429-0.74-0.771-1.12-1.86-1.12-3.245-0.041-2.953 2.177-5.108 5.857-5.108 2.32 0 4.064 0.543 5.448 1.931l-2.5 2.496c-1.020-1.021-2.36-0.953-3.060-0.953-1.385 0-1.953 0.796-1.953 1.5 0 0.203 0.068 0.5 0.32 0.748 0.2 0.204 0.539 0.409 1.109 0.479l1.956 0.271c1.453 0.204 2.5 0.66 3.18 1.34 0.86 0.84 1.2 2.040 1.2 3.54 0 3.293-2.836 5.092-6.24 5.092zM27.751 3.535c-2.18-1.625-4.591-2.719-7.632-3.219v14.5l4.348-6.052h4.753l-5.46 7.627c0 0 1.259 2.013 2.020 3.207 0.781 1.199 1.519 1.52 2.62 1.52h0.76v3.741h-1.163c-2.416 0-3.867-0.44-4.96-2.1-0.672-1.081-2.9-4.581-2.9-4.581v6.66h-3.977v-24.839h-0.16c-5.136 0-8.679 1.241-11.748 3.536-4.428 3.315-4.251 7.733-4.251 12.461 0 4.729-0.177 9.156 4.251 12.469 3.069 2.3 6.612 3.535 11.748 3.535s8.68-1.236 11.749-3.535c4.425-3.312 4.251-7.74 4.251-12.469 0-4.728 0.176-9.145-4.251-12.461z"></path>
</svg>
