<!-- Generated by IcoMoon.io -->
<svg version="1.1" xmlns="http://www.w3.org/2000/svg" width="32" height="32" viewBox="0 0 32 32">
<title>sonicwall</title>
<path fill="#f60" d="M31.517 13.737h-0.060v-0.133h0.060c0.049 0 0.073 0.025 0.073 0.068s-0.024 0.067-0.073 0.065zM31.717 13.671c0-0.079-0.051-0.149-0.169-0.149h-0.216v0.485h0.125v-0.187h0.047l0.113 0.187h0.147l-0.139-0.201c0.053-0.019 0.091-0.069 0.091-0.128 0-0.002-0-0.004-0-0.007v0zM31.516 14.124c-0.197 0-0.357-0.16-0.357-0.357s0.16-0.357 0.357-0.357v0c0.197 0 0.357 0.16 0.357 0.357s-0.16 0.357-0.357 0.357v0zM31.516 13.359c-0.226 0-0.409 0.183-0.409 0.409s0.183 0.409 0.409 0.409v0c0.226 0 0.409-0.183 0.409-0.409s-0.183-0.409-0.409-0.409v0zM21.249 13.492l-0.828 2.461-0.019 0.053-0.017-0.053-0.815-2.472h-0.663l-0.815 2.472-0.019 0.053-0.017-0.053-0.827-2.461h-0.821l1.308 3.635h0.673l0.82-2.371 0.019-0.051 0.017 0.051 0.82 2.371h0.673l1.309-3.635h-0.8zM1.377 15.14c-0.82-0.168-0.976-0.383-0.976-0.719v-0.009c0-0.356 0.339-0.613 0.807-0.613 0.391 0 0.701 0.116 1.007 0.38l0.028 0.024 0.008-0.008v-0.403c-0.274-0.188-0.612-0.301-0.977-0.301-0.020 0-0.039 0-0.059 0.001l0.003-0c-0.653 0-1.147 0.407-1.147 0.944v0.011c0 0.544 0.347 0.836 1.193 1.007 0.797 0.16 0.947 0.369 0.947 0.7v0.009c0 0.383-0.343 0.649-0.835 0.649-0.48 0-0.821-0.141-1.213-0.504l-0.028-0.025-0.007 0.007v0.416c0.377 0.283 0.765 0.412 1.232 0.412 0.696 0 1.181-0.403 1.181-0.979v-0.011c0-0.527-0.347-0.821-1.164-0.987zM14.821 13.501c-0.533 0-0.976 0.171-1.331 0.516-0.327 0.312-0.531 0.751-0.531 1.238 0 0.013 0 0.025 0 0.038l-0-0.002c0 0.48 0.147 0.889 0.439 1.229 0.348 0.401 0.824 0.603 1.427 0.603 0.319 0 0.605-0.060 0.863-0.18 0.128-0.059 0.245-0.16 0.352-0.244v-0.448c-0.323 0.364-0.72 0.547-1.192 0.547-0.44 0-0.804-0.141-1.093-0.423-0.267-0.257-0.432-0.617-0.432-1.016 0-0.013 0-0.026 0.001-0.039l-0 0.002c-0-0.011-0-0.024-0-0.036 0-0.535 0.295-1.001 0.732-1.244l0.007-0.004c0.235-0.133 0.489-0.199 0.765-0.199 0.252 0 0.483 0.051 0.693 0.152 0.2 0.096 0.373 0.236 0.52 0.419v-0.467c-0.104-0.087-0.22-0.191-0.347-0.253-0.246-0.12-0.536-0.191-0.842-0.191-0.010 0-0.021 0-0.031 0l0.002-0zM23.624 14.451l0.48 1.236-0.099-0.004c-0.092-0.003-0.201-0.005-0.31-0.005-0.196 0-0.39 0.006-0.583 0.017l0.027-0.001zM24.828 15.731l-0.86-2.24h-0.699l-0.853 2.287c-0.84 0.156-1.383 0.523-1.115 1.248 0.371 1.011 2.056 1.616 2.056 1.616s-1.671-1.077-0.805-1.776c0.387-0.312 1.071-0.547 1.72-0.715l0.373 0.967h0.715l-0.428-1.116c0.548-0.112 0.961-0.165 0.961-0.165s-0.487-0.060-1.067-0.107zM29.587 13.492h-0.689v3.619h2.063v-0.657h-1.373v-2.96zM26.793 13.493h-0.689v3.619h2.063v-0.657h-1.373v-2.961zM11.637 17.129h0.341v-3.64h-0.341v3.64zM10.291 16.285l-2.427-2.793h-0.080v3.645h0.377v-2.76l2.407 2.76h0.081v-3.645h-0.36v2.793zM6.309 16.051c-0.127 0.225-0.304 0.401-0.531 0.531s-0.473 0.193-0.739 0.193c-0.4 0-0.74-0.14-1.023-0.421-0.262-0.255-0.424-0.61-0.424-1.004 0-0.010 0-0.021 0-0.031l-0 0.002c0-0.275 0.063-0.525 0.191-0.749s0.31-0.405 0.526-0.531l0.007-0.004c0.227-0.133 0.468-0.199 0.723-0.199 0.259 0 0.503 0.067 0.733 0.199 0.437 0.248 0.727 0.711 0.727 1.241 0 0.009-0 0.018-0 0.027l0-0.001c0 0.275-0.064 0.524-0.191 0.748zM5.024 13.504c-0.32 0-0.619 0.080-0.893 0.24-0.276 0.159-0.493 0.379-0.653 0.66s-0.24 0.587-0.24 0.917c0 0.495 0.176 0.916 0.527 1.265 0.349 0.347 0.779 0.523 1.288 0.523 0.503 0 0.929-0.176 1.279-0.525 0.349-0.351 0.524-0.776 0.524-1.28 0-0.507-0.175-0.933-0.525-1.28-0.322-0.322-0.767-0.521-1.258-0.521-0.016 0-0.033 0-0.049 0.001l0.002-0z"></path>
</svg>
