<!-- Generated by IcoMoon.io -->
<svg version="1.1" xmlns="http://www.w3.org/2000/svg" width="32" height="32" viewBox="0 0 32 32">
<title>sonos</title>
<path d="M17.317 16.48l-3.751-3.512v5.905h1.116v-3.273l3.751 3.511v-5.904h-1.116zM8.619 12.887c-0.014-0-0.030-0-0.046-0-1.694 0-3.067 1.373-3.067 3.067 0 0.017 0 0.033 0 0.050l-0-0.002c0 1.676 1.436 3.112 3.112 3.112 0.014 0 0.030 0 0.046 0 1.694 0 3.067-1.373 3.067-3.067 0-0.016-0-0.032-0-0.048l0 0.002c0-0.014 0-0.030 0-0.046 0-1.694-1.373-3.067-3.067-3.067-0.016 0-0.032 0-0.048 0l0.002-0zM8.619 17.995c-0.006 0-0.012 0-0.019 0-1.091 0-1.976-0.885-1.976-1.976 0-0.007 0-0.013 0-0.020v0.001c0-1.117 0.877-1.995 1.995-1.995s1.995 0.877 1.995 1.995-0.877 1.995-1.995 1.995zM3.592 16c-0.32-0.24-0.72-0.4-1.277-0.559-1.117-0.32-1.117-0.639-1.117-0.797 0-0.32 0.399-0.64 0.957-0.64 0.48 0 0.877 0.24 1.037 0.32l0.080 0.080 0.877-0.639-0.080-0.080c0 0-0.717-0.797-1.915-0.797-0.559 0-1.117 0.16-1.516 0.479-0.4 0.32-0.639 0.797-0.639 1.277s0.24 0.957 0.639 1.276c0.32 0.24 0.717 0.4 1.276 0.56 1.117 0.319 1.117 0.637 1.117 0.797 0 0.319-0.399 0.637-0.957 0.637-0.479 0-0.877-0.24-1.037-0.319l-0.080-0.080-0.877 0.639 0.080 0.080c0 0 0.717 0.797 1.915 0.797 0.56 0 1.117-0.16 1.516-0.479 0.4-0.32 0.64-0.797 0.64-1.276 0-0.48-0.24-0.879-0.64-1.277zM23.381 12.888c-0.014-0-0.030-0-0.046-0-1.694 0-3.067 1.373-3.067 3.067 0 0.016 0 0.032 0 0.048l-0-0.002c0.002 1.718 1.394 3.11 3.112 3.112h0c0.014 0 0.030 0 0.046 0 1.694 0 3.067-1.373 3.067-3.067 0-0.016-0-0.032-0-0.048l0 0.002c-0.002-1.718-1.394-3.11-3.112-3.112h-0zM23.381 17.995c-0.006 0-0.012 0-0.019 0-1.091 0-1.976-0.885-1.976-1.976 0-0.007 0-0.013 0-0.020v0.001c0-1.117 0.877-1.995 1.995-1.995s1.995 0.877 1.995 1.995-0.957 1.995-1.995 1.995zM28.408 15.92c0.32 0.24 0.72 0.4 1.277 0.56 1.117 0.319 1.117 0.637 1.117 0.797 0 0.319-0.399 0.637-0.957 0.637-0.48 0-0.877-0.24-1.037-0.319h-0.080l-0.877 0.639 0.080 0.080c0 0 0.717 0.797 1.915 0.797 0.559 0 1.117-0.16 1.516-0.479s0.639-0.797 0.639-1.277-0.24-0.957-0.639-1.276c-0.32-0.24-0.717-0.4-1.276-0.56-1.117-0.319-1.117-0.637-1.117-0.797 0-0.319 0.399-0.637 0.957-0.637 0.479 0 0.877 0.24 1.037 0.319l0.080 0.080 0.877-0.639-0.080-0.080c0 0-0.717-0.797-1.915-0.797-0.56 0-1.117 0.16-1.516 0.479-0.4 0.32-0.64 0.797-0.64 1.276-0.079 0.48 0.16 0.879 0.64 1.197z"></path>
</svg>
