<!-- Generated by IcoMoon.io -->
<svg version="1.1" xmlns="http://www.w3.org/2000/svg" width="32" height="32" viewBox="0 0 32 32">
<title>soundcloud</title>
<path fill="#f30" d="M1.567 16.3c-0.068 0-0.125 0.061-0.135 0.133l-0.311 2.872 0.311 2.807c0.009 0.077 0.067 0.131 0.135 0.131 0.067 0 0.12-0.053 0.132-0.131l0.34-2.807-0.36-2.872c0-0.076-0.060-0.133-0.12-0.133zM0.36 17.404c-0.080 0-0.121 0.049-0.139 0.125l-0.221 1.776 0.22 1.744c0 0.073 0.060 0.125 0.12 0.125s0.119-0.060 0.139-0.139l0.28-1.759-0.28-1.779c0-0.081-0.059-0.12-0.12-0.12zM2.799 15.74c-0.081 0-0.16 0.060-0.16 0.139l-0.28 3.417 0.3 3.277c0 0.080 0.060 0.16 0.159 0.16 0.081 0 0.14-0.081 0.161-0.16l0.339-3.299-0.339-3.397c-0.021-0.080-0.081-0.16-0.161-0.16zM4.077 15.599c-0.1 0-0.18 0.080-0.2 0.18l-0.257 3.52 0.28 3.392c0.021 0.103 0.1 0.184 0.199 0.184 0.1 0 0.18-0.081 0.2-0.2l0.32-3.376-0.32-3.497c0-0.1-0.080-0.18-0.18-0.18zM5.617 16.079c-0.007-0.12-0.1-0.199-0.212-0.199-0.12 0-0.211 0.080-0.219 0.199l-0.289 3.24 0.267 3.417c0 0.12 0.1 0.209 0.212 0.209 0.099 0 0.197-0.091 0.197-0.211l0.303-3.417-0.303-3.259zM6.696 13.8c-0.135 0-0.24 0.12-0.24 0.241l-0.28 5.276 0.249 3.417c0 0.12 0.107 0.219 0.24 0.219 0.125 0 0.232-0.12 0.24-0.24l0.279-3.417-0.279-5.296c-0.011-0.139-0.117-0.24-0.24-0.24zM7.944 12.541c-0.14 0-0.26 0.12-0.271 0.259l-0.24 6.496 0.22 3.397c0 0.16 0.12 0.279 0.26 0.279 0.139 0 0.259-0.119 0.28-0.279l0.257-3.397-0.256-6.475c-0.021-0.16-0.14-0.28-0.28-0.28zM9.233 11.943c-0.161 0-0.281 0.119-0.3 0.279l-0.22 7.033 0.22 3.36c0.019 0.159 0.139 0.3 0.3 0.3 0.159 0 0.3-0.14 0.3-0.3l0.26-3.36-0.261-7.033c0-0.16-0.14-0.3-0.3-0.3zM10.892 11.981c0-0.18-0.14-0.32-0.32-0.32-0.159 0-0.32 0.14-0.32 0.32l-0.199 7.255 0.199 3.337c0.021 0.18 0.161 0.32 0.341 0.32s0.32-0.14 0.32-0.32l0.219-3.337-0.219-7.275zM11.891 11.803c-0.18 0-0.34 0.159-0.34 0.339l-0.2 7.096 0.2 3.297c0 0.2 0.16 0.34 0.34 0.34s0.34-0.16 0.34-0.36l0.2-3.299-0.22-7.076c0-0.197-0.16-0.36-0.361-0.36zM13.189 12.001c-0.219 0-0.379 0.18-0.379 0.38l-0.137 6.857 0.18 3.299c0 0.199 0.159 0.369 0.379 0.369 0.199 0 0.361-0.16 0.379-0.38l0.161-3.257-0.18-6.816c-0.016-0.219-0.18-0.38-0.38-0.38zM14.791 10.813c-0.060-0.039-0.14-0.059-0.22-0.059s-0.159 0.020-0.22 0.059c-0.12 0.072-0.199 0.2-0.199 0.34v0.081l-0.139 8.064 0.153 3.265v0.011c0.011 0.080 0.040 0.18 0.099 0.24 0.077 0.081 0.189 0.139 0.312 0.139 0.107 0 0.211-0.059 0.279-0.12 0.077-0.080 0.121-0.18 0.121-0.3l0.020-0.32 0.156-2.937-0.18-8.115c0-0.139-0.081-0.257-0.18-0.319zM16.132 10.084c-0.060-0.060-0.12-0.081-0.2-0.081-0.099 0-0.199 0.021-0.279 0.081-0.1 0.081-0.159 0.2-0.159 0.32v0.039l-0.183 8.812 0.101 1.62 0.081 1.58c0 0.219 0.197 0.419 0.437 0.419 0.241 0 0.44-0.2 0.44-0.439l0.2-3.219-0.2-8.849c0-0.16-0.099-0.295-0.22-0.369zM28.064 15.033c-0.54 0-1.060 0.115-1.519 0.309-0.32-3.539-3.28-6.315-6.917-6.315-0.879 0-1.74 0.18-2.519 0.479-0.3 0.12-0.36 0.24-0.38 0.479v12.491c0.021 0.24 0.2 0.44 0.44 0.46h10.913c2.159 0.021 3.917-1.717 3.917-3.896s-1.759-3.936-3.917-3.936z"></path>
</svg>
