<!-- Generated by IcoMoon.io -->
<svg version="1.1" xmlns="http://www.w3.org/2000/svg" width="32" height="32" viewBox="0 0 32 32">
<title>sourceengine</title>
<path fill="#f79a10" d="M26.487 0.957h-0.347l-15.953 0.091c-3.295-0.169-6.54 0.637-9.347 2.252l0.003 0.003c-0.505 0.28-0.841 0.809-0.841 1.417 0 0.891 0.721 1.613 1.612 1.615h0c0.467 0 0.883-0.197 1.177-0.511 1.888-1.037 4.138-1.648 6.529-1.648 1.885 0 3.682 0.379 5.319 1.065l-0.091-0.034c7.033 2.887 10.407 10.96 7.52 17.993-0.788 1.891-1.915 3.497-3.319 4.81l-0.008 0.007 0.013 0.017c-0.486 0.284-0.808 0.803-0.808 1.398 0 0.891 0.722 1.613 1.613 1.613 0.574 0 1.078-0.3 1.364-0.751l0.004-0.007c1.718-1.618 3.092-3.581 4.012-5.781l0.041-0.111c0.065-0.157 6.603-16.081 6.619-16.124 0.252-0.597 0.398-1.291 0.398-2.019 0-2.211-1.348-4.107-3.267-4.911l-0.035-0.013c-0.733-0.301-1.419-0.371-2.209-0.373zM8.089 9.137c-3.513 0-7.123 1.076-7.123 5.255 0 2.88 2.595 3.799 5.191 4.369 3.229 0.696 5.097 1.171 5.097 2.532 0 1.584-1.647 2.091-2.944 2.091-1.773 0-3.419-0.792-3.451-2.755h-4.273c0.191 4.336 3.893 5.76 7.693 5.76 3.735 0 7.471-1.392 7.471-5.697 0-3.040-2.564-3.989-5.192-4.591-2.564-0.601-5.097-0.823-5.097-2.437 0-1.329 1.488-1.52 2.503-1.52 1.613 0 2.943 0.476 3.069 2.216h4.273c-0.347-4.020-3.64-5.223-7.217-5.223z"></path>
</svg>
