<!-- Generated by IcoMoon.io -->
<svg version="1.1" xmlns="http://www.w3.org/2000/svg" width="32" height="32" viewBox="0 0 32 32">
<title>sourceforge</title>
<path fill="#535353" d="M3.24 15.148c0-0.496 0.404-0.94 0.9-0.94h9.291c0.361-0.004 0.648-0.292 0.648-0.651v-1.94c0-0.36-0.292-0.649-0.651-0.649h-10.188c-1.789 0.001-3.24 1.451-3.24 3.237v3.593c0 1.789 1.448 3.241 3.235 3.241h6.695c0.496 0 0.901 0.441 0.901 0.941v1.709c0 0.495-0.405 0.943-0.901 0.943h-9.281c-0.361 0-0.647 0.289-0.647 0.648v1.937c0 0.357 0.288 0.648 0.647 0.648h10.192c1.787 0 3.235-1.449 3.235-3.236v-3.596c0-1.787-1.448-3.237-3.236-3.237h-6.7c-0.496 0-0.9-0.445-0.9-0.939zM31.357 10.975h-6.699v-3.608h6.693c0.355 0 0.644-0.289 0.644-0.648v-1.939c0-0.361-0.287-0.648-0.645-0.648h-6.692c-1.787 0-3.236 1.449-3.236 3.236v3.608h-3.103c-0.36 0-0.645 0.291-0.645 0.647v1.945c0 0.357 0.288 0.645 0.644 0.645h3.1v10.604c0 0.32 0.132 0.379 0.404 0.379 0.651 0 2.832-1.213 2.832-2.251v-8.735h6.699c0.355 0 0.645-0.291 0.645-0.645v-1.947c0-0.355-0.292-0.644-0.645-0.644z"></path>
</svg>
