<!-- Generated by IcoMoon.io -->
<svg version="1.1" xmlns="http://www.w3.org/2000/svg" width="32" height="32" viewBox="0 0 32 32">
<title>sourcegraph</title>
<path fill="#00b4f2" d="M12.455 0.003c-0.235 0.011-0.456 0.044-0.669 0.097l0.023-0.005c-1.808 0.411-2.876 2.219-2.467 4.028l1.873 6.731-6.725-2.207c-1.727-0.576-3.617 0.411-4.193 2.137-0.575 1.727 0.413 3.619 2.137 4.195l7.804 2.559-5.417 6.075c-0.504 0.597-0.814 1.372-0.824 2.219l-0 0.002c0.006 1.814 1.475 3.283 3.289 3.288h0c0.904 0 1.809-0.411 2.467-1.151l4.751-5.305 1.911 6.868c0.393 1.429 1.679 2.462 3.206 2.467h0.002c0.247 0 0.575-0.081 0.823-0.164 1.41-0.417 2.422-1.7 2.422-3.22 0-0.317-0.044-0.624-0.126-0.915l0.006 0.024-1.84-6.689 6.609 2.167c0.412 0.083 0.741 0.164 1.069 0.164 1.481 0 2.715-0.904 3.124-2.301 0.577-1.728-0.411-3.619-2.137-4.195l-7.637-2.504 5.417-6.049c1.233-1.397 1.151-3.453-0.247-4.685-1.399-1.235-3.453-1.152-4.688 0.245l-4.761 5.341-1.899-6.904c-0.432-1.44-1.808-2.375-3.303-2.311z"></path>
</svg>
