<!-- Generated by IcoMoon.io -->
<svg version="1.1" xmlns="http://www.w3.org/2000/svg" width="32" height="32" viewBox="0 0 32 32">
<title>spacex</title>
<path fill="#005288" d="M31.936 9.287c-0.007-0.003-0.012-0.008-0.019-0.008-0.012 0-0.021 0.008-0.031 0.012-20.171 2.031-29.652 10.803-31.887 12.96l0.297 0.467h3.525c9.163-9.211 21.541-12.268 28.087-13.275l0.008 0.003c0.005 0 0.008-0.005 0.013-0.005 0.039-0.008 0.069-0.037 0.069-0.079 0-0.039-0.028-0.065-0.064-0.075zM0.507 14.011l-0.213 0.403 4.327 3.155c0.661-0.398 1.54-0.874 2.436-1.32l0.246-0.111-2.903-2.127zM10.123 18.2c-0.715 0.527-1.445 1.091-2.232 1.751l3.803 2.771h3.943l0.164-0.364z"></path>
</svg>
