<!-- Generated by IcoMoon.io -->
<svg version="1.1" xmlns="http://www.w3.org/2000/svg" width="32" height="32" viewBox="0 0 32 32">
<title>spacemacs</title>
<path fill="#9266cc" d="M15.996 0.015c-2.387 0.020-4.603 0.529-6.624 1.457l0.007-0.003c4.851 2.701 9.273 7.512 11.909 10.988 0.531 0.712 1.004 1.341 1.437 1.912l0.005-0.025c0.549-2.317-0.417-6.985-2.024-9.775-0.156-0.271-0.268-0.505-0.249-0.523l0.008 0.003 0.003-0.009c0.131 0.032 1.375 1.327 1.831 1.911 0.799 1.023 1.109 1.617 1.549 2.973 1.144 3.527 1.899 6.401 2.535 9.665 0.319 1.637 0.9 4.611 0.975 5.179 0.009 0.076-0.012 0.171-0.013 0.191-0.121-0.119-0.247-0.233-0.377-0.344l-0.010-0.008c-0.86-0.757-2.565-1.889-4.244-2.819-2.093-1.16-4.157-2.152-8.767-4.216-4.208-1.884-6.147-2.781-7.668-3.548l-1.365-0.68c0.16 0.401 0.332 0.832 0.532 1.34 0 0 2.577 1.44 2.899 1.877 0 0 3.096 5.823 4.471 9.273 1.023 2.599 2.179 5.685 2.873 6.539l0.080 0.092c-1.368-0.335-7.66-3.464-7.66-3.464-0.691-5.865-2.625-12.813-5.14-19.92-0.033-0.061-0.089-0.18-0.142-0.3l-0.025-0.062c0.001-0.020 0.188 0.161 0.415 0.404 2.535 2.716 7.941 5.183 13.684 6.243 1.122 0.203 2.413 0.319 3.732 0.319 0.344 0 0.687-0.008 1.027-0.024l-0.048 0.002c-0.409-0.523-0.853-1.095-1.345-1.736-4.557-5.94-9.032-8.435-13.040-9.959-0.105-0.037-0.205-0.081-0.308-0.117-2.769 1.917-4.87 4.626-5.991 7.798l-0.034 0.111c-0.566 1.569-0.894 3.379-0.894 5.265 0 0.031 0 0.063 0 0.094l-0-0.005 0.004-0.117c0.044 6.691 4.172 12.821 10.736 15.107 1.78 0.62 3.595 0.907 5.376 0.893l-0.117-0.004c6.691-0.044 12.821-4.172 15.107-10.736 0.62-1.78 0.907-3.595 0.893-5.376l-0.004 0.117c-0.044-6.691-4.172-12.821-10.736-15.107-1.568-0.566-3.378-0.894-5.265-0.894-0.039 0-0.078 0-0.117 0l0.006-0zM24.173 8.161l-0.003 0.009c-0.001 0 0 0 0 0l0.003-0.009c0.708 0.681 1.835 2.004 3.115 2.749 1.052 1.32 1.621 2.617 2.331 3.505-0.292-0.251-1.481-1.296-1.481-1.296s-1.837-1.74-2.855-2.871c-0.391-0.435-0.427-0.507-0.637-0.837-0.083-0.129-0.367-1.1-0.472-1.247h-0.001z"></path>
</svg>
