<!-- Generated by IcoMoon.io -->
<svg version="1.1" xmlns="http://www.w3.org/2000/svg" width="32" height="32" viewBox="0 0 32 32">
<title>sparkfun</title>
<path fill="#e53525" d="M23.74 5.136c0 0 0.453 1.921-0.995 2.187-1.005 0.177-2.631-0.823-3.448-1.817-1.011-1.229-0.88-2.199-0.1-3.053 1.177-1.307 3.199-0.8 3.199-0.8s-3.699-3.24-7.547-0.584c-3.427 2.36-2.443 5.573 0.651 8.38 2.787 2.536 0.563 5.317-2.251 4.959-1.92-0.245-2.707-1.792-2.249-2.74 0.4-0.813 1.781-1.312 1.781-1.312s-1.588-0.64-3.453 0.061c-1.683 0.631-3.063 2.016-2.953 5.496v16.104c0 0 1.735-2.136 3.776-4.313 2.281-2.453 3.323-4.109 5.667-3.916 4.437 0.276 7.647-1.699 9.828-4.86 4.188-6.083 0.907-12.88-1.905-13.791z"></path>
</svg>
