<!-- Generated by IcoMoon.io -->
<svg version="1.1" xmlns="http://www.w3.org/2000/svg" width="32" height="32" viewBox="0 0 32 32">
<title>speakerdeck</title>
<path fill="#396" d="M14.933 18.131l0.027-4.261-3.56 2.147zM17.064 13.871l-0.020 4.253 3.556-2.144zM17.044 18.131v-0.005l-0.005 0.003zM31.996 6.12c0-1.171-0.953-2.12-2.129-2.12h-27.733c-1.177 0-2.133 0.951-2.133 2.12v19.76c0 1.171 0.953 2.12 2.133 2.12h27.733c1.177 0 2.133-0.951 2.133-2.12v-19.76zM23.417 18.84h-0.019c0 0.781-0.621 1.403-1.4 1.42l0.048-0.021h-12.093c-0.773-0.013-1.4-0.64-1.4-1.413h-0.007v-5.652h0.013c0-0.773 0.617-1.4 1.377-1.413h12.080c0.76 0.023 1.4 0.64 1.4 1.423z"></path>
</svg>
