<!-- Generated by IcoMoon.io -->
<svg version="1.1" xmlns="http://www.w3.org/2000/svg" width="32" height="32" viewBox="0 0 32 32">
<title>spotlight</title>
<path fill="#352a71" d="M20.168 8.544c0.011 0.135 0.011 0.259 0 0.393-0.045 0.785-0.393 1.369-0.875 1.851-0.501 0.497-1.19 0.805-1.951 0.808h-0.001c-0.022 0.001-0.047 0.001-0.072 0.001-0.746 0-1.424-0.291-1.926-0.765l0.001 0.001c-0.561-0.519-0.911-1.26-0.911-2.082 0-0.738 0.282-1.411 0.745-1.915l-0.002 0.002 0.135-0.135c0.471-0.46 1.009-0.729 1.829-0.808 0.060-0.005 0.129-0.007 0.199-0.007 0.738 0 1.41 0.284 1.912 0.749l-0.002-0.002c0.528 0.493 0.853 1.179 0.919 1.908zM31.455 18.261l-0.841 1.627c-0.232 0.442-0.405 0.955-0.49 1.497l-0.004 0.028-0.28 1.817c-0.251 1.617-1.259 2.954-2.643 3.656l-0.028 0.013-1.639 0.819c-0.483 0.247-0.92 0.561-1.301 0.943l-1.291 1.313c-0.896 0.907-2.139 1.469-3.514 1.469-0.285 0-0.564-0.024-0.835-0.070l0.029 0.004-1.807-0.303c-0.241-0.043-0.519-0.067-0.802-0.067s-0.561 0.024-0.831 0.071l0.029-0.004-1.807 0.303c-0.241 0.042-0.519 0.066-0.803 0.066-1.376 0-2.62-0.561-3.517-1.468l-0-0-1.291-1.313c-0.37-0.375-0.8-0.69-1.273-0.93l-0.028-0.013-1.639-0.819c-1.41-0.718-2.416-2.054-2.667-3.641l-0.004-0.028-0.28-1.817c-0.084-0.57-0.257-1.084-0.506-1.551l0.013 0.026-0.853-1.627c-0.35-0.658-0.555-1.438-0.555-2.267s0.205-1.609 0.568-2.293l-0.013 0.027 0.841-1.627c0.232-0.442 0.405-0.955 0.49-1.497l0.004-0.028 0.28-1.817c0.251-1.617 1.259-2.954 2.643-3.656l0.028-0.013 1.639-0.819c0.483-0.247 0.92-0.561 1.301-0.943l1.291-1.301c0.896-0.907 2.139-1.469 3.514-1.469 0.285 0 0.564 0.024 0.835 0.070l-0.029-0.004 1.807 0.303c0.528 0.089 1.077 0.089 1.604 0l1.807-0.303c0.241-0.042 0.519-0.066 0.803-0.066 1.376 0 2.62 0.561 3.517 1.468l0 0 1.291 1.301c0.381 0.381 0.819 0.707 1.301 0.943l1.639 0.819c1.41 0.718 2.416 2.054 2.667 3.641l0.004 0.028 0.28 1.817c0.079 0.539 0.247 1.055 0.493 1.525l0.841 1.627c0.351 0.661 0.557 1.446 0.557 2.278 0 0.823-0.202 1.6-0.558 2.282l0.013-0.027zM21.739 8.488c-0.025-0.636-0.192-1.227-0.471-1.75l0.011 0.022c-0.765-1.463-2.271-2.444-4.007-2.444-0.102 0-0.204 0.003-0.304 0.010l0.014-0.001c-0.18 0.023-0.336 0.033-0.493 0.056-0.997 0.19-1.854 0.692-2.487 1.398l-0.004 0.004c-0.703 0.769-1.134 1.796-1.134 2.925 0 0.116 0.005 0.23 0.013 0.343l-0.001-0.015c0.101 1.235 0.651 2.289 1.448 2.973 0.584 0.505 1.324 0.953 2.255 1.088 1.784 0.269 3.153-0.437 4.039-1.403 0.701-0.765 1.131-1.79 1.131-2.915 0-0.103-0.004-0.206-0.011-0.307l0.001 0.014zM8.757 17.509c0.325-0.18 0.64-0.371 0.953-0.549-0.112-1.291-0.213-2.681-0.315-3.871 1.313-0.549 2.244-1.616 2.659-3.119 0.336-1.212 0.191-2.636-0.427-3.433-0.205-0.279-0.473-0.5-0.783-0.645l-0.013-0.005c-0.539-0.201-1.189-0.045-1.639 0.145-0.266 0.121-0.495 0.255-0.707 0.412l0.011-0.008c-0.427 0.303-0.819 0.64-1.179 1.032 0.381 3.321 0.763 6.811 1.133 10.209 0.101-0.045 0.201-0.101 0.305-0.168zM8.925 7.972c0.023-0.101 0.269-0.247 0.359-0.315 0.16-0.117 0.355-0.194 0.568-0.213l0.004-0c0.617-0.023 0.763 0.505 0.796 1.1 0.023 0.315 0.023 0.628 0 0.943-0.079 1.044-0.572 1.716-1.391 2.053-0.067-0.651-0.112-1.436-0.191-2.188-0.033-0.303-0.079-0.707-0.124-1.065-0.011-0.101-0.023-0.201-0.021-0.315zM7.411 16.343c-0.145-0.617-0.338-1.155-0.582-1.665l0.021 0.049c-0.227-0.478-0.399-1.033-0.489-1.615l-0.004-0.034c-0.089-0.796 0.067-1.492 0.572-1.863-0.191-0.617-0.348-1.223-0.539-1.829-1.1 0.584-1.863 1.639-1.863 3.209 0 0.965 0.359 1.593 0.707 2.289 0.236 0.46 0.437 0.931 0.595 1.425 0.157 0.528 0.303 1.111 0.259 1.66-0.089 1.055-0.528 1.795-1.1 2.424-0.056 0.067-0.247 0.224-0.247 0.269 0.033 0.079 0.067 0.145 0.112 0.213 0.224 0.471 0.427 0.875 0.651 1.335 0.033 0.067 0.067 0.201 0.112 0.224s0.135-0.089 0.191-0.157c0.191-0.201 0.371-0.415 0.539-0.64 0.931-1.291 1.492-3.299 1.067-5.295zM11.113 18.575c0.46-1.301 0.897-2.648 1.235-4.016 0.101-0.404 0.224-0.819 0.303-1.235 0.011-0.045 0.045-0.145 0-0.168-0.595 0.18-1.212 0.336-1.795 0.528-0.247 2.031-0.853 3.837-1.537 5.531s-1.525 3.253-2.401 4.745c1.077 1.167 2.445 2.053 3.949 2.793 0.269-0.449 0.561-0.887 0.819-1.347-0.92-0.561-1.873-1.1-2.659-1.795 0.647-1.303 1.351-2.966 1.97-4.67l0.117-0.367zM14.613 14.996c-0.381-0.259-0.853-0.449-1.268-0.673-0.831 3.187-1.941 6.125-3.007 9.111 0.371 0.201 0.729 0.427 1.111 0.628 0.719-1.391 1.156-2.884 1.728-4.399 0.28-0.74 0.516-1.504 0.752-2.277s0.471-1.581 0.684-2.389zM17.845 24.32v-1.324c0-0.303-0.011-0.64-0.023-1.167-0.796 0.101-1.604 0.168-2.389 0.28-0.033 0.437-0.033 0.897-0.056 1.357 0.348 0.023 0.897-0.045 1.245-0.045 0 0.651 0 1.212 0.011 1.761 0 0.213 0.033 0.427-0.023 0.605-0.079 0.269-0.359 0.437-0.719 0.404-0.415-0.045-0.74-0.471-0.92-0.819-0.617-1.212-0.415-3.209-0.168-4.555 0.168-0.969 0.509-1.833 0.993-2.599l-0.017 0.029c0.46-0.729 1.088-1.335 1.985-1.593 0-0.371-0.023-0.875-0.045-1.291-0.011-0.191 0-0.427-0.045-0.528-0.011-0.011-0.033 0.011-0.045 0.011-0.578 0.206-1.077 0.496-1.512 0.86l0.008-0.006c-0.656 0.516-1.2 1.142-1.61 1.854l-0.016 0.031c-0.123 0.213-0.251 0.471-0.363 0.737l-0.018 0.048c-0.483 1.077-0.707 2.323-0.841 3.703-0.101 1.055-0.112 2.020 0.045 2.973 0.056 0.303 0.145 0.605 0.259 0.897 0.393 1.032 1.156 1.896 2.704 1.683 0.595-0.079 1.077-0.315 1.581-0.528 0-0.987-0.023-2.020-0.020-2.78zM22.591 18.351c-0.071-0.644-0.123-1.426-0.145-2.215l-0.001-0.039c-0.033-1.044 0-2.053 0.056-3.096 0-0.011 0-0.011-0.011-0.011-0.404 0.315-0.864 0.64-1.301 0.953-0.067 0.041-0.123 0.094-0.167 0.156l-0.001 0.002c-0.005 0.040-0.008 0.087-0.008 0.135s0.003 0.094 0.009 0.14l-0.001-0.005c-0.011 1.504 0.079 3.096 0.112 4.443-0.371 0.157-0.74 0.359-1.111 0.505-0.115-1.070-0.239-2.641-0.333-4.22l-0.015-0.324c-0.493 0.168-0.943 0.371-1.425 0.549 0.101 0.74 0.201 1.448 0.269 2.132 0.124 1.088 0.18 2.176 0.191 3.265 0 0.315 0 0.628-0.023 0.943-0.045 0.661-0.033 1.335-0.079 1.997-0.101 1.279-0.089 2.648-0.089 3.86 0.259-0.112 0.505-0.259 0.763-0.381 0.259-0.112 0.505-0.247 0.752-0.393 0-0.483 0.023-0.864 0.033-1.279 0.045-1.581 0.089-2.905 0.033-4.308 0.427-0.201 0.853-0.404 1.301-0.595 0.303 1.807 0.909 3.388 1.459 5.004 0.46-0.348 0.853-0.763 1.291-1.144-0.245-0.624-0.525-1.476-0.767-2.343l-0.051-0.215c-0.339-1.016-0.6-2.207-0.734-3.436l-0.007-0.078zM26.035 13.301c0.259-0.101 0.493-0.259 0.74-0.381s0.483-0.259 0.719-0.404c-0.449-1.291-1.009-2.468-1.784-3.479-0.763-1.010-1.631-1.882-2.603-2.624l-0.033-0.024c0-0.023-0.033 0-0.033 0.011-0.228 0.282-0.453 0.597-0.66 0.924l-0.024 0.041c-0.045 0.079-0.201 0.28-0.191 0.359 0.067 0.089 0.145 0.168 0.236 0.236 0.089 0.089 0.18 0.157 0.247 0.224 0.404 0.415 0.74 0.785 1.111 1.235 0.056 0.067 0.191 0.213 0.191 0.28-0.024 0.136-0.059 0.256-0.106 0.371l0.004-0.012c-0.18 0.64-0.303 1.268-0.415 1.941-0.153 0.846-0.24 1.82-0.24 2.815 0 0.399 0.014 0.795 0.042 1.188l-0.003-0.053c0.101 1.403 0.371 2.671 0.673 3.904 0.145 0.605 0.325 1.212 0.549 1.795 0.168 0.437 0.336 0.875 0.528 1.268 0.067 0.135 0.101 0.292 0.213 0.393 0.381-0.493 0.785-0.965 1.156-1.459-0.561-0.999-0.943-2.221-1.235-3.489-0.102-0.381-0.185-0.839-0.233-1.307l-0.003-0.039c-0.168-1.829-0.236-3.815 0.259-5.543 0.393 0.572 0.696 1.189 0.895 1.831z"></path>
</svg>
