<!-- Generated by IcoMoon.io -->
<svg version="1.1" xmlns="http://www.w3.org/2000/svg" width="32" height="32" viewBox="0 0 32 32">
<title>sprint</title>
<path fill="#ffce0a" d="M2.84 31.993c7.324-2.411 17.943-8.027 25.328-13.043 0.62-0.419 1.103-0.809 1.103-1.491 0-1.185-2.207-2.773-3.277-3.407-5.812 5.941-17.377 14.845-23.155 17.94zM9.633 26.947c4.517-3.072 11.080-8.851 13.3-11.995 0.524-0.739 0.911-1.168 0.911-1.941 0-1.269-1.504-2.2-2.587-2.847-2.595 6.013-8.421 13.5-11.624 16.783zM13.088 22.243c3.125-3.956 5.584-8.605 5.584-11.944 0-1.744-1.271-2.963-2.928-3.888 0.032 3.628-1.245 12.135-2.656 15.832zM13.749 18.427c0.584-3.796 0.24-8.38-0.505-11.256-0.405-1.565-1.84-3.333-3.168-3.884 1.74 4.857 3.235 11.776 3.673 15.14zM12.463 13.1c-1.368-3.637-4.779-11.22-9.796-13.1 3.267 3.547 8.111 10.58 9.796 13.1z"></path>
</svg>
