<!-- Generated by IcoMoon.io -->
<svg version="1.1" xmlns="http://www.w3.org/2000/svg" width="32" height="32" viewBox="0 0 32 32">
<title>square</title>
<path d="M5.347 0c-2.953 0-5.347 2.394-5.347 5.347v0 21.307c0 2.947 2.4 5.333 5.347 5.347h21.307c2.947 0 5.347-2.4 5.347-5.347v-21.32c-0.008-2.947-2.398-5.333-5.347-5.333 0 0 0 0-0 0v0zM7.507 5.813h16.987c0.933 0 1.68 0.76 1.68 1.693v16.987c0 0.933-0.747 1.693-1.68 1.693h-16.987c-0.933 0-1.68-0.76-1.68-1.693v-16.987c0 0 0-0 0-0 0-0.931 0.751-1.686 1.679-1.693h0.001zM12.613 11.613c-0.538 0-0.973 0.436-0.973 0.973v0 6.787c0 0.533 0.427 0.96 0.96 0.96h6.8c0 0 0 0 0 0 0.533 0 0.966-0.428 0.973-0.959v-6.787c0-0.538-0.436-0.973-0.973-0.973v0z"></path>
</svg>
