<!-- Generated by IcoMoon.io -->
<svg version="1.1" xmlns="http://www.w3.org/2000/svg" width="32" height="32" viewBox="0 0 32 32">
<title>stackpath</title>
<path d="M4.96 9.787c-1.347 0-2.453 0.307-3.333 0.933-0.881 0.613-1.32 1.44-1.32 2.453 0 1.040 0.368 1.84 1.107 2.387 0.733 0.56 1.867 1.067 3.387 1.547 0.733 0.267 1.24 0.507 1.52 0.747 0.293 0.227 0.427 0.56 0.427 0.987 0 0.373-0.133 0.68-0.427 0.907-0.28 0.253-0.72 0.36-1.293 0.36-0.76 0-1.333-0.16-1.693-0.453-0.4-0.32-0.587-0.8-0.587-1.493h-2.729l-0.017 0.053c-0.027 1.293 0.461 2.28 1.467 2.973 1 0.693 2.187 1.027 3.56 1.027 1.36 0 2.453-0.293 3.28-0.88 0.827-0.613 1.253-1.453 1.253-2.507s-0.347-1.867-1.040-2.467c-0.707-0.6-1.733-1.107-3.107-1.507-0.893-0.333-1.493-0.6-1.827-0.813-0.32-0.213-0.48-0.493-0.48-0.84 0-0.373 0.16-0.68 0.48-0.92 0.32-0.28 0.76-0.387 1.333-0.387s1.027 0.16 1.347 0.453c0.333 0.32 0.493 0.693 0.493 1.173h2.72l0.013-0.040c0.040-1.080-0.387-1.973-1.24-2.667s-1.947-1.027-3.293-1.027zM11.333 9.867v12.24h2.867v-4.2h1.733c1.453 0 2.6-0.36 3.453-1.107 0.853-0.733 1.28-1.707 1.28-2.907 0-1.227-0.427-2.173-1.28-2.92s-2-1.107-3.453-1.107h-4.6zM24.147 9.867l-4.24 12.253h2.653l4.347-12.253h-2.76zM29.24 9.867l-4.24 12.253h2.653l4.347-12.253h-2.76zM14.2 12.053h1.733c0.613 0 1.093 0.173 1.4 0.52 0.333 0.347 0.493 0.76 0.493 1.333 0 0.533-0.16 0.973-0.493 1.307-0.307 0.347-0.787 0.507-1.4 0.507h-1.733z"></path>
</svg>
