<!-- Generated by IcoMoon.io -->
<svg version="1.1" xmlns="http://www.w3.org/2000/svg" width="32" height="32" viewBox="0 0 32 32">
<title>stackbit</title>
<path fill="#3eb0fd" d="M28.419 17.969l-12.284 6.84-12.528-6.84c-0.135-0.076-0.296-0.12-0.468-0.12-0.368 0-0.689 0.205-0.854 0.507l-0.003 0.005c-0.075 0.135-0.12 0.296-0.12 0.468 0 0.368 0.205 0.689 0.507 0.854l0.005 0.003 12.995 7.111c0.293 0.171 0.663 0.171 0.956 0l12.749-7.111c0.297-0.169 0.495-0.484 0.495-0.845 0-0.176-0.047-0.341-0.129-0.484l0.003 0.005c-0.163-0.31-0.482-0.517-0.85-0.517-0.174 0-0.338 0.047-0.478 0.128l0.005-0.002zM5.127 13.433l11.008-6.227 12.26 7.085c0.14 0.079 0.308 0.126 0.486 0.126 0.366 0 0.685-0.197 0.859-0.49l0.003-0.005c0.080-0.14 0.127-0.308 0.127-0.487 0-0.366-0.197-0.686-0.49-0.86l-0.005-0.003-12.748-7.355c-0.141-0.081-0.31-0.128-0.49-0.128s-0.349 0.048-0.495 0.131l0.005-0.003-12.996 7.353c-0.663 0.368-0.663 1.324 0 1.717l12.995 7.355c0.14 0.080 0.308 0.127 0.487 0.127 0.366 0 0.685-0.197 0.859-0.49l0.003-0.005c0.079-0.14 0.126-0.308 0.126-0.486 0-0.366-0.197-0.685-0.49-0.859l-0.005-0.003zM0.076 18.583v-4.904c-0.008-0.084-0.013-0.182-0.013-0.281 0-1.13 0.623-2.115 1.543-2.629l0.015-0.008 12.993-7.356c0.43-0.252 0.947-0.401 1.498-0.401 0.569 0 1.101 0.159 1.555 0.434l-0.013-0.007 12.749 7.355c0.921 0.539 1.53 1.524 1.53 2.651 0 0.085-0.003 0.17-0.010 0.254l0.001-0.011v4.904c0.006 0.074 0.010 0.159 0.010 0.246 0 1.144-0.63 2.142-1.563 2.664l-0.015 0.008-12.749 7.109c-0.427 0.243-0.939 0.386-1.483 0.386s-1.056-0.143-1.498-0.394l0.015 0.008-12.995-7.109c-1.080-0.589-1.643-1.741-1.569-2.916z"></path>
</svg>
