<!-- Generated by IcoMoon.io -->
<svg version="1.1" xmlns="http://www.w3.org/2000/svg" width="32" height="32" viewBox="0 0 32 32">
<title>stadia</title>
<path fill="#cd2640" d="M0.269 11.557c-0.163 0.117-0.268 0.306-0.269 0.52v0.008c0 0.085 0.019 0.171 0.053 0.253l3.064 6.939c0.136 0.307 0.485 0.457 0.803 0.345 2.005-0.715 8.951-2.977 13.444-1.757 0 0-4.508 0.261-8.584 3.457-0.149 0.118-0.244 0.299-0.244 0.503 0 0.094 0.020 0.183 0.056 0.263l-0.002-0.004 1.372 3.101 0.528 1.239c0.125 0.293 0.527 0.329 0.704 0.063 0.951-1.432 2.555-2.148 4.096-2.773 1.406-0.592 3.053-1.078 4.764-1.379l0.141-0.021c1.076-0.193 2.316-0.303 3.58-0.303 0.65 0 1.293 0.029 1.928 0.086l-0.082-0.006c0.018 0.002 0.038 0.003 0.059 0.003 0.286 0 0.528-0.187 0.611-0.445l0.001-0.005 1.384-4.423c0.018-0.057 0.029-0.122 0.029-0.19 0-0.212-0.103-0.4-0.262-0.516l-0.002-0.001c-1.544-1.117-7.655-4.872-18.403-3.364 0 0 9.171-5.268 20.813 0.52 0.083 0.042 0.181 0.067 0.285 0.067 0.286 0 0.529-0.187 0.611-0.446l0.001-0.005 1.22-3.9c0.018-0.054 0.028-0.117 0.029-0.182v-0.019c-0.004-0.233-0.132-0.436-0.321-0.545l-0.003-0.002c-1.463-0.827-6.409-3.304-13.215-3.304-5.216 0-11.524 1.453-18.192 6.224z"></path>
</svg>
