<!-- Generated by IcoMoon.io -->
<svg version="1.1" xmlns="http://www.w3.org/2000/svg" width="32" height="32" viewBox="0 0 32 32">
<title>statamic</title>
<path d="M4.172 23.921c-0.040-0.284-0.028-0.951-0.028-0.951h-0.384c-0.883 0-1.229-0.356-1.229-1.24v-3.513c0-1.587-0.371-1.975-1.113-2.219v-0.081c0.743-0.244 1.113-0.648 1.113-2.235v-3.499c0-0.884 0.347-1.16 1.227-1.16h0.38c0 0 0.019-0.609 0.060-0.965-0.18-0.024-0.88-0.040-0.88-0.040-1.779 0-2.279 0.861-2.279 2.639v3.188c0 1.304-0.759 1.479-1.039 1.479v1.267c0.28 0 1.020 0.176 1.020 1.459v3.208c0 1.779 0.499 2.619 2.279 2.619 0 0 0.699 0.061 0.84 0.061zM3.091 16.787c0.651 0 1.579 0.224 1.579 1.864v4.084c0 2.264 0.544 3.399 2.809 3.399h1.020v-1.211h-0.52c-1.12 0-1.539-0.465-1.539-1.585v-4.479c0-2.020-0.639-2.513-1.759-2.827v-0.091c1.12-0.315 1.78-0.831 1.78-2.851v-4.469c0-1.119 0.419-1.453 1.539-1.453h0.519v-1.299h-1c-2.257 0-2.797 1.099-2.797 3.357v4.077c0 1.659-0.919 1.9-1.58 1.9v1.597zM18.407 21.984c0.619-0.175 1.139-0.425 1.568-0.753 0.427-0.327 0.76-0.731 1-1.203 0.235-0.473 0.355-0.999 0.355-1.58 0-0.505-0.088-0.94-0.264-1.299-0.176-0.361-0.46-0.675-0.848-0.949-0.391-0.275-0.887-0.521-1.491-0.735-0.603-0.213-1.332-0.427-2.189-0.639-0.919-0.233-1.555-0.44-1.912-0.62-0.361-0.187-0.54-0.483-0.54-0.896 0-0.472 0.188-0.819 0.564-1.029 0.373-0.221 0.836-0.32 1.388-0.32 0.593 0 1.191 0.080 1.787 0.28 0.595 0.179 1.229 0.499 1.901 0.919l1.26-1.9c-0.735-0.459-1.527-0.82-2.372-1.099-0.84-0.279-1.697-0.4-2.539-0.4-0.68 0-1.317 0.080-1.899 0.259-0.58 0.181-1.099 0.44-1.539 0.781-0.443 0.339-0.78 0.759-1.021 1.239-0.239 0.479-0.36 1.040-0.36 1.639 0 0.459 0.080 0.839 0.241 1.18 0.159 0.339 0.399 0.62 0.739 0.879s0.78 0.479 1.34 0.679 1.219 0.401 1.999 0.581c1.037 0.24 1.759 0.46 2.197 0.68 0.44 0.199 0.66 0.52 0.66 0.94 0 0.419-0.18 0.757-0.54 0.977s-0.879 0.34-1.519 0.34c-1.419 0-2.899-0.5-4.417-1.5l-1.3 2.159c0.361 0.241 0.76 0.461 1.22 0.66 0.46 0.2 0.939 0.361 1.439 0.5 0.5 0.14 1.020 0.241 1.56 0.32 0.539 0.080 1.039 0.099 1.519 0.099 0.759 0 1.44-0.099 2.059-0.279zM28.355 9.024c0.88 0 1.137 0.276 1.137 1.16v3.497c0 1.584 0.279 1.991 1.393 2.239v0.069c-1.115 0.247-1.393 0.635-1.393 2.217v3.524c0 0.879-0.256 1.239-1.137 1.239h-0.385c0 0-0.004 0.665-0.041 0.947 0.155 0 0.767-0.020 0.767-0.020 1.78 0 2.191-0.863 2.191-2.641v-3.197c0-1.287 0.747-1.46 1.116-1.46v-1.277c-0.369 0-1.116-0.177-1.116-1.479v-3.184c0-1.779-0.411-2.641-2.191-2.641 0 0-0.627 0.020-0.811 0.043 0.039 0.356 0.079 0.968 0.079 0.968h0.38zM27.259 22.732v-4.084c0-1.639 0.929-1.863 1.58-1.863v-1.613c-0.649 0-1.58-0.224-1.58-1.884v-4.064c0-2.263-0.359-3.357-2.625-3.357h-1.093v1.3h0.599c1.12 0 1.448 0.333 1.448 1.455v4.465c0 2.019 0.559 2.533 1.679 2.848v0.089c-1.12 0.313-1.659 0.807-1.659 2.825v4.485c0 1.124-0.32 1.588-1.439 1.588h-0.599v1.211h1.099c2.277 0 2.637-1.137 2.637-3.403z"></path>
</svg>
