<!-- Generated by IcoMoon.io -->
<svg version="1.1" xmlns="http://www.w3.org/2000/svg" width="32" height="32" viewBox="0 0 32 32">
<title>statuspage</title>
<path d="M16.011 12.796c0.030-0 0.065-0.001 0.1-0.001 4.141 0 7.497 3.357 7.497 7.497s-3.357 7.497-7.497 7.497c-0.035 0-0.070-0-0.105-0.001l0.005 0c-4.097-0.056-7.397-3.391-7.397-7.497s3.3-7.44 7.392-7.497l0.005-0zM0.205 11.623l4.027 4.765c0.157 0.187 0.391 0.305 0.653 0.305 0.217 0 0.415-0.081 0.565-0.215l-0.001 0.001c6.513-5.839 14.627-5.839 21.12 0 0.15 0.133 0.349 0.214 0.566 0.214 0.262 0 0.497-0.118 0.654-0.304l0.001-0.001 4.008-4.765c0.125-0.149 0.201-0.342 0.201-0.553 0-0.261-0.116-0.496-0.3-0.654l-0.001-0.001c-9.467-8.272-21.949-8.272-31.407 0-0.179 0.159-0.292 0.391-0.292 0.648 0 0.214 0.077 0.41 0.206 0.561l-0.001-0.001z"></path>
</svg>
