<!-- Generated by IcoMoon.io -->
<svg version="1.1" xmlns="http://www.w3.org/2000/svg" width="32" height="32" viewBox="0 0 32 32">
<title>steamworks</title>
<path d="M29.237 12.653v2.761h-2.004v2.004h2.004v-2h2.763v-2.765zM21.351 13.317v1.433h1.433v-1.433zM24.452 16.747c-0.195 0.002-0.373 0.075-0.51 0.193l0.001-0.001c-0.128 0.121-0.207 0.292-0.207 0.481 0 0.010 0 0.020 0.001 0.031l-0-0.001c-0.001 0.010-0.001 0.021-0.001 0.032 0 0.172 0.075 0.327 0.194 0.434l0.001 0c0.12 0.1 0.271 0.167 0.436 0.186l0.004 0 0.137 0.020 0.149 0.027c0.083 0.012 0.157 0.029 0.227 0.052l-0.010-0.003c0.052 0.023 0.097 0.052 0.136 0.087l-0-0c0.083 0.082 0.135 0.196 0.135 0.322 0 0.012-0 0.024-0.001 0.036l0-0.002c0 0.007 0.001 0.016 0.001 0.025 0 0.145-0.066 0.275-0.169 0.361l-0.001 0.001c-0.116 0.088-0.264 0.141-0.423 0.141-0.014 0-0.028-0-0.041-0.001l0.002 0c-0.007 0-0.015 0-0.024 0-0.128 0-0.251-0.025-0.363-0.069l0.007 0.002c-0.125-0.058-0.232-0.137-0.319-0.233l-0.001-0.001-0.131 0.136c0.099 0.108 0.219 0.195 0.353 0.255l0.007 0.003c0.125 0.051 0.271 0.081 0.424 0.081 0.012 0 0.024-0 0.035-0.001l-0.002 0c0.014 0.001 0.031 0.001 0.047 0.001 0.212 0 0.407-0.073 0.561-0.195l-0.002 0.001c0.143-0.125 0.233-0.308 0.233-0.512 0-0.003-0-0.006-0-0.009v0c-0-0.1-0.021-0.196-0.059-0.282l0.002 0.005c-0.037-0.085-0.091-0.157-0.159-0.213l-0.001-0.001c-0.049-0.043-0.107-0.079-0.169-0.105l-0.004-0.002c-0.078-0.030-0.168-0.052-0.262-0.062l-0.005-0-0.149-0.027-0.117-0.017c-0.077-0.015-0.145-0.036-0.21-0.063l0.007 0.003c-0.063-0.025-0.117-0.058-0.165-0.097l0.001 0.001c-0.079-0.078-0.128-0.186-0.128-0.306 0-0.010 0-0.019 0.001-0.029l-0 0.001c-0-0.006-0-0.013-0-0.020 0-0.142 0.059-0.271 0.154-0.362l0-0c0.102-0.088 0.236-0.141 0.383-0.141 0.012 0 0.024 0 0.036 0.001l-0.002-0c0.008-0 0.017-0 0.027-0 0.112 0 0.218 0.022 0.315 0.062l-0.005-0.002c0.1 0.047 0.186 0.106 0.261 0.177l-0.001-0 0.12-0.123c-0.172-0.173-0.411-0.281-0.674-0.281-0.011 0-0.023 0-0.034 0.001l0.002-0c-0.014-0.001-0.030-0.001-0.046-0.001-0.001 0-0.001 0-0.002 0h0zM0.9 16.753c-0.221 0.002-0.422 0.083-0.577 0.216l0.001-0.001c-0.144 0.133-0.234 0.322-0.234 0.532 0 0.010 0 0.019 0.001 0.029l-0-0.001c-0.001 0.012-0.001 0.025-0.001 0.039 0 0.178 0.067 0.339 0.178 0.461l-0.001-0.001c0.127 0.117 0.293 0.194 0.476 0.209l0.003 0 0.16 0.020 0.14 0.020c0.089 0.007 0.169 0.044 0.229 0.101l-0-0c0.042 0.052 0.067 0.119 0.067 0.191 0 0.005-0 0.011-0 0.016l0-0.001c0 0.213-0.147 0.316-0.436 0.316-0.005 0-0.011 0-0.017 0-0.113 0-0.223-0.018-0.325-0.052l0.007 0.002c-0.103-0.034-0.19-0.090-0.26-0.164l-0-0-0.311 0.32c0.107 0.114 0.238 0.203 0.386 0.258l0.007 0.002c0.144 0.049 0.31 0.078 0.483 0.078 0.008 0 0.017-0 0.025-0l-0.001 0c0.011 0 0.025 0.001 0.038 0.001 0.233 0 0.448-0.078 0.62-0.21l-0.002 0.002c0.158-0.131 0.258-0.327 0.258-0.546 0-0.010-0-0.020-0.001-0.030l0 0.001c0.001-0.015 0.002-0.032 0.002-0.050 0-0.189-0.073-0.362-0.193-0.49l0 0c-0.055-0.051-0.119-0.093-0.189-0.122l-0.004-0.002c-0.081-0.031-0.175-0.055-0.273-0.069l-0.007-0.001-0.143-0.020-0.151-0.020c-0.087-0.010-0.164-0.048-0.223-0.104l0 0c-0.047-0.046-0.076-0.109-0.077-0.18v-0c-0-0.002-0-0.005-0-0.007 0-0.088 0.039-0.167 0.1-0.222l0-0c0.069-0.057 0.159-0.092 0.257-0.092 0.009 0 0.019 0 0.028 0.001l-0.001-0c0.001 0 0.003 0 0.004 0 0.096 0 0.188 0.013 0.276 0.038l-0.007-0.002c0.091 0.027 0.168 0.076 0.229 0.14l0 0 0.304-0.309c-0.095-0.097-0.211-0.174-0.34-0.224l-0.007-0.002c-0.126-0.045-0.272-0.071-0.424-0.071-0.009 0-0.019 0-0.028 0l0.001-0c-0.015-0.001-0.032-0.001-0.049-0.001-0 0-0 0-0 0h0zM17.021 16.757c-0.115 0.001-0.224 0.025-0.323 0.069l0.005-0.002c-0.109 0.048-0.202 0.114-0.28 0.194l-0 0c-0.051 0.051-0.094 0.11-0.128 0.175l-0.002 0.004c-0.029 0.059-0.052 0.127-0.066 0.199l-0.001 0.005c-0.014 0.074-0.023 0.161-0.027 0.25l-0 0.003c-0.005 0.118-0.007 0.257-0.007 0.397s0.003 0.278 0.008 0.417l-0.001-0.020c0.003 0.092 0.013 0.179 0.028 0.264l-0.002-0.011c0.015 0.076 0.038 0.144 0.069 0.207l-0.002-0.005c0.034 0.070 0.077 0.129 0.129 0.18l0 0c0.078 0.081 0.171 0.146 0.274 0.191l0.006 0.002c0.099 0.042 0.214 0.067 0.335 0.067v0c0.003 0 0.007 0 0.011 0 0.117 0 0.228-0.025 0.328-0.069l-0.005 0.002c0.109-0.048 0.202-0.113 0.28-0.193l0-0c0.051-0.051 0.094-0.111 0.128-0.176l0.002-0.004c0.029-0.058 0.052-0.126 0.066-0.198l0.001-0.005c0.014-0.074 0.023-0.161 0.027-0.25l0-0.003c0.005-0.118 0.007-0.257 0.007-0.397s-0.003-0.278-0.008-0.417l0.001 0.020c-0.003-0.092-0.013-0.179-0.028-0.264l0.002 0.011c-0.014-0.077-0.038-0.145-0.069-0.209l0.002 0.005c-0.034-0.069-0.078-0.128-0.129-0.179l-0-0c-0.078-0.081-0.171-0.147-0.274-0.192l-0.006-0.002c-0.098-0.042-0.213-0.066-0.333-0.067h-0c-0.003-0-0.006-0-0.009-0s-0.007 0-0.010 0h0zM2.423 16.777v0.444h0.644v2.1h0.48v-2.1h0.643v-0.444zM4.927 16.777v2.544h1.624v-0.44h-1.14v-0.619h0.969v-0.444h-0.969v-0.597h1.14v-0.444zM7.991 16.777l-0.897 2.544h0.5l0.151-0.449h0.873l0.147 0.449h0.503l-0.9-2.544zM9.913 16.777v2.544h0.48v-1.48l0.473 0.963h0.327l0.469-0.963v1.48h0.48v-2.544h-0.472l-0.64 1.373-0.644-1.373zM12.844 16.777l0.613 2.544h0.192l0.583-2.213 0.58 2.213h0.191l0.613-2.544h-0.196l-0.52 2.211-0.573-2.211h-0.193l-0.573 2.211-0.52-2.211zM18.78 16.777v2.544h0.187v-1.176h0.677l0.587 1.176h0.216l-0.593-1.176c0.324-0.042 0.572-0.316 0.572-0.648 0-0.014-0-0.028-0.001-0.042l0 0.002c0-0.010 0.001-0.021 0.001-0.032 0-0.183-0.076-0.348-0.198-0.466l-0-0c-0.128-0.113-0.298-0.182-0.483-0.182-0.009 0-0.018 0-0.027 0l0.001-0zM21.353 16.777v2.544h0.187v-0.687l0.587-0.737 0.791 1.424v-0.003h0.223l-0.889-1.569 0.76-0.971h-0.224l-1.247 1.589v-1.589zM25.604 16.821v0.253h0.035v-0.171l0.060 0.124h0.032l0.056-0.124v0.171h0.037v-0.253h-0.037l-0.073 0.157-0.073-0.157zM25.384 16.824v0.033h0.069v0.217h0.037v-0.217h0.069v-0.033zM17.037 16.931c0.001 0 0.001 0 0.002 0 0.183 0 0.349 0.076 0.467 0.197l0 0c0.040 0.041 0.074 0.088 0.101 0.139l0.002 0.003c0.026 0.051 0.046 0.11 0.057 0.172l0.001 0.004c0.013 0.069 0.022 0.149 0.024 0.232l0 0.002c0.004 0.111 0.007 0.24 0.007 0.371s-0.003 0.26-0.007 0.389l0.001-0.019c-0.002 0.084-0.011 0.164-0.025 0.243l0.001-0.009c-0.012 0.066-0.032 0.125-0.059 0.18l0.002-0.004c-0.029 0.054-0.064 0.101-0.103 0.143l0-0c-0.119 0.121-0.284 0.197-0.467 0.197s-0.348-0.075-0.467-0.197l-0-0c-0.040-0.041-0.075-0.088-0.102-0.139l-0.002-0.003c-0.024-0.051-0.043-0.11-0.055-0.171l-0.001-0.005c-0.013-0.069-0.022-0.149-0.024-0.232l-0-0.002c-0.004-0.111-0.007-0.24-0.007-0.371s0.003-0.26 0.007-0.389l-0.001 0.019c0.002-0.084 0.011-0.164 0.025-0.243l-0.001 0.009c0.011-0.066 0.031-0.125 0.058-0.18l-0.002 0.004c0.030-0.054 0.064-0.101 0.104-0.143l-0 0c0.118-0.121 0.282-0.196 0.464-0.197h0zM19.713 16.951c0.002-0 0.005-0 0.007-0 0.139 0 0.267 0.049 0.367 0.131l-0.001-0.001c0.092 0.085 0.149 0.207 0.149 0.342 0 0.015-0.001 0.031-0.002 0.046l0-0.002c0.001 0.010 0.001 0.021 0.001 0.032 0 0.138-0.058 0.262-0.151 0.349l-0 0c-0.098 0.082-0.225 0.131-0.364 0.131-0.010 0-0.020-0-0.029-0.001l0.001 0h-0.724v-1.027h0.727c0.005-0 0.012-0.001 0.019-0.001l0.001-0zM8.189 17.528l0.304 0.923h-0.613z"></path>
</svg>
