<!-- Generated by IcoMoon.io -->
<svg version="1.1" xmlns="http://www.w3.org/2000/svg" width="32" height="32" viewBox="0 0 32 32">
<title>steemit</title>
<path fill="#06d6a9" d="M27.976 9.661c-1.253-1.255-2.764-2.252-4.446-2.906l-0.088-0.030c0.961-2.827 4.369-3.856 4.369-3.856-3.632-1.772-7.901-2.808-12.413-2.808-1.524 0-3.021 0.118-4.481 0.346l0.162-0.021c-3.153 0.638-5.842 2.299-7.772 4.616l-0.018 0.022c-1.858 2.13-2.991 4.934-2.991 8.003 0 3.723 1.667 7.056 4.295 9.294l0.017 0.014c0.797 0.683 2.579 1.744 2.611 1.799-1.168 2.968-4.904 3.78-4.904 3.78 3.332 1.95 7.241 3.324 11.41 3.872l0.158 0.017c0.922 0.124 1.988 0.194 3.070 0.194 0.877 0 1.743-0.046 2.596-0.137l-0.106 0.009c3.338-0.404 6.263-1.919 8.451-4.157l0.003-0.003c2.348-2.306 3.803-5.514 3.803-9.062 0-3.51-1.424-6.688-3.726-8.987l-0-0zM25.704 25.739c-1.811 1.718-4.173 2.872-6.795 3.17l-0.054 0.005c-0.682 0.076-1.472 0.119-2.273 0.119-0.869 0-1.727-0.051-2.569-0.151l0.102 0.010c-2.099-0.295-3.995-0.834-5.774-1.595l0.147 0.056c0.842-0.787 1.518-1.739 1.979-2.806l0.021-0.054c0.094-0.236 0.148-0.509 0.148-0.795 0-0.345-0.079-0.672-0.221-0.962l0.006 0.013c-0.59-1.189-0.935-2.59-0.935-4.071 0-2.627 1.086-5.001 2.834-6.696l0.002-0.002c1.74-1.686 4.116-2.726 6.734-2.726 2.657 0 5.063 1.070 6.812 2.803l-0.001-0.001c1.681 1.751 2.716 4.134 2.716 6.758 0 2.706-1.101 5.156-2.88 6.924l-0 0z"></path>
</svg>
