<!-- Generated by IcoMoon.io -->
<svg version="1.1" xmlns="http://www.w3.org/2000/svg" width="32" height="32" viewBox="0 0 32 32">
<title>steem</title>
<path fill="#4ba2f2" d="M5.236 3.461c0.352 0.060-0.529 2.371-0.037 5.013 0.424 2.263 5.751 11.033 5.531 14.039-0.171 1.891-4.544 6.32-5.004 6.027-0.503-0.14 1.328-3.148 0.648-5.659-0.787-2.921-5.476-10.48-5.471-13.817 0-2.443 4.015-5.76 4.333-5.603zM15.253 0.007c0.448 0.077-0.675 3.028-0.045 6.388 0.54 2.893 7.335 14.073 7.056 17.909-0.221 2.412-5.797 8.057-6.385 7.68-0.639-0.175 1.695-4.011 0.829-7.208-1.007-3.728-6.984-13.368-6.98-17.624 0-3.117 5.123-7.345 5.525-7.145zM25.592 3.461c0.36 0.060-0.524 2.371-0.031 5.015 0.424 2.263 5.751 11.033 5.531 14.039-0.167 1.891-4.544 6.32-5.005 6.027-0.503-0.14 1.328-3.148 0.651-5.659-0.792-2.923-5.48-10.481-5.473-13.817 0-2.443 4.019-5.76 4.331-5.603z"></path>
</svg>
