<!-- Generated by IcoMoon.io -->
<svg version="1.1" xmlns="http://www.w3.org/2000/svg" width="32" height="32" viewBox="0 0 32 32">
<title>steinberg</title>
<path fill="#c90827" d="M25.975 16.839c0.856-0.495 0.856-1.345 0-1.839l-6.359-3.672c-0.856-0.495-1.593-0.069-1.593 0.92v7.343c0 0.988 0.737 1.413 1.593 0.92zM16.001 3.636c6.828 0 12.364 5.536 12.364 12.364s-5.536 12.364-12.364 12.364-12.363-5.536-12.363-12.364 5.535-12.364 12.363-12.364zM16.001 0.003c-8.82 0-15.996 7.176-15.996 15.997s7.176 15.997 15.997 15.997 15.996-7.176 15.996-15.997-7.176-15.997-15.997-15.997z"></path>
</svg>
