<!-- Generated by IcoMoon.io -->
<svg version="1.1" xmlns="http://www.w3.org/2000/svg" width="32" height="32" viewBox="0 0 32 32">
<title>stencyl</title>
<path fill="#8e1c04" d="M19.147 3.567c-1.279 0.16-2.535 0.488-3.711 1.012l-2.917-2.416 0.577 3.78c-1.011 0.756-1.88 1.667-2.58 2.717l-3.873-0.66 2.601 3.136c-0.413 1.089-0.669 2.236-0.785 3.397l-3.96 1.467 3.936 1.465c0.111 1.177 0.344 2.351 0.753 3.463l-2.525 3.044 3.759-0.568c0.721 1.081 1.639 2.024 2.7 2.773l-0.627 3.668 2.996-2.408c1.152 0.444 2.373 0.697 3.607 0.796l1.399 3.767 1.412-3.795c1.891-0.192 3.788-0.613 5.471-1.525-0.305-1.359-0.624-2.713-0.923-4.073-2.723 1.392-6.14 1.923-8.981 0.537-2.351-1.195-3.697-3.789-3.881-6.38-0.203-2.867 0.669-6.013 3.085-7.735 2.299-1.589 5.365-1.611 7.952-0.781 0.571 0.199 1.115 0.471 1.632 0.804 0.408-1.403 0.821-2.805 1.24-4.205-1.76-0.899-3.748-1.307-5.721-1.392l-1.285-3.455z"></path>
</svg>
