<!-- Generated by IcoMoon.io -->
<svg version="1.1" xmlns="http://www.w3.org/2000/svg" width="32" height="32" viewBox="0 0 32 32">
<title>storify</title>
<path fill="#3a98d9" d="M30.64 11.421c0.427 0.809 0.751 1.7 0.976 2.673 0.227 0.973 0.352 1.993 0.38 3.056 0.027 1.060-0.081 2.14-0.32 3.221-0.24 1.087-0.596 2.148-1.063 3.184s-1.107 2.020-1.921 2.96c-0.817 0.941-1.751 1.785-2.809 2.535-1.041 0.739-2.32 1.379-3.8 1.879-1.481 0.52-3.101 0.86-4.861 1.060l-0.399-0.961c0.099-0.020 0.219-0.060 0.399-0.119 0.183-0.061 0.5-0.18 0.961-0.401 0.479-0.2 0.919-0.439 1.36-0.72 0.44-0.28 0.919-0.66 1.44-1.16 0.539-0.5 0.979-1.039 1.36-1.62 0.38-0.599 0.7-1.32 0.961-2.199 0.26-0.88 0.401-1.82 0.401-2.82 0-0.961-0.12-1.841-0.38-2.68-0.26-0.841-0.601-1.54-1.021-2.161-0.419-0.599-0.899-1.18-1.399-1.719-0.5-0.54-1.021-1.060-1.521-1.54-0.521-0.48-0.979-0.98-1.421-1.46-0.419-0.481-0.779-1.021-1.039-1.62-0.26-0.6-0.4-1.221-0.4-1.88 0-1.18 0.481-2.2 1.4-3.040 0.94-0.861 2.219-1.28 3.86-1.28 0.481 0 0.961 0.039 1.461 0.14 0.5 0.099 1.099 0.279 1.779 0.58 0.683 0.301 1.323 0.68 1.94 1.139 0.623 0.461 1.281 1.12 1.961 1.94 0.68 0.825 1.303 1.78 1.86 2.86zM1.36 20.601c-0.425-0.809-0.751-1.7-0.975-2.675-0.225-0.975-0.353-1.992-0.38-3.055-0.028-1.061 0.081-2.14 0.32-3.221 0.241-1.088 0.593-2.149 1.060-3.184 0.469-1.036 1.109-2.021 1.92-2.96 0.82-0.94 1.753-1.787 2.812-2.533 1.040-0.741 2.319-1.38 3.801-1.88 1.481-0.524 3.101-0.883 4.861-1.084l0.399 0.948c-0.084 0.019-0.211 0.059-0.38 0.107-0.165 0.052-0.479 0.18-0.949 0.391-0.467 0.208-0.916 0.445-1.351 0.716-0.429 0.269-0.907 0.652-1.429 1.148s-0.973 1.036-1.349 1.62c-0.379 0.585-0.695 1.313-0.955 2.187-0.261 0.872-0.388 1.807-0.388 2.809 0 0.947 0.12 1.833 0.401 2.667 0.26 0.833 0.599 1.549 1.020 2.151 0.42 0.621 0.9 1.18 1.4 1.743 0.5 0.559 1.021 1.059 1.521 1.539 0.5 0.479 0.979 0.979 1.4 1.461 0.439 0.5 0.78 1.039 1.040 1.619 0.26 0.6 0.399 1.22 0.399 1.88 0 1.199-0.479 2.221-1.399 3.061-0.941 0.86-2.223 1.279-3.863 1.279-0.479 0-0.96-0.040-1.46-0.14-0.5-0.099-1.1-0.279-1.76-0.58-0.68-0.301-1.32-0.68-1.96-1.14-0.621-0.46-1.28-1.12-1.96-1.94-0.68-0.819-1.3-1.779-1.861-2.859z"></path>
</svg>
