<!-- Generated by IcoMoon.io -->
<svg version="1.1" xmlns="http://www.w3.org/2000/svg" width="32" height="32" viewBox="0 0 32 32">
<title>strapi</title>
<path fill="#2e7eea" d="M23.060 14.072c-0.096-0-0.186-0.026-0.262-0.072l0.002 0.001-2.036-1.192c-0.154-0.092-0.255-0.257-0.256-0.445v-2.354c0-0 0-0 0-0 0-0.19 0.102-0.356 0.255-0.445l0.002-0.001 2.045-1.181c0.074-0.043 0.162-0.069 0.257-0.069s0.183 0.026 0.259 0.070l-0.002-0.001 2.051 1.173c0.156 0.091 0.26 0.257 0.26 0.448v2.373c0 0 0 0.001 0 0.001 0 0.189-0.102 0.355-0.254 0.444l-0.002 0.001-2.047 1.18c-0.073 0.043-0.161 0.068-0.255 0.068-0.006 0-0.012-0-0.018-0l0.001 0zM21.54 12.068l1.528 0.893 1.531-0.884v-1.777l-1.533-0.879-1.533 0.887zM7.003 18.060c-0.004 0-0.008 0-0.012 0-0.285 0-0.516-0.231-0.516-0.516 0-0.195 0.108-0.364 0.267-0.452l0.003-0.001 1.792-1.032c0.082-0.057 0.184-0.091 0.293-0.091 0.285 0 0.516 0.231 0.516 0.516 0 0.204-0.119 0.381-0.291 0.465l-0.003 0.001-1.792 1.036c-0.073 0.045-0.161 0.073-0.255 0.075h-0.001zM6.613 21.181c-0.005 0-0.012 0-0.018 0-0.284 0-0.513-0.23-0.513-0.513 0-0.198 0.112-0.369 0.275-0.455l0.003-0.001 3.437-1.969c0.080-0.054 0.18-0.087 0.286-0.087 0.285 0 0.516 0.231 0.516 0.516 0 0.203-0.117 0.378-0.287 0.463l-0.003 0.001-3.447 1.977c-0.072 0.042-0.157 0.067-0.249 0.068h-0zM7.169 23.749c-0.002 0-0.005 0-0.007 0-0.285 0-0.516-0.231-0.516-0.516 0-0.195 0.108-0.364 0.267-0.452l0.003-0.001 4.156-2.325c0.080-0.054 0.179-0.086 0.285-0.086 0.285 0 0.516 0.231 0.516 0.516 0 0.206-0.12 0.383-0.294 0.466l-0.003 0.001-4.147 2.325c-0.074 0.045-0.164 0.072-0.26 0.072h-0zM17.275 2.653l-2.551-1.551-12.891 7.459 0.025 2.132 4.876 2.813 3.185-1.821 0.696-3.388c0.032-0.148 0.122-0.27 0.246-0.343l0.002-0.001 11.219-6.46c0.074-0.043 0.163-0.068 0.258-0.068s0.184 0.025 0.261 0.070l-0.003-0.001 8.371 4.847c0.156 0.089 0.259 0.254 0.259 0.443 0 0.001 0 0.001 0 0.002v-0l-0.016 9.691c-0 0.19-0.104 0.356-0.258 0.445l-0.002 0.001-11.099 6.373c-0.074 0.043-0.163 0.069-0.257 0.069-0.050 0-0.098-0.007-0.144-0.020l0.004 0.001-3.368-0.952-3.157 1.837v5.596l1.847 1.067 12.889-7.457v-2.997l1.027-0.671v3.963c0 0.001 0 0.003 0 0.005 0 0.188-0.101 0.353-0.252 0.442l-0.002 0.001-13.403 7.753c-0.074 0.044-0.163 0.070-0.258 0.070s-0.184-0.026-0.26-0.071l0.002 0.001-2.365-1.359c-0.156-0.090-0.259-0.256-0.259-0.445v-6.189c0-0.189 0.102-0.354 0.254-0.443l0.002-0.001 3.603-2.096c0.074-0.044 0.164-0.070 0.259-0.070 0.050 0 0.099 0.007 0.144 0.021l-0.004-0.001 3.376 0.955 10.66-6.116 0.016-9.093-7.857-4.547-10.76 6.203-0.701 3.371c-0.032 0.148-0.123 0.27-0.247 0.341l-0.002 0.001-3.636 2.092c-0.074 0.043-0.163 0.069-0.257 0.069s-0.183-0.025-0.26-0.070l0.002 0.001-5.387-3.101c-0.154-0.090-0.256-0.253-0.259-0.44v-0l-0.043-2.737c-0-0.002-0-0.004-0-0.006 0-0.189 0.102-0.354 0.254-0.443l0.002-0.001 13.416-7.753c0.075-0.045 0.166-0.072 0.263-0.072s0.188 0.027 0.265 0.073l-0.002-0.001 3.295 2.003z"></path>
</svg>
