<!-- Generated by IcoMoon.io -->
<svg version="1.1" xmlns="http://www.w3.org/2000/svg" width="32" height="32" viewBox="0 0 32 32">
<title>stripe</title>
<path fill="#008cdd" d="M18.635 12.2c-2.896-1.075-4.475-1.901-4.475-3.212 0-1.108 0.911-1.74 2.535-1.74 2.969 0 6.020 1.144 8.12 2.175l1.187-7.325c-1.665-0.797-5.072-2.097-9.781-2.097-3.331 0-6.101 0.872-8.081 2.496-2.059 1.7-3.129 4.16-3.129 7.128 0 5.385 3.289 7.68 8.635 9.625 3.447 1.227 4.593 2.099 4.593 3.444 0 1.307-1.12 2.060-3.139 2.060-2.5 0-6.62-1.228-9.32-2.812l-1.2 7.407c2.321 1.305 6.601 2.652 11.040 2.652 3.521 0 6.457-0.832 8.437-2.417 2.219-1.74 3.367-4.315 3.367-7.643 0-5.504-3.365-7.801-8.792-9.74z"></path>
</svg>
