<!-- Generated by IcoMoon.io -->
<svg version="1.1" xmlns="http://www.w3.org/2000/svg" width="32" height="32" viewBox="0 0 32 32">
<title>strongswan</title>
<path fill="#e00033" d="M26.087 6.808c-0.111 0-0.221 0.003-0.33 0.009l0.015-0.001c-0.099 0-0.197 0-0.295 0.009-0.675 0.148-1.429 0.328-1.917 0.845-0.736 0.841-0.589 2.253 0.269 2.963 1.18 1.053 2.293 2.209 3.053 3.611 0.832 1.287 0.975 3.012 0.213 4.365-0.84 1.711-2.516 2.907-4.347 3.353 0.507 1.331 0.583 3.067 0.583 3.067s1.543-0.427 2.187-0.716c0.727-0.351 1.489-0.676 2.067-1.257 0.579-0.393 1-0.965 1.38-1.551 0.427-0.683 0.816-1.397 1.149-2.127 0.209-0.656 0.463-1.307 0.499-2.007 0.033-0.278 0.052-0.599 0.052-0.925 0-0.754-0.101-1.483-0.291-2.177l0.013 0.058c-0.504-1.355-1.453-2.5-2.573-3.393 1.029-0.011 2.063 0.040 3.089-0.025 0.576 0 1.671-0.56 0.725-1.005-0.513-0.16-1.043 0.12-1.547 0.145-0.42-0.185-1.297-0.432-0.967-1.035 0.384-0.797-0.204-1.443-0.92-1.703-0.645-0.371-1.376-0.505-2.109-0.504zM17.528 7.688c-1.573 0.045-3.205 0.237-4.567 1.097-1.405 0.927-2.544 2.236-3.405 3.676 0.043-0.005 0.080-0.007 0.093 0.003 0.023 0.013 0.149 0.036 0.284 0.049 0.268 0.032 2.036 0.533 2.121 0.601 0.107 0.085 0.875 0.457 0.947 0.457 0.125 0 0.076-0.076-0.093-0.152-0.356-0.152-0.665-0.341-0.571-0.341 0.175 0 0.48 0.135 0.723 0.32 0.264 0.205 0.977 0.511 1.305 0.56 0.359 0.049 1.283 0.404 1.52 0.573 0.117 0.091 0.293 0.203 0.381 0.252 0.074 0.036 0.138 0.081 0.194 0.134l-0-0c0.049 0.077 0.104 0.051 0.080-0.040-0.013-0.044-0.089-0.12-0.173-0.165-0.085-0.045-0.144-0.107-0.135-0.133 0.009-0.028-0.18-0.172-0.427-0.315-0.243-0.144-0.453-0.301-0.467-0.347-0.019-0.040-0.045-0.076-0.063-0.076-0.068-0.035-0.126-0.080-0.174-0.133l-0-0c-0.081-0.077-0.135-0.136-0.121-0.136 0.031 0 0.395 0.233 0.427 0.275 0.048 0.057 0.317 0.179 0.353 0.156 0.023-0.013 0.072 0.013 0.117 0.064 0.107 0.116 0.129 0.112 0.197-0.027l0.053-0.117 0.093 0.12c0.073 0.091 0.104 0.108 0.131 0.059 0.021-0.030 0.036-0.066 0.040-0.106l0-0.001c0-0.045-0.227-0.161-0.56-0.283-0.094-0.041-0.175-0.088-0.251-0.143l0.004 0.003c-0.171-0.133-0.013-0.116 0.323 0.040 0.157 0.068 0.404 0.163 0.552 0.203s0.333 0.104 0.404 0.135c0.395 0.18 0.512 0.237 0.681 0.351 0.079 0.060 0.175 0.104 0.278 0.125l0.004 0.001c0.049 0 0.104 0.031 0.117 0.067 0.017 0.036 0.045 0.059 0.063 0.045 0.019-0.013 0.107 0.027 0.197 0.089 0.089 0.059 0.161 0.095 0.161 0.076 0-0.013 0.032 0.019 0.072 0.072 0.053 0.076 0.085 0.091 0.125 0.059 0.040-0.036 0.080-0.023 0.14 0.040 0.044 0.049 0.107 0.085 0.143 0.081 0.053-0.013 0.463 0.395 0.463 0.463 0 0.013 0.085 0.085 0.192 0.156 0.104 0.072 0.203 0.148 0.22 0.176 0.019 0.021 0.053 0.044 0.077 0.044 0.021 0 0.139 0.072 0.26 0.157 0.116 0.085 0.224 0.152 0.237 0.157 0.059 0.004 0.44 0.296 0.56 0.431 0.167 0.179 0.077 0.129-0.251-0.135-0.444-0.364-0.713-0.48-0.713-0.309 0 0.044-0.031 0.093-0.067 0.112-0.063 0.023-0.063 0.036 0.004 0.107 0.089 0.1 0.188 0.117 0.107 0.019-0.067-0.080-0.004-0.085 0.095-0.009 0.040 0.032 0.063 0.076 0.053 0.107-0.013 0.032 0.013 0.045 0.068 0.028 0.089-0.023 0.323 0.157 0.323 0.247 0 0.023 0.279 0.224 0.62 0.44 0.605 0.387 0.893 0.6 0.713 0.539-0.042-0.013-0.091-0.023-0.142-0.027l-0.002-0c-0.032 0-0.121-0.051-0.193-0.113-0.125-0.103-0.313-0.116-0.251-0.017 0.013 0.023-0.013 0.040-0.059 0.040-0.053 0.004-0.032 0.027 0.067 0.080 0.108 0.059 0.131 0.095 0.095 0.131s-0.023 0.063 0.053 0.108c0.059 0.027 0.127 0.080 0.144 0.112 0.019 0.036 0.067 0.063 0.104 0.063 0.036 0 0.085 0.049 0.116 0.112 0.027 0.059 0.063 0.099 0.085 0.091 0.019-0.013 0.045 0.013 0.063 0.063 0.013 0.044 0.197 0.256 0.404 0.467 0.211 0.211 0.381 0.408 0.381 0.431 0 0.040-0.296 0.125-0.368 0.103-0.023-0.004-0.036 0.009-0.036 0.036s-0.040 0.027-0.099 0.004-0.103-0.053-0.099-0.076c0.004-0.063-0.080-0.135-0.193-0.161-0.147-0.040-0.125 0.021 0.072 0.201 0.167 0.148 0.171 0.161 0.080 0.184-0.009 0.002-0.019 0.004-0.029 0.004h-0c0.043 0.049 0.084 0.097 0.124 0.148 1.007-0.8 2.213-1.647 2.369-3.035 0.205-1.711-1.181-3.036-2.472-3.92-0.789-0.576-1.333-1.455-1.705-2.345-0.383-0.813-0.009-2.511-0.009-2.511s-1.891-0.149-2.78-0.165zM3.195 11.435c-0.107 0.011-0.237 0.019-0.369 0.023l-0.007 0c-0.311 0.019-0.32 0.019-0.297 0.125 0.013 0.072 0.080 0.14 0.207 0.197 0.18 0.091 1.301 0.404 1.863 0.525 0.16 0.036 0.309 0.080 0.336 0.103 0.085 0.067 0.332 0.095 0.349 0.040 0.013-0.035 0.085-0.021 0.22 0.041 0.161 0.076 0.588 0.193 0.781 0.211 0.027 0.004 0.057 0.040 0.076 0.085 0.017 0.040 0.093 0.089 0.171 0.107 0.076 0.013 0.129 0.051 0.12 0.077-0.021 0.063-0.264 0.036-0.309-0.032-0.027-0.040-0.044-0.040-0.072 0.004-0.031 0.045-0.084 0.045-0.268 0.004-0.131-0.031-0.233-0.071-0.233-0.093 0-0.072-0.085-0.032-0.112 0.053-0.019 0.049-0.049 0.080-0.072 0.063-0.023-0.013-0.032-0.040-0.019-0.057 0.009-0.023-0.143-0.121-0.349-0.22-0.292-0.148-0.543-0.22-1.216-0.368-0.221-0.055-0.515-0.112-0.813-0.155l-0.053-0.006c-0.013 0.013 0.055 0.063 0.153 0.116 0.144 0.080 0.152 0.089 0.049 0.067-0.197-0.040-0.148 0.013 0.125 0.136 0.175 0.076 0.247 0.129 0.229 0.173-0.027 0.068 0.063 0.172 0.129 0.159 0.095-0.019 0.148 0.009 0.161 0.080 0.023 0.125-0.147 0.193-0.353 0.144-0.051-0.014-0.155-0.036-0.259-0.055l-0.047-0.007c-0.075-0.009-0.277-0.049-0.448-0.080-0.138-0.031-0.306-0.057-0.478-0.072l-0.016-0.001c-0.138-0.008-0.267-0.027-0.391-0.056l0.015 0.003c-0.153-0.036-0.207-0.032-0.233 0.013-0.023 0.036-0.117 0.053-0.243 0.049-0.112-0.004-0.201 0.013-0.201 0.031 0 0.023 0.169 0.040 0.381 0.040 0.372 0 0.471 0.019 0.471 0.091 0 0.067-0.161 0.085-0.296 0.027-0.104-0.040-0.148-0.040-0.229 0.009-0.085 0.059-0.112 0.053-0.211-0.009-0.103-0.067-0.12-0.067-0.144-0.009-0.027 0.076-0.173 0.072-0.313-0.004-0.076-0.040-0.063-0.053 0.107-0.080 0.229-0.036 0.225-0.053-0.017-0.085-0.12-0.013-0.211 0-0.269 0.044-0.080 0.059-0.080 0.064-0.004 0.068 0.125 0 0.040 0.089-0.085 0.089-0.073-0.003-0.142-0.019-0.205-0.045l0.004 0.001c-0.068-0.036-0.085-0.036-0.076 0.009 0.013 0.063-0.148 0.071-0.301 0.013-0.049-0.023-0.076-0.023-0.057 0 0.017 0.017 0 0.057-0.040 0.089-0.059 0.045-0.045 0.053 0.103 0.053 0.099 0 0.251 0.013 0.345 0.032 0.099 0.017 0.165 0.013 0.165-0.013 0-0.059 0.315-0.032 0.489 0.044 0.099 0.045 0.139 0.085 0.12 0.14-0.013 0.063-0.003 0.072 0.055 0.040 0.053-0.031 0.099-0.023 0.153 0.027 0.067 0.059 0.099 0.063 0.211 0.013 0.076-0.031 0.156-0.035 0.192-0.013 0.032 0.019 0.203 0.040 0.373 0.045 0.363 0.009 0.497 0.036 0.587 0.107 0.036 0.027 0.108 0.060 0.167 0.064 0.175 0.023 0.319 0.059 0.453 0.107 0.171 0.068 0.933 0.239 0.955 0.216 0.009-0.009-0.076-0.045-0.187-0.076-0.113-0.032-0.203-0.076-0.203-0.104 0-0.044 0.129-0.027 0.461 0.077 0.189 0.057 0.22 0.063 0.243 0.004 0.013-0.036 0.049-0.067 0.085-0.067s0.063-0.032 0.063-0.073c0-0.036-0.017-0.053-0.045-0.040-0.021 0.013-0.044 0.004-0.044-0.017 0-0.027 0.031-0.049 0.067-0.049 0.040 0 0.067 0.040 0.067 0.107 0 0.091 0.027 0.108 0.185 0.135 0.103 0.019 0.197 0.019 0.211 0.004 0.013-0.013-0.009-0.023-0.049-0.023s-0.076-0.021-0.076-0.044c0-0.059-0.009-0.059 0.395 0.040 0.188 0.049 0.467 0.099 0.613 0.117 0.436 0.040 0.58 0.084 1.189 0.353 0.3 0.137 0.624 0.271 0.904 0.377 0.004-0.047 0.011-0.093 0.017-0.141-0.165-0.061-0.32-0.141-0.329-0.181-0.013-0.053 0.009-0.059 0.121-0.023l0.235 0.069c-0.023-0.155 0.541 0.027 0.605-0.149 0.037-0.101-0.921-0.376-0.885-0.496 0.035-0.12 0.516 0.083 0.62-0.035 0.080-0.089-0.241-0.283-0.16-0.388 0.053-0.071 0.551 0.316 0.624 0.247 0.093-0.091-0.551-0.449-0.48-0.576 0.055-0.096 0.38 0.153 0.496 0.076 0.181-0.12-0.053-0.059 0.088-0.227 0.027-0.032 0.068-0.043 0.12-0.043 0.009-0.021 0.021-0.041 0.032-0.063l0.077 0.003c0.095-0.004 0.117-0.013 0.068-0.040-0.031-0.015-0.066-0.028-0.104-0.036l-0.003-0c0.007-0.009 0.011-0.017 0.015-0.027l0.003-0.004c-0.174-0.123-0.47-0.318-0.768-0.508l-0.138-0.082-0.057-0.017c-0.266-0.085-0.573-0.141-0.891-0.153l-0.007-0c-0.444-0.023-0.444-0.023-0.203 0.036 0.584 0.135 1.301 0.373 1.301 0.427 0 0.036-0.031 0.049-0.076 0.036-0.533-0.163-1.84-0.52-1.893-0.52-0.046-0.001-0.088-0.018-0.12-0.046l0 0c-0.027-0.027-0.185-0.063-0.36-0.085-0.195-0.024-0.365-0.057-0.532-0.1l0.029 0.006c-0.103-0.033-0.197-0.051-0.211-0.037-0.049 0.045 0.032 0.161 0.125 0.189 0.077 0.017 0.085 0.035 0.045 0.076-0.040 0.040-0.072 0.040-0.131-0.009-0.040-0.036-0.084-0.059-0.093-0.049-0.040 0.036-0.279-0.049-0.301-0.108-0.017-0.049-0.057-0.059-0.12-0.040-0.053 0.017-0.108 0.009-0.127-0.019-0.040-0.063-0.677-0.184-0.677-0.129 0 0.057-0.283-0.004-0.323-0.072-0.040-0.053-0.125 0.040-0.125 0.139 0 0.085-0.089 0.072-0.323-0.053-0.078-0.048-0.169-0.084-0.266-0.102l-0.005-0.001zM8.533 12.068c0.429 0.129 0.503 0.14 0.503 0.076 0-0.037-0.467-0.195-0.843-0.285 0.109 0.065 0.224 0.136 0.34 0.209zM8.193 11.859c-0.297-0.179-0.548-0.315-0.637-0.325-0.103-0.007-0.2-0.024-0.292-0.052l0.009 0.002c-0.045-0.027-0.301 0.032-0.301 0.072 0 0.027 0.265 0.089 1.121 0.279zM9.44 12.659c0.103 0.068 0.181 0.123 0.197 0.135 0.017 0.013 0.057 0.041 0.111 0.073l0.207 0.009c0.324 0.013 0.575 0.059 0.897 0.153 0.485 0.147 0.56 0.16 0.56 0.093 0-0.040-0.555-0.224-0.941-0.309-0.532-0.117-0.836-0.185-0.989-0.227zM9.747 12.867c-0.213-0.009-0.187 0 0.007 0.047l0.127 0.031zM9.88 12.944l0.053 0.027c-0.063 0.036-0.387-0.145-0.583-0.145l-0.044 0.083c0.405 0.105 1.263 0.343 1.672 0.467 0.044 0.013 0.076 0 0.076-0.036 0-0.049-0.619-0.257-1.175-0.395zM6.8 11.677h-0.051c-0.040 0.003-0.072 0.008-0.087 0.017-0.063 0.036 0.197 0.091 0.421 0.091 0.093-0.004 0.117-0.013 0.067-0.040-0.104-0.041-0.224-0.066-0.35-0.068h-0.001zM2.661 11.875c-0.027 0-0.032 0.019-0.019 0.045 0.013 0.023 0.049 0.044 0.072 0.044 0.027 0 0.032-0.021 0.019-0.044-0.015-0.025-0.041-0.043-0.072-0.045l-0-0zM2.941 11.968h-0.035c-0.049 0-0.063 0.013-0.027 0.028 0.031 0.013 0.071 0.009 0.084-0.004 0.013-0.011 0.001-0.020-0.023-0.024zM10.187 12.149c0.007 0 0.012 0 0.017 0.004l-0.128 0.060-0.013-0.007c-0.077 0.056-0.157 0.133-0.197 0.133-0.044 0 0.089-0.177 0.197-0.133 0.044-0.033 0.088-0.059 0.124-0.057zM7.717 13.085c0.036 0 0.053 0.019 0.040 0.045-0.013 0.023-0.045 0.045-0.072 0.045-0.023 0-0.040-0.023-0.040-0.045 0-0.027 0.031-0.045 0.072-0.045zM1.101 13.539h-0.035c-0.049 0-0.063 0.013-0.027 0.027 0.032 0.013 0.072 0.011 0.085-0.003 0.013-0.011 0.001-0.020-0.024-0.024zM1.387 13.656l0.085 0.093c0.045 0.053 0.125 0.108 0.18 0.121 0.049 0.019 0.201 0.072 0.327 0.121 0.193 0.076 0.26 0.080 0.377 0.040 0.112-0.040 0.161-0.035 0.215 0.009 0.112 0.085 0.247 0.144 0.395 0.166l0.005 0.001c0.063 0 0.053-0.019-0.032-0.085l-0.107-0.080 0.187 0.013c0 0 0 0 0.001 0 0.094 0 0.183 0.025 0.259 0.068l-0.003-0.001c0.036 0.027 0.063 0.036 0.063 0.019 0-0.019 0.027-0.013 0.057 0.009 0.091 0.071 0.252 0.099 0.269 0.044 0.009-0.031 0.104-0.009 0.26 0.067 0.269 0.127 0.633 0.216 0.884 0.216 0.091 0 0.309 0.032 0.48 0.072 0.52 0.117 0.924 0.193 1.284 0.243 0.192 0.027 0.461 0.089 0.605 0.139 0.336 0.117 0.431 0.135 0.4 0.080-0.019-0.021 0.003-0.040 0.040-0.040 0.040 0 0.071 0.032 0.071 0.067 0 0.041 0.027 0.055 0.077 0.037 0.049-0.019 0.063-0.013 0.040 0.023-0.027 0.049 0.023 0.076 0.12 0.057 0.019 0 0.032 0.013 0.032 0.036s0.049 0.049 0.112 0.059c0.015 0.004 0.033 0.006 0.050 0.006 0.010 0 0.021-0.001 0.031-0.002l-0.001 0-0.032-0.004 0.139-0.284c-0.093-0.053-0.24-0.113-0.407-0.16-0.173-0.055-0.318-0.114-0.458-0.184l0.018 0.008c-0.124-0.063-0.219-0.089-0.237-0.063-0.016 0.026-0.044 0.044-0.076 0.045h-0c-0.031 0-0.027-0.023 0.004-0.063 0.076-0.089-0.332-0.22-0.736-0.229-0.465-0.011-0.91-0.079-1.334-0.197l0.038 0.009c-0.283-0.076-0.453-0.099-0.471-0.067-0.019 0.027-0.197 0.009-0.52-0.059-0.269-0.053-0.584-0.112-0.696-0.125-0.101-0.011-0.193-0.028-0.282-0.052l0.012 0.003c-0.13-0.025-0.284-0.043-0.44-0.049l-0.007-0c-0.387-0.014-0.752-0.046-1.11-0.097l0.055 0.006zM8.257 14.964l0.004 0.003c-0.003 0.085 0 0.171 0.004 0.256-0.001 0-0.003 0-0.005 0-0.013 0-0.026-0.004-0.037-0.010l0 0c-0.023-0.013-0.040-0.004-0.040 0.019 0 0.011-0.013 0.019-0.032 0.023 0.189 0.025 0.377 0.040 0.592 0.047 0.404 0.009 0.812 0.139 0.736 0.228-0.032 0.040-0.036 0.063-0.004 0.063 0.032-0.001 0.060-0.018 0.076-0.044l0-0c0.017-0.027 0.112 0 0.237 0.063 0.117 0.057 0.315 0.139 0.44 0.173 0.283 0.081 0.511 0.199 0.511 0.257 0 0.021 0.032 0.031 0.068 0.017 0.036-0.017 0.067-0.004 0.067 0.023 0 0.063-0.215 0.152-0.273 0.112-0.023-0.013-0.040-0.004-0.040 0.017 0 0.023-0.049 0.032-0.112 0.019-0.063-0.009-0.112-0.036-0.112-0.059s-0.013-0.036-0.032-0.036c-0.099 0.019-0.147-0.009-0.12-0.059 0.021-0.035 0.008-0.040-0.040-0.021-0.051 0.017-0.077 0.004-0.077-0.036 0-0.036-0.032-0.067-0.072-0.067-0.036 0-0.059 0.017-0.040 0.040 0.031 0.053-0.063 0.036-0.4-0.081-0.17-0.056-0.374-0.104-0.584-0.136l-0.022-0.003c-0.289-0.040-0.611-0.099-0.995-0.18-0.4 0.848-0.78 1.705-1.131 2.576-1.813 3.317-4.317 3.721-4.317 3.721v3.303c2.023-0.005 4.045-0.012 6.067-0.021-0.32-3.34 1.835-6.713 5.004-7.817-0.091-0.045-0.169-0.090-0.242-0.141l0.006 0.004c-0.085-0.059-0.193-0.093-0.237-0.080-0.053 0.013-0.22-0.064-0.431-0.193-0.092-0.060-0.225-0.14-0.36-0.217l-0.048-0.025c-0.265-0.153-0.485-0.297-0.696-0.451l0.023 0.016c0.107 0 0.668 0.201 0.92 0.332 0.173 0.089 0.359 0.16 0.413 0.16 0.096 0.016 0.182 0.051 0.257 0.101l-0.002-0.001c0.089 0.059 0.292 0.184 0.448 0.283 0.075 0.045 0.143 0.089 0.195 0.125 0.187-0.063 0.377-0.12 0.568-0.167-0.107-0.048-0.325-0.155-0.556-0.264-0.228-0.115-0.516-0.239-0.812-0.348l-0.062-0.020c-0.252-0.085-0.467-0.181-0.672-0.293l0.021 0.011c-0.075-0.046-0.225-0.126-0.376-0.205l-0.081-0.038c-0.093-0.040-0.256-0.133-0.36-0.201-0.088-0.060-0.19-0.121-0.296-0.176l-0.017-0.008c-0.089-0.036-0.116-0.072-0.093-0.125 0.023-0.059 0.013-0.067-0.036-0.036-0.093 0.059-0.161 0.059-0.309 0.013l-0.275-0.080c-0.112-0.036-0.133-0.032-0.12 0.021 0.013 0.063 0.385 0.225 0.596 0.26 0.089 0.013 0.279 0.113 0.56 0.296 0.087 0.053 0.117 0.085 0.068 0.068-0.072-0.026-0.192-0.063-0.313-0.096l-0.046-0.011c-0.588-0.191-1.071-0.384-1.538-0.604l0.079 0.034c-0.609-0.269-0.753-0.315-1.188-0.355-0.117-0.014-0.211-0.029-0.303-0.047l0.029 0.005zM8.819 13.841l-0.057 0.112c0.087 0.040 0.243 0.045 0.261-0.004 0.009-0.027-0.045-0.063-0.121-0.076-0.031-0.008-0.059-0.019-0.085-0.033l0.002 0.001zM10.857 16.18c0.040 0 0.123 0.032 0.332 0.101 0.283 0.099 0.488 0.207 1.323 0.705 0.076 0.044 0.193 0.133 0.265 0.197l0.129 0.112h-0.12c-0.193 0-1.081-0.489-1.081-0.597 0-0.027-0.036-0.057-0.085-0.067-0.053-0.013-0.072 0-0.049 0.036 0.027 0.040 0.009 0.040-0.063 0.004-0.108-0.059-0.131-0.117-0.027-0.076 0.035 0.013 0.067 0.004 0.067-0.019 0-0.027-0.040-0.045-0.089-0.045s-0.091-0.021-0.091-0.044c0-0.027-0.027-0.045-0.053-0.045-0.090-0.023-0.169-0.053-0.243-0.092l0.006 0.003c-0.068-0.036-0.148-0.067-0.231-0.089l-0.008-0.002c-0.031 0-0.044-0.021-0.031-0.044 0.016-0.027 0.019-0.040 0.049-0.039z"></path>
</svg>
