<!-- Generated by IcoMoon.io -->
<svg version="1.1" xmlns="http://www.w3.org/2000/svg" width="32" height="32" viewBox="0 0 32 32">
<title>stubhub</title>
<path fill="#003168" d="M31.707 8.755l-31.427 2.109c-0.155 0.011-0.28 0.143-0.28 0.303v0.033l0.967 9.179v0.005c0.004 0.048 0.008 0.093 0.008 0.147 0 0.164-0.021 0.324-0.064 0.463l-0.452 1.46c-0.053 0.163 0.035 0.243 0.195 0.179l2.407-1c0.003 0 0.005 0 0.008-0.003h0.004c0.173-0.067 0.36-0.101 0.557-0.101h0.048l26.72 1.72c0.169 0 0.307-0.129 0.324-0.296l1.279-13.907v-0.027c0-0.147-0.12-0.264-0.267-0.264zM6.047 13.661h0.071c1.097 0 1.667 0.405 1.7 1.189v0.060h-0.688l-0.008-0.053c-0.036-0.347-0.364-0.515-1.004-0.515h-0.060c-0.64 0.011-0.956 0.203-0.956 0.579v0.107c0.007 0.073 0.040 0.136 0.093 0.181 0.069 0.064 0.156 0.116 0.253 0.147l1.605 0.537-0.009-0.007 0.013 0.005c0.24 0.076 0.453 0.217 0.613 0.408 0.144 0.184 0.233 0.417 0.233 0.669v0.156c0 0.383-0.187 0.72-0.48 0.927-0.313 0.24-0.767 0.357-1.329 0.357s-1-0.124-1.32-0.357v-0.003c-0.291-0.207-0.48-0.547-0.48-0.933v-0.093h0.688v0.067c0 0.195 0.084 0.34 0.28 0.461s0.477 0.183 0.837 0.183 0.653-0.064 0.849-0.181 0.293-0.267 0.293-0.461v-0.096c0-0.223-0.131-0.369-0.4-0.459l-1.596-0.536c-0.26-0.083-0.467-0.209-0.6-0.373-0.133-0.16-0.213-0.365-0.213-0.592v-0.112c0-0.821 0.537-1.247 1.613-1.261zM17.103 13.768h0.691v1.931h2.117v-1.929h0.693v4.627h-0.696v-2.027h-2.113v2.027h-0.691zM8.443 13.777h0.667v1.26h0.713v0.68h-0.713v1.187c0 0.277 0.075 0.493 0.224 0.649l-0.003 0.005c0.116 0.12 0.269 0.2 0.445 0.227h0.047v0.647l-0.063-0.005h-0.005c-0.353-0.021-0.672-0.173-0.907-0.411-0.271-0.28-0.407-0.656-0.407-1.112zM24.327 13.777h0.667v1.493c0.207-0.209 0.489-0.32 0.844-0.32 1.007 0 1.52 0.527 1.523 1.567v0.377c0 0.456-0.137 0.832-0.407 1.113s-0.648 0.421-1.115 0.421-0.837-0.14-1.107-0.42-0.408-0.659-0.408-1.112zM13.548 13.78h0.667v1.493c0.208-0.213 0.491-0.324 0.845-0.324 1.013 0 1.52 0.528 1.525 1.568v0.377c0 0.456-0.14 0.832-0.409 1.113s-0.644 0.421-1.111 0.421-0.836-0.14-1.107-0.42-0.409-0.659-0.409-1.112zM10.355 15.040h0.656v1.823c0 0.344 0.053 0.589 0.151 0.727 0.093 0.127 0.272 0.195 0.516 0.195h0.021c0.247 0 0.413-0.063 0.513-0.195s0.153-0.383 0.153-0.727h-0.005v-1.823h0.653v1.823c0 0.556-0.107 0.96-0.307 1.203-0.195 0.231-0.513 0.352-0.947 0.363h-0.153c-0.433-0.011-0.752-0.131-0.947-0.364-0.208-0.24-0.307-0.648-0.307-1.204zM21.124 15.040h0.656v1.823c0 0.344 0.053 0.589 0.153 0.727 0.093 0.127 0.267 0.195 0.512 0.195h0.033c0.24 0 0.408-0.067 0.504-0.195 0.1-0.139 0.153-0.383 0.153-0.727h-0.005v-1.823h0.653v1.823c0 0.556-0.111 0.971-0.307 1.203s-0.512 0.352-0.947 0.363h-0.16c-0.432-0.011-0.751-0.131-0.947-0.364-0.207-0.24-0.304-0.648-0.304-1.204zM15.060 15.603c-0.276 0-0.493 0.067-0.631 0.208s-0.213 0.38-0.213 0.707v0.384c0 0.277 0.083 0.488 0.227 0.648s0.347 0.243 0.619 0.243c0.271 0 0.476-0.075 0.627-0.24s0.227-0.373 0.227-0.651v-0.377c0-0.329-0.075-0.564-0.217-0.707s-0.355-0.213-0.637-0.215zM25.837 15.603c-0.276 0-0.493 0.067-0.631 0.208s-0.213 0.38-0.213 0.707v0.384c0 0.277 0.080 0.488 0.221 0.648s0.356 0.243 0.623 0.243 0.473-0.080 0.627-0.24 0.227-0.38 0.227-0.651v-0.377c0-0.329-0.075-0.564-0.217-0.707s-0.356-0.213-0.636-0.215z"></path>
</svg>
