<!-- Generated by IcoMoon.io -->
<svg version="1.1" xmlns="http://www.w3.org/2000/svg" width="32" height="32" viewBox="0 0 32 32">
<title>styleshare</title>
<path d="M19.669 9.627c-0.004-0-0.008-0-0.012-0-1.502 0-2.72 1.218-2.72 2.72 0 0.004 0 0.008 0 0.011v-0.001c0 0.607 0.195 1.187 0.552 1.655l3.504 4.883c0.413 0.716 0.165 1.656-0.552 2.096-0.717 0.415-1.655 0.167-2.096-0.552-0.131-0.222-0.209-0.489-0.209-0.775 0-0.54 0.278-1.015 0.699-1.29l0.006-0.004 0.056-0.028c0.275-0.193 0.359-0.552 0.165-0.828-0.11-0.162-0.29-0.269-0.496-0.276l-0.001-0c-0.103 0.002-0.198 0.033-0.278 0.085l0.002-0.001-0.055 0.028c-1.268 0.8-1.683 2.481-0.883 3.751 0.801 1.271 2.483 1.685 3.751 0.883 1.269-0.8 1.684-2.481 0.883-3.751-0.055-0.084-0.109-0.139-0.139-0.221l-3.503-4.911c-0.122-0.209-0.194-0.46-0.194-0.727 0-0.016 0-0.032 0.001-0.048l-0 0.002c0-0.855 0.689-1.517 1.517-1.517 0.827 0 1.517 0.689 1.517 1.517 0 0.525-0.276 0.993-0.717 1.297-0.028 0-0.028 0.028-0.055 0.028-0.276 0.193-0.36 0.552-0.165 0.828 0.109 0.165 0.304 0.248 0.496 0.276 0.103-0.002 0.198-0.032 0.278-0.084l-0.002 0.001 0.055-0.028c1.269-0.8 1.684-2.483 0.883-3.752-0.485-0.766-1.328-1.267-2.288-1.268h-0zM19.669 20.415c0 0 0.001 0 0.001 0 0.426 0 0.771-0.345 0.771-0.771 0-0.001 0-0.002 0-0.003v0c0-0.426-0.346-0.772-0.772-0.772s-0.772 0.346-0.772 0.772v0c0 0.443 0.357 0.773 0.772 0.773zM19.669 11.585c-0 0-0.001 0-0.001 0-0.426 0-0.771 0.345-0.771 0.771 0 0.001 0 0.002 0 0.003v-0c0 0.426 0.346 0.772 0.772 0.772s0.772-0.346 0.772-0.772v0c-0.027-0.441-0.357-0.773-0.772-0.773zM16 0c-8.828 0-16 7.172-16 16 0 8.829 7.172 16 16 16s16-7.172 16-16-7.172-16-16-16zM12.359 23.143c-0.006 0-0.012 0-0.019 0-1.92 0-3.478-1.554-3.484-3.473v-0.001c-0-0.004-0-0.009-0-0.014 0-1.435 0.865-2.667 2.101-3.205l0.023-0.009-1.463-2.041c-1.131-1.573-0.772-3.752 0.772-4.856s3.752-0.773 4.855 0.772c1.104 1.545 0.773 3.752-0.772 4.856-0.199 0.146-0.426 0.275-0.667 0.378l-0.022 0.009 1.517 2.153c0.375 0.545 0.599 1.22 0.599 1.947 0 1.194-0.604 2.248-1.524 2.871l-0.012 0.008c-0.53 0.377-1.19 0.604-1.904 0.605h-0zM22.565 17.711c1.077 1.599 0.663 3.751-0.937 4.825s-3.752 0.664-4.828-0.937c-0.375-0.546-0.598-1.22-0.598-1.947 0-1.195 0.605-2.249 1.525-2.873l0.012-0.008c0.193-0.139 0.385-0.22 0.58-0.331l-1.489-2.041c-0.414-0.569-0.662-1.281-0.662-2.052 0-1.158 0.56-2.184 1.425-2.824l0.010-0.007c0.569-0.413 1.281-0.661 2.051-0.661 1.158 0 2.185 0.56 2.825 1.425l0.007 0.010c0.413 0.569 0.661 1.281 0.661 2.051 0 1.158-0.56 2.184-1.424 2.825l-0.009 0.007c-0.2 0.146-0.427 0.276-0.668 0.378l-0.022 0.008zM11.007 13.103c-0.122-0.209-0.194-0.46-0.194-0.729 0-0.015 0-0.030 0.001-0.046l-0 0.002c0-0.855 0.689-1.517 1.517-1.517 0.856 0 1.517 0.689 1.517 1.517 0 0.525-0.276 1.021-0.717 1.297l-0.055 0.028c-0.276 0.193-0.359 0.552-0.167 0.828 0.111 0.165 0.304 0.248 0.497 0.276 0.103-0.002 0.198-0.033 0.278-0.084l-0.002 0.001 0.055-0.028c0.789-0.49 1.306-1.352 1.306-2.335 0-0.524-0.147-1.013-0.402-1.429l0.007 0.012c-0.49-0.789-1.352-1.307-2.335-1.307-0.524 0-1.013 0.147-1.429 0.402l0.012-0.007c-0.784 0.495-1.298 1.358-1.298 2.34 0 0.521 0.144 1.008 0.396 1.424l-0.007-0.012c0.056 0.084 0.111 0.167 0.165 0.221l3.503 4.884c0.139 0.221 0.193 0.497 0.193 0.771 0 0.857-0.663 1.519-1.517 1.547-0.002 0-0.004 0-0.007 0-0.842 0-1.527-0.678-1.537-1.518v-0.001c0-0.524 0.276-1.021 0.717-1.297l0.056-0.027c0.276-0.195 0.359-0.552 0.165-0.828-0.11-0.162-0.29-0.269-0.496-0.276l-0.001-0c-0.103 0.002-0.198 0.033-0.278 0.085l0.002-0.001-0.056 0.028c-1.269 0.799-1.683 2.484-0.883 3.752s2.483 1.683 3.752 0.883c0.8-0.497 1.296-1.38 1.296-2.317 0-0.607-0.193-1.185-0.552-1.656zM12.359 20.415c0.413 0 0.772-0.331 0.772-0.773-0.018-0.413-0.357-0.741-0.773-0.741s-0.755 0.328-0.773 0.74l-0 0.002c0 0.443 0.332 0.773 0.773 0.773zM12.359 11.585c-0.002-0-0.005-0-0.007-0-0.416 0-0.755 0.331-0.766 0.744l-0 0.001c0 0.415 0.332 0.773 0.745 0.773 0.415 0 0.773-0.332 0.773-0.745 0-0.007 0-0.016 0-0.024 0-0.413-0.333-0.747-0.746-0.749h-0z"></path>
</svg>
