<!-- Generated by IcoMoon.io -->
<svg version="1.1" xmlns="http://www.w3.org/2000/svg" width="32" height="32" viewBox="0 0 32 32">
<title>sublimetext</title>
<path fill="#ff9800" d="M28.32 16.080c-0.012-0.394-0.26-0.727-0.607-0.864l-0.006-0.002-9.84-3.12 9.827-3.12c0.361-0.14 0.614-0.479 0.627-0.879l0-0.002v-7.587c0.003-0.021 0.005-0.045 0.005-0.070 0-0.258-0.209-0.467-0.467-0.467-0.059 0-0.116 0.011-0.169 0.031l0.003-0.001-23.387 7.44c-0.364 0.121-0.623 0.456-0.627 0.853v7.6c0.001 0.387 0.256 0.715 0.607 0.825l0.006 0.002 9.947 3.16-9.947 3.147c-0.355 0.144-0.603 0.482-0.613 0.879l-0 0.001v7.587c-0.002 0.017-0.004 0.037-0.004 0.057 0 0.25 0.203 0.453 0.453 0.453 0.059 0 0.115-0.011 0.167-0.032l-0.003 0.001 23.413-7.427c0.357-0.112 0.612-0.439 0.613-0.827v-0z"></path>
</svg>
