<!-- Generated by IcoMoon.io -->
<svg version="1.1" xmlns="http://www.w3.org/2000/svg" width="32" height="32" viewBox="0 0 32 32">
<title>subversion</title>
<path fill="#809cc9" d="M32 27.671v-8.408c-4.38 1.728-9.816 3.408-16.307 5.048-6.045 1.527-11.277 2.627-15.693 3.3v0.060zM0 18.771v6.844c4.984-0.733 9.488-1.608 13.507-2.623 3.949-0.997 6.993-1.967 9.129-2.907 2.136-0.937 3.12-1.729 2.96-2.373-0.143-0.56-1.128-0.847-2.956-0.86-0.937 0.013-2.227 0.080-3.872 0.2-1.648 0.12-3.699 0.312-6.147 0.568-3.8 0.405-6.955 0.716-9.467 0.925-1.195 0.1-2.247 0.176-3.155 0.225zM1.38 22.704c0.080 0 0.152 0.033 0.213 0.093 0.061 0.061 0.093 0.137 0.093 0.221 0 0.088-0.032 0.16-0.093 0.224-0.063 0.060-0.139 0.088-0.219 0.088-0.043 0-0.085-0.008-0.123-0.024-0.040-0.016-0.072-0.040-0.1-0.067-0.031-0.019-0.053-0.059-0.067-0.099 0-0.020-0.021-0.060-0.021-0.12 0-0.080 0.040-0.16 0.1-0.22s0.14-0.080 0.216-0.097zM2.46 22.704c0.084 0 0.156 0.033 0.22 0.093 0.060 0.061 0.088 0.137 0.088 0.221 0 0.088-0.029 0.16-0.089 0.224-0.080 0.060-0.141 0.088-0.24 0.088-0.040 0-0.080-0.008-0.12-0.024s-0.080-0.040-0.101-0.067c-0.040-0.019-0.060-0.059-0.080-0.099-0.020-0.020-0.020-0.060-0.020-0.12 0-0.080 0.019-0.16 0.080-0.22s0.139-0.080 0.219-0.080zM1.38 20.691c0.080 0 0.152 0.029 0.213 0.093 0.061 0.060 0.093 0.133 0.093 0.22 0 0.085-0.032 0.16-0.093 0.22s-0.133 0.093-0.219 0.093c-0.087 0-0.163-0.032-0.223-0.093-0.060-0.060-0.093-0.136-0.093-0.22 0-0.089 0.021-0.164 0.080-0.224s0.141-0.091 0.241-0.089zM2.46 20.691c0.084 0 0.156 0.029 0.22 0.093 0.060 0.060 0.088 0.133 0.088 0.22 0 0.085-0.029 0.16-0.089 0.22-0.080 0.060-0.141 0.093-0.24 0.093s-0.16-0.032-0.221-0.093c-0.060-0.060-0.1-0.136-0.1-0.22 0-0.089 0.019-0.164 0.080-0.224s0.139-0.091 0.219-0.091zM32 6.129v6.417c-2.18 0.133-4.907 0.369-8.184 0.712-3.32 0.36-6.027 0.64-8.124 0.82-2.101 0.2-3.617 0.301-4.547 0.32-1.817 0.040-2.787-0.2-2.927-0.739-0.14-0.6 0.94-1.4 3.26-2.36 2.32-0.98 5.4-1.96 9.2-2.92 3.34-0.84 7.12-1.58 11.32-2.2zM30.86 4.329c-4.34 0.807-8.836 1.8-13.485 2.973-7.259 1.833-13.049 3.657-17.375 5.461v-8.433z"></path>
</svg>
