<!-- Generated by IcoMoon.io -->
<svg version="1.1" xmlns="http://www.w3.org/2000/svg" width="32" height="32" viewBox="0 0 32 32">
<title>superuser</title>
<path fill="#2eace3" d="M27.817 19.305c-1.973 0.561-3.319 1.716-3.319 3.621v5.441c0 4.064-3.876 3.619-8.689 3.619h-0.74c-0.3 0-0.479-0.112-0.479-0.373v-1.864c0-0.259 0.16-0.372 0.46-0.372h0.6c2.88 0 4.9 0.633 4.9-1.68v-5.223c0-1.599 1.12-3.84 3.361-4.657 0.159-0.041 0.18-0.113 0.18-0.188s-0.040-0.185-0.18-0.26c-2.040-0.933-3.361-2.459-3.361-4.289v-5.9c0-2.276-2-4.549-4.879-4.549h-0.601c-0.3 0-0.44-0.112-0.44-0.372v-1.857c0-0.26 0.2-0.375 0.5-0.375h0.741c4.8 0 8.72 3.429 8.72 7.493v4.96c0 1.879 1.339 2.96 3.36 3.659 0.741 0.22 1.159 0.261 1.159 0.861v1.56c0.040 0.341-0.319 0.5-1.219 0.76zM10.789 31.96h-7.453c-0.3 0-0.448-0.075-0.448-0.336v-31.252c0-0.219 0.139-0.372 0.44-0.372h7.379c0.301 0 0.48 0.112 0.48 0.372v1.94c0 0.26-0.161 0.336-0.461 0.336h-3.296c-0.407 0-0.56 0.148-0.56 0.409v25.88c0 0.261 0.153 0.36 0.489 0.36h3.356c0.301 0 0.484 0.101 0.484 0.34v1.979c0.039 0.221-0.112 0.34-0.411 0.34zM17.289 14.581h-1.98c-0.483 0-0.856-0.375-0.856-0.787v-1.791c0-0.447 0.409-0.78 0.856-0.78h1.98c0.479 0 0.856 0.369 0.856 0.78v1.791c0 0.448-0.413 0.784-0.86 0.784z"></path>
</svg>
