<!-- Generated by IcoMoon.io -->
<svg version="1.1" xmlns="http://www.w3.org/2000/svg" width="32" height="32" viewBox="0 0 32 32">
<title>svgo</title>
<path fill="#14b9ff" d="M14.869 0l-0.36 1.973c-0.859 0.091-1.695 0.259-2.501 0.497l-1.085-1.685-2.091 0.867 0.424 1.959c-0.751 0.409-1.459 0.885-2.12 1.419l-1.649-1.143-1.6 1.6 1.143 1.651c-0.533 0.66-1.009 1.368-1.419 2.119l-1.96-0.424-0.867 2.089 1.687 1.087c-0.221 0.718-0.396 1.566-0.491 2.439l-0.005 0.062-1.975 0.36v2.261l1.973 0.36c0.092 0.859 0.259 1.695 0.497 2.501l-1.685 1.085 0.867 2.091 1.959-0.424c0.409 0.751 0.885 1.459 1.419 2.12l-1.143 1.649 1.6 1.6 1.651-1.143c0.66 0.533 1.368 1.009 2.119 1.419l-0.424 1.96 2.091 0.867 1.085-1.685c0.807 0.237 1.643 0.404 2.503 0.495l0.359 1.975h2.261l0.36-1.973c0.935-0.1 1.784-0.275 2.601-0.522l-0.099 0.026 1.085 1.684 2.091-0.867-0.424-1.959c0.806-0.443 1.5-0.913 2.146-1.439l-0.026 0.020 1.649 1.143 1.6-1.6-1.143-1.651c0.533-0.66 1.009-1.368 1.419-2.119l1.96 0.424 0.867-2.091-1.685-1.085c0.237-0.807 0.405-1.643 0.495-2.503l1.975-0.359v-2.261l-1.973-0.36c-0.101-0.935-0.276-1.784-0.523-2.601l0.026 0.099 1.685-1.087-0.867-2.089-1.959 0.424c-0.443-0.806-0.913-1.5-1.439-2.146l0.020 0.026 1.143-1.649-1.6-1.6-1.651 1.143c-0.66-0.533-1.368-1.009-2.119-1.419l0.424-1.96-2.091-0.867-1.085 1.685c-0.718-0.221-1.567-0.395-2.441-0.489l-0.062-0.005-0.359-1.975zM16 3.74c6.772 0 12.261 5.49 12.261 12.261s-5.49 12.261-12.261 12.261v0c-6.772 0-12.261-5.49-12.261-12.261s5.49-12.261 12.261-12.261v0zM16 5.031c-6.058 0-10.969 4.911-10.969 10.969s4.911 10.969 10.969 10.969v0c6.058 0 10.969-4.911 10.969-10.969s-4.911-10.969-10.969-10.969v0zM15.367 7.673c0 0 0 0 0 0 0.474 0 0.858 0.384 0.859 0.857v0c-0 0.205-0.073 0.394-0.193 0.542l0.001-0.002 1.819 1.835c0.184-0.155 0.424-0.249 0.685-0.249h0c0.109 0 0.215 0.017 0.314 0.047l-0.008-0.002 0.511-1.291c-0.274-0.147-0.457-0.431-0.457-0.759v-0c0.001-0.474 0.385-0.857 0.859-0.857 0 0 0 0 0 0v0c0 0 0 0 0 0 0.474 0 0.858 0.384 0.859 0.857v0c0 0.474-0.384 0.859-0.859 0.859v0c-0.081-0.001-0.159-0.012-0.233-0.034l0.006 0.002-0.512 1.293c0.354 0.18 0.592 0.541 0.593 0.957v0c0 0.593-0.481 1.073-1.073 1.073v0c-0.297-0.001-0.566-0.122-0.76-0.317l-0-0-1.619 1.351c0.275 0.356 0.44 0.809 0.441 1.3v0c-0 0.602-0.248 1.146-0.648 1.536l-0 0 1.167 1.307c0.254-0.202 0.579-0.324 0.932-0.324v0c0.829 0.001 1.501 0.672 1.501 1.501v0c-0.001 0.125-0.017 0.247-0.046 0.362l0.002-0.010 2.075 0.697c0.175-0.369 0.544-0.62 0.972-0.62h0c0.592 0.001 1.072 0.481 1.072 1.073 0 0 0 0 0 0v0c-0.001 0.592-0.48 1.071-1.072 1.072h-0c-0.592 0-1.073-0.48-1.073-1.072v-0c0-0.099 0.014-0.194 0.039-0.285l-0.002 0.008-2.067-0.693c-0.221 0.571-0.764 0.969-1.401 0.971h-0c-0.257-0-0.498-0.065-0.709-0.179l0.008 0.004-0.928 1.717c0.292 0.194 0.482 0.522 0.483 0.893v0c0 0 0 0.001 0 0.001 0 0.592-0.48 1.073-1.072 1.073h-0c-0.593 0-1.073-0.481-1.073-1.073v0c0-0.593 0.481-1.073 1.073-1.073v0c0.154 0 0.3 0.032 0.432 0.091l-0.007-0.003 0.933-1.725c-0.39-0.275-0.642-0.722-0.643-1.229v-0c0-0.41 0.165-0.781 0.431-1.052l-0 0-1.168-1.308c-0.366 0.301-0.84 0.484-1.356 0.485h-0c-0.438-0.001-0.846-0.132-1.185-0.358l0.008 0.005-1.040 1.443c0.337 0.277 0.55 0.694 0.551 1.16v0c0 0.83-0.673 1.503-1.503 1.503v0c-0.83 0-1.503-0.673-1.503-1.503v0c0.001-0.829 0.673-1.501 1.503-1.501 0 0 0 0 0 0v0c0.297 0 0.573 0.087 0.806 0.236l-0.006-0.004 1.040-1.444c-0.499-0.396-0.816-1.001-0.817-1.681v-0c0.001-0.175 0.023-0.344 0.063-0.505l-0.003 0.015-2.24-0.631c-0.157 0.408-0.545 0.692-1 0.693h-0c-0.592 0-1.073-0.48-1.073-1.072v-0c0-0.592 0.48-1.073 1.072-1.073h0c0.593 0 1.073 0.481 1.073 1.073v0c0 0 0 0 0 0.001 0 0.070-0.007 0.139-0.020 0.206l0.001-0.007 2.236 0.628c0.291-0.863 1.093-1.474 2.037-1.475h0c0.627 0.001 1.191 0.271 1.582 0.701l0.002 0.002 1.619-1.351c-0.12-0.171-0.193-0.383-0.193-0.612v-0c0-0 0-0.001 0-0.001 0-0.265 0.096-0.507 0.255-0.694l-0.001 0.002-1.816-1.833c-0.145 0.116-0.332 0.187-0.535 0.187-0 0-0 0-0 0v0c-0.474 0-0.859-0.384-0.859-0.859v0c0.001-0.474 0.385-0.857 0.859-0.857 0 0 0 0 0 0v0z"></path>
</svg>
