<!-- Generated by IcoMoon.io -->
<svg version="1.1" xmlns="http://www.w3.org/2000/svg" width="32" height="32" viewBox="0 0 32 32">
<title>swarm</title>
<path fill="#ffa633" d="M16.489 11.673l0.005-0.007c-0.040-0.077-0.184-0.4-0.213-0.485v-0.003c-4.511-9.213-14.529-8.885-16.111-4.765-1.213 3.164 4.096 10.701 16.319 5.26zM13.2 25.643c-0.795-1.792-1.229-3.733-1.276-5.68-1.285 1.987-2.253 3.983-2.901 5.472-0.031 0.060-0.507 1.24-0.643 1.6-0.173 0.44 0.060 0.979 0.511 1.139 0.364 0.139 1.553 0.56 1.627 0.6 1.52 0.499 3.621 1.12 5.941 1.501-1.38-1.323-2.48-2.901-3.26-4.661zM18.52 10.823c6.907-3.075 5.941-8.413 4.155-9.1-2.405-0.924-6.773 2.632-4.273 8.827 0.021 0.044 0.12 0.227 0.119 0.273zM31.217 17.581v-0.011c-1.048-2.352-2.968-4.032-5.196-4.832-0.224-0.084-0.453-0.12-0.68-0.12-1.16 0-2.276 0.964-2.38 2.168-0.179 2.008 0.22 4.053 1.1 6.021 0.861 1.947 2.088 3.587 3.667 4.795 0.413 0.32 0.912 0.48 1.417 0.48 0.903 0 1.805-0.48 2.164-1.34 0.917-2.2 0.963-4.781-0.092-7.161zM25.976 27.891h-0.005c-1.927-1.48-3.459-3.467-4.547-5.907-1.101-2.48-1.552-4.984-1.339-7.448 0.060-0.688 0.259-1.349 0.584-1.953l-0.183 0.047c-1.019 0.253-2 0.693-2.875 1.271-1.267 0.833-2.384 2.067-2.867 3.528-0.129 0.397-0.227 0.827-0.257 1.24-0.155 1.973 0.168 4.013 1.027 5.949 0.835 1.872 2.083 3.432 3.583 4.62 0.912 0.729 2.56 1.187 3.907 1.187 1.267 0 2.516-0.36 3.64-0.939 0.351-0.183 1.12-0.657 1.171-0.699-0.667-0.163-1.297-0.46-1.84-0.88z"></path>
</svg>
