<!-- Generated by IcoMoon.io -->
<svg version="1.1" xmlns="http://www.w3.org/2000/svg" width="32" height="32" viewBox="0 0 32 32">
<title>swift</title>
<path fill="#fa7343" d="M29.312 21.797c0.075-0.149 0.075-0.299 0.149-0.448 1.795-7.029-2.468-15.253-9.796-19.591 3.216 4.337 4.487 9.496 3.365 14.132-0.075 0.373-0.224 0.823-0.373 1.196-0.237-0.132-0.433-0.255-0.622-0.388l0.022 0.015c0 0-7.252-4.487-15.027-12.337-0.225-0.224 4.187 6.28 9.121 11.44-2.317-1.347-8.897-6.056-13.011-9.871 0.449 0.823 1.123 1.645 1.795 2.468 3.44 4.412 7.927 9.795 13.311 13.907-3.813 2.32-9.123 2.468-14.507 0-1.347-0.597-2.467-1.345-3.739-2.243 2.243 3.515 5.757 6.731 9.945 8.449 5.009 2.169 10.093 2.020 13.757 0h0.076c0.149-0.075 0.299-0.149 0.448-0.299 1.795-0.897 5.309-1.869 7.253 1.869 0.523 1.047 1.495-3.813-2.169-8.3z"></path>
</svg>
