<!-- Generated by IcoMoon.io -->
<svg version="1.1" xmlns="http://www.w3.org/2000/svg" width="32" height="32" viewBox="0 0 32 32">
<title>symantec</title>
<path fill="#fdb511" d="M30.503 0v0.984h0.984v-0.984zM30.503 0.984h-0.984v0.985h0.984zM30.503 1.969v0.984h0.984v-0.984zM29.519 1.969h-1.969v0.984h-0.984v1.967h-0.984v0.987h-1.972v0.967c-2.409-1.98-5.523-3.18-8.918-3.18-0.009 0-0.017 0-0.026 0h0.001c-7.819 0-14.153 6.333-14.153 14.153 0 7.817 6.335 14.153 14.153 14.153s14.153-6.336 14.153-14.153c0-3.413-1.205-6.541-3.216-8.985h0.96v-0.984h0.987v-1.971h0.983v-0.987h0.985v-0.984h-0.985v-0.984h0.985zM25.581 4.92v-0.984h-0.987v0.984zM14.667 8.205c0.004 0 0.009 0 0.014 0 2.001 0 3.859 0.613 5.397 1.661l-0.033-0.021h-0.373v0.985h-0.983c-2.569 3.212-3.219 4.621-4.243 7.219-1.161-2.351-2.548-3.971-4.948-5.044l-0.027-0.008c-0.436-0.111-0.657-0.167-0.957 0.253-0.307 0.429-0.123 0.817 0.244 1.273 0.319 0.393 0.574 0.698 0.834 0.999l-0.052-0.062c0.729 0.861 1.46 1.719 2.011 2.713 0.544 0.984 1.169 2.363 1.656 3.432 0.297 0.653 0.541 1.192 0.68 1.451 0.293 0.541 1.003 0.779 1.273 0.779 1.313-0.156 1.44-0.776 1.656-1.839l0.076-0.352c0.448-2.099 1.028-4.271 3.765-6.877v-0.981h0.984v-0.987h0.987v-0.393c1.052 1.517 1.68 3.396 1.68 5.422 0 0.006 0 0.012-0 0.019v-0.001c0 5.32-4.32 9.64-9.64 9.64s-9.6-4.32-9.6-9.64 4.28-9.64 9.6-9.641z"></path>
</svg>
