<!-- Generated by IcoMoon.io -->
<svg version="1.1" xmlns="http://www.w3.org/2000/svg" width="32" height="32" viewBox="0 0 32 32">
<title>symfony</title>
<path d="M32 16c0 8.837-7.163 16-16 16s-16-7.163-16-16 7.163-16 16-16 16 7.163 16 16zM22.996 5.919c-1.627 0.056-3.044 0.953-4.1 2.192-1.171 1.36-1.948 2.972-2.508 4.615-1.004-0.819-1.776-1.885-3.385-2.348-1.288-0.396-2.687-0.14-3.751 0.685-0.547 0.425-0.947 1.009-1.148 1.672-0.48 1.568 0.508 2.967 0.959 3.467l0.983 1.053c0.2 0.205 0.692 0.747 0.452 1.517-0.257 0.841-1.268 1.383-2.309 1.065-0.464-0.141-1.131-0.488-0.979-0.973 0.060-0.2 0.203-0.351 0.28-0.521 0.069-0.147 0.103-0.259 0.127-0.323 0.188-0.62-0.071-1.427-0.735-1.631-0.62-0.191-1.252-0.040-1.5 0.755-0.279 0.907 0.156 2.551 2.48 3.265 2.72 0.837 5.020-0.645 5.345-2.576 0.204-1.209-0.34-2.109-1.341-3.263l-0.816-0.903c-0.495-0.493-0.663-1.336-0.152-1.98 0.432-0.545 1.047-0.779 2.052-0.505 1.471 0.4 2.125 1.417 3.216 2.24-0.451 1.48-0.747 2.964-1.012 4.296l-0.164 0.995c-0.78 4.093-1.377 6.343-2.925 7.635-0.312 0.221-0.76 0.555-1.431 0.579-0.355 0.007-0.469-0.235-0.473-0.343-0.008-0.245 0.2-0.361 0.34-0.471 0.205-0.111 0.52-0.299 0.496-0.899-0.021-0.709-0.608-1.325-1.459-1.297-0.636 0.023-1.604 0.62-1.568 1.715 0.037 1.133 1.092 1.98 2.683 1.925 0.851-0.028 2.749-0.375 4.619-2.599 2.177-2.548 2.787-5.468 3.245-7.608l0.511-2.821c0.284 0.032 0.588 0.056 0.92 0.064 2.709 0.059 4.065-1.347 4.085-2.368 0.013-0.619-0.405-1.228-0.992-1.213-0.515 0.012-0.957 0.371-1.075 0.872-0.125 0.571 0.861 1.084 0.091 1.585-0.547 0.355-1.528 0.603-2.912 0.4l0.251-1.389c0.515-2.635 1.145-5.876 3.548-5.956 0.176-0.009 0.816 0.008 0.831 0.431 0.004 0.14-0.029 0.179-0.196 0.5-0.153 0.207-0.232 0.46-0.224 0.716 0.023 0.672 0.533 1.115 1.276 1.088 0.991-0.031 1.273-0.997 1.26-1.492-0.043-1.165-1.269-1.899-2.893-1.848z"></path>
</svg>
