<!-- Generated by IcoMoon.io -->
<svg version="1.1" xmlns="http://www.w3.org/2000/svg" width="32" height="32" viewBox="0 0 32 32">
<title>synology</title>
<path fill="#b6b5b6" d="M23.86 15.903c0.002-0.749 0.196-1.451 0.536-2.062l-0.011 0.022-0.011 0.023c0.329-0.627 0.819-1.131 1.416-1.468l0.018-0.009 0.019-0.009c0.583-0.321 1.277-0.509 2.015-0.509 0.005 0 0.011 0 0.016 0h0.062q1.795 0 2.933 1.161t1.147 2.937c0 1.193-0.387 2.18-1.156 2.968s-1.741 1.181-2.911 1.181c-0.755 0-1.467-0.183-2.095-0.505l0.025 0.012c-0.636-0.315-1.146-0.804-1.478-1.405l-0.009-0.017-0.009-0.017q-0.507-0.944-0.508-2.301zM25.984 16.013c0 0.788 0.184 1.391 0.56 1.799 0.336 0.388 0.829 0.632 1.378 0.632 0.549 0 1.041-0.243 1.374-0.627l0.002-0.002 0.001-0.003c0.367-0.409 0.551-1.019 0.551-1.809s-0.184-1.377-0.551-1.789c-0.337-0.385-0.829-0.627-1.378-0.627s-1.040 0.241-1.375 0.623l-0.002 0.002-0.001 0.003c-0.375 0.408-0.56 1.011-0.56 1.799zM23.848 19.935h-2.075v-4.020c0-0.847-0.043-1.392-0.135-1.645-0.084-0.24-0.236-0.439-0.434-0.578l-0.008-0.005c-0.194-0.13-0.433-0.208-0.691-0.208-0.001 0-0.003 0-0.004 0h-0.050c-0.36 0-0.695 0.112-0.969 0.304l0.005-0.004c-0.274 0.182-0.482 0.447-0.589 0.758l-0.003 0.010-0.003 0.011c-0.111 0.331-0.161 0.928-0.161 1.812v3.564h-2.065v-7.897h1.919v1.156c0.691-0.875 1.556-1.307 2.603-1.307h0.028c0.447 0 0.873 0.089 1.261 0.252l-0.021-0.008c0.348 0.14 0.64 0.357 0.864 0.633l0.003 0.004c0.188 0.247 0.329 0.539 0.405 0.857l0.003 0.016c0.076 0.371 0.119 0.796 0.119 1.232l-0.003 0.18v-0.009zM8.551 12.037h2.205l1.883 5.605 1.835-5.605h2.148l-2.756 7.591-0.507 1.384c-0.153 0.412-0.333 0.767-0.546 1.098l0.013-0.022 0.013-0.023c-0.152 0.233-0.339 0.429-0.556 0.586l-0.006 0.004-0.007 0.004c-0.227 0.151-0.489 0.271-0.771 0.347l-0.019 0.004c-0.309 0.085-0.665 0.133-1.032 0.133h-0.032c-0.431-0.002-0.85-0.052-1.252-0.147l0.037 0.007 0.037 0.007-0.172-1.639c0.264 0.061 0.568 0.099 0.879 0.103h0.003c0.48 0 0.837-0.141 1.067-0.424 0.235-0.304 0.417-0.664 0.522-1.055l0.005-0.021 0.005-0.021zM0 16.387l2.123-0.199q0.196 1.069 0.781 1.575t1.589 0.5c0.704 0 1.236-0.151 1.596-0.447s0.533-0.648 0.533-1.043v-0.032c0-0.001 0-0.002 0-0.002 0-0.239-0.084-0.459-0.224-0.631l0.001 0.002 0.001 0.001c-0.151-0.176-0.412-0.336-0.787-0.463-0.257-0.099-0.841-0.255-1.749-0.487-1.176-0.288-1.995-0.648-2.467-1.072-0.613-0.528-0.999-1.305-0.999-2.173 0-0.001 0-0.001 0-0.002v0-0.037c0-0.575 0.176-1.108 0.477-1.551l-0.007 0.009c0.327-0.488 0.782-0.867 1.318-1.094l0.019-0.007 0.020-0.007c0.589-0.245 1.297-0.375 2.136-0.375q2.039 0 3.072 0.901c0.688 0.609 1.047 1.409 1.081 2.412l-2.199 0.073c-0.097-0.551-0.292-0.952-0.603-1.199s-0.772-0.368-1.379-0.368c-0.635 0-1.133 0.131-1.491 0.397-0.211 0.143-0.348 0.382-0.348 0.653 0 0 0 0 0 0v-0 0.016c0 0.268 0.127 0.505 0.323 0.657l0.001 0.001c0.273 0.239 0.945 0.48 2.009 0.728s1.851 0.516 2.359 0.787c0.499 0.261 0.904 0.64 1.191 1.1l0.008 0.013c0.285 0.46 0.435 1.048 0.435 1.74 0 0.652-0.195 1.259-0.528 1.767l0.008-0.012c-0.352 0.544-0.853 0.965-1.445 1.211l-0.021 0.008c-0.633 0.259-1.42 0.397-2.363 0.397-1.372 0-2.425-0.321-3.164-0.963s-1.172-1.569-1.311-2.788z"></path>
</svg>
