<!-- Generated by IcoMoon.io -->
<svg version="1.1" xmlns="http://www.w3.org/2000/svg" width="32" height="32" viewBox="0 0 32 32">
<title>t-mobile</title>
<path fill="#e20074" d="M18.296 1.539h0.773c4.987 0 7.311 2.609 8.281 9.565l1.545-0.067-0.207-11.037h-25.377l-0.249 11.037 1.485 0.067c0.257-2.608 0.567-4.013 1.236-5.419 1.184-2.608 3.656-4.147 6.693-4.147h1.081v24.013c0 2.543-0.155 3.345-0.772 3.947-0.515 0.468-1.544 0.669-2.729 0.669h-1.184v1.605h14.108v-1.605h-1.191c-1.177 0-2.213-0.201-2.721-0.669-0.619-0.601-0.773-1.405-0.773-3.947v-24.013zM2.667 14.5h6.507v6.493h-6.507zM22.576 14.5h6.507v6.493h-6.507z"></path>
</svg>
