<!-- Generated by IcoMoon.io -->
<svg version="1.1" xmlns="http://www.w3.org/2000/svg" width="32" height="32" viewBox="0 0 32 32">
<title>tails</title>
<path fill="#56347c" d="M28.475 14.883v5.307c0 0.163-0.108 0.205-0.241 0.095l-2.709-2.243c-0.137-0.123-0.227-0.297-0.241-0.491l-0-0.002v-0.668l-0.847-0.688c-0.907-0.739-1.635-2.236-1.635-3.333 0-1.096 0.732-1.381 1.635-0.637l0.847 0.688v-0.669c0-0.163 0.108-0.205 0.241-0.095l2.709 2.243c0.133 0.109 0.241 0.331 0.241 0.495zM24.484 13.196c-0.477-0.395-0.864-0.243-0.864 0.337s0.387 1.369 0.864 1.764l0.799 0.648v-2.101zM28.269 26.579l0.017-0.013c0.018-0.015 0.034-0.031 0.049-0.048l0-0 0.005-0.005c0.015-0.018 0.029-0.038 0.041-0.059l0.001-0.002 0.009-0.017c0.009-0.016 0.017-0.034 0.024-0.053l0.001-0.003 0.005-0.013c0.007-0.021 0.013-0.045 0.017-0.071l0-0.002v-0.019l0.004-0.036 0.004-0.203-6.964-5.707 0.029-17.213-0.201-0.152-0.045-0.027c-0.009-0.005-0.019-0.013-0.029-0.017l-0.040-0.013c-0.013-0.005-0.027-0.012-0.040-0.015l-0.035-0.005c-0.017-0.003-0.035-0.007-0.052-0.007h-0.005l-0.031 0.001c-0.017 0-0.033 0.001-0.049 0.004l-0.040 0.009c-0.013 0.004-0.028 0.007-0.041 0.013-0.013 0.004-0.027 0.011-0.039 0.016l-0.039 0.020c-0.007 0.005-0.013 0.009-0.019 0.014l0.001-0c-0.016 0.005-0.032 0.009-0.047 0.017l-4.592 2.301 0.96 0.76 0.036 13.423-6.995-5.76-0.004-6.988-0.004-6.271-0.001-0.013c-0.001-0.017-0.003-0.033-0.006-0.049l0 0.002c-0.001-0.013-0.003-0.027-0.007-0.040l-0.011-0.040c-0.007-0.013-0.011-0.029-0.020-0.044l-0.003-0.012-0.013-0.020c-0.008-0.013-0.016-0.028-0.027-0.041l-0.024-0.031c-0.029-0.032-0.061-0.059-0.097-0.082l-0.002-0.001c-0.009-0.006-0.021-0.013-0.033-0.019l-0.002-0.001c-0.013-0.005-0.027-0.013-0.040-0.017-0.023-0.009-0.050-0.016-0.078-0.021l-0.003-0-0.047-0.005-0.027-0.003-0.012 0.001c-0.018 0.001-0.034 0.003-0.050 0.006l0.002-0c-0.013 0.001-0.027 0.003-0.040 0.007-0.013 0.003-0.025 0.008-0.039 0.012-0.018 0.005-0.032 0.011-0.046 0.017l0.002-0.001-0.012 0.005-5.785 2.9c-0.039 0.023-0.073 0.050-0.102 0.081l-0 0c-0.028 0.030-0.052 0.064-0.070 0.102l-0.001 0.002c-0.011 0.022-0.021 0.049-0.030 0.076l-0.001 0.004c-0.007 0.026-0.012 0.055-0.013 0.086l-0 0.001c-0.001 0.008-0.004 0.017-0.003 0.027l0.008 13.477v0.027l0.003 0.011c0 0.020 0.004 0.040 0.008 0.059l0.003 0.012 0.005 0.015c0.008 0.028 0.017 0.052 0.028 0.075l-0.001-0.003v0.001h0.001c0.012 0.024 0.027 0.045 0.041 0.067l0.009 0.013 0.008 0.008c0.013 0.015 0.027 0.029 0.041 0.042l0 0 0.008 0.008c0.005 0.004 0.011 0.007 0.013 0.011 0.003 0 0.004 0.004 0.007 0.005l6.267 5.212-0.143 3.564v0.051l0.005 0.033 0.003 0.020c0 0.007 0.003 0.013 0.005 0.020 0 0.005 0.003 0.009 0.004 0.015l0.001 0.007 0.004 0.013c0.007 0.019 0.013 0.037 0.023 0.053v0.003c0.013 0.025 0.027 0.046 0.042 0.066l-0.001-0.001 0.008 0.011 0.007 0.007c0.015 0.019 0.032 0.036 0.049 0.052l0 0 0.007 0.004 0.004 0.003 0.004 0.005 7.089 5.616c0.133 0.104 0.315 0.123 0.467 0.047l10.656-5.336c0.023-0.012 0.043-0.025 0.061-0.039l-0.001 0.001zM7.3 14.647l-2.208-1.705v1.467l1.125 0.78-1.856 0.931-0.008-12.501 2.901-1.453 0.031 3.189-2.061-1.648v1.467l2.072 1.647 0.032 1.576-2.127-1.701v1.467l2.137 1.7-0.008 1.711-2.097-1.676v1.467l2.107 1.675 0.013 1.583zM11.877 22.697l-7.079-5.82 4.891-2.449 7.079 5.82zM8.164 1.709l0.977-0.489 0.105 12.453-0.977 0.488zM11.489 11.195l-0.001-2.12 1.745 1.365 0.001 2.121zM13.235 8.757l-1.747-1.367v-2.121l1.745 1.367zM14.691 7.755c0.676 0.861 1.368 2.543 1.368 4.097 0 1.553-0.692 2.083-1.368 1.816z"></path>
</svg>
