<!-- Generated by IcoMoon.io -->
<svg version="1.1" xmlns="http://www.w3.org/2000/svg" width="32" height="32" viewBox="0 0 32 32">
<title>tapas</title>
<path fill="#ffce00" d="M10.227 2.080c0.376-0.179 0.723-0.451 1.080-0.684 0.337-0.217 0.72-0.581 1.192-0.44 0.137 0.395-0.216 0.671-0.441 0.883-0.717 0.681-1.539 1.3-2.293 1.941-2.031 1.734-4.558 3.812-7.117 5.852l-0.647 0.498c-0.237 0.193-0.503 0.389-0.779 0.57l-0.037 0.023c-0.244 0.157-0.608 0.479-0.947 0.22 0.095-0.449 0.408-0.756 0.683-1.037 0.284-0.288 0.552-0.595 0.839-0.88-0.331-0.569-0.631-1.095-0.883-1.699-0.248-0.599-0.504-1.295-0.507-2.072-0.003-1.479 0.847-2.724 1.787-3.573 0.964-0.869 2.252-1.595 3.749-1.675 2.115-0.112 3.339 0.939 4.321 2.072zM16.909 26.18v0.264c-0.371 0.013-0.709-0.013-1.060-0.021v-0.264c0.369-0.011 0.713 0.008 1.060 0.021zM14.789 26.18v0.264c-0.376-0.016-0.693 0.028-1.056 0.024v-0.264c0.244-0.017 0.529-0.026 0.816-0.026 0.084 0 0.168 0.001 0.252 0.002l-0.013-0zM19.025 26.247c-0.009 0.089 0.017 0.211-0.023 0.265-0.335-0.027-0.691-0.032-1.037-0.044v-0.264c0.367 0.004 0.723 0.012 1.060 0.043zM12.675 26.247v0.265c-0.365 0.003-0.683 0.052-1.060 0.043v-0.263c0.373 0.001 0.688-0.048 1.060-0.045zM20.081 26.292c0.34 0.044 0.725 0.039 1.057 0.085 0.017 0.112-0.019 0.172-0.020 0.267-0.34-0.044-0.725-0.040-1.059-0.089 0.015-0.062 0.023-0.133 0.023-0.206 0-0.020-0.001-0.039-0.002-0.059l0 0.003zM10.559 26.379v0.267c-0.347 0.027-0.689 0.061-1.037 0.087-0.029-0.067-0.024-0.168-0.023-0.264 0.353-0.032 0.695-0.071 1.060-0.089zM22.199 26.468c0.359 0.031 0.716 0.064 1.057 0.109-0.027 0.077-0.005 0.197-0.043 0.265-0.333-0.048-0.691-0.071-1.037-0.111-0.013-0.111 0.023-0.171 0.023-0.264zM8.44 26.577c-0.008 0.107 0.040 0.151 0.023 0.265-0.345 0.029-0.757 0.109-1.057 0.109 0.016-0.103-0.027-0.152-0.024-0.243 0.336-0.060 0.705-0.088 1.059-0.132zM25.352 26.843c0.016 0.112-0.036 0.152-0.023 0.261-0.341-0.059-0.72-0.084-1.059-0.152 0.013-0.077 0.033-0.145 0.023-0.243 0.304 0.011 0.727 0.083 1.059 0.133zM6.301 26.843c0.080 0.029 0.044 0.177 0.067 0.261-0.345 0.053-0.689 0.107-1.036 0.156-0.027-0.078-0.043-0.168-0.045-0.262l-0-0.001c0.337-0.051 0.687-0.096 1.015-0.155zM27.448 27.153c0 0.004 0 0.008 0 0.012 0 0.097-0.017 0.191-0.047 0.278l0.002-0.006c-0.329-0.073-0.693-0.111-1.036-0.176 0.003-0.095 0.019-0.185 0.047-0.269l-0.002 0.007c0.351 0.043 0.671 0.12 1.036 0.155zM4.229 27.175c0.027 0.076 0.048 0.155 0.045 0.261-0.351 0.053-0.671 0.14-1.037 0.177-0.005-0.097-0.045-0.16-0.044-0.263 0.367-0.037 0.687-0.123 1.036-0.176zM28.507 27.351c0.34 0.069 0.677 0.145 1.037 0.197-0.005 0.096-0.045 0.159-0.045 0.263-0.373-0.028-0.66-0.147-1.037-0.177-0.024-0.055 0.021-0.2 0.045-0.283zM30.225 22.301c0.208 0.123 0.627 0.131 0.793 0.328 0.132 0.153 0.192 0.648 0.243 0.992 0.271 1.728 0.383 3.744 0.443 5.625 0.011 0.355 0.021 0.777 0.021 1.188 0 0.397 0.080 0.939 0 1.213-0.055 0.196-0.32 0.259-0.484 0.352 0-0.051 0-0.112 0-0.172 0-1.273-0.032-2.538-0.094-3.795l0.007 0.177c-0.165-0.135-0.592-0.063-0.619-0.221-0.059-0.336 0.356-0.12 0.596-0.087-0.060-1.696-0.236-3.28-0.44-4.831-0.196-0.099-0.448-0.14-0.664-0.219-0.336 0.345-0.848 1.252-1.631 1.080-0.293-0.063-0.484-0.456-0.619-0.727-0.146-0.285-0.268-0.616-0.348-0.963l-0.006-0.029c-6.507-1.248-15.452-1.355-22.003-0.067-0.204 0.873-0.573 2.737-1.787 2.027-0.49-0.312-0.866-0.766-1.074-1.303l-0.006-0.018c-0.163 0.050-0.409 0.111-0.657 0.164l-0.073 0.013c-0.256 1.445-0.384 3.024-0.461 4.652 0.221 0.013 0.555-0.163 0.793-0.133 0.005 0.088 0.037 0.152 0.044 0.24-0.221 0.141-0.583 0.14-0.86 0.221-0.058 0.993-0.091 2.153-0.091 3.322 0 0.227 0.001 0.454 0.004 0.68l-0-0.034c-0.107 0.029-0.364-0.163-0.463-0.284 0.085-3.068 0.239-6.071 0.484-8.976 0.373-0.116 0.757-0.227 1.125-0.352-0.053-0.511-0.156-1.103 0.067-1.453 0.187-0.299 0.708-0.469 1.080-0.576 1.32-0.373 2.639-0.067 3.507 0.551 0.187 0.136 0.329 0.319 0.528 0.399 0.033-0.12-0.125-0.2-0.199-0.265-0.756-0.681-1.997-1.277-3.483-1.015-0.464-1.453-1.053-2.856-1.059-4.717-0.007-2.071 0.749-3.865 1.607-5.271 0.88-1.437 2.055-2.605 3.331-3.527 2.473-1.782 5.565-2.85 8.905-2.85 0.662 0 1.314 0.042 1.953 0.123l-0.076-0.008c4.013 0.492 6.677 2.387 8.6 5.137 0.92 1.32 1.664 2.899 2.16 4.699 0.499 1.803 0.504 4.131-0.067 6.040-1.844-0.377-3.516 0.2-4.167 1.368-0.005 0.020-0.021 0.023-0.021 0.044 0.664-0.904 2.315-1.557 3.968-1.147 0.437 0.109 0.995 0.267 1.211 0.573 0.299 0.423 0.163 1.319-0.021 1.831zM21.627 12.509c0.073 0.511 0.303 1.044 0.593 1.259 0.501 0.36 0.803 0.001 0.84-0.507 0.047-0.672-0.232-1.467-0.575-1.765-0.14-0.12-0.399-0.193-0.549-0.153-0.341 0.087-0.377 0.704-0.309 1.167zM10.095 13.965c-0.044 0.741 0.213 1.703 0.705 1.963 0.573 0.303 0.844-0.127 0.881-0.66 0.060-0.835-0.364-2.285-1.147-2.14-0.333 0.063-0.417 0.452-0.44 0.837zM19.201 17.404c-0.355 0.080-0.844-0.077-1.235-0.156-0.215-0.051-0.627-0.128-1.041-0.195l-0.172-0.023c-0.756-0.117-1.792-0.281-2.533 0.133-0.264 0.147-0.592 0.468-0.62 0.883-0.036 0.613 0.456 1.055 0.816 1.324 0.431 0.316 0.884 0.532 1.456 0.703 1.223 0.371 3.057 0.471 4.1 0.023 0.98-0.421 2.275-1.416 2.293-2.733 0.013-0.787-0.363-1.492-1.145-1.389-0.867 0.113-1.176 1.268-1.919 1.432z"></path>
</svg>
