<!-- Generated by IcoMoon.io -->
<svg version="1.1" xmlns="http://www.w3.org/2000/svg" width="32" height="32" viewBox="0 0 32 32">
<title>teamviewer</title>
<path fill="#0e8ee9" d="M30.129 32h-28.255c-1.034-0.003-1.872-0.841-1.875-1.874v-28.251c0.003-1.034 0.841-1.872 1.874-1.875h28.255c1.034 0.003 1.872 0.841 1.875 1.874v28.251c-0.003 1.034-0.841 1.872-1.874 1.875h-0zM15.881 2.812c-7.207 0.063-13.017 5.976-13.069 13.187-0.053 7.343 5.841 13.18 13.187 13.187 7.22 0.004 13.061-6 13.187-13.187 0.129-7.429-5.875-13.252-13.304-13.187zM12.867 11.511l-1.185 2.879h8.719l-1.185-2.879 8.856 4.487-8.856 4.487 1.185-2.879h-8.719l1.176 2.879-8.879-4.487z"></path>
</svg>
