<!-- Generated by IcoMoon.io -->
<svg version="1.1" xmlns="http://www.w3.org/2000/svg" width="32" height="32" viewBox="0 0 32 32">
<title>teespring</title>
<path fill="#39ace6" d="M31.813 1.269c0.039 0 0.075 0.005 0.093 0.015 0.020 0.012 0.031 0.036 0.031 0.081l-1.684 8.203v0.039h-0.079c-0.012 0-0.060 0-0.139-0.021h-0.059c-0.109-0.019-0.2-0.037-0.287-0.059-0.084-0.020-0.179-0.020-0.279-0.020-0.729-0.12-1.447-0.219-2.151-0.3-0.711-0.080-1.417-0.139-2.125-0.18l-0.499 10.481-0.092-0.16c0-0.021-0.021-0.021-0.021-0.040l-0.020-0.021c-0.021 0-0.039 0-0.059-0.019-0.021-0.021-0.021-0.040-0.021-0.060-0.040-0.021-0.080-0.041-0.099-0.081-0.021-0.020-0.061-0.060-0.1-0.081-0.12-0.099-0.24-0.197-0.379-0.297-0.159-0.1-0.299-0.2-0.439-0.28l-0.239-0.119-0.219-0.12c-0.021 0-0.040 0-0.060-0.021l-0.020-0.039 0.459-10.937h0.157c0.16 0 0.34 0 0.52 0.019 0.179 0.021 0.377 0.021 0.557 0.021l1.096 0.060c0.359 0.021 0.716 0.060 1.075 0.1l0.559 0.059 0.539 0.060h0.121c0.047 0 0.12 0.021 0.197 0.039 0.101 0.021 0.22 0.040 0.339 0.040 0.121 0.021 0.22 0.021 0.28 0.061l0.996-4.921c-0.020 0-0.048 0-0.088-0.020l-0.16-0.061c-0.696-0.139-1.415-0.257-2.133-0.377-0.716-0.099-1.439-0.18-2.171-0.239-0.557-0.061-1.131-0.1-1.713-0.12-0.568-0.020-1.155-0.040-1.733-0.040h-1.056c0 0.040 0 0.081-0.020 0.12l-0.060 0.197-0.057 0.187c-0.021 0.119-0.060 0.259-0.115 0.379-0.055 0.139-0.099 0.257-0.139 0.377-0.129 0.24-0.259 0.459-0.395 0.657-0.136 0.22-0.275 0.417-0.419 0.637-0.333 0.4-0.708 0.739-1.125 1.036-0.408 0.3-0.857 0.539-1.335 0.717-0.327 0.12-0.665 0.22-1.016 0.28-0.339 0.060-0.684 0.099-1.035 0.099-0.188 0-0.379 0-0.579-0.021-0.2-0.019-0.391-0.039-0.579-0.079-0.539-0.099-1.057-0.279-1.544-0.537-0.488-0.259-0.931-0.579-1.323-0.956-0.22-0.18-0.399-0.379-0.559-0.579-0.147-0.199-0.299-0.419-0.444-0.657l-0.952 0.339-0.957 0.359c-0.647 0.219-1.283 0.479-1.907 0.757-0.617 0.279-1.235 0.579-1.836 0.896l-0.917 0.499c-0.303 0.179-0.608 0.339-0.92 0.499v0.019c0 0.021-0.013 0.021-0.035 0.021l-0.117 0.059-0.049 0.039 2.072 4.545 0.264-0.14c0.080-0.040 0.179-0.1 0.281-0.14 0.648-0.339 1.305-0.637 1.973-0.936 0.661-0.279 1.333-0.557 1.992-0.816h0.059l2.736 10.975c0.439-0.189 0.848-0.351 1.232-0.484 0.392-0.136 0.756-0.255 1.116-0.359 0.685-0.188 1.395-0.329 2.121-0.423 0.728-0.085 1.456-0.139 2.185-0.139 0.377 0 0.756 0.021 1.136 0.053 0.36 0.039 0.697 0.079 1.016 0.139 0.379 0.081 0.737 0.2 1.076 0.32 0.319 0.139 0.617 0.277 0.876 0.476 0.3 0.2 0.559 0.419 0.777 0.679 0.199 0.259 0.379 0.537 0.499 0.837 0.119 0.317 0.18 0.637 0.199 0.996 0 0.359-0.040 0.696-0.12 1.016-0.040 0.179-0.099 0.339-0.16 0.477-0.080 0.16-0.159 0.317-0.257 0.459 0 0.020 0 0.040-0.020 0.040-0.021 0-0.021 0.020-0.021 0.039l-0.060 0.060c-0.020 0.020-0.020 0.040-0.020 0.060s0 0.039 0.020 0.059l0.040 0.083v0.039l0.020 0.039 0.12 0.26c0.020 0.079 0.039 0.179 0.039 0.256 0.081 0.339 0.1 0.68 0.060 1.036-0.040 0.38-0.12 0.739-0.239 1.077-0.22 0.579-0.559 1.076-1.017 1.532-0.476 0.46-1.076 0.859-1.792 1.216-0.56 0.3-1.177 0.539-1.833 0.737-0.677 0.199-1.415 0.377-2.232 0.519-0.2 0.040-0.379 0.080-0.557 0.101l-0.519 0.020-0.337 0.037-0.14-1.891v-0.021h0.060l0.040-0.020h0.199l0.080-0.061h0.24c0.080 0 0.139-0.020 0.199-0.020 0.377-0.060 0.737-0.12 1.076-0.197 0.36-0.083 0.697-0.16 1.056-0.26 0.359-0.099 0.696-0.199 1.016-0.319 0.319-0.097 0.619-0.239 0.917-0.377 0.339-0.18 0.619-0.359 0.857-0.557 0.24-0.199 0.439-0.4 0.597-0.599 0.1-0.12 0.199-0.257 0.26-0.397 0.059-0.139 0.099-0.28 0.117-0.439v-0.3l-0.159 0.12c-0.020 0.020-0.060 0.039-0.099 0.059l-0.139 0.063c-0.28 0.179-0.579 0.316-0.897 0.457-0.317 0.139-0.657 0.279-1.016 0.399-0.339 0.12-0.677 0.239-1.036 0.319-0.36 0.097-0.717 0.18-1.056 0.239-0.379 0.060-0.739 0.12-1.095 0.159-0.36 0.041-0.717 0.081-1.076 0.101h-0.2c-0.339 0-0.657 0-0.935-0.040-0.3-0.020-0.56-0.081-0.817-0.139-0.377-0.1-0.697-0.241-0.976-0.419-0.279-0.18-0.477-0.397-0.597-0.677-0.139-0.24-0.219-0.519-0.199-0.837 0-0.3 0.080-0.597 0.22-0.875 0.139-0.26 0.339-0.499 0.577-0.719 0.24-0.219 0.537-0.417 0.876-0.597 0.28-0.139 0.579-0.279 0.917-0.379 0.317-0.099 0.677-0.219 1.055-0.319 0.3-0.079 0.639-0.159 0.996-0.219 0.36-0.059 0.739-0.099 1.156-0.12 0.139-0.020 0.299-0.039 0.457-0.039 0.161-0.020 0.32-0.020 0.5-0.020h0.596l0.599 0.059c0.179 0.021 0.357 0.040 0.536 0.081 0.18 0.039 0.339 0.060 0.499 0.099 0.1 0.020 0.199 0.060 0.279 0.081l0.22 0.079h0.019c0.021 0 0.041 0.021 0.041 0.021l0.020 0.021 0.059 0.039-0.039 0.039c-0.18 0.419-0.497 0.757-0.996 0.996-0.499 0.26-0.837 0.419-1.056 0.477h-0.019c-0.020-0.020-0.039-0.039-0.047-0.039h-0.579c-0.184 0-0.364 0-0.541 0.020-0.18 0.020-0.352 0.020-0.519 0.039-0.372 0.040-0.737 0.101-1.091 0.16-0.357 0.061-0.688 0.159-0.995 0.26-0.193 0.059-0.372 0.119-0.539 0.197-0.165 0.060-0.317 0.121-0.467 0.199-0.084 0.040-0.159 0.081-0.233 0.12-0.072 0.039-0.139 0.080-0.199 0.121-0.039 0.039-0.099 0.079-0.159 0.119s-0.115 0.099-0.159 0.16c0.019 0 0.052 0 0.080 0.019l0.179 0.041v0.039c0.081 0.020 0.16 0.039 0.24 0.039 0.085 0 0.18 0.020 0.279 0.020 0.085 0.021 0.169 0.028 0.253 0.028h0.804c0.339 0 0.685-0.020 1.047-0.080 0.36-0.055 0.733-0.099 1.108-0.173 0.379-0.081 0.725-0.168 1.056-0.279 0.328-0.101 0.648-0.22 0.963-0.339 0.179-0.060 0.339-0.14 0.477-0.2 0.159-0.080 0.3-0.159 0.459-0.24l0.377-0.217c0.14-0.083 0.3-0.18 0.44-0.279 0.219-0.187 0.417-0.419 0.617-0.679 0.219-0.259 0.319-0.557 0.319-0.884 0-0.169-0.021-0.319-0.080-0.459-0.040-0.14-0.12-0.259-0.24-0.36-0.099-0.099-0.219-0.199-0.339-0.279s-0.259-0.159-0.439-0.219c-0.339-0.12-0.697-0.219-1.077-0.259-0.357-0.052-0.677-0.080-0.975-0.080-0.1-0.021-0.199-0.021-0.319-0.021h-0.3c-0.627 0-1.251 0.047-1.873 0.14-0.624 0.099-1.236 0.219-1.84 0.399-0.339 0.080-0.667 0.179-1 0.299-0.339 0.139-0.688 0.259-1.061 0.417-0.291 0.12-0.592 0.24-0.905 0.399l-0.996 0.519-0.060 0.040-2.753-11.415-0.12 0.059-0.125 0.060c-0.669 0.297-1.324 0.597-1.968 0.936-0.651 0.339-1.284 0.677-1.907 1.036l-0.065 0.039-3.461-8.036c0-0.021 0.009-0.029 0.032-0.039l0.153-0.111c0.041-0.020 0.084-0.048 0.128-0.080 0.039-0.029 0.071-0.055 0.093-0.081 0.019 0 0.035 0 0.044-0.011h0.016c0.145-0.081 0.3-0.16 0.453-0.259l0.485-0.299c0.288-0.159 0.587-0.339 0.885-0.499 0.32-0.159 0.599-0.339 0.899-0.497 0.616-0.317 1.233-0.617 1.851-0.896 0.639-0.3 1.276-0.579 1.893-0.817 0.677-0.259 1.335-0.497 1.992-0.716 0.657-0.24 1.335-0.459 2.031-0.639l0.061-0.041v0.061c0.1 0.417 0.24 0.797 0.459 1.176 0.219 0.357 0.479 0.676 0.776 0.976 0.379 0.317 0.797 0.579 1.275 0.776 0.479 0.18 0.976 0.279 1.473 0.279 0.061 0 0.12-0.019 0.18-0.019 0.049-0.021 0.107-0.021 0.168-0.021 0.499-0.040 0.985-0.18 1.455-0.419 0.467-0.24 0.877-0.536 1.229-0.917 0.399-0.437 0.697-0.935 0.857-1.493 0.18-0.557 0.24-1.155 0.139-1.753l0.060-0.020 1.355-0.059c0.46-0.020 0.897-0.020 1.356-0.020h0.857c0.737 0.021 1.455 0.060 2.172 0.099 0.716 0.041 1.436 0.12 2.151 0.2 0.696 0.080 1.373 0.18 2.051 0.299 0.68 0.12 1.337 0.259 2.015 0.439l0.060 0.020 0.119 0.040 0.24 0.060c0.080 0.020 0.16 0.039 0.219 0.079h0.021c0.020 0 0.040 0.021 0.060 0.021l0.039 0.020z"></path>
</svg>
