<!-- Generated by IcoMoon.io -->
<svg version="1.1" xmlns="http://www.w3.org/2000/svg" width="32" height="32" viewBox="0 0 32 32">
<title>tencentqq</title>
<path fill="#eb1923" d="M28.527 20.047c-0.44-1.387-0.803-2.388-1.196-3.375l0.125 0.356-1.439-3.593c0.001-0.043 0.019-0.749 0.019-1.115-0.001-6.144-2.901-12.32-10.036-12.32s-10.035 6.176-10.035 12.321c0 0.365 0.017 1.072 0.019 1.115l-1.44 3.593c-0.269 0.635-0.632 1.636-0.965 2.651l-0.104 0.367c-1.361 4.377-0.92 6.191-0.584 6.231 0.72 0.087 2.804-3.296 2.804-3.296 0 1.959 1.008 4.516 3.192 6.361-0.816 0.251-1.817 0.639-2.46 1.113-0.579 0.427-0.505 0.861-0.401 1.037 0.457 0.771 7.844 0.492 9.976 0.252 2.133 0.24 9.52 0.519 9.977-0.252 0.104-0.176 0.176-0.611-0.401-1.037-0.644-0.475-1.644-0.861-2.461-1.115 2.183-1.845 3.191-4.403 3.191-6.361 0 0 2.084 3.383 2.804 3.296 0.335-0.040 0.775-1.853-0.584-6.231zM16.883 6.461c0.052-1.403 0.879-2.504 1.847-2.461s1.708 1.216 1.656 2.619c-0.052 1.401-0.879 2.504-1.847 2.461s-1.709-1.216-1.656-2.619zM13.272 4c0.967-0.044 1.793 1.059 1.845 2.461 0.053 1.403-0.689 2.575-1.656 2.617-0.968 0.044-1.795-1.059-1.847-2.46-0.052-1.403 0.689-2.575 1.657-2.619zM9.895 11.059c0.259-0.573 2.863-1.211 6.088-1.211h0.035c3.224 0 5.829 0.639 6.088 1.211 0.012 0.024 0.019 0.052 0.019 0.081v0c0 0.041-0.013 0.079-0.035 0.111-0.217 0.317-3.111 1.888-6.071 1.888h-0.035c-2.961 0-5.853-1.571-6.071-1.888-0.024-0.030-0.038-0.069-0.038-0.111 0-0.030 0.007-0.057 0.020-0.082l-0 0.001zM23.791 22.555c-0.293 4.901-3.204 7.983-7.699 8.028h-0.183c-4.493-0.044-7.405-3.127-7.697-8.028-0.108-1.8 0.001-3.328 0.196-4.573 0.424 0.084 0.851 0.163 1.277 0.235v4.675c0 0 2.211 0.445 4.424 0.137v-4.3c0.651 0.036 1.28 0.053 1.875 0.045h0.033c2.237 0.028 4.952-0.272 7.577-0.792 0.195 1.245 0.303 2.773 0.196 4.573zM13.973 7.739c0.417-0.055 0.723-0.545 0.677-1.1-0.044-0.553-0.419-0.96-0.839-0.905-0.417 0.053-0.721 0.545-0.677 1.099 0.045 0.556 0.42 0.96 0.839 0.907zM19.305 6.875c0.104 0.049 0.295 0.056 0.385-0.195 0.047-0.127 0.033-0.22-0.012-0.285-0.031-0.044-0.177-0.157-0.495-0.235-1.205-0.293-1.788 0.512-1.873 0.665-0.053 0.096-0.016 0.235 0.075 0.303 0.089 0.068 0.185 0.049 0.239-0.008 0.773-0.837 1.613-0.277 1.681-0.245z"></path>
</svg>
