<!-- Generated by IcoMoon.io -->
<svg version="1.1" xmlns="http://www.w3.org/2000/svg" width="32" height="32" viewBox="0 0 32 32">
<title>tencentweibo</title>
<path fill="#20b8e5" d="M5.669 31.915c-0.279-0.129-0.499-0.345-0.629-0.614l-0.003-0.008c-0.107-0.223-0.115-0.296-0.115-0.871 0-1.24 0.2-3.237 0.483-4.783 0.931-5.103 3.164-9.503 6.553-12.895l0.765-0.773-0.099-0.391c-0.187-0.748-0.105-1.741 0.199-2.435 0.333-0.752 1.045-1.523 1.733-1.888 0.179-0.095 0.333-0.169 0.337-0.164 0.011 0 0.088-0.028 0.183-0.065 0.093-0.040 0.204-0.081 0.252-0.091 0.045-0.008 0.127-0.031 0.187-0.045 0.269-0.066 0.577-0.104 0.894-0.104s0.625 0.038 0.921 0.109l-0.027-0.005c0.051 0.009 0.147 0.041 0.22 0.069 0.067 0.027 0.121 0.036 0.121 0.027 0-0.013 0.229 0.096 0.5 0.236 0.813 0.42 1.373 1 1.756 1.816 0.296 0.62 0.364 0.939 0.361 1.664-0.005 0.531-0.023 0.675-0.127 1.019-0.243 0.807-0.6 1.339-1.287 1.941-0.156 0.133-0.333 0.269-0.393 0.307-0.182 0.104-0.418 0.223-0.66 0.333l-0.060 0.025c-0.015 0.007-0.053 0.025-0.091 0.040-0.036 0.017-0.121 0.035-0.192 0.048-0.064 0.010-0.12 0.026-0.174 0.049l0.005-0.002c-0.019 0.013-0.159 0.035-0.307 0.051-0.148 0.013-0.34 0.031-0.427 0.044-0.197 0.028-0.812-0.041-1.163-0.128-0.318-0.095-0.593-0.213-0.851-0.36l0.020 0.010-0.347-0.183-0.147 0.107c-0.195 0.152-1.113 1.133-1.581 1.693-3.113 3.74-4.869 8.6-5.103 14.16-0.036 0.837-0.069 1.217-0.117 1.364-0.096 0.257-0.373 0.559-0.629 0.683-0.146 0.060-0.316 0.096-0.494 0.096-0.169 0-0.331-0.032-0.479-0.089l0.009 0.003zM16.14 21.408c-0.121-0.028-0.262-0.046-0.406-0.051l-0.004-0c-0.407-0.017-0.791-0.067-1.164-0.148l0.045 0.008c-0.051-0.009-0.168-0.028-0.267-0.047-0.082-0.009-0.157-0.026-0.228-0.052l0.007 0.002c-0.047-0.020-0.101-0.035-0.158-0.045l-0.004-0.001c-0.122-0.028-0.224-0.060-0.323-0.098l0.017 0.006c-0.057-0.029-0.122-0.051-0.192-0.063l-0.004-0.001c-0.151-0.037-0.276-0.077-0.397-0.123l0.024 0.008c-0.104-0.042-0.229-0.080-0.358-0.107l-0.015-0.003c-0.033 0.023-0.453-0.277-0.557-0.4-0.283-0.337-0.387-0.857-0.243-1.204 0.197-0.457 0.672-0.8 1.132-0.812 0.155-0.004 0.307 0.013 0.341 0.045 0.037 0.027 0.067 0.041 0.067 0.023 0-0.017 0.048 0.005 0.111 0.047s0.115 0.059 0.115 0.041c0-0.019 0.029-0.016 0.060 0.009 0.059 0.049 0.447 0.181 0.616 0.217 0.053 0.009 0.119 0.029 0.141 0.041s0.107 0.039 0.191 0.049c0.087 0.008 0.328 0.056 0.543 0.097 0.42 0.077 1.773 0.119 2.053 0.059 0.085-0.019 0.263-0.047 0.385-0.059 0.128-0.009 0.26-0.032 0.297-0.047 0.039-0.013 0.133-0.032 0.205-0.045 0.187-0.032 0.383-0.076 0.524-0.127 0.036-0.015 0.16-0.051 0.271-0.084 0.112-0.027 0.255-0.076 0.317-0.103 0.065-0.025 0.147-0.051 0.185-0.060 0.031-0.007 0.307-0.133 0.613-0.284 1.233-0.614 2.257-1.48 3.037-2.537l0.016-0.023c0.367-0.525 0.932-1.643 1.124-2.236 0.961-3.005 0.196-6.311-1.971-8.496-0.86-0.837-1.895-1.498-3.044-1.923l-0.060-0.019c-0.141-0.053-0.325-0.11-0.512-0.156l-0.037-0.008c-0.138-0.026-0.248-0.052-0.357-0.083l0.029 0.007c-0.051-0.016-0.135-0.038-0.22-0.058l-0.030-0.006c-0.179-0.038-0.398-0.069-0.62-0.087l-0.018-0.001c-0.136-0.009-0.26-0.027-0.382-0.052l0.018 0.003c-0.073-0.027-1.14-0.017-1.413 0.009-0.324 0.027-0.528 0.059-0.752 0.103-0.078 0.020-0.194 0.045-0.311 0.065l-0.031 0.005-0.228 0.051-0.183 0.045c-0.052 0.012-0.096 0.026-0.139 0.045l0.005-0.002c-0.030 0.003-0.056 0.016-0.076 0.036l0-0c-0.020 0.021-0.079 0.036-0.132 0.036-0.058 0.001-0.111 0.022-0.153 0.055l0.001-0c-0.031 0.032-0.053 0.037-0.053 0.017 0-0.023-0.032-0.013-0.067 0.020-0.040 0.031-0.069 0.040-0.069 0.027 0-0.019-0.048-0.007-0.101 0.027-0.060 0.027-0.124 0.060-0.151 0.064-0.095 0.019-0.972 0.464-1.24 0.64-0.616 0.387-0.836 0.564-1.405 1.133-0.711 0.707-1.091 1.232-1.527 2.1-0.569 1.1-0.903 2.402-0.903 3.781 0 0.516 0.047 1.021 0.136 1.511l-0.008-0.051c0.080 0.479 0.191 0.867 0.405 1.451 0.081 0.217 0.091 0.307 0.059 0.489-0.131 0.733-0.943 1.276-1.536 1.029-0.087-0.035-0.16-0.060-0.16-0.044 0 0.049-0.383-0.267-0.501-0.416-0.107-0.161-0.199-0.346-0.268-0.543l-0.005-0.018c-0.625-1.735-0.733-3.928-0.288-5.824 0.412-1.651 1.145-3.091 2.133-4.317l-0.017 0.021c0.42-0.52 1.321-1.404 1.811-1.783 0.365-0.28 1.199-0.829 1.259-0.829 0.009 0 0.173-0.092 0.364-0.207 0.097-0.061 0.21-0.121 0.329-0.174l0.018-0.007c0 0.013 0.087-0.024 0.196-0.077 0.105-0.056 0.213-0.107 0.237-0.109 0.027-0.005 0.128-0.047 0.228-0.087 0.1-0.048 0.181-0.073 0.187-0.064 0 0.007 0.036-0.009 0.077-0.047 0.045-0.032 0.080-0.045 0.080-0.027 0 0.020 0.031 0.011 0.067-0.023 0.036-0.032 0.067-0.040 0.067-0.024 0 0.019 0.033 0.009 0.069-0.023s0.068-0.040 0.068-0.021 0.033 0.008 0.069-0.024c0.036-0.031 0.067-0.044 0.067-0.027 0 0.013 0.057 0.004 0.128-0.024 0.069-0.027 0.16-0.057 0.208-0.067 0.072-0.020 0.217-0.053 0.328-0.081 0.054-0.014 0.099-0.028 0.143-0.045l-0.008 0.003c0.051-0.013 0.165-0.040 0.252-0.053s0.351-0.056 0.583-0.091c0.316-0.051 0.716-0.067 1.62-0.057 0.656 0.009 1.26 0.028 1.331 0.041 0.077 0.016 0.229 0.041 0.339 0.055 0.115 0.020 0.285 0.051 0.387 0.079 0.105 0.021 0.256 0.053 0.343 0.069 0.076 0.009 0.146 0.026 0.211 0.051l-0.006-0.002c0.031 0.021 0.068 0.037 0.107 0.045l0.002 0c0.133 0.032 0.213 0.053 0.227 0.060 0.008 0.009 0.023 0.013 0.047 0.016l0.352 0.12c0.179 0.059 0.328 0.112 0.34 0.112s0.067 0.029 0.115 0.057c0.049 0.027 0.107 0.049 0.128 0.053 0.019 0 0.096 0.037 0.169 0.075 0.076 0.040 0.136 0.061 0.136 0.049 0-0.032 0.989 0.505 1.265 0.688 0.14 0.096 0.293 0.197 0.336 0.219 0.463 0.283 1.148 0.857 1.711 1.436 1.414 1.45 2.427 3.296 2.86 5.356l0.012 0.071c0.109 0.552 0.128 0.74 0.144 1.779 0.020 1.331-0.032 1.856-0.287 2.853-0.536 2.099-1.64 3.877-3.388 5.464-0.48 0.408-1.011 0.796-1.57 1.143l-0.057 0.033c-0.24 0.144-1.392 0.716-1.392 0.693 0-0.013-0.044 0.005-0.099 0.037-0.060 0.032-0.115 0.060-0.128 0.060-0.015 0-0.167 0.053-0.344 0.112-0.171 0.060-0.328 0.115-0.34 0.115l-0.092 0.037c-0.053 0.022-0.114 0.040-0.179 0.049l-0.004 0c-0.223 0.047-0.32 0.069-0.359 0.092-0.056 0.024-0.122 0.041-0.19 0.049l-0.003 0c-0.152 0.021-0.276 0.044-0.398 0.072l0.034-0.006c-0.273 0.055-0.6 0.098-0.933 0.118l-0.020 0.001c-0.767 0.060-1.167 0.076-1.185 0.053z"></path>
</svg>
