<!-- Generated by IcoMoon.io -->
<svg version="1.1" xmlns="http://www.w3.org/2000/svg" width="32" height="32" viewBox="0 0 32 32">
<title>teradata</title>
<path fill="#f37440" d="M16 0c-9.333 0-16 7.533-16 16.107 0 9 6.667 15.893 16 15.893s16-6.893 16-15.893c0-8.573-6.667-16.107-16-16.107zM11.293 4.587h4.667v4.347h4.773v3.813h-4.773v6.96c0 2.107 1.027 3.027 2.573 3.027 0.56 0 1.307-0.16 2.013-0.427 0.507 1.333 1.4 2.533 2.36 3.493-1.343 0.805-2.961 1.284-4.691 1.293h-0.003c-4.16 0-6.92-2.2-6.92-7.040z"></path>
</svg>
