<!-- Generated by IcoMoon.io -->
<svg version="1.1" xmlns="http://www.w3.org/2000/svg" width="32" height="32" viewBox="0 0 32 32">
<title>themoviedatabase</title>
<path fill="#01d277" d="M25.988 29.199c2.808 0 4.708-1.899 4.708-4.708v-19.783c0-2.808-1.899-4.708-4.708-4.708h-19.976c-2.808 0-4.708 1.899-4.708 4.708v27.292l2.412-2.801v-24.491c0.002-1.265 1.027-2.29 2.292-2.292h19.976c1.265 0.003 2.291 1.027 2.292 2.292v19.783c-0.002 1.265-1.027 2.29-2.292 2.292h-16.757l-2.413 2.416-0.015-0.019zM11.716 15.288h-2.263v7.597h2.263c5.057 0 5.057-7.597 0-7.597zM11.716 21.367h-0.735v-4.559h0.735c2.953 0 2.953 4.557 0 4.559zM11.275 13.852h1.519v-6.079h1.891v-1.508h-5.301v1.508h1.892zM18.751 9.601l-2.628-3.336h-0.488v7.713h1.541v-4.24l1.576 2.041 1.577-2.041-0.011 4.24h1.541v-7.713h-0.48zM21.311 19.087c0.477-0.329 0.68-0.919 0.701-1.499 0.031-1.339-0.808-2.305-2.156-2.305h-3.007v7.608h3.007c1.24-0.011 2.241-1.018 2.241-2.259v-0.037c0-0.621-0.308-1.171-0.78-1.503zM18.372 16.801h1.351c0.436 0 0.701 0.34 0.701 0.764 0.001 0.016 0.002 0.035 0.002 0.055 0 0.39-0.314 0.707-0.703 0.711h-1.351zM19.723 21.371h-1.351v-1.519h1.369c0.412 0 0.745 0.333 0.745 0.745v0.019c0 0.417-0.338 0.755-0.755 0.755v0z"></path>
</svg>
