<!-- Generated by IcoMoon.io -->
<svg version="1.1" xmlns="http://www.w3.org/2000/svg" width="32" height="32" viewBox="0 0 32 32">
<title>themighty</title>
<path fill="#d0072a" d="M25.571 0.001h-5.909l-3.595 18.649-3.655-18.649h-5.937c0.288 0.292 0.445 0.845 0.52 1.429v28.28c0 0.828-0.14 1.844-0.567 2.289 1.352-0.285 3.076-0.555 4.552-0.815v-18.685l3.319 16.5c0.093 0.613 0.18 1.445-0.028 1.597 1.129-0.172 2.259-0.336 3.392-0.488-0.14-0.213-0.085-0.869-0.007-1.415l3.272-16.495v17.46c1.405-0.164 3.155-0.32 4.627-0.465l0.016-0.011c-0.432-0.437-0.573-1.467-0.573-2.299v-24.584c0-0.836 0.14-1.861 0.573-2.301z"></path>
</svg>
