<!-- Generated by IcoMoon.io -->
<svg version="1.1" xmlns="http://www.w3.org/2000/svg" width="32" height="32" viewBox="0 0 32 32">
<title>timescale</title>
<path fill="#fdb515" d="M7.383 1.017c-1.556 0.933-2.947 2.109-4.107 3.48l1.777 1.951c1.296-1.608 2.91-2.905 4.754-3.805l0.082-0.036zM24.753 1.131l-2.655 1.493c2.015 0.983 3.694 2.368 4.992 4.060l0.024 0.033 1.573-2.205c-1.12-1.317-2.418-2.438-3.865-3.341l-0.070-0.040zM16.001 2.133c-0.004 0-0.008 0-0.013 0-1.994 0-3.884 0.447-5.575 1.247l0.079-0.034 0.787 1.348c1.381-0.642 2.998-1.016 4.702-1.016 0.007 0 0.013 0 0.020 0h-0.001c1.681 0 3.276 0.365 4.712 1.013l0.787-1.349c-1.611-0.764-3.5-1.209-5.493-1.209-0.002 0-0.004 0-0.006 0h0zM15.2 4.713l-0.733 8.835h0.004l-0.003 0.053c0.004 0.148 0.017 0.288 0.044 0.424 0.013 0.149 0.057 0.303 0.129 0.456 0.152 0.385 0.397 0.673 0.688 0.809 0.067 0.053 0.14 0.1 0.211 0.148 0.021 0.012 0.035 0.021 0.049 0.030l-0.005-0.003v0.005l8.907 4.795 0.464-0.635-8.077-6.133c-0.009 0-0.013-0.007-0.019-0.011l-0.859-8.773zM17.097 4.783c0.253 0.312 0.481 0.697 0.669 1.14 4.207 0.805 7.387 4.433 7.387 8.795 0 1.169-0.235 2.283-0.645 3.307 0.262 0.295 0.493 0.628 0.68 0.986l0.013 0.027c0.634-1.258 1.005-2.742 1.005-4.312 0-0.003 0-0.005 0-0.008v0c0-5.157-3.987-9.4-9.109-9.935zM14.052 4.909c-4.703 0.889-8.253 4.944-8.253 9.808 0 3.445 1.78 6.484 4.489 8.28 0.148-0.425 0.281-0.753 0.427-1.073l-0.033 0.082c-2.32-1.625-3.832-4.285-3.832-7.289 0-4.072 2.776-7.509 6.576-8.6 0.171-0.468 0.385-0.875 0.627-1.208zM26.252 7.143l-1.068 1.191c1.292 1.759 2.068 3.967 2.068 6.356 0 0.005 0 0.009 0 0.014v-0.001c0 3.888-2.056 7.308-5.163 9.269 0.139 0.517 0.251 1.056 0.335 1.612 3.827-2.176 6.403-6.236 6.403-10.88 0-0.009 0-0.020 0-0.031 0-2.849-0.969-5.472-2.595-7.557l0.021 0.027zM5.745 7.152c-1.605 2.062-2.573 4.688-2.573 7.54 0 0.005 0 0.009 0 0.014v-0.001c0 4.676 2.605 8.756 6.477 10.92 0.084-0.557 0.192-1.096 0.331-1.608-3.147-1.957-5.231-5.393-5.231-9.312 0-2.369 0.764-4.563 2.065-6.363zM18.164 7.209c0.059 0.271 0.107 0.555 0.143 0.853 1.93 0.648 3.459 2.045 4.266 3.838l0.018 0.045 0.769-0.197c-0.96-2.215-2.838-3.878-5.14-4.525l-0.056-0.013zM13.076 7.459c-2 0.786-3.569 2.303-4.405 4.213l-0.020 0.051 0.773 0.197c0.721-1.593 1.963-2.845 3.505-3.559l0.044-0.018c0.023-0.303 0.053-0.6 0.103-0.884zM8.977 12.896l-0.827 0.84 0.42 0.819 2.303 0.824 1.256-0.824-0.416-1.231zM23.131 12.896l-2.731 0.428-0.42 1.231 1.256 0.824 2.307-0.824 0.42-0.819zM8.133 15.825c0.327 2.109 1.462 3.905 3.072 5.093l0.021 0.015c0.133-0.227 0.272-0.447 0.42-0.657-1.412-1.062-2.402-2.62-2.711-4.412l-0.006-0.042zM23.075 15.825c-0.040 0.24-0.095 0.473-0.157 0.705 0.232 0.184 0.451 0.363 0.657 0.547 0.129-0.403 0.232-0.823 0.293-1.253zM2.169 16.115l-2.169 2.763c1.288 4.881 4.851 8.867 9.509 10.815-0.043-0.388-0.067-0.838-0.067-1.293 0-0.029 0-0.057 0-0.086l-0 0.004c0-0.5 0.023-0.996 0.067-1.481-4.032-2.084-6.888-6.059-7.34-10.721zM29.779 16.188c-0.469 4.6-3.285 8.525-7.255 10.609 0.044 0.499 0.067 1.007 0.071 1.515 0 0.503-0.023 0.947-0.067 1.34 4.675-1.984 8.233-6.029 9.472-10.964zM21.053 19.677c-0.198 0.194-0.41 0.377-0.631 0.548l-0.017 0.012c0.147 0.211 0.291 0.429 0.424 0.657 0.353-0.267 0.684-0.56 0.987-0.88-0.348-0.141-0.6-0.254-0.847-0.374l0.084 0.037zM23.056 20.423c-0.491 0.579-1.038 1.087-1.64 1.523l-0.027 0.018c0.141 0.315 0.276 0.647 0.392 0.988 0.964-0.656 1.783-1.439 2.457-2.336l0.019-0.026c-0.429-0.004-0.842-0.065-1.235-0.175l0.033 0.008zM19.072 21.263l-3.071 1.217-3.076-1.213-0.783 1.913 3.264 1.261c-0.179 0.613-0.757 1.064-1.44 1.064-0.045 0-0.093-0.005-0.139-0.009l-0.667 0.915c0.251 0.084 0.52 0.128 0.8 0.128 0.828 0 1.56-0.385 2.027-0.984 0.474 0.602 1.203 0.986 2.021 0.986 0.319 0 0.625-0.058 0.907-0.165l-0.018 0.006-0.653-0.893c-0.072 0.012-0.155 0.019-0.239 0.019-0.683 0-1.258-0.457-1.438-1.082l-0.003-0.011 3.293-1.235zM20.613 27.629c-1.453 0.503-3.008 0.773-4.635 0.773-1.56 0-3.053-0.248-4.453-0.712 0.308 1.173 0.787 2.205 1.4 3.016 0.991 0.179 2.012 0.276 3.059 0.276 1.113 0 2.2-0.109 3.249-0.315 0.604-0.813 1.076-1.853 1.38-3.039z"></path>
</svg>
