<!-- Generated by IcoMoon.io -->
<svg version="1.1" xmlns="http://www.w3.org/2000/svg" width="32" height="32" viewBox="0 0 32 32">
<title>tinder</title>
<path fill="#ff6b6b" d="M12.423 12.601c0.060 0.097 0.164 0.16 0.283 0.16 0.080 0 0.155-0.028 0.211-0.076l0.020-0.016c0.52-0.433 0.988-0.88 1.428-1.356 4.279-4.644 1.78-10.345 1.76-10.399-0.12-0.28-0.040-0.612 0.2-0.792 0.26-0.18 0.58-0.16 0.82 0.044 14.5 13.485 10.66 23.757 10.38 24.449-1.16 4.188-5.78 7.219-11.259 7.373-0.184 0.011-0.323 0.011-0.484 0.011-6.469 0-11.969-3.985-11.969-9.076v-0.080c0-7.063 6.393-14.029 6.679-14.325 0.181-0.199 0.46-0.26 0.7-0.14 0.24 0.101 0.396 0.34 0.388 0.601-0.057 1.381 0.223 2.58 0.841 3.6v0.020z"></path>
</svg>
