<!-- Generated by IcoMoon.io -->
<svg version="1.1" xmlns="http://www.w3.org/2000/svg" width="32" height="32" viewBox="0 0 32 32">
<title>todoist</title>
<path fill="#e44332" d="M28 0h-24c-2.2 0-4 1.8-4 4v5.144c0 0 5.139 2.987 5.464 3.173 0.413 0.24 0.925 0.236 1.339 0 0.347-0.196 10.693-6.144 10.848-6.233 0.372-0.215 0.773-0.143 0.997-0.013 0.219 0.129 0.808 0.464 1.12 0.64 0.309 0.179 0.295 0.669 0.017 0.829l-12.949 7.453c-0.461 0.267-0.92 0.272-1.397 0.003-0.801-0.453-4.108-2.379-5.439-3.153v2.693l5.464 3.173c0.413 0.24 0.925 0.236 1.339 0 0.347-0.196 10.693-6.145 10.848-6.235 0.372-0.213 0.773-0.141 0.997-0.011 0.219 0.128 0.808 0.463 1.12 0.64 0.309 0.177 0.295 0.667 0.017 0.827-0.277 0.161-12.384 7.128-12.949 7.453-0.461 0.267-0.92 0.273-1.397 0.003-0.801-0.452-4.108-2.379-5.439-3.152v2.693l5.464 3.173c0.413 0.24 0.925 0.236 1.339 0 0.347-0.196 10.693-6.145 10.848-6.235 0.372-0.213 0.773-0.141 0.997-0.012 0.219 0.129 0.808 0.464 1.12 0.64 0.309 0.177 0.295 0.669 0.017 0.829l-12.949 7.453c-0.461 0.265-0.92 0.272-1.397 0.001-0.801-0.453-4.108-2.379-5.439-3.152v5.373c0 2.2 1.8 4 4 4h24c2.2 0 4-1.8 4-4v-24c0-2.2-1.8-4-4-4z"></path>
</svg>
