<!-- Generated by IcoMoon.io -->
<svg version="1.1" xmlns="http://www.w3.org/2000/svg" width="32" height="32" viewBox="0 0 32 32">
<title>toggl</title>
<path fill="#e01b22" d="M16 0c-8.836 0-16 7.16-16 16s7.164 16 16 16c8.84 0 16-7.16 16-16s-7.16-16-16-16zM14.88 6.227h2.24v11.147h-2.24zM16 24.207c-4.32-0.003-7.82-3.507-7.819-7.824 0-3.52 2.356-6.608 5.752-7.54v2.28c-2.171 0.853-3.597 2.947-3.593 5.28 0 3.127 2.537 5.659 5.664 5.657 3.125-0.003 5.659-2.537 5.657-5.664 0-2.327-1.427-4.416-3.592-5.267v-2.289c3.4 0.933 5.752 4.024 5.752 7.547 0 4.32-3.501 7.819-7.821 7.82z"></path>
</svg>
