<!-- Generated by IcoMoon.io -->
<svg version="1.1" xmlns="http://www.w3.org/2000/svg" width="32" height="32" viewBox="0 0 32 32">
<title>topcoder</title>
<path fill="#29a8e0" d="M27.352 22.023c0.256-0.035 0.501-0.149 0.723-0.28 0.46-0.268 0.861-0.631 1.248-1 0.301-0.285 0.592-0.581 0.871-0.893 0.16-0.195 0.341-0.395 0.501-0.601 0.14-0.191 0.28-0.38 0.42-0.581 0.101-0.153 0.2-0.307 0.283-0.467 0.44-0.797 0.801-1.781 0.481-2.688-0.041-0.125-0.101-0.247-0.161-0.36-0.121-0.205-0.281-0.388-0.441-0.551-0.28-0.268-0.624-0.48-0.964-0.652-0.501-0.251-1.041-0.417-1.601-0.541-0.804-0.183-1.607-0.268-2.428-0.301-1.123-0.055-2.245-0.008-3.349 0.101 0.14 0.145 0.261 0.3 0.401 0.451 0.26 0.301 0.523 0.623 0.761 0.964 0.303 0.4 0.583 0.841 0.863 1.283 0.803 1.323 1.405 2.767 1.844 4.231 0.14 0.44 0.243 0.883 0.34 1.344 0.041 0.16 0.064 0.341 0.103 0.521zM2.572 21.821c0.069-0.272 0.14-0.549 0.213-0.821 0.107-0.401 0.235-0.8 0.355-1.195 0.092-0.289 0.2-0.572 0.303-0.86 0.12-0.3 0.247-0.6 0.369-0.901 0.044-0.101 0.081-0.204 0.131-0.307 0.136-0.287 0.281-0.569 0.429-0.849 0.18-0.323 0.341-0.641 0.521-0.943 0.24-0.421 0.503-0.803 0.781-1.184l0.021-0.020c-0.441-0.021-0.903-0.021-1.344-0.021-0.32 0-0.661 0.021-0.981 0.060-0.221 0.021-0.44 0.041-0.661 0.081-0.161 0.021-0.32 0.060-0.481 0.1-0.781 0.2-1.664 0.561-2.044 1.343-0.041 0.101-0.081 0.201-0.121 0.323-0.043 0.16-0.063 0.36-0.063 0.541 0 0.281 0.060 0.561 0.119 0.843 0.121 0.42 0.323 0.823 0.524 1.203 0.38 0.661 0.861 1.283 1.363 1.864l0.641 0.7zM26.773 21.761c-0.656-3.069-2.061-6.043-4.259-8.315l-0.111-0.115-0.055-0.053c-0.267 0.019-0.532 0.060-0.804 0.099-2.872 0.443-5.68 1.224-8.38 2.287 0.224 0.060 0.448 0.12 0.676 0.2 0.941 0.301 1.884 0.621 2.811 0.964 3.228 1.203 6.34 2.705 9.331 4.429l0.781 0.463zM3.165 21.576l1.164-1.124c0.2-0.191 0.2-0.189 0.401-0.373 2.044-1.805 4.424-3.167 6.907-4.289-0.367-0.101-0.732-0.181-1.099-0.26-1.404-0.321-2.817-0.583-4.251-0.703-0.112 0.161-0.221 0.303-0.329 0.461-0.241 0.361-0.472 0.703-0.689 1.084-0.2 0.32-0.361 0.641-0.523 0.964-0.139 0.26-0.28 0.521-0.381 0.781-0.039 0.060-0.060 0.14-0.080 0.2-0.121 0.301-0.26 0.601-0.381 0.903-0.099 0.241-0.18 0.48-0.26 0.721-0.12 0.381-0.24 0.743-0.34 1.124-0.061 0.2-0.121 0.401-0.16 0.6zM12.384 15.46c0.28-0.121 0.556-0.233 0.837-0.34 0.311-0.125 0.621-0.243 0.933-0.359 1.364-0.501 2.748-0.923 4.151-1.263 1.164-0.281 2.325-0.501 3.511-0.681l0.080-0.021c-0.321-0.301-0.661-0.561-1.003-0.823-0.641-0.48-1.343-0.883-2.084-1.203-1.727-0.741-3.631-0.981-5.473-0.64-1.004 0.179-1.988 0.52-2.889 1.003-1.423 0.761-2.667 1.844-3.691 3.087l-0.040 0.021 0.621 0.059 0.763 0.101c1.084 0.18 2.125 0.401 3.188 0.64 0.401 0.101 0.783 0.201 1.164 0.303z"></path>
</svg>
