<!-- Generated by IcoMoon.io -->
<svg version="1.1" xmlns="http://www.w3.org/2000/svg" width="32" height="32" viewBox="0 0 32 32">
<title>tor</title>
<path fill="#7e4798" d="M23.437 16.268c-1.013-0.923-2.295-1.668-3.605-2.413-0.595-0.328-2.413-1.757-1.787-3.784l-1.135-0.477c1.789-2.771 4.113-5.512 6.972-8.075-2.295 0.775-4.32 1.968-5.839 4.083 0.893-1.876 2.353-3.724 3.963-5.601-2.205 1.58-4.112 3.367-5.305 5.751l0.836-3.337c-1.192 2.144-2.027 4.32-2.355 6.495l-1.756-0.713-0.297 0.237c1.549 2.771 0.745 4.232-0.029 4.737-1.549 1.044-3.784 2.384-4.917 3.545-2.145 2.205-2.771 4.291-2.561 7.061 0.209 3.547 2.801 6.497 6.227 7.659 1.52 0.507 2.92 0.565 4.469 0.565 2.503 0 5.065-0.655 6.943-2.235 1.931-1.609 3.152-4.013 3.159-6.702v-0.001c0-0.009 0-0.019 0-0.029 0-2.676-1.146-5.083-2.975-6.759l-0.007-0.006zM18.7 28.097c-0.12 0.536-0.507 1.192-0.983 1.788 0.179-0.328 0.328-0.656 0.417-1.013 0.745-2.652 1.073-3.872 0.716-6.793-0.060-0.299-0.18-1.251-0.628-2.295-0.624-1.58-1.579-3.071-1.696-3.397-0.209-0.507-0.507-2.652-0.537-4.112 0.031 1.251 0.119 3.545 0.447 4.439 0.089 0.3 0.953 1.639 1.58 3.279 0.416 1.132 0.507 2.176 0.595 2.472 0.299 1.343-0.060 3.607-0.535 5.751-0.148 0.775-0.568 1.669-1.104 2.355 0.3-0.417 0.536-0.953 0.716-1.58 0.359-1.251 0.507-2.86 0.475-3.873-0.028-0.595-0.296-1.876-0.744-3.037-0.268-0.627-0.656-1.281-0.923-1.729-0.299-0.447-0.299-1.429-0.417-2.561 0.028 1.221-0.091 1.847 0.208 2.711 0.179 0.505 0.833 1.221 1.012 1.907 0.268 0.924 0.536 1.937 0.508 2.563 0 0.715-0.029 2.027-0.359 3.457-0.209 1.072-0.687 1.996-1.46 2.591 0.328-0.416 0.507-0.833 0.596-1.251 0.119-0.625 0.148-1.221 0.208-1.967 0.017-0.192 0.026-0.416 0.026-0.641 0-0.586-0.063-1.156-0.184-1.706l0.010 0.053c-0.239-1.073-0.625-2.144-0.805-2.891 0.029 0.835 0.359 1.877 0.508 2.98 0.119 0.805 0.059 1.608 0.028 2.323-0.028 0.836-0.297 2.296-0.656 3.011-0.357-0.149-0.476-0.359-0.716-0.655-0.297-0.388-0.476-0.805-0.655-1.283-0.152-0.345-0.286-0.753-0.38-1.175l-0.008-0.045c-0.023-0.163-0.036-0.352-0.036-0.544 0-0.904 0.293-1.74 0.79-2.418l-0.008 0.011c0.625-0.895 0.745-0.955 0.953-1.996-0.297 0.923-0.505 1.012-1.161 1.788-0.745 0.863-0.864 2.115-0.864 3.128 0 0.417 0.179 0.895 0.328 1.343 0.179 0.475 0.357 0.952 0.596 1.309 0.179 0.297 0.417 0.505 0.625 0.655-0.775-0.208-1.579-0.505-2.085-0.923-1.251-1.073-2.353-2.889-2.503-4.5-0.119-1.309 1.072-3.217 2.771-4.171 1.431-0.835 1.757-1.759 2.056-3.279-0.417 1.311-0.835 2.444-2.205 3.131-1.967 1.072-2.98 2.8-2.889 4.469 0.149 2.115 0.983 3.576 2.681 4.739 0.388 0.267 0.924 0.535 1.491 0.745-2.116-0.508-2.384-0.805-3.099-1.639 0-0.060-0.179-0.18-0.179-0.208-0.953-1.073-2.145-2.92-2.563-4.619-0.149-0.596-0.299-1.221-0.119-1.817 0.775-2.801 2.472-3.873 4.171-5.033 0.417-0.3 0.835-0.568 1.221-0.865 0.953-0.745 1.192-2.683 1.4-3.784-0.387 1.341-0.804 3.011-1.549 3.545-0.387 0.299-0.864 0.536-1.251 0.805-1.757 1.192-3.516 2.324-4.32 5.213-0.179 0.747-0.059 1.283 0.119 1.997 0.447 1.756 1.639 3.664 2.652 4.796l0.179 0.18c0.447 0.508 1.013 0.893 1.699 1.161-0.657-0.157-1.233-0.371-1.773-0.646l0.045 0.021c-2.771-1.34-4.617-4.231-4.737-6.585-0.239-4.796 2.056-6.196 4.201-7.955 1.192-0.983 2.86-1.46 3.813-3.217 0.179-0.388 0.299-1.221 0.060-2.116-0.089-0.299-0.536-1.371-0.716-1.609l2.652 1.163c-0.059 1.251-0.089 2.264 0.149 3.188 0.267 1.013 1.579 2.472 2.115 4.172 1.044 3.213 0.777 7.415 0.031 10.692z"></path>
</svg>
