<!-- Generated by IcoMoon.io -->
<svg version="1.1" xmlns="http://www.w3.org/2000/svg" width="32" height="32" viewBox="0 0 32 32">
<title>toshiba</title>
<path fill="#f00" d="M6.899 13.563c-1.42 0-2.104 0.249-2.2 1.531-0.019 0.251-0.030 0.543-0.030 0.838 0 0.024 0 0.049 0 0.073l-0-0.004c0 0.291 0.005 0.601 0.028 0.907 0.097 1.28 0.781 1.531 2.2 1.531 1.42 0 2.107-0.251 2.204-1.531 0.024-0.305 0.029-0.616 0.029-0.907 0-0.289-0.007-0.601-0.029-0.907-0.097-1.28-0.784-1.531-2.203-1.531zM11.952 13.563c-0.547 0-1.093 0.053-1.313 0.161-0.429 0.208-0.727 0.507-0.727 1.36 0 0.5 0.133 0.872 0.391 1.061 0.375 0.28 0.737 0.307 1.747 0.36 0.407 0.021 0.627 0.104 0.627 0.453 0 0.443-0.392 0.443-0.752 0.443-0.373 0-0.488-0.033-0.613-0.128-0.112-0.084-0.14-0.235-0.141-0.464h-1.267c0 0.649 0.013 1.179 0.627 1.445 0.547 0.24 2.227 0.24 2.731 0.019 0.437-0.193 0.751-0.449 0.751-1.325 0-0.607-0.121-0.98-0.587-1.255-0.331-0.196-1.26-0.227-1.731-0.256-0.344-0.021-0.475-0.147-0.475-0.451 0-0.396 0.38-0.411 0.707-0.411 0.269 0 0.453 0.024 0.585 0.14 0.051 0.052 0.115 0.132 0.117 0.409h1.263c0-0.544-0.019-1.131-0.607-1.401-0.233-0.107-0.783-0.161-1.332-0.161zM14.893 13.645v4.709h1.328v-1.816h1.541v1.816h1.328v-4.709h-1.328v1.72h-1.541v-1.72zM20.257 13.645v4.709h1.336v-4.709zM22.779 13.645v4.709h2.516c1.159 0 1.549-0.501 1.549-1.269 0-0.535-0.123-1.007-0.857-1.192 0.592-0.152 0.765-0.505 0.765-1.016 0-1.035-0.649-1.232-1.575-1.232zM28.609 13.645l-1.424 4.709h1.383l0.249-0.873h1.547l0.253 0.873h1.383l-1.427-4.709zM0 13.648v1.175h1.407v3.533h1.407v-3.533h1.407v-1.173zM6.899 14.664c0.557 0 0.844 0.084 0.88 0.809 0.005 0.113 0.013 0.268 0.013 0.527 0 0.26-0.008 0.413-0.013 0.527-0.036 0.725-0.323 0.809-0.88 0.809s-0.844-0.084-0.88-0.809c-0.007-0.14-0.011-0.305-0.011-0.47 0-0.020 0-0.040 0-0.059v0.003c0-0.259 0.004-0.413 0.011-0.527 0.036-0.725 0.323-0.809 0.88-0.809zM24.107 14.724h0.92c0.24 0 0.391 0.113 0.391 0.388 0 0.235-0.149 0.38-0.391 0.38h-0.92zM29.588 14.809h0.008l0.472 1.627h-0.951zM24.108 16.419h0.919c0.372 0 0.449 0.165 0.449 0.431s-0.147 0.427-0.449 0.427h-0.92z"></path>
</svg>
