<!-- Generated by IcoMoon.io -->
<svg version="1.1" xmlns="http://www.w3.org/2000/svg" width="32" height="32" viewBox="0 0 32 32">
<title>trainerroad</title>
<path fill="#e12726" d="M4.652 3.189l-2.944 16.221c1.149-2.245 3.448-3.756 6.099-3.756h0.009c0.003 0 0.006 0 0.010 0 1.439 0 2.774 0.449 3.871 1.215l-0.022-0.015-0.023-0.015c0.521-0.477 0.923-1.075 1.161-1.751l0.009-0.030 0.009-0.031c0.551-1.771-1.049-7.297 4.883-7.384 2.963-0.041 6.757 2.421 6.656 2.407-5.325-0.819-7.017-1.049-8.323 1.487-1.185 2.301-0.876 4.217-2.403 5.653-1.305 1.231-4.427 2.045-5.397 1.844-0.44-0.092 1.116-0.505 2.561-1.515-0.858-0.528-1.898-0.841-3.011-0.841-3.211 0-5.813 2.603-5.813 5.813s2.603 5.813 5.813 5.813c3.056 0 5.562-2.359 5.796-5.355l0.001-0.020 0.001-0.019c0.335 0.193 0.652 0.392 0.948 0.592-0.375 2.397-1.945 4.357-4.071 5.272l-0.090 0.034h12.313c-0.977-1.685-4.685-7.023-13.16-8.537 1.044-0.516 10.119-0.263 18.061 7.175l4.405-24.256zM13.357 5.307c0.789 0.025 1.568 0.236 2.219 0.392 1.784 0.427 3.377 0.899 3.163 0.996-0.044 0.019-0.781-0.085-1.088-0.117-0.237-0.036-0.511-0.057-0.79-0.057-0.457 0-0.901 0.056-1.325 0.161l0.038-0.008 0.037-0.008c-2.799 0.671-3.809 3.949-4 4.244-0.023 0.032-1.581-0.8-1.699-2.435-0.083-1.192 0.344-2.336 2.033-2.965l0.003 0.003c0.364-0.133 0.785-0.21 1.223-0.21 0.065 0 0.13 0.002 0.195 0.005l-0.009-0zM20.543 10.764c0.868-0.011 1.959 0.113 3.34 0.407-0.946 0.561-1.763 1.204-2.485 1.939l-0.002 0.002-0.003 0.003c-1.427 1.464-2.748 3.421-2.255 4.505s3.536 2.435 5.733 3.893c1.136 0.757 2.020 3.412 2.023 3.421-4.147-3.223-7.159-4.129-9.397-5.467-2.628-1.581-0.949-5.411-0.152-7.068 0.456-0.939 1.285-1.612 3.197-1.636zM1.012 23.236l-1.012 5.575h5.205c-2.277-0.956-3.907-3.045-4.191-5.543z"></path>
</svg>
