<!-- Generated by IcoMoon.io -->
<svg version="1.1" xmlns="http://www.w3.org/2000/svg" width="32" height="32" viewBox="0 0 32 32">
<title>trakt</title>
<path fill="#ed1c24" d="M16 32c-8.82 0-16-7.18-16-16s7.18-16 16-16 16 7.18 16 16-7.18 16-16 16zM16 1.615c-7.933 0-14.385 6.452-14.385 14.385s6.452 14.387 14.385 14.387 14.387-6.453 14.387-14.387-6.453-14.385-14.387-14.385zM6.52 24.708c2.341 2.56 5.725 4.151 9.48 4.151 1.919 0 3.735-0.417 5.369-1.168l-8.929-8.907zM25.571 24.619c2.055-2.28 3.312-5.32 3.312-8.621 0-5.18-3.049-9.62-7.424-11.68l-8.119 8.101 12.219 12.2zM12.401 13.38l-6.765 6.74-0.905-0.907 15.423-15.415c-1.304-0.437-2.693-0.679-4.153-0.679-7.116-0.004-12.884 5.764-12.884 12.88 0 2.896 0.951 5.571 2.585 7.735l6.741-6.74 0.479 0.439 9.66 9.66c0.2-0.109 0.38-0.219 0.56-0.355l-10.701-10.672-6.472 6.473-0.905-0.905 7.38-7.38 0.479 0.441 11.28 11.249c0.18-0.133 0.34-0.287 0.5-0.421l-12.181-12.155-0.111 0.020zM16.464 14.751l-0.904-0.901 6.384-6.387 0.905 0.919-6.385 6.38zM22.52 5.98l-7.36 7.36-0.907-0.905 7.361-7.36 0.905 0.912z"></path>
</svg>
