<!-- Generated by IcoMoon.io -->
<svg version="1.1" xmlns="http://www.w3.org/2000/svg" width="32" height="32" viewBox="0 0 32 32">
<title>treehouse</title>
<path fill="#5fcf80" d="M27.383 5.491c-1.075-0.604-2.789 0.371-3.828 2.18l-1.888 3.283c-0.287 0.548-0.455 1.197-0.455 1.886 0 0.88 0.275 1.697 0.744 2.367l-0.009-0.013 0.055 0.083c0.871 1.253 2.047 2.411 2.431 2.824 0.359 0.383 0.58 0.901 0.58 1.469 0 0.979-0.655 1.806-1.55 2.066l-0.015 0.004c-0.174 0.051-0.374 0.080-0.58 0.080-1.18 0-2.137-0.957-2.137-2.137 0-0.096 0.006-0.19 0.019-0.283l-0.001 0.011c0.060-0.467-0.089-1.236-0.765-1.985-0.675-0.751-2.053 0.667-2.499 2.147l-0.021 0.081c-0.445 1.459-0.728 2.733-0.643 2.857 0.049 0.080 0.096 0.16 0.14 0.243 0.178 0.328 0.283 0.719 0.283 1.134 0 1.333-1.081 2.414-2.414 2.414-0.918 0-1.716-0.512-2.124-1.267l-0.006-0.013c-0.179-0.328-0.284-0.719-0.284-1.134 0-0.917 0.513-1.714 1.267-2.121l0.013-0.006 0.161-0.081c0.087-0.040 0.347-0.648 0.564-1.376l0.401-1.316c0.025-0.063 0.044-0.143 0.060-0.224l1.196-4.253-1.276 2.613c-0.149-0.484-0.4-0.507-0.945-0.121-0.324 0.244-0.871 0.708-1.133 0.892-0.487 0.364-0.913 1.051-1.135 1.479-0.128 0.27-0.314 0.494-0.542 0.663l-0.005 0.003c-0.912 0.752-2.249 0.608-2.979-0.303-0.291-0.36-0.466-0.823-0.466-1.327 0-1.016 0.714-1.865 1.668-2.073l0.014-0.003c0.545-0.123 2.369-1.236 3.461-2.027 0.203-0.141 0.365-0.263 0.507-0.405l2.937-2.227-2.552 1.376c0 0-0.261-0.021-0.568 0.023-0.931 0.1-1.904 0.243-2.085 0.467-0.104 0.146-0.233 0.267-0.381 0.359l-0.006 0.003c-0.849 0.608-2.025 0.427-2.652-0.423-0.219-0.307-0.349-0.69-0.349-1.103 0-0.638 0.312-1.204 0.792-1.552l0.006-0.004c0.345-0.244 0.769-0.365 1.153-0.365 0.691 0.021 2.493 0.387 3.991 0.123l0.384-0.060c1.52-0.261 3.301-1.581 4.032-2.916l1.579-2.756c0.871-1.519 0.811-3.179-0.14-3.727l-1.764-1.013c-0.871-0.484-2.287-0.484-3.139 0l-11.811 6.621c-0.889 0.465-1.599 1.68-1.599 2.673v12.992c0 0.992 0.709 2.208 1.571 2.693l11.8 6.644c0.869 0.487 2.288 0.487 3.139 0l11.768-6.644c0.871-0.491 1.579-1.701 1.579-2.693v-13.013c0-0.992-0.708-2.204-1.559-2.693l-1.947-1.097z"></path>
</svg>
