<!-- Generated by IcoMoon.io -->
<svg version="1.1" xmlns="http://www.w3.org/2000/svg" width="32" height="32" viewBox="0 0 32 32">
<title>trendmicro</title>
<path fill="#d71921" d="M16 0c-8.827 0-16 7.16-16 16 0 3.267 0.979 6.293 2.667 8.827-0.667-1.56-0.56-3.573 0.253-5.773l0.013-0.053 0.067-0.173 0.067-0.16 0.027-0.067c0.293-0.733 0.667-1.493 1.12-2.253 0.067-0.133 0.12-0.253 0.187-0.347h-1.92l0.467-1.053c1.587-0.44 4.227-1.32 6.747-3.76h1.4l-1.72 3.667h2.76l-0.507 1.093h-2.747c0 0-1.293 2.587-1.733 4.427-0.333 2.053 0 3.627 1.84 4.173 1.133 0.347 2.56 0.267 4.093-0.16 3.587-1.12 7.373-3.56 10.16-6.813 4.587-5.32 4.68-10.773 0.2-12.173-2.867-0.893-6.92 0.107-10.667 2.333 4.667-3.013 9.813-4.4 13.347-3.32 0.667 0.2 1.253 0.493 1.733 0.84-2.932-3.232-7.148-5.253-11.836-5.253-0.006 0-0.012 0-0.018 0h0.001zM29.56 7.507c1.107 2.907-0.267 7.253-3.96 11.547-5.547 6.453-14.307 10.347-19.6 8.72-0.641-0.201-1.198-0.482-1.698-0.839l0.018 0.012c2.918 3.114 7.055 5.053 11.646 5.053 0.012 0 0.024 0 0.036-0h-0.002c8.84 0 16-7.16 16-16 0-3.12-0.893-6-2.44-8.493z"></path>
</svg>
