<!-- Generated by IcoMoon.io -->
<svg version="1.1" xmlns="http://www.w3.org/2000/svg" width="32" height="32" viewBox="0 0 32 32">
<title>tripadvisor</title>
<path fill="#00af87" d="M30.681 12.709c0.375-1.609 1.567-3.221 1.567-3.221h-5.349c-3.001-1.94-6.641-2.968-10.684-2.968-4.187 0-7.971 1.040-10.952 3.001h-5.015c0 0 1.18 1.581 1.56 3.181-0.976 1.343-1.556 2.963-1.556 4.743 0 4.421 3.596 8.011 8.016 8.011 2.521 0 4.761-1.18 6.241-3.005l1.7 2.555 1.721-2.581c0.76 0.981 1.76 1.781 2.94 2.32 1.94 0.88 4.123 0.981 6.123 0.24 4.141-1.539 6.261-6.161 4.741-10.301-0.279-0.741-0.64-1.401-1.080-1.98zM26.453 23.472c-1.6 0.593-3.34 0.527-4.893-0.191-1.099-0.511-2.004-1.309-2.651-2.303-0.268-0.399-0.5-0.831-0.671-1.295-0.195-0.527-0.293-1.071-0.345-1.62-0.099-1.109 0.060-2.231 0.54-3.271 0.72-1.552 2.001-2.735 3.601-3.328 3.32-1.219 7 0.481 8.221 3.788 1.221 3.308-0.48 6.993-3.78 8.217zM13.563 21.027c-1.151 1.695-3.096 2.817-5.297 2.817-3.528 0-6.401-2.875-6.401-6.396s2.875-6.403 6.401-6.403 6.397 2.881 6.397 6.403c0 0.219-0.040 0.419-0.064 0.639-0.108 1.081-0.455 2.101-1.036 2.961zM4.2 17.364c0 2.188 1.781 3.961 3.961 3.961s3.957-1.773 3.957-3.961c0-2.18-1.777-3.952-3.955-3.952-2.181 0-3.961 1.772-3.961 3.952zM20.264 17.364c0 2.188 1.772 3.961 3.957 3.961 2.181 0 3.953-1.773 3.953-3.961 0-2.18-1.772-3.952-3.953-3.952-2.18 0-3.961 1.772-3.961 3.952zM5.568 17.364c0-1.428 1.159-2.591 2.581-2.591 1.419 0 2.599 1.164 2.599 2.591 0 1.435-1.159 2.601-2.599 2.601-1.441 0-2.601-1.167-2.601-2.601zM21.612 17.364c0-1.428 1.159-2.591 2.599-2.591 1.421 0 2.583 1.164 2.583 2.591 0 1.435-1.16 2.601-2.603 2.601-1.439 0-2.599-1.167-2.599-2.601zM16.208 7.92c2.881 0 5.481 0.519 7.763 1.549-0.86 0.024-1.7 0.175-2.541 0.48-2.020 0.74-3.62 2.22-4.5 4.167-0.42 0.88-0.64 1.812-0.721 2.753-0.3-4.101-3.68-7.353-7.841-7.437 2.281-0.979 4.923-1.512 7.783-1.512z"></path>
</svg>
