<!-- Generated by IcoMoon.io -->
<svg version="1.1" xmlns="http://www.w3.org/2000/svg" width="32" height="32" viewBox="0 0 32 32">
<title>trulia</title>
<path fill="#53b50a" d="M16 0c-5.080 0.028-8.361 3.44-8.361 8.593 0 4.268 2.784 7.92 4.369 13.467 0.912 3.18 1.403 7.071 1.656 9.94h4.672c0.256-2.869 0.744-6.76 1.655-9.94 1.585-5.547 4.369-9.197 4.369-13.467 0.001-5.153-3.28-8.565-8.36-8.593zM16.027 13.136c-2.112 0-3.825-1.715-3.825-3.825 0-2.109 1.713-3.823 3.825-3.823 2.113 0 3.825 1.711 3.825 3.823s-1.713 3.825-3.825 3.825z"></path>
</svg>
