<!-- Generated by IcoMoon.io -->
<svg version="1.1" xmlns="http://www.w3.org/2000/svg" width="32" height="32" viewBox="0 0 32 32">
<title>turkishairlines</title>
<path fill="#c70a0c" d="M0.224 18.651c0.363 2.164 1.147 4.153 2.253 5.897 4.127-1.151 7.756-3.327 9.047-8.176 1.42-5.337-0.2-10.932-4.076-13.896-5.28 3.343-8.324 9.627-7.224 16.175zM31.776 13.351c1.464 8.712-4.411 16.963-13.125 18.425-1.467 0.247-2.92 0.285-4.327 0.137-4.656-0.508-8.659-2.943-11.249-6.478l-0.031-0.045 25.904-7.427c0.372-0.107 0.276-0.465-0.032-0.444l-10.86 0.759c1.531-1.477 2.695-3.289 2.553-5.793-0.285-4.057-4.415-8.017-12.095-10.623 2.173-1.174 4.755-1.864 7.499-1.864 0.585 0 1.162 0.031 1.731 0.092l-0.071-0.006c6.971 0.731 12.884 6.016 14.101 13.267z"></path>
</svg>
