<!-- Generated by IcoMoon.io -->
<svg version="1.1" xmlns="http://www.w3.org/2000/svg" width="32" height="32" viewBox="0 0 32 32">
<title>twilio</title>
<path fill="#f22f46" d="M16 0c-8.825-0.011-15.989 7.136-16 15.961v0.039c0 8.853 7.145 16 16 16 8.853 0 16-7.147 16-16 0-8.855-7.147-16-16-16zM16 27.735c-6.461 0.020-11.715-5.205-11.735-11.667v-0.068c-0.019-6.461 5.205-11.715 11.667-11.735h0.068c6.463-0.019 11.715 5.205 11.735 11.667v0.068c0.020 6.463-5.205 11.715-11.667 11.735zM23.253 12.055c0 1.812-1.493 3.305-3.308 3.305-1.821-0.009-3.296-1.484-3.305-3.305 0-1.815 1.493-3.308 3.305-3.308 1.815 0 3.308 1.493 3.308 3.308zM23.253 19.947c0 1.813-1.493 3.307-3.308 3.307-1.823-0.011-3.297-1.485-3.305-3.307 0-1.812 1.493-3.305 3.305-3.305 1.815-0.001 3.308 1.493 3.308 3.305zM15.361 19.947c0 1.813-1.493 3.307-3.305 3.307-1.824-0.009-3.3-1.484-3.308-3.307 0-1.812 1.493-3.305 3.308-3.305 1.811-0.001 3.305 1.493 3.305 3.305zM15.361 12.055c0 1.812-1.493 3.305-3.305 3.305-1.823-0.009-3.3-1.483-3.308-3.305 0-1.815 1.493-3.308 3.308-3.308 1.811 0 3.305 1.493 3.305 3.308z"></path>
</svg>
