<!-- Generated by IcoMoon.io -->
<svg version="1.1" xmlns="http://www.w3.org/2000/svg" width="32" height="32" viewBox="0 0 32 32">
<title>twoo</title>
<path fill="#ff7102" d="M13.488 22.503c0.085-0.072 0.172-0.145 0.252-0.224-1.612 1.568-3.675 2.341-5.721 2.313h-0.031c-2.060-0.033-4.107-0.875-5.66-2.525-0.977-1.040-1.644-2.277-2.009-3.588v-0.009c-0.805-2.932-0.087-6.232 2.14-8.541 3.128-3.245 8.096-3.323 11.279-0.273l2.344 2.46 5.637 5.979h0.024c0.060 0.061 0.12 0.101 0.159 0.161 1.14 1.039 2.883 1 3.981-0.14 1.159-1.2 1.2-3.16 0.063-4.38-0.123-0.14-0.263-0.26-0.404-0.36l-0.32-0.221c-1.099-0.599-2.5-0.4-3.44 0.56-0.14 0.14-0.26 0.301-0.36 0.461-0.401 0.62-0.541 1.36-0.461 2.081l-2.019-2.039-2.341-2.22c0.381-0.751 0.876-1.46 1.485-2.092 0.14-0.14 0.281-0.28 0.424-0.409-0.085 0.073-0.172 0.148-0.252 0.224 1.612-1.568 3.675-2.339 5.721-2.312h0.031c2.060 0.033 4.107 0.875 5.661 2.527 0.976 1.039 1.643 2.276 2.008 3.591v0.008c0.807 2.929 0.088 6.235-2.14 8.54-3.128 3.245-8.096 3.325-11.279 0.273l-1.619-1.715-0.724-0.775-5.633-6.001-0.005-0.020c-0.021 0-0.021-0.020-0.021-0.020-0.060-0.061-0.12-0.12-0.161-0.181-1.139-1.040-2.88-1.020-3.979 0.14-1.16 1.2-1.2 3.16-0.060 4.361 0.12 0.14 0.26 0.24 0.4 0.36l0.32 0.2c1.1 0.581 2.501 0.4 3.44-0.581 0.14-0.139 0.261-0.3 0.361-0.46 0.401-0.62 0.539-1.379 0.46-2.1l2.020 2.081 2.344 2.361c-0.38 0.752-0.876 1.461-1.487 2.092-0.139 0.14-0.28 0.28-0.424 0.408z"></path>
</svg>
