<!-- Generated by IcoMoon.io -->
<svg version="1.1" xmlns="http://www.w3.org/2000/svg" width="32" height="32" viewBox="0 0 32 32">
<title>typo3</title>
<path fill="#ff8700" d="M24.107 22.052c-0.475 0.14-0.853 0.192-1.349 0.192-4.064 0-10.032-14.203-10.032-18.929 0-1.74 0.413-2.32 0.993-2.819-4.972 0.581-10.943 2.407-12.851 4.727-0.413 0.581-0.663 1.493-0.663 2.653 0 7.38 7.875 24.124 13.432 24.124 2.571 0 6.904-4.224 10.469-9.947zM21.512 0c5.14 0 10.284 0.829 10.284 3.731 0 5.887-3.733 13.020-5.64 13.020-3.399 0-7.627-9.453-7.627-14.18 0-2.157 0.828-2.571 2.983-2.571z"></path>
</svg>
