<!-- Generated by IcoMoon.io -->
<svg version="1.1" xmlns="http://www.w3.org/2000/svg" width="32" height="32" viewBox="0 0 32 32">
<title>uber</title>
<path d="M0 10.627v6.613c0 2.493 1.733 4.133 4 4.133 1.107 0 2.080-0.427 2.787-1.16v0.987h1.573v-10.573h-1.587v6.52c0 1.68-1.133 2.813-2.587 2.813-1.48 0-2.6-1.107-2.6-2.813v-6.52h-1.587zM9.92 10.627v10.573h1.507v-0.973c0.697 0.708 1.666 1.147 2.737 1.147 0.003 0 0.007 0 0.010 0h-0.001c0.012 0 0.026 0 0.040 0 2.209 0 4-1.791 4-4 0-0.014-0-0.028-0-0.042l0 0.002c0-0 0-0 0-0 0-2.209-1.791-4-4-4-0.014 0-0.028 0-0.042 0l0.002-0c-0.002 0-0.005 0-0.007 0-1.068 0-2.033 0.439-2.725 1.146l-0.001 0.001v-3.853h-1.52zM23.080 13.333c-2.253 0-3.96 1.84-3.96 4 0 2.307 1.787 4 4.093 4 1.413 0 2.56-0.587 3.32-1.613l-1.093-0.827c-0.573 0.773-1.333 1.107-2.227 1.107-1.293 0-2.333-0.907-2.547-2.16h6.267v-0.507c0-2.28-1.64-4-3.853-4zM31.467 13.44c-0.84 0-1.467 0.387-1.84 1v-0.947h-1.507v7.707h1.52v-4.387c0-1.187 0.733-1.96 1.733-1.96h0.627v-1.427h-0.533zM23.053 14.667c1.133 0 2.080 0.787 2.333 1.96h-4.72c0.307-1.173 1.253-1.96 2.387-1.96zM14.067 14.667c1.453 0 2.64 1.2 2.64 2.667 0 1.507-1.187 2.667-2.64 2.667-1.467-0.008-2.653-1.199-2.653-2.667 0 0 0-0 0-0v0c0 0 0-0 0-0 0-1.468 1.186-2.659 2.653-2.667h0.001z"></path>
</svg>
