<!-- Generated by IcoMoon.io -->
<svg version="1.1" xmlns="http://www.w3.org/2000/svg" width="32" height="32" viewBox="0 0 32 32">
<title>ubisoft</title>
<path d="M31.415 15.985c-0.347-16.391-22.144-22.505-30.541-7.14 0.376 0.275 0.881 0.636 1.257 0.896-0.58 1.183-1.032 2.555-1.287 3.996l-0.014 0.094c-0.155 0.83-0.244 1.785-0.245 2.76v0.001c0 8.499 6.909 15.408 15.423 15.408s15.408-6.895 15.408-15.408zM4.387 18.731c-0.203 1.663-0.072 2.183-0.072 2.385l-0.376 0.131c-0.144-0.275-0.492-1.243-0.651-2.544-0.405-4.957 2.977-9.424 8.137-10.263 4.727-0.693 9.251 2.24 10.305 6.345l-0.376 0.131c-0.116-0.116-0.304-0.448-1.027-1.171-5.709-5.709-14.671-3.093-15.941 4.985zM19.057 21.507c-0.767 1.098-2.025 1.807-3.448 1.807-0.002 0-0.005 0-0.007 0h0c-0.002 0-0.003 0-0.005 0-2.32 0-4.201-1.881-4.201-4.201 0-0.002 0-0.004 0-0.006v0c0.005-2.214 1.716-4.026 3.888-4.191l0.014-0.001c1.359-0.057 2.631 0.68 3.223 1.864 0.229 0.448 0.363 0.977 0.363 1.538 0 0.931-0.37 1.776-0.971 2.395l0.001-0.001c0.391 0.275 0.767 0.535 1.143 0.796zM27.831 21.665c-2.225 5.044-6.808 7.689-11.693 7.617-9.38-0.463-12.112-11.288-5.84-15.191l0.275 0.275c-0.101 0.144-0.477 0.433-1.055 1.576-0.68 1.388-0.896 2.775-0.809 3.643 0.492 7.56 11.087 9.107 14.728 1.619 4.64-10.248-7.675-20.669-18.603-12.705l-0.245-0.245c2.876-4.509 8.499-6.519 13.861-5.175 8.196 2.067 12.604 10.609 9.381 18.587z"></path>
</svg>
