<!-- Generated by IcoMoon.io -->
<svg version="1.1" xmlns="http://www.w3.org/2000/svg" width="32" height="32" viewBox="0 0 32 32">
<title>ublockorigin</title>
<path fill="#800000" d="M16 0c-5.997 4-7.997 4-14 4 0 20.003 0 20.003 14 28 14-7.997 14-7.997 14-28-5.997 0-7.997 0-14-4zM7.941 9.963h2.016v6.048c0 1.763 0.253 2.011 2.016 2.011 1.764 0 2.016-0.253 2.016-2.016v-6.043h2.011v1.023c0.829-0.637 1.882-1.021 3.024-1.023h0c2.778 0.011 5.027 2.261 5.035 5.039v0.001c-0.011 2.778-2.262 5.026-5.039 5.033h-0.001c-1.402-0.003-2.669-0.581-3.578-1.51l-0.001-0.001c-0.619 1.027-1.753 1.511-3.467 1.511-2.772 0-4.032-1.259-4.032-4.031zM19.019 11.979c-0.004-0-0.009-0-0.013-0-1.66 0-3.005 1.346-3.005 3.005 0 0.007 0 0.013 0 0.020v-0.001c-0 0.004-0 0.009-0 0.013 0 1.66 1.346 3.005 3.005 3.005 0.007 0 0.013-0 0.020-0h-0.001c0.004 0 0.009 0 0.013 0 1.66 0 3.005-1.346 3.005-3.005 0-0.007-0-0.013-0-0.020v0.001c0-0.004 0-0.009 0-0.013 0-1.66-1.346-3.005-3.005-3.005-0.007 0-0.013 0-0.020 0h0.001z"></path>
</svg>
