<!-- Generated by IcoMoon.io -->
<svg version="1.1" xmlns="http://www.w3.org/2000/svg" width="32" height="32" viewBox="0 0 32 32">
<title>udacity</title>
<path fill="#01b3e3" d="M10.68 0.184l-10.68 6.056v13.944c-0.020 6.404 5.22 11.613 11.7 11.633 2.139 0.005 4.153-0.557 5.885-1.539l8.649-4.915c3.415-1.741 5.751-5.261 5.764-9.321v-14.581l-2.12-1.221-8.671 4.841v15.164c-0.004 0.643-0.033 1.115-0.204 1.913-0.288 1.22-0.695 2.081-0.765 2.22-0.681-0.040-2.061-0.419-3.181-1.080-0.56-0.32-1.219-0.801-1.819-1.361-0.4-0.38-0.741-0.82-1.040-1.26-0.32-0.46-0.58-0.939-0.78-1.439-0.22-0.521-0.379-1.040-0.5-1.58-0.12-0.561-0.139-1.14-0.139-1.7l0.020-14.557-2.12-1.211zM15.596 28.961c-0.581 0.239-1.185 0.421-1.8 0.547-0.636 0.125-1.221 0.188-1.871 0.188-0.651 0-1.304-0.071-1.936-0.201-0.615-0.123-1.22-0.312-1.8-0.556-0.565-0.239-1.115-0.539-1.625-0.879-1.32-0.921-2-1.721-2.588-2.581-0.347-0.52-0.64-1.060-0.88-1.62-0.244-0.58-0.429-1.181-0.555-1.78-0.12-0.62-0.139-1.281-0.139-1.919v-12.72l8-4.828v13.348c0 5.075 3.759 9.305 8.6 10.329-0.18 0.22-0.32 0.441-0.521 0.64-0.44 0.429-0.9 0.832-1.419 1.169-0.5 0.343-0.86 0.62-1.42 0.859zM29.469 17.751c-0.116 0.539-0.281 1.071-0.5 1.581-0.585 1.273-1.531 2.36-2.32 3.059-1.621 1.468-3.633 1.92-3.864 1.92 0.483-1.264 0.811-2.62 0.815-4.052v-13.959l6.005-3.633 0.004 13.345c0 0.575-0.024 1.172-0.14 1.728z"></path>
</svg>
