<!-- Generated by IcoMoon.io -->
<svg version="1.1" xmlns="http://www.w3.org/2000/svg" width="32" height="32" viewBox="0 0 32 32">
<title>umbraco</title>
<path fill="#00bec1" d="M0 16c0-8.637 7.151-15.575 16-15.575s16 6.937 16 15.575c0 8.635-7.151 15.575-16 15.575s-16-6.939-16-15.575zM15.645 21.307c-1.557 0-2.831-0.139-3.68-0.281-0.992-0.211-1.631-0.779-2.055-1.557-0.355-0.781-0.565-2.052-0.495-3.752 0-0.919 0.071-1.769 0.139-2.62 0.144-0.848 0.213-1.556 0.356-2.125l0.14-0.565v-0.069c0-0.14-0.14-0.284-0.283-0.284l-2.053-0.283h-0.069c-0.14 0-0.284 0.14-0.355 0.213 0 0.139-0.071 0.212-0.139 0.495-0.144 0.637-0.215 1.203-0.356 1.981-0.145 0.913-0.217 1.837-0.212 2.761 0 0-0.071 0.212 0 1.912s0.355 3.044 0.92 4.107c0.567 0.989 1.488 1.768 2.832 2.193 1.347 0.427 3.185 0.639 5.523 0.639h0.284c2.337 0 4.176-0.211 5.52-0.639 1.347-0.424 2.268-1.203 2.835-2.193 0.567-1.060 0.851-2.407 0.92-4.107 0.071-1.7 0-1.912 0-1.912 0-0.991-0.139-1.913-0.213-2.759-0.14-0.851-0.211-1.417-0.355-1.983-0.071-0.283-0.071-0.425-0.14-0.495 0-0.143-0.14-0.213-0.355-0.213h-0.071l-2.053 0.283c-0.14 0-0.284 0.143-0.284 0.284v0.069l0.141 0.565c0.141 0.569 0.211 1.276 0.355 2.124 0.14 0.852 0.14 1.7 0.14 2.62 0 1.7-0.139 2.903-0.495 3.752-0.355 0.781-1.060 1.347-2.052 1.557-0.852 0.213-2.125 0.284-3.683 0.284h-0.708z"></path>
</svg>
