<!-- Generated by IcoMoon.io -->
<svg version="1.1" xmlns="http://www.w3.org/2000/svg" width="32" height="32" viewBox="0 0 32 32">
<title>unrealengine</title>
<path d="M15.999 0c-8.763 0-15.865 7.164-15.865 16 0 8.837 7.103 16 15.865 16 8.761 0 15.865-7.163 15.865-16 0-8.836-7.104-16-15.865-16zM15.999 0.704c4.051 0 7.86 1.592 10.724 4.48 2.746 2.759 4.443 6.563 4.443 10.764 0 0.018-0 0.036-0 0.055v-0.003c0 4.085-1.577 7.927-4.443 10.816-2.724 2.766-6.509 4.48-10.695 4.48-0.010 0-0.020 0-0.029-0h0.002c-0.009 0-0.020 0-0.031 0-4.186 0-7.971-1.714-10.692-4.478l-0.002-0.002c-2.746-2.759-4.444-6.564-4.444-10.766 0-0.018 0-0.035 0-0.053v0.003c0-4.085 1.579-7.927 4.443-10.816 2.723-2.766 6.508-4.48 10.694-4.48 0.011 0 0.022 0 0.033 0h-0.002zM15.205 6.335c-2.584 0.693-4.976 2.021-8.164 5.677-3.189 3.656-2.584 6.675-2.584 6.675s0.88-2.077 2.996-4.265c1.003-1.036 1.752-1.383 2.264-1.384 0.014-0.001 0.029-0.001 0.045-0.001 0.44 0 0.797 0.357 0.797 0.797 0 0.002 0 0.005-0 0.007v-0 7.423c0 0.733-0.472 0.892-0.907 0.884-0.372-0.007-0.716-0.136-0.716-0.136 2.173 3.157 7.368 3.6 7.368 3.6l2.281-2.437 0.053 0.047 2.091 1.781c3.821-2.271 5.664-6.48 5.664-6.48-1.705 1.804-2.792 2.225-3.437 2.223-0.572-0.004-0.796-0.34-0.796-0.34-0.031-0.156-0.084-2.413-0.104-4.673-0.019-2.341-0.001-4.684 0.116-4.691 0.659-1.239 2.764-3.736 2.764-3.736-3.931 0.775-6.075 3.351-6.075 3.351-0.633-0.499-1.925-0.415-1.925-0.415 0.605 0.333 1.209 1.301 1.209 2.104v7.893c0 0-1.32 1.164-2.336 1.164-0.601 0-0.972-0.329-1.175-0.599-0.077-0.099-0.144-0.213-0.196-0.334l-0.004-0.010v-9.748c-0.134 0.099-0.301 0.16-0.483 0.164h-0.001c-0.216 0-0.44-0.109-0.592-0.427-0.115-0.24-0.188-0.6-0.188-1.123 0-1.8 2.033-2.991 2.033-2.991z"></path>
</svg>
