<!-- Generated by IcoMoon.io -->
<svg version="1.1" xmlns="http://www.w3.org/2000/svg" width="32" height="32" viewBox="0 0 32 32">
<title>untappd</title>
<path fill="#ffc000" d="M14.667 17.732l-7.765 10.844c-0.397 0.555-1.067 0.847-1.744 0.763-0.771-0.096-1.832-0.385-2.927-1.172s-1.708-1.701-2.045-2.403c-0.117-0.238-0.186-0.517-0.186-0.813 0-0.408 0.131-0.785 0.352-1.093l-0.004 0.006 7.765-10.844c0.371-0.514 0.845-0.931 1.394-1.225l0.022-0.011 1.528-0.805c0.307-0.161 0.581-0.377 0.811-0.637 0.741-0.841 2.732-3.045 6.261-6.609l0.061-0.283c0.015-0.065 0.064-0.116 0.127-0.133l0.001-0 0.195-0.049c0.078-0.021 0.135-0.091 0.135-0.174 0-0.005-0-0.010-0.001-0.014l0 0.001-0.020-0.24c-0-0.005-0.001-0.010-0.001-0.016 0-0.094 0.074-0.17 0.167-0.173h0c0.235-0.007 0.691 0.061 1.335 0.524s0.853 0.875 0.923 1.099c0.005 0.015 0.007 0.032 0.007 0.050 0 0.082-0.057 0.15-0.133 0.169l-0.001 0-0.233 0.059c-0.078 0.020-0.135 0.089-0.135 0.172 0 0.006 0 0.011 0.001 0.016l-0-0.001 0.016 0.2c0 0.004 0.001 0.009 0.001 0.014 0 0.063-0.034 0.119-0.084 0.149l-0.001 0-0.248 0.149c-2.239 4.492-3.685 7.088-4.244 8.061-0.163 0.281-0.283 0.608-0.34 0.957l-0.002 0.017-0.273 1.708c-0.108 0.661-0.36 1.249-0.723 1.751l0.008-0.012zM31.652 23.863l-7.765-10.844c-0.371-0.514-0.845-0.931-1.394-1.225l-0.022-0.011-1.528-0.807c-0.316-0.168-0.584-0.381-0.808-0.634l-0.003-0.003c-0.315-0.357-0.57-0.641-0.828-0.923l0.046 0.051c-0.022-0.023-0.052-0.037-0.086-0.037-0.044 0-0.083 0.024-0.103 0.060l-0 0.001c-1.088 2.132-1.862 3.538-2.661 4.928l0.334-0.631c-0.109 0.186-0.189 0.404-0.227 0.636l-0.001 0.011c-0.037 0.221-0.058 0.476-0.058 0.735s0.021 0.514 0.062 0.762l-0.004-0.027 0.013 0.085c0.1 0.628 0.345 1.224 0.715 1.74l7.765 10.844c0.395 0.551 1.053 0.847 1.725 0.765 1.12-0.147 2.121-0.565 2.963-1.187l-0.017 0.012c0.867-0.618 1.56-1.426 2.027-2.366l0.017-0.037c0.118-0.238 0.187-0.518 0.187-0.814 0-0.407-0.131-0.784-0.352-1.091l0.004 0.006zM11.075 4.488l0.233 0.059c0.078 0.020 0.135 0.090 0.135 0.173 0 0.005-0 0.010-0.001 0.015l0-0.001-0.016 0.2c-0 0.005-0.001 0.010-0.001 0.015 0 0.063 0.034 0.118 0.084 0.149l0.001 0 0.248 0.149c0.415 0.831 0.799 1.592 1.159 2.295 0.035 0.068 0.121 0.080 0.172 0.025 0.583-0.625 1.285-1.367 2.113-2.224 0.033-0.033 0.053-0.079 0.053-0.129 0-0.048-0.019-0.092-0.049-0.125l0 0c-0.42-0.429-0.86-0.879-1.336-1.36l-0.061-0.283c-0.014-0.065-0.064-0.116-0.127-0.132l-0.001-0-0.195-0.049c-0.078-0.021-0.135-0.091-0.135-0.174 0-0.005 0-0.010 0.001-0.014l-0 0.001 0.020-0.24c0-0.005 0.001-0.010 0.001-0.016 0-0.093-0.073-0.168-0.164-0.173l-0-0c-0.233-0.007-0.691 0.060-1.336 0.524-0.644 0.463-0.853 0.875-0.923 1.099-0.004 0.014-0.007 0.031-0.007 0.048 0 0.081 0.056 0.149 0.131 0.168l0.001 0z"></path>
</svg>
