<!-- Generated by IcoMoon.io -->
<svg version="1.1" xmlns="http://www.w3.org/2000/svg" width="32" height="32" viewBox="0 0 32 32">
<title>v</title>
<path fill="#5d87bf" d="M31.299 0.212l-8.525 0.821c-0.541 0.052-1.125 0.511-1.304 1.024l-5.456 15.665-5.483-15.667c-0.179-0.512-0.764-0.971-1.304-1.023l-8.525-0.821c-0.54-0.052-0.829 0.32-0.647 0.832l10.725 29.823c0.184 0.511 0.775 0.927 1.317 0.927h8.349c0.097 0 0.179-0.027 0.239-0.073 0.165-0.083 0.308-0.225 0.367-0.389l0.052-0.144 10.84-30.143c0.184-0.512-0.105-0.884-0.645-0.832z"></path>
</svg>
