<!-- Generated by IcoMoon.io -->
<svg version="1.1" xmlns="http://www.w3.org/2000/svg" width="32" height="32" viewBox="0 0 32 32">
<title>valve</title>
<path fill="#f74843" d="M0 11.439v9.123h32v-9.121zM2.4 13.325h1.057l1.035 4.059 1.013-4.059h1.115l-1.636 5.372h-0.984zM9.717 13.325h1.445l1.527 5.379h-1.085l-0.36-1.343h-1.607c0 0-0.28 1.080-0.339 1.32-0.323 0.023-1.107 0-1.107 0zM15.296 13.325h1.056v4.469h2.253v0.903h-3.309zM19.896 13.325h1.088l1.035 4.007 1.005-4.007h1.087l-1.629 5.379h-0.955zM26.333 13.325h2.253v0.696h-1.445v0.779h1.32v0.697h-1.32v0.8h1.445v0.697h-2.253zM10.464 14.232l-0.568 2.269h1.187z"></path>
</svg>
