<!-- Generated by IcoMoon.io -->
<svg version="1.1" xmlns="http://www.w3.org/2000/svg" width="32" height="32" viewBox="0 0 32 32">
<title>veeam</title>
<path fill="#00b336" d="M8.84 13.123c-1.472 0-2.668 1.26-2.668 2.801v0.144c0 1.763 1.129 2.717 2.633 2.801 0.068 0.008 0.144 0.008 0.213 0.008 0.58 0 1.059-0.153 1.593-0.481 0.053-0.031 0.268-0.176 0.481-0.451 0.176-0.221 0.184-0.548 0-0.724-0.267-0.252-0.549-0.115-0.793 0.099-0.389 0.328-0.688 0.589-1.467 0.589-0.733 0-1.419-0.421-1.587-1.253 0-0.031 0.013-0.060 0.045-0.060h3.588c0.347-0.002 0.627-0.284 0.627-0.631 0-0.015-0.001-0.029-0.001-0.043l0 0.002c0-1.541-1.191-2.801-2.665-2.801zM14.795 13.123c-1.467 0-2.661 1.26-2.661 2.801v0.144c0 1.763 1.128 2.717 2.632 2.801 0.069 0.008 0.145 0.008 0.213 0.008 0.58 0 1.060-0.153 1.595-0.481 0.053-0.031 0.267-0.176 0.481-0.451 0.176-0.221 0.183-0.548 0-0.724-0.267-0.252-0.551-0.115-0.795 0.099-0.389 0.328-0.687 0.589-1.467 0.589-0.732 0-1.417-0.421-1.585-1.253-0.008-0.031 0.013-0.060 0.037-0.060h3.588c0.347-0.002 0.627-0.284 0.627-0.631 0-0.015-0-0.029-0.001-0.043l0 0.002c-0.008-1.541-1.2-2.801-2.664-2.801zM5.608 13.176c-0.201 0.007-0.374 0.125-0.459 0.294l-0.001 0.003-1.893 4.084c-0.045 0.084-0.083 0.147-0.181 0.147-0.1 0-0.14-0.063-0.185-0.147l-1.893-4.076c-0.081-0.178-0.258-0.3-0.462-0.3-0.090 0-0.175 0.024-0.248 0.065l0.003-0.001c-0.173 0.1-0.288 0.284-0.288 0.495 0 0.091 0.021 0.178 0.060 0.254l-0.002-0.003 1.853 3.771 0.213 0.427c0.172 0.361 0.531 0.607 0.948 0.613h0.001c0.417-0.005 0.776-0.252 0.943-0.607l0.003-0.006 0.213-0.427 1.847-3.779c0.039-0.075 0.062-0.163 0.062-0.257 0-0.208-0.113-0.39-0.281-0.488l-0.003-0.001c-0.069-0.039-0.152-0.061-0.24-0.061-0.003 0-0.006 0-0.009 0h0zM20.757 13.176c-0.001 0-0.002 0-0.004 0-0.256 0-0.491 0.095-0.669 0.252l0.001-0.001c-0.115 0.098-0.208 0.218-0.273 0.354l-0.003 0.006-2.121 4.183c0 0.007-0.008 0.008-0.008 0.015v0.008c-0.040 0.076-0.063 0.166-0.063 0.262 0 0.122 0.038 0.236 0.103 0.329l-0.001-0.002c0 0.007 0.008 0.008 0.008 0.015 0 0.008 0.008 0.005 0.008 0.013 0.091 0.12 0.235 0.197 0.396 0.197 0.11 0 0.212-0.036 0.294-0.096l-0.001 0.001c0 0 0.007 0 0.007-0.008 0.012-0.006 0.023-0.014 0.032-0.023l0-0 0.020-0.024 0.008-0.008c0.039-0.040 0.072-0.085 0.1-0.134l0.002-0.003 0.076-0.167 0.443-0.933c0.008-0.023 0.037-0.036 0.060-0.036h1.979c0.26 0 0.472-0.223 0.472-0.505 0-0.275-0.212-0.503-0.472-0.503h-1.465c-0.031 0-0.055-0.032-0.040-0.061l0.107-0.229 0.803-1.609v-0.008c0 0 0-0.008 0.008-0.008 0.015-0.031 0.053-0.144 0.131-0.167 0.045-0.016 0.084-0.016 0.115 0 0.084 0.023 0.112 0.121 0.151 0.197l1.94 4.029c0.088 0.173 0.265 0.289 0.468 0.289 0.061 0 0.121-0.011 0.175-0.030l-0.004 0.001c0 0 0.008 0 0.008-0.008l0.047-0.023c0.008 0 0.009-0.008 0.016-0.008 0 0 0.008 0 0.008-0.008 0.008 0 0.008-0.008 0.016-0.008s0.013-0.005 0.013-0.013c0.008 0 0.008-0.008 0.015-0.008 0.008-0.008 0.016-0.016 0.024-0.016l0.031-0.031c0.114-0.1 0.186-0.247 0.186-0.41 0-0.093-0.023-0.181-0.065-0.257l0.001 0.003-2.131-4.205c-0.172-0.358-0.532-0.601-0.948-0.603h-0zM25.435 13.176c-0.52 0-0.945 0.443-0.945 1.037v4.024c0 0.244 0.139 0.472 0.352 0.541 0.351 0.115 0.648-0.191 0.648-0.549l-0.077-3.917c0.002-0.020 0.019-0.036 0.040-0.036 0.012 0 0.022 0.005 0.030 0.013l0 0 1.923 3.908c0.183 0.373 0.489 0.597 0.833 0.597 0.343 0 0.655-0.223 0.831-0.597l1.932-3.913c0.015-0.039 0.067-0.025 0.067 0.021l-0.075 3.94c0 0.312 0.236 0.564 0.519 0.549 0.275-0.008 0.489-0.276 0.489-0.573v-4.008c0.015-0.603-0.413-1.028-0.933-1.036-0.358 0.005-0.666 0.216-0.811 0.52l-0.002 0.005c-0.481 0.985-1.901 3.907-1.901 3.915-0.008 0.015-0.039 0.085-0.1 0.085-0.053 0-0.091-0.063-0.099-0.085-0.465-0.969-1.396-2.885-1.877-3.877-0.191-0.383-0.505-0.563-0.841-0.564zM8.833 14.039c0.931 0 1.52 0.703 1.612 1.527 0 0.031-0.016 0.060-0.047 0.060h-3.107c-0.031-0.008-0.044-0.029-0.044-0.060 0.099-0.809 0.653-1.527 1.585-1.527zM14.793 14.039h0.004c0.929 0.001 1.517 0.703 1.609 1.527 0 0.031-0.017 0.060-0.047 0.060h-3.107c-0.031-0.008-0.053-0.029-0.045-0.060 0.1-0.808 0.657-1.525 1.585-1.527z"></path>
</svg>
