<!-- Generated by IcoMoon.io -->
<svg version="1.1" xmlns="http://www.w3.org/2000/svg" width="32" height="32" viewBox="0 0 32 32">
<title>viadeo</title>
<path fill="#f88d2d" d="M13.475 29.316h0.039c1.544 0 2.961-0.375 4.251-1.121 1.291-0.747 2.312-1.805 3.072-3.18 0.756-1.369 1.137-2.849 1.137-4.44 0-1.285-0.221-2.473-0.68-3.56 0.76-0.159 1.68-0.472 2.639-1.065 0.58 1.404 0.88 2.925 0.88 4.568 0 3.060-1.040 5.74-3.16 8.040-2.123 2.283-4.823 3.443-8.123 3.443-3.32 0-6.029-1.145-8.133-3.441-2.101-2.293-3.14-4.975-3.14-8.039 0-3.044 0.995-5.68 2.987-7.913 2.18-2.461 4.948-3.693 8.287-3.693 1.409 0 2.712 0.22 3.915 0.656-0.389 0.763-0.744 1.699-0.839 2.705-0.956-0.4-1.981-0.6-3.081-0.6-2.316 0-4.305 0.869-5.967 2.607-1.659 1.74-2.491 3.841-2.491 6.301 0 1.6 0.38 3.080 1.14 4.439 0.755 1.381 1.779 2.44 3.068 3.183 0.86 0.5 1.769 0.84 2.735 1 8.276-3.2 7.303-18.88 7.241-19.741l0.071 0.22c4.861 12.979-5.735 19.659-5.735 19.659h-0.1zM28.104 0.725c-1.355 2.876-3.861 3.411-3.861 3.411-2.504 0.636-3.379 1.601-3.379 1.601-2.505 2.519-0.533 5.576-0.533 5.576 5.412-1.232 7.388-5.677 7.388-5.677-0.241 2.987-6.681 6.516-6.681 6.516 2.132 2.084 4.165 1.833 5.509 1.032 1.781-1.060 2.637-3.38 2.637-3.38 1.725-5.161-1.080-9.080-1.080-9.079zM14.804 0c2.659 4.472 4.107 8.487 4.432 9.44v-0.039c-0.656-6.891-4.44-9.401-4.44-9.401z"></path>
</svg>
