<!-- Generated by IcoMoon.io -->
<svg version="1.1" xmlns="http://www.w3.org/2000/svg" width="32" height="32" viewBox="0 0 32 32">
<title>vimeo</title>
<path fill="#1ab7ea" d="M31.969 8.555c-0.14 3.117-2.319 7.391-6.525 12.812-4.357 5.663-8.035 8.493-11.053 8.493-1.879 0-3.437-1.725-4.737-5.175l-2.557-9.485c-0.959-3.445-1.984-5.171-3.083-5.171-0.239 0-1.075 0.504-2.508 1.509l-1.505-1.943c1.58-1.392 3.135-2.779 4.668-4.171 2.105-1.824 3.687-2.78 4.739-2.879 2.489-0.24 4.021 1.467 4.596 5.117 0.62 3.937 1.052 6.385 1.295 7.343 0.719 3.267 1.508 4.899 2.368 4.899 0.669 0 1.675-1.061 3.020-3.18 1.339-2.119 2.053-3.729 2.149-4.837 0.192-1.828-0.527-2.748-2.152-2.748-0.765 0-1.556 0.161-2.369 0.521 1.581-5.157 4.579-7.676 9.016-7.516 3.297 0.080 4.837 2.219 4.657 6.396z"></path>
</svg>
