<!-- Generated by IcoMoon.io -->
<svg version="1.1" xmlns="http://www.w3.org/2000/svg" width="32" height="32" viewBox="0 0 32 32">
<title>vine</title>
<path fill="#11b48a" d="M30.028 15.896c-0.824 0.191-1.623 0.275-2.344 0.275-4.037 0-7.148-2.821-7.148-7.725 0-2.401 0.941-3.641 2.261-3.641 1.261 0 2.083 1.121 2.083 3.403 0 1.3-0.341 2.721-0.6 3.563 0 0 1.24 2.181 4.641 1.5 0.72-1.601 1.123-3.683 1.123-5.503 0-4.905-2.501-7.767-7.085-7.767-4.724-0.023-7.487 3.6-7.487 8.384 0 4.733 2.212 8.796 5.86 10.647-1.533 3.068-3.485 5.771-5.523 7.808-3.692-4.468-7.031-10.427-8.403-22.055h-5.451c2.519 19.368 10.023 25.532 12.005 26.713 1.12 0.672 2.088 0.64 3.115 0.065 1.62-0.917 6.464-5.753 9.145-11.417 1.12-0.004 2.481-0.133 3.823-0.437v-3.82z"></path>
</svg>
