<!-- Generated by IcoMoon.io -->
<svg version="1.1" xmlns="http://www.w3.org/2000/svg" width="32" height="32" viewBox="0 0 32 32">
<title>virb</title>
<path fill="#0093da" d="M23.644 9.649c0-0.333 0-0.635 0.2-0.833 0.265-0.235 0.533-0.2 0.8-0.2h1.904c1.021 0 2.5 0.265 3.5 1.169 1 0.932 1.22 2.268 1.22 3.472v3.003c0 0.799 0.020 1.369-0.379 2.104-0.5 0.935-1.54 1.2-1.54 1.336 0 0.133 1.119 0.336 1.619 1.336 0.401 0.8 0.36 1.3 0.36 2.101v4.14c0 0.82 0 1.86-1.199 3.26-1.14 1.257-2.719 1.44-3.52 1.44-0.599 0-1.039 0.021-1.64 0-0.399-0.041-0.999 0.021-1.139-0.183-0.199-0.297-0.259-0.237-0.259-1.139v-21.017zM16.364 31.448c0 0.536-0.132 0.536-1.133 0.536-0.768 0-1 0-1-0.469v-21.876c0-0.333 0.031-0.697 0.232-0.899 0.268-0.235 0.5-0.135 0.768-0.135h1.904c1.068 0 2.504 0.265 3.504 1.168 1 0.932 1.236 2.304 1.236 3.472v3.013c0 0.799 0.033 1.369-0.368 2.104-0.5 0.935-1.568 1.2-1.568 1.336 0 0.133 1.1 0.336 1.6 1.336 0.4 0.8 0.369 1.3 0.369 2.101v8.3c0 0.521-0.24 0.521-1.14 0.521-0.779 0-1 0.021-1-0.479v-8.479c0-1.369-0.899-2.203-1.639-2.203-1.58 0-1.78-0.031-1.78 0.5v10.12zM11.26 31.948c-0.901 0-1 0-1-0.467v-22.332c0-0.433 0.197-0.5 1-0.5 0.899 0 1.133 0.031 1.133 0.531v22.239c0 0.5-0.060 0.539-1.12 0.539zM26.147 29.779c0.261 0.041 0.301 0.041 0.601 0.041 0.36 0 1.199-0.099 1.8-0.721 0.66-0.719 0.7-1.197 0.7-1.757v-4.281c0-1.539-0.9-2.197-1.9-2.197-1.44 0-1.541 0.099-1.541 0.899v7.019c0 0.383 0.020 1 0.32 1.041zM4.812 25.036c0.568-5.737 1.068-10.613 1.599-15.857 0.068-0.564 0.336-0.531 0.94-0.531 0.932 0 1.265 0.068 1.232 0.433-1 8.219-1.768 14.299-2.769 22.419-0.061 0.481-0.42 0.5-1.1 0.5-0.86 0-1.26 0-1.34-0.56-0.9-7.521-1.72-14.2-2.699-22.397-0.021-0.401 0.14-0.401 1.079-0.401 0.98 0 1.181 0.1 1.199 0.539 0.541 5.841 0.941 10.38 1.441 15.94 0 0.101 0.041 0.32 0.2 0.32 0.2 0 0.24-0.219 0.24-0.36zM17.232 10.82c-0.3 0-0.601 0-0.737 0.231-0.099 0.2-0.099 0.369-0.099 0.569v6.243c0 0.367-0.068 0.735 0.2 0.935 0.197 0.159 0.432 0.12 0.599 0.12 0.369 0 1.24-0.099 1.84-0.74 0.665-0.743 0.665-1.3 0.665-1.78v-3.139c0-0.767-0.133-1.336-0.7-1.935-0.367-0.333-0.567-0.5-1.768-0.5zM26.877 10.82c-0.469 0-0.833 0-0.969 0.231-0.097 0.2-0.097 0.369-0.097 0.569v6.243c0 0.367-0.035 0.667 0.199 0.901 0.199 0.2 0.335 0.167 0.6 0.167 0.467 0 1.236-0.099 1.84-0.732 0.664-0.743 0.664-1.243 0.664-1.78v-3.16c0-0.767-0.132-1.336-0.701-1.935-0.367-0.333-0.597-0.5-1.535-0.5zM14.52 2.68h-2.104v-2.153c0-0.495-0.231-0.527-1.115-0.527-0.783 0-0.98 0.065-0.98 0.491v2.189h-2.049c-0.492 0-0.528 0.232-0.528 1.113 0 0.787 0.068 0.98 0.492 0.98h2.084v2.065c0 0.456 0.1 0.456 0.979 0.456 1.048 0 1.115-0.031 1.115-0.524v-1.993h2.169c0.46 0 0.46-0.101 0.46-0.981 0.001-1.048-0.032-1.115-0.523-1.116z"></path>
</svg>
