<!-- Generated by IcoMoon.io -->
<svg version="1.1" xmlns="http://www.w3.org/2000/svg" width="32" height="32" viewBox="0 0 32 32">
<title>vodafone</title>
<path fill="#e60000" d="M16 0c-8.837 0-16 7.163-16 16v0c0 8.837 7.163 16 16 16v0c8.837 0 16-7.163 16-16v0c0-8.837-7.163-16-16-16v0zM21.667 1.493c0.427 0 0.867 0.040 1.147 0.133-2.893 0.6-5.2 3.293-5.187 6.373 0 0.067 0 0.147 0.013 0.227 4.853 1.187 7.027 4.107 7.027 8.147 0.053 4.040-3.147 8.48-8.547 8.493-4.36 0.013-8.907-3.72-8.933-9.707-0.013-3.96 2.147-7.773 4.867-10.027 2.667-2.213 6.307-3.627 9.613-3.64z"></path>
</svg>
