<!-- Generated by IcoMoon.io -->
<svg version="1.1" xmlns="http://www.w3.org/2000/svg" width="32" height="32" viewBox="0 0 32 32">
<title>volkswagen</title>
<path fill="#151f5d" d="M16 0c-8.853 0-16 7.147-16 16s7.147 16 16 16 16-7.147 16-16-7.147-16-16-16zM16 1.88c1.6 0 3.147 0.293 4.573 0.787l-4.4 9.507c-0.053 0.053-0.053 0.173-0.173 0.173s-0.12-0.12-0.173-0.173l-4.4-9.507c1.427-0.493 2.973-0.773 4.573-0.773zM9.2 3.653l5.093 10.973c0.107 0.227 0.227 0.293 0.373 0.293h2.667c0.16 0 0.267-0.067 0.387-0.293l5.027-10.973c2.107 1.2 3.92 2.92 5.2 4.973l-7.147 13.827c-0.053 0.12-0.133 0.173-0.173 0.173-0.107 0-0.107-0.107-0.173-0.173l-2.733-6.053c-0.12-0.227-0.227-0.28-0.387-0.28h-2.667c-0.147 0-0.267 0.053-0.387 0.28l-2.733 6.053c-0.067 0.067-0.053 0.173-0.173 0.173s-0.12-0.107-0.173-0.173l-7.2-13.827c1.253-2.053 3.093-3.773 5.2-4.973zM2.747 11.373l8.227 16c0.107 0.227 0.227 0.4 0.52 0.4 0.28 0 0.387-0.173 0.507-0.4l3.827-8.52c0.053-0.107 0.12-0.187 0.173-0.187 0.12 0 0.12 0.133 0.173 0.187l3.88 8.52c0.12 0.227 0.227 0.4 0.52 0.4 0.28 0 0.4-0.173 0.507-0.4l8.253-16c0.493 1.427 0.787 2.973 0.787 4.627-0.067 7.72-6.4 14.12-14.12 14.12s-14.053-6.4-14.053-14.12c0-1.6 0.28-3.133 0.8-4.627z"></path>
</svg>
