<!-- Generated by IcoMoon.io -->
<svg version="1.1" xmlns="http://www.w3.org/2000/svg" width="32" height="32" viewBox="0 0 32 32">
<title>vsco</title>
<path d="M16 0c-8.832 0-16 7.168-16 16s7.168 16 16 16 16-7.168 16-16-7.168-16-16-16zM31.36 16c0 0.544-0.031 1.056-0.096 1.568l-2.72-0.32c0.032-0.416 0.067-0.832 0.067-1.248 0-0.384-0.033-0.8-0.067-1.184l2.72-0.32c0.096 0.512 0.096 0.992 0.096 1.504zM0.639 16c0-0.512 0.032-1.025 0.065-1.536l2.72 0.32c-0.032 0.416-0.063 0.8-0.063 1.216s0.031 0.8 0.063 1.216l-2.72 0.32c-0.065-0.511-0.065-1.024-0.065-1.536zM27.935 11.872l2.561-0.96c0.352 0.96 0.577 1.952 0.736 2.976l-2.72 0.32c-0.129-0.8-0.32-1.6-0.577-2.336zM28 16c0 0.8-0.096 1.568-0.223 2.336l-2.689-0.607c0.095-0.545 0.159-1.121 0.159-1.729s-0.064-1.216-0.159-1.792l2.689-0.609c0.157 0.769 0.223 1.569 0.223 2.401zM16 24.608c-4.753-0.001-8.607-3.855-8.608-8.608 0.001-4.753 3.855-8.607 8.608-8.608 4.753 0.001 8.607 3.855 8.608 8.608 0.011 4.745-3.828 8.597-8.572 8.608zM16.288 28v-2.752c1.18-0.039 2.341-0.299 3.424-0.767l1.184 2.496c-1.453 0.643-3.019 0.989-4.608 1.023zM11.040 26.945l1.216-2.497c1.056 0.479 2.208 0.767 3.424 0.8v2.752c-1.603-0.031-3.181-0.391-4.64-1.055zM4 16c0-0.832 0.096-1.632 0.256-2.432l2.688 0.608c-0.131 0.6-0.195 1.211-0.192 1.824 0 0.576 0.064 1.152 0.16 1.696l-2.688 0.607c-0.156-0.757-0.232-1.529-0.224-2.303zM15.68 4v2.752c-1.169 0.039-2.32 0.299-3.392 0.768l-1.184-2.495c1.444-0.637 2.999-0.985 4.576-1.025zM20.927 5.056l-1.215 2.496c-1.079-0.484-2.243-0.745-3.424-0.768v-2.752c1.664 0 3.232 0.384 4.639 1.024zM27.711 11.264c-0.308-0.747-0.684-1.464-1.12-2.144l2.241-1.536c0.543 0.864 1.024 1.76 1.408 2.72zM27.617 12.992l-2.691 0.608c-0.307-1.133-0.828-2.197-1.535-3.136l2.176-1.727c0.96 1.279 1.664 2.687 2.049 4.255zM23.008 9.984c-0.763-0.889-1.685-1.627-2.72-2.177l1.216-2.495c1.408 0.732 2.657 1.732 3.68 2.944zM22.208 4.992l1.28-2.432c0.896 0.512 1.727 1.088 2.528 1.76l-1.823 2.080c-0.615-0.535-1.279-1.005-1.985-1.408zM21.664 4.704c-0.72-0.355-1.469-0.644-2.24-0.864l0.672-2.656c0.992 0.288 1.952 0.64 2.879 1.12zM18.784 3.68c-0.8-0.192-1.6-0.288-2.432-0.319v-2.723c1.057 0.032 2.112 0.16 3.104 0.385zM15.744 3.361c-0.807 0.028-1.609 0.125-2.4 0.288l-0.64-2.657c0.96-0.224 1.983-0.353 3.040-0.353zM12.704 3.807c-0.781 0.223-1.541 0.512-2.272 0.865l-1.28-2.432c0.921-0.457 1.887-0.821 2.88-1.088zM9.888 4.96c-0.705 0.392-1.369 0.853-1.984 1.376l-1.824-2.048c0.8-0.672 1.632-1.248 2.528-1.759zM10.528 5.312l1.184 2.495c-1.056 0.544-1.952 1.28-2.72 2.144l-2.144-1.727c1.033-1.193 2.281-2.181 3.68-2.912zM6.464 8.736l2.144 1.727c-0.707 0.94-1.228 2.004-1.536 3.137l-2.688-0.608c0.416-1.6 1.12-3.040 2.080-4.256zM4.32 11.2l-2.56-0.96c0.383-0.96 0.864-1.888 1.44-2.72l2.24 1.568c-0.455 0.659-0.831 1.367-1.12 2.112zM4.096 11.807c-0.256 0.769-0.48 1.536-0.576 2.368l-2.72-0.317c0.16-1.025 0.384-2.049 0.737-3.009zM3.488 17.824c0.128 0.8 0.319 1.6 0.576 2.368l-2.56 0.96c-0.361-0.971-0.608-1.98-0.736-3.009zM4.32 20.768c0.319 0.768 0.704 1.472 1.12 2.143l-2.24 1.537c-0.58-0.839-1.063-1.741-1.44-2.688zM4.352 18.912l2.689-0.608c0.288 1.152 0.832 2.241 1.504 3.168l-2.145 1.728c-0.967-1.276-1.663-2.735-2.048-4.288zM8.928 21.952c0.769 0.896 1.696 1.664 2.752 2.208l-1.216 2.496c-1.417-0.743-2.679-1.753-3.712-2.976zM9.888 27.039l-1.28 2.433c-0.899-0.501-1.747-1.092-2.528-1.761l1.824-2.047c0.608 0.543 1.248 0.992 1.984 1.375zM10.432 27.328c0.704 0.352 1.472 0.64 2.273 0.863l-0.672 2.656c-0.996-0.261-1.961-0.625-2.88-1.087zM13.312 28.352c0.768 0.16 1.568 0.257 2.4 0.289v2.719c-1.032-0.035-2.059-0.152-3.073-0.352zM16.352 28.64c0.807-0.028 1.609-0.125 2.401-0.289l0.639 2.656c-0.999 0.224-2.017 0.352-3.040 0.383zM19.361 28.192c0.781-0.22 1.54-0.509 2.271-0.863l1.28 2.432c-0.917 0.467-1.883 0.831-2.879 1.087zM22.143 27.039c0.704-0.383 1.376-0.863 1.984-1.375l1.825 2.047c-0.784 0.669-1.631 1.26-2.528 1.761zM21.504 26.688l-1.184-2.495c1.051-0.552 1.985-1.303 2.752-2.208l2.141 1.728c-1.037 1.213-2.296 2.224-3.709 2.975zM25.599 23.232l-2.143-1.728c0.709-0.944 1.221-2.023 1.504-3.168l2.689 0.608c-0.415 1.543-1.108 2.997-2.051 4.288zM27.68 20.8l2.56 0.961c-0.384 0.96-0.864 1.856-1.439 2.72l-2.243-1.569c0.449-0.672 0.832-1.376 1.121-2.112zM27.904 20.193c0.256-0.737 0.448-1.536 0.577-2.336l2.719 0.319c-0.147 1.015-0.392 2.011-0.735 2.976zM28.512 7.072l-2.241 1.536c-0.477-0.653-1.013-1.263-1.599-1.824l1.824-2.048c0.736 0.736 1.408 1.504 2.016 2.336zM5.6 4.704l1.824 2.048c-0.608 0.544-1.12 1.152-1.6 1.824l-2.24-1.568c0.575-0.848 1.253-1.621 2.016-2.304zM3.552 24.992l2.24-1.536c0.48 0.64 1.025 1.249 1.6 1.825l-1.824 2.047c-0.731-0.727-1.405-1.508-2.016-2.336zM26.432 27.297l-1.824-2.049c0.576-0.543 1.121-1.151 1.599-1.792l2.243 1.568c-0.609 0.8-1.281 1.567-2.017 2.273z"></path>
</svg>
