<!-- Generated by IcoMoon.io -->
<svg version="1.1" xmlns="http://www.w3.org/2000/svg" width="32" height="32" viewBox="0 0 32 32">
<title>wattpad</title>
<path fill="#f68d12" d="M30.609 24.347c0 2.367-1.809 4.175-4.173 4.175h-13.916c-7.095 0-11.131-3.756-11.131-10.435v-10.433c0-2.365 1.809-4.173 4.175-4.173h4.173c0.696 0 1.531 0.139 2.088 0.556 0.556-0.417 1.391-0.556 2.087-0.556h4.173c0.696 0 1.531 0.139 2.087 0.556 0.557-0.417 1.392-0.556 2.088-0.556h4.173c2.365 0 4.173 1.808 4.173 4.173zM26.436 2.087h-4.175c-0.696 0-1.392 0.14-2.088 0.417-0.617-0.26-1.333-0.413-2.085-0.417h-4.175c-0.696 0-1.392 0.14-2.087 0.417-0.617-0.26-1.334-0.413-2.086-0.417h-4.175c-3.070 0.009-5.557 2.496-5.565 5.566v10.435c0 7.373 4.731 11.827 12.521 11.827h13.913c3.071-0.009 5.558-2.497 5.565-5.567v-16.695c-0.009-3.070-2.495-5.556-5.564-5.565h-0.001zM12.521 24.347h13.913v-16.693h-4.173v13.912h-4.173v-13.913h-4.175v13.913h-1.393c-1.391 0-2.783-1.113-2.783-3.479v-10.433h-4.173v10.435c0 4.173 1.947 6.261 6.956 6.261z"></path>
</svg>
