<!-- Generated by IcoMoon.io -->
<svg version="1.1" xmlns="http://www.w3.org/2000/svg" width="32" height="32" viewBox="0 0 32 32">
<title>waze</title>
<path fill="#333665" d="M17.752 2.12c-0.3 0.004-0.6 0.017-0.9 0.040-2.887 0.207-5.727 1.232-8.092 3.103-2.925 2.309-4.395 5.767-4.661 9.4h0.003c-0.124 1.627-0.307 2.867-0.625 3.507-0.317 0.639-0.56 0.851-1.653 0.852-1.463-0.009-2.356 1.795-1.468 2.955 1.664 2.209 3.869 3.607 6.293 4.485-0.027 0.147-0.043 0.316-0.044 0.488v0.001c0.001 1.618 1.313 2.929 2.931 2.929 0.001 0 0.002 0 0.003 0h-0c1.365-0.003 2.51-0.939 2.833-2.204l0.004-0.020c1.743 0.16 3.476 0.187 5.099 0.133 0.485-0.016 0.973-0.060 1.459-0.123 0.331 1.28 1.474 2.211 2.836 2.213h0c0.001 0 0.002 0 0.003 0 1.618 0 2.93-1.311 2.931-2.929v-0c-0.001-0.383-0.075-0.748-0.208-1.082l0.007 0.020c1.168-0.611 2.175-1.297 3.093-2.084l-0.022 0.018c2.792-2.409 4.681-5.865 4.403-9.872-0.149-2.297-1.015-4.397-2.331-6.144-2.857-3.813-7.373-5.745-11.891-5.687zM18.24 4.173c0.416 0.011 0.831 0.036 1.244 0.084 3.307 0.384 6.456 1.995 8.533 4.769v0.001c1.105 1.467 1.807 3.181 1.928 5.056v0.004c0.231 3.303-1.287 6.111-3.703 8.196-0.917 0.787-1.958 1.47-3.081 2.010l-0.085 0.037c-0.381-0.195-0.83-0.31-1.306-0.312h-0c-1.109 0.001-2.074 0.619-2.571 1.529l-0.008 0.015c-0.519 0.098-1.132 0.168-1.757 0.194l-0.027 0.001c-0.386 0.015-0.839 0.023-1.294 0.023-1.409 0-2.8-0.080-4.168-0.236l0.167 0.015c-0.504-0.923-1.468-1.54-2.576-1.541h-0c-0.68 0.001-1.306 0.233-1.802 0.622l0.006-0.005c-2.168-0.737-4.104-1.896-5.54-3.683 1.403-0.128 2.555-0.8 3.092-1.877 0.591-1.185 0.707-2.596 0.833-4.264v-0.003c0.233-3.188 1.48-6.048 3.893-7.952h0.003c2.36-1.869 5.304-2.748 8.219-2.684zM14.031 10.357c-0.917 0-1.669 0.772-1.669 1.731 0 0.96 0.752 1.729 1.669 1.729 0.919 0 1.669-0.769 1.669-1.729 0-0.948-0.751-1.731-1.669-1.731zM21.383 10.357c-0.917 0-1.667 0.772-1.667 1.731-0.011 0.96 0.739 1.729 1.667 1.729 0.917 0 1.669-0.769 1.669-1.729 0-0.948-0.752-1.731-1.669-1.731zM12.855 15.707c-0.326 0.005-0.612 0.172-0.782 0.423l-0.002 0.003c-0.104 0.147-0.167 0.331-0.167 0.529 0 0.068 0.007 0.134 0.021 0.197l-0.001-0.006c0.46 2.377 2.9 4.172 5.685 4.172h0.167c1.408-0.043 2.701-0.457 3.755-1.229 1.023-0.741 1.72-1.755 1.969-2.849 0.014-0.063 0.022-0.134 0.022-0.208 0-0.193-0.055-0.373-0.15-0.525l0.002 0.004c-0.13-0.215-0.34-0.37-0.587-0.425l-0.006-0.001c-0.068-0.017-0.146-0.027-0.227-0.027-0.453 0-0.832 0.316-0.928 0.74l-0.001 0.006c-0.293 1.24-1.732 2.533-3.912 2.587-2.096 0.061-3.651-1.315-3.901-2.608-0.087-0.448-0.476-0.781-0.943-0.781-0.005 0-0.010 0-0.015 0h0.001z"></path>
</svg>
