<!-- Generated by IcoMoon.io -->
<svg version="1.1" xmlns="http://www.w3.org/2000/svg" width="32" height="32" viewBox="0 0 32 32">
<title>weasyl</title>
<path fill="#900" d="M28.307 5.541c-1.923-1.557-4.399-2.5-7.095-2.5-0.258 0-0.514 0.009-0.768 0.026l0.034-0.002c-5.021 0.324-8.432 3.549-9.819 8.641-1.707-1.632-2.523-4.317-2.791-7.387-1.36 0.287-2.211 0.936-2.977 1.649 0.593 3.088 2.403 5.353 4.352 6.877-3.412 0.423-7.987 3.256-9.028 6.539-0.676 2.131 0.344 4.553 1.711 6.027 1.649 1.777 5 2.664 8.473 2.339 0.049 0.483-0.139 0.715-0.077 1.209 5.423-0.408 9.565-2.195 13.387-5.192 1.492-1.169 3.545-2.716 5.008-4.303 1.468-1.589 3.061-3.437 3.257-6.027 0.28-3.72-1.648-6.259-3.668-7.897zM26.395 20.125c-1.38 1.335-2.988 2.396-4.468 3.567-1.665-2.649-3.444-5.312-5.183-7.889 0.023 3.507 0.008 7.243 0.053 10.609-1.040 0.508-2.385 0.744-3.659 1.017-2.58-3.889-5.291-7.987-7.948-11.877 0.924-0.596 2.169-1.047 3.304-1.433 1.892 2.733 3.639 5.671 5.561 8.444 0.025-4.151-0.012-8.897-0.081-13.225 0.823-0.185 1.504-0.384 2.168-0.619l-0.132 0.041c2.417 3.628 4.737 7.504 7.285 11.145-0.027-2.336-0.042-5.095-0.042-7.857 0-1.817 0.007-3.632 0.020-5.446l-0.002 0.279c1.144-0.376 2.404-0.713 3.559-1.079 0.027 4.665-0.451 9.504-0.436 14.324z"></path>
</svg>
