<!-- Generated by IcoMoon.io -->
<svg version="1.1" xmlns="http://www.w3.org/2000/svg" width="32" height="32" viewBox="0 0 32 32">
<title>webauthn</title>
<path fill="#3423a6" d="M20.383 4.84c-5.63 0.219-10.181 4.559-10.731 10.077l-0.004 0.047h0.733c0.262-2.471 1.354-4.648 2.987-6.284l-0 0c0.364 0.337 0.767 0.642 1.198 0.907l0.034 0.019c-0.811 1.569-1.307 3.408-1.443 5.357h0.18c0.14-1.956 0.647-3.759 1.42-5.263 0.993 0.579 2.164 1.005 3.436 1.253-0.212 1.491-0.333 3.213-0.333 4.963 0 0.019 0 0.038 0 0.057v-0.003h-1.129v0.18h1.129c0.004 1.779 0.12 3.489 0.333 5.019-1.272 0.247-2.443 0.675-3.436 1.253-0.626-1.213-1.084-2.623-1.296-4.112l-0.008-0.071h-0.183c0.219 1.547 0.669 3 1.329 4.277-0.465 0.284-0.868 0.59-1.237 0.931l0.005-0.005c-1.683-1.686-2.791-3.946-3.004-6.462l-0.003-0.038h-0.735c0.531 5.744 5.326 10.207 11.164 10.207 6.155 0 11.151-4.961 11.209-11.102l0-0.005c0-0.002 0-0.003 0-0.005 0-1.605-0.338-3.131-0.946-4.51l0.028 0.072c-1.764-4.015-5.707-6.769-10.292-6.769-0.143 0-0.286 0.003-0.428 0.008l0.020-0.001zM20.803 5.568c0.207 0 0.413 0.007 0.619 0.019 0.487 0.453 0.944 1.427 1.311 2.819 0.175 0.637 0.341 1.445 0.462 2.267l0.014 0.12c-0.72 0.136-1.549 0.213-2.396 0.213-0.003 0-0.006 0-0.010 0h0c-0.003 0-0.007 0-0.010 0-0.847 0-1.676-0.078-2.48-0.226l0.084 0.013c0.135-0.942 0.301-1.75 0.511-2.54l-0.035 0.154c0.367-1.393 0.824-2.367 1.311-2.819 0.185-0.012 0.401-0.018 0.619-0.019h0.001zM19.916 5.605c-0.46 0.523-0.877 1.457-1.217 2.753-0.176 0.64-0.343 1.452-0.465 2.279l-0.015 0.121c-1.252-0.244-2.403-0.664-3.377-1.235 0.915-1.711 2.18-3.019 3.64-3.7 0.407-0.096 0.896-0.174 1.396-0.216l0.039-0.003zM21.689 5.605c0.543 0.046 1.036 0.126 1.516 0.238l-0.071-0.014c1.456 0.684 2.716 1.989 3.628 3.695-0.973 0.571-2.125 0.991-3.377 1.236-0.137-0.948-0.304-1.76-0.515-2.555l0.035 0.155c-0.34-1.296-0.757-2.231-1.216-2.755zM17.727 6.024c-0.873 0.543-1.676 1.319-2.368 2.307-0.22 0.31-0.444 0.67-0.646 1.043l-0.028 0.057c-0.448-0.275-0.836-0.57-1.193-0.898l0.005 0.005c1.155-1.131 2.574-1.996 4.157-2.493l0.074-0.020zM23.892 6.032c1.65 0.519 3.065 1.38 4.221 2.505l-0.002-0.002c-0.352 0.325-0.742 0.621-1.158 0.877l-0.033 0.019c-0.231-0.43-0.455-0.79-0.698-1.134l0.023 0.034c-0.688-0.984-1.487-1.757-2.353-2.299zM28.239 8.679c0.899 0.905 1.635 1.974 2.158 3.158l0.026 0.067c0.532 1.198 0.847 2.595 0.856 4.064l0 0.004h-2.793c-0.013-2.32-0.531-4.528-1.48-6.365 0.465-0.285 0.868-0.591 1.239-0.933l-0.005 0.005zM26.847 9.701c0.905 1.76 1.445 3.927 1.459 6.271h-4.56c0-0.012 0-0.027 0-0.042 0-1.755-0.122-3.481-0.357-5.171l0.022 0.195c1.272-0.248 2.444-0.675 3.436-1.253zM18.371 10.988c0.725 0.136 1.559 0.213 2.411 0.213 0.007 0 0.015 0 0.022-0h-0.001c0.006 0 0.013 0 0.019 0 0.852 0 1.686-0.078 2.495-0.226l-0.084 0.013c0.213 1.517 0.328 3.217 0.332 4.984h-1.571c-0.040 0.068-0.081 0.127-0.126 0.182l0.002-0.002h1.693c0 0.016 0 0.034 0 0.053 0 1.739-0.12 3.451-0.353 5.126l0.022-0.194c-0.731-0.137-1.572-0.215-2.431-0.215s-1.7 0.078-2.516 0.228l0.085-0.013c-0.21-1.482-0.331-3.194-0.331-4.934 0-0.018 0-0.036 0-0.054v0.003h1.725c-0.042-0.053-0.082-0.111-0.117-0.173l-0.003-0.007h-1.605c0.004-1.767 0.117-3.467 0.331-4.984zM3.411 12.493c-1.778 0.019-3.231 1.382-3.395 3.12l-0.001 0.014c-0.189 2.055 1.419 3.789 3.421 3.789 1.68 0 3.083-1.223 3.377-2.832h5.92v1.296h1.261v-1.296h1.116v1.908h1.26v-3.168h-9.557c-0.303-1.62-1.706-2.831-3.392-2.831-0.004 0-0.007 0-0.011 0h0.001zM3.333 13.78c0.027-0.001 0.059-0.002 0.091-0.002 1.207 0 2.185 0.978 2.185 2.184v0c-0.002 1.206-0.979 2.183-2.185 2.184h-0c-1.191-0.020-2.149-0.991-2.149-2.185 0-1.162 0.907-2.113 2.052-2.181l0.006-0zM20.787 14.297c-0.54 0.016-0.971 0.457-0.971 1 0 0.373 0.204 0.698 0.506 0.87l0.005 0.003-0.511 2.611h2l-0.511-2.611c0.308-0.174 0.512-0.499 0.512-0.872v-0c0-0 0-0 0-0 0-0.552-0.448-1-1-1-0.011 0-0.022 0-0.032 0.001l0.002-0zM23.744 16.152h4.561c-0.013 2.344-0.553 4.512-1.459 6.272-0.992-0.579-2.164-1.007-3.436-1.253 0.212-1.49 0.333-3.212 0.333-4.961 0-0.020-0-0.041-0-0.061v0.003zM28.485 16.152h2.793c-0.017 2.849-1.176 5.424-3.041 7.293l0-0c-0.365-0.337-0.768-0.643-1.198-0.909l-0.034-0.019c0.949-1.837 1.467-4.044 1.48-6.365zM21.125 21.089c0.749 0.018 1.467 0.093 2.167 0.221l-0.084-0.013c-0.135 0.943-0.301 1.751-0.511 2.542l0.035-0.154c-0.367 1.393-0.824 2.365-1.309 2.819-0.185 0.012-0.402 0.018-0.62 0.018s-0.435-0.007-0.65-0.020l0.030 0.001c-0.487-0.453-0.944-1.427-1.311-2.819-0.175-0.637-0.341-1.445-0.462-2.267l-0.014-0.12c0.724-0.136 1.557-0.213 2.408-0.213 0.113 0 0.226 0.001 0.338 0.004l-0.017-0zM23.385 21.331c1.253 0.245 2.404 0.667 3.377 1.235-0.915 1.712-2.18 3.020-3.64 3.701-0.406 0.096-0.895 0.174-1.395 0.216l-0.039 0.003c0.459-0.524 0.876-1.459 1.217-2.753 0.175-0.641 0.343-1.453 0.464-2.281l0.015-0.12zM18.22 21.331c0.136 0.948 0.303 1.76 0.513 2.555l-0.035-0.155c0.34 1.297 0.757 2.232 1.217 2.755-0.538-0.045-1.027-0.122-1.504-0.232l0.071 0.014c-1.461-0.681-2.727-1.989-3.641-3.7 0.973-0.571 2.125-0.991 3.379-1.236zM14.684 22.66c0.231 0.43 0.454 0.79 0.698 1.134l-0.023-0.034c0.693 0.988 1.495 1.764 2.368 2.307-1.657-0.517-3.077-1.382-4.234-2.514l0.002 0.002c0.352-0.324 0.741-0.62 1.157-0.876l0.033-0.019zM26.921 22.66c0.448 0.275 0.836 0.57 1.193 0.898l-0.005-0.005c-1.155 1.131-2.574 1.996-4.157 2.493l-0.074 0.020c0.872-0.543 1.675-1.319 2.367-2.307 0.221-0.311 0.445-0.67 0.648-1.043l0.028-0.057z"></path>
</svg>
