<!-- Generated by IcoMoon.io -->
<svg version="1.1" xmlns="http://www.w3.org/2000/svg" width="32" height="32" viewBox="0 0 32 32">
<title>webcomponents-dot-org</title>
<path fill="#29abe2" d="M15.64 2.967l-0.013 0.021h-8.137l-7.491 12.984 7.491 12.981h17.065l0.053 0.080 2.845-4.98 0.691-1.191h-0.011l0.011-0.019-0.835-1h1.193l0.008-0.013 0.011 0.013 3.476-5.852-3.476-5.853-0.004 0.007-0.015-0.025h-1.26l0.841-1.019-3.476-6.092-0.008 0.013-0.032-0.053zM12.141 9.099h8.252l-0.705 1.019h-0.032l3.197 5.353h1.167l-0.369 0.437 0.476 0.58h-1.275l-3.197 5.353h0.036l0.697 1.019h-8.291l-3.987-6.891z"></path>
</svg>
