<!-- Generated by IcoMoon.io -->
<svg version="1.1" xmlns="http://www.w3.org/2000/svg" width="32" height="32" viewBox="0 0 32 32">
<title>webmin</title>
<path fill="#7da0d0" d="M12.4 0c-2.067 0.008-3.547 1.543-3.336 4.008 0.136 1.636 0.279 3.297 0.417 4.972-1.44 0.607-2.957 1.245-4.571 1.928-1.673 0.715-2.831 2.145-3.276 3.847-0.453 1.733-0.18 3.744 0.964 5.524 1.017 1.593 2.475 2.675 4.34 3.26-0.107 1.456 0.040 2.773 0.453 3.94 0.184 0.519 0.421 1.007 0.711 1.464 1.064 1.692 2.637 2.705 4.244 2.98 0.269 0.051 0.578 0.080 0.894 0.080 1.359 0 2.593-0.538 3.5-1.412l-0.002 0.001c1.307-1.26 2.543-2.451 3.72-3.579 1.396 0.84 2.741 1.647 4.051 2.436 2.139 1.276 4.324-0.112 4.84-2.82 0.216-1.129 0.12-2.389-0.28-3.816 0.76-0.468 1.233-1.201 1.421-2.228 0.407-2.179-0.671-5.043-2.436-6.507-0.936-0.776-1.903-1.569-2.885-2.377l-0.007-0.031c-0.248-1.4-0.489-2.773-0.731-4.12-0.408-2.299-2.399-4.717-4.499-5.387-0.963-0.307-1.857-0.211-2.713 0.3-1.039-1.099-2.124-1.84-3.307-2.219-0.451-0.154-0.972-0.243-1.512-0.245h-0.001zM13.759 3.305c0.16-0.004 0.333 0.016 0.508 0.064 0.623 0.167 1.216 0.653 1.54 1.243 0.264 0.491 0.387 0.893 0.493 1.731l0.539 4.191c0.017 0.132 0.036 0.26 0.051 0.391 0.153 1.185 0.859 2.037 1.773 2.159 0.879 0.116 1.347-0.573 1.187-1.68-0.025-0.209-0.043-0.335-0.062-0.462l0.011 0.091-0.589-4.007c-0.084-0.567-0.112-1-0.067-1.28 0.069-0.62 0.563-0.943 1.195-0.772 0.639 0.175 1.236 0.763 1.512 1.463 0.141 0.355 0.205 0.631 0.315 1.285 0.209 1.255 0.416 2.52 0.629 3.824 0.017 0.116 0.037 0.232 0.052 0.356 0.025 0.12 0.060 0.225 0.091 0.333l0.003 0.019 0.001 0.003 0.031 0.112v-0.003c0-0.005 0-0.009-0.003-0.013l0.004 0.009v0.004c0.132 0.499 0.459 0.995 0.941 1.373 0.087 0.069 0.185 0.137 0.273 0.213 0.973 0.764 1.923 1.52 2.855 2.248 0.561 0.44 0.764 0.645 0.987 0.956 0.359 0.507 0.509 1.245 0.383 1.812-0.116 0.524-0.455 0.836-0.877 0.787-0.347-0.041-0.64-0.183-1.232-0.62-0.979-0.733-1.979-1.483-3.013-2.245-0.091-0.064-0.192-0.133-0.284-0.203-0.861-0.635-1.611-0.513-1.899 0.353-0.296 0.888 0.12 1.932 1.005 2.552 0.096 0.067 0.204 0.143 0.297 0.211 1.080 0.756 2.14 1.493 3.173 2.213 0.439 0.305 0.764 0.592 0.98 0.851 0.476 0.545 0.703 1.44 0.539 2.189-0.176 0.791-0.685 1.203-1.304 1.061-0.313-0.067-0.548-0.192-1.109-0.556-1.089-0.707-2.209-1.439-3.364-2.183-0.107-0.067-0.213-0.139-0.316-0.213-0.364-0.221-0.716-0.323-1.024-0.311h-0.003c-0.347-0.023-0.708 0.104-1.056 0.381-0.096 0.080-0.195 0.156-0.284 0.24-1.079 0.888-2.196 1.833-3.38 2.829-0.64 0.533-0.928 0.743-1.356 0.893-0.86 0.328-1.811-0.040-2.405-0.985-0.561-0.923-0.539-2.119 0.043-2.872 0.247-0.336 0.664-0.72 1.24-1.128 1.253-0.896 2.44-1.74 3.568-2.549 0.103-0.069 0.203-0.139 0.304-0.212 0.855-0.607 1.019-1.68 0.416-2.681-0.587-1-1.56-1.301-2.48-0.745-0.137 0.080-0.239 0.144-0.339 0.211l0.026-0.016c-1.193 0.732-2.445 1.504-3.765 2.319-0.851 0.512-1.301 0.679-1.936 0.708-0.787 0.040-1.607-0.443-2.085-1.205-0.543-0.848-0.561-1.903-0.040-2.557 0.293-0.384 0.607-0.617 1.507-1.079 1.391-0.72 2.727-1.397 3.993-2.033 0.109-0.067 0.217-0.112 0.329-0.167 0.077-0.039 0.149-0.084 0.212-0.129 0.567-0.251 0.843-0.876 0.755-1.724-0.016-0.143-0.027-0.28-0.049-0.416-0.342-3.681-0.508-5.2-0.68-6.717l0.212 2.296c-0.093-0.88-0.084-1.189 0.028-1.539 0.133-0.417 0.52-0.657 1.003-0.671zM9.48 8.981l0.003 0.035c-0.002-0.002-0.003-0.004-0.004-0.006l-0-0v-0.024zM9.485 9.039l0.008 0.116c-0.004-0.035-0.007-0.068-0.013-0.107 0-0.004 0.004-0.007 0.005-0.009zM9.499 9.22l0.004 0.033h-0.003v-0.020c0-0.004 0.003-0.007 0-0.011zM9.505 9.273v0.016c-0.001-0.004-0.004-0.007-0.004-0.011 0.003 0 0.003-0.003 0.004-0.005zM22.972 12.369l0.003 0.016c0 0.003 0 0.005 0.004 0.009zM22.979 12.395c0.007 0.020 0.011 0.045 0.017 0.067l-0.013-0.059c-0.002-0.002-0.003-0.005-0.004-0.008v-0z"></path>
</svg>
