<!-- Generated by IcoMoon.io -->
<svg version="1.1" xmlns="http://www.w3.org/2000/svg" width="32" height="32" viewBox="0 0 32 32">
<title>webstorm</title>
<path d="M0 0v32h32v-32zM23.852 3.852c1.925 0 3.556 0.592 4.889 1.704l-1.481 2.223c-1.185-0.815-2.296-1.333-3.408-1.333s-1.704 0.519-1.704 1.185v0.075c0 0.889 0.592 1.185 2.815 1.777 2.667 0.741 4.148 1.704 4.148 4v0.075c0 2.667-2 4.148-4.815 4.148-2-0.075-4-0.815-5.556-2.223l1.704-2.075c1.185 0.963 2.444 1.629 3.925 1.629 1.185 0 1.852-0.444 1.852-1.259v-0.075c0-0.741-0.444-1.111-2.667-1.704-2.667-0.667-4.296-1.408-4.296-4.075v-0.075c0-2.444 1.925-4 4.593-3.999zM2.371 4.148h3.037l2 7.704 2.296-7.704h2.223l2.223 7.704 2-7.704h3.111l-3.777 13.259h-2.519l-2.148-7.704-2.223 7.704h-2.444zM3.037 26h12v2h-12z"></path>
</svg>
