<!-- Generated by IcoMoon.io -->
<svg version="1.1" xmlns="http://www.w3.org/2000/svg" width="32" height="32" viewBox="0 0 32 32">
<title>wechat</title>
<path fill="#7bb32e" d="M31.388 16.997c-0.812-1.84-2.344-3.301-4.123-4.201-3.139-1.589-7.041-1.58-10.172 0.040-2.175 1.116-3.991 3.116-4.505 5.549-0.424 1.792-0.044 3.721 0.907 5.281 1.415 2.349 3.972 3.849 6.628 4.331 1.924 0.391 3.915 0.159 5.784-0.38 1.123 0.435 2.123 1.139 3.211 1.661-0.281-0.943-0.581-1.875-0.901-2.803 1.221-0.867 2.328-1.948 2.992-3.305 0.992-1.887 1.052-4.228 0.18-6.173zM18.156 4.376c-3.327-1.872-7.469-2.153-11.048-0.86-2.352 0.847-4.48 2.42-5.795 4.56-1.193 1.933-1.64 4.344-1.065 6.556 0.577 2.453 2.281 4.511 4.349 5.884-0.4 1.133-0.78 2.265-1.14 3.407 1.3-0.68 2.6-1.391 3.901-2.081 1.56 0.5 3.22 0.745 4.88 0.691-0.44-1.257-0.54-2.62-0.34-3.935 0.3-1.828 1.3-3.5 2.659-4.739 2.301-2.153 5.561-3.061 8.661-2.841-0.581-2.847-2.581-5.252-5.099-6.64zM20.467 17.695c-0.279 0.869-1.541 1.131-2.153 0.469-0.675-0.612-0.412-1.891 0.473-2.164 0.979-0.413 2.109 0.716 1.68 1.695zM26.86 17.817c-0.341 0.781-1.521 0.964-2.101 0.36-0.279-0.255-0.36-0.639-0.459-0.973 0.139-0.611 0.56-1.244 1.24-1.273 0.94-0.131 1.781 1.031 1.3 1.888zM17.32 9.212c0.011 1.281-1.7 2.081-2.66 1.212-0.996-0.713-0.713-2.449 0.456-2.808 1.047-0.42 2.284 0.459 2.201 1.58zM9.241 9.537c-0.229 1.113-1.721 1.651-2.595 0.904-1.012-0.713-0.728-2.481 0.46-2.841 1.164-0.448 2.487 0.733 2.135 1.937z"></path>
</svg>
