<!-- Generated by IcoMoon.io -->
<svg version="1.1" xmlns="http://www.w3.org/2000/svg" width="32" height="32" viewBox="0 0 32 32">
<title>wheniwork</title>
<path fill="#51a33d" d="M16 32c-8.877 0-16-7.224-16-16 0-8.877 7.123-16 16-16s16 7.123 16 16c0 8.776-7.123 16-16 16zM16 2.685c-7.329 0-13.316 5.985-13.316 13.315 0 7.331 5.987 13.317 13.316 13.317 7.331 0 13.316-5.987 13.316-13.317 0-7.329-5.985-13.315-13.316-13.315zM23.847 17.549h-11.563c-0.512 0-0.927-0.412-0.931-0.921v-1.349c0-0.516 0.415-0.929 0.931-0.929h11.664c0.516 0 0.929 0.415 0.929 0.929v1.341c-0.103 0.516-0.516 0.929-1.031 0.929zM20.852 12.388h-11.664c-0.511 0.003-0.929-0.409-0.931-0.921v-1.347c0-0.415 0.413-0.828 0.929-0.828h11.664c0.413 0 0.827 0.415 0.827 0.825v1.341c0.001 0.515-0.413 0.929-0.825 0.929zM9.188 19.612h11.664c0.517 0 0.928 0.415 0.928 0.929v1.341c0.003 0.511-0.412 0.927-0.921 0.929h-11.671c-0.517-0.101-0.929-0.516-0.929-1.031v-1.341c-0.001-0.413 0.412-0.828 0.929-0.828z"></path>
</svg>
