<!-- Generated by IcoMoon.io -->
<svg version="1.1" xmlns="http://www.w3.org/2000/svg" width="32" height="32" viewBox="0 0 32 32">
<title>whitesource</title>
<path fill="#161d4e" d="M16 0c-8.836 0-16 7.163-16 16 0 8.836 7.164 16 16 16 8.837 0 16-7.164 16-16 0-8.837-7.163-16-16-16zM13.893 6.555h4.223v7.024h0.876v-5.821c3.961 1.909 3.405 7.040 3.448 6.848h0.957v1.352h-14.795v-1.352h0.957c0 0-0.916-4.745 3.449-6.848v5.821h0.883zM8.603 17.224h4.24v0.728c0.005 1.742 1.416 3.153 3.157 3.159h0.001c1.742-0.005 3.153-1.416 3.159-3.158v-0.729h4.24v2.755h-1.723l-0.555 1.237 1.163 1.024-2.128 2.263-1.215-1.225-1.317 0.565v1.603h-3.248v-1.603l-1.316-0.565-1.216 1.225-2.127-2.263 1.161-1.024-0.553-1.237h-1.723z"></path>
</svg>
