<!-- Generated by IcoMoon.io -->
<svg version="1.1" xmlns="http://www.w3.org/2000/svg" width="32" height="32" viewBox="0 0 32 32">
<title>wii</title>
<path fill="#8b8b8b" d="M23.872 8.348c-0.972-0.019-1.773 0.753-1.792 1.724v0.024c0.016 0.976 0.816 1.753 1.792 1.74 1.044 0 1.872-0.772 1.872-1.74 0.001-0.976-0.827-1.748-1.872-1.748zM30.152 8.348c-0.996 0-1.813 0.773-1.813 1.748 0 0.948 0.817 1.74 1.815 1.74 1.023 0 1.847-0.772 1.847-1.74 0-0.976-0.824-1.748-1.848-1.748zM10.365 9.072c-0.997 0-1.669 0.499-2.019 1.62-0.323 1.143-2.392 9.096-2.392 9.096l-2.715-10.592h-3.24c0 0 3.112 11.285 3.536 12.608 0.321 1.020 1.12 1.848 2.267 1.848 1.345 0 1.972-0.976 2.245-1.848 0.3-0.901 2.317-8.348 2.317-8.348s2.020 7.452 2.292 8.348c0.3 0.871 0.92 1.848 2.243 1.848 1.172 0 1.941-0.828 2.293-1.848 0.42-1.32 3.543-12.608 3.543-12.608h-3.267l-2.695 10.592c0 0-2.067-7.953-2.416-9.096-0.323-1.125-1.027-1.62-1.993-1.62zM22.376 13.556v9.993h3.096v-9.993zM28.633 13.556v9.993h3.089v-9.993z"></path>
</svg>
