<!-- Generated by IcoMoon.io -->
<svg version="1.1" xmlns="http://www.w3.org/2000/svg" width="32" height="32" viewBox="0 0 32 32">
<title>wiiu</title>
<path fill="#8b8b8b" d="M14.844 11.243c-0.62 0-1.113 0.479-1.113 1.085 0.009 0.605 0.508 1.089 1.113 1.083 0.651 0 1.164-0.477 1.164-1.080 0-0.607-0.513-1.088-1.164-1.088zM18.751 11.243c-0.62 0-1.131 0.479-1.131 1.085 0 0.589 0.511 1.083 1.131 1.083 0.636 0 1.148-0.477 1.148-1.080 0-0.607-0.513-1.088-1.148-1.088zM23.624 11.257c-0.707 0-1.32 0.447-1.32 1.144v4.42c0 1.079 0.747 1.719 1.836 1.719h6.196c0.919 0 1.664-0.636 1.664-1.549v-4.531c0-0.549-0.411-1.147-0.917-1.147h-1.433v3.732c0 2.829-4.935 2.805-4.935 0.053v-3.84zM25.863 11.257v3.271c0 2.181 2.579 1.869 2.579 0.341v-3.609h-2.579zM6.444 11.693c-0.62 0-1.035 0.309-1.251 1.008-0.203 0.711-1.488 5.656-1.488 5.656l-1.689-6.587h-2.016c0 0 1.935 7.019 2.2 7.841 0.2 0.635 0.695 1.147 1.411 1.147 0.836 0 1.223-0.605 1.393-1.147 0.187-0.561 1.44-5.193 1.44-5.193s1.256 4.635 1.425 5.193c0.187 0.541 0.575 1.147 1.396 1.147 0.729 0 1.208-0.513 1.427-1.147 0.261-0.823 2.2-7.841 2.2-7.841h-2.028l-1.677 6.587c0 0-1.284-4.945-1.5-5.656-0.2-0.701-0.639-1.008-1.24-1.008zM13.917 14.48v6.216h1.921v-6.216zM17.805 14.48v6.216h1.923v-6.216z"></path>
</svg>
