<!-- Generated by IcoMoon.io -->
<svg version="1.1" xmlns="http://www.w3.org/2000/svg" width="32" height="32" viewBox="0 0 32 32">
<title>wire</title>
<path d="M32 19.3c0.012 5.445-4.395 9.868-9.84 9.88h-0.021c-2.183-0.020-4.296-0.773-6-2.14-4.359 3.392-10.641 2.609-14.032-1.751-1.333-1.715-2.073-3.816-2.107-5.989v-15.54h1.88v15.54c-0.003 4.419 3.577 8.003 7.995 8.005 1.724 0.001 3.403-0.555 4.785-1.585-1.551-1.78-2.408-4.057-2.42-6.419v-12.72c0-2.076 1.684-3.76 3.76-3.76s3.76 1.684 3.76 3.76v12.72c0.008 2.355-0.831 4.632-2.36 6.419 3.565 2.609 8.572 1.828 11.177-1.739 0.993-1.359 1.532-2.997 1.543-4.681v-15.54h1.88zM17.88 6.58c0-1.037-0.843-1.88-1.88-1.88-1.039 0-1.88 0.841-1.88 1.88v12.72c0.003 1.88 0.668 3.701 1.88 5.14 1.211-1.439 1.877-3.26 1.88-5.14z"></path>
</svg>
