<!-- Generated by IcoMoon.io -->
<svg version="1.1" xmlns="http://www.w3.org/2000/svg" width="32" height="32" viewBox="0 0 32 32">
<title>wireguard</title>
<path fill="#88171a" d="M31.973 15.527c0 0 0.737-15.527-16.327-15.527-15.089 0-15.561 14.893-15.561 14.893s-2.219 17.107 15.911 17.107c17.391 0 15.977-16.473 15.977-16.473zM10.873 10.101c3.2-1.96 7.292-0.761 8.824 2.184 0.291 0.559 0.328 1.417 0.144 2.004-0.636 2.021-2.135 3.155-4.193 3.637 0.607-0.52 1.089-1.109 1.244-1.923 0.037-0.172 0.059-0.37 0.059-0.572 0-0.626-0.204-1.204-0.549-1.671l0.005 0.008c-0.525-0.715-1.362-1.174-2.307-1.174-0.352 0-0.689 0.064-1 0.18l0.020-0.006c-1.267 0.48-1.96 1.637-1.836 3.059 0.116 1.32 1.119 2.176 2.993 2.501-0.28 0.148-0.496 0.257-0.707 0.375-0.875 0.485-1.605 1.125-2.179 1.889l-0.013 0.018c-0.191 0.256-0.32 0.277-0.611 0.1-3.769-2.305-4.012-8.089 0.105-10.608zM8.053 24.344c-0.607 0.155-1.193 0.381-1.812 0.584 0.303-2.043 2.695-3.924 4.719-3.709-0.564 0.769-0.924 1.718-0.986 2.748l-0.001 0.014c-0.672 0.124-1.307 0.207-1.92 0.363zM20.937 4.4c0.597 0.023 1.197 0.013 1.796 0.027 0.165 0.011 0.318 0.034 0.466 0.066l-0.021-0.004c-0.143 0.217-0.292 0.406-0.456 0.581l0.002-0.003c-0.213 0.2-0.455 0.395-0.764 0.092-0.073-0.073-0.249-0.056-0.377-0.059-0.596-0.007-1.192-0.027-1.787-0.004-0.558 0.018-1.088 0.075-1.606 0.167l0.067-0.010c-0.096 0.017-0.237 0.333-0.195 0.451 0.104 0.276 0.255 0.58 0.479 0.756 0.825 0.653 1.703 1.237 2.533 1.884 0.805 0.629 1.556 1.32 2.013 2.267 0.595 1.237 0.613 2.533 0.356 3.836-0.429 2.173-1.529 3.973-3.311 5.283-0.717 0.527-1.607 0.827-2.428 1.204-0.724 0.333-1.467 0.62-2.192 0.949-1.307 0.595-2.040 2.013-1.825 3.487 0.199 1.353 1.387 2.483 2.745 2.716 1.631 0.28 3.315-0.781 3.713-2.44 0.448-1.863-0.564-3.528-2.46-4.032l-0.341-0.088c0.507-0.227 0.944-0.388 1.349-0.611q1.057-0.583 2.077-1.233c0.2-0.128 0.308-0.128 0.48 0.019 1.303 1.128 2.080 2.531 2.299 4.249 0.36 2.847-0.987 5.461-3.528 6.801-3.931 2.073-8.743-0.287-9.611-4.645-0.744-3.733 1.891-7.12 5.063-7.773 1.364-0.281 2.611-0.849 3.58-1.9 0.627-0.677 0.929-1.259 1.033-1.521 0.183-0.455 0.289-0.983 0.289-1.536 0-0.003 0-0.006 0-0.009v0c-0.023-0.484-0.137-0.935-0.325-1.345l0.009 0.022c-0.331-0.755-1.6-1.955-1.913-2.208l-2.987-2.339c-0.105-0.087-0.224-0.080-0.48-0.063-0.307 0.021-1.087 0.064-1.423-0.024 0.272-0.207 1.013-0.507 1.333-0.747-0.968-0.653-2.072-0.419-3.087-0.613 0.235-0.437 1.395-1.108 2.055-1.184-0.045-0.423-0.109-0.796-0.193-1.162l0.013 0.066c-0.040-0.148-0.205-0.293-0.351-0.377-0.349-0.205-0.721-0.375-1.124-0.579 0.342-0.224 0.758-0.361 1.205-0.373l0.003-0c0.052-0.002 0.113-0.003 0.174-0.003 0.368 0 0.725 0.044 1.068 0.127l-0.031-0.006c0.72 0.164 1.293 0.056 1.865-0.432-0.451-0.181-0.901-0.347-1.337-0.543-0.505-0.231-0.917-0.45-1.315-0.69l0.059 0.033c1.133 0.157 2.228 0.583 3.387 0.427l0.029-0.157-2.691-0.627c1.604-0.147 3.097-0.171 4.512 0.517 0.399 0.195 0.813 0.355 1.196 0.576 0.187 0.107 0.311 0.32 0.464 0.487 0.12 0.131 0.219 0.307 0.368 0.387 0.565 0.3 1.187 0.312 1.821 0.297l0.013-0.213c0.639 0.2 1.356 0.936 1.356 1.473-1.035 0-2.067-0.004-3.1 0.005-0.111 0-0.22 0.081-0.329 0.125 0.104 0.061 0.207 0.171 0.313 0.175zM19.604 2.871c-0.046 0.028-0.076 0.078-0.076 0.134 0 0.047 0.021 0.090 0.054 0.119l0 0c0.042 0.072 0.119 0.12 0.207 0.12 0.045 0 0.086-0.012 0.122-0.034l-0.001 0.001c0.1-0.051 0.197-0.104 0.317-0.167-0.096-0.083-0.173-0.152-0.253-0.217-0.141-0.116-0.257-0.043-0.371 0.044z"></path>
</svg>
