<!-- Generated by IcoMoon.io -->
<svg version="1.1" xmlns="http://www.w3.org/2000/svg" width="32" height="32" viewBox="0 0 32 32">
<title>wish</title>
<path fill="#2fb7ec" d="M28.617 11.537c-0.836 0-1.615 0.681-1.729 1.513l-0.849 6.196c-0.093 0.675-0.417 1.26-0.969 1.756-0.553 0.496-1.176 0.744-1.867 0.744-0.672 0-1.217-0.243-1.632-0.729-0.417-0.487-0.577-1.077-0.481-1.772l0.513-3.76c0.016-0.751-0.548-1.337-1.324-1.337h-2.033c-0.776 0-1.503 0.587-1.693 1.337l-0.529 3.76c-0.096 0.695-0.42 1.285-0.972 1.772s-1.163 0.729-1.835 0.729-1.22-0.248-1.645-0.744-0.591-1.081-0.497-1.756l1.139-8.221c0.121-0.8-0.353-1.637-1.077-1.976 0 0-8.573-3.573-9.132-3.804-0.567-0.232-1.208 0.288-1.427 1.155l-0.524 2.068c-0.22 0.865 0.276 1.851 1.099 2.188l5.747 2.379-0.861 6.212c-0.289 2.084 0.2 3.865 1.467 5.344 1.267 1.48 2.937 2.219 5.013 2.219 1.916 0 3.664-0.644 5.245-1.935 1.263 1.291 2.844 1.935 4.74 1.935 2.075 0 3.949-0.739 5.627-2.219 1.676-1.479 2.66-3.261 2.948-5.344 0 0 0.9-6.556 0.917-6.671 0.079-0.572-0.541-1.039-1.376-1.039h-2z"></path>
</svg>
