<!-- Generated by IcoMoon.io -->
<svg version="1.1" xmlns="http://www.w3.org/2000/svg" width="32" height="32" viewBox="0 0 32 32">
<title>wix</title>
<path fill="#faad4d" d="M30.652 3.119h-2.072l-1.451-0.004c-1.148 0-2.205 0.873-3.015 1.568-0.801 0.661-1.48 1.481-2.121 2.301-0.273-0.711-0.562-1.31-0.894-1.882l0.033 0.062c-0.419-0.821-1.219-1.601-2.14-1.781-0.461-0.1-0.98-0.060-1.44-0.060h-3.080c-0.469 0-0.981-0.060-1.441 0.040-0.909 0.18-1.721 0.96-2.132 1.781-0.32 0.56-0.62 1.18-0.856 1.82-0.647-0.82-1.321-1.64-2.109-2.32-0.809-0.701-1.861-1.581-3.013-1.581h-3.511c-0.5 0-1.617-0.141-1.352 0.68 0.060 0.2 0.285 0.38 0.413 0.54 0.147 0.18 0.291 0.38 0.417 0.58 0.2 0.32 0.396 0.64 0.584 0.981 0.452 0.8 0.835 1.64 1.284 2.441 0.987 1.781 2.045 3.503 3.323 5.084 0.945 1.16 2.085 2.341 3.496 2.921l-3.177 6.004c-0.92 1.701-1.841 3.423-2.808 5.104l-0.14 0.24c-0.127 0.241-0.308 0.581-0.307 0.841 0 0.541 0.8 0.56 1.2 0.56 0.421 0 0.841-0.019 1.261-0.019 0.72-0.023 1.441-0.023 2.181-0.041 0.421 0 0.861 0.020 1.301-0.039 1.127-0.12 2.099-0.702 2.734-1.551l0.007-0.010c0.2-0.301 2.163-3.523 2.963-4.824 0.3-0.5 1.24-1.961 1.24-1.961s0.941 1.461 1.241 1.961c0.781 1.303 2.743 4.504 2.963 4.805 0.64 0.88 1.64 1.44 2.743 1.539 0.419 0.040 0.86 0.021 1.279 0.021l2.184 0.020h1.259c0.383 0 1.201-0.020 1.201-0.58 0-0.281-0.18-0.617-0.319-0.857l-0.14-0.24c-0.981-1.701-1.881-3.404-2.803-5.104-1.060-1.981-2.12-3.983-3.201-5.944 1.42-0.58 2.54-1.76 3.503-2.921 1.28-1.581 2.319-3.323 3.321-5.084 0.44-0.82 0.82-1.661 1.279-2.461 0.183-0.34 0.383-0.66 0.583-0.981 0.121-0.2 0.26-0.4 0.42-0.58 0.12-0.173 0.341-0.352 0.421-0.54 0.259-0.823-0.812-0.515-1.312-0.529zM13.716 7.027c0.084-0.009 0.147 0.212 0.191 0.66l0.007 0.023c0 0.020-0.201 0-0.381-0.020l-0.22-0.040c-0.1-0.020-0.2-0.060-0.3-0.1-0.268-0.091-0.428-0.217-0.548-0.311-0.072-0.053-0.132-0.116-0.178-0.189l-0.002-0.003c0.64 0.011 1.116 0.007 1.432-0.020zM13.959 10.251v-0.019h0.007zM13.98 10.181c-0.143 0.156-0.356 0.216-0.56 0.256-0.2 0.041-0.432 0.072-0.62-0.029-0.219-0.113-0.307-0.379-0.367-0.6-0.080-0.28-0.149-0.584-0.12-0.88h0.019c0-0.164 0.060-0.337 0.12-0.484 0.057-0.128 0.14-0.235 0.242-0.319l0.002-0.001c0.284-0.213 0.715-0.213 0.971 0.040 0.116 0.116 0.209 0.254 0.272 0.408l0.003 0.008c0.148 0.344 0.26 0.74 0.236 1.121-0.011 0.185-0.084 0.352-0.198 0.481l0.001-0.001zM16.768 10.731c-0.028 0.040-0.065 0.060-0.1 0.080-0.177 0.126-0.398 0.201-0.636 0.201-0.017 0-0.033-0-0.050-0.001l0.002 0c-0.015 0.001-0.032 0.001-0.049 0.001-0.238 0-0.458-0.075-0.639-0.203l0.003 0.002c-0.039-0.019-0.071-0.046-0.095-0.079l-0.001-0.001c-0.012 0-0.021-0.020-0.021-0.040 0-0.012 0.005-0.023 0.013-0.032v0.052c0.019-0.020 0.052-0.020 0.072-0.020 0.028 0.020 0.053 0.040 0.088 0.060 0.166 0.113 0.372 0.181 0.593 0.181 0.012 0 0.025-0 0.037-0.001l-0.002 0c0.010 0 0.021 0.001 0.033 0.001 0.223 0 0.431-0.067 0.603-0.183l-0.004 0.002c0.032-0.020 0.060-0.060 0.092-0.080 0.031-0.020 0.060-0.020 0.080 0s0.009 0.040-0.020 0.060zM19.528 9.811c-0.060 0.22-0.149 0.5-0.369 0.6-0.188 0.1-0.421 0.065-0.623 0.025-0.203-0.040-0.413-0.101-0.56-0.253-0.112-0.129-0.184-0.295-0.195-0.478l-0-0.002c-0.025-0.384 0.089-0.779 0.239-1.125 0.066-0.162 0.158-0.3 0.273-0.416l-0 0c0.255-0.251 0.685-0.251 0.971-0.040 0.103 0.086 0.186 0.193 0.242 0.314l0.002 0.006v0.009c0.075 0.151 0.121 0.313 0.14 0.48 0.028 0.3-0.044 0.6-0.12 0.88zM19.495 7.249c-0.117 0.1-0.28 0.22-0.544 0.3-0.083 0.032-0.185 0.061-0.289 0.083l-0.014 0.002c-0.019 0.007-0.112 0.020-0.219 0.040l-0.003 0.035c-0.175 0.020-0.377 0.040-0.373 0 0.043-0.44 0.104-0.66 0.192-0.66 0.315 0.040 0.789 0.040 1.429 0.020-0.047 0.073-0.107 0.133-0.178 0.179l-0.002 0.001z"></path>
</svg>
