<!-- Generated by IcoMoon.io -->
<svg version="1.1" xmlns="http://www.w3.org/2000/svg" width="32" height="32" viewBox="0 0 32 32">
<title>wolfram</title>
<path fill="#d10" d="M26.807 16.001l4.409-4.944-6.472-1.412 0.66-6.592-6.067 2.661-3.337-5.715-3.34 5.716-6.064-2.661 0.659 6.592-6.472 1.405 4.407 4.943-4.407 4.951 6.472 1.404-0.667 6.593 6.071-2.659 3.341 5.716 3.339-5.716 6.067 2.659-0.66-6.584 6.472-1.413zM28.947 19.724l-3.815-1.309-2.532-3.295 3.368 1.256zM29.559 11.596l-3.469 3.891-4.088-1.521 2.459-3.483zM23.841 9.831l-2.044 2.905 0.117-4.216 2.384-3.22zM19.436 6.632l4.121-1.805-2.357 3.171-3.924 1.399zM21.019 8.995l-0.128 4.869-4.455 1.493v-4.732zM16 1.744l2.625 4.495-2.625 3.36-2.628-3.361zM12.564 6.632l2.159 2.763-3.931-1.397-2.349-3.171zM15.557 10.625v4.732l-4.447-1.493-0.136-4.869zM10.085 8.52l0.115 4.216-2.043-2.905-0.455-4.529zM2.44 11.589l5.099-1.107 2.452 3.483-4.087 1.515zM6.032 16.369l3.368-1.249-2.533 3.295-3.815 1.303zM3.241 20.581l3.905-1.333 4.060 1.195-3.496 1.116zM7.615 27.531l0.523-5.195 4.148-1.309 0.109 4.413zM12.536 19.92l-4.664-1.373 2.968-3.856 4.447 1.501zM15.557 29.508l-2.281-3.912-0.088-3.695 2.369 3.463zM13.251 20.441l2.749-3.732 2.751 3.732-2.751 4.007zM18.723 25.596l-2.287 3.912v-4.143l2.376-3.463zM16.704 16.193l4.455-1.501 2.961 3.856-4.665 1.373zM19.604 25.44l0.103-4.413 4.155 1.309 0.515 5.201zM24.289 21.557l-3.5-1.116 4.065-1.195 3.904 1.337z"></path>
</svg>
