<!-- Generated by IcoMoon.io -->
<svg version="1.1" xmlns="http://www.w3.org/2000/svg" width="32" height="32" viewBox="0 0 32 32">
<title>workplace</title>
<path d="M16.967 0c-2.148 0-4.233 0.423-6.196 1.257-1.967 0.849-3.646 2.006-5.056 3.43l-0.001 0.001c-2.88 2.89-4.66 6.877-4.66 11.28 0 0.011 0 0.023 0 0.034v-0.002c-0 0.009-0 0.020-0 0.031 0 4.403 1.781 8.391 4.662 11.281l-0-0c1.412 1.424 3.090 2.582 4.955 3.391l0.102 0.040c1.963 0.835 4.056 1.257 6.203 1.257 1.156 0 2.291-0.125 3.42-0.373v-3.379c-1.025 0.298-2.202 0.47-3.42 0.471h-0c-0.008 0-0.017 0-0.026 0-3.49 0-6.646-1.425-8.92-3.726l-0.001-0.001c-2.291-2.292-3.708-5.459-3.708-8.956 0-0.013 0-0.025 0-0.038v0.002c-0-0.012-0-0.027-0-0.041 0-3.495 1.415-6.659 3.704-8.951l-0 0c2.273-2.301 5.428-3.727 8.917-3.727 0.009 0 0.018 0 0.027 0h-0.001c5.919 0 10.716 4.824 10.716 10.776 0 2.196-0.653 4.241-1.776 5.945l-2.787-6.888c-0.408-1.007-0.893-2.527-2.745-2.527-1.849 0-2.333 1.52-2.739 2.527l-2.563 6.361-3.437-8.725h-3.613l4.284 10.6c0.435 1.076 0.907 2.529 2.769 2.529 1.86 0 2.329-1.453 2.763-2.528l2.539-6.303 2.552 6.303c0.516 1.297 1.063 2.525 2.76 2.525 1.204 0 1.967-0.777 2.384-1.279 1.794-2.335 2.875-5.3 2.875-8.517 0-0.009 0-0.017-0-0.026v0.001c-0.001-7.764-6.26-14.057-13.981-14.057z"></path>
</svg>
