<!-- Generated by IcoMoon.io -->
<svg version="1.1" xmlns="http://www.w3.org/2000/svg" width="32" height="32" viewBox="0 0 32 32">
<title>wpengine</title>
<path fill="#40bac8" d="M10.8 32h10.4v-7.8l-2.6-2.401h-5.2l-2.6 2.401zM24.2 10.8l-2.401 2.6v5.2l2.401 2.6h7.8v-10.4zM21.2 0h-10.4v7.8l2.6 2.401h5.2l2.6-2.401zM32 32v-7.8l-2.401-2.401h-7.8v10.201zM2.4 0l-2.4 2.4v7.8h10.2v-10.2zM21.8 0v7.8l2.4 2.4h7.8v-10.2zM16 17.4c-0.8 0-1.4-0.6-1.4-1.4s0.6-1.4 1.4-1.4 1.4 0.6 1.4 1.4-0.6 1.4-1.4 1.4zM10.2 24.2l-2.4-2.4h-7.8v10.2h7.8l2.401-2.401zM10.2 10.8h-10.2v10.4h7.8l2.401-2.6z"></path>
</svg>
