<!-- Generated by IcoMoon.io -->
<svg version="1.1" xmlns="http://www.w3.org/2000/svg" width="32" height="32" viewBox="0 0 32 32">
<title>write-dot-as</title>
<path fill="#5bc4ee" d="M17.087 6.852l2.905 10.012c0.143 0.508 0.293 1.057 0.452 1.648 0.16 0.591 0.305 1.133 0.436 1.631h0.033c0.072-0.496 0.193-1.029 0.364-1.605 0.172-0.572 0.328-1.095 0.471-1.568l1.4-4.589c0.105-0.331 0.2-0.629 0.284-0.895 0.083-0.265 0.168-0.509 0.256-0.735 0.091-0.223 0.175-0.436 0.259-0.637 0.083-0.201 0.176-0.401 0.284-0.601v-0.037l-2.092 0.14v-2.763h6.892v2.321c-0.485 0-0.909 0.159-1.275 0.477-0.367 0.319-0.683 0.699-0.948 1.133-0.268 0.437-0.485 0.876-0.657 1.312-0.172 0.437-0.299 0.775-0.381 1.011l-4.128 11.996h-3.845l-2.499-7.743c-0.071-0.189-0.16-0.46-0.265-0.808s-0.215-0.727-0.329-1.133c-0.111-0.409-0.231-0.831-0.353-1.267-0.123-0.437-0.239-0.851-0.345-1.241h-0.035c-0.071 0.508-0.187 1.079-0.347 1.711-0.159 0.632-0.324 1.249-0.496 1.851-0.171 0.601-0.331 1.145-0.477 1.631-0.148 0.485-0.259 0.827-0.328 1.028l-2.001 5.972h-3.6l-4.393-12.58c-0.167-0.461-0.296-0.833-0.391-1.116-0.095-0.284-0.175-0.531-0.239-0.737-0.067-0.205-0.116-0.391-0.151-0.557-0.036-0.167-0.079-0.353-0.125-0.567l-1.417 0.071v-2.764h8.701v2.321c-0.509 0.036-0.867 0.188-1.075 0.46-0.207 0.272-0.308 0.621-0.308 1.045-0.012 0.201 0.001 0.415 0.043 0.637 0.043 0.225 0.099 0.456 0.171 0.692l1.221 4.429c0.143 0.532 0.28 1.091 0.416 1.675 0.135 0.584 0.245 1.179 0.329 1.781h0.035c0.059-0.26 0.117-0.525 0.179-0.797 0.059-0.272 0.123-0.565 0.193-0.877 0.072-0.313 0.155-0.656 0.248-1.028 0.096-0.371 0.207-0.783 0.339-1.229l2.657-9.109c-0.001 0 3.933 0 3.933 0zM32.004 22.171c0 1.644-1.333 2.977-2.977 2.977s-2.975-1.333-2.975-2.977 1.331-2.977 2.975-2.977 2.977 1.333 2.977 2.977z"></path>
</svg>
