<!-- Generated by IcoMoon.io -->
<svg version="1.1" xmlns="http://www.w3.org/2000/svg" width="32" height="32" viewBox="0 0 32 32">
<title>x-dot-org</title>
<path fill="#f28834" d="M26.587 2.533l-12.123 15.832 6.131 8.523c-1.019 0.193-2.192 0.304-3.39 0.304-0.008 0-0.016 0-0.025 0h0.001c-3.183 0-6.109-0.769-8.421-2.056l8.741-11.503-8.041-11.081-6.487-0.005 10.093 14.093-5.776 7.547c-2.256-1.688-3.639-3.953-3.639-6.443 0-2.84 1.797-5.389 4.64-7.123l-0.873-1.332c-4.459 1.892-7.419 5.212-7.419 8.991 0 3.243 2.18 6.147 5.616 8.1l-2.353 3.076h2.215l1.732-2.279c2.523 1.107 5.544 1.752 8.789 1.752 0.015 0 0.034 0 0.052 0 1.964 0 3.871-0.244 5.693-0.702l-0.16 0.034 0.867 1.204h6.487l-2.305-3.229c3.293-1.951 5.369-4.793 5.369-7.956 0-3.92-3.187-7.349-7.931-9.2l-0.289 0.415c4.132 1.619 6.927 4.708 6.927 8.251 0 2.936-1.92 5.56-4.931 7.293l-6.871-9.627 9.843-12.877zM16 7.673c-0.781 0-1.616 0.061-2.367 0.133 1.339 1.745 2.448 3.223 3.727 4.901-0.717-1.543-2.192-3.024-1.681-3.785 0.504-0.753 1.433-0.627 1.504-0.627 1.491 0 2.925 0.169 4.267 0.48l0.313-0.432c-1.789-0.464-3.732-0.672-5.763-0.671z"></path>
</svg>
