<!-- Generated by IcoMoon.io -->
<svg version="1.1" xmlns="http://www.w3.org/2000/svg" width="32" height="32" viewBox="0 0 32 32">
<title>x-pack</title>
<path fill="#005571" d="M18.267 26.067l7.84-7.853 4.467 4.48c0.862 0.861 1.395 2.052 1.395 3.367s-0.533 2.505-1.395 3.367l-1.107 1.107c-0.861 0.862-2.052 1.395-3.367 1.395s-2.505-0.533-3.367-1.395l-0-0zM30.56 2.533l-1.107-1.107c-0.861-0.862-2.052-1.395-3.367-1.395s-2.505 0.533-3.367 1.395l-0 0-6.72 6.733-6.733-6.733c-0.861-0.862-2.052-1.395-3.367-1.395s-2.505 0.533-3.367 1.395l-1.107 1.107c-0.862 0.861-1.395 2.052-1.395 3.367s0.533 2.505 1.395 3.367l6.733 6.733-6.733 6.733c-0.862 0.861-1.395 2.052-1.395 3.367s0.533 2.505 1.395 3.367l1.107 1.107c0.861 0.862 2.052 1.395 3.367 1.395s2.505-0.533 3.367-1.395l21.307-21.307c0.858-0.861 1.388-2.048 1.388-3.36 0-1.318-0.536-2.511-1.402-3.373l-0-0z"></path>
</svg>
