<!-- Generated by IcoMoon.io -->
<svg version="1.1" xmlns="http://www.w3.org/2000/svg" width="32" height="32" viewBox="0 0 32 32">
<title>xamarin</title>
<path fill="#4393d4" d="M9.516 1.896c-1.188 0-2.101 0.367-2.74 1.467-0.639 1.095-5.852 10.147-6.4 10.968-0.551 0.823-0.551 1.832 0.364 3.476 0.915 1.645 5.487 9.692 6.036 10.699s1.371 1.6 2.74 1.6h12.973c1.373 0 2.196-0.597 2.743-1.6 0.549-1.007 5.12-9.049 6.033-10.699 0.908-1.644 0.908-2.653 0.363-3.476-0.549-0.823-5.76-9.869-6.401-10.969-0.639-1.095-1.552-1.467-2.74-1.467zM8.916 8.661h3.063l4.037 7.076 4.033-7.076h3.065l-4.115 7.336 4.115 7.336h-3.019l-4.080-7.076-4.080 7.076h-3.020l4.111-7.336z"></path>
</svg>
