<!-- Generated by IcoMoon.io -->
<svg version="1.1" xmlns="http://www.w3.org/2000/svg" width="32" height="32" viewBox="0 0 32 32">
<title>xcode</title>
<path fill="#1575f9" d="M26.667 6.4c0.533-0.267 0.8-0.533 1.2-0.533 0.667 0 1.067 0.4 1.2 0.667 0.267 0.4 1.2 0.667 1.6 0.667 0.267 0 0.667-0.933 0.933-1.733s0.267-1.733 0.133-1.867-1.2-0.4-1.467-0.4c-0.133 0.133-0.4 0.267-0.933 0.267s-1.067-0.4-1.467-0.8c-0.667-0.667-1.467-0.933-2.267-1.2s-1.733-0.267-2.533-0.267c-1.2-0.133-2.533-0.133-3.733 0.267-0.533 0.133-0.933 0.267-1.467 0.533-0.133 0.133-0.533 0.267-0.667 0.267-0.133 0.133-0.133 0.267 0 0.267s0.667-0.133 0.667-0.133-0.667 0.267-0.667 0.533c0 0.133 0.133 0.133 0.133 0.133s0.4-0.133 0.667-0.133c0.533 0 1.333-0.267 2-0.267 0.8 0 1.6 0.267 2.4 1.067 1.2 1.467 1.067 3.333 1.067 3.733-0.267 2.8-6.533 19.867-6.8 21.067s-0.267 1.867 1.2 2.267 2 0 2.267-0.533c0.133-0.933 4.133-22 6.533-23.867zM21.467 5.067l-21.467 3.333 3.467 22.267 11.467-1.867c-0.133-0.933 2.933-8.933 3.467-10.4l-5.867 0.933 0.8-2.4 4.133-0.667 1.067 1.333c0 0 0.267-0.667 0.267-0.933l-5.733-7.067c-0.267-0.4-0.267-0.933 0.133-1.2l0.267-0.267c0.4-0.267 0.933-0.267 1.2 0.133l5.067 5.867c1.067-3.2 2-6 2-6.933 0.133-0.267 0.133-1.2-0.267-2.133zM5.467 18.267l3.6-0.667-0.933 2.4-2.4 0.4zM13.2 11.467l0.4 0.133c0.533 0.133 0.667 0.667 0.533 1.2l-4 10.667-2.4 3.2 0.267-4 4-10.667c0.133-0.533 0.667-0.667 1.2-0.533zM27.6 7.733c-0.533 0.533-1.2 2.267-2.533 7.333h0.133l0.4 2.133-1.067 0.133c-0.133 0.667-0.267 1.333-0.533 2.133 2.267 1.2 1.067 4.133 0.933 4.133s-0.133 0-0.133-0.133 0.133-0.533-0.267-0.667c-0.267-0.133-0.8-0.267-1.2-0.533-0.4 1.6-0.8 3.467-1.2 5.467l8.4-1.333-2.8-18.8z"></path>
</svg>
