<!-- Generated by IcoMoon.io -->
<svg version="1.1" xmlns="http://www.w3.org/2000/svg" width="32" height="32" viewBox="0 0 32 32">
<title>xdadevelopers</title>
<path fill="#f59812" d="M19.396 8.669c-0.103 0.035-0.175 0.131-0.175 0.244 0 0.003 0 0.007 0 0.010v-0 3.195h-4.823c-1.044 0-1.895 0.277-2.516 0.853-0.624 0.581-0.935 1.421-0.935 2.469v4.555c-0.013 0.119-0.032 0.245-0.032 0.38 0 0.643 0.189 1.244 0.556 1.771 0.369 0.533 0.879 0.897 1.487 1.060 0.339 0.093 0.808 0.128 1.456 0.128h2.372c1.147 0 2.039-0.264 2.656-0.823 0.617-0.56 0.916-1.391 0.917-2.437v-11.149c-0.002-0.139-0.114-0.251-0.253-0.253h-0.634c-0.013-0.002-0.028-0.004-0.043-0.004-0.012 0-0.024 0.001-0.036 0.002l0.001-0zM0.267 12.115c-0.010 0-0.019 0.001-0.028 0.003l0.001-0c-0.108 0.032-0.185 0.131-0.185 0.247 0 0.062 0.022 0.12 0.059 0.164l-0-0 4.065 5.22-4.128 5.171c-0.032 0.043-0.052 0.096-0.052 0.155 0 0.142 0.115 0.257 0.257 0.257h0.855c0.002 0 0.004 0 0.007 0 0.080 0 0.151-0.036 0.198-0.093l0-0 3.589-4.555 3.573 4.555c0.048 0.057 0.119 0.093 0.198 0.093 0.002 0 0.005-0 0.007-0h0.838c0.142-0 0.257-0.115 0.257-0.257 0-0.058-0.019-0.112-0.052-0.155l0 0.001-4.077-5.185 4-5.204c0.032-0.042 0.051-0.096 0.051-0.153 0-0.142-0.114-0.257-0.256-0.257h-0.853c-0.002-0-0.005-0-0.008-0-0.080 0-0.151 0.036-0.198 0.093l-0 0-3.48 4.571-3.525-4.571c-0.048-0.057-0.119-0.093-0.198-0.093-0.002 0-0.005 0-0.007 0h-0.854c-0.014-0.003-0.030-0.004-0.046-0.004-0.003 0-0.005 0-0.008 0h0zM22.915 12.115c-0.010 0.001-0.018 0.002-0.027 0.003l0.001-0c-0.102 0.036-0.174 0.131-0.174 0.243 0 0.004 0 0.007 0 0.011l-0-0.001v0.648c0.002 0.139 0.114 0.25 0.252 0.253h5.867c0.721 0 1.217 0.167 1.533 0.476 0.317 0.307 0.493 0.787 0.493 1.487v0.443h-5.125c-0.915 0-1.68 0.28-2.229 0.839-0.549 0.557-0.823 1.313-0.823 2.229v1.596c0 0.759 0.227 1.427 0.68 1.945 0.004 0.005 0.011 0.009 0.015 0.016 0.576 0.683 1.413 1.028 2.42 1.028h3.211c0.941 0 1.708-0.28 2.229-0.853 0.515-0.568 0.76-1.347 0.76-2.295v-4.823c0-1.045-0.281-1.88-0.885-2.436-0.604-0.555-1.491-0.807-2.609-0.807h-5.536c-0.012-0.002-0.026-0.003-0.039-0.003-0.005 0-0.010 0-0.015 0l0.001-0zM14.379 13.287h4.841v6.755c0 0.66-0.191 1.128-0.539 1.472-0.343 0.339-0.873 0.577-1.628 0.664h-0.208c-0.005-0-0.010-0-0.016-0s-0.011 0-0.017 0.001l0.001-0c-0.056 0.009-0.122 0.015-0.188 0.016h-2.23c-0.911 0-1.507-0.204-1.817-0.508-0.311-0.307-0.508-0.879-0.508-1.787v-4.412c0-0.865 0.312-1.469 0.951-1.899v0.016c0.289-0.189 0.741-0.317 1.359-0.317zM25.689 16.812v0.003h5.156v3.527c0 0.66-0.16 1.104-0.443 1.393s-0.717 0.459-1.363 0.459h-3.289c-0.107-0.002-0.21-0.014-0.31-0.034l0.011 0.002c-0.573-0.1-0.976-0.317-1.235-0.617s-0.396-0.7-0.396-1.249v-1.568c0-0.573 0.144-0.996 0.396-1.297 0.249-0.297 0.627-0.493 1.169-0.583h0.016c0.149-0.023 0.249-0.035 0.287-0.035z"></path>
</svg>
