<!-- Generated by IcoMoon.io -->
<svg version="1.1" xmlns="http://www.w3.org/2000/svg" width="32" height="32" viewBox="0 0 32 32">
<title>xero</title>
<path fill="#13b5ea" d="M16 0c-8.836 0-16 7.164-16 16s7.164 16 16 16 16-7.164 16-16-7.164-16-16-16zM24.78 19.54c-1.98 0-3.587-1.608-3.587-3.585 0-1.98 1.609-3.588 3.587-3.588 1.98 0 3.587 1.609 3.587 3.588s-1.609 3.585-3.587 3.585zM10.040 19.525c-0.132 0-0.256-0.055-0.356-0.155l-2.724-2.72-2.736 2.729c-0.092 0.091-0.213 0.144-0.344 0.144-0.269 0-0.491-0.221-0.491-0.491 0-0.132 0.053-0.255 0.148-0.351l2.72-2.733-2.717-2.729c-0.1-0.092-0.151-0.216-0.151-0.348 0-0.271 0.221-0.488 0.491-0.488 0.131 0 0.251 0.049 0.344 0.14l2.74 2.731 2.731-2.727c0.092-0.095 0.216-0.144 0.347-0.144 0.281 0 0.5 0.22 0.5 0.488 0 0.131-0.039 0.251-0.139 0.344l-2.741 2.74 2.74 2.735c0.091 0.092 0.139 0.213 0.139 0.344 0 0.269-0.22 0.491-0.487 0.491zM20.729 13.404c-1.061 0.135-1.176 0.635-1.176 1.872v3.716c0 0.269-0.22 0.488-0.488 0.488-0.271 0-0.489-0.22-0.491-0.488v-6.040c0-0.272 0.213-0.488 0.483-0.488 0.221 0 0.421 0.167 0.461 0.385 0.36-0.279 0.8-0.423 1.24-0.423h0.14c0.26 0 0.479 0.22 0.479 0.491 0 0.268-0.219 0.469-0.5 0.479 0 0-0.12 0-0.219 0.011zM16.608 16.344h-5.108c0 0.025 0.004 0.049 0.008 0.076 0.027 0.14 0.060 0.281 0.111 0.413 0.259 0.708 1.020 1.7 2.439 1.72 0.44-0.004 0.841-0.115 1.2-0.305 0.28-0.16 0.521-0.361 0.7-0.571 0.060-0.077 0.12-0.149 0.16-0.224 0.24-0.305 0.54-0.248 0.72-0.111 0.219 0.18 0.24 0.521 0.060 0.76l-0.021 0.021c-0.28 0.36-0.58 0.66-0.919 0.88-0.34 0.219-0.7 0.379-1.081 0.46-0.44 0.12-0.86 0.139-1.3 0.080-1.46-0.18-2.68-1.24-3.040-2.68-0.080-0.28-0.12-0.56-0.12-0.86 0-1.14 0.561-2.26 1.5-2.94 1.18-0.82 2.78-0.88 4-0.1 0.84 0.54 1.38 1.361 1.58 2.361 0.1 0.559-0.28 1.059-0.979 1.080zM24.78 13.38c-1.419 0-2.575 1.153-2.575 2.575 0 1.419 1.155 2.575 2.575 2.575s2.575-1.156 2.575-2.575c0-1.42-1.155-2.577-2.575-2.577zM24.78 16.84c-0.489 0-0.888-0.396-0.888-0.888 0-0.489 0.4-0.887 0.888-0.887 0.489 0 0.889 0.399 0.889 0.887 0 0.492-0.4 0.889-0.889 0.888zM14.060 13.369c-1.213 0-2.229 0.831-2.515 1.955v0.040h5.035c-0.271-1.14-1.297-1.992-2.521-1.992z"></path>
</svg>
