<!-- Generated by IcoMoon.io -->
<svg version="1.1" xmlns="http://www.w3.org/2000/svg" width="32" height="32" viewBox="0 0 32 32">
<title>xfce</title>
<path fill="#2284f2" d="M0.013 7.675c-0.171 0.093 1.359 1.093 4.215 2.275 2.857 1.181 6.804 4.173 6.493 4.657-0.927 1.312-1.473 2.883-1.096 5.571 0.068 0.473-1.396 1.293-1.291 2.008 0.089 0.544 1.637-0.537 1.807-0.324 0.104 0.384-0.828 2.324-0.451 2.463 0.275 0.083 2.697-2.307 2.839-2.267 3.993 1.211 9.189 0.296 9.289 0.259-0.009-0.021 3.739 1.768 4.065 1.555 0.821-0.893-1.559-2.153-1.161-2.656 0.173-0.264 2.897 0.989 3.032 0.647 0.195-0.591-1.264-1.833-1.484-2.201-0.191-0.34-0.232-0.888 0.259-1.232 0.489-0.343 5.5-2.267 5.289-3.757-0.363-2.707-6.355-2.881-6.452-3.109-0.045-0.107 0.265-3.869-1.483-3.173-1.077 0.401-0.2 2.799-0.129 3.109 0.064 0.285-0.479 0.253-0.581 0.129-0.227-0.28-0.981-2.779-1.871-2.333-1.247 0.691-0.073 2.847-0.323 2.916-0.461 0.26-0.435 0.893-0.805 1.408-0.611 0.88-5.181-0.412-6.659-0.501-1.081-0.064-2.115 0.827-2.213 0.713-1.316-1.324-4.040-3.629-7.027-4.396-1.672-0.456-4.161-1.776-4.263-1.759zM30.501 10.096c-0.091-0.024-0.509 2.124-0.312 2.22 0.173 0.129 0.473-2.101 0.316-2.216zM31.977 10.38c-0.227-0.004-1.435 1.932-1.156 2.137 0.172 0.131 1.249-2.057 1.175-2.131-0.005-0.004-0.012-0.006-0.019-0.007h-0zM26.131 12.737c0 0 0 0 0 0 0.285 0 0.517 0.264 0.517 0.591v0c0 0.327-0.232 0.592-0.517 0.592v0c-0.286 0-0.517-0.265-0.517-0.592v0c0.001-0.326 0.232-0.591 0.517-0.591 0 0 0 0 0 0v0zM24.969 13.097c0.22 0.952 0.563 1.253 1.592 1.224-1.311 1.207-2.107-0.86-1.592-1.224zM27.803 15.587c0.053 0 0.095 0.015 0.123 0.040 0.516 0.188-2.219 1.177-2.237 1.037-0.028-0.1 1.596-1.097 2.115-1.077zM28.080 16.22c0.005-0.001 0.011-0.001 0.017-0.001 0.021 0 0.041 0.005 0.058 0.013l-0.001-0c0.487 0.485-1.543 1.564-1.52 1.525-0.164-0.099 1.021-1.505 1.445-1.537z"></path>
</svg>
