<!-- Generated by IcoMoon.io -->
<svg version="1.1" xmlns="http://www.w3.org/2000/svg" width="32" height="32" viewBox="0 0 32 32">
<title>xing</title>
<path fill="#006567" d="M24.251 0c-0.689 0-0.988 0.433-1.236 0.88 0 0-9.94 17.632-10.269 18.209 0.020 0.032 6.559 12.031 6.559 12.031 0.227 0.411 0.581 0.88 1.289 0.88h4.605c0.281 0 0.5-0.104 0.617-0.293 0.119-0.201 0.119-0.461-0.012-0.715l-6.505-11.888c-0.005-0.008-0.005-0.021 0-0.029l10.22-18.067c0.127-0.255 0.129-0.516 0.008-0.713-0.119-0.191-0.335-0.295-0.612-0.295zM4.864 6.32c-0.281 0-0.513 0.099-0.631 0.288-0.12 0.199-0.104 0.452 0.027 0.708l3.12 5.4c0.005 0.013 0.005 0.021 0 0.028l-4.9 8.657c-0.132 0.251-0.124 0.508 0 0.705 0.113 0.189 0.319 0.312 0.6 0.312h4.615c0.691 0 1.021-0.464 1.26-0.889l4.979-8.812-3.171-5.54c-0.229-0.42-0.579-0.879-1.283-0.879h-4.616z"></path>
</svg>
