<!-- Generated by IcoMoon.io -->
<svg version="1.1" xmlns="http://www.w3.org/2000/svg" width="32" height="32" viewBox="0 0 32 32">
<title>xrp</title>
<path fill="#25a768" d="M7.36 3.94c-0.001 0-0.003 0-0.004 0-2.593 0-4.695 2.102-4.695 4.695 0 0.002 0 0.004 0 0.006v-0 3.411c0 0.001 0 0.002 0 0.004 0 1.503-1.173 2.732-2.653 2.821l-0.008 0 0.040 0.749-0.040 0.748c1.488 0.090 2.661 1.319 2.661 2.822 0 0.002 0 0.004 0 0.006v-0 3.931c0 0.002 0 0.005 0 0.008 0 2.713 2.195 4.912 4.906 4.92h0.001v-1.497c-1.882-0.002-3.408-1.528-3.409-3.411v-3.951c0-0.001 0-0.002 0-0.003 0-1.48-0.744-2.786-1.879-3.564l-0.015-0.010c1.146-0.791 1.889-2.097 1.893-3.575v-3.41c0.008-1.765 1.436-3.194 3.201-3.203h0.583v-1.497zM24.077 3.94v1.497h0.583c1.758 0.003 3.181 1.429 3.181 3.187 0 0.005 0 0.010-0 0.015v-0.001 3.411c0.004 1.479 0.747 2.785 1.879 3.566l0.015 0.009c-1.149 0.788-1.893 2.094-1.893 3.573 0 0.001 0 0.002 0 0.003v-0 3.951c-0.002 1.883-1.527 3.408-3.409 3.411h-0v1.497c2.712-0.008 4.907-2.207 4.907-4.92 0-0.003 0-0.006 0-0.008v0-3.932c0-0.001 0-0.002 0-0.003 0-1.503 1.173-2.732 2.653-2.821l0.008-0-0.040-0.749 0.040-0.748c-1.488-0.090-2.661-1.319-2.661-2.822 0-0.002 0-0.003 0-0.005v0-3.413c0-0.002 0-0.005 0-0.008 0-2.586-2.093-4.684-4.678-4.691h-0.001zM8.337 9.971l4.637 4.345c0.799 0.725 1.865 1.169 3.035 1.169s2.236-0.444 3.039-1.173l-0.004 0.003 4.637-4.347h-2.225l-3.533 3.285c-0.505 0.465-1.181 0.75-1.924 0.75s-1.419-0.285-1.926-0.751l0.002 0.002-3.513-3.284zM15.812 16.483c-1.1 0.050-2.089 0.49-2.84 1.184l0.003-0.003-4.657 4.365h2.224l3.556-3.327c0.505-0.464 1.181-0.749 1.923-0.749s1.419 0.285 1.925 0.751l-0.002-0.002 3.533 3.327h2.227l-4.659-4.365c-0.796-0.735-1.863-1.186-3.036-1.186-0.069 0-0.138 0.002-0.207 0.005l0.010-0z"></path>
</svg>
