<!-- Generated by IcoMoon.io -->
<svg version="1.1" xmlns="http://www.w3.org/2000/svg" width="32" height="32" viewBox="0 0 32 32">
<title>yamahacorporation</title>
<path fill="#4b1e78" d="M16 0c-8.837 0-16 7.163-16 16s7.163 16 16 16c8.837 0 16-7.163 16-16v0c0-8.837-7.163-16-16-16v0zM15.451 1.836c0.17-0.007 0.37-0.011 0.571-0.011 7.833 0 14.185 6.344 14.197 14.174v0.001c0 0.006 0 0.014 0 0.021 0 7.841-6.356 14.197-14.197 14.197-0.008 0-0.015 0-0.023-0h0.001c-7.827-0.019-14.164-6.368-14.164-14.197 0-7.636 6.028-13.864 13.586-14.184l0.029-0.001zM16 2.533c-0.108 0.003-0.199 0.075-0.229 0.173l-0 0.002-1.177 3.368c-0.003 0.019-0.004 0.042-0.004 0.065s0.001 0.045 0.004 0.067l-0-0.003c0 0 0 0.001 0 0.001 0 0.138 0.070 0.259 0.176 0.331l0.001 0.001c0.323 0.226 0.531 0.596 0.531 1.015 0 0.375-0.167 0.711-0.431 0.937l-0.002 0.001c-0.671 0.577-1.093 1.427-1.093 2.375 0 0.004 0 0.008 0 0.012v-0.001 1.204l-5.956-3.419-0.729 1.271 6.649 3.836v0.923l-0.803 0.463-6.637-3.84-0.735 1.272 5.904 3.412-1.043 0.6c-0.779 0.461-1.335 1.23-1.5 2.136l-0.003 0.019c-0.112 0.579-0.615 1.010-1.218 1.010-0.193 0-0.375-0.044-0.538-0.123l0.007 0.003c-0.053-0.029-0.117-0.046-0.185-0.046s-0.131 0.017-0.187 0.047l0.002-0.001c-0.041 0.023-0.075 0.051-0.105 0.084l-0 0-2.323 2.716c-0.036 0.043-0.057 0.099-0.057 0.159 0 0.138 0.112 0.251 0.251 0.251 0.015 0 0.029-0.001 0.043-0.004l-0.002 0 3.511-0.657c0.045-0.011 0.085-0.027 0.122-0.048l-0.002 0.001c0.114-0.065 0.192-0.181 0.203-0.316l0-0.001c0.064-0.627 0.59-1.113 1.229-1.113 0.148 0 0.291 0.026 0.423 0.074l-0.009-0.003c0.309 0.112 0.665 0.177 1.036 0.177 0.578 0 1.119-0.157 1.584-0.43l-0.015 0.008 1.040-0.601v6.805h1.464v-7.675l0.797-0.459 0.797 0.459v7.675h1.467v-6.831l1.040 0.6c0.45 0.265 0.991 0.422 1.569 0.422 0.371 0 0.728-0.065 1.058-0.184l-0.022 0.007c0.124-0.046 0.267-0.072 0.416-0.072 0.64 0 1.166 0.487 1.228 1.11l0 0.005c0.006 0.137 0.084 0.254 0.197 0.316l0.002 0.001c0.035 0.020 0.075 0.036 0.117 0.046l0.003 0.001 3.512 0.656c0.017 0.004 0.036 0.006 0.056 0.006 0.136 0 0.245-0.11 0.245-0.245 0-0.065-0.025-0.124-0.066-0.168l0 0 0.005 0.027-2.325-2.716c-0.029-0.032-0.062-0.059-0.098-0.083l-0.002-0.001c-0.054-0.029-0.118-0.046-0.187-0.046s-0.133 0.017-0.189 0.047l0.002-0.001c-0.156 0.075-0.338 0.118-0.531 0.118-0.228 0-0.443-0.061-0.627-0.168l0.006 0.003c-0.3-0.184-0.513-0.484-0.578-0.836l-0.001-0.008c-0.179-0.922-0.739-1.687-1.505-2.137l-0.015-0.008-1.043-0.6 5.915-3.411-0.732-1.273-6.64 3.831-0.803-0.463v-0.923l6.647-3.836-0.729-1.271-5.919 3.419v-1.205c0-0.009 0-0.019 0-0.030 0-0.938-0.413-1.78-1.067-2.353l-0.004-0.003c-0.266-0.227-0.433-0.562-0.433-0.937 0-0.421 0.212-0.792 0.534-1.014l0.004-0.003c0.104-0.076 0.17-0.197 0.171-0.333v-0c0.004-0.019 0.006-0.042 0.006-0.065s-0.002-0.045-0.006-0.067l0 0.002-1.232-3.369c-0.032-0.101-0.125-0.173-0.235-0.173-0.002 0-0.004 0-0.006 0h0zM16.028 9.883c0.43 0.013 0.773 0.365 0.773 0.797 0 0 0 0 0 0v-0 2.253l-0.796 0.463-0.797-0.464v-2.252c0-0 0-0 0-0 0-0.44 0.357-0.797 0.797-0.797 0.008 0 0.016 0 0.024 0l-0.001-0zM16.005 14.973l0.916 0.521v1.041l-0.916 0.521-0.917-0.52v-1.043zM19.071 16.844l1.947 1.129c0.242 0.14 0.403 0.398 0.403 0.693 0 0.146-0.039 0.283-0.108 0.4l0.002-0.004v0.005c-0.142 0.24-0.399 0.399-0.694 0.399-0.147 0-0.285-0.040-0.404-0.109l0.004 0.002-1.953-1.125v-0.928zM12.943 16.849l0.803 0.463v0.923l-1.953 1.125c-0.114 0.067-0.252 0.107-0.399 0.107-0.44 0-0.797-0.357-0.797-0.797 0-0.294 0.159-0.55 0.395-0.689l0.004-0.002z"></path>
</svg>
