<!-- Generated by IcoMoon.io -->
<svg version="1.1" xmlns="http://www.w3.org/2000/svg" width="32" height="32" viewBox="0 0 32 32">
<title>yamahamotorcorporation</title>
<path fill="#e60012" d="M16 0c-8.837 0-16 7.163-16 16v0c0 8.837 7.163 16 16 16v0c8.837 0 16-7.163 16-16v0c0-8.837-7.163-16-16-16v0zM16 0.76c8.42 0 15.24 6.82 15.24 15.24 0 8.413-6.82 15.24-15.24 15.24-8.413 0-15.24-6.821-15.24-15.24 0-8.413 6.827-15.24 15.24-15.24zM16 1.072c-0.133 0-0.244 0.080-0.291 0.196l-0.656 2.068c-6.594 0.506-11.753 5.982-11.753 12.662 0 0.001 0 0.001 0 0.002v-0c0 1.973 0.449 3.847 1.253 5.515l-1.467 1.608c-0.039 0.052-0.062 0.119-0.062 0.19 0 0.059 0.016 0.113 0.043 0.161l-0.001-0.002c0.059 0.094 0.162 0.156 0.279 0.156 0.014 0 0.027-0.001 0.040-0.002l-0.002 0 2.123-0.471c2.317 3.367 6.149 5.547 10.49 5.547 0.001 0 0.002 0 0.003 0h-0c4.36 0 8.213-2.203 10.499-5.547l2.123 0.471c0.009 0.001 0.019 0.001 0.030 0.001 0.119 0 0.223-0.066 0.276-0.164l0.001-0.002c0.027-0.045 0.044-0.1 0.044-0.159 0-0.072-0.024-0.138-0.065-0.191l0.001 0.001-1.467-1.597c0.796-1.604 1.261-3.492 1.261-5.489 0-0.009 0-0.018-0-0.027v0.001c0-0.001 0-0.001 0-0.002 0-6.68-5.159-12.156-11.71-12.66l-0.043-0.003-0.657-2.073c-0.050-0.113-0.161-0.191-0.29-0.191-0 0-0 0-0.001 0h0zM15.996 1.405c0.032 0 0.064 0.027 0.075 0.057l1.36 4.472c-0.389 0.294-0.639 0.756-0.64 1.276v0c0 0.519 0.253 0.979 0.64 1.269h-0.005c0.581 0.435 0.957 1.128 0.957 1.905v1.493l5.768-3.329 0.635 1.1-6.403 3.693v1.287l1.112 0.64 6.403-3.699 0.635 1.1-5.768 3.333 1.296 0.747c0.677 0.392 1.091 1.064 1.176 1.784v-0.005c0.099 0.792 0.768 1.4 1.579 1.4 0.227 0 0.442-0.047 0.638-0.133l-0.010 0.004 3.191 3.413c0.027 0.027 0.027 0.063 0.011 0.093-0.021 0.033-0.053 0.044-0.091 0.039l-4.551-1.059c-0.098-0.794-0.767-1.402-1.579-1.402-0.224 0-0.437 0.046-0.631 0.13l0.010-0.004 0.004-0.005c-0.667 0.287-1.455 0.265-2.133-0.127l-1.291-0.747v6.659h-1.269v-7.393l-1.112-0.64-1.111 0.64v7.393h-1.271v-6.657l-1.296 0.74c-0.677 0.392-1.467 0.413-2.133 0.128l0.005 0.005c-0.183-0.080-0.397-0.127-0.622-0.127-0.812 0-1.482 0.609-1.579 1.395l-0.001 0.008-4.551 1.057c-0.006 0.002-0.013 0.003-0.019 0.003-0.028 0-0.052-0.016-0.064-0.040l-0-0c-0.021-0.027-0.016-0.063 0.011-0.089l3.196-3.413c0.444 0.191 0.973 0.18 1.423-0.085 0.451-0.259 0.725-0.704 0.784-1.185v0.005c0.084-0.72 0.497-1.392 1.173-1.783l1.293-0.747-5.769-3.328 0.636-1.101 6.403 3.699 1.111-0.645v-1.285l-6.403-3.693 0.635-1.101 5.768 3.328v-1.491c0-0.777 0.376-1.471 0.959-1.905h-0.005c0.387-0.285 0.635-0.747 0.635-1.269 0-0.524-0.253-0.984-0.64-1.276l1.36-4.471c0.011-0.037 0.041-0.059 0.068-0.060zM16.001 9.275c-0.613 0-1.111 0.497-1.111 1.111v0 2.227l1.109 0.641 1.111-0.64v-2.228c0-0.613-0.497-1.11-1.109-1.111h-0zM16.001 14.72l-1.111 0.64v1.285l1.111 0.635 1.111-0.64v-1.28zM12.508 16.741l-1.925 1.111c-0.336 0.195-0.558 0.553-0.558 0.963 0 0.205 0.056 0.397 0.152 0.562l-0.003-0.005c0.193 0.331 0.546 0.549 0.95 0.549 0.005 0 0.010-0 0.015-0h-0.001c0.001 0 0.001 0 0.002 0 0.204 0 0.394-0.055 0.558-0.151l-0.005 0.003 1.927-1.112v-1.28zM19.499 16.741l-1.111 0.64v1.285l1.927 1.112c0.157 0.090 0.345 0.143 0.545 0.143 0.614 0 1.112-0.498 1.112-1.112 0-0.406-0.217-0.76-0.541-0.955l-0.005-0.003z"></path>
</svg>
