<!-- Generated by IcoMoon.io -->
<svg version="1.1" xmlns="http://www.w3.org/2000/svg" width="32" height="32" viewBox="0 0 32 32">
<title>yammer</title>
<path fill="#0072c6" d="M27.803 8.652c0.651-0.519 0.815-1.451 0.357-2.161-0.401-0.627-1.157-0.883-1.837-0.688l-0.187 0.1c-1.084 0.596-8.408 5.719-7.584 6.297 0.823 0.573 5.817-1.677 9.231-3.552zM27.783 24.057c-3.432-1.873-8.428-4.123-9.251-3.552-0.823 0.579 6.48 5.703 7.564 6.297l0.183 0.1c0.683 0.2 1.423-0.059 1.824-0.687 0.463-0.712 0.281-1.644-0.361-2.16zM30.751 14.669c-0.081-0.020-0.14-0.020-0.221-0.020-1.243 0-10.112 0.963-9.671 1.867 0.441 0.883 5.899 1.324 9.792 1.324 0.804-0.141 1.404-0.884 1.345-1.725-0.061-0.743-0.583-1.344-1.287-1.484zM7.235 22.355c-1.003 2.868-1.945 4.213-4.112 4.213-0.201 0-0.944-0.039-0.984-0.061-0.703-0.039-1.344 0.423-1.525 1.125-0.22 0.784 0.241 1.604 1.044 1.847 0.561 0.099 1.164 0.121 1.685 0.121 3.973 0 5.297-2.289 6.601-5.639l7.825-19.384c0.281-0.883-0.22-1.805-1.084-2.087-0.861-0.28-1.765 0.181-2.087 1.003l-5.457 14.447h-0.081l-5.736-14.545c-0.361-0.803-1.324-1.204-2.187-0.883-0.884 0.321-1.345 1.304-1.048 2.187l7.236 17.659z"></path>
</svg>
