<!-- Generated by IcoMoon.io -->
<svg version="1.1" xmlns="http://www.w3.org/2000/svg" width="32" height="32" viewBox="0 0 32 32">
<title>yelp</title>
<path fill="#d32323" d="M28.148 24.301c-0.188 1.292-2.825 4.644-4.039 5.129-0.415 0.165-0.815 0.125-1.133-0.12-0.205-0.16-0.419-0.487-3.263-5.103l-0.844-1.376c-0.325-0.493-0.265-1.143 0.139-1.639 0.396-0.479 0.976-0.659 1.481-0.467 0.027 0.016 2.128 0.708 2.128 0.708 4.784 1.572 4.94 1.632 5.143 1.784 0.303 0.248 0.443 0.633 0.38 1.084zM18.56 17.279c-0.339-0.515-0.333-1.121 0.016-1.54l1.331-1.812c2.919-3.979 3.081-4.188 3.279-4.327 0.341-0.228 0.76-0.239 1.161-0.043 1.159 0.563 3.497 4.039 3.639 5.372v0.045c0.039 0.455-0.14 0.824-0.461 1.045-0.219 0.14-0.419 0.221-5.857 1.541-0.86 0.219-1.339 0.339-1.62 0.439l0.039-0.040c-0.539 0.16-1.139-0.099-1.479-0.639zM15.221 15.217c-0.26 0.081-1.052 0.327-2.025-1.251 0 0-6.575-10.345-6.729-10.664-0.093-0.36 0.020-0.765 0.34-1.093 0.979-1.015 6.289-2.5 7.68-2.161 0.453 0.117 0.765 0.401 0.875 0.805 0.080 0.447 0.727 10.048 0.82 12.199 0.088 1.84-0.7 2.087-0.96 2.165zM16.089 25.741c-0.015 5.032-0.025 5.2-0.108 5.439-0.14 0.375-0.461 0.625-0.908 0.707-1.28 0.219-5.289-1.261-6.125-2.253-0.16-0.219-0.26-0.437-0.28-0.657-0.021-0.16 0-0.32 0.060-0.461 0.1-0.26 0.24-0.46 3.84-4.68l1.059-1.259c0.361-0.46 1-0.6 1.599-0.361 0.581 0.22 0.941 0.72 0.901 1.26v2.24zM5.179 22.523c-0.393-0.013-0.747-0.249-0.953-0.64-0.148-0.287-0.252-0.76-0.317-1.336-0.183-1.735 0.039-4.352 0.559-5.183 0.244-0.38 0.6-0.581 0.993-0.568 0.26 0 0.492 0.081 5.639 2.2l1.507 0.599c0.539 0.2 0.872 0.76 0.84 1.401-0.040 0.62-0.397 1.099-0.925 1.24l-2.14 0.68c-4.787 1.54-4.945 1.58-5.197 1.56zM25.148 31.996h-0.005l-0.007 0.004z"></path>
</svg>
