<!-- Generated by IcoMoon.io -->
<svg version="1.1" xmlns="http://www.w3.org/2000/svg" width="32" height="32" viewBox="0 0 32 32">
<title>zalando</title>
<path fill="#ff6900" d="M6.373 32c-1.173 0-1.813-0.267-2.16-0.48-0.48-0.28-1.36-1-2.16-3.107-1.302-3.575-2.056-7.702-2.056-12.005 0-0.144 0.001-0.287 0.003-0.431l-0 0.022c0.027-4.88 0.787-9.013 2.053-12.4 0.8-2.133 1.68-2.853 2.16-3.133 0.347-0.187 0.987-0.467 2.16-0.467 0.44 0 0.96 0.040 1.573 0.133 4.372 0.827 8.265 2.359 11.753 4.487l-0.153-0.087h0.013c3.721 2.156 6.879 4.825 9.502 7.958l0.045 0.055c1.413 1.76 1.587 2.893 1.587 3.453s-0.173 1.693-1.587 3.453c-2.669 3.183-5.826 5.848-9.378 7.91l-0.169 0.090h-0.013c-3.335 2.043-7.228 3.575-11.383 4.366l-0.217 0.034c-0.613 0.107-1.133 0.147-1.573 0.147z"></path>
</svg>
