<!-- Generated by IcoMoon.io -->
<svg version="1.1" xmlns="http://www.w3.org/2000/svg" width="32" height="32" viewBox="0 0 32 32">
<title>zendframework</title>
<path fill="#68b604" d="M1.243 8.323v3.38h7.536l-8.779 11.973h13.625v-3.379h-6.907l8.737-11.973zM19.292 8.539c-4.237 0-4.237 4.237-4.237 4.237h12.708c4.237 0 4.237-4.237 4.237-4.237zM19.284 13.961c-4.231 0-4.229 4.229-4.229 4.229l6.349 0.007c4.237 0 4.236-4.236 4.236-4.236zM19.284 19.36c-4.231 0-4.229 4.244-4.229 4.244l2.112-0.008c4.237 0 4.237-4.236 4.237-4.236z"></path>
</svg>
