<!-- Generated by IcoMoon.io -->
<svg version="1.1" xmlns="http://www.w3.org/2000/svg" width="32" height="32" viewBox="0 0 32 32">
<title>zeromq</title>
<path fill="#df0000" d="M29.451 7.332l2.525-2.525-4.783-4.783-2.525 2.525c-2.499-1.613-5.473-2.549-8.668-2.549-8.836 0-16 7.164-16 16 0 3.195 0.936 6.169 2.549 8.668l-2.525 2.525 4.783 4.783 2.525-2.525c2.499 1.613 5.473 2.549 8.668 2.549 8.836 0 16-7.164 16-16 0-3.195-0.936-6.169-2.549-8.668zM6.092 16c0-5.472 4.436-9.908 9.908-9.908 1.5 0 2.921 0.333 4.195 0.931l-13.173 13.173c-0.596-1.275-0.929-2.696-0.929-4.196zM16 25.908c-1.5 0-2.921-0.333-4.195-0.931l13.173-13.173c0.596 1.275 0.931 2.696 0.931 4.195-0.001 5.473-4.437 9.909-9.909 9.909z"></path>
</svg>
