<!-- Generated by IcoMoon.io -->
<svg version="1.1" xmlns="http://www.w3.org/2000/svg" width="32" height="32" viewBox="0 0 32 32">
<title>zerply</title>
<path fill="#9dbc7a" d="M27.705 24.995c-0.996 0.952-2.083 1.356-3.391 1.356-1.76 0-4.429-0.813-6.461-2.213-2.172-1.492-5.020-2.983-7.416-3.028 1.764-2.397 4.52-4.837 7.096-7.731 0.951-1.040 6.644-7.6 7.64-8.781 0.72-0.86 1.084-1.899 1.084-2.94 0-0.4-0.044-0.78-0.135-1.14-2.713 0.54-4.748 0.801-8.001 0.801-3.569 0.020-6.143-0.419-7.64-1.319-1.040 1.357-2.080 3.164-2.080 4.16 0 1.264 1.224 2.304 4.252 2.304 0.995 0 2.62-0.045 4.88-0.225-4.656 6-9.265 10.88-12.021 13.96-0.951 1.041-1.495 2.44-1.495 3.841 0 0.54 0.1 1.080 0.24 1.58 0.86-0.139 1.721-0.239 2.62-0.239 1.86 0 3.72 0.399 5.441 1.119 3.421 1.519 6.621 5.5 10.243 5.5 2.939 0 5.42-2.321 5.42-5.381 0-0.539-0.081-1.1-0.26-1.639z"></path>
</svg>
