<!-- Generated by IcoMoon.io -->
<svg version="1.1" xmlns="http://www.w3.org/2000/svg" width="32" height="32" viewBox="0 0 32 32">
<title>zhihu</title>
<path fill="#0084ff" d="M7.628 0c-4.627 0-7.628 3-7.628 7.625v16.748c0 4.628 3.003 7.627 7.628 7.627h16.747c4.627 0 7.625-3 7.625-7.625v-16.748c0-4.628-3-7.627-7.625-7.627zM10.247 5.437c-0.361 0.973-0.667 1.912-0.907 2.813h6.116c0.727-0.008 0.593 1.557 0.593 1.561h-3.537c0 0.074 0 0.161 0 0.248 0 1.694-0.054 3.375-0.161 5.042l0.012-0.227h3.616c0.517 0.031 0.524 1.668 0.524 1.688h-4.259c-0.079 1.029-0.273 1.982-0.569 2.89l0.025-0.087 1.009-0.805c0.603 0.608 2.016 2.283 2.541 2.903 0.631 0.908 0.084 2.775 0.084 2.775l-3.725-4.509c-0.871 3.357-2.46 4.809-2.46 4.809-0.697 0.624-2.107 1.093-3.52 0.688 2.957-2.307 4.587-5.223 4.889-8.663h-4.531c0-0.020 0.263-1.657 1.075-1.688h3.613c0.032-0.427 0.115-4.339 0.115-5.063h-1.993c-0.181 0.541-0.211 0.596-0.357 1.004-0.792 1.46-2.137 1.496-2.543 1.54 1.208-2.428 1.888-4.8 2.121-5.419 0.567-1.499 2.228-1.5 2.228-1.5zM17.437 8h8.503v15.107h-3.431l-2.912 1.831-0.535-1.831h-1.625zM19.188 9.625v11.813h0.831l0.351 1.249 1.94-1.251h1.941v-11.813z"></path>
</svg>
