<!-- Generated by IcoMoon.io -->
<svg version="1.1" xmlns="http://www.w3.org/2000/svg" width="32" height="32" viewBox="0 0 32 32">
<title>zillow</title>
<path fill="#0074e4" d="M23.175 24.075c-9.907 0.593-20.68 4.18-21.816 4.68l1.319-3.719c3.361-1.555 11.7-4.625 21.981-5.359-0.2 0.76-1.281 3.561-1.5 4.38zM26.707 14.063c0 0-0.484 1.020-0.945 2.419-3.939 0.24-10.18 1.539-13.22 2.64 1.581-1.44 11.581-11.48 11.581-11.48 3.857 2.639 7.877 5.899 7.877 5.899l-5.293 0.527zM3.307 14.503c2.196-1 8.353-2.861 14.247-4.241 0 0-11.329 10.46-14.479 13.7l2.6-7.040c-2.021 0.3-2.912 0.42-5.675 1l3.305-3.401zM17.44 3.26c0.979 0.479 4.6 2.94 5.892 3.851-4.128 0.099-12.18 1.879-15.536 3 2.753-2.091 7.871-6.040 9.644-6.864z"></path>
</svg>
