<!-- Generated by IcoMoon.io -->
<svg version="1.1" xmlns="http://www.w3.org/2000/svg" width="32" height="32" viewBox="0 0 32 32">
<title>zingat</title>
<path fill="#009cfb" d="M16.361 0.008c-0.123-0.005-0.268-0.007-0.413-0.007-0.973 0-1.917 0.121-2.819 0.35l0.079-0.017c-2.622 0.628-4.839 2.077-6.422 4.056l-0.018 0.023c-1.36 1.659-2.256 3.746-2.463 6.031l-0.003 0.043c-0.028 0.255-0.044 0.551-0.044 0.85 0 0.725 0.093 1.428 0.269 2.098l-0.013-0.058c0.391 1.409 0.87 2.625 1.457 3.778l-0.053-0.114c1.121 2.262 2.229 4.155 3.448 5.966l-0.117-0.185c2.318 3.506 4.536 6.498 6.896 9.368l-0.152-0.191 0.089-0.099c0.608-0.765 1.231-1.52 1.817-2.3 1.052-1.397 2.083-2.813 3.12-4.224 0.182-0.226 0.292-0.516 0.292-0.832 0-0.062-0.004-0.123-0.012-0.183l0.001 0.007c-0.096-0.63-0.634-1.107-1.283-1.107-0.11 0-0.217 0.014-0.319 0.040l0.009-0.002c-0.409 0.103-0.667 0.381-0.9 0.703-0.729 1.004-1.46 2.007-2.196 3.008-0.196 0.267-0.401 0.524-0.651 0.737-1.94-2.457-3.866-5.223-5.627-8.1l-0.213-0.374c-1.017-1.707-1.96-3.452-2.676-5.307-0.153-0.361-0.306-0.807-0.428-1.266l-0.017-0.075c-0.14-0.587-0.128-1.189-0.091-1.792 0.027-0.794 0.185-1.543 0.453-2.238l-0.016 0.047c0.325-0.805 0.676-1.593 1.2-2.283 0.917-1.231 2.104-2.211 3.477-2.863l0.056-0.024c1.051-0.48 2.128-0.827 3.293-0.827 0.11-0.002 0.24-0.003 0.37-0.003 0.503 0 1.002 0.016 1.497 0.046l-0.068-0.003c0.46 0.031 0.889 0.11 1.299 0.233l-0.041-0.011c1.981 0.597 3.656 1.675 4.928 3.325 0.493 0.655 0.909 1.408 1.213 2.216l0.020 0.062c0.13 0.319 0.256 0.713 0.355 1.118l0.013 0.062c0.055 0.26 0.095 0.569 0.114 0.885l0.001 0.018c0.059 0.659 0.084 1.32-0.063 1.969-0.105 0.432-0.24 0.855-0.407 1.268-0.177 0.479-0.375 0.947-0.583 1.412v-2.188c0.001-0.014 0.001-0.031 0.001-0.048 0-0.265-0.093-0.509-0.248-0.701l0.002 0.002c-0.158-0.174-0.329-0.329-0.516-0.465l-0.010-0.007c-2.16-1.64-4.317-3.28-6.477-4.917-0.213-0.162-0.482-0.259-0.773-0.259-0.296 0-0.569 0.1-0.787 0.269l0.003-0.002c-0.283 0.215-0.563 0.433-0.844 0.649l-1.697 1.296v-1.221c-0.001-0.117-0.017-0.233-0.047-0.348-0.009-0.716-0.592-1.294-1.309-1.294-0.723 0-1.309 0.586-1.309 1.309 0 0.118 0.016 0.232 0.045 0.34l-0.002-0.009v3.095c0 0.005 0.001 0.010 0.001 0.016 0 0.077-0.039 0.146-0.098 0.186l-0.001 0.001c-0.259 0.187-0.505 0.379-0.751 0.571l-0.033 0.027c-0.297 0.241-0.485 0.607-0.485 1.016 0 0.311 0.109 0.597 0.29 0.821l-0.002-0.002c0.452 0.563 1.275 0.653 1.837 0.203l5.108-3.9c0.024-0.022 0.056-0.036 0.092-0.036 0.040 0 0.075 0.017 0.1 0.044l0 0 3.024 2.312c0.693 0.529 1.385 1.067 2.085 1.587 0.11 0.070 0.182 0.192 0.182 0.33 0 0.013-0.001 0.026-0.002 0.038l0-0.002v6.44c0 0.027 0.004 0.052 0.005 0.077 0.001 0.059 0.006 0.116 0.014 0.171l-0.001-0.007c0 0 0 0.001 0 0.001s0 0.001 0 0.001v-0c0 0.009 0 0.017 0.003 0.027 0.007 0.041 0.014 0.073 0.022 0.105l-0.002-0.009c0.013 0.052 0.025 0.094 0.040 0.134l-0.003-0.009c0.018 0.050 0.034 0.089 0.053 0.128l-0.003-0.008c0.213 0.452 0.664 0.759 1.187 0.759 0.546 0 1.014-0.335 1.21-0.81l0.003-0.009 0.040-0.057c0.419-0.72 0.847-1.435 1.249-2.169 0.796-1.445 1.509-2.928 2.024-4.5 0.268-0.729 0.446-1.572 0.499-2.449l0.001-0.025c0.003-0.098 0.005-0.214 0.005-0.33 0-1.1-0.167-2.162-0.476-3.16l0.020 0.076c-0.699-2.358-2.074-4.336-3.899-5.765l-0.025-0.019c-2.048-1.617-4.393-2.449-7.001-2.543zM14.904 13.613c-0.738 0.019-1.328 0.622-1.328 1.362 0 0.012 0 0.024 0 0.036l-0-0.002v2.153c0.016 0.741 0.621 1.336 1.365 1.336 0.007 0 0.014-0 0.021-0h2.146c0.751-0.001 1.359-0.609 1.359-1.36 0-0.001 0-0.003 0-0.004v0-2.157c-0.002-0.75-0.608-1.357-1.357-1.361h-1.080v-0.003zM15 14.889h2.053c0.099 0 0.133 0.040 0.133 0.137v1.037l0.004 0.008c0 0.331-0.012 0.663 0 0.987 0 0.112-0.035 0.153-0.149 0.153h-2.039c-0.107 0-0.143-0.036-0.143-0.143v-2.035c0-0.103 0.031-0.145 0.14-0.145z"></path>
</svg>
